<svg width="480" height="721" viewBox="0 0 480 721" fill="none" xmlns="http://www.w3.org/2000/svg">
<g clip-path="url(#clip0_102_23548)">
<rect x="-0.000976562" width="480" height="720.37" fill="black"/>
<path d="M479.999 0C444.278 123.832 145.115 174.635 -0.000976562 184.558V0H479.999Z" fill="#E11619"/>
<path d="M-0.74707 720.371C34.9738 596.538 334.137 545.735 479.253 535.813V720.371H-0.74707Z" fill="#E11619"/>
<path d="M190.512 0.000488281C182.772 133.656 59.783 178.729 -0.744141 184.558V0.000488281H190.512Z" fill="#8D054D"/>
<path d="M288.744 720.371C296.484 586.715 419.473 541.642 480 535.813V720.371H288.744Z" fill="#8D054D"/>
<path d="M483.72 113.861C369.115 211.498 113.487 247.814 -0.000976562 253.767V614.697C97.9339 510.809 363.286 471.689 483.72 465.116V113.861Z" fill="#E11619"/>
<path d="M479.999 465.487C177.859 485.729 34.1075 573.394 -0.000976562 614.696V343.069C220.65 326.697 409.673 256.372 479.999 221.395V465.487Z" fill="#F7BB0B"/>
<path d="M479.999 465.487C186.046 487.069 34.1075 573.394 -0.000976562 614.696V425.301C220.65 408.929 409.673 338.604 479.999 303.627V465.487Z" fill="#8D054D"/>
<path d="M307.348 487.813C299.013 425.599 98.9758 420.217 -0.000976562 425.302V614.697C72.6316 541.469 235.534 500.836 307.348 487.813Z" fill="#E10D7B"/>
<path d="M290.229 290.977C309.206 250.046 372.685 179.349 474.788 224C445.02 238.14 384.741 264.186 290.229 290.977Z" fill="#E10D7B"/>
<path d="M67.5848 71.2886L119.409 134.814H86.6903L41.5535 77.7367V134.814H15.2834V13.972H41.5535V67.4675L83.8245 13.972H114.154L67.5848 71.2886Z" fill="white"/>
<path d="M412.414 649.082L360.591 585.556H393.309L438.445 642.633V585.556H464.716L464.716 706.398H438.445L438.445 652.903L396.175 706.398H365.845L412.414 649.082Z" fill="white"/>
<path fill-rule="evenodd" clip-rule="evenodd" d="M310.511 641.053C312.556 637.022 318.138 627.347 324.573 619.211L343.188 642.751V598.175C350.138 591.254 355.719 586.789 357.371 585.673H369.458V706.515H343.188V653.02L300.917 706.515H289.992C291.719 691.347 295.068 679.812 296.673 674.41L317.157 649.199L310.511 641.053Z" fill="white"/>
<path fill-rule="evenodd" clip-rule="evenodd" d="M168.264 80.1985C163.721 88.9304 158.14 96.7443 154.098 101.936L134.869 77.6201V123.36C130.233 128 125.023 132.093 121.896 134.698H113.489H108.599V13.8555H134.869V67.3509L177.14 13.8555H189.262C188.651 20.0934 186.419 33.8608 183.26 43.6526L160.9 71.1719L168.264 80.1985Z" fill="white"/>
<path d="M219.808 23.8086H218.222V15.5598H213.407V23.8086H211.82V14.1601H219.808V23.8086ZM226.352 13.9362C227.323 13.9362 228.156 14.1539 228.853 14.5893C229.562 15.0124 230.103 15.6096 230.477 16.3809C230.85 17.1399 231.036 18.0108 231.036 18.9937C231.036 19.9766 230.844 20.8537 230.458 21.6251C230.072 22.384 229.525 22.975 228.816 23.398C228.106 23.821 227.285 24.0325 226.352 24.0325C225.419 24.0325 224.598 23.8273 223.889 23.4167C223.192 23.0061 222.645 22.4214 222.246 21.6624C221.861 20.891 221.668 20.0015 221.668 18.9937C221.668 17.9735 221.855 17.0839 222.228 16.3249C222.613 15.566 223.155 14.9812 223.851 14.5707C224.561 14.1477 225.394 13.9362 226.352 13.9362ZM223.348 18.9937C223.348 19.7153 223.472 20.3498 223.721 20.8972C223.982 21.4447 224.337 21.8739 224.785 22.185C225.245 22.4836 225.767 22.6329 226.352 22.6329C226.924 22.6329 227.441 22.4836 227.901 22.185C228.361 21.8739 228.716 21.4447 228.965 20.8972C229.226 20.3498 229.357 19.7153 229.357 18.9937C229.357 18.2721 229.226 17.6375 228.965 17.0901C228.704 16.5302 228.343 16.101 227.882 15.8024C227.435 15.4914 226.918 15.3358 226.334 15.3358C225.774 15.3358 225.264 15.4851 224.803 15.7837C224.355 16.0823 224.001 16.5116 223.739 17.0714C223.478 17.6189 223.348 18.2596 223.348 18.9937ZM240.604 22.4089H241.854V26.8692H240.268V23.8086H233.064V26.8692H231.478V22.4089H232.523C232.946 21.4385 233.251 20.4929 233.437 19.5722C233.636 18.6391 233.736 17.6562 233.736 16.6235V14.1601H240.604V22.4089ZM239.017 15.5598H235.303V16.213C235.303 17.1834 235.26 18.0295 235.173 18.7511C235.086 19.4602 234.961 20.0948 234.8 20.6546C234.638 21.2145 234.426 21.7993 234.165 22.4089H239.017V15.5598ZM247.326 13.9362C248.508 13.9362 249.466 14.2223 250.2 14.7946C250.934 15.3545 251.363 16.1756 251.488 17.2581H249.846C249.721 16.636 249.447 16.1632 249.024 15.8397C248.614 15.5038 248.091 15.3358 247.457 15.3358C246.486 15.3358 245.74 15.6655 245.217 16.3249C244.707 16.9719 244.452 17.8988 244.452 19.1057C244.452 19.8024 244.564 20.4182 244.788 20.9532C245.012 21.4882 245.335 21.905 245.758 22.2036C246.194 22.4898 246.698 22.6329 247.27 22.6329C248.029 22.6329 248.633 22.4276 249.08 22.017C249.541 21.6064 249.821 21.0279 249.92 20.2814H251.544C251.37 21.4882 250.916 22.4151 250.182 23.0621C249.447 23.7091 248.483 24.0325 247.289 24.0325C246.356 24.0325 245.547 23.8335 244.863 23.4353C244.191 23.0372 243.675 22.4711 243.314 21.7371C242.953 20.9906 242.773 20.1134 242.773 19.1057C242.773 18.0606 242.953 17.1523 243.314 16.3809C243.687 15.5971 244.216 14.9937 244.9 14.5707C245.584 14.1477 246.393 13.9362 247.326 13.9362ZM260.691 15.5598H257.238V23.8086H255.652V15.5598H252.199V14.1601H260.691V15.5598ZM266.716 13.9362C267.637 13.9362 268.427 14.1539 269.087 14.5893C269.758 15.0124 270.269 15.6096 270.617 16.3809C270.978 17.1399 271.158 18.017 271.158 19.0123C271.158 19.9952 270.978 20.8661 270.617 21.6251C270.269 22.384 269.758 22.975 269.087 23.398C268.427 23.821 267.65 24.0325 266.754 24.0325C266.119 24.0325 265.522 23.9081 264.962 23.6593C264.402 23.398 263.961 23.0185 263.637 22.5209H263.6V27.5038H262.014V14.1601H263.6V15.4665H263.637C263.886 14.9688 264.278 14.5893 264.813 14.3281C265.348 14.0668 265.982 13.9362 266.716 13.9362ZM263.544 18.975C263.544 19.7091 263.662 20.356 263.898 20.9159C264.147 21.4633 264.496 21.8864 264.944 22.185C265.404 22.4836 265.951 22.6329 266.586 22.6329C267.195 22.6329 267.712 22.4898 268.135 22.2036C268.57 21.905 268.9 21.4758 269.124 20.9159C269.36 20.356 269.478 19.6842 269.478 18.9004C269.478 18.2161 269.354 17.6064 269.105 17.0714C268.869 16.524 268.52 16.101 268.06 15.8024C267.612 15.4914 267.083 15.3358 266.474 15.3358C265.852 15.3358 265.317 15.4914 264.869 15.8024C264.433 16.1134 264.104 16.5427 263.88 17.0901C263.656 17.6375 263.544 18.2658 263.544 18.975ZM277.182 13.9362C278.152 13.9362 278.986 14.1539 279.683 14.5893C280.392 15.0124 280.933 15.6096 281.306 16.3809C281.68 17.1399 281.866 18.0108 281.866 18.9937C281.866 19.9766 281.673 20.8537 281.288 21.6251C280.902 22.384 280.354 22.975 279.645 23.398C278.936 23.821 278.115 24.0325 277.182 24.0325C276.249 24.0325 275.428 23.8273 274.718 23.4167C274.022 23.0061 273.474 22.4214 273.076 21.6624C272.69 20.891 272.498 20.0015 272.498 18.9937C272.498 17.9735 272.684 17.0839 273.057 16.3249C273.443 15.566 273.984 14.9812 274.681 14.5707C275.39 14.1477 276.224 13.9362 277.182 13.9362ZM274.177 18.9937C274.177 19.7153 274.302 20.3498 274.55 20.8972C274.812 21.4447 275.166 21.8739 275.614 22.185C276.075 22.4836 276.597 22.6329 277.182 22.6329C277.754 22.6329 278.27 22.4836 278.731 22.185C279.191 21.8739 279.546 21.4447 279.795 20.8972C280.056 20.3498 280.187 19.7153 280.187 18.9937C280.187 18.2721 280.056 17.6375 279.795 17.0901C279.533 16.5302 279.173 16.101 278.712 15.8024C278.264 15.4914 277.748 15.3358 277.163 15.3358C276.603 15.3358 276.093 15.4851 275.633 15.7837C275.185 16.0823 274.83 16.5116 274.569 17.0714C274.308 17.6189 274.177 18.2596 274.177 18.9937ZM285.323 21.9983H285.36L289.69 14.1601H291.724V23.8086H290.138V15.9704H290.1L285.771 23.8086H283.736V14.1601H285.323V21.9983ZM299.332 22.0357H299.369L302.299 14.1601H304.558V23.8086H302.971V16.157H302.915L300.06 23.8086H298.604L295.749 16.157H295.693V23.8086H294.107V14.1601H296.402L299.332 22.0357ZM310.986 13.9362C312.168 13.9362 313.126 14.2223 313.86 14.7946C314.594 15.3545 315.024 16.1756 315.148 17.2581H313.506C313.381 16.636 313.108 16.1632 312.685 15.8397C312.274 15.5038 311.751 15.3358 311.117 15.3358C310.146 15.3358 309.4 15.6655 308.877 16.3249C308.367 16.9719 308.112 17.8988 308.112 19.1057C308.112 19.8024 308.224 20.4182 308.448 20.9532C308.672 21.4882 308.996 21.905 309.419 22.2036C309.854 22.4898 310.358 22.6329 310.93 22.6329C311.689 22.6329 312.293 22.4276 312.741 22.017C313.201 21.6064 313.481 21.0279 313.58 20.2814H315.204C315.03 21.4882 314.576 22.4151 313.842 23.0621C313.108 23.7091 312.143 24.0325 310.949 24.0325C310.016 24.0325 309.207 23.8335 308.523 23.4353C307.851 23.0372 307.335 22.4711 306.974 21.7371C306.613 20.9906 306.433 20.1134 306.433 19.1057C306.433 18.0606 306.613 17.1523 306.974 16.3809C307.347 15.5971 307.876 14.9937 308.56 14.5707C309.244 14.1477 310.053 13.9362 310.986 13.9362ZM324.575 23.8086H322.988V19.8708H320.879L317.837 23.8086H315.729L319.032 19.8148C318.298 19.6904 317.719 19.3794 317.296 18.8817C316.873 18.384 316.662 17.762 316.662 17.0155C316.662 16.4307 316.786 15.9268 317.035 15.5038C317.296 15.0683 317.657 14.7386 318.117 14.5147C318.59 14.2783 319.144 14.1601 319.778 14.1601H324.575V23.8086ZM318.285 17.0155C318.285 17.4882 318.428 17.849 318.715 18.0979C319.013 18.3467 319.436 18.4711 319.984 18.4711H322.988V15.5598H319.909C319.424 15.5598 319.032 15.6842 318.733 15.933C318.435 16.1819 318.285 16.5427 318.285 17.0155ZM340.148 23.8086H338.562V15.5598H333.747V23.8086H332.16V14.1601H340.148V23.8086ZM346.692 13.9362C347.663 13.9362 348.496 14.1539 349.193 14.5893C349.902 15.0124 350.443 15.6096 350.817 16.3809C351.19 17.1399 351.377 18.0108 351.377 18.9937C351.377 19.9766 351.184 20.8537 350.798 21.6251C350.412 22.384 349.865 22.975 349.156 23.398C348.447 23.821 347.625 24.0325 346.692 24.0325C345.759 24.0325 344.938 23.8273 344.229 23.4167C343.532 23.0061 342.985 22.4214 342.587 21.6624C342.201 20.891 342.008 20.0015 342.008 18.9937C342.008 17.9735 342.195 17.0839 342.568 16.3249C342.954 15.566 343.495 14.9812 344.191 14.5707C344.901 14.1477 345.734 13.9362 346.692 13.9362ZM343.688 18.9937C343.688 19.7153 343.812 20.3498 344.061 20.8972C344.322 21.4447 344.677 21.8739 345.125 22.185C345.585 22.4836 346.107 22.6329 346.692 22.6329C347.265 22.6329 347.781 22.4836 348.241 22.185C348.702 21.8739 349.056 21.4447 349.305 20.8972C349.566 20.3498 349.697 19.7153 349.697 18.9937C349.697 18.2721 349.566 17.6375 349.305 17.0901C349.044 16.5302 348.683 16.101 348.223 15.8024C347.775 15.4914 347.258 15.3358 346.674 15.3358C346.114 15.3358 345.604 15.4851 345.143 15.7837C344.695 16.0823 344.341 16.5116 344.08 17.0714C343.818 17.6189 343.688 18.2596 343.688 18.9937ZM360.944 22.4089H362.194V26.8692H360.608V23.8086H353.404V26.8692H351.818V22.4089H352.863C353.286 21.4385 353.591 20.4929 353.777 19.5722C353.976 18.6391 354.076 17.6562 354.076 16.6235V14.1601H360.944V22.4089ZM359.357 15.5598H355.644V16.213C355.644 17.1834 355.6 18.0295 355.513 18.7511C355.426 19.4602 355.301 20.0948 355.14 20.6546C354.978 21.2145 354.766 21.7993 354.505 22.4089H359.357V15.5598ZM376.63 23.8086H375.044V15.5598H371.554L371.349 20.6546C371.311 21.7619 371.069 22.6018 370.621 23.1741C370.185 23.7339 369.57 24.0139 368.773 24.0139C368.574 24.0139 368.388 23.9952 368.213 23.9579C368.052 23.933 367.871 23.8832 367.672 23.8086V22.5022C367.933 22.6018 368.201 22.6515 368.475 22.6515C368.773 22.6515 369.016 22.5831 369.203 22.4462C369.389 22.2969 369.532 22.0605 369.632 21.7371C369.731 21.4011 369.793 20.9595 369.818 20.412L370.024 14.1601H376.63V23.8086ZM386.967 13.9362C387.888 13.9362 388.684 14.1477 389.356 14.5707C390.028 14.9937 390.544 15.5909 390.905 16.3623C391.266 17.1212 391.446 17.9983 391.446 18.9937C391.446 19.989 391.26 20.8724 390.886 21.6437C390.526 22.4027 390.003 22.9937 389.319 23.4167C388.647 23.8273 387.863 24.0325 386.967 24.0325C386.121 24.0325 385.375 23.8521 384.728 23.4913C384.081 23.1181 383.564 22.5831 383.179 21.8864C382.793 21.1896 382.569 20.356 382.507 19.3856H380.603V23.8086H379.017V14.1601H380.603V18.0232H382.563C382.675 17.1772 382.924 16.4494 383.309 15.8397C383.695 15.2301 384.199 14.7635 384.821 14.44C385.443 14.1041 386.159 13.9362 386.967 13.9362ZM384.149 18.9937C384.149 19.7277 384.261 20.3685 384.485 20.9159C384.709 21.4633 385.033 21.8864 385.456 22.185C385.891 22.4836 386.395 22.6329 386.967 22.6329C387.54 22.6329 388.037 22.4898 388.46 22.2036C388.883 21.905 389.207 21.482 389.431 20.9346C389.655 20.3871 389.767 19.7402 389.767 18.9937C389.767 18.2347 389.648 17.5816 389.412 17.0341C389.188 16.4742 388.865 16.0512 388.442 15.7651C388.019 15.4789 387.521 15.3358 386.949 15.3358C386.401 15.3358 385.916 15.4851 385.493 15.7837C385.07 16.0699 384.74 16.4929 384.504 17.0528C384.267 17.6002 384.149 18.2472 384.149 18.9937ZM401.629 10.4836C401.517 11.0808 401.243 11.5349 400.808 11.846C400.347 12.1694 399.526 12.3872 398.344 12.4991C397.15 12.6111 396.236 12.947 395.601 13.5069C394.979 14.0792 394.537 15.031 394.276 16.3623H394.332C394.718 15.6655 395.222 15.1305 395.844 14.7573C396.478 14.384 397.187 14.1974 397.971 14.1974C398.805 14.1974 399.539 14.3903 400.173 14.776C400.808 15.1617 401.293 15.7153 401.629 16.4369C401.977 17.1585 402.152 18.0046 402.152 18.975C402.152 19.9828 401.952 20.8724 401.554 21.6437C401.169 22.4027 400.621 22.9937 399.912 23.4167C399.203 23.8273 398.394 24.0325 397.486 24.0325C396.503 24.0325 395.663 23.8273 394.966 23.4167C394.27 22.9937 393.735 22.3778 393.362 21.5691C393.001 20.7604 392.82 19.7775 392.82 18.6204C392.82 16.2068 393.212 14.44 393.996 13.3203C394.78 12.1881 395.949 11.4976 397.505 11.2488L398.811 11.0435C399.122 10.9937 399.352 10.9502 399.501 10.9128C399.663 10.8755 399.781 10.8257 399.856 10.7635C399.931 10.7013 399.993 10.608 400.043 10.4836H401.629ZM394.444 19.031C394.444 19.7402 394.568 20.3747 394.817 20.9346C395.066 21.482 395.421 21.9112 395.881 22.2223C396.354 22.5209 396.895 22.6702 397.505 22.6702C398.077 22.6702 398.587 22.5147 399.035 22.2036C399.483 21.8926 399.831 21.4633 400.08 20.9159C400.341 20.356 400.472 19.7215 400.472 19.0123C400.472 18.3156 400.36 17.706 400.136 17.1834C399.912 16.6609 399.582 16.2565 399.147 15.9704C398.711 15.6718 398.189 15.5225 397.579 15.5225C396.982 15.5225 396.441 15.6718 395.956 15.9704C395.483 16.2565 395.11 16.6671 394.836 17.2021C394.575 17.7246 394.444 18.3343 394.444 19.031ZM405.608 17.8366H408.576C409.198 17.8366 409.745 17.9548 410.218 18.1912C410.703 18.4276 411.076 18.7697 411.338 19.2176C411.599 19.6655 411.729 20.1881 411.729 20.7853C411.729 21.3825 411.593 21.9112 411.319 22.3716C411.058 22.8319 410.691 23.1865 410.218 23.4353C409.745 23.6842 409.222 23.8086 408.65 23.8086H404.022V14.1601H405.608V17.8366ZM414.846 23.8086H413.26V14.1601H414.846V23.8086ZM408.221 22.4462C408.818 22.4462 409.278 22.3094 409.602 22.0357C409.925 21.7619 410.087 21.3576 410.087 20.8226C410.087 20.3125 409.919 19.9144 409.583 19.6282C409.26 19.342 408.812 19.199 408.24 19.199H405.608V22.4462H408.221ZM421.247 13.9362C422.628 13.9362 423.705 14.4338 424.476 15.4291C425.235 16.412 425.614 17.6935 425.614 19.2736V19.4602H418.392V19.5722C418.392 20.1819 418.51 20.7168 418.747 21.1772C418.996 21.6375 419.344 21.9983 419.792 22.2596C420.252 22.5084 420.787 22.6329 421.397 22.6329C422.093 22.6329 422.647 22.4711 423.058 22.1476C423.481 21.8242 423.761 21.3576 423.898 20.7479H425.465C425.254 21.8055 424.787 22.6204 424.065 23.1927C423.356 23.7526 422.448 24.0325 421.341 24.0325C420.333 24.0325 419.481 23.8086 418.784 23.3607C418.112 22.9128 417.596 22.2845 417.235 21.4758C416.887 20.6671 416.712 19.8148 416.712 18.919C416.712 17.4882 417.135 16.3063 417.982 15.3732C418.84 14.4152 419.929 13.9362 421.247 13.9362ZM423.935 18.0606C423.91 17.5504 423.773 17.0901 423.524 16.6795C423.275 16.2565 422.94 15.9268 422.517 15.6904C422.106 15.454 421.646 15.3358 421.135 15.3358C420.638 15.3358 420.19 15.4478 419.792 15.6718C419.394 15.8957 419.07 16.2192 418.821 16.6422C418.573 17.0528 418.429 17.5256 418.392 18.0606H423.935ZM216.374 33.1601C217.407 33.1601 218.197 33.3592 218.744 33.7573C219.292 34.143 219.565 34.7277 219.565 35.5116C219.565 36.4696 219.099 37.1663 218.166 37.6018V37.6204C219.385 37.9439 219.995 38.7277 219.995 39.9719C219.995 40.5318 219.864 41.0294 219.603 41.4649C219.341 41.8879 218.993 42.2176 218.558 42.454C218.122 42.6904 217.649 42.8086 217.139 42.8086H211.82V33.1601H216.374ZM216.299 37.0606C217.407 37.0606 217.96 36.6313 217.96 35.7728C217.96 34.9393 217.394 34.5225 216.262 34.5225H213.369V37.0606H216.299ZM216.822 41.4462C217.282 41.4462 217.656 41.3094 217.942 41.0357C218.24 40.7619 218.39 40.3949 218.39 39.9346C218.39 39.4494 218.222 39.0761 217.886 38.8148C217.55 38.5411 217.102 38.4043 216.542 38.4043H213.369V41.4462H216.822ZM225.801 32.9362C227.095 32.9362 228.015 33.1663 228.563 33.6267C229.123 34.0746 229.402 34.7091 229.402 35.5302V41.0916C229.402 41.4525 229.57 41.6329 229.906 41.6329C230.068 41.6329 230.23 41.6018 230.392 41.5395V42.7713C230.081 42.9455 229.701 43.0325 229.253 43.0325C228.818 43.0325 228.482 42.9081 228.245 42.6593C228.021 42.4105 227.909 42.0372 227.909 41.5395C227.063 42.5349 225.931 43.0325 224.513 43.0325C223.518 43.0325 222.734 42.7962 222.161 42.3234C221.602 41.8506 221.322 41.185 221.322 40.3265C221.322 39.4556 221.602 38.7713 222.161 38.2736C222.684 37.7635 223.984 37.3778 226.062 37.1165C226.522 37.0668 226.877 36.9921 227.126 36.8926C227.387 36.7931 227.567 36.6686 227.667 36.5193C227.779 36.3576 227.835 36.1585 227.835 35.9221C227.835 35.3872 227.661 34.989 227.312 34.7277C226.964 34.4665 226.423 34.3358 225.689 34.3358C224.905 34.3358 224.314 34.4851 223.916 34.7837C223.53 35.0823 223.318 35.5427 223.281 36.1648H221.695C221.745 35.0948 222.118 34.2923 222.815 33.7573C223.524 33.2099 224.519 32.9362 225.801 32.9362ZM223.001 40.2145C223.001 40.6624 223.163 41.0108 223.486 41.2596C223.822 41.5084 224.283 41.6329 224.867 41.6329C225.452 41.6329 225.969 41.5333 226.416 41.3343C226.864 41.1228 227.207 40.8553 227.443 40.5318C227.692 40.1958 227.816 39.8475 227.816 39.4867V37.8257C227.692 37.9128 227.524 37.9937 227.312 38.0683C227.113 38.143 226.908 38.1927 226.696 38.2176L225.073 38.4602C224.364 38.5598 223.841 38.7526 223.505 39.0388C223.169 39.3249 223.001 39.7168 223.001 40.2145ZM233.454 41.4089H237.429V33.1601H239.016V41.4089H242.991V33.1601H244.577V42.8086H231.868V33.1601H233.454V41.4089ZM248.545 40.9983H248.582L252.912 33.1601H254.946V42.8086H253.36V34.9704H253.322L248.992 42.8086H246.958V33.1601H248.545V40.9983ZM270.51 42.8086H268.924V34.5598H264.109V42.8086H262.522V33.1601H270.51V42.8086ZM277.054 32.9362C278.025 32.9362 278.858 33.1539 279.555 33.5893C280.264 34.0124 280.805 34.6096 281.179 35.3809C281.552 36.1399 281.739 37.0108 281.739 37.9937C281.739 38.9766 281.546 39.8537 281.16 40.6251C280.774 41.384 280.227 41.975 279.518 42.398C278.809 42.821 277.987 43.0325 277.054 43.0325C276.121 43.0325 275.3 42.8273 274.591 42.4167C273.894 42.0061 273.347 41.4214 272.949 40.6624C272.563 39.891 272.37 39.0015 272.37 37.9937C272.37 36.9735 272.557 36.0839 272.93 35.3249C273.316 34.566 273.857 33.9812 274.554 33.5707C275.263 33.1477 276.096 32.9362 277.054 32.9362ZM274.05 37.9937C274.05 38.7153 274.174 39.3498 274.423 39.8972C274.684 40.4447 275.039 40.8739 275.487 41.185C275.947 41.4836 276.47 41.6329 277.054 41.6329C277.627 41.6329 278.143 41.4836 278.603 41.185C279.064 40.8739 279.418 40.4447 279.667 39.8972C279.928 39.3498 280.059 38.7153 280.059 37.9937C280.059 37.2721 279.928 36.6375 279.667 36.0901C279.406 35.5302 279.045 35.101 278.585 34.8024C278.137 34.4914 277.62 34.3358 277.036 34.3358C276.476 34.3358 275.966 34.4851 275.505 34.7837C275.057 35.0823 274.703 35.5116 274.442 36.0714C274.18 36.6189 274.05 37.2596 274.05 37.9937ZM288.506 37.5458H288.544V33.1601H290.13V37.6391H290.167L294.124 33.1601H296.046L292.369 37.1725L296.587 42.8086H294.628L291.324 38.1803L290.13 39.4307V42.8086H288.544V39.468L287.312 38.1803L284.027 42.8086H282.086L286.323 37.1725L282.628 33.1601H284.625L288.506 37.5458ZM301.8 32.9362C303.181 32.9362 304.258 33.4338 305.029 34.4291C305.788 35.412 306.167 36.6935 306.167 38.2736V38.4602H298.945V38.5722C298.945 39.1819 299.063 39.7168 299.3 40.1772C299.548 40.6375 299.897 40.9983 300.345 41.2596C300.805 41.5084 301.34 41.6329 301.95 41.6329C302.646 41.6329 303.2 41.4711 303.611 41.1476C304.034 40.8242 304.314 40.3576 304.45 39.7479H306.018C305.807 40.8055 305.34 41.6204 304.618 42.1927C303.909 42.7526 303.001 43.0325 301.894 43.0325C300.886 43.0325 300.034 42.8086 299.337 42.3607C298.665 41.9128 298.149 41.2845 297.788 40.4758C297.44 39.6671 297.265 38.8148 297.265 37.919C297.265 36.4882 297.688 35.3063 298.534 34.3732C299.393 33.4152 300.482 32.9362 301.8 32.9362ZM304.488 37.0606C304.463 36.5504 304.326 36.0901 304.077 35.6795C303.828 35.2565 303.492 34.9268 303.069 34.6904C302.659 34.454 302.199 34.3358 301.688 34.3358C301.191 34.3358 300.743 34.4478 300.345 34.6718C299.947 34.8957 299.623 35.2192 299.374 35.6422C299.125 36.0528 298.982 36.5256 298.945 37.0606H304.488ZM315.285 42.8086H313.698V34.5598H310.208L310.003 39.6546C309.966 40.7619 309.723 41.6018 309.275 42.1741C308.84 42.7339 308.224 43.0139 307.428 43.0139C307.229 43.0139 307.042 42.9952 306.868 42.9579C306.706 42.933 306.526 42.8832 306.327 42.8086V41.5022C306.588 41.6018 306.855 41.6515 307.129 41.6515C307.428 41.6515 307.67 41.5831 307.857 41.4462C308.044 41.2969 308.187 41.0605 308.286 40.7371C308.386 40.4011 308.448 39.9595 308.473 39.412L308.678 33.1601H315.285V42.8086ZM321.628 32.9362C322.922 32.9362 323.843 33.1663 324.39 33.6267C324.95 34.0746 325.23 34.7091 325.23 35.5302V41.0916C325.23 41.4525 325.398 41.6329 325.734 41.6329C325.895 41.6329 326.057 41.6018 326.219 41.5395V42.7713C325.908 42.9455 325.528 43.0325 325.081 43.0325C324.645 43.0325 324.309 42.9081 324.073 42.6593C323.849 42.4105 323.737 42.0372 323.737 41.5395C322.891 42.5349 321.759 43.0325 320.34 43.0325C319.345 43.0325 318.561 42.7962 317.989 42.3234C317.429 41.8506 317.149 41.185 317.149 40.3265C317.149 39.4556 317.429 38.7713 317.989 38.2736C318.511 37.7635 319.811 37.3778 321.889 37.1165C322.35 37.0668 322.704 36.9921 322.953 36.8926C323.214 36.7931 323.395 36.6686 323.494 36.5193C323.606 36.3576 323.662 36.1585 323.662 35.9221C323.662 35.3872 323.488 34.989 323.14 34.7277C322.791 34.4665 322.25 34.3358 321.516 34.3358C320.732 34.3358 320.141 34.4851 319.743 34.7837C319.357 35.0823 319.146 35.5427 319.109 36.1648H317.522C317.572 35.0948 317.945 34.2923 318.642 33.7573C319.351 33.2099 320.346 32.9362 321.628 32.9362ZM318.829 40.2145C318.829 40.6624 318.99 41.0108 319.314 41.2596C319.65 41.5084 320.11 41.6329 320.695 41.6329C321.28 41.6329 321.796 41.5333 322.244 41.3343C322.692 41.1228 323.034 40.8553 323.27 40.5318C323.519 40.1958 323.644 39.8475 323.644 39.4867V37.8257C323.519 37.9128 323.351 37.9937 323.14 38.0683C322.941 38.143 322.735 38.1927 322.524 38.2176L320.9 38.4602C320.191 38.5598 319.668 38.7526 319.332 39.0388C318.997 39.3249 318.829 39.7168 318.829 40.2145ZM329.282 37.0046H334.097V33.1601H335.683V42.8086H334.097V38.4043H329.282V42.8086H327.695V33.1601H329.282V37.0046ZM339.652 40.9983H339.689L344.019 33.1601H346.053V42.8086H344.467V34.9704H344.429L340.1 42.8086H338.065V33.1601H339.652V40.9983ZM356.031 42.8086H354.445V38.8708H352.336L349.294 42.8086H347.185L350.488 38.8148C349.754 38.6904 349.176 38.3794 348.753 37.8817C348.33 37.384 348.118 36.762 348.118 36.0155C348.118 35.4307 348.243 34.9268 348.491 34.5038C348.753 34.0683 349.113 33.7386 349.574 33.5147C350.047 33.2783 350.6 33.1601 351.235 33.1601H356.031V42.8086ZM349.742 36.0155C349.742 36.4882 349.885 36.849 350.171 37.0979C350.47 37.3467 350.893 37.4711 351.44 37.4711H354.445V34.5598H351.365C350.88 34.5598 350.488 34.6842 350.19 34.933C349.891 35.1819 349.742 35.5427 349.742 36.0155Z" fill="white"/>
<path d="M72.6508 682.455L77.0552 677.995H79.1827L75.2822 681.709L79.4626 687.644H77.4471L74.1438 682.866H74.1252L72.6508 684.247V687.644H71.0645V677.995H72.6508V682.455ZM84.8126 677.771C85.7831 677.771 86.6167 677.989 87.3134 678.424C88.0226 678.847 88.5638 679.445 88.937 680.216C89.3103 680.975 89.4969 681.846 89.4969 682.829C89.4969 683.812 89.3041 684.689 88.9184 685.46C88.5327 686.219 87.9852 686.81 87.2761 687.233C86.5669 687.656 85.7457 687.868 84.8126 687.868C83.8795 687.868 83.0584 687.662 82.3492 687.252C81.6524 686.841 81.105 686.256 80.7069 685.497C80.3212 684.726 80.1283 683.836 80.1283 682.829C80.1283 681.808 80.315 680.919 80.6882 680.16C81.0739 679.401 81.6151 678.816 82.3119 678.406C83.021 677.983 83.8546 677.771 84.8126 677.771ZM81.808 682.829C81.808 683.55 81.9324 684.185 82.1812 684.732C82.4425 685.28 82.7971 685.709 83.245 686.02C83.7053 686.319 84.2279 686.468 84.8126 686.468C85.3849 686.468 85.9013 686.319 86.3616 686.02C86.822 685.709 87.1765 685.28 87.4254 684.732C87.6866 684.185 87.8173 683.55 87.8173 682.829C87.8173 682.107 87.6866 681.473 87.4254 680.925C87.1641 680.365 86.8033 679.936 86.3429 679.637C85.895 679.326 85.3787 679.171 84.794 679.171C84.2341 679.171 83.724 679.32 83.2636 679.619C82.8157 679.917 82.4612 680.347 82.1999 680.906C81.9386 681.454 81.808 682.095 81.808 682.829ZM96.5927 685.871H96.63L99.5601 677.995H101.818V687.644H100.232V679.992H100.176L97.3206 687.644H95.8649L93.0095 679.992H92.9535V687.644H91.3672V677.995H93.6627L96.5927 685.871ZM111.289 678.816H111.345C111.967 678.119 112.714 677.771 113.584 677.771C114.319 677.771 114.959 677.976 115.507 678.387C116.054 678.785 116.477 679.357 116.776 680.104C117.074 680.838 117.224 681.696 117.224 682.679C117.224 683.762 117.068 684.695 116.757 685.479C116.458 686.25 116.017 686.841 115.432 687.252C114.86 687.662 114.169 687.868 113.361 687.868C112.975 687.868 112.602 687.787 112.241 687.625C111.88 687.463 111.575 687.227 111.326 686.916H111.289V691.339H109.703V686.878H109.665C109.081 687.538 108.347 687.868 107.463 687.868C106.692 687.868 106.026 687.656 105.466 687.233C104.919 686.81 104.496 686.213 104.197 685.441C103.911 684.658 103.768 683.737 103.768 682.679C103.768 681.672 103.917 680.801 104.216 680.067C104.527 679.32 104.962 678.754 105.522 678.368C106.095 677.97 106.76 677.771 107.519 677.771C107.979 677.771 108.39 677.864 108.751 678.051C109.124 678.238 109.423 678.493 109.647 678.816H109.703V674.319H111.289V678.816ZM105.41 682.717C105.41 683.924 105.616 684.863 106.026 685.535C106.449 686.207 107.053 686.542 107.836 686.542C108.21 686.542 108.533 686.468 108.807 686.319C109.093 686.169 109.311 685.995 109.46 685.796C109.622 685.597 109.703 685.429 109.703 685.292V680.44C109.516 680.004 109.249 679.675 108.9 679.451C108.564 679.214 108.172 679.096 107.724 679.096C106.99 679.096 106.418 679.407 106.007 680.029C105.609 680.651 105.41 681.547 105.41 682.717ZM111.289 685.292C111.376 685.665 111.594 685.97 111.942 686.207C112.291 686.43 112.695 686.542 113.155 686.542C113.939 686.542 114.536 686.207 114.947 685.535C115.37 684.85 115.581 683.911 115.581 682.717C115.581 681.535 115.376 680.639 114.965 680.029C114.567 679.407 113.989 679.096 113.23 679.096C112.782 679.096 112.39 679.208 112.054 679.432C111.718 679.644 111.463 679.973 111.289 680.421V685.292ZM123.322 677.771C124.293 677.771 125.126 677.989 125.823 678.424C126.532 678.847 127.073 679.445 127.447 680.216C127.82 680.975 128.006 681.846 128.006 682.829C128.006 683.812 127.814 684.689 127.428 685.46C127.042 686.219 126.495 686.81 125.786 687.233C125.076 687.656 124.255 687.868 123.322 687.868C122.389 687.868 121.568 687.662 120.859 687.252C120.162 686.841 119.615 686.256 119.216 685.497C118.831 684.726 118.638 683.836 118.638 682.829C118.638 681.808 118.825 680.919 119.198 680.16C119.583 679.401 120.125 678.816 120.821 678.406C121.531 677.983 122.364 677.771 123.322 677.771ZM120.318 682.829C120.318 683.55 120.442 684.185 120.691 684.732C120.952 685.28 121.307 685.709 121.755 686.02C122.215 686.319 122.737 686.468 123.322 686.468C123.894 686.468 124.411 686.319 124.871 686.02C125.332 685.709 125.686 685.28 125.935 684.732C126.196 684.185 126.327 683.55 126.327 682.829C126.327 682.107 126.196 681.473 125.935 680.925C125.674 680.365 125.313 679.936 124.853 679.637C124.405 679.326 123.888 679.171 123.304 679.171C122.744 679.171 122.234 679.32 121.773 679.619C121.325 679.917 120.971 680.347 120.709 680.906C120.448 681.454 120.318 682.095 120.318 682.829ZM134.636 677.771C135.556 677.771 136.346 677.989 137.006 678.424C137.678 678.847 138.188 679.445 138.536 680.216C138.897 680.975 139.077 681.852 139.077 682.847C139.077 683.83 138.897 684.701 138.536 685.46C138.188 686.219 137.678 686.81 137.006 687.233C136.346 687.656 135.569 687.868 134.673 687.868C134.039 687.868 133.441 687.743 132.881 687.494C132.322 687.233 131.88 686.854 131.556 686.356H131.519V691.339H129.933V677.995H131.519V679.301H131.556C131.805 678.804 132.197 678.424 132.732 678.163C133.267 677.902 133.902 677.771 134.636 677.771ZM131.463 682.81C131.463 683.544 131.581 684.191 131.818 684.751C132.067 685.298 132.415 685.721 132.863 686.02C133.323 686.319 133.871 686.468 134.505 686.468C135.115 686.468 135.631 686.325 136.054 686.039C136.49 685.74 136.819 685.311 137.043 684.751C137.28 684.191 137.398 683.519 137.398 682.735C137.398 682.051 137.273 681.441 137.025 680.906C136.788 680.359 136.44 679.936 135.979 679.637C135.532 679.326 135.003 679.171 134.393 679.171C133.771 679.171 133.236 679.326 132.788 679.637C132.353 679.948 132.023 680.378 131.799 680.925C131.575 681.473 131.463 682.101 131.463 682.81ZM147.983 679.395H144.53V687.644H142.944V679.395H139.492V677.995H147.983V679.395ZM156.03 685.833H156.068L160.397 677.995H162.432V687.644H160.845V679.805H160.808L156.478 687.644H154.444V677.995H156.03V685.833ZM177.996 687.644H176.41V679.395H171.595V687.644H170.008V677.995H177.996V687.644ZM185.137 677.771C186.058 677.771 186.848 677.989 187.507 678.424C188.179 678.847 188.689 679.445 189.038 680.216C189.399 680.975 189.579 681.852 189.579 682.847C189.579 683.83 189.399 684.701 189.038 685.46C188.689 686.219 188.179 686.81 187.507 687.233C186.848 687.656 186.07 687.868 185.175 687.868C184.54 687.868 183.943 687.743 183.383 687.494C182.823 687.233 182.382 686.854 182.058 686.356H182.021V691.339H180.434V677.995H182.021V679.301H182.058C182.307 678.804 182.699 678.424 183.234 678.163C183.769 677.902 184.403 677.771 185.137 677.771ZM181.965 682.81C181.965 683.544 182.083 684.191 182.319 684.751C182.568 685.298 182.917 685.721 183.364 686.02C183.825 686.319 184.372 686.468 185.007 686.468C185.616 686.468 186.133 686.325 186.556 686.039C186.991 685.74 187.321 685.311 187.545 684.751C187.781 684.191 187.899 683.519 187.899 682.735C187.899 682.051 187.775 681.441 187.526 680.906C187.29 680.359 186.941 679.936 186.481 679.637C186.033 679.326 185.504 679.171 184.895 679.171C184.273 679.171 183.738 679.326 183.29 679.637C182.854 679.948 182.525 680.378 182.301 680.925C182.077 681.473 181.965 682.101 181.965 682.81ZM193.027 685.833H193.065L197.394 677.995H199.429V687.644H197.842V679.805H197.805L193.475 687.644H191.441V677.995H193.027V685.833ZM210.135 674.319C210.023 674.916 209.749 675.37 209.313 675.681C208.853 676.004 208.032 676.222 206.85 676.334C205.656 676.446 204.741 676.782 204.107 677.342C203.484 677.914 203.043 678.866 202.782 680.197H202.838C203.223 679.501 203.727 678.966 204.349 678.592C204.984 678.219 205.693 678.032 206.477 678.032C207.31 678.032 208.044 678.225 208.679 678.611C209.313 678.997 209.799 679.55 210.135 680.272C210.483 680.993 210.657 681.84 210.657 682.81C210.657 683.818 210.458 684.707 210.06 685.479C209.674 686.238 209.127 686.829 208.418 687.252C207.708 687.662 206.9 687.868 205.991 687.868C205.009 687.868 204.169 687.662 203.472 687.252C202.775 686.829 202.24 686.213 201.867 685.404C201.506 684.595 201.326 683.612 201.326 682.455C201.326 680.042 201.718 678.275 202.502 677.155C203.285 676.023 204.455 675.333 206.01 675.084L207.317 674.878C207.628 674.829 207.858 674.785 208.007 674.748C208.169 674.71 208.287 674.661 208.362 674.598C208.436 674.536 208.498 674.443 208.548 674.319H210.135ZM202.95 682.866C202.95 683.575 203.074 684.21 203.323 684.77C203.572 685.317 203.926 685.746 204.387 686.057C204.859 686.356 205.401 686.505 206.01 686.505C206.582 686.505 207.093 686.35 207.54 686.039C207.988 685.728 208.337 685.298 208.586 684.751C208.847 684.191 208.977 683.556 208.977 682.847C208.977 682.151 208.866 681.541 208.642 681.018C208.418 680.496 208.088 680.091 207.652 679.805C207.217 679.507 206.694 679.357 206.085 679.357C205.488 679.357 204.946 679.507 204.461 679.805C203.988 680.091 203.615 680.502 203.341 681.037C203.08 681.56 202.95 682.169 202.95 682.866ZM214.114 681.672H217.081C217.703 681.672 218.251 681.79 218.723 682.026C219.209 682.263 219.582 682.605 219.843 683.053C220.104 683.5 220.235 684.023 220.235 684.62C220.235 685.217 220.098 685.746 219.824 686.207C219.563 686.667 219.196 687.021 218.723 687.27C218.251 687.519 217.728 687.644 217.156 687.644H212.527V677.995H214.114V681.672ZM223.352 687.644H221.765V677.995H223.352V687.644ZM216.726 686.281C217.324 686.281 217.784 686.144 218.108 685.871C218.431 685.597 218.593 685.193 218.593 684.658C218.593 684.147 218.425 683.749 218.089 683.463C217.765 683.177 217.317 683.034 216.745 683.034H214.114V686.281H216.726ZM233.542 687.644H231.955V679.395H228.465L228.26 684.49C228.223 685.597 227.98 686.437 227.532 687.009C227.097 687.569 226.481 687.849 225.685 687.849C225.486 687.849 225.299 687.83 225.125 687.793C224.963 687.768 224.783 687.718 224.584 687.644V686.337C224.845 686.437 225.112 686.486 225.386 686.486C225.685 686.486 225.927 686.418 226.114 686.281C226.3 686.132 226.444 685.896 226.543 685.572C226.643 685.236 226.705 684.794 226.73 684.247L226.935 677.995H233.542V687.644ZM237.515 681.672H240.93C241.552 681.672 242.099 681.79 242.572 682.026C243.057 682.263 243.431 682.605 243.692 683.053C243.953 683.5 244.084 684.023 244.084 684.62C244.084 685.217 243.953 685.746 243.692 686.207C243.431 686.654 243.064 687.009 242.591 687.27C242.118 687.519 241.583 687.644 240.986 687.644H235.928V677.995H237.515V681.672ZM240.557 686.281C241.166 686.281 241.633 686.151 241.956 685.889C242.28 685.616 242.442 685.205 242.442 684.658C242.442 684.135 242.274 683.737 241.938 683.463C241.602 683.177 241.148 683.034 240.575 683.034H237.515V686.281H240.557ZM75.6182 696.995C76.6508 696.995 77.4409 697.194 77.9883 697.592C78.5357 697.978 78.8094 698.563 78.8094 699.347C78.8094 700.305 78.3429 701.001 77.4098 701.437V701.455C78.629 701.779 79.2387 702.563 79.2387 703.807C79.2387 704.367 79.108 704.864 78.8468 705.3C78.5855 705.723 78.2371 706.053 77.8017 706.289C77.3662 706.525 76.8934 706.644 76.3833 706.644H71.0645V696.995H75.6182ZM75.5435 700.896C76.6508 700.896 77.2045 700.466 77.2045 699.608C77.2045 698.774 76.6384 698.357 75.5062 698.357H72.6135V700.896H75.5435ZM76.0661 705.281C76.5264 705.281 76.8996 705.144 77.1858 704.871C77.4844 704.597 77.6337 704.23 77.6337 703.77C77.6337 703.284 77.4657 702.911 77.1298 702.65C76.7939 702.376 76.346 702.239 75.7861 702.239H72.6135V705.281H76.0661ZM85.1007 696.771C86.4818 696.771 87.558 697.269 88.3293 698.264C89.0883 699.247 89.4677 700.528 89.4677 702.109V702.295H82.2454V702.407C82.2454 703.017 82.3636 703.552 82.6 704.012C82.8488 704.472 83.1972 704.833 83.6451 705.095C84.1054 705.343 84.6404 705.468 85.25 705.468C85.9468 705.468 86.5004 705.306 86.911 704.983C87.334 704.659 87.6139 704.193 87.7508 703.583H89.3184C89.1069 704.64 88.6404 705.455 87.9188 706.028C87.2096 706.588 86.3013 706.868 85.194 706.868C84.1863 706.868 83.334 706.644 82.6373 706.196C81.9654 705.748 81.4491 705.119 81.0883 704.311C80.7399 703.502 80.5657 702.65 80.5657 701.754C80.5657 700.323 80.9888 699.141 81.8348 698.208C82.6933 697.25 83.7819 696.771 85.1007 696.771ZM87.7881 700.896C87.7632 700.385 87.6264 699.925 87.3775 699.514C87.1287 699.091 86.7928 698.762 86.3698 698.525C85.9592 698.289 85.4989 698.171 84.9888 698.171C84.4911 698.171 84.0432 698.283 83.6451 698.507C83.2469 698.731 82.9234 699.054 82.6746 699.477C82.4258 699.888 82.2827 700.361 82.2454 700.896H87.7881ZM92.6984 705.244H96.6735V696.995H98.2598V705.244H102.235V696.995H103.821V705.244H105.072V709.704H103.485V706.644H91.1121V696.995H92.6984V705.244ZM108.099 704.833H108.136L112.466 696.995H114.5V706.644H112.913V698.805H112.876L108.546 706.644H106.512L106.512 696.995H108.099V704.833ZM123.663 700.84H128.478V696.995H130.064V706.644H128.478V702.239H123.663V706.644H122.076L122.076 696.995H123.663V700.84ZM136.459 696.771C137.84 696.771 138.916 697.269 139.688 698.264C140.446 699.247 140.826 700.528 140.826 702.109V702.295H133.604V702.407C133.604 703.017 133.722 703.552 133.958 704.012C134.207 704.472 134.555 704.833 135.003 705.095C135.464 705.343 135.999 705.468 136.608 705.468C137.305 705.468 137.859 705.306 138.269 704.983C138.692 704.659 138.972 704.193 139.109 703.583H140.677C140.465 704.64 139.999 705.455 139.277 706.028C138.568 706.588 137.66 706.868 136.552 706.868C135.544 706.868 134.692 706.644 133.996 706.196C133.324 705.748 132.807 705.119 132.447 704.311C132.098 703.502 131.924 702.65 131.924 701.754C131.924 700.323 132.347 699.141 133.193 698.208C134.051 697.25 135.14 696.771 136.459 696.771ZM139.146 700.896C139.121 700.385 138.985 699.925 138.736 699.514C138.487 699.091 138.151 698.762 137.728 698.525C137.317 698.289 136.857 698.171 136.347 698.171C135.849 698.171 135.401 698.283 135.003 698.507C134.605 698.731 134.282 699.054 134.033 699.477C133.784 699.888 133.641 700.361 133.604 700.896H139.146ZM145.998 696.771C146.732 696.771 147.366 696.883 147.901 697.107C148.449 697.319 148.865 697.63 149.151 698.04C149.45 698.451 149.599 698.936 149.599 699.496C149.599 699.956 149.469 700.348 149.207 700.672C148.959 700.983 148.56 701.238 148.013 701.437V701.474C148.635 701.648 149.108 701.934 149.431 702.333C149.755 702.718 149.917 703.21 149.917 703.807C149.917 704.417 149.742 704.951 149.394 705.412C149.046 705.872 148.56 706.233 147.938 706.494C147.329 706.743 146.626 706.868 145.83 706.868C144.536 706.868 143.547 706.594 142.862 706.046C142.178 705.486 141.805 704.672 141.742 703.602H143.347C143.397 704.249 143.634 704.74 144.057 705.076C144.492 705.412 145.083 705.58 145.83 705.58C146.327 705.58 146.756 705.511 147.117 705.375C147.491 705.225 147.777 705.02 147.976 704.759C148.175 704.497 148.274 704.193 148.274 703.844C148.274 703.334 148.1 702.948 147.752 702.687C147.416 702.413 146.931 702.277 146.296 702.277H144.896V700.914H146.053C147.347 700.914 147.994 700.466 147.994 699.57C147.994 699.11 147.814 698.743 147.453 698.469C147.105 698.196 146.613 698.059 145.979 698.059C145.257 698.059 144.691 698.208 144.281 698.507C143.87 698.793 143.627 699.222 143.553 699.794H141.948C142.035 698.824 142.433 698.077 143.142 697.555C143.851 697.032 144.803 696.771 145.998 696.771ZM155.758 696.771C157.052 696.771 157.973 697.001 158.52 697.462C159.08 697.91 159.36 698.544 159.36 699.365V704.927C159.36 705.287 159.528 705.468 159.864 705.468C160.025 705.468 160.187 705.437 160.349 705.375V706.606C160.038 706.78 159.658 706.868 159.211 706.868C158.775 706.868 158.439 706.743 158.203 706.494C157.979 706.245 157.867 705.872 157.867 705.375C157.021 706.37 155.889 706.868 154.47 706.868C153.475 706.868 152.691 706.631 152.119 706.158C151.559 705.686 151.279 705.02 151.279 704.161C151.279 703.291 151.559 702.606 152.119 702.109C152.641 701.598 153.941 701.213 156.019 700.952C156.48 700.902 156.834 700.827 157.083 700.728C157.344 700.628 157.525 700.504 157.624 700.354C157.736 700.193 157.792 699.993 157.792 699.757C157.792 699.222 157.618 698.824 157.27 698.563C156.921 698.301 156.38 698.171 155.646 698.171C154.862 698.171 154.271 698.32 153.873 698.619C153.487 698.917 153.276 699.378 153.239 700H151.652C151.702 698.93 152.075 698.127 152.772 697.592C153.481 697.045 154.476 696.771 155.758 696.771ZM152.959 704.049C152.959 704.497 153.12 704.846 153.444 705.095C153.78 705.343 154.24 705.468 154.825 705.468C155.41 705.468 155.926 705.368 156.374 705.169C156.822 704.958 157.164 704.69 157.4 704.367C157.649 704.031 157.774 703.682 157.774 703.322V701.661C157.649 701.748 157.481 701.829 157.27 701.903C157.071 701.978 156.865 702.028 156.654 702.053L155.03 702.295C154.321 702.395 153.798 702.588 153.462 702.874C153.127 703.16 152.959 703.552 152.959 704.049ZM167.051 704.871H167.088L170.018 696.995H172.276V706.644H170.69V698.992H170.634L167.779 706.644H166.323L163.468 698.992H163.412V706.644H161.825V696.995H164.121L167.051 704.871ZM178.686 696.771C180.067 696.771 181.144 697.269 181.915 698.264C182.674 699.247 183.053 700.528 183.053 702.109V702.295H175.831V702.407C175.831 703.017 175.949 703.552 176.186 704.012C176.434 704.472 176.783 704.833 177.231 705.095C177.691 705.343 178.226 705.468 178.836 705.468C179.532 705.468 180.086 705.306 180.497 704.983C180.92 704.659 181.2 704.193 181.336 703.583H182.904C182.693 704.64 182.226 705.455 181.504 706.028C180.795 706.588 179.887 706.868 178.78 706.868C177.772 706.868 176.92 706.644 176.223 706.196C175.551 705.748 175.035 705.119 174.674 704.311C174.326 703.502 174.151 702.65 174.151 701.754C174.151 700.323 174.574 699.141 175.42 698.208C176.279 697.25 177.368 696.771 178.686 696.771ZM181.374 700.896C181.349 700.385 181.212 699.925 180.963 699.514C180.714 699.091 180.378 698.762 179.955 698.525C179.545 698.289 179.085 698.171 178.574 698.171C178.077 698.171 177.629 698.283 177.231 698.507C176.833 698.731 176.509 699.054 176.26 699.477C176.011 699.888 175.868 700.361 175.831 700.896H181.374ZM186.284 700.84H191.099V696.995H192.685V706.644H191.099V702.239H186.284V706.644H184.698V696.995H186.284V700.84ZM196.654 704.833H196.691L201.021 696.995H203.055V706.644H201.469V698.805H201.432L197.102 706.644H195.068V696.995H196.654V704.833ZM210.663 704.871H210.701L213.631 696.995H215.889V706.644H214.303V698.992H214.247L211.391 706.644H209.936L207.08 698.992H207.024V706.644H205.438V696.995H207.733L210.663 704.871ZM219.873 700.672H222.84C223.462 700.672 224.01 700.79 224.482 701.026C224.968 701.263 225.341 701.605 225.602 702.053C225.864 702.5 225.994 703.023 225.994 703.62C225.994 704.217 225.857 704.746 225.584 705.207C225.322 705.667 224.955 706.021 224.482 706.27C224.01 706.519 223.487 706.644 222.915 706.644H218.287V696.995H219.873V700.672ZM229.111 706.644H227.524V696.995H229.111V706.644ZM222.486 705.281C223.083 705.281 223.543 705.144 223.867 704.871C224.19 704.597 224.352 704.193 224.352 703.658C224.352 703.147 224.184 702.749 223.848 702.463C223.524 702.177 223.077 702.034 222.504 702.034H219.873V705.281H222.486ZM235.512 696.771C236.893 696.771 237.969 697.269 238.741 698.264C239.5 699.247 239.879 700.528 239.879 702.109V702.295H232.657V702.407C232.657 703.017 232.775 703.552 233.011 704.012C233.26 704.472 233.609 704.833 234.056 705.095C234.517 705.343 235.052 705.468 235.661 705.468C236.358 705.468 236.912 705.306 237.322 704.983C237.745 704.659 238.025 704.193 238.162 703.583H239.73C239.518 704.64 239.052 705.455 238.33 706.028C237.621 706.588 236.713 706.868 235.605 706.868C234.598 706.868 233.745 706.644 233.049 706.196C232.377 705.748 231.861 705.119 231.5 704.311C231.151 703.502 230.977 702.65 230.977 701.754C230.977 700.323 231.4 699.141 232.246 698.208C233.105 697.25 234.193 696.771 235.512 696.771ZM238.2 700.896C238.175 700.385 238.038 699.925 237.789 699.514C237.54 699.091 237.204 698.762 236.781 698.525C236.371 698.289 235.91 698.171 235.4 698.171C234.903 698.171 234.455 698.283 234.056 698.507C233.658 698.731 233.335 699.054 233.086 699.477C232.837 699.888 232.694 700.361 232.657 700.896H238.2Z" fill="white"/>
<ellipse cx="58.7901" cy="308.837" rx="81.1163" ry="81.116" fill="#8D054D"/>
<ellipse cx="483.719" cy="485.208" rx="95.2558" ry="95.2555" fill="#E10D7B"/>
</g>
<defs>
<clipPath id="clip0_102_23548">
<rect width="480" height="720.37" fill="white"/>
</clipPath>
</defs>
</svg>
