<svg width="480" height="721" viewBox="0 0 480 721" fill="none" xmlns="http://www.w3.org/2000/svg">
<g clip-path="url(#clip0_102_23567)">
<rect x="-0.000976562" width="480" height="720.37" fill="white"/>
<path d="M100.177 97.3002L159.873 170.476H122.185L70.1918 104.728V170.476H39.9313V31.2773H70.1918V92.8987L118.884 31.2773H153.821L100.177 97.3002Z" fill="black"/>
<path d="M379.823 622.731L320.127 549.556H357.815L409.808 615.303V549.556H440.069V688.754H409.808V627.133L361.116 688.754H326.179L379.823 622.731Z" fill="black"/>
<rect width="278.482" height="228.155" transform="matrix(0.707108 -0.707106 0.707108 0.707106 -222.511 8.63818)" fill="#F7BB0B"/>
<rect width="808.84" height="228.155" transform="matrix(0.707108 -0.707106 0.707108 0.707106 -194.233 454.355)" fill="#F7BB0B"/>
<rect width="873.95" height="266.892" transform="matrix(0.707108 -0.707106 0.707108 0.707106 -124.136 685.84)" fill="#F7BB0B"/>
<rect width="278.482" height="228.155" transform="matrix(0.707108 -0.707106 0.707108 0.707106 341.581 737.938)" fill="#F7BB0B"/>
<rect width="116.837" height="625.723" transform="matrix(0.707108 0.707106 -0.707108 0.707106 509.317 264.888)" fill="#E11619"/>
<path d="M202.418 455.069V57.6747L260.092 0.000488281H479.999V177.488L202.418 455.069Z" fill="#8D054D"/>
<path fill-rule="evenodd" clip-rule="evenodd" d="M116.836 720.37V143.287L-0.000976562 260.092V720.37H116.836Z" fill="#E10D7B"/>
<path d="M241.293 353.646V363.022H206.536V380.281H241.293V389.657H198.653V353.646H241.293ZM198.653 323.116C198.653 319.891 199.25 317.184 200.445 314.994C201.639 312.805 203.271 311.172 205.342 310.097C207.412 308.982 209.741 308.425 212.329 308.425C214.957 308.425 217.305 308.982 219.376 310.097C221.406 311.172 223.019 312.805 224.213 314.994C225.407 317.184 226.005 319.871 226.005 323.056V333.03H241.293V342.406H198.653V323.116ZM218.719 325.565C218.719 322.818 218.221 320.787 217.226 319.473C216.191 318.159 214.558 317.502 212.329 317.502C210.139 317.502 208.527 318.159 207.492 319.473C206.456 320.747 205.939 322.758 205.939 325.505V333.03H218.719V325.565ZM227.378 290.211V290.032L198.653 273.669V263.576H241.293V272.952H212.508V273.131L241.293 289.494V299.587H198.653V290.211H227.378ZM206.536 220.684V242.96H213.941V231.733C213.941 228.747 214.459 226.139 215.494 223.909C216.529 221.64 218.082 219.888 220.152 218.654C222.183 217.38 224.671 216.743 227.617 216.743C230.643 216.743 233.171 217.4 235.202 218.714C237.232 219.988 238.765 221.799 239.8 224.148C240.795 226.497 241.293 229.224 241.293 232.33V252.336H198.653V220.684H206.536ZM233.649 232.987C233.649 230.558 233.171 228.767 232.216 227.612C231.22 226.418 229.687 225.82 227.617 225.82C225.547 225.82 224.034 226.477 223.078 227.791C222.083 229.065 221.585 230.837 221.585 233.106V242.96H233.649V232.987ZM213.941 197.925V190.161C213.941 187.136 214.459 184.508 215.494 182.278C216.529 180.009 218.082 178.257 220.152 177.023C222.183 175.749 224.671 175.112 227.617 175.112C230.643 175.112 233.191 175.769 235.261 177.083C237.292 178.397 238.805 180.228 239.8 182.577C240.795 184.886 241.293 187.574 241.293 190.639V207.301H198.653V197.925H213.941ZM241.293 160.958V170.334H198.653V160.958H241.293ZM233.649 191.356C233.649 189.007 233.171 187.235 232.216 186.041C231.26 184.807 229.727 184.19 227.617 184.19C225.547 184.19 224.034 184.827 223.078 186.101C222.083 187.375 221.585 189.166 221.585 191.475V197.925H233.649V191.356ZM241.293 114.851V124.227H206.596L206.596 135.693L226.662 136.171C231.917 136.29 235.839 137.405 238.426 139.515C241.014 141.586 242.308 144.552 242.308 148.414C242.308 150.006 242.069 151.619 241.592 153.251H234.246C234.565 151.818 234.724 150.643 234.724 149.727C234.724 148.772 234.465 147.996 233.947 147.398C233.43 146.761 232.574 146.284 231.379 145.965C230.145 145.607 228.473 145.408 226.363 145.368L198.653 144.651L198.653 114.851H241.293ZM213.941 94.2668V84.3533C213.941 81.3673 214.459 78.7396 215.494 76.4702C216.489 74.2009 218.002 72.4292 220.033 71.1552C222.063 69.8811 224.591 69.2441 227.617 69.2441C230.683 69.2441 233.231 69.9011 235.261 71.2149C237.292 72.5287 238.805 74.3601 239.8 76.7091C240.795 79.0581 241.293 81.7654 241.293 84.831V103.643H198.653V94.2668H213.941ZM233.649 85.5477C233.649 83.1589 233.171 81.3673 232.216 80.1729C231.26 78.9387 229.727 78.3216 227.617 78.3216C223.596 78.3216 221.585 80.7701 221.585 85.6671V94.2668H233.649V85.5477Z" fill="#F7BB0B"/>
<path d="M279.867 319.402C282.148 317.122 284.484 315.629 286.877 314.926C289.27 314.222 291.579 314.222 293.803 314.926C296.055 315.601 298.096 316.854 299.926 318.684C301.784 320.542 303.051 322.597 303.726 324.849C304.402 327.045 304.388 329.34 303.684 331.733C302.98 334.125 301.502 336.448 299.25 338.7L292.198 345.752L303.008 356.563L296.379 363.193L266.228 333.042L279.867 319.402ZM292.325 335.322C294.267 333.379 295.351 331.592 295.576 329.959C295.773 328.298 295.084 326.679 293.507 325.103C291.959 323.554 290.354 322.879 288.693 323.076C287.06 323.245 285.273 324.3 283.33 326.243L278.009 331.564L287.046 340.6L292.325 335.322ZM344.434 315.137L332.61 303.313L328.472 307.452L332.104 327.468L323.911 335.66L320.955 314.293C318.14 316.038 315.367 316.784 312.636 316.531C309.905 316.277 307.4 315.01 305.12 312.73C303.177 310.788 301.952 308.662 301.446 306.354C300.967 304.017 301.164 301.709 302.037 299.428C302.881 297.12 304.289 294.98 306.26 293.01L320.913 278.356L351.064 308.507L344.434 315.137ZM311.623 306.311C313.03 307.719 314.522 308.338 316.099 308.169C317.675 308.001 319.252 307.128 320.829 305.551L327.838 298.541L319.477 290.18L312.552 297.106C309.173 300.484 308.864 303.553 311.623 306.311ZM379.434 268.989L382.686 265.738L395.987 279.04L389.527 285.5L381.799 277.773L362.88 296.691L370.608 304.419L364.147 310.88L350.845 297.578L353.126 295.297C352.506 291.244 350.986 287.274 348.565 283.389C346.172 279.476 342.681 275.225 338.092 270.636L333.363 265.907L354.857 244.412L379.434 268.989ZM353.801 256.616L345.482 264.935L345.989 265.442C350.184 269.637 353.393 273.494 355.617 277.013C357.813 280.503 359.432 284.149 360.473 287.95L372.804 275.619L353.801 256.616ZM376.247 221.587C379.231 218.603 382.525 216.688 386.128 215.844C389.76 214.971 393.392 215.14 397.023 216.35C400.627 217.533 403.949 219.644 406.989 222.685C409.917 225.612 411.972 228.878 413.155 232.482C414.337 236.029 414.492 239.618 413.619 243.25C412.746 246.881 410.818 250.189 407.834 253.173C404.85 256.158 401.542 258.086 397.91 258.959C394.279 259.831 390.675 259.691 387.1 258.536C383.524 257.326 380.273 255.257 377.345 252.329C374.333 249.317 372.221 246.023 371.011 242.447C369.8 238.816 369.617 235.198 370.462 231.595C371.306 227.935 373.235 224.599 376.247 221.587ZM383.975 245.699C385.889 247.613 387.902 249.035 390.013 249.964C392.153 250.865 394.293 251.146 396.432 250.809C398.544 250.443 400.486 249.373 402.26 247.599C404.061 245.798 405.117 243.841 405.427 241.73C405.765 239.59 405.469 237.465 404.54 235.353C403.639 233.214 402.246 231.201 400.359 229.314C398.361 227.316 396.277 225.852 394.11 224.923C391.97 223.966 389.831 223.656 387.691 223.994C385.58 224.303 383.609 225.373 381.779 227.203C380.005 228.977 378.95 230.933 378.612 233.073C378.302 235.184 378.612 237.324 379.541 239.491C380.498 241.631 381.976 243.7 383.975 245.699ZM435.549 205.189L435.634 205.104L421.572 177.698L430.904 168.366L461.055 198.517L454.848 204.724L433.48 183.357L433.396 183.441L447.373 212.198L442.264 217.308L413.717 203.542L413.633 203.626L434.789 224.783L428.582 230.99L398.43 200.839L407.763 191.507L435.549 205.189Z" fill="#F7BB0B"/>
<path d="M94.878 603.565L73.8865 583.78V569.88L93.8852 589.666L124.521 567.965V581.936L101.757 597.183L108.21 603.565H124.521V614.699H73.8865V603.565H94.878ZM72.6809 538.527C72.6809 533.516 73.8392 529.142 76.1558 525.407C78.4725 521.625 81.6638 518.717 85.7297 516.684C89.7483 514.652 94.3107 513.635 99.4167 513.635C104.334 513.635 108.801 514.652 112.82 516.684C116.791 518.67 119.935 521.554 122.252 525.336C124.569 529.119 125.727 533.516 125.727 538.527C125.727 543.539 124.569 547.935 122.252 551.718C119.935 555.5 116.791 558.408 112.82 560.44C108.801 562.426 104.334 563.419 99.4167 563.419C94.358 563.419 89.8193 562.426 85.8006 560.44C81.7347 558.408 78.5434 555.524 76.2268 551.789C73.8628 548.006 72.6809 543.586 72.6809 538.527ZM99.4167 552.285C102.632 552.285 105.516 551.789 108.069 550.796C110.622 549.756 112.655 548.195 114.168 546.115C115.633 544.035 116.366 541.506 116.366 538.527C116.366 535.501 115.61 532.972 114.097 530.939C112.584 528.859 110.551 527.322 107.998 526.329C105.445 525.289 102.584 524.769 99.4167 524.769C96.06 524.769 93.0815 525.289 90.4812 526.329C87.8808 527.322 85.8242 528.859 84.3113 530.939C82.7984 532.972 82.042 535.525 82.042 538.598C82.042 541.576 82.7984 544.106 84.3113 546.186C85.8242 548.219 87.8808 549.756 90.4812 550.796C93.0815 551.789 96.06 552.285 99.4167 552.285ZM108.707 474.962V474.821L73.8865 463.616V447.943H124.521V458.368H88.6373V458.51L124.521 470.92V479.501L88.9919 491.912V492.053H124.521V502.478H73.8865V486.806L108.707 474.962ZM78.9925 403.958C79.1817 399.277 80.1036 395.306 81.7583 392.044C83.4131 388.734 85.6824 386.252 88.5664 384.598C91.4504 382.896 94.8307 382.045 98.7076 382.045C102.679 382.045 106.154 382.919 109.132 384.668C112.111 386.418 114.451 388.947 116.153 392.257C117.855 395.519 118.801 399.419 118.99 403.958H124.521V414.879H118.99C118.754 419.513 117.808 423.484 116.153 426.793C114.451 430.056 112.135 432.538 109.203 434.24C106.225 435.942 102.726 436.793 98.7076 436.793C94.878 436.793 91.5213 435.942 88.6373 434.24C85.706 432.49 83.4131 429.985 81.7583 426.722C80.1036 423.413 79.1817 419.465 78.9925 414.879H73.8865V403.958H78.9925ZM98.7076 426.084C100.977 426.084 103.01 425.635 104.806 424.737C106.556 423.839 107.95 422.562 108.991 420.907C110.031 419.205 110.598 417.196 110.693 414.879H87.0062C87.148 418.52 88.2118 421.309 90.1975 423.248C92.1832 425.139 95.0199 426.084 98.7076 426.084ZM110.693 403.958C110.598 401.641 110.054 399.632 109.061 397.93C108.021 396.228 106.627 394.952 104.877 394.1C103.081 393.202 101.024 392.753 98.7076 392.753C95.0671 392.753 92.2541 393.722 90.2684 395.661C88.2354 397.599 87.148 400.365 87.0062 403.958H110.693ZM72.6809 348.241C72.6809 343.23 73.8392 338.857 76.1558 335.122C78.4725 331.339 81.6638 328.432 85.7297 326.399C89.7483 324.366 94.3107 323.349 99.4167 323.349C104.334 323.349 108.801 324.366 112.82 326.399C116.791 328.385 119.935 331.268 122.252 335.051C124.569 338.833 125.727 343.23 125.727 348.241C125.727 353.253 124.569 357.65 122.252 361.432C119.935 365.214 116.791 368.122 112.82 370.155C108.801 372.141 104.334 373.133 99.4167 373.133C94.358 373.133 89.8193 372.141 85.8006 370.155C81.7347 368.122 78.5434 365.238 76.2268 361.503C73.8628 357.721 72.6809 353.3 72.6809 348.241ZM99.4167 361.999C102.632 361.999 105.516 361.503 108.069 360.51C110.622 359.47 112.655 357.91 114.168 355.83C115.633 353.749 116.366 351.22 116.366 348.241C116.366 345.216 115.61 342.686 114.097 340.653C112.584 338.573 110.551 337.036 107.998 336.044C105.445 335.003 102.584 334.483 99.4167 334.483C96.06 334.483 93.0815 335.003 90.4812 336.044C87.8808 337.036 85.8242 338.573 84.3113 340.653C82.7984 342.686 82.042 345.239 82.042 348.312C82.042 351.291 82.7984 353.82 84.3113 355.9C85.8242 357.933 87.8808 359.47 90.4812 360.51C93.0815 361.503 96.06 361.999 99.4167 361.999ZM73.8865 289.286C73.8865 285.457 74.5957 282.242 76.014 279.642C77.4324 277.041 79.3708 275.103 81.8292 273.826C84.2877 272.503 87.0535 271.841 90.1266 271.841C93.2469 271.841 96.0363 272.503 98.4948 273.826C100.906 275.103 102.821 277.041 104.239 279.642C105.657 282.242 106.367 285.433 106.367 289.215V301.059H124.521V312.193H73.8865L73.8865 289.286ZM97.7147 292.194C97.7147 288.932 97.1237 286.521 95.9418 284.96C94.7126 283.4 92.7741 282.62 90.1266 282.62C87.5263 282.62 85.6115 283.4 84.3823 284.96C83.153 286.473 82.5384 288.861 82.5384 292.123V301.059H97.7147V292.194ZM83.2476 223.83V239.006H124.521V250.14H83.2476V265.317H73.8865V223.83H83.2476Z" fill="#F7BB0B"/>
<path d="M157.235 619.933L138.531 638.637L144.749 644.855L154.176 635.428C156.684 632.92 159.308 631.165 162.049 630.162C164.824 629.126 167.599 628.959 170.374 629.661C173.148 630.296 175.773 631.851 178.247 634.324C180.787 636.865 182.359 639.54 182.96 642.348C183.595 645.123 183.361 647.931 182.258 650.772C181.122 653.581 179.249 656.288 176.642 658.896L159.843 675.695L124.038 639.891L150.616 613.313L157.235 619.933ZM169.672 653.029C171.711 650.99 172.814 649.084 172.981 647.312C173.148 645.474 172.363 643.685 170.624 641.947C168.886 640.208 167.064 639.49 165.158 639.79C163.253 640.024 161.347 641.094 159.442 643L151.168 651.274L161.297 661.403L169.672 653.029ZM177.048 585.176C180.592 581.633 184.503 579.359 188.782 578.356C193.095 577.32 197.407 577.521 201.72 578.958C205.999 580.362 209.944 582.87 213.555 586.48C217.031 589.957 219.472 593.835 220.876 598.114C222.28 602.326 222.464 606.589 221.428 610.901C220.391 615.214 218.101 619.142 214.557 622.686C211.014 626.229 207.086 628.519 202.773 629.556C198.461 630.592 194.181 630.425 189.936 629.054C185.69 627.617 181.829 625.159 178.352 621.683C174.775 618.105 172.268 614.194 170.83 609.948C169.392 605.636 169.175 601.34 170.178 597.061C171.181 592.715 173.471 588.753 177.048 585.176ZM186.225 613.81C188.498 616.083 190.888 617.771 193.396 618.874C195.937 619.944 198.477 620.278 201.018 619.877C203.525 619.443 205.832 618.172 207.938 616.066C210.078 613.927 211.331 611.603 211.699 609.096C212.1 606.555 211.749 604.031 210.646 601.524C209.576 598.983 207.921 596.593 205.682 594.353C203.308 591.979 200.834 590.241 198.26 589.138C195.719 588.001 193.178 587.633 190.638 588.035C188.13 588.402 185.79 589.673 183.617 591.846C181.511 593.952 180.257 596.275 179.856 598.816C179.489 601.323 179.856 603.864 180.96 606.438C182.096 608.979 183.851 611.436 186.225 613.81ZM234.532 542.636L217.883 559.285L247.068 588.47L239.195 596.343L203.391 560.538L227.912 536.017L234.532 542.636ZM296.009 539.529L287.835 547.703L277.154 542.438L263.765 555.827L268.93 566.608L260.957 574.581L238.742 525.187L246.816 517.114L296.009 539.529ZM259.954 547.904L269.231 538.627L251.579 530.001L251.479 530.102L259.954 547.904ZM295.224 481.944L284.493 492.675L313.678 521.86L305.805 529.733L276.62 500.548L265.889 511.279L259.269 504.66L288.605 475.325L295.224 481.944ZM309.554 452.671C312.228 449.997 315.203 448.058 318.48 446.854C321.756 445.651 325.066 445.316 328.409 445.851C331.785 446.353 334.944 447.774 337.886 450.114L330.264 457.736C328.927 456.733 327.406 456.148 325.701 455.981C323.996 455.747 322.307 455.931 320.636 456.532C318.931 457.101 317.443 458.02 316.173 459.29C314.067 461.397 312.796 463.703 312.362 466.211C311.961 468.684 312.312 471.208 313.415 473.783C314.518 476.357 316.29 478.864 318.73 481.305C321.037 483.611 323.444 485.316 325.951 486.419C328.492 487.489 331.016 487.807 333.524 487.372C336.031 486.938 338.338 485.667 340.444 483.561C342.717 481.288 343.854 478.747 343.854 475.939C343.854 473.131 342.75 470.289 340.544 467.414L348.166 459.792C350.874 463.035 352.629 466.461 353.432 470.072C354.267 473.649 354.15 477.176 353.081 480.653C351.977 484.096 349.971 487.272 347.063 490.18C343.519 493.724 339.608 496.031 335.329 497.101C331.016 498.137 326.737 497.97 322.491 496.599C318.246 495.162 314.368 492.688 310.857 489.177C307.314 485.634 304.806 481.722 303.335 477.443C301.865 473.164 301.631 468.885 302.633 464.606C303.636 460.26 305.943 456.282 309.554 452.671ZM366.301 410.868L355.569 421.599L384.755 450.784L376.882 458.657L347.696 429.472L336.965 440.203L330.346 433.584L359.681 404.248L366.301 410.868ZM383.216 380.713C386.961 376.969 390.504 374.863 393.847 374.395C397.224 373.894 400.417 375.147 403.425 378.156C405.231 379.961 406.334 381.9 406.735 383.973C407.136 385.979 406.919 388.169 406.083 390.542C408.858 388.971 411.599 388.436 414.307 388.937C416.982 389.405 419.455 390.776 421.729 393.049C424.002 395.323 425.339 397.83 425.74 400.571C426.142 403.246 425.774 405.92 424.637 408.595C423.501 411.269 421.779 413.76 419.472 416.066L402.122 433.417L366.317 397.613L383.216 380.713ZM396.706 396.209C398.177 394.738 398.979 393.233 399.113 391.695C399.247 390.091 398.611 388.586 397.207 387.182C394.466 384.441 391.323 384.842 387.78 388.386L380.308 395.858L388.682 404.232L396.706 396.209ZM412.351 410.952C414.224 409.079 415.26 407.274 415.46 405.536C415.661 403.731 414.976 402.042 413.404 400.471C411.7 398.766 409.944 397.98 408.139 398.114C406.3 398.214 404.478 399.167 402.673 400.973L394.048 409.598L403.877 419.426L412.351 410.952ZM419.327 342.898C422.87 339.355 426.782 337.081 431.061 336.078C435.374 335.042 439.686 335.243 443.999 336.68C448.278 338.084 452.223 340.592 455.833 344.202C459.31 347.679 461.751 351.557 463.155 355.836C464.559 360.048 464.743 364.311 463.706 368.623C462.67 372.936 460.38 376.864 456.836 380.408C453.293 383.951 449.364 386.241 445.052 387.278C440.739 388.314 436.46 388.147 432.214 386.776C427.969 385.339 424.107 382.881 420.631 379.405C417.054 375.828 414.546 371.916 413.109 367.67C411.671 363.358 411.454 359.062 412.457 354.783C413.46 350.437 415.75 346.475 419.327 342.898ZM428.504 371.532C430.777 373.805 433.167 375.493 435.674 376.596C438.215 377.666 440.756 378.001 443.297 377.599C445.804 377.165 448.111 375.894 450.217 373.788C452.356 371.649 453.61 369.325 453.978 366.818C454.379 364.277 454.028 361.753 452.925 359.246C451.855 356.705 450.2 354.315 447.96 352.075C445.587 349.701 443.113 347.963 440.539 346.86C437.998 345.723 435.457 345.355 432.916 345.757C430.409 346.124 428.069 347.395 425.896 349.568C423.79 351.674 422.536 353.997 422.135 356.538C421.767 359.045 422.135 361.586 423.238 364.16C424.375 366.701 426.13 369.158 428.504 371.532Z" fill="#F7BB0B"/>
</g>
<defs>
<clipPath id="clip0_102_23567">
<rect width="480" height="720.37" fill="white"/>
</clipPath>
</defs>
</svg>
