<svg width="480" height="720" viewBox="0 0 480 720" fill="none" xmlns="http://www.w3.org/2000/svg">
<g clip-path="url(#clip0_235_8713)">
<rect width="479.902" height="719.852" fill="#0E0E0E"/>
<path d="M232.911 134.197C232.911 182.221 193.979 221.153 145.954 221.153C97.9291 221.153 58.9971 182.221 58.9971 134.197C58.9971 86.1716 97.9291 47.2397 145.954 47.2397C193.979 47.2397 232.911 86.1716 232.911 134.197Z" fill="black" stroke="#D2A917" stroke-width="8.77157"/>
<ellipse cx="146.772" cy="133.571" rx="64.6904" ry="64.6903" fill="#D2A917"/>
<rect x="145.842" y="37.3893" width="93.6075" height="190.234" fill="#0E0E0E"/>
<rect x="0.704745" y="6.16227" width="51.7565" height="173.239" transform="matrix(0.782872 0.622183 -0.622184 0.782871 323.266 45.8238)" fill="black" stroke="#D2A917" stroke-width="8.77157"/>
<rect x="-0.596826" y="-5.39421" width="57.2461" height="36.109" rx="8.24081" transform="matrix(-0.78058 -0.625056 0.625057 -0.780579 261.864 109.645)" fill="black" stroke="#D2A917" stroke-width="7.67513"/>
<rect width="19.921" height="9.96049" rx="3.01959" transform="matrix(-0.78058 -0.625056 0.625057 -0.780579 252.184 91.6427)" fill="#D2A917"/>
<rect width="15.3503" height="129.381" transform="matrix(0.782872 0.622183 -0.622184 0.782871 319.188 79.0219)" fill="#D2A917"/>
<rect x="125.257" y="275.845" width="57.0681" height="37.1471" rx="8.24081" fill="black" stroke="#D2A917" stroke-width="7.67513"/>
<rect x="143.645" y="289.051" width="19.6274" height="10.5686" rx="3.01959" fill="#D2A917"/>
<rect x="58.5713" y="276.394" width="59.2081" height="173.238" fill="black" stroke="#D2A917" stroke-width="8.77157"/>
<rect x="190.55" y="276.393" width="59.2081" height="173.238" fill="black" stroke="#D2A917" stroke-width="8.77157"/>
<rect x="80.5" y="298.322" width="15.3503" height="129.381" fill="#D2A917"/>
<rect x="212.479" y="298.322" width="15.3503" height="129.381" fill="#D2A917"/>
<rect x="296.372" y="276.393" width="59.2081" height="173.238" fill="black" stroke="#D2A917" stroke-width="8.77157"/>
<rect x="318.301" y="298.322" width="15.3503" height="129.381" fill="#D2A917"/>
<rect x="363.802" y="275.845" width="57.2462" height="36.109" rx="8.24081" fill="black" stroke="#D2A917" stroke-width="7.67513"/>
<rect x="363.802" y="413.997" width="57.2462" height="36.109" rx="8.24081" fill="black" stroke="#D2A917" stroke-width="7.67513"/>
<rect x="363.802" y="343.825" width="57.2462" height="36.109" rx="8.24081" fill="black" stroke="#D2A917" stroke-width="7.67513"/>
<rect x="382.613" y="288.615" width="19.6274" height="10.5686" rx="3.01959" fill="#D2A917"/>
<rect x="382.613" y="426.767" width="19.6274" height="10.5686" rx="3.01959" fill="#D2A917"/>
<rect x="382.613" y="356.595" width="19.6274" height="10.5686" rx="3.01959" fill="#D2A917"/>
<rect x="296.431" y="503.637" width="59.2081" height="173.238" fill="black" stroke="#D2A917" stroke-width="8.77157"/>
<rect x="318.359" y="525.566" width="15.3503" height="129.381" fill="#D2A917"/>
<path d="M363.863 587.33V503.274C388.171 505.319 406.624 523.674 406.624 545.302C406.624 566.93 388.171 585.285 363.863 587.33Z" fill="black" stroke="#D2A917" stroke-width="7.67513"/>
<path fill-rule="evenodd" clip-rule="evenodd" d="M360.025 584.873C384.15 584.518 403.583 567.084 403.583 545.629C403.583 524.175 384.15 506.741 360.025 506.386V584.873Z" fill="black"/>
<path fill-rule="evenodd" clip-rule="evenodd" d="M360.025 571.616C374.46 571.616 386.162 560.326 386.162 546.398C386.162 532.471 374.46 521.18 360.025 521.18V571.616Z" fill="#D2A917"/>
<path d="M333.626 204.813V193.956H333.591L330.278 196.341V194.693L333.608 192.3H335.135V204.813H333.626ZM344.257 204.813V202.212H337.97V200.798C339.037 198.821 340.502 196.54 343.459 192.3H345.766V200.842H347.535V202.212H345.766V204.813H344.257ZM339.514 200.807V200.842H344.257V193.601H344.231C341.864 196.983 340.502 199.073 339.514 200.807ZM358.73 203.573V197.035H355.348L355.071 200.833C354.993 201.952 354.759 202.931 354.334 203.504V203.573H358.73ZM353.258 207.198H351.854V203.573H352.608C353.267 203.14 353.588 202.012 353.675 200.798L354.022 195.795H360.231V203.573H361.661V207.198H360.257V204.813H353.258V207.198ZM366.639 196.948C365.225 196.948 364.237 198.032 364.141 199.532H369.041C369.006 198.023 368.061 196.948 366.639 196.948ZM369.006 202.229H370.489C370.229 203.807 368.703 204.969 366.734 204.969C364.15 204.969 362.581 203.174 362.581 200.339C362.581 197.538 364.176 195.639 366.665 195.639C369.102 195.639 370.602 197.408 370.602 200.139V200.712H364.133V200.798C364.133 202.524 365.147 203.66 366.769 203.66C367.914 203.66 368.755 203.079 369.006 202.229ZM375.337 200.061L379.672 204.813H377.73L373.836 200.477H373.767V204.813H372.276V195.795H373.767V199.784H373.836L377.687 195.795H379.551L375.337 200.061ZM383.653 203.686C385.075 203.686 386.168 202.689 386.168 201.388V200.651L383.757 200.798C382.543 200.876 381.849 201.414 381.849 202.264C381.849 203.122 382.569 203.686 383.653 203.686ZM383.315 204.969C381.52 204.969 380.314 203.885 380.314 202.264C380.314 200.72 381.502 199.749 383.583 199.628L386.168 199.48V198.726C386.168 197.624 385.439 196.965 384.19 196.965C383.028 196.965 382.3 197.512 382.109 198.396H380.652C380.756 196.835 382.092 195.639 384.225 195.639C386.341 195.639 387.676 196.783 387.676 198.578V204.813H386.246V203.261H386.211C385.673 204.293 384.529 204.969 383.315 204.969ZM393.625 204.969C390.859 204.969 389.402 203.114 389.402 199.532C389.402 194.555 390.72 192.482 394.224 192.352L394.891 192.326C395.759 192.283 396.73 192.109 397.241 191.84V193.158C396.955 193.419 396.001 193.644 394.961 193.687L394.293 193.713C391.787 193.809 391.041 194.91 390.677 197.607H390.746C391.336 196.54 392.463 195.985 393.851 195.985C396.287 195.985 397.84 197.702 397.84 200.391C397.84 203.226 396.235 204.969 393.625 204.969ZM393.625 203.634C395.316 203.634 396.296 202.463 396.296 200.391C396.296 198.422 395.316 197.304 393.625 197.304C391.926 197.304 390.946 198.422 390.946 200.391C390.946 202.463 391.926 203.634 393.625 203.634ZM403.91 195.639C406.208 195.639 407.769 197.477 407.769 200.304C407.769 203.131 406.217 204.969 403.945 204.969C402.653 204.969 401.612 204.336 401.074 203.348H401.04V207.822H399.531V195.795H400.962V197.321H400.996C401.551 196.306 402.6 195.639 403.91 195.639ZM403.615 203.643C405.219 203.643 406.225 202.35 406.225 200.304C406.225 198.266 405.219 196.965 403.615 196.965C402.072 196.965 401.031 198.301 401.031 200.304C401.031 202.316 402.072 203.643 403.615 203.643ZM412.599 200.365H414.325V197.035H412.599C411.428 197.035 410.683 197.676 410.683 198.76C410.683 199.697 411.437 200.365 412.599 200.365ZM414.325 204.813V201.605H412.729L410.44 204.813H408.714L411.229 201.327C409.954 200.963 409.182 200.026 409.182 198.786C409.182 196.931 410.518 195.795 412.59 195.795H415.816V204.813H414.325ZM333.626 224.813V213.956H333.591L330.278 216.341V214.693L333.608 212.3H335.135V224.813H333.626ZM342.61 225.021C339.965 225.021 338.074 223.521 338.074 221.431C338.074 219.87 339.15 218.587 340.763 218.214V218.179C339.41 217.763 338.569 216.697 338.569 215.378C338.569 213.488 340.286 212.092 342.61 212.092C344.951 212.092 346.642 213.479 346.642 215.387C346.642 216.688 345.818 217.746 344.457 218.179V218.214C346.078 218.596 347.154 219.879 347.154 221.431C347.154 223.53 345.263 225.021 342.61 225.021ZM342.61 223.66C344.335 223.66 345.558 222.68 345.558 221.319C345.558 219.94 344.335 218.968 342.61 218.968C340.893 218.968 339.661 219.948 339.661 221.319C339.661 222.68 340.893 223.66 342.61 223.66ZM342.61 217.598C344.066 217.598 345.098 216.74 345.098 215.526C345.098 214.294 344.075 213.436 342.61 213.436C341.144 213.436 340.121 214.303 340.121 215.526C340.121 216.74 341.144 217.598 342.61 217.598ZM350.197 222.732C349.642 222.732 349.209 222.298 349.209 221.743C349.209 221.188 349.642 220.755 350.197 220.755C350.752 220.755 351.186 221.188 351.186 221.743C351.186 222.298 350.752 222.732 350.197 222.732ZM350.197 216.35C349.642 216.35 349.209 215.916 349.209 215.361C349.209 214.806 349.642 214.372 350.197 214.372C350.752 214.372 351.186 214.806 351.186 215.361C351.186 215.916 350.752 216.35 350.197 216.35ZM357.846 225.021C354.923 225.021 353.232 222.507 353.232 218.552C353.232 214.633 354.941 212.092 357.846 212.092C360.751 212.092 362.442 214.615 362.442 218.544C362.442 222.498 360.759 225.021 357.846 225.021ZM357.846 223.66C359.797 223.66 360.872 221.674 360.872 218.552C360.872 215.474 359.78 213.462 357.846 213.462C355.912 213.462 354.802 215.491 354.802 218.544C354.802 221.665 355.886 223.66 357.846 223.66ZM368.616 225.021C365.694 225.021 364.003 222.507 364.003 218.552C364.003 214.633 365.711 212.092 368.616 212.092C371.521 212.092 373.212 214.615 373.212 218.544C373.212 222.498 371.53 225.021 368.616 225.021ZM368.616 223.66C370.567 223.66 371.642 221.674 371.642 218.552C371.642 215.474 370.55 213.462 368.616 213.462C366.682 213.462 365.572 215.491 365.572 218.544C365.572 221.665 366.656 223.66 368.616 223.66Z" fill="white"/>
<path d="M99.6227 659.897L80.4219 681.706H89.0484L99.6227 669.516V681.552H105.917V638.087H99.6227V650.33L89.0484 638.087H80.4219L99.6227 659.897Z" fill="#D2A917"/>
<path d="M61.6143 659.897L80.8152 681.706H72.1886L61.6143 669.516V681.552H55.3203V638.087H61.6143V650.33L72.1886 638.087H80.8152L61.6143 659.897Z" fill="#D2A917"/>
<path d="M59.5369 547.076C56.7706 547.076 55.3137 545.221 55.3137 541.639C55.3137 536.662 56.6318 534.589 60.1352 534.459L60.8029 534.433C61.6701 534.39 62.6413 534.216 63.153 533.947V535.265C62.8668 535.526 61.9129 535.751 60.8723 535.794L60.2046 535.82C57.6985 535.916 56.9527 537.017 56.5885 539.714H56.6579C57.2475 538.647 58.3749 538.092 59.7623 538.092C62.1991 538.092 63.7513 539.809 63.7513 542.498C63.7513 545.333 62.147 547.076 59.5369 547.076ZM59.5369 545.741C61.2278 545.741 62.2077 544.57 62.2077 542.498C62.2077 540.529 61.2278 539.41 59.5369 539.41C57.8372 539.41 56.8573 540.529 56.8573 542.498C56.8573 544.57 57.8372 545.741 59.5369 545.741ZM65.9279 550.293C65.7458 550.293 65.4423 550.276 65.2775 550.241V548.975C65.4423 549.01 65.6764 549.019 65.8672 549.019C66.7084 549.019 67.1766 548.611 67.5235 547.562L67.7316 546.929L64.4017 537.902H66.0146L68.5121 545.411H68.5381L71.0355 537.902H72.6225L69.0757 547.553C68.304 549.66 67.5582 550.293 65.9279 550.293ZM79.6032 545.68V539.142H76.2212L75.9437 542.94C75.8657 544.059 75.6316 545.038 75.2066 545.611V545.68H79.6032ZM74.1314 549.305H72.7265V545.68H73.481C74.14 545.247 74.4609 544.119 74.5476 542.905L74.8945 537.902H81.1034V545.68H82.5342V549.305H81.1294V546.92H74.1314V549.305ZM87.0609 542.021H85.3786V545.68H87.0609C88.2316 545.68 88.986 544.952 88.986 543.85C88.986 542.74 88.2229 542.021 87.0609 542.021ZM83.887 546.92V537.902H85.3786V540.781H87.0869C89.1508 540.781 90.4775 541.969 90.4775 543.85C90.4775 545.732 89.1508 546.92 87.0869 546.92H83.887ZM98.178 542.94C97.9959 545.429 97.3976 546.998 95.4984 546.998C95.2383 546.998 95.0649 546.946 94.9608 546.903V545.541C95.0388 545.567 95.2036 545.611 95.4204 545.611C96.3136 545.611 96.6518 544.561 96.7645 542.905L97.1114 537.902H103.017V546.92H101.525V539.142H98.4555L98.178 542.94ZM106.642 546.92H105.15V537.902H106.642V544.613H106.711L111.22 537.902H112.712V546.92H111.22V540.208H111.151L106.642 546.92ZM120.811 545.68V539.142H117.429L117.152 542.94C117.074 544.059 116.84 545.038 116.415 545.611V545.68H120.811ZM115.339 549.305H113.935V545.68H114.689C115.348 545.247 115.669 544.119 115.756 542.905L116.102 537.902H122.311V545.68H123.742V549.305H122.337V546.92H115.339V549.305ZM128.72 539.055C127.306 539.055 126.318 540.139 126.222 541.639H131.122C131.087 540.13 130.142 539.055 128.72 539.055ZM131.087 544.336H132.57C132.31 545.914 130.784 547.076 128.815 547.076C126.231 547.076 124.661 545.281 124.661 542.446C124.661 539.645 126.257 537.745 128.746 537.745C131.183 537.745 132.683 539.515 132.683 542.246V542.818H126.214V542.905C126.214 544.631 127.228 545.767 128.85 545.767C129.995 545.767 130.836 545.186 131.087 544.336ZM138.744 537.745C141.042 537.745 142.603 539.584 142.603 542.411C142.603 545.238 141.051 547.076 138.779 547.076C137.487 547.076 136.446 546.443 135.909 545.455H135.874V549.929H134.365V537.902H135.796V539.428H135.831C136.386 538.413 137.435 537.745 138.744 537.745ZM138.449 545.749C140.054 545.749 141.06 544.457 141.06 542.411C141.06 540.373 140.054 539.072 138.449 539.072C136.906 539.072 135.865 540.408 135.865 542.411C135.865 544.423 136.906 545.749 138.449 545.749ZM148.023 547.076C145.526 547.076 143.843 545.281 143.843 542.411C143.843 539.532 145.526 537.745 148.023 537.745C150.512 537.745 152.194 539.532 152.194 542.411C152.194 545.281 150.512 547.076 148.023 547.076ZM148.023 545.749C149.619 545.749 150.659 544.535 150.659 542.411C150.659 540.286 149.619 539.072 148.023 539.072C146.427 539.072 145.378 540.286 145.378 542.411C145.378 544.535 146.427 545.749 148.023 545.749ZM155.359 546.92H153.868V537.902H155.697L158.906 544.926H158.975L162.201 537.902H163.962V546.92H162.461V540.52H162.401L159.487 546.66H158.334L155.42 540.52H155.359V546.92ZM57.1608 565.92H55.6693V556.902H57.1608V563.613H57.2302L61.7395 556.902H63.231V565.92H61.7395V559.208H61.6701L57.1608 565.92ZM71.1483 558.142H66.8384V565.92H65.3469V556.902H71.1483V558.142ZM77.1751 556.745C79.4731 556.745 81.034 558.584 81.034 561.411C81.034 564.238 79.4818 566.076 77.2098 566.076C75.9177 566.076 74.8771 565.443 74.3395 564.455H74.3048V568.929H72.7959V556.902H74.2267V558.428H74.2614C74.8164 557.413 75.8657 556.745 77.1751 556.745ZM76.8803 564.749C78.4845 564.749 79.4905 563.457 79.4905 561.411C79.4905 559.373 78.4845 558.072 76.8803 558.072C75.3367 558.072 74.2961 559.408 74.2961 561.411C74.2961 563.423 75.3367 564.749 76.8803 564.749ZM85.6907 564.793C87.1129 564.793 88.2055 563.796 88.2055 562.495V561.758L85.7948 561.905C84.5808 561.983 83.887 562.521 83.887 563.371C83.887 564.229 84.6068 564.793 85.6907 564.793ZM85.3525 566.076C83.5575 566.076 82.3521 564.992 82.3521 563.371C82.3521 561.827 83.5402 560.856 85.6214 560.734L88.2055 560.587V559.833C88.2055 558.731 87.4771 558.072 86.2284 558.072C85.0664 558.072 84.338 558.619 84.1472 559.503H82.6903C82.7944 557.942 84.1298 556.745 86.2631 556.745C88.379 556.745 89.7144 557.89 89.7144 559.685V565.92H88.2836V564.368H88.2489C87.7112 565.4 86.5666 566.076 85.3525 566.076ZM112.139 561.55H94.3798V560.145H112.139V561.55ZM119.849 566.076C117.871 566.076 116.441 565.105 116.285 563.579H117.811C117.984 564.368 118.73 564.828 119.849 564.828C121.158 564.828 121.886 564.203 121.886 563.327C121.886 562.313 121.21 561.853 119.849 561.853H118.496V560.622H119.849C120.993 560.622 121.583 560.188 121.583 559.304C121.583 558.549 121.045 558.003 119.883 558.003C118.817 558.003 118.071 558.462 117.95 559.182H116.484C116.675 557.691 117.976 556.745 119.883 556.745C121.938 556.745 123.057 557.734 123.057 559.182C123.057 560.101 122.467 560.917 121.566 561.125V561.194C122.754 561.454 123.369 562.217 123.369 563.258C123.369 564.94 121.965 566.076 119.849 566.076ZM128.078 564.793C129.5 564.793 130.593 563.796 130.593 562.495V561.758L128.182 561.905C126.968 561.983 126.274 562.521 126.274 563.371C126.274 564.229 126.994 564.793 128.078 564.793ZM127.74 566.076C125.945 566.076 124.739 564.992 124.739 563.371C124.739 561.827 125.927 560.856 128.009 560.734L130.593 560.587V559.833C130.593 558.731 129.864 558.072 128.616 558.072C127.454 558.072 126.725 558.619 126.535 559.503H125.078C125.182 557.942 126.517 556.745 128.65 556.745C130.766 556.745 132.102 557.89 132.102 559.685V565.92H130.671V564.368H130.636C130.099 565.4 128.954 566.076 127.74 566.076ZM138.571 556.745C140.869 556.745 142.43 558.584 142.43 561.411C142.43 564.238 140.878 566.076 138.606 566.076C137.313 566.076 136.273 565.443 135.735 564.455H135.7V568.929H134.192V556.902H135.622V558.428H135.657C136.212 557.413 137.261 556.745 138.571 556.745ZM138.276 564.749C139.88 564.749 140.886 563.457 140.886 561.411C140.886 559.373 139.88 558.072 138.276 558.072C136.732 558.072 135.692 559.408 135.692 561.411C135.692 563.423 136.732 564.749 138.276 564.749ZM147.086 564.793C148.509 564.793 149.601 563.796 149.601 562.495V561.758L147.191 561.905C145.976 561.983 145.283 562.521 145.283 563.371C145.283 564.229 146.002 564.793 147.086 564.793ZM146.748 566.076C144.953 566.076 143.748 564.992 143.748 563.371C143.748 561.827 144.936 560.856 147.017 560.734L149.601 560.587V559.833C149.601 558.731 148.873 558.072 147.624 558.072C146.462 558.072 145.734 558.619 145.543 559.503H144.086C144.19 557.942 145.526 556.745 147.659 556.745C149.775 556.745 151.11 557.89 151.11 559.685V565.92H149.679V564.368H149.645C149.107 565.4 147.962 566.076 146.748 566.076ZM157.059 566.076C154.293 566.076 152.836 564.221 152.836 560.639C152.836 555.662 154.154 553.589 157.657 553.459L158.325 553.433C159.192 553.39 160.163 553.216 160.675 552.947V554.265C160.389 554.526 159.435 554.751 158.394 554.794L157.727 554.82C155.221 554.916 154.475 556.017 154.111 558.714H154.18C154.77 557.647 155.897 557.092 157.284 557.092C159.721 557.092 161.273 558.809 161.273 561.498C161.273 564.333 159.669 566.076 157.059 566.076ZM157.059 564.741C158.75 564.741 159.73 563.57 159.73 561.498C159.73 559.529 158.75 558.41 157.059 558.41C155.359 558.41 154.379 559.529 154.379 561.498C154.379 563.57 155.359 564.741 157.059 564.741ZM166.702 566.076C164.204 566.076 162.522 564.281 162.522 561.411C162.522 558.532 164.204 556.745 166.702 556.745C169.191 556.745 170.873 558.532 170.873 561.411C170.873 564.281 169.191 566.076 166.702 566.076ZM166.702 564.749C168.297 564.749 169.338 563.535 169.338 561.411C169.338 559.286 168.297 558.072 166.702 558.072C165.106 558.072 164.057 559.286 164.057 561.411C164.057 563.535 165.106 564.749 166.702 564.749ZM178.799 556.902V558.142H175.885V565.92H174.394V558.142H171.48V556.902H178.799ZM183.768 566.076C181.27 566.076 179.588 564.281 179.588 561.411C179.588 558.532 181.27 556.745 183.768 556.745C186.257 556.745 187.939 558.532 187.939 561.411C187.939 564.281 186.257 566.076 183.768 566.076ZM183.768 564.749C185.363 564.749 186.404 563.535 186.404 561.411C186.404 559.286 185.363 558.072 183.768 558.072C182.172 558.072 181.123 559.286 181.123 561.411C181.123 563.535 182.172 564.749 183.768 564.749ZM192.674 561.168L197.009 565.92H195.067L191.173 561.584H191.104V565.92H189.613V556.902H191.104V560.891H191.173L195.024 556.902H196.888L192.674 561.168ZM61.5227 584.92V577.142H57.1608V584.92H55.6693V575.902H63.0229V584.92H61.5227ZM69.5267 575.745C71.8247 575.745 73.3856 577.584 73.3856 580.411C73.3856 583.238 71.8333 585.076 69.5614 585.076C68.2693 585.076 67.2287 584.443 66.691 583.455H66.6563V587.929H65.1475V575.902H66.5783V577.428H66.613C67.168 576.413 68.2172 575.745 69.5267 575.745ZM69.2318 583.749C70.8361 583.749 71.842 582.457 71.842 580.411C71.842 578.373 70.8361 577.072 69.2318 577.072C67.6883 577.072 66.6477 578.408 66.6477 580.411C66.6477 582.423 67.6883 583.749 69.2318 583.749ZM78.8054 585.076C76.3079 585.076 74.6256 583.281 74.6256 580.411C74.6256 577.532 76.3079 575.745 78.8054 575.745C81.2942 575.745 82.9765 577.532 82.9765 580.411C82.9765 583.281 81.2942 585.076 78.8054 585.076ZM78.8054 583.749C80.401 583.749 81.4416 582.535 81.4416 580.411C81.4416 578.286 80.401 577.072 78.8054 577.072C77.2098 577.072 76.1605 578.286 76.1605 580.411C76.1605 582.535 77.2098 583.749 78.8054 583.749ZM88.3009 577.124H86.1417V579.648H88.0755C89.2115 579.648 89.7578 579.232 89.7578 578.364C89.7578 577.567 89.2461 577.124 88.3009 577.124ZM88.1969 580.862H86.1417V583.697H88.4657C89.5583 583.697 90.148 583.203 90.148 582.293C90.148 581.33 89.515 580.862 88.1969 580.862ZM84.6501 584.92V575.902H88.509C90.2 575.902 91.232 576.777 91.232 578.208C91.232 579.127 90.5816 579.977 89.7491 580.151V580.22C90.8851 580.376 91.6309 581.2 91.6309 582.327C91.6309 583.923 90.4515 584.92 88.5351 584.92H84.6501ZM96.9813 577.055C95.5678 577.055 94.5792 578.139 94.4839 579.639H99.3834C99.3487 578.13 98.4035 577.055 96.9813 577.055ZM99.3487 582.336H100.832C100.571 583.914 99.0452 585.076 97.0767 585.076C94.4925 585.076 92.9229 583.281 92.9229 580.446C92.9229 577.645 94.5185 575.745 97.0073 575.745C99.4441 575.745 100.944 577.515 100.944 580.246V580.818H94.4752V580.905C94.4752 582.631 95.4898 583.767 97.1114 583.767C98.256 583.767 99.0972 583.186 99.3487 582.336ZM107.006 575.745C109.304 575.745 110.865 577.584 110.865 580.411C110.865 583.238 109.312 585.076 107.04 585.076C105.748 585.076 104.708 584.443 104.17 583.455H104.135V587.929H102.627V575.902H104.057V577.428H104.092C104.647 576.413 105.696 575.745 107.006 575.745ZM106.711 583.749C108.315 583.749 109.321 582.457 109.321 580.411C109.321 578.373 108.315 577.072 106.711 577.072C105.167 577.072 104.127 578.408 104.127 580.411C104.127 582.423 105.167 583.749 106.711 583.749ZM115.712 580.021H114.03V583.68H115.712C116.883 583.68 117.637 582.952 117.637 581.85C117.637 580.74 116.874 580.021 115.712 580.021ZM112.538 584.92V575.902H114.03V578.781H115.738C117.802 578.781 119.129 579.969 119.129 581.85C119.129 583.732 117.802 584.92 115.738 584.92H112.538ZM131.885 578.677H130.393C130.133 577.809 129.396 577.072 128.121 577.072C126.552 577.072 125.52 578.399 125.52 580.411C125.52 582.475 126.569 583.749 128.139 583.749C129.335 583.749 130.125 583.16 130.411 582.163H131.902C131.607 583.871 130.159 585.076 128.13 585.076C125.624 585.076 123.985 583.281 123.985 580.411C123.985 577.601 125.615 575.745 128.113 575.745C130.289 575.745 131.616 577.142 131.885 578.677ZM137.123 577.124H134.963V579.648H136.897C138.033 579.648 138.58 579.232 138.58 578.364C138.58 577.567 138.068 577.124 137.123 577.124ZM137.019 580.862H134.963V583.697H137.287C138.38 583.697 138.97 583.203 138.97 582.293C138.97 581.33 138.337 580.862 137.019 580.862ZM133.472 584.92V575.902H137.331C139.022 575.902 140.054 576.777 140.054 578.208C140.054 579.127 139.403 579.977 138.571 580.151V580.22C139.707 580.376 140.453 581.2 140.453 582.327C140.453 583.923 139.273 584.92 137.357 584.92H133.472ZM145.924 585.076C143.427 585.076 141.745 583.281 141.745 580.411C141.745 577.532 143.427 575.745 145.924 575.745C148.413 575.745 150.096 577.532 150.096 580.411C150.096 583.281 148.413 585.076 145.924 585.076ZM145.924 583.749C147.52 583.749 148.561 582.535 148.561 580.411C148.561 578.286 147.52 577.072 145.924 577.072C144.329 577.072 143.28 578.286 143.28 580.411C143.28 582.535 144.329 583.749 145.924 583.749ZM153.261 584.92H151.769V575.902H153.261V582.613H153.33L157.839 575.902H159.331V584.92H157.839V578.208H157.77L153.261 584.92ZM172.555 578.677H171.064C170.804 577.809 170.066 577.072 168.792 577.072C167.222 577.072 166.19 578.399 166.19 580.411C166.19 582.475 167.24 583.749 168.809 583.749C170.006 583.749 170.795 583.16 171.081 582.163H172.573C172.278 583.871 170.83 585.076 168.8 585.076C166.294 585.076 164.655 583.281 164.655 580.411C164.655 577.601 166.286 575.745 168.783 575.745C170.96 575.745 172.286 577.142 172.555 578.677ZM175.634 584.92H174.142V575.902H175.634V582.613H175.703L180.212 575.902H181.704V584.92H180.212V578.208H180.143L175.634 584.92ZM186.231 580.94C186.048 583.429 185.45 584.998 183.551 584.998C183.291 584.998 183.117 584.946 183.013 584.903V583.541C183.091 583.567 183.256 583.611 183.473 583.611C184.366 583.611 184.704 582.561 184.817 580.905L185.164 575.902H191.069V584.92H189.578V577.142H186.508L186.231 580.94ZM200.92 584.92V575.902H202.412V584.92H200.92ZM196.376 580.021H194.694V583.68H196.376C197.547 583.68 198.302 582.952 198.302 581.85C198.302 580.74 197.538 580.021 196.376 580.021ZM193.203 584.92V575.902H194.694V578.781H196.402C198.466 578.781 199.793 579.969 199.793 581.85C199.793 583.732 198.466 584.92 196.402 584.92H193.203ZM205.482 587.409H204.224L205.066 582.995H206.67L205.482 587.409ZM63.1356 597.677H61.6441C61.3839 596.809 60.6468 596.072 59.3721 596.072C57.8025 596.072 56.7706 597.399 56.7706 599.411C56.7706 601.475 57.8199 602.749 59.3894 602.749C60.5861 602.749 61.3753 602.16 61.6614 601.163H63.153C62.8581 602.871 61.4099 604.076 59.3808 604.076C56.8746 604.076 55.2357 602.281 55.2357 599.411C55.2357 596.601 56.866 594.745 59.3634 594.745C61.54 594.745 62.8668 596.142 63.1356 597.677ZM71.1483 594.902V596.142H68.2346V603.92H66.7431V596.142H63.8294V594.902H71.1483ZM75.1806 602.793C76.6028 602.793 77.6954 601.796 77.6954 600.495V599.758L75.2847 599.905C74.0706 599.983 73.3769 600.521 73.3769 601.371C73.3769 602.229 74.0967 602.793 75.1806 602.793ZM74.8424 604.076C73.0474 604.076 71.842 602.992 71.842 601.371C71.842 599.827 73.03 598.856 75.1113 598.734L77.6954 598.587V597.833C77.6954 596.731 76.967 596.072 75.7183 596.072C74.5563 596.072 73.8278 596.619 73.6371 597.503H72.1802C72.2843 595.942 73.6197 594.745 75.753 594.745C77.8689 594.745 79.2043 595.89 79.2043 597.685V603.92H77.7735V602.368H77.7388C77.2011 603.4 76.0565 604.076 74.8424 604.076ZM87.2256 603.92V599.862H82.777V603.92H81.2855V594.902H82.777V598.622H87.2256V594.902H88.7172V603.92H87.2256ZM94.0156 599.021H92.3333V602.68H94.0156C95.1863 602.68 95.9407 601.952 95.9407 600.85C95.9407 599.74 95.1776 599.021 94.0156 599.021ZM90.8417 603.92V594.902H92.3333V597.781H94.0416C96.1055 597.781 97.4322 598.969 97.4322 600.85C97.4322 602.732 96.1055 603.92 94.0416 603.92H90.8417ZM105.133 599.94C104.951 602.429 104.352 603.998 102.453 603.998C102.193 603.998 102.02 603.946 101.916 603.903V602.541C101.994 602.567 102.158 602.611 102.375 602.611C103.268 602.611 103.606 601.561 103.719 599.905L104.066 594.902H109.972V603.92H108.48V596.142H105.41L105.133 599.94ZM112.859 607.293C112.677 607.293 112.374 607.276 112.209 607.241V605.975C112.374 606.01 112.608 606.019 112.799 606.019C113.64 606.019 114.108 605.611 114.455 604.562L114.663 603.929L111.333 594.902H112.946L115.443 602.411H115.469L117.967 594.902H119.554L116.007 604.553C115.235 606.66 114.489 607.293 112.859 607.293ZM127.775 603.92H126.283V600.027H126.153C125.667 600.443 124.948 600.729 123.968 600.729C121.808 600.729 120.672 599.42 120.672 597.494V594.902H122.164V597.477C122.164 598.656 122.797 599.411 124.011 599.411C125.13 599.411 125.867 598.995 126.283 598.526V594.902H127.775V603.92ZM129.899 603.92V594.902H131.391V602.68H134.721V594.902H136.212V602.68H139.542V594.902H141.034V603.92H129.899ZM144.641 603.92H143.15V594.902H144.641V601.613H144.71L149.22 594.902H150.711V603.92H149.22V597.208H149.15L144.641 603.92ZM154.319 603.92H152.827V594.902H154.657L157.865 601.926H157.935L161.161 594.902H162.921V603.92H161.421V597.52H161.36L158.446 603.66H157.293L154.379 597.52H154.319V603.92ZM170.171 603.92H168.679V594.902H170.171V601.613H170.24L174.749 594.902H176.241V603.92H174.749V597.208H174.68L170.171 603.92ZM184.158 596.142H179.848V603.92H178.357V594.902H184.158V596.142ZM190.185 594.745C192.483 594.745 194.044 596.584 194.044 599.411C194.044 602.238 192.492 604.076 190.22 604.076C188.927 604.076 187.887 603.443 187.349 602.455H187.315V606.929H185.806V594.902H187.236V596.428H187.271C187.826 595.413 188.875 594.745 190.185 594.745ZM189.89 602.749C191.494 602.749 192.5 601.457 192.5 599.411C192.5 597.373 191.494 596.072 189.89 596.072C188.346 596.072 187.306 597.408 187.306 599.411C187.306 601.423 188.346 602.749 189.89 602.749ZM199.464 604.076C196.966 604.076 195.284 602.281 195.284 599.411C195.284 596.532 196.966 594.745 199.464 594.745C201.952 594.745 203.635 596.532 203.635 599.411C203.635 602.281 201.952 604.076 199.464 604.076ZM199.464 602.749C201.059 602.749 202.1 601.535 202.1 599.411C202.1 597.286 201.059 596.072 199.464 596.072C197.868 596.072 196.819 597.286 196.819 599.411C196.819 601.535 197.868 602.749 199.464 602.749ZM208.369 599.168L212.705 603.92H210.763L206.869 599.584H206.8V603.92H205.308V594.902H206.8V598.891H206.869L210.719 594.902H212.584L208.369 599.168ZM217.535 604.076C215.038 604.076 213.356 602.281 213.356 599.411C213.356 596.532 215.038 594.745 217.535 594.745C220.024 594.745 221.707 596.532 221.707 599.411C221.707 602.281 220.024 604.076 217.535 604.076ZM217.535 602.749C219.131 602.749 220.172 601.535 220.172 599.411C220.172 597.286 219.131 596.072 217.535 596.072C215.94 596.072 214.891 597.286 214.891 599.411C214.891 601.535 215.94 602.749 217.535 602.749ZM224.872 603.92H223.38V594.902H225.21L228.418 601.926H228.488L231.714 594.902H233.474V603.92H231.974V597.52H231.913L228.999 603.66H227.846L224.932 597.52H224.872V603.92Z" fill="white"/>
</g>
<defs>
<clipPath id="clip0_235_8713">
<rect width="480" height="719.999" fill="white"/>
</clipPath>
</defs>
</svg>
