<svg width="480" height="720" viewBox="0 0 480 720" fill="none" xmlns="http://www.w3.org/2000/svg">
<g clip-path="url(#clip0_235_8752)">
<rect width="479.902" height="719.852" fill="#BFA319"/>
<rect x="137.503" y="47.3829" width="59.2081" height="173.238" fill="#D2A917" stroke="black" stroke-width="8.77157"/>
<rect x="159.432" y="69.3116" width="15.3503" height="129.381" fill="black"/>
<rect x="72.2106" y="46.8346" width="57.0681" height="37.1471" rx="8.24081" fill="#D2A917" stroke="black" stroke-width="7.67513"/>
<rect x="203.547" y="47.271" width="57.2462" height="36.109" rx="8.24081" fill="#D2A917" stroke="black" stroke-width="7.67513"/>
<rect x="90.5977" y="60.0411" width="19.6274" height="10.5686" rx="3.01959" fill="black"/>
<rect x="223.832" y="60.9763" width="19.6274" height="10.5686" rx="3.01959" fill="black"/>
<rect x="0.704745" y="6.16227" width="51.7565" height="173.239" transform="matrix(0.782872 0.622183 -0.622184 0.782871 417.815 45.8243)" fill="#D2A917" stroke="black" stroke-width="8.77157"/>
<rect x="-0.596826" y="-5.39421" width="57.2461" height="36.109" rx="8.24081" transform="matrix(-0.78058 -0.625056 0.625057 -0.780579 358.549 109.645)" fill="#D2A917" stroke="black" stroke-width="7.67513"/>
<rect width="19.921" height="9.96049" rx="3.01959" transform="matrix(-0.78058 -0.625056 0.625057 -0.780579 348.506 92.4844)" fill="black"/>
<rect width="15.3503" height="129.381" transform="matrix(0.782872 0.622183 -0.622184 0.782871 413.736 79.0222)" fill="black"/>
<rect x="24.1534" y="275.454" width="59.2081" height="173.238" fill="#D2A917" stroke="black" stroke-width="8.77157"/>
<rect x="46.082" y="297.383" width="15.3503" height="129.381" fill="black"/>
<path d="M91.5856 359.147V275.091C115.894 277.136 134.347 295.491 134.347 317.119C134.347 338.747 115.894 357.102 91.5856 359.147Z" fill="black" stroke="black" stroke-width="7.67513"/>
<path fill-rule="evenodd" clip-rule="evenodd" d="M87.748 356.69C111.873 356.335 131.306 338.901 131.306 317.446C131.306 295.992 111.873 278.558 87.748 278.203V356.69Z" fill="#D2A917"/>
<path fill-rule="evenodd" clip-rule="evenodd" d="M87.748 343.433C102.183 343.433 113.885 332.143 113.885 318.215C113.885 304.288 102.183 292.997 87.748 292.997V343.433Z" fill="black"/>
<rect x="346.136" y="501.657" width="59.2081" height="173.238" fill="#D2A917" stroke="black" stroke-width="8.77157"/>
<rect x="368.064" y="523.586" width="15.3503" height="129.381" fill="black"/>
<path d="M413.566 585.35V501.294C437.874 503.339 456.328 521.694 456.328 543.322C456.328 564.95 437.874 583.305 413.566 585.35Z" fill="black" stroke="black" stroke-width="7.67513"/>
<path fill-rule="evenodd" clip-rule="evenodd" d="M409.729 582.893C433.853 582.538 453.286 565.104 453.286 543.65C453.286 522.195 433.853 504.762 409.729 504.406V582.893Z" fill="#D2A917"/>
<path fill-rule="evenodd" clip-rule="evenodd" d="M409.729 569.636C424.164 569.636 435.866 558.346 435.866 544.418C435.866 530.49 424.164 519.2 409.729 519.2V569.636Z" fill="black"/>
<rect x="309.554" y="276.325" width="59.2081" height="173.238" fill="#D2A917" stroke="black" stroke-width="8.77157"/>
<rect x="179.671" y="276.98" width="59.2081" height="173.238" fill="#D2A917" stroke="black" stroke-width="8.77157"/>
<rect x="331.482" y="298.254" width="15.3503" height="129.381" fill="black"/>
<rect x="201.6" y="298.908" width="15.3503" height="129.381" fill="black"/>
<rect x="245.353" y="352.139" width="58.1117" height="36.1827" rx="8.24081" fill="#D2A917" stroke="black" stroke-width="7.67513"/>
<rect x="264.521" y="366.941" width="19.736" height="8.77157" rx="3.01959" fill="black"/>
<path d="M161.276 635.885L248.203 503.76L285.262 539.245L198.213 672.321L161.276 635.885Z" fill="#D2A917" stroke="black" stroke-width="8.77157"/>
<rect width="13.7649" height="120.585" transform="matrix(0.707715 0.706498 -0.557539 0.830151 253.553 532.153)" fill="black"/>
<rect x="147.538" y="501.98" width="48.2437" height="173.238" fill="#D2A917" stroke="black" stroke-width="8.77157"/>
<rect x="250.605" y="501.98" width="48.2437" height="173.238" fill="#D2A917" stroke="black" stroke-width="8.77157"/>
<rect x="165.082" y="523.909" width="13.1574" height="129.381" fill="black"/>
<rect x="268.148" y="523.909" width="13.1574" height="129.381" fill="black"/>
<path d="M101.197 677.926V679.417H92.1787V677.588L99.2028 674.379V674.31L92.1787 671.084V669.323H101.197V670.824H94.7975V670.884L100.937 673.798V674.951L94.7975 677.865V677.926H101.197ZM93.332 663.583C93.332 664.996 94.416 665.985 95.9162 666.08V661.181C94.4073 661.215 93.332 662.161 93.332 663.583ZM98.6131 661.215V659.732C100.191 659.993 101.353 661.519 101.353 663.487C101.353 666.072 99.5583 667.641 96.7227 667.641C93.9217 667.641 92.0226 666.045 92.0226 663.557C92.0226 661.12 93.7916 659.62 96.5232 659.62H97.0955V666.089H97.1823C98.9079 666.089 100.044 665.074 100.044 663.453C100.044 662.308 99.4629 661.467 98.6131 661.215ZM94.9536 650.48V651.971C94.0865 652.231 93.3494 652.969 93.3494 654.243C93.3494 655.813 94.6761 656.845 96.688 656.845C98.7518 656.845 100.027 655.796 100.027 654.226C100.027 653.029 99.4369 652.24 98.4397 651.954V650.462C100.148 650.757 101.353 652.205 101.353 654.235C101.353 656.741 99.5583 658.38 96.688 658.38C93.8783 658.38 92.0226 656.749 92.0226 654.252C92.0226 652.075 93.4187 650.749 94.9536 650.48ZM92.1787 642.467H93.4187V645.381H101.197V646.872H93.4187V649.786H92.1787V642.467ZM101.353 637.498C101.353 639.996 99.5583 641.678 96.688 641.678C93.809 641.678 92.0226 639.996 92.0226 637.498C92.0226 635.009 93.809 633.327 96.688 633.327C99.5583 633.327 101.353 635.009 101.353 637.498ZM100.027 637.498C100.027 635.903 98.8125 634.862 96.688 634.862C94.5634 634.862 93.3494 635.903 93.3494 637.498C93.3494 639.094 94.5634 640.143 96.688 640.143C98.8125 640.143 100.027 639.094 100.027 637.498ZM93.4014 624.361V626.52H95.9249V624.586C95.9249 623.45 95.5086 622.904 94.6415 622.904C93.8437 622.904 93.4014 623.415 93.4014 624.361ZM97.1389 624.465V626.52H99.9746V624.196C99.9746 623.103 99.4803 622.514 98.5697 622.514C97.6072 622.514 97.1389 623.147 97.1389 624.465ZM101.197 628.011H92.1787V624.152C92.1787 622.461 93.0545 621.43 94.4854 621.43C95.4046 621.43 96.2544 622.08 96.4278 622.912H96.4972C96.6533 621.776 97.4771 621.031 98.6044 621.031C100.2 621.031 101.197 622.21 101.197 624.126V628.011ZM93.332 615.68C93.332 617.094 94.416 618.082 95.9162 618.178V613.278C94.4073 613.313 93.332 614.258 93.332 615.68ZM98.6131 613.313V611.83C100.191 612.09 101.353 613.616 101.353 615.585C101.353 618.169 99.5583 619.739 96.7227 619.739C93.9217 619.739 92.0226 618.143 92.0226 615.654C92.0226 613.217 93.7916 611.717 96.5232 611.717H97.0955V618.186H97.1823C98.9079 618.186 100.044 617.172 100.044 615.55C100.044 614.405 99.4629 613.564 98.6131 613.313ZM101.197 603.254V604.745H97.3037V604.875C97.7199 605.361 98.0061 606.081 98.0061 607.061C98.0061 609.22 96.6966 610.356 94.7715 610.356H92.1787V608.864H94.7542C95.9335 608.864 96.688 608.231 96.688 607.017C96.688 605.899 96.2717 605.161 95.8035 604.745H92.1787V603.254H101.197ZM101.197 594.252V595.744H97.3037V595.874C97.7199 596.36 98.0061 597.079 98.0061 598.059C98.0061 600.219 96.6966 601.355 94.7715 601.355H92.1787V599.863H94.7542C95.9335 599.863 96.688 599.23 96.688 598.016C96.688 596.897 96.2717 596.16 95.8035 595.744H92.1787V594.252H101.197ZM101.197 586.188H97.1389V590.636H101.197V592.128H92.1787V590.636H95.8989V586.188H92.1787V584.696H101.197V586.188ZM101.353 578.825C101.353 581.323 99.5583 583.005 96.688 583.005C93.809 583.005 92.0226 581.323 92.0226 578.825C92.0226 576.337 93.809 574.654 96.688 574.654C99.5583 574.654 101.353 576.337 101.353 578.825ZM100.027 578.825C100.027 577.23 98.8125 576.189 96.688 576.189C94.5634 576.189 93.3494 577.23 93.3494 578.825C93.3494 580.421 94.5634 581.47 96.688 581.47C98.8125 581.47 100.027 580.421 100.027 578.825ZM101.197 563.485H93.4187V567.847H101.197V569.339H92.1787V561.985H101.197V563.485ZM92.0226 555.481C92.0226 553.183 93.861 551.622 96.688 551.622C99.515 551.622 101.353 553.174 101.353 555.446C101.353 556.739 100.72 557.779 99.7317 558.317V558.352H104.206V559.86H92.1787V558.43H93.7049V558.395C92.6903 557.84 92.0226 556.791 92.0226 555.481ZM100.027 555.776C100.027 554.172 98.7345 553.166 96.688 553.166C94.6501 553.166 93.3494 554.172 93.3494 555.776C93.3494 557.32 94.6848 558.36 96.688 558.36C98.6998 558.36 100.027 557.32 100.027 555.776ZM101.197 548.457V549.949H92.1787V548.457H98.8906V548.388L92.1787 543.878V542.387H101.197V543.878H94.4854V543.948L101.197 548.457ZM101.353 536.403C101.353 539.17 99.4976 540.627 95.9162 540.627C90.9386 540.627 88.8661 539.308 88.736 535.805L88.71 535.137C88.6666 534.27 88.4932 533.299 88.2244 532.787H89.5425C89.8026 533.073 90.0281 534.027 90.0715 535.068L90.0975 535.736C90.1929 538.242 91.2942 538.988 93.9911 539.352V539.282C92.9245 538.693 92.3695 537.565 92.3695 536.178C92.3695 533.741 94.0865 532.189 96.7747 532.189C99.6103 532.189 101.353 533.793 101.353 536.403ZM100.018 536.403C100.018 534.712 98.8472 533.733 96.7747 533.733C94.8062 533.733 93.6876 534.712 93.6876 536.403C93.6876 538.103 94.8062 539.083 96.7747 539.083C98.8472 539.083 100.018 538.103 100.018 536.403ZM101.197 522.789H92.1787V521.297H101.197V522.789ZM96.2977 527.333V529.015H99.9572V527.333C99.9572 526.162 99.2288 525.408 98.1275 525.408C97.0175 525.408 96.2977 526.171 96.2977 527.333ZM101.197 530.507H92.1787V529.015H95.0577V527.307C95.0577 525.243 96.2457 523.916 98.1275 523.916C100.009 523.916 101.197 525.243 101.197 527.307V530.507ZM97.217 516.771C99.7057 516.953 101.275 517.551 101.275 519.45C101.275 519.71 101.223 519.884 101.18 519.988H99.8185C99.8445 519.91 99.8878 519.745 99.8878 519.528C99.8878 518.635 98.8386 518.297 97.1823 518.184L92.1787 517.837V511.932H101.197V513.423H93.4187V516.493L97.217 516.771ZM101.197 508.307V509.799H92.1787V508.307H98.8906V508.238L92.1787 503.728V502.237H101.197V503.728H94.4854V503.798L101.197 508.307ZM120.197 673.564H112.419V677.926H120.197V679.417H111.179V672.064H120.197V673.564ZM111.023 665.56C111.023 663.262 112.861 661.701 115.688 661.701C118.515 661.701 120.353 663.253 120.353 665.525C120.353 666.817 119.72 667.858 118.732 668.396V668.43H123.206V669.939H111.179V668.508H112.705V668.474C111.69 667.919 111.023 666.869 111.023 665.56ZM119.027 665.855C119.027 664.25 117.734 663.245 115.688 663.245C113.65 663.245 112.349 664.25 112.349 665.855C112.349 667.398 113.685 668.439 115.688 668.439C117.7 668.439 119.027 667.398 119.027 665.855ZM120.353 656.281C120.353 658.779 118.558 660.461 115.688 660.461C112.809 660.461 111.023 658.779 111.023 656.281C111.023 653.792 112.809 652.11 115.688 652.11C118.558 652.11 120.353 653.792 120.353 656.281ZM119.027 656.281C119.027 654.686 117.813 653.645 115.688 653.645C113.563 653.645 112.349 654.686 112.349 656.281C112.349 657.877 113.563 658.926 115.688 658.926C117.813 658.926 119.027 657.877 119.027 656.281ZM112.401 646.786V648.945H114.925V647.011C114.925 645.875 114.509 645.329 113.641 645.329C112.844 645.329 112.401 645.84 112.401 646.786ZM116.139 646.89V648.945H118.975V646.621C118.975 645.528 118.48 644.939 117.57 644.939C116.607 644.939 116.139 645.572 116.139 646.89ZM120.197 650.436H111.179V646.578C111.179 644.887 112.055 643.855 113.485 643.855C114.405 643.855 115.254 644.505 115.428 645.337H115.497C115.653 644.201 116.477 643.456 117.604 643.456C119.2 643.456 120.197 644.635 120.197 646.551V650.436ZM112.332 638.105C112.332 639.519 113.416 640.507 114.916 640.603V635.703C113.407 635.738 112.332 636.683 112.332 638.105ZM117.613 635.738V634.255C119.191 634.515 120.353 636.041 120.353 638.01C120.353 640.594 118.558 642.164 115.723 642.164C112.922 642.164 111.023 640.568 111.023 638.079C111.023 635.642 112.792 634.142 115.523 634.142H116.096V640.611H116.182C117.908 640.611 119.044 639.597 119.044 637.975C119.044 636.83 118.463 635.989 117.613 635.738ZM111.023 628.081C111.023 625.783 112.861 624.222 115.688 624.222C118.515 624.222 120.353 625.774 120.353 628.046C120.353 629.338 119.72 630.379 118.732 630.916V630.951H123.206V632.46H111.179V631.029H112.705V630.994C111.69 630.439 111.023 629.39 111.023 628.081ZM119.027 628.376C119.027 626.771 117.734 625.765 115.688 625.765C113.65 625.765 112.349 626.771 112.349 628.376C112.349 629.919 113.685 630.96 115.688 630.96C117.7 630.96 119.027 629.919 119.027 628.376ZM115.298 619.374V621.057H118.957V619.374C118.957 618.204 118.229 617.449 117.127 617.449C116.018 617.449 115.298 618.212 115.298 619.374ZM120.197 622.548H111.179V621.057H114.058V619.348C114.058 617.284 115.246 615.958 117.127 615.958C119.009 615.958 120.197 617.284 120.197 619.348V622.548ZM116.217 608.257C118.706 608.439 120.275 609.038 120.275 610.937C120.275 611.197 120.223 611.37 120.18 611.474H118.818C118.844 611.396 118.888 611.232 118.888 611.015C118.888 610.122 117.839 609.783 116.182 609.671L111.179 609.324V603.418H120.197V604.91H112.419V607.98L116.217 608.257ZM120.197 599.794V601.285H111.179V599.794H117.891V599.724L111.179 595.215V593.723H120.197V595.215H113.485V595.284L120.197 599.794ZM120.197 584.731V586.222H116.304V586.352C116.72 586.838 117.006 587.558 117.006 588.538C117.006 590.697 115.697 591.833 113.772 591.833H111.179V590.341H113.754C114.934 590.341 115.688 589.708 115.688 588.494C115.688 587.376 115.272 586.639 114.803 586.222H111.179V584.731H120.197ZM120.197 576.666H116.139V581.115H120.197V582.606H111.179V581.115H114.899V576.666H111.179V575.175H120.197V576.666ZM120.353 569.304C120.353 571.801 118.558 573.484 115.688 573.484C112.809 573.484 111.023 571.801 111.023 569.304C111.023 566.815 112.809 565.133 115.688 565.133C118.558 565.133 120.353 566.815 120.353 569.304ZM119.027 569.304C119.027 567.708 117.813 566.668 115.688 566.668C113.563 566.668 112.349 567.708 112.349 569.304C112.349 570.899 113.563 571.949 115.688 571.949C117.813 571.949 119.027 570.899 119.027 569.304ZM112.401 556.166V558.325H114.925V556.392C114.925 555.256 114.509 554.709 113.641 554.709C112.844 554.709 112.401 555.221 112.401 556.166ZM116.139 556.27V558.325H118.975V556.001C118.975 554.909 118.48 554.319 117.57 554.319C116.607 554.319 116.139 554.952 116.139 556.27ZM120.197 559.817H111.179V555.958C111.179 554.267 112.055 553.235 113.485 553.235C114.405 553.235 115.254 553.886 115.428 554.718H115.497C115.653 553.582 116.477 552.836 117.604 552.836C119.2 552.836 120.197 554.016 120.197 555.932V559.817ZM120.197 543.393H111.179V541.901H120.197V543.393ZM115.298 547.937V549.619H118.957V547.937C118.957 546.766 118.229 546.012 117.127 546.012C116.018 546.012 115.298 546.775 115.298 547.937ZM120.197 551.111H111.179V549.619H114.058V547.911C114.058 545.847 115.246 544.52 117.127 544.52C119.009 544.52 120.197 545.847 120.197 547.911V551.111ZM112.419 533.984L112.419 538.294H120.197V539.785H111.179L111.179 533.984H112.419ZM120.353 528.946C120.353 531.443 118.558 533.125 115.688 533.125C112.809 533.125 111.023 531.443 111.023 528.946C111.023 526.457 112.809 524.775 115.688 524.775C118.558 524.775 120.353 526.457 120.353 528.946ZM119.027 528.946C119.027 527.35 117.813 526.31 115.688 526.31C113.563 526.31 112.349 527.35 112.349 528.946C112.349 530.541 113.563 531.591 115.688 531.591C117.813 531.591 119.027 530.541 119.027 528.946ZM118.957 517.291H112.419V520.673L116.217 520.95C117.336 521.028 118.316 521.263 118.888 521.688H118.957V517.291ZM122.582 522.763V524.168H118.957V523.413C118.524 522.754 117.396 522.433 116.182 522.347L111.179 522V515.791H118.957V514.36H122.582V515.765H120.197V522.763H122.582ZM123.571 512.426C123.571 512.608 123.553 512.912 123.519 513.077H122.252C122.287 512.912 122.296 512.678 122.296 512.487C122.296 511.646 121.888 511.177 120.839 510.831L120.206 510.622L111.179 513.952V512.339L118.688 509.842V509.816L111.179 507.318V505.732L120.83 509.278C122.938 510.05 123.571 510.796 123.571 512.426Z" fill="white"/>
<path d="M419.004 447.362H411.225V451.724H419.004V453.215H409.985V445.862H419.004V447.362ZM419.16 440C419.16 442.497 417.365 444.179 414.495 444.179C411.616 444.179 409.829 442.497 409.829 440C409.829 437.511 411.616 435.829 414.495 435.829C417.365 435.829 419.16 437.511 419.16 440ZM417.833 440C417.833 438.404 416.619 437.363 414.495 437.363C412.37 437.363 411.156 438.404 411.156 440C411.156 441.595 412.37 442.645 414.495 442.645C416.619 442.645 417.833 441.595 417.833 440ZM414.252 431.094L419.004 426.758V428.7L414.668 432.594V432.663H419.004V434.155H409.985V432.663H413.974V432.594L409.985 428.744V426.879L414.252 431.094ZM417.877 422.778C417.877 421.355 416.879 420.263 415.579 420.263H414.841L414.989 422.674C415.067 423.888 415.605 424.581 416.454 424.581C417.313 424.581 417.877 423.862 417.877 422.778ZM419.16 423.116C419.16 424.911 418.076 426.116 416.454 426.116C414.911 426.116 413.94 424.928 413.818 422.847L413.671 420.263H412.916C411.815 420.263 411.156 420.991 411.156 422.24C411.156 423.402 411.702 424.13 412.587 424.321V425.778C411.026 425.674 409.829 424.339 409.829 422.205C409.829 420.089 410.974 418.754 412.769 418.754H419.004V420.185H417.452V420.22C418.484 420.757 419.16 421.902 419.16 423.116ZM414.252 408.86L419.004 404.784V406.718L414.668 410.36V410.429H419.004V411.921H414.668V411.981L419.004 415.623V417.531L414.278 413.482L409.985 417.436V415.58L413.974 411.981V411.921H409.985V410.429H413.974V410.36L409.985 406.761V404.923L414.252 408.86ZM419.004 402.018V403.509H409.985V402.018H416.697V401.948L409.985 397.439V395.947H419.004V397.439H412.292V397.508L419.004 402.018ZM411.208 386.539V388.698H413.732V386.764C413.732 385.628 413.315 385.082 412.448 385.082C411.65 385.082 411.208 385.593 411.208 386.539ZM414.946 386.643V388.698H417.781V386.374C417.781 385.281 417.287 384.692 416.376 384.692C415.414 384.692 414.946 385.325 414.946 386.643ZM419.004 390.189H409.985V386.33C409.985 384.639 410.861 383.608 412.292 383.608C413.211 383.608 414.061 384.258 414.234 385.09H414.304C414.46 383.954 415.284 383.209 416.411 383.209C418.007 383.209 419.004 384.388 419.004 386.304V390.189ZM412.76 374.017V375.508C411.893 375.768 411.156 376.505 411.156 377.78C411.156 379.35 412.483 380.382 414.495 380.382C416.558 380.382 417.833 379.332 417.833 377.763C417.833 376.566 417.244 375.777 416.246 375.491V373.999C417.955 374.294 419.16 375.742 419.16 377.771C419.16 380.278 417.365 381.917 414.495 381.917C411.685 381.917 409.829 380.286 409.829 377.789C409.829 375.612 411.225 374.285 412.76 374.017ZM419.16 365.232C419.16 367.626 417.573 369.152 414.946 369.317V370.938H419.004V372.43H409.985V370.938H413.705V369.282C411.277 369.013 409.829 367.522 409.829 365.232C409.829 362.7 411.59 361.139 414.495 361.139C417.391 361.139 419.16 362.7 419.16 365.232ZM417.825 365.232C417.825 363.602 416.611 362.683 414.495 362.683C412.37 362.683 411.165 363.602 411.165 365.232C411.165 366.862 412.37 367.782 414.495 367.782C416.611 367.782 417.825 366.862 417.825 365.232ZM412.76 348.348V349.84C411.893 350.1 411.156 350.837 411.156 352.112C411.156 353.681 412.483 354.713 414.495 354.713C416.558 354.713 417.833 353.664 417.833 352.095C417.833 350.898 417.244 350.109 416.246 349.823V348.331C417.955 348.626 419.16 350.074 419.16 352.103C419.16 354.609 417.365 356.248 414.495 356.248C411.685 356.248 409.829 354.618 409.829 352.121C409.829 349.944 411.225 348.617 412.76 348.348ZM411.208 343.111V345.27H413.732V343.336C413.732 342.2 413.315 341.654 412.448 341.654C411.65 341.654 411.208 342.165 411.208 343.111ZM414.946 343.215V345.27H417.781V342.946C417.781 341.853 417.287 341.264 416.376 341.264C415.414 341.264 414.946 341.897 414.946 343.215ZM419.004 346.761H409.985V342.903C409.985 341.212 410.861 340.18 412.292 340.18C413.211 340.18 414.061 340.83 414.234 341.662H414.304C414.46 340.526 415.284 339.781 416.411 339.781C418.007 339.781 419.004 340.96 419.004 342.877V346.761ZM419.16 334.309C419.16 336.806 417.365 338.489 414.495 338.489C411.616 338.489 409.829 336.806 409.829 334.309C409.829 331.82 411.616 330.138 414.495 330.138C417.365 330.138 419.16 331.82 419.16 334.309ZM417.833 334.309C417.833 332.713 416.619 331.673 414.495 331.673C412.37 331.673 411.156 332.713 411.156 334.309C411.156 335.904 412.37 336.954 414.495 336.954C416.619 336.954 417.833 335.904 417.833 334.309ZM419.16 321.267C419.16 323.66 417.573 325.186 414.946 325.351V326.973H419.004V328.464H409.985V326.973H413.705V325.316C411.277 325.047 409.829 323.556 409.829 321.267C409.829 318.734 411.59 317.174 414.495 317.174C417.391 317.174 419.16 318.734 419.16 321.267ZM417.825 321.267C417.825 319.636 416.611 318.717 414.495 318.717C412.37 318.717 411.165 319.636 411.165 321.267C411.165 322.897 412.37 323.816 414.495 323.816C416.611 323.816 417.825 322.897 417.825 321.267ZM412.76 304.383V305.874C411.893 306.134 411.156 306.872 411.156 308.146C411.156 309.716 412.483 310.748 414.495 310.748C416.558 310.748 417.833 309.699 417.833 308.129C417.833 306.932 417.244 306.143 416.246 305.857V304.365C417.955 304.66 419.16 306.108 419.16 308.138C419.16 310.644 417.365 312.283 414.495 312.283C411.685 312.283 409.829 310.652 409.829 308.155C409.829 305.978 411.225 304.652 412.76 304.383ZM419.004 301.304V302.796H409.985V301.304H416.697V301.235L409.985 296.726V295.234H419.004V296.726H412.292V296.795L419.004 301.304ZM415.024 290.707C417.512 290.89 419.082 291.488 419.082 293.387C419.082 293.647 419.03 293.821 418.987 293.925H417.625C417.651 293.847 417.694 293.682 417.694 293.465C417.694 292.572 416.645 292.234 414.989 292.121L409.985 291.774V285.869H419.004V287.36H411.225V290.43L415.024 290.707ZM422.377 282.981C422.377 283.163 422.36 283.467 422.325 283.631H421.059C421.094 283.467 421.102 283.232 421.102 283.042C421.102 282.201 420.695 281.732 419.646 281.385L419.013 281.177L409.985 284.507V282.894L417.495 280.397V280.371L409.985 277.873V276.286L419.637 279.833C421.744 280.605 422.377 281.351 422.377 282.981ZM438.004 447.275H433.946V451.724H438.004V453.215H428.985V451.724H432.705V447.275H428.985V445.784H438.004V447.275ZM438.16 439.913C438.16 442.41 436.365 444.093 433.495 444.093C430.616 444.093 428.829 442.41 428.829 439.913C428.829 437.424 430.616 435.742 433.495 435.742C436.365 435.742 438.16 437.424 438.16 439.913ZM436.833 439.913C436.833 438.317 435.619 437.277 433.495 437.277C431.37 437.277 430.156 438.317 430.156 439.913C430.156 441.509 431.37 442.558 433.495 442.558C435.619 442.558 436.833 441.509 436.833 439.913ZM430.208 430.417V432.577H432.732V430.643C432.732 429.507 432.315 428.961 431.448 428.961C430.65 428.961 430.208 429.472 430.208 430.417ZM433.946 430.521V432.577H436.781V430.253C436.781 429.16 436.287 428.57 435.376 428.57C434.414 428.57 433.946 429.203 433.946 430.521ZM438.004 434.068H428.985V430.209C428.985 428.518 429.861 427.486 431.292 427.486C432.211 427.486 433.061 428.137 433.234 428.969H433.304C433.46 427.833 434.284 427.088 435.411 427.088C437.007 427.088 438.004 428.267 438.004 430.183V434.068ZM438.004 417.644H428.985V416.152H438.004V417.644ZM433.104 422.188V423.87H436.764V422.188C436.764 421.017 436.035 420.263 434.934 420.263C433.824 420.263 433.104 421.026 433.104 422.188ZM438.004 425.362H428.985V423.87H431.864V422.162C431.864 420.098 433.052 418.771 434.934 418.771C436.816 418.771 438.004 420.098 438.004 422.162V425.362ZM438.004 412.545V414.037H428.985V412.545H435.697V412.476L428.985 407.966V406.475H438.004V407.966H431.292V408.036L438.004 412.545ZM425.083 412.883V411.773C426.089 411.773 426.878 411.123 426.878 410.091C426.878 409.059 426.089 408.409 425.083 408.409V407.299C426.679 407.299 427.771 408.435 427.771 410.091C427.771 411.747 426.679 412.883 425.083 412.883ZM428.985 394.118H430.225V397.031H438.004V398.523H430.225V401.437H428.985V394.118ZM441.377 391.967C441.377 392.149 441.36 392.453 441.325 392.617H440.059C440.094 392.453 440.102 392.219 440.102 392.028C440.102 391.187 439.695 390.718 438.646 390.371L438.013 390.163L428.985 393.493V391.88L436.495 389.383V389.357L428.985 386.859V385.273L438.637 388.819C440.744 389.591 441.377 390.337 441.377 391.967ZM428.829 379.541C428.829 377.243 430.668 375.682 433.495 375.682C436.322 375.682 438.16 377.234 438.16 379.506C438.16 380.798 437.527 381.839 436.538 382.376V382.411H441.013V383.92H428.985V382.489H430.512V382.454C429.497 381.899 428.829 380.85 428.829 379.541ZM436.833 379.835C436.833 378.231 435.541 377.225 433.495 377.225C431.457 377.225 430.156 378.231 430.156 379.835C430.156 381.379 431.491 382.42 433.495 382.42C435.506 382.42 436.833 381.379 436.833 379.835ZM438.004 368.068H433.946V372.516H438.004V374.008H428.985V372.516H432.705V368.068H428.985V366.576H438.004V368.068ZM438.004 362.96V364.452H428.985V362.96H435.697V362.891L428.985 358.382V356.89H438.004V358.382H431.292V358.451L438.004 362.96ZM428.829 350.386C428.829 348.088 430.668 346.527 433.495 346.527C436.322 346.527 438.16 348.08 438.16 350.352C438.16 351.644 437.527 352.684 436.538 353.222V353.257H441.013V354.765H428.985V353.335H430.512V353.3C429.497 352.745 428.829 351.696 428.829 350.386ZM436.833 350.681C436.833 349.077 435.541 348.071 433.495 348.071C431.457 348.071 430.156 349.077 430.156 350.681C430.156 352.225 431.491 353.265 433.495 353.265C435.506 353.265 436.833 352.225 436.833 350.681ZM433.633 324.51V342.269H432.229V324.51H433.633ZM438.004 313.87H433.946V318.318H438.004V319.81H428.985V318.318H432.705V313.87H428.985V312.378H438.004V313.87ZM438.16 306.507C438.16 309.005 436.365 310.687 433.495 310.687C430.616 310.687 428.829 309.005 428.829 306.507C428.829 304.019 430.616 302.336 433.495 302.336C436.365 302.336 438.16 304.019 438.16 306.507ZM436.833 306.507C436.833 304.912 435.619 303.871 433.495 303.871C431.37 303.871 430.156 304.912 430.156 306.507C430.156 308.103 431.37 309.152 433.495 309.152C435.619 309.152 436.833 308.103 436.833 306.507ZM430.208 297.012V299.171H432.732V297.237C432.732 296.101 432.315 295.555 431.448 295.555C430.65 295.555 430.208 296.067 430.208 297.012ZM433.946 297.116V299.171H436.781V296.847C436.781 295.754 436.287 295.165 435.376 295.165C434.414 295.165 433.946 295.798 433.946 297.116ZM438.004 300.663H428.985V296.804C428.985 295.113 429.861 294.081 431.292 294.081C432.211 294.081 433.061 294.731 433.234 295.564H433.304C433.46 294.428 434.284 293.682 435.411 293.682C437.007 293.682 438.004 294.861 438.004 296.778V300.663ZM436.877 288.973C436.877 287.551 435.879 286.458 434.579 286.458H433.841L433.989 288.869C434.067 290.083 434.605 290.777 435.454 290.777C436.313 290.777 436.877 290.057 436.877 288.973ZM438.16 289.311C438.16 291.106 437.076 292.312 435.454 292.312C433.911 292.312 432.94 291.124 432.818 289.043L432.671 286.458H431.916C430.815 286.458 430.156 287.187 430.156 288.436C430.156 289.598 430.702 290.326 431.587 290.517V291.974C430.026 291.87 428.829 290.534 428.829 288.401C428.829 286.285 429.974 284.949 431.769 284.949H438.004V286.38H436.452V286.415C437.484 286.953 438.16 288.097 438.16 289.311ZM433.555 279.625V277.899H430.225V279.625C430.225 280.796 430.867 281.542 431.951 281.542C432.888 281.542 433.555 280.787 433.555 279.625ZM438.004 277.899H434.795V279.495L438.004 281.784V283.51L434.518 280.995C434.154 282.27 433.217 283.042 431.977 283.042C430.121 283.042 428.985 281.706 428.985 279.634V276.408H438.004V277.899ZM430.208 266.99V269.15H432.732V267.216C432.732 266.08 432.315 265.534 431.448 265.534C430.65 265.534 430.208 266.045 430.208 266.99ZM433.946 267.094V269.15H436.781V266.826C436.781 265.733 436.287 265.143 435.376 265.143C434.414 265.143 433.946 265.776 433.946 267.094ZM438.004 270.641H428.985V266.782C428.985 265.091 429.861 264.059 431.292 264.059C432.211 264.059 433.061 264.71 433.234 265.542H433.304C433.46 264.406 434.284 263.66 435.411 263.66C437.007 263.66 438.004 264.84 438.004 266.756V270.641ZM438.16 258.189C438.16 260.686 436.365 262.368 433.495 262.368C430.616 262.368 428.829 260.686 428.829 258.189C428.829 255.7 430.616 254.017 433.495 254.017C436.365 254.017 438.16 255.7 438.16 258.189ZM436.833 258.189C436.833 256.593 435.619 255.552 433.495 255.552C431.37 255.552 430.156 256.593 430.156 258.189C430.156 259.784 431.37 260.833 433.495 260.833C435.619 260.833 436.833 259.784 436.833 258.189ZM438.16 249.335C438.16 251.312 437.189 252.743 435.663 252.899V251.373C436.452 251.199 436.911 250.453 436.911 249.335C436.911 248.025 436.287 247.297 435.411 247.297C434.396 247.297 433.937 247.973 433.937 249.335V250.688H432.705V249.335C432.705 248.19 432.272 247.6 431.387 247.6C430.633 247.6 430.087 248.138 430.087 249.3C430.087 250.367 430.546 251.112 431.266 251.234V252.699C429.774 252.509 428.829 251.208 428.829 249.3C428.829 247.245 429.818 246.126 431.266 246.126C432.185 246.126 433 246.716 433.208 247.618H433.278C433.538 246.43 434.301 245.814 435.342 245.814C437.024 245.814 438.16 247.219 438.16 249.335ZM438.004 242.597V244.088H428.985V242.259L436.009 239.05V238.981L428.985 235.755V233.995H438.004V235.495H431.604V235.555L437.744 238.469V239.622L431.604 242.536V242.597H438.004ZM438.16 228.132C438.16 230.63 436.365 232.312 433.495 232.312C430.616 232.312 428.829 230.63 428.829 228.132C428.829 225.644 430.616 223.961 433.495 223.961C436.365 223.961 438.16 225.644 438.16 228.132ZM436.833 228.132C436.833 226.537 435.619 225.496 433.495 225.496C431.37 225.496 430.156 226.537 430.156 228.132C430.156 229.728 431.37 230.777 433.495 230.777C435.619 230.777 436.833 229.728 436.833 228.132ZM433.252 214.908L438.004 210.832V212.766L433.668 216.408V216.478H438.004V217.969H433.668V218.03L438.004 221.672V223.58L433.278 219.53L428.985 223.484V221.629L432.974 218.03V217.969H428.985V216.478H432.974V216.408L428.985 212.81V210.971L433.252 214.908ZM438.004 203.617H433.946V208.066H438.004V209.558H428.985V208.066H432.705V203.617H428.985V202.126H438.004V203.617ZM438.16 196.255C438.16 198.753 436.365 200.435 433.495 200.435C430.616 200.435 428.829 198.753 428.829 196.255C428.829 193.766 430.616 192.084 433.495 192.084C436.365 192.084 438.16 193.766 438.16 196.255ZM436.833 196.255C436.833 194.66 435.619 193.619 433.495 193.619C431.37 193.619 430.156 194.66 430.156 196.255C430.156 197.851 431.37 198.9 433.495 198.9C435.619 198.9 436.833 197.851 436.833 196.255ZM431.76 182.944V184.436C430.893 184.696 430.156 185.433 430.156 186.708C430.156 188.277 431.483 189.309 433.495 189.309C435.558 189.309 436.833 188.26 436.833 186.69C436.833 185.494 436.244 184.705 435.246 184.418V182.927C436.955 183.222 438.16 184.67 438.16 186.699C438.16 189.205 436.365 190.844 433.495 190.844C430.685 190.844 428.829 189.214 428.829 186.716C428.829 184.54 430.225 183.213 431.76 182.944ZM428.985 174.931H430.225V177.845H438.004V179.337H430.225V182.25H428.985V174.931ZM433.104 170.361V172.044H436.764V170.361C436.764 169.191 436.035 168.436 434.934 168.436C433.824 168.436 433.104 169.199 433.104 170.361ZM438.004 173.535H428.985V172.044H431.864V170.335C431.864 168.272 433.052 166.945 434.934 166.945C436.816 166.945 438.004 168.272 438.004 170.335V173.535Z" fill="white"/>
<path d="M26.809 136.143V129.604H23.427L23.1495 133.402C23.0715 134.521 22.8374 135.501 22.4125 136.073V136.143H26.809ZM21.3372 139.768H19.9323V136.143H20.6868C21.3458 135.709 21.6667 134.582 21.7534 133.368L22.1003 128.364H28.3092V136.143H29.74V139.768H28.3352V137.383H21.3372V139.768ZM34.0759 136.255C35.4981 136.255 36.5907 135.258 36.5907 133.957V133.22L34.18 133.368C32.9659 133.446 32.2722 133.984 32.2722 134.833C32.2722 135.692 32.9919 136.255 34.0759 136.255ZM33.7377 137.539C31.9427 137.539 30.7373 136.455 30.7373 134.833C30.7373 133.29 31.9253 132.319 34.0065 132.197L36.5907 132.05V131.295C36.5907 130.194 35.8623 129.535 34.6135 129.535C33.4515 129.535 32.7231 130.081 32.5323 130.966H31.0755C31.1796 129.405 32.515 128.208 34.6482 128.208C36.7641 128.208 38.0996 129.353 38.0996 131.148V137.383H36.6687V135.831H36.6341C36.0964 136.863 34.9517 137.539 33.7377 137.539ZM49.6763 137.383V129.604H45.3144V137.383H43.8229V128.364H51.1765V137.383H49.6763ZM57.6803 128.208C59.9783 128.208 61.5392 130.047 61.5392 132.874C61.5392 135.701 59.987 137.539 57.715 137.539C56.4229 137.539 55.3823 136.906 54.8447 135.917H54.81V140.392H53.3011V128.364H54.7319V129.89H54.7666C55.3216 128.876 56.3709 128.208 57.6803 128.208ZM57.3855 136.212C58.9897 136.212 59.9956 134.92 59.9956 132.874C59.9956 130.836 58.9897 129.535 57.3855 129.535C55.8419 129.535 54.8013 130.87 54.8013 132.874C54.8013 134.885 55.8419 136.212 57.3855 136.212ZM64.7044 137.383H63.2129V128.364H64.7044V135.076H64.7738L69.2831 128.364H70.7746V137.383H69.2831V130.671H69.2137L64.7044 137.383ZM76.7581 137.539C73.9918 137.539 72.5349 135.683 72.5349 132.102C72.5349 127.124 73.853 125.052 77.3564 124.922L78.0241 124.896C78.8913 124.852 79.8625 124.679 80.3742 124.41V125.728C80.088 125.988 79.1341 126.214 78.0935 126.257L77.4258 126.283C74.9197 126.378 74.1739 127.48 73.8097 130.177H73.8791C74.4687 129.11 75.5961 128.555 76.9835 128.555C79.4203 128.555 80.9725 130.272 80.9725 132.96C80.9725 135.796 79.3682 137.539 76.7581 137.539ZM76.7581 136.203C78.449 136.203 79.4289 135.033 79.4289 132.96C79.4289 130.992 78.449 129.873 76.7581 129.873C75.0584 129.873 74.0785 130.992 74.0785 132.96C74.0785 135.033 75.0584 136.203 76.7581 136.203ZM83.1491 140.756C82.967 140.756 82.6635 140.739 82.4987 140.704V139.438C82.6635 139.473 82.8976 139.481 83.0884 139.481C83.9296 139.481 84.3978 139.074 84.7447 138.025L84.9528 137.391L81.6229 128.364H83.2358L85.7333 135.874H85.7593L88.2568 128.364H89.8437L86.2969 138.016C85.5252 140.123 84.7794 140.756 83.1491 140.756ZM96.8244 136.143V129.604H93.4424L93.1649 133.402C93.0869 134.521 92.8528 135.501 92.4278 136.073V136.143H96.8244ZM91.3526 139.768H89.9477V136.143H90.7022C91.3612 135.709 91.6821 134.582 91.7688 133.368L92.1157 128.364H98.3246V136.143H99.7554V139.768H98.3506V137.383H91.3526V139.768ZM104.733 129.518C103.32 129.518 102.331 130.602 102.236 132.102H107.135C107.1 130.593 106.155 129.518 104.733 129.518ZM107.1 134.799H108.583C108.323 136.377 106.797 137.539 104.828 137.539C102.244 137.539 100.675 135.744 100.675 132.908C100.675 130.107 102.27 128.208 104.759 128.208C107.196 128.208 108.696 129.977 108.696 132.709V133.281H102.227V133.368C102.227 135.093 103.241 136.229 104.863 136.229C106.008 136.229 106.849 135.648 107.1 134.799ZM116.622 128.364V129.604H113.708V137.383H112.217V129.604H109.303V128.364H116.622ZM28.2919 147.139H26.8003C26.5402 146.272 25.8031 145.535 24.5283 145.535C22.9588 145.535 21.9268 146.862 21.9268 148.874C21.9268 150.937 22.9761 152.212 24.5457 152.212C25.7424 152.212 26.5315 151.622 26.8177 150.625H28.3092C28.0144 152.334 26.5662 153.539 24.537 153.539C22.0309 153.539 20.3919 151.744 20.3919 148.874C20.3919 146.064 22.0222 144.208 24.5197 144.208C26.6963 144.208 28.023 145.604 28.2919 147.139ZM37.1717 145.587H35.0124V148.11H36.9462C38.0822 148.11 38.6285 147.694 38.6285 146.827C38.6285 146.029 38.1169 145.587 37.1717 145.587ZM37.0676 149.324H35.0124V152.16H37.3365C38.4291 152.16 39.0188 151.666 39.0188 150.755C39.0188 149.793 38.3857 149.324 37.0676 149.324ZM33.5209 153.383V144.364H37.3798C39.0708 144.364 40.1027 145.24 40.1027 146.671C40.1027 147.59 39.4524 148.44 38.6199 148.613V148.683C39.7559 148.839 40.5016 149.663 40.5016 150.79C40.5016 152.386 39.3223 153.383 37.4058 153.383H33.5209ZM45.2104 152.255C46.6325 152.255 47.7252 151.258 47.7252 149.957V149.22L45.3144 149.368C44.1004 149.446 43.4067 149.984 43.4067 150.833C43.4067 151.692 44.1264 152.255 45.2104 152.255ZM44.8722 153.539C43.0771 153.539 41.8718 152.455 41.8718 150.833C41.8718 149.29 43.0598 148.319 45.141 148.197L47.7252 148.05V147.295C47.7252 146.194 46.9968 145.535 45.748 145.535C44.586 145.535 43.8576 146.081 43.6668 146.966H42.21C42.314 145.405 43.6495 144.208 45.7827 144.208C47.8986 144.208 49.2341 145.353 49.2341 147.148V153.383H47.8032V151.831H47.7685C47.2309 152.863 46.0862 153.539 44.8722 153.539ZM52.8068 153.383H51.3153V144.364H53.145L56.3535 151.388H56.4229L59.6488 144.364H61.4091V153.383H59.9089V146.983H59.8482L56.9345 153.123H55.7812L52.8675 146.983H52.8068V153.383ZM65.0166 153.383H63.525V144.364H65.0166V151.076H65.0859L69.5952 144.364H71.0868V153.383H69.5952V146.671H69.5259L65.0166 153.383ZM26.6789 169.383V161.604H22.3171V169.383H20.8255V160.364H28.1791V169.383H26.6789ZM34.6829 160.208C36.9809 160.208 38.5418 162.047 38.5418 164.874C38.5418 167.701 36.9896 169.539 34.7176 169.539C33.4255 169.539 32.3849 168.906 31.8473 167.917H31.8126V172.392H30.3037V160.364H31.7345V161.89H31.7692C32.3242 160.876 33.3735 160.208 34.6829 160.208ZM34.3881 168.212C35.9923 168.212 36.9983 166.92 36.9983 164.874C36.9983 162.836 35.9923 161.535 34.3881 161.535C32.8445 161.535 31.8039 162.87 31.8039 164.874C31.8039 166.885 32.8445 168.212 34.3881 168.212ZM41.707 169.383H40.2155V160.364H41.707V167.076H41.7764L46.2857 160.364H47.7772V169.383H46.2857V162.671H46.2163L41.707 169.383ZM53.7607 169.539C50.9944 169.539 49.5376 167.683 49.5376 164.102C49.5376 159.124 50.8557 157.052 54.359 156.922L55.0268 156.896C55.8939 156.852 56.8652 156.679 57.3768 156.41V157.728C57.0906 157.988 56.1367 158.214 55.0961 158.257L54.4284 158.283C51.9223 158.378 51.1765 159.48 50.8123 162.177H50.8817C51.4714 161.11 52.5987 160.555 53.9862 160.555C56.4229 160.555 57.9751 162.272 57.9751 164.96C57.9751 167.796 56.3709 169.539 53.7607 169.539ZM53.7607 168.203C55.4517 168.203 56.4316 167.033 56.4316 164.96C56.4316 162.992 55.4517 161.873 53.7607 161.873C52.061 161.873 51.0811 162.992 51.0811 164.96C51.0811 167.033 52.061 168.203 53.7607 168.203ZM67.3753 169.383V160.364H68.8668V169.383H67.3753ZM62.8313 164.483H61.149V168.143H62.8313C64.002 168.143 64.7564 167.414 64.7564 166.313C64.7564 165.203 63.9933 164.483 62.8313 164.483ZM59.6575 169.383V160.364H61.149V163.243H62.8573C64.9212 163.243 66.248 164.431 66.248 166.313C66.248 168.195 64.9212 169.383 62.8573 169.383H59.6575ZM73.3934 165.402C73.2113 167.891 72.613 169.461 70.7139 169.461C70.4537 169.461 70.2803 169.409 70.1762 169.365V168.004C70.2543 168.03 70.419 168.073 70.6358 168.073C71.529 168.073 71.8672 167.024 71.98 165.368L72.3268 160.364H78.2323V169.383H76.7407V161.604H73.6709L73.3934 165.402ZM83.5393 164.483H81.857V168.143H83.5393C84.71 168.143 85.4645 167.414 85.4645 166.313C85.4645 165.203 84.7014 164.483 83.5393 164.483ZM80.3655 169.383V160.364H81.857V163.243H83.5654C85.6292 163.243 86.956 164.431 86.956 166.313C86.956 168.195 85.6292 169.383 83.5654 169.383H80.3655Z" fill="white"/>
</g>
<defs>
<clipPath id="clip0_235_8752">
<rect width="480" height="719.999" fill="white"/>
</clipPath>
</defs>
</svg>
