<svg width="480" height="720" viewBox="0 0 480 720" fill="none" xmlns="http://www.w3.org/2000/svg">
<g clip-path="url(#clip0_235_8798)">
<rect width="479.902" height="719.852" fill="#0E0E0E"/>
<rect x="101.933" y="48.0463" width="57.0681" height="37.1471" rx="8.24081" fill="black" stroke="#D2A917" stroke-width="7.67513"/>
<rect x="120.32" y="61.2531" width="19.6274" height="10.5686" rx="3.01959" fill="#D2A917"/>
<rect x="35.2471" y="48.5959" width="59.2081" height="173.238" fill="black" stroke="#D2A917" stroke-width="8.77157"/>
<rect x="167.226" y="48.5953" width="59.2081" height="173.238" fill="black" stroke="#D2A917" stroke-width="8.77157"/>
<rect x="57.1758" y="70.5242" width="15.3503" height="129.381" fill="#D2A917"/>
<rect x="189.154" y="70.5243" width="15.3503" height="129.381" fill="#D2A917"/>
<path d="M446.699 134.002C446.699 181.841 407.92 220.621 360.084 220.621C312.247 220.621 273.468 181.841 273.468 134.002C273.468 86.1636 312.247 47.383 360.084 47.383C407.92 47.383 446.699 86.1636 446.699 134.002Z" fill="black" stroke="#D2A717" stroke-width="8.77157"/>
<ellipse cx="359.688" cy="134.142" rx="63.0944" ry="63.0997" fill="#D2A917"/>
<rect x="36.4717" y="275.802" width="59.2081" height="173.238" fill="black" stroke="#D2A917" stroke-width="8.77157"/>
<rect x="58.4004" y="297.73" width="15.3503" height="129.381" fill="#D2A917"/>
<rect x="102.277" y="391.292" width="58.1116" height="36.1828" rx="8.24081" transform="rotate(-90 102.277 391.292)" fill="black" stroke="#D2A917" stroke-width="7.67513"/>
<rect x="139.631" y="334.019" width="58.1116" height="36.1828" rx="8.24081" transform="rotate(-90 139.631 334.019)" fill="black" stroke="#D2A917" stroke-width="7.67513"/>
<rect x="137.14" y="449.185" width="58.1116" height="36.1828" rx="8.24081" transform="rotate(-90 137.14 449.185)" fill="black" stroke="#D2A917" stroke-width="7.67513"/>
<rect x="150.824" y="431.094" width="19.736" height="8.77158" rx="3.01959" transform="rotate(-90 150.824 431.094)" fill="#D2A917"/>
<rect x="115.967" y="373.2" width="19.736" height="8.77158" rx="3.01959" transform="rotate(-90 115.967 373.2)" fill="#D2A917"/>
<rect x="153.223" y="314.217" width="19.736" height="8.77158" rx="3.01959" transform="rotate(-90 153.223 314.217)" fill="#D2A917"/>
<rect x="233.192" y="275.188" width="59.2081" height="173.238" fill="black" stroke="#D2A917" stroke-width="8.77157"/>
<rect x="255.121" y="297.117" width="15.3503" height="129.381" fill="#D2A917"/>
<rect x="300.623" y="274.64" width="57.2462" height="36.109" rx="8.24081" fill="black" stroke="#D2A917" stroke-width="7.67513"/>
<rect x="300.623" y="412.792" width="57.2462" height="36.109" rx="8.24081" fill="black" stroke="#D2A917" stroke-width="7.67513"/>
<rect x="300.623" y="342.62" width="57.2462" height="36.109" rx="8.24081" fill="black" stroke="#D2A917" stroke-width="7.67513"/>
<rect x="319.434" y="287.41" width="19.6274" height="10.5686" rx="3.01959" fill="#D2A917"/>
<rect x="319.434" y="425.562" width="19.6274" height="10.5686" rx="3.01959" fill="#D2A917"/>
<rect x="319.434" y="355.39" width="19.6274" height="10.5686" rx="3.01959" fill="#D2A917"/>
<rect x="36.0498" y="503.526" width="59.2081" height="173.238" fill="black" stroke="#D2A917" stroke-width="8.77157"/>
<rect x="57.9785" y="525.455" width="15.3503" height="129.381" fill="#D2A917"/>
<path d="M103.48 587.219V503.162C127.788 505.207 146.242 523.563 146.242 545.191C146.242 566.818 127.788 585.174 103.48 587.219Z" fill="black" stroke="#D2A917" stroke-width="7.67513"/>
<path fill-rule="evenodd" clip-rule="evenodd" d="M99.6426 584.762C123.767 584.407 143.2 566.973 143.2 545.519C143.2 524.064 123.767 506.63 99.6426 506.275V584.762Z" fill="black"/>
<path fill-rule="evenodd" clip-rule="evenodd" d="M99.6426 571.505C114.078 571.505 125.78 560.215 125.78 546.287C125.78 532.359 114.078 521.069 99.6426 521.069V571.505Z" fill="#D2A917"/>
<path d="M158.616 655.959V654.498H160.396C162.003 654.498 163.134 653.522 163.134 652.143C163.134 650.783 162.13 649.934 160.515 649.934C158.881 649.934 157.822 650.774 157.685 652.161H156.087C156.252 649.879 157.959 648.474 160.579 648.474C163.043 648.474 164.805 649.943 164.805 651.997C164.805 653.458 163.81 654.699 162.358 655.055V655.128C164.111 655.356 165.188 656.616 165.188 658.405C165.188 660.578 163.153 662.266 160.551 662.266C157.776 662.266 155.85 660.769 155.731 658.524H157.32C157.466 659.911 158.726 660.806 160.533 660.806C162.295 660.806 163.5 659.811 163.5 658.359C163.5 656.853 162.368 655.959 160.469 655.959H158.616ZM170.127 660.769C171.624 660.769 172.774 659.72 172.774 658.35V657.574L170.236 657.73C168.958 657.812 168.228 658.378 168.228 659.272C168.228 660.176 168.986 660.769 170.127 660.769ZM169.771 662.12C167.881 662.12 166.612 660.979 166.612 659.272C166.612 657.647 167.863 656.625 170.053 656.497L172.774 656.342V655.548C172.774 654.389 172.007 653.695 170.692 653.695C169.469 653.695 168.703 654.27 168.502 655.201H166.968C167.078 653.558 168.483 652.298 170.729 652.298C172.956 652.298 174.362 653.503 174.362 655.393V661.956H172.856V660.322H172.819C172.253 661.408 171.048 662.12 169.771 662.12ZM181.172 652.298C183.59 652.298 185.234 654.234 185.234 657.209C185.234 660.185 183.6 662.12 181.208 662.12C179.848 662.12 178.753 661.454 178.187 660.413H178.15V665.123H176.562V652.463H178.068V654.069H178.104C178.689 653.001 179.793 652.298 181.172 652.298ZM180.861 660.724C182.55 660.724 183.609 659.364 183.609 657.209C183.609 655.064 182.55 653.695 180.861 653.695C179.236 653.695 178.141 655.101 178.141 657.209C178.141 659.327 179.236 660.724 180.861 660.724ZM190.135 660.769C191.632 660.769 192.783 659.72 192.783 658.35V657.574L190.245 657.73C188.967 657.812 188.237 658.378 188.237 659.272C188.237 660.176 188.994 660.769 190.135 660.769ZM189.779 662.12C187.89 662.12 186.621 660.979 186.621 659.272C186.621 657.647 187.872 656.625 190.062 656.497L192.783 656.342V655.548C192.783 654.389 192.016 653.695 190.701 653.695C189.478 653.695 188.711 654.27 188.511 655.201H186.977C187.087 653.558 188.492 652.298 190.738 652.298C192.965 652.298 194.371 653.503 194.371 655.393V661.956H192.865V660.322H192.828C192.262 661.408 191.057 662.12 189.779 662.12ZM200.633 662.12C197.721 662.12 196.187 660.167 196.187 656.397C196.187 651.157 197.575 648.976 201.263 648.839L201.965 648.811C202.878 648.766 203.901 648.583 204.439 648.3V649.688C204.138 649.962 203.134 650.199 202.038 650.245L201.336 650.272C198.698 650.372 197.913 651.532 197.529 654.37H197.602C198.223 653.248 199.41 652.664 200.87 652.664C203.435 652.664 205.069 654.471 205.069 657.301C205.069 660.285 203.38 662.12 200.633 662.12ZM200.633 660.715C202.413 660.715 203.444 659.482 203.444 657.301C203.444 655.229 202.413 654.051 200.633 654.051C198.844 654.051 197.812 655.229 197.812 657.301C197.812 659.482 198.844 660.715 200.633 660.715ZM210.783 662.12C208.154 662.12 206.383 660.231 206.383 657.209C206.383 654.179 208.154 652.298 210.783 652.298C213.403 652.298 215.174 654.179 215.174 657.209C215.174 660.231 213.403 662.12 210.783 662.12ZM210.783 660.724C212.463 660.724 213.558 659.446 213.558 657.209C213.558 654.973 212.463 653.695 210.783 653.695C209.104 653.695 207.999 654.973 207.999 657.209C207.999 659.446 209.104 660.724 210.783 660.724ZM223.517 652.463V653.768H220.45V661.956H218.88V653.768H215.813V652.463H223.517ZM227.761 660.769C229.258 660.769 230.409 659.72 230.409 658.35V657.574L227.871 657.73C226.593 657.812 225.863 658.378 225.863 659.272C225.863 660.176 226.62 660.769 227.761 660.769ZM227.405 662.12C225.516 662.12 224.247 660.979 224.247 659.272C224.247 657.647 225.498 656.625 227.688 656.497L230.409 656.342V655.548C230.409 654.389 229.642 653.695 228.327 653.695C227.104 653.695 226.337 654.27 226.137 655.201H224.603C224.713 653.558 226.118 652.298 228.364 652.298C230.591 652.298 231.997 653.503 231.997 655.393V661.956H230.491V660.322H230.454C229.888 661.408 228.683 662.12 227.405 662.12ZM235.758 661.956H234.188V652.463H235.758V659.528H235.831L240.577 652.463H242.147V661.956H240.577V654.891H240.504L235.758 661.956ZM235.402 648.355H236.57C236.57 649.414 237.255 650.245 238.341 650.245C239.427 650.245 240.112 649.414 240.112 648.355H241.28C241.28 650.035 240.084 651.185 238.341 651.185C236.597 651.185 235.402 650.035 235.402 648.355ZM256.068 655.384H254.498C254.224 654.471 253.448 653.695 252.106 653.695C250.454 653.695 249.368 655.092 249.368 657.209C249.368 659.382 250.472 660.724 252.124 660.724C253.384 660.724 254.215 660.103 254.516 659.053H256.086C255.776 660.851 254.251 662.12 252.115 662.12C249.477 662.12 247.752 660.231 247.752 657.209C247.752 654.252 249.468 652.298 252.097 652.298C254.388 652.298 255.785 653.768 256.068 655.384ZM260.96 656.954L265.524 661.956H263.48L259.381 657.392H259.308V661.956H257.738V652.463H259.308V656.662H259.381L263.434 652.463H265.397L260.96 656.954ZM270.609 662.12C267.98 662.12 266.209 660.231 266.209 657.209C266.209 654.179 267.98 652.298 270.609 652.298C273.229 652.298 274.999 654.179 274.999 657.209C274.999 660.231 273.229 662.12 270.609 662.12ZM270.609 660.724C272.288 660.724 273.384 659.446 273.384 657.209C273.384 654.973 272.288 653.695 270.609 653.695C268.929 653.695 267.825 654.973 267.825 657.209C267.825 659.446 268.929 660.724 270.609 660.724ZM278.934 657.766C278.742 660.386 278.112 662.038 276.113 662.038C275.839 662.038 275.657 661.983 275.547 661.938V660.505C275.629 660.532 275.803 660.578 276.031 660.578C276.971 660.578 277.327 659.473 277.446 657.73L277.811 652.463H284.027V661.956H282.457V653.768H279.226L278.934 657.766ZM289.614 656.799H287.843V660.651H289.614C290.846 660.651 291.64 659.884 291.64 658.725C291.64 657.556 290.837 656.799 289.614 656.799ZM286.273 661.956V652.463H287.843V655.493H289.641C291.813 655.493 293.21 656.744 293.21 658.725C293.21 660.705 291.813 661.956 289.641 661.956H286.273ZM298.167 656.954L302.731 661.956H300.686L296.587 657.392H296.514V661.956H294.944V652.463H296.514V656.662H296.587L300.64 652.463H302.603L298.167 656.954ZM307.815 662.12C305.186 662.12 303.415 660.231 303.415 657.209C303.415 654.179 305.186 652.298 307.815 652.298C310.435 652.298 312.206 654.179 312.206 657.209C312.206 660.231 310.435 662.12 307.815 662.12ZM307.815 660.724C309.495 660.724 310.59 659.446 310.59 657.209C310.59 654.973 309.495 653.695 307.815 653.695C306.135 653.695 305.031 654.973 305.031 657.209C305.031 659.446 306.135 660.724 307.815 660.724ZM323.963 661.956V653.768H319.371V661.956H317.801V652.463H325.542V661.956H323.963ZM331.712 662.12C329.084 662.12 327.313 660.231 327.313 657.209C327.313 654.179 329.084 652.298 331.712 652.298C334.332 652.298 336.103 654.179 336.103 657.209C336.103 660.231 334.332 662.12 331.712 662.12ZM331.712 660.724C333.392 660.724 334.487 659.446 334.487 657.209C334.487 654.973 333.392 653.695 331.712 653.695C330.033 653.695 328.928 654.973 328.928 657.209C328.928 659.446 330.033 660.724 331.712 660.724ZM345.633 656.954L349.923 661.956H347.887L344.054 657.392H343.981V661.956H342.411V657.392H342.347L338.513 661.956H336.505L340.768 656.981L336.605 652.463H338.559L342.347 656.662H342.411V652.463H343.981V656.662H344.054L347.842 652.463H349.777L345.633 656.954ZM354.807 653.677C353.319 653.677 352.278 654.818 352.178 656.397H357.335C357.299 654.809 356.304 653.677 354.807 653.677ZM357.299 659.236H358.859C358.586 660.897 356.979 662.12 354.907 662.12C352.187 662.12 350.535 660.231 350.535 657.246C350.535 654.297 352.214 652.298 354.834 652.298C357.399 652.298 358.978 654.161 358.978 657.036V657.638H352.169V657.73C352.169 659.546 353.237 660.742 354.944 660.742C356.148 660.742 357.034 660.13 357.299 659.236ZM362.912 657.766C362.721 660.386 362.091 662.038 360.092 662.038C359.818 662.038 359.635 661.983 359.526 661.938V660.505C359.608 660.532 359.781 660.578 360.01 660.578C360.95 660.578 361.306 659.473 361.424 657.73L361.79 652.463H368.006V661.956H366.436V653.768H363.204L362.912 657.766ZM373.391 660.769C374.888 660.769 376.039 659.72 376.039 658.35V657.574L373.501 657.73C372.223 657.812 371.493 658.378 371.493 659.272C371.493 660.176 372.25 660.769 373.391 660.769ZM373.035 662.12C371.146 662.12 369.877 660.979 369.877 659.272C369.877 657.647 371.128 656.625 373.318 656.497L376.039 656.342V655.548C376.039 654.389 375.272 653.695 373.957 653.695C372.734 653.695 371.967 654.27 371.767 655.201H370.233C370.343 653.558 371.748 652.298 373.994 652.298C376.221 652.298 377.627 653.503 377.627 655.393V661.956H376.121V660.322H376.084C375.518 661.408 374.313 662.12 373.035 662.12ZM381.388 661.956H379.818V652.463H381.388V659.528H381.461L386.207 652.463H387.777V661.956H386.207V654.891H386.134L381.388 661.956ZM381.032 648.355H382.2C382.2 649.414 382.885 650.245 383.971 650.245C385.057 650.245 385.742 649.414 385.742 648.355H386.91C386.91 650.035 385.714 651.185 383.971 651.185C382.227 651.185 381.032 650.035 381.032 648.355ZM393.82 653.677C392.332 653.677 391.292 654.818 391.191 656.397H396.349C396.312 654.809 395.317 653.677 393.82 653.677ZM396.312 659.236H397.873C397.599 660.897 395.993 662.12 393.921 662.12C391.2 662.12 389.548 660.231 389.548 657.246C389.548 654.297 391.228 652.298 393.848 652.298C396.413 652.298 397.992 654.161 397.992 657.036V657.638H391.182V657.73C391.182 659.546 392.25 660.742 393.957 660.742C395.162 660.742 396.047 660.13 396.312 659.236ZM399.753 661.956V652.463H401.323V660.651H404.829V652.463H406.399V660.651H409.904V652.463H411.474V661.956H399.753ZM417.042 656.799H415.271V660.651H417.042C418.274 660.651 419.069 659.884 419.069 658.725C419.069 657.556 418.265 656.799 417.042 656.799ZM413.701 661.956V652.463H415.271V655.493H417.069C419.242 655.493 420.639 656.744 420.639 658.725C420.639 660.705 419.242 661.956 417.069 661.956H413.701ZM158.068 681.956H156.416V668.784H164.23V670.281H158.068V681.956ZM169.104 672.298C171.523 672.298 173.166 674.234 173.166 677.209C173.166 680.185 171.532 682.12 169.141 682.12C167.781 682.12 166.685 681.454 166.119 680.413H166.083V685.123H164.494V672.463H166.001V674.069H166.037C166.621 673.001 167.726 672.298 169.104 672.298ZM168.794 680.724C170.483 680.724 171.541 679.364 171.541 677.209C171.541 675.064 170.483 673.695 168.794 673.695C167.169 673.695 166.074 675.101 166.074 677.209C166.074 679.327 167.169 680.724 168.794 680.724ZM178.068 680.769C179.565 680.769 180.715 679.72 180.715 678.35V677.574L178.178 677.73C176.9 677.812 176.169 678.378 176.169 679.272C176.169 680.176 176.927 680.769 178.068 680.769ZM177.712 682.12C175.822 682.12 174.554 680.979 174.554 679.272C174.554 677.647 175.804 676.625 177.995 676.497L180.715 676.342V675.548C180.715 674.389 179.948 673.695 178.634 673.695C177.411 673.695 176.644 674.27 176.443 675.201H174.91C175.019 673.558 176.425 672.298 178.67 672.298C180.898 672.298 182.303 673.503 182.303 675.393V681.956H180.797V680.322H180.761C180.195 681.408 178.99 682.12 177.712 682.12ZM190.747 681.956V677.684H186.064V681.956H184.494V672.463H186.064V676.379H190.747V672.463H192.317V681.956H190.747ZM196.123 681.956H194.553V672.463H196.123V679.528H196.196L200.943 672.463H202.513V681.956H200.943V674.891H200.87L196.123 681.956ZM213.905 684.466H212.426V681.956H204.74V672.463H206.31V680.651H210.82V672.463H212.39V680.651H213.905V684.466ZM225.416 681.956V677.684H220.733V681.956H219.163V672.463H220.733V676.379H225.416V672.463H226.986V681.956H225.416ZM233.038 673.677C231.55 673.677 230.509 674.818 230.409 676.397H235.566C235.529 674.809 234.535 673.677 233.038 673.677ZM235.529 679.236H237.09C236.817 680.897 235.21 682.12 233.138 682.12C230.418 682.12 228.766 680.231 228.766 677.246C228.766 674.297 230.445 672.298 233.065 672.298C235.63 672.298 237.209 674.161 237.209 677.036V677.638H230.399V677.73C230.399 679.546 231.467 680.742 233.174 680.742C234.379 680.742 235.265 680.13 235.529 679.236ZM250.664 675.384H249.094C248.82 674.471 248.044 673.695 246.702 673.695C245.05 673.695 243.964 675.092 243.964 677.209C243.964 679.382 245.068 680.724 246.721 680.724C247.98 680.724 248.811 680.103 249.112 679.053H250.682C250.372 680.851 248.847 682.12 246.711 682.12C244.073 682.12 242.348 680.231 242.348 677.209C242.348 674.252 244.064 672.298 246.693 672.298C248.984 672.298 250.381 673.768 250.664 675.384ZM253.037 685.507C252.846 685.507 252.526 685.489 252.353 685.452V684.119C252.526 684.156 252.772 684.165 252.973 684.165C253.859 684.165 254.352 683.736 254.717 682.631L254.936 681.965L251.431 672.463H253.128L255.757 680.368H255.785L258.414 672.463H260.084L256.351 682.622C255.538 684.84 254.753 685.507 253.037 685.507ZM274.726 684.466H273.247V681.956H261.499V672.463H263.069V680.651H266.574V672.463H268.144V680.651H271.649V672.463H273.219V680.651H274.726V684.466ZM279.956 673.677C278.468 673.677 277.428 674.818 277.327 676.397H282.485C282.448 674.809 281.453 673.677 279.956 673.677ZM282.448 679.236H284.009C283.735 680.897 282.129 682.12 280.056 682.12C277.336 682.12 275.684 680.231 275.684 677.246C275.684 674.297 277.364 672.298 279.983 672.298C282.548 672.298 284.128 674.161 284.128 677.036V677.638H277.318V677.73C277.318 679.546 278.386 680.742 280.093 680.742C281.298 680.742 282.183 680.13 282.448 679.236ZM293.749 675.384H292.179C291.905 674.471 291.129 673.695 289.787 673.695C288.135 673.695 287.049 675.092 287.049 677.209C287.049 679.382 288.153 680.724 289.805 680.724C291.065 680.724 291.896 680.103 292.197 679.053H293.767C293.457 680.851 291.932 682.12 289.796 682.12C287.158 682.12 285.433 680.231 285.433 677.209C285.433 674.252 287.149 672.298 289.778 672.298C292.069 672.298 293.466 673.768 293.749 675.384ZM302.183 672.463V673.768H299.116V681.956H297.546V673.768H294.479V672.463H302.183ZM307.496 673.75H305.223V676.406H307.258C308.454 676.406 309.029 675.968 309.029 675.055C309.029 674.215 308.491 673.75 307.496 673.75ZM307.386 677.684H305.223V680.669H307.669C308.819 680.669 309.44 680.149 309.44 679.19C309.44 678.177 308.773 677.684 307.386 677.684ZM303.653 681.956V672.463H307.715C309.495 672.463 310.581 673.385 310.581 674.891C310.581 675.858 309.896 676.753 309.02 676.935V677.008C310.216 677.173 311.001 678.04 311.001 679.227C311.001 680.906 309.759 681.956 307.742 681.956H303.653ZM313.52 685.507C313.328 685.507 313.009 685.489 312.836 685.452V684.119C313.009 684.156 313.255 684.165 313.456 684.165C314.342 684.165 314.835 683.736 315.2 682.631L315.419 681.965L311.914 672.463H313.611L316.24 680.368H316.268L318.897 672.463H320.567L316.834 682.622C316.021 684.84 315.236 685.507 313.52 685.507ZM325.524 673.677C324.036 673.677 322.995 674.818 322.895 676.397H328.052C328.016 674.809 327.021 673.677 325.524 673.677ZM328.016 679.236H329.576C329.303 680.897 327.696 682.12 325.624 682.12C322.904 682.12 321.252 680.231 321.252 677.246C321.252 674.297 322.931 672.298 325.551 672.298C328.116 672.298 329.695 674.161 329.695 677.036V677.638H322.886V677.73C322.886 679.546 323.954 680.742 325.661 680.742C326.865 680.742 327.751 680.13 328.016 679.236ZM338.038 672.463V673.768H334.971V681.956H333.401V673.768H330.334V672.463H338.038Z" fill="white"/>
</g>
<defs>
<clipPath id="clip0_235_8798">
<rect width="480" height="719.999" fill="white"/>
</clipPath>
</defs>
</svg>
