<svg width="480" height="720" viewBox="0 0 480 720" fill="none" xmlns="http://www.w3.org/2000/svg">
<path d="M0 0.272705H479.647V719.744H0V0.272705Z" fill="#BFA319"/>
<path fill-rule="evenodd" clip-rule="evenodd" d="M311.627 173.267C307.721 169.524 302.595 167.653 296.248 167.653H281.601V146.292H271.104V176.99H281.601V176.929H295.271H314.652C313.825 175.603 312.816 174.382 311.627 173.267Z" fill="white"/>
<path fill-rule="evenodd" clip-rule="evenodd" d="M341.001 146.292V176.685H351.498V156.179H381.403V146.292H341.001Z" fill="white"/>
<path fill-rule="evenodd" clip-rule="evenodd" d="M413.526 146.292V176.685H403.151V146.292H413.526ZM424.204 176.685L446.36 146.292H455.636V176.685H445.261V162.648L435.029 176.685H424.204Z" fill="white"/>
<path fill-rule="evenodd" clip-rule="evenodd" d="M311.938 132.797C308.032 129.054 302.905 127.183 296.558 127.183H281.911V105.822H271.414V136.52H281.911V136.459H295.582H314.962C314.135 135.133 313.127 133.912 311.938 132.797Z" fill="white"/>
<path fill-rule="evenodd" clip-rule="evenodd" d="M341.312 105.822V136.215H351.809V115.709H381.713V105.822H341.312Z" fill="white"/>
<path fill-rule="evenodd" clip-rule="evenodd" d="M413.837 105.822V136.215H403.462V105.822H413.837ZM424.514 136.215L446.67 105.822H455.947V136.215H445.572V122.178L435.339 136.215H424.514Z" fill="white"/>
<path fill-rule="evenodd" clip-rule="evenodd" d="M311.627 212.326C307.721 208.583 302.595 206.711 296.248 206.711H281.601V185.351H271.104V216.049H281.601V215.987H295.271H314.652C313.825 214.661 312.816 213.441 311.627 212.326Z" fill="white"/>
<path fill-rule="evenodd" clip-rule="evenodd" d="M341.001 185.351V215.743H351.498V195.237H381.403V185.351H341.001Z" fill="white"/>
<path fill-rule="evenodd" clip-rule="evenodd" d="M413.526 185.351V215.743H403.151V185.351H413.526ZM424.204 215.743L446.36 185.351H455.636V215.743H445.261V201.707L435.029 215.743H424.204Z" fill="white"/>
<path fill-rule="evenodd" clip-rule="evenodd" d="M311.627 305.091C307.721 301.348 302.595 299.476 296.248 299.476H281.601V278.116H271.104V323.155H281.601V308.752H295.271C298.933 308.752 301.781 309.729 303.815 311.682C305.931 313.553 306.989 316.157 306.989 319.494C306.989 320.832 306.819 322.053 306.478 323.155H317.218C317.396 321.985 317.486 320.764 317.486 319.494C317.486 313.553 315.533 308.752 311.627 305.091Z" fill="white"/>
<path fill-rule="evenodd" clip-rule="evenodd" d="M341.001 278.116V323.155H351.498V288.002H381.403V278.116H341.001Z" fill="white"/>
<path fill-rule="evenodd" clip-rule="evenodd" d="M413.526 323.155L446.36 278.116H455.636V323.155H445.261V294.472L424.351 323.155H413.526ZM413.526 278.116V323.155H403.151V278.116H413.526Z" fill="white"/>
<path fill-rule="evenodd" clip-rule="evenodd" d="M311.627 251.385C307.721 247.642 302.595 245.77 296.248 245.77H281.601V224.41H271.104V269.449H281.601V255.047H295.271C298.933 255.047 301.781 256.023 303.815 257.976C305.931 259.848 306.989 262.451 306.989 265.788C306.989 267.126 306.819 268.347 306.478 269.449H317.218C317.396 268.279 317.486 267.059 317.486 265.788C317.486 259.848 315.533 255.047 311.627 251.385Z" fill="white"/>
<path fill-rule="evenodd" clip-rule="evenodd" d="M341.001 224.41V269.449H351.498V234.297H381.403V224.41H341.001Z" fill="white"/>
<path fill-rule="evenodd" clip-rule="evenodd" d="M413.526 269.449L446.36 224.41H455.636V269.449H445.261V240.766L424.351 269.449H413.526ZM413.526 224.41V269.449H403.151V224.41H413.526Z" fill="white"/>
<path d="M165.356 360.994C165.356 363.76 165.194 365.795 164.868 367.096H118.242C119.055 372.63 121.171 376.983 124.589 380.157C128.006 383.33 132.238 384.917 137.283 384.917C143.955 384.917 149.001 382.191 152.418 376.739H163.281C161.328 381.703 157.992 385.934 153.273 389.433C148.553 392.851 143.182 394.56 137.161 394.56C131.709 394.56 126.704 393.176 122.148 390.41C117.591 387.643 114.01 383.819 111.406 378.936C108.802 374.054 107.501 368.561 107.501 362.458C107.501 356.518 108.843 351.107 111.528 346.224C114.214 341.342 117.794 337.518 122.27 334.751C126.827 331.903 131.75 330.479 137.039 330.479C142.328 330.479 147.129 331.822 151.442 334.507C155.754 337.192 159.131 340.854 161.573 345.492C164.095 350.13 165.356 355.297 165.356 360.994ZM137.039 340.121C132.319 340.121 128.169 341.83 124.589 345.248C121.09 348.584 118.933 352.978 118.12 358.43H155.103C154.452 353.06 152.459 348.666 149.123 345.248C145.868 341.83 141.84 340.121 137.039 340.121Z" fill="white"/>
<path d="M231.738 357.454V331.821H242.357V393.217H231.738V367.341H200.857V393.217H190.36V331.821H200.857V357.454H231.738Z" fill="white"/>
<path d="M296.249 353.182C302.596 353.182 307.723 355.053 311.629 358.797C315.535 362.458 317.487 367.259 317.487 373.199C317.487 379.14 315.535 383.981 311.629 387.724C307.723 391.386 302.596 393.217 296.249 393.217H271.105V331.821H281.602V353.182H296.249ZM295.273 383.819C298.935 383.819 301.783 382.883 303.817 381.011C305.933 379.14 306.99 376.536 306.99 373.199C306.99 369.863 305.933 367.259 303.817 365.388C301.783 363.435 298.935 362.458 295.273 362.458H281.602V383.819H295.273Z" fill="white"/>
<path d="M351.5 393.217H341.003V331.821H381.404V341.708H351.5V393.217Z" fill="white"/>
<path d="M413.528 376.861L446.362 331.821H455.638V393.217H445.263V348.177L412.429 393.217H403.153V331.821H413.528V376.861Z" fill="white"/>
<path fill-rule="evenodd" clip-rule="evenodd" d="M78.8863 383.574H88.4069V393.217H78.0319H32.9922H22.6172V383.574H27.6216C31.6089 380.645 33.8059 376.251 34.2128 370.392L37.5084 331.821H78.8863V383.574ZM68.5113 383.574V341.464H47.151L44.5878 370.392C44.0182 376.495 42.35 380.889 39.5834 383.574H68.5113Z" fill="white"/>
<path fill-rule="evenodd" clip-rule="evenodd" d="M88.4069 616.3H78.8863V610.953H68.5113V616.3H39.5834C40.9745 614.95 42.0879 613.168 42.9236 610.953H32.186C31.0925 613.086 29.571 614.868 27.6216 616.3H22.6172V625.943H32.9922H78.0319H88.4069V616.3Z" fill="white"/>
<path fill-rule="evenodd" clip-rule="evenodd" d="M111.04 610.953C111.159 611.191 111.281 611.427 111.406 611.662C114.01 616.544 117.591 620.369 122.148 623.136C126.704 625.902 131.709 627.286 137.161 627.286C143.182 627.286 148.553 625.577 153.273 622.159C157.992 618.66 161.328 614.429 163.281 609.465H152.418C149.001 614.917 143.955 617.643 137.283 617.643C132.238 617.643 128.006 616.056 124.589 612.883C123.942 612.282 123.341 611.639 122.788 610.953H111.04Z" fill="white"/>
<path fill-rule="evenodd" clip-rule="evenodd" d="M242.357 625.943V610.953H231.738V625.943H242.357ZM200.857 610.953V625.943H190.36V610.953H200.857Z" fill="white"/>
<path fill-rule="evenodd" clip-rule="evenodd" d="M88.4069 641.431H78.8863V636.084H68.5113V641.431H39.5834C40.9745 640.081 42.0879 638.299 42.9236 636.084H32.186C31.0925 638.217 29.571 639.999 27.6216 641.431H22.6172V651.074H32.9922H78.0319H88.4069V641.431Z" fill="white"/>
<path fill-rule="evenodd" clip-rule="evenodd" d="M111.04 636.084C111.159 636.322 111.281 636.558 111.406 636.793C114.01 641.675 117.591 645.5 122.148 648.266C126.704 651.033 131.709 652.416 137.161 652.416C143.182 652.416 148.553 650.708 153.273 647.29C157.992 643.791 161.328 639.56 163.281 634.596H152.418C149.001 640.048 143.955 642.774 137.283 642.774C132.238 642.774 128.006 641.187 124.589 638.013C123.942 637.413 123.341 636.77 122.788 636.084H111.04Z" fill="white"/>
<path fill-rule="evenodd" clip-rule="evenodd" d="M242.357 651.074V636.084H231.738V651.074H242.357ZM200.857 636.084V651.074H190.36V636.084H200.857Z" fill="white"/>
<path fill-rule="evenodd" clip-rule="evenodd" d="M88.4069 666.562H78.8863V661.215H68.5113V666.562H39.5834C40.9745 665.212 42.0879 663.429 42.9236 661.215H32.186C31.0925 663.348 29.571 665.13 27.6216 666.562H22.6172V676.205H32.9922H78.0319H88.4069V666.562Z" fill="white"/>
<path fill-rule="evenodd" clip-rule="evenodd" d="M111.04 661.215C111.159 661.453 111.281 661.689 111.406 661.924C114.01 666.806 117.591 670.631 122.148 673.397C126.704 676.164 131.709 677.547 137.161 677.547C143.182 677.547 148.553 675.838 153.273 672.421C157.992 668.922 161.328 664.69 163.281 659.727H152.418C149.001 665.179 143.955 667.905 137.283 667.905C132.238 667.905 128.006 666.318 124.589 663.144C123.942 662.544 123.341 661.9 122.788 661.215H111.04Z" fill="white"/>
<path fill-rule="evenodd" clip-rule="evenodd" d="M242.357 676.205V661.215H231.738V676.205H242.357ZM200.857 661.215V676.205H190.36V661.215H200.857Z" fill="white"/>
<path fill-rule="evenodd" clip-rule="evenodd" d="M88.4069 518.29H78.8863V501.812H68.5113V518.29H39.5834C42.35 515.604 44.0182 511.21 44.5878 505.107L44.8798 501.812H34.4944L34.2128 505.107C33.8059 510.966 31.6089 515.36 27.6216 518.29H22.6172V527.932H32.9922H78.0319H88.4069V518.29Z" fill="white"/>
<path fill-rule="evenodd" clip-rule="evenodd" d="M107.765 501.812C108.266 506.092 109.48 510.039 111.406 513.652C114.01 518.534 117.591 522.358 122.148 525.125C126.704 527.892 131.709 529.275 137.161 529.275C143.182 529.275 148.553 527.566 153.273 524.149C157.992 520.65 161.328 516.418 163.281 511.454H152.418C149.001 516.906 143.955 519.632 137.283 519.632C132.238 519.632 128.006 518.046 124.589 514.872C121.171 511.699 119.055 507.345 118.242 501.812H107.765Z" fill="white"/>
<path fill-rule="evenodd" clip-rule="evenodd" d="M242.357 501.812V527.932H231.738V502.056V501.812H242.357ZM200.857 501.812H190.36V527.932H200.857V502.056V501.812Z" fill="white"/>
<path fill-rule="evenodd" clip-rule="evenodd" d="M88.4069 553.473H78.8863V536.995H68.5113V553.473H39.5834C42.35 550.788 44.0182 546.394 44.5878 540.291L44.8798 536.995H34.4944L34.2128 540.291C33.8059 546.149 31.6089 550.544 27.6216 553.473H22.6172V563.116H32.9922H78.0319H88.4069V553.473Z" fill="white"/>
<path fill-rule="evenodd" clip-rule="evenodd" d="M107.765 536.995C108.266 541.276 109.48 545.222 111.406 548.835C114.01 553.717 117.591 557.542 122.148 560.308C126.704 563.075 131.709 564.458 137.161 564.458C143.182 564.458 148.553 562.749 153.273 559.332C157.992 555.833 161.328 551.601 163.281 546.638H152.418C149.001 552.09 143.955 554.816 137.283 554.816C132.238 554.816 128.006 553.229 124.589 550.055C121.171 546.882 119.055 542.528 118.242 536.995H107.765Z" fill="white"/>
<path fill-rule="evenodd" clip-rule="evenodd" d="M242.357 536.995V563.116H231.738V537.239V536.995H242.357ZM200.857 536.995H190.36V563.116H200.857V537.239V536.995Z" fill="white"/>
<path fill-rule="evenodd" clip-rule="evenodd" d="M88.4069 591.169H78.8863V574.691H68.5113V591.169H39.5834C42.35 588.484 44.0182 584.09 44.5878 577.987L44.8798 574.691H34.4944L34.2128 577.987C33.8059 583.846 31.6089 588.24 27.6216 591.169H22.6172V600.812H32.9922H78.0319H88.4069V591.169Z" fill="white"/>
<path fill-rule="evenodd" clip-rule="evenodd" d="M107.765 574.691C108.266 578.972 109.48 582.919 111.406 586.531C114.01 591.413 117.591 595.238 122.148 598.005C126.704 600.771 131.709 602.155 137.161 602.155C143.182 602.155 148.553 600.446 153.273 597.028C157.992 593.529 161.328 589.298 163.281 584.334H152.418C149.001 589.786 143.955 592.512 137.283 592.512C132.238 592.512 128.006 590.925 124.589 587.752C121.171 584.578 119.055 580.225 118.242 574.691H107.765Z" fill="white"/>
<path fill-rule="evenodd" clip-rule="evenodd" d="M242.357 574.691V600.812H231.738V574.936V574.691H242.357ZM200.857 574.691H190.36V600.812H200.857V574.936V574.691Z" fill="white"/>
<path fill-rule="evenodd" clip-rule="evenodd" d="M231.738 406.724V402.367H242.357V442.487H231.738V416.611H200.857V442.487H190.36V402.367H200.857V406.724H231.738Z" fill="white"/>
<path fill-rule="evenodd" clip-rule="evenodd" d="M164.868 416.367C165.194 415.065 165.356 413.031 165.356 410.264C165.356 407.508 165.061 404.875 164.471 402.367H153.908C154.475 404.023 154.873 405.8 155.103 407.701H118.12C118.404 405.793 118.853 404.015 119.467 402.367H108.73C107.91 405.326 107.501 408.447 107.501 411.729C107.501 417.832 108.802 423.324 111.406 428.207C114.01 433.089 117.591 436.913 122.148 439.68C126.704 442.447 131.709 443.83 137.161 443.83C143.182 443.83 148.553 442.121 153.273 438.704C157.992 435.205 161.328 430.973 163.281 426.009H152.418C149.001 431.461 143.955 434.187 137.283 434.187C132.238 434.187 128.006 432.601 124.589 429.427C121.171 426.254 119.055 421.9 118.242 416.367H164.868Z" fill="white"/>
<path fill-rule="evenodd" clip-rule="evenodd" d="M88.4069 432.845H78.8863V402.367H68.5113V432.845H39.5834C42.35 430.159 44.0182 425.765 44.5878 419.662L46.1203 402.367H35.6906L34.2128 419.662C33.8059 425.521 31.6089 429.915 27.6216 432.845H22.6172V442.487H32.9922H78.0319H88.4069V432.845Z" fill="white"/>
<path fill-rule="evenodd" clip-rule="evenodd" d="M231.738 456.986V452.629H242.357V492.749H231.738V466.873H200.857V492.749H190.36V452.629H200.857V456.986H231.738Z" fill="white"/>
<path fill-rule="evenodd" clip-rule="evenodd" d="M164.868 466.629C165.194 465.327 165.356 463.292 165.356 460.526C165.356 457.769 165.061 455.137 164.471 452.629H153.908C154.475 454.284 154.873 456.062 155.103 457.962H118.12C118.404 456.055 118.853 454.277 119.467 452.629H108.73C107.91 455.588 107.501 458.708 107.501 461.99C107.501 468.093 108.802 473.586 111.406 478.468C114.01 483.351 117.591 487.175 122.148 489.942C126.704 492.708 131.709 494.092 137.161 494.092C143.182 494.092 148.553 492.383 153.273 488.965C157.992 485.466 161.328 481.235 163.281 476.271H152.418C149.001 481.723 143.955 484.449 137.283 484.449C132.238 484.449 128.006 482.862 124.589 479.689C121.171 476.515 119.055 472.162 118.242 466.629H164.868Z" fill="white"/>
<path fill-rule="evenodd" clip-rule="evenodd" d="M88.4069 483.107H78.8863V452.629H68.5113V483.107H39.5834C42.35 480.421 44.0182 476.027 44.5878 469.924L46.1203 452.629H35.6906L34.2128 469.924C33.8059 475.783 31.6089 480.177 27.6216 483.107H22.6172V492.749H32.9922H78.0319H88.4069V483.107Z" fill="white"/>
<path fill-rule="evenodd" clip-rule="evenodd" d="M281.601 95.9817V82.6773H271.104V95.9817H281.601Z" fill="white"/>
<path fill-rule="evenodd" clip-rule="evenodd" d="M341.001 82.6773V95.9817H351.498V92.5641H381.403V82.6773H341.001Z" fill="white"/>
<path fill-rule="evenodd" clip-rule="evenodd" d="M413.526 95.9817V82.6773H403.151V95.9817H413.526ZM446.36 82.6773L436.661 95.9817H455.636V82.6773H446.36Z" fill="white"/>
<path fill-rule="evenodd" clip-rule="evenodd" d="M281.601 74.0112V60.7068H271.104V74.0112H281.601Z" fill="white"/>
<path fill-rule="evenodd" clip-rule="evenodd" d="M341.001 60.7068V74.0112H351.498V70.5936H381.403V60.7068H341.001Z" fill="white"/>
<path fill-rule="evenodd" clip-rule="evenodd" d="M413.526 74.0112V60.7068H403.151V74.0112H413.526ZM446.36 60.7068L436.661 74.0112H455.636V60.7068H446.36Z" fill="white"/>
<path fill-rule="evenodd" clip-rule="evenodd" d="M281.601 52.041V38.7366H271.104V52.041H281.601Z" fill="white"/>
<path fill-rule="evenodd" clip-rule="evenodd" d="M341.001 38.7366V52.041H351.498V48.6233H381.403V38.7366H341.001Z" fill="white"/>
<path fill-rule="evenodd" clip-rule="evenodd" d="M413.526 52.041V38.7366H403.151V52.041H413.526ZM446.36 38.7366L436.661 52.041H455.636V38.7366H446.36Z" fill="white"/>
<g clip-path="url(#clip0_235_533)">
<path fill-rule="evenodd" clip-rule="evenodd" d="M71.9627 27.3326H64.835V38.8948L55.9254 27.3326H47.9068L47.9069 27.3326H40.7814L31.8718 38.8949V27.3326H24.7441V68.2453H31.8718V56.683L40.7814 68.2453H48.8001L48.8 68.2452H55.9254L64.835 56.6829V68.2452H71.9627V27.3326ZM48.3534 67.7055L64.835 47.7889L48.3535 27.8723L31.8718 47.789L48.3534 67.7055Z" fill="url(#paint0_linear_235_533)"/>
</g>
<path d="M276.42 435.204L281.024 440.472H278.813L274.51 435.445V440.472H272.781V430.359H274.51V435.124L278.511 430.359H280.582L276.42 435.204ZM286.075 440.693C285.19 440.693 284.373 440.465 283.622 440.009C282.885 439.54 282.295 438.903 281.853 438.099C281.411 437.282 281.189 436.384 281.189 435.405C281.189 434.427 281.411 433.536 281.853 432.731C282.295 431.927 282.885 431.297 283.622 430.841C284.373 430.372 285.19 430.138 286.075 430.138C286.946 430.138 287.757 430.372 288.507 430.841C289.258 431.297 289.854 431.927 290.297 432.731C290.739 433.536 290.96 434.427 290.96 435.405C290.96 436.384 290.739 437.282 290.297 438.099C289.854 438.903 289.258 439.54 288.507 440.009C287.757 440.465 286.946 440.693 286.075 440.693ZM286.075 439.064C286.638 439.064 287.16 438.91 287.643 438.602C288.125 438.294 288.507 437.865 288.789 437.315C289.07 436.752 289.211 436.116 289.211 435.405C289.211 434.695 289.07 434.065 288.789 433.515C288.507 432.966 288.125 432.537 287.643 432.229C287.16 431.92 286.638 431.766 286.075 431.766C285.512 431.766 284.989 431.92 284.507 432.229C284.024 432.537 283.635 432.966 283.341 433.515C283.059 434.065 282.918 434.695 282.918 435.405C282.918 436.116 283.059 436.752 283.341 437.315C283.635 437.865 284.017 438.294 284.487 438.602C284.969 438.91 285.498 439.064 286.075 439.064ZM299.858 434.581V430.359H301.608V440.472H299.858V436.209H294.772V440.472H293.043V430.359H294.772V434.581H299.858ZM307.971 435.204L312.575 440.472H310.364L306.061 435.445V440.472H304.332V430.359H306.061V435.124L310.062 430.359H312.133L307.971 435.204ZM320.094 430.359H321.883L317.541 441.256C317.098 442.368 316.649 443.132 316.194 443.548C315.738 443.977 315.209 444.191 314.605 444.191C314.337 444.191 314.022 444.131 313.66 444.01V442.442C313.888 442.522 314.11 442.563 314.324 442.563C314.686 442.563 314.987 442.462 315.229 442.261C315.483 442.06 315.704 441.725 315.892 441.256L316.294 440.23L312.293 430.359H314.163L317.159 438.079L320.094 430.359ZM323.357 444.09V430.359H324.644L325.026 431.626H325.126C325.368 431.304 325.763 430.976 326.312 430.64C326.875 430.305 327.519 430.138 328.243 430.138C329.087 430.138 329.864 430.366 330.575 430.821C331.285 431.264 331.848 431.887 332.263 432.691C332.692 433.495 332.907 434.4 332.907 435.405C332.907 436.41 332.692 437.315 332.263 438.119C331.848 438.924 331.285 439.554 330.575 440.009C329.864 440.465 329.087 440.693 328.243 440.693C327.546 440.693 326.916 440.532 326.353 440.21C325.79 439.875 325.401 439.554 325.187 439.245H325.086V444.09H323.357ZM328.142 439.064C328.692 439.064 329.194 438.91 329.65 438.602C330.119 438.294 330.488 437.865 330.756 437.315C331.037 436.752 331.178 436.116 331.178 435.405C331.178 434.695 331.037 434.065 330.756 433.515C330.488 432.966 330.119 432.537 329.65 432.229C329.194 431.92 328.692 431.766 328.142 431.766C327.592 431.766 327.083 431.92 326.614 432.229C326.145 432.537 325.77 432.966 325.488 433.515C325.22 434.065 325.086 434.695 325.086 435.405C325.086 436.116 325.22 436.752 325.488 437.315C325.77 437.865 326.145 438.294 326.614 438.602C327.083 438.91 327.592 439.064 328.142 439.064ZM339.282 440.693C338.397 440.693 337.579 440.465 336.829 440.009C336.092 439.54 335.502 438.903 335.06 438.099C334.617 437.282 334.396 436.384 334.396 435.405C334.396 434.427 334.617 433.536 335.06 432.731C335.502 431.927 336.092 431.297 336.829 430.841C337.579 430.372 338.397 430.138 339.282 430.138C340.059 430.138 340.763 430.319 341.393 430.681C342.036 431.043 342.565 431.518 342.981 432.108C343.396 432.698 343.671 433.334 343.805 434.018H342.076C341.889 433.361 341.553 432.825 341.071 432.41C340.602 431.981 340.005 431.766 339.282 431.766C338.719 431.766 338.196 431.92 337.713 432.229C337.231 432.537 336.842 432.966 336.547 433.515C336.266 434.065 336.125 434.695 336.125 435.405C336.125 436.116 336.266 436.752 336.547 437.315C336.842 437.865 337.224 438.294 337.693 438.602C338.176 438.91 338.705 439.064 339.282 439.064C340.005 439.064 340.602 438.857 341.071 438.441C341.553 438.012 341.889 437.469 342.076 436.813H343.805C343.671 437.496 343.396 438.133 342.981 438.723C342.565 439.312 342.036 439.788 341.393 440.15C340.763 440.512 340.059 440.693 339.282 440.693ZM274.51 460.472H272.781V450.359H281.165V460.472H279.436V451.987H274.51V460.472ZM288.156 460.693C287.271 460.693 286.454 460.465 285.703 460.009C284.966 459.54 284.376 458.903 283.934 458.099C283.492 457.282 283.271 456.384 283.271 455.405C283.271 454.427 283.492 453.536 283.934 452.731C284.376 451.927 284.966 451.297 285.703 450.841C286.454 450.372 287.271 450.138 288.156 450.138C289.027 450.138 289.838 450.372 290.589 450.841C291.339 451.297 291.936 451.927 292.378 452.731C292.82 453.536 293.041 454.427 293.041 455.405C293.041 456.384 292.82 457.282 292.378 458.099C291.936 458.903 291.339 459.54 290.589 460.009C289.838 460.465 289.027 460.693 288.156 460.693ZM288.156 459.064C288.719 459.064 289.242 458.91 289.724 458.602C290.207 458.294 290.589 457.865 290.87 457.315C291.152 456.752 291.292 456.116 291.292 455.405C291.292 454.695 291.152 454.065 290.87 453.515C290.589 452.966 290.207 452.537 289.724 452.229C289.242 451.92 288.719 451.766 288.156 451.766C287.593 451.766 287.07 451.92 286.588 452.229C286.105 452.537 285.717 452.966 285.422 453.515C285.14 454.065 285 454.695 285 455.405C285 456.116 285.14 456.752 285.422 457.315C285.717 457.865 286.099 458.294 286.568 458.602C287.05 458.91 287.58 459.064 288.156 459.064ZM304.255 460.693C303.371 460.693 302.553 460.465 301.803 460.009C301.065 459.54 300.476 458.903 300.033 458.099C299.591 457.282 299.37 456.384 299.37 455.405C299.37 454.427 299.591 453.536 300.033 452.731C300.476 451.927 301.065 451.297 301.803 450.841C302.553 450.372 303.371 450.138 304.255 450.138C305.033 450.138 305.736 450.319 306.366 450.681C307.01 451.043 307.539 451.518 307.955 452.108C308.37 452.698 308.645 453.334 308.779 454.018H307.05C306.862 453.361 306.527 452.825 306.045 452.41C305.576 451.981 304.979 451.766 304.255 451.766C303.692 451.766 303.17 451.92 302.687 452.229C302.205 452.537 301.816 452.966 301.521 453.515C301.24 454.065 301.099 454.695 301.099 455.405C301.099 456.116 301.24 456.752 301.521 457.315C301.816 457.865 302.198 458.294 302.667 458.602C303.15 458.91 303.679 459.064 304.255 459.064C304.979 459.064 305.576 458.857 306.045 458.441C306.527 458.012 306.862 457.469 307.05 456.813H308.779C308.645 457.496 308.37 458.133 307.955 458.723C307.539 459.312 307.01 459.788 306.366 460.15C305.736 460.512 305.033 460.693 304.255 460.693ZM314.431 455.204L319.035 460.472H316.823L312.521 455.445V460.472H310.792V450.359H312.521V455.124L316.521 450.359H318.592L314.431 455.204ZM324.085 460.693C323.201 460.693 322.383 460.465 321.632 460.009C320.895 459.54 320.306 458.903 319.863 458.099C319.421 457.282 319.2 456.384 319.2 455.405C319.2 454.427 319.421 453.536 319.863 452.731C320.306 451.927 320.895 451.297 321.632 450.841C322.383 450.372 323.201 450.138 324.085 450.138C324.956 450.138 325.767 450.372 326.518 450.841C327.269 451.297 327.865 451.927 328.307 452.731C328.75 453.536 328.971 454.427 328.971 455.405C328.971 456.384 328.75 457.282 328.307 458.099C327.865 458.903 327.269 459.54 326.518 460.009C325.767 460.465 324.956 460.693 324.085 460.693ZM324.085 459.064C324.648 459.064 325.171 458.91 325.653 458.602C326.136 458.294 326.518 457.865 326.799 457.315C327.081 456.752 327.222 456.116 327.222 455.405C327.222 454.695 327.081 454.065 326.799 453.515C326.518 452.966 326.136 452.537 325.653 452.229C325.171 451.92 324.648 451.766 324.085 451.766C323.522 451.766 323 451.92 322.517 452.229C322.035 452.537 321.646 452.966 321.351 453.515C321.07 454.065 320.929 454.695 320.929 455.405C320.929 456.116 321.07 456.752 321.351 457.315C321.646 457.865 322.028 458.294 322.497 458.602C322.98 458.91 323.509 459.064 324.085 459.064ZM331.053 464.09V450.359H332.34L332.722 451.626H332.823C333.064 451.304 333.459 450.976 334.009 450.64C334.572 450.305 335.215 450.138 335.939 450.138C336.783 450.138 337.561 450.366 338.271 450.821C338.981 451.264 339.544 451.887 339.96 452.691C340.389 453.495 340.603 454.4 340.603 455.405C340.603 456.41 340.389 457.315 339.96 458.119C339.544 458.924 338.981 459.554 338.271 460.009C337.561 460.465 336.783 460.693 335.939 460.693C335.242 460.693 334.612 460.532 334.049 460.21C333.486 459.875 333.097 459.554 332.883 459.245H332.782V464.09H331.053ZM335.838 459.064C336.388 459.064 336.89 458.91 337.346 458.602C337.815 458.294 338.184 457.865 338.452 457.315C338.733 456.752 338.874 456.116 338.874 455.405C338.874 454.695 338.733 454.065 338.452 453.515C338.184 452.966 337.815 452.537 337.346 452.229C336.89 451.92 336.388 451.766 335.838 451.766C335.289 451.766 334.78 451.92 334.31 452.229C333.841 452.537 333.466 452.966 333.185 453.515C332.916 454.065 332.782 454.695 332.782 455.405C332.782 456.116 332.916 456.752 333.185 457.315C333.466 457.865 333.841 458.294 334.31 458.602C334.78 458.91 335.289 459.064 335.838 459.064ZM346.978 460.693C346.093 460.693 345.276 460.465 344.525 460.009C343.788 459.54 343.198 458.903 342.756 458.099C342.314 457.282 342.092 456.384 342.092 455.405C342.092 454.427 342.314 453.536 342.756 452.731C343.198 451.927 343.788 451.297 344.525 450.841C345.276 450.372 346.093 450.138 346.978 450.138C347.849 450.138 348.66 450.372 349.411 450.841C350.161 451.297 350.758 451.927 351.2 452.731C351.642 453.536 351.863 454.427 351.863 455.405C351.863 456.384 351.642 457.282 351.2 458.099C350.758 458.903 350.161 459.54 349.411 460.009C348.66 460.465 347.849 460.693 346.978 460.693ZM346.978 459.064C347.541 459.064 348.064 458.91 348.546 458.602C349.029 458.294 349.411 457.865 349.692 457.315C349.974 456.752 350.114 456.116 350.114 455.405C350.114 454.695 349.974 454.065 349.692 453.515C349.411 452.966 349.029 452.537 348.546 452.229C348.064 451.92 347.541 451.766 346.978 451.766C346.415 451.766 345.892 451.92 345.41 452.229C344.927 452.537 344.539 452.966 344.244 453.515C343.962 454.065 343.821 454.695 343.821 455.405C343.821 456.116 343.962 456.752 344.244 457.315C344.539 457.865 344.921 458.294 345.39 458.602C345.872 458.91 346.402 459.064 346.978 459.064ZM358.208 460.693C357.324 460.693 356.506 460.465 355.756 460.009C355.018 459.54 354.429 458.903 353.986 458.099C353.544 457.282 353.323 456.384 353.323 455.405C353.323 454.427 353.544 453.536 353.986 452.731C354.429 451.927 355.018 451.297 355.756 450.841C356.506 450.372 357.324 450.138 358.208 450.138C358.986 450.138 359.689 450.319 360.319 450.681C360.963 451.043 361.492 451.518 361.908 452.108C362.323 452.698 362.598 453.334 362.732 454.018H361.003C360.815 453.361 360.48 452.825 359.998 452.41C359.529 451.981 358.932 451.766 358.208 451.766C357.645 451.766 357.123 451.92 356.64 452.229C356.158 452.537 355.769 452.966 355.474 453.515C355.193 454.065 355.052 454.695 355.052 455.405C355.052 456.116 355.193 456.752 355.474 457.315C355.769 457.865 356.151 458.294 356.62 458.602C357.103 458.91 357.632 459.064 358.208 459.064C358.932 459.064 359.529 458.857 359.998 458.441C360.48 458.012 360.815 457.469 361.003 456.813H362.732C362.598 457.496 362.323 458.133 361.908 458.723C361.492 459.312 360.963 459.788 360.319 460.15C359.689 460.512 358.986 460.693 358.208 460.693ZM368.172 460.472H366.423V451.987H363.266V450.359H371.328V451.987H368.172V460.472ZM379.786 454.581V450.359H381.536V460.472H379.786V456.209H374.7V460.472H372.971V450.359H374.7V454.581H379.786ZM388.522 460.693C387.638 460.693 386.82 460.465 386.07 460.009C385.332 459.54 384.743 458.903 384.3 458.099C383.858 457.282 383.637 456.384 383.637 455.405C383.637 454.427 383.858 453.536 384.3 452.731C384.743 451.927 385.332 451.297 386.07 450.841C386.82 450.372 387.638 450.138 388.522 450.138C389.394 450.138 390.205 450.372 390.955 450.841C391.706 451.297 392.302 451.927 392.744 452.731C393.187 453.536 393.408 454.427 393.408 455.405C393.408 456.384 393.187 457.282 392.744 458.099C392.302 458.903 391.706 459.54 390.955 460.009C390.205 460.465 389.394 460.693 388.522 460.693ZM388.522 459.064C389.085 459.064 389.608 458.91 390.091 458.602C390.573 458.294 390.955 457.865 391.237 457.315C391.518 456.752 391.659 456.116 391.659 455.405C391.659 454.695 391.518 454.065 391.237 453.515C390.955 452.966 390.573 452.537 390.091 452.229C389.608 451.92 389.085 451.766 388.522 451.766C387.959 451.766 387.437 451.92 386.954 452.229C386.472 452.537 386.083 452.966 385.788 453.515C385.507 454.065 385.366 454.695 385.366 455.405C385.366 456.116 385.507 456.752 385.788 457.315C386.083 457.865 386.465 458.294 386.934 458.602C387.417 458.91 387.946 459.064 388.522 459.064ZM400.838 458.18L404.377 450.359H406.106V460.472H404.397V453.857L401.301 460.472H400.296L397.2 453.857V460.472H395.491V450.359H397.28L400.838 458.18ZM415.375 450.359H417.165L412.822 461.256C412.38 462.368 411.931 463.132 411.475 463.548C411.019 463.977 410.49 464.191 409.887 464.191C409.619 464.191 409.304 464.131 408.942 464.01V462.442C409.17 462.522 409.391 462.563 409.605 462.563C409.967 462.563 410.269 462.462 410.51 462.261C410.765 462.06 410.986 461.725 411.174 461.256L411.576 460.23L407.575 450.359H409.445L412.44 458.079L415.375 450.359ZM277.988 475.244C278.417 475.419 278.786 475.714 279.094 476.129C279.416 476.545 279.577 477.061 279.577 477.677C279.577 478.213 279.429 478.716 279.134 479.185C278.839 479.641 278.404 480.009 277.827 480.291C277.265 480.559 276.594 480.693 275.817 480.693C274.624 480.693 273.679 480.385 272.982 479.768C272.299 479.138 271.91 478.347 271.816 477.396H273.525C273.565 477.918 273.773 478.341 274.148 478.662C274.524 478.984 275.066 479.145 275.777 479.145C276.46 479.145 276.976 479.011 277.325 478.743C277.687 478.461 277.868 478.079 277.868 477.597C277.868 477.114 277.693 476.725 277.345 476.431C276.996 476.136 276.501 475.988 275.857 475.988H274.711V474.581H275.797C276.387 474.581 276.836 474.454 277.144 474.199C277.466 473.944 277.626 473.616 277.626 473.214C277.626 472.785 277.452 472.423 277.104 472.128C276.769 471.833 276.313 471.686 275.737 471.686C275.133 471.686 274.658 471.84 274.309 472.148C273.974 472.443 273.773 472.832 273.706 473.314H272.017C272.098 472.403 272.466 471.646 273.123 471.043C273.793 470.439 274.698 470.138 275.837 470.138C276.534 470.138 277.144 470.279 277.667 470.56C278.203 470.828 278.612 471.197 278.893 471.666C279.188 472.121 279.335 472.617 279.335 473.154C279.335 473.69 279.201 474.125 278.933 474.46C278.665 474.795 278.35 475.057 277.988 475.244ZM285.334 470.138C286.098 470.138 286.775 470.305 287.364 470.64C287.954 470.962 288.41 471.425 288.731 472.028C289.067 472.617 289.234 473.294 289.234 474.058V480.472H287.927L287.565 479.205H287.465C287.197 479.58 286.808 479.922 286.299 480.23C285.789 480.539 285.166 480.693 284.429 480.693C283.759 480.693 283.169 480.559 282.66 480.291C282.151 480.023 281.755 479.661 281.474 479.205C281.192 478.736 281.051 478.22 281.051 477.657C281.051 477.027 281.239 476.471 281.614 475.988C282.003 475.492 282.539 475.11 283.223 474.842C283.92 474.574 284.711 474.44 285.595 474.44H287.485V473.978C287.485 473.294 287.284 472.751 286.882 472.349C286.493 471.934 285.977 471.726 285.334 471.726C284.731 471.726 284.255 471.88 283.906 472.189C283.558 472.497 283.337 472.892 283.243 473.375H281.494C281.561 472.798 281.755 472.262 282.077 471.766C282.412 471.27 282.861 470.875 283.424 470.58C283.987 470.285 284.623 470.138 285.334 470.138ZM284.711 479.165C285.541 479.165 286.212 478.924 286.721 478.441C287.23 477.945 287.485 477.329 287.485 476.591V475.827H285.716C284.778 475.827 284.054 475.982 283.544 476.29C283.035 476.598 282.78 477.027 282.78 477.577C282.78 478.059 282.948 478.448 283.283 478.743C283.618 479.024 284.094 479.165 284.711 479.165ZM291.865 484.09V470.359H293.152L293.534 471.626H293.634C293.875 471.304 294.271 470.976 294.82 470.64C295.383 470.305 296.027 470.138 296.75 470.138C297.595 470.138 298.372 470.366 299.083 470.821C299.793 471.264 300.356 471.887 300.771 472.691C301.2 473.495 301.415 474.4 301.415 475.405C301.415 476.41 301.2 477.315 300.771 478.119C300.356 478.924 299.793 479.554 299.083 480.009C298.372 480.465 297.595 480.693 296.75 480.693C296.053 480.693 295.423 480.532 294.861 480.21C294.298 479.875 293.909 479.554 293.694 479.245H293.594V484.09H291.865ZM296.65 479.064C297.199 479.064 297.702 478.91 298.158 478.602C298.627 478.294 298.995 477.865 299.263 477.315C299.545 476.752 299.686 476.116 299.686 475.405C299.686 474.695 299.545 474.065 299.263 473.515C298.995 472.966 298.627 472.537 298.158 472.229C297.702 471.92 297.199 471.766 296.65 471.766C296.1 471.766 295.591 471.92 295.122 472.229C294.653 472.537 294.278 472.966 293.996 473.515C293.728 474.065 293.594 474.695 293.594 475.405C293.594 476.116 293.728 476.752 293.996 477.315C294.278 477.865 294.653 478.294 295.122 478.602C295.591 478.91 296.1 479.064 296.65 479.064ZM307.166 470.138C307.93 470.138 308.607 470.305 309.197 470.64C309.787 470.962 310.242 471.425 310.564 472.028C310.899 472.617 311.067 473.294 311.067 474.058V480.472H309.76L309.398 479.205H309.297C309.029 479.58 308.641 479.922 308.131 480.23C307.622 480.539 306.999 480.693 306.261 480.693C305.591 480.693 305.002 480.559 304.492 480.291C303.983 480.023 303.588 479.661 303.306 479.205C303.025 478.736 302.884 478.22 302.884 477.657C302.884 477.027 303.072 476.471 303.447 475.988C303.836 475.492 304.372 475.11 305.055 474.842C305.752 474.574 306.543 474.44 307.428 474.44H309.317V473.978C309.317 473.294 309.116 472.751 308.714 472.349C308.326 471.934 307.81 471.726 307.166 471.726C306.563 471.726 306.087 471.88 305.739 472.189C305.39 472.497 305.169 472.892 305.075 473.375H303.326C303.393 472.798 303.588 472.262 303.909 471.766C304.244 471.27 304.693 470.875 305.256 470.58C305.819 470.285 306.456 470.138 307.166 470.138ZM306.543 479.165C307.374 479.165 308.044 478.924 308.553 478.441C309.063 477.945 309.317 477.329 309.317 476.591V475.827H307.548C306.61 475.827 305.886 475.982 305.377 476.29C304.868 476.598 304.613 477.027 304.613 477.577C304.613 478.059 304.78 478.448 305.116 478.743C305.451 479.024 305.926 479.165 306.543 479.165ZM318.12 480.693C317.209 480.693 316.385 480.472 315.648 480.029C314.924 479.574 314.347 478.883 313.919 477.959C313.49 477.034 313.275 475.894 313.275 474.541C313.275 472.235 313.711 470.413 314.582 469.072C315.453 467.732 316.827 466.921 318.703 466.64C320.071 466.439 321.129 466.271 321.88 466.137V467.765L319.91 468.107L318.925 468.268C317.598 468.469 316.646 468.938 316.07 469.675C315.493 470.399 315.138 471.29 315.004 472.349H315.105C315.359 471.934 315.768 471.552 316.331 471.203C316.894 470.855 317.571 470.681 318.362 470.681C319.166 470.681 319.91 470.895 320.593 471.324C321.277 471.74 321.82 472.329 322.222 473.093C322.637 473.857 322.845 474.722 322.845 475.687C322.845 476.665 322.631 477.536 322.202 478.3C321.786 479.051 321.217 479.641 320.493 480.07C319.782 480.485 318.992 480.693 318.12 480.693ZM318.12 479.064C318.67 479.064 319.173 478.93 319.628 478.662C320.084 478.381 320.446 477.985 320.714 477.476C320.982 476.967 321.116 476.37 321.116 475.687C321.116 475.003 320.982 474.407 320.714 473.897C320.446 473.375 320.084 472.979 319.628 472.711C319.173 472.43 318.67 472.289 318.12 472.289C317.571 472.289 317.062 472.43 316.592 472.711C316.137 472.979 315.775 473.375 315.507 473.897C315.239 474.407 315.105 475.003 315.105 475.687C315.105 476.37 315.239 476.967 315.507 477.476C315.775 477.985 316.137 478.381 316.592 478.662C317.062 478.93 317.571 479.064 318.12 479.064ZM329.21 480.693C328.325 480.693 327.507 480.465 326.757 480.009C326.02 479.54 325.43 478.903 324.988 478.099C324.545 477.282 324.324 476.384 324.324 475.405C324.324 474.427 324.545 473.536 324.988 472.731C325.43 471.927 326.02 471.297 326.757 470.841C327.507 470.372 328.325 470.138 329.21 470.138C330.081 470.138 330.892 470.372 331.642 470.841C332.393 471.297 332.989 471.927 333.432 472.731C333.874 473.536 334.095 474.427 334.095 475.405C334.095 476.384 333.874 477.282 333.432 478.099C332.989 478.903 332.393 479.54 331.642 480.009C330.892 480.465 330.081 480.693 329.21 480.693ZM329.21 479.064C329.773 479.064 330.295 478.91 330.778 478.602C331.26 478.294 331.642 477.865 331.924 477.315C332.205 476.752 332.346 476.116 332.346 475.405C332.346 474.695 332.205 474.065 331.924 473.515C331.642 472.966 331.26 472.537 330.778 472.229C330.295 471.92 329.773 471.766 329.21 471.766C328.647 471.766 328.124 471.92 327.641 472.229C327.159 472.537 326.77 472.966 326.475 473.515C326.194 474.065 326.053 474.695 326.053 475.405C326.053 476.116 326.194 476.752 326.475 477.315C326.77 477.865 327.152 478.294 327.621 478.602C328.104 478.91 328.633 479.064 329.21 479.064ZM339.605 480.472H337.856V471.987H334.699V470.359H342.761V471.987H339.605V480.472ZM348.043 475.204L352.647 480.472H350.436L346.133 475.445V480.472H344.404V470.359H346.133V475.124L350.134 470.359H352.205L348.043 475.204ZM360.166 470.359H361.955L357.613 481.256C357.17 482.368 356.721 483.132 356.266 483.548C355.81 483.977 355.281 484.191 354.677 484.191C354.409 484.191 354.094 484.131 353.732 484.01V482.442C353.96 482.522 354.181 482.563 354.396 482.563C354.758 482.563 355.059 482.462 355.301 482.261C355.555 482.06 355.776 481.725 355.964 481.256L356.366 480.23L352.365 470.359H354.235L357.231 478.079L360.166 470.359Z" fill="white"/>
<path d="M274.134 669.719C274.308 669.291 274.603 668.922 275.019 668.614C275.434 668.292 275.95 668.131 276.567 668.131C277.103 668.131 277.606 668.279 278.075 668.573C278.53 668.868 278.899 669.304 279.18 669.88C279.448 670.443 279.582 671.113 279.582 671.891C279.582 673.084 279.274 674.029 278.658 674.725C278.028 675.409 277.237 675.798 276.285 675.892V674.183C276.808 674.142 277.23 673.935 277.552 673.559C277.874 673.184 278.034 672.641 278.034 671.931C278.034 671.247 277.9 670.731 277.632 670.383C277.351 670.021 276.969 669.84 276.486 669.84C276.004 669.84 275.615 670.014 275.32 670.363C275.025 670.711 274.878 671.207 274.878 671.851V672.996H273.471V671.911C273.471 671.321 273.343 670.872 273.089 670.564C272.834 670.242 272.506 670.081 272.104 670.081C271.675 670.081 271.313 670.256 271.018 670.604C270.723 670.939 270.576 671.395 270.576 671.971C270.576 672.574 270.73 673.05 271.038 673.399C271.333 673.734 271.722 673.935 272.204 674.002V675.691C271.293 675.61 270.535 675.242 269.932 674.585C269.329 673.915 269.028 673.01 269.028 671.871C269.028 671.174 269.168 670.564 269.45 670.041C269.718 669.505 270.086 669.096 270.555 668.815C271.011 668.52 271.507 668.372 272.043 668.372C272.579 668.372 273.015 668.506 273.35 668.774C273.685 669.043 273.946 669.358 274.134 669.719ZM269.028 662.374C269.028 661.61 269.195 660.933 269.53 660.343C269.852 659.754 270.314 659.298 270.917 658.976C271.507 658.641 272.184 658.474 272.948 658.474H279.361V659.78L278.095 660.142V660.243C278.47 660.511 278.812 660.9 279.12 661.409C279.428 661.918 279.582 662.542 279.582 663.279C279.582 663.949 279.448 664.539 279.18 665.048C278.912 665.557 278.55 665.953 278.095 666.234C277.626 666.516 277.11 666.656 276.547 666.656C275.917 666.656 275.36 666.469 274.878 666.093C274.382 665.705 274 665.169 273.732 664.485C273.464 663.788 273.33 662.997 273.33 662.113V660.223H272.868C272.184 660.223 271.641 660.424 271.239 660.826C270.824 661.215 270.616 661.731 270.616 662.374C270.616 662.977 270.77 663.453 271.078 663.801C271.386 664.15 271.782 664.371 272.264 664.465V666.214C271.688 666.147 271.152 665.953 270.656 665.631C270.16 665.296 269.765 664.847 269.47 664.284C269.175 663.721 269.028 663.084 269.028 662.374ZM278.055 662.997C278.055 662.166 277.813 661.496 277.331 660.987C276.835 660.477 276.218 660.223 275.481 660.223H274.717V661.992C274.717 662.93 274.871 663.654 275.18 664.163C275.488 664.673 275.917 664.927 276.466 664.927C276.949 664.927 277.337 664.76 277.632 664.425C277.914 664.09 278.055 663.614 278.055 662.997ZM282.98 655.843H269.249V654.556L270.515 654.174V654.074C270.194 653.832 269.865 653.437 269.53 652.887C269.195 652.324 269.028 651.681 269.028 650.957C269.028 650.113 269.255 649.336 269.711 648.625C270.153 647.915 270.777 647.352 271.581 646.936C272.385 646.507 273.29 646.293 274.295 646.293C275.3 646.293 276.205 646.507 277.009 646.936C277.813 647.352 278.443 647.915 278.899 648.625C279.355 649.336 279.582 650.113 279.582 650.957C279.582 651.654 279.422 652.284 279.1 652.847C278.765 653.41 278.443 653.799 278.135 654.013V654.114H282.98V655.843ZM277.954 651.058C277.954 650.508 277.8 650.006 277.492 649.55C277.183 649.081 276.754 648.712 276.205 648.444C275.642 648.163 275.005 648.022 274.295 648.022C273.585 648.022 272.955 648.163 272.405 648.444C271.856 648.712 271.427 649.081 271.118 649.55C270.81 650.006 270.656 650.508 270.656 651.058C270.656 651.607 270.81 652.117 271.118 652.586C271.427 653.055 271.856 653.43 272.405 653.712C272.955 653.98 273.585 654.114 274.295 654.114C275.005 654.114 275.642 653.98 276.205 653.712C276.754 653.43 277.183 653.055 277.492 652.586C277.8 652.117 277.954 651.607 277.954 651.058ZM269.028 640.542C269.028 639.778 269.195 639.101 269.53 638.511C269.852 637.921 270.314 637.465 270.917 637.144C271.507 636.809 272.184 636.641 272.948 636.641H279.361V637.948L278.095 638.31V638.41C278.47 638.678 278.812 639.067 279.12 639.576C279.428 640.086 279.582 640.709 279.582 641.446C279.582 642.116 279.448 642.706 279.18 643.215C278.912 643.725 278.55 644.12 278.095 644.402C277.626 644.683 277.11 644.824 276.547 644.824C275.917 644.824 275.36 644.636 274.878 644.261C274.382 643.872 274 643.336 273.732 642.653C273.464 641.956 273.33 641.165 273.33 640.28V638.39H272.868C272.184 638.39 271.641 638.591 271.239 638.993C270.824 639.382 270.616 639.898 270.616 640.542C270.616 641.145 270.77 641.62 271.078 641.969C271.386 642.317 271.782 642.539 272.264 642.632V644.382C271.688 644.314 271.152 644.12 270.656 643.798C270.16 643.463 269.765 643.014 269.47 642.451C269.175 641.889 269.028 641.252 269.028 640.542ZM278.055 641.165C278.055 640.334 277.813 639.664 277.331 639.154C276.835 638.645 276.218 638.39 275.481 638.39H274.717V640.16C274.717 641.098 274.871 641.822 275.18 642.331C275.488 642.84 275.917 643.095 276.466 643.095C276.949 643.095 277.337 642.927 277.632 642.592C277.914 642.257 278.055 641.781 278.055 641.165ZM279.582 629.587C279.582 630.499 279.361 631.323 278.919 632.06C278.463 632.784 277.773 633.36 276.848 633.789C275.923 634.218 274.784 634.433 273.43 634.433C271.125 634.433 269.302 633.997 267.962 633.126C266.622 632.254 265.811 630.881 265.529 629.004C265.328 627.637 265.161 626.578 265.027 625.828H266.655L266.997 627.798L267.158 628.783C267.359 630.11 267.828 631.062 268.565 631.638C269.289 632.214 270.18 632.569 271.239 632.703V632.603C270.824 632.348 270.442 631.94 270.093 631.377C269.745 630.814 269.57 630.137 269.57 629.346C269.57 628.542 269.785 627.798 270.214 627.114C270.629 626.431 271.219 625.888 271.983 625.486C272.747 625.07 273.611 624.863 274.576 624.863C275.555 624.863 276.426 625.077 277.19 625.506C277.941 625.922 278.53 626.491 278.959 627.215C279.375 627.925 279.582 628.716 279.582 629.587ZM277.954 629.587C277.954 629.038 277.82 628.535 277.552 628.079C277.27 627.624 276.875 627.262 276.366 626.994C275.856 626.726 275.26 626.592 274.576 626.592C273.893 626.592 273.296 626.726 272.787 626.994C272.264 627.262 271.869 627.624 271.601 628.079C271.319 628.535 271.179 629.038 271.179 629.587C271.179 630.137 271.319 630.646 271.601 631.115C271.869 631.571 272.264 631.933 272.787 632.201C273.296 632.469 273.893 632.603 274.576 632.603C275.26 632.603 275.856 632.469 276.366 632.201C276.875 631.933 277.27 631.571 277.552 631.115C277.82 630.646 277.954 630.137 277.954 629.587ZM279.582 618.498C279.582 619.383 279.355 620.2 278.899 620.951C278.43 621.688 277.793 622.278 276.989 622.72C276.171 623.162 275.273 623.384 274.295 623.384C273.317 623.384 272.425 623.162 271.621 622.72C270.817 622.278 270.187 621.688 269.731 620.951C269.262 620.2 269.028 619.383 269.028 618.498C269.028 617.627 269.262 616.816 269.731 616.065C270.187 615.315 270.817 614.718 271.621 614.276C272.425 613.834 273.317 613.613 274.295 613.613C275.273 613.613 276.171 613.834 276.989 614.276C277.793 614.718 278.43 615.315 278.899 616.065C279.355 616.816 279.582 617.627 279.582 618.498ZM277.954 618.498C277.954 617.935 277.8 617.412 277.492 616.93C277.183 616.447 276.754 616.065 276.205 615.784C275.642 615.503 275.005 615.362 274.295 615.362C273.585 615.362 272.955 615.503 272.405 615.784C271.856 616.065 271.427 616.447 271.118 616.93C270.81 617.412 270.656 617.935 270.656 618.498C270.656 619.061 270.81 619.584 271.118 620.066C271.427 620.549 271.856 620.937 272.405 621.232C272.955 621.514 273.585 621.655 274.295 621.655C275.005 621.655 275.642 621.514 276.205 621.232C276.754 620.937 277.183 620.555 277.492 620.086C277.8 619.604 277.954 619.074 277.954 618.498ZM279.361 608.103V609.852H270.877V613.008H269.249V604.946H270.877V608.103H279.361ZM269.028 600.057C269.028 599.293 269.195 598.616 269.53 598.027C269.852 597.437 270.314 596.981 270.917 596.66C271.507 596.324 272.184 596.157 272.948 596.157H279.361V597.464L278.095 597.826V597.926C278.47 598.194 278.812 598.583 279.12 599.092C279.428 599.602 279.582 600.225 279.582 600.962C279.582 601.632 279.448 602.222 279.18 602.731C278.912 603.24 278.55 603.636 278.095 603.917C277.626 604.199 277.11 604.34 276.547 604.34C275.917 604.34 275.36 604.152 274.878 603.777C274.382 603.388 274 602.852 273.732 602.168C273.464 601.471 273.33 600.68 273.33 599.796V597.906H272.868C272.184 597.906 271.641 598.107 271.239 598.509C270.824 598.898 270.616 599.414 270.616 600.057C270.616 600.66 270.77 601.136 271.078 601.485C271.386 601.833 271.782 602.054 272.264 602.148V603.897C271.688 603.83 271.152 603.636 270.656 603.314C270.16 602.979 269.765 602.53 269.47 601.967C269.175 601.404 269.028 600.768 269.028 600.057ZM278.055 600.68C278.055 599.849 277.813 599.179 277.331 598.67C276.835 598.161 276.218 597.906 275.481 597.906H274.717V599.675C274.717 600.613 274.871 601.337 275.18 601.847C275.488 602.356 275.917 602.611 276.466 602.611C276.949 602.611 277.337 602.443 277.632 602.108C277.914 601.773 278.055 601.297 278.055 600.68ZM276.667 591.817L269.249 586.409V584.881H279.361V586.59H271.943L279.361 591.998V593.526H269.249V591.817H276.667ZM267.922 589.083C267.922 589.941 267.674 590.631 267.178 591.154C266.682 591.663 266.059 591.944 265.308 591.998V590.651C265.737 590.611 266.079 590.463 266.333 590.209C266.575 589.941 266.695 589.565 266.695 589.083C266.695 588.614 266.575 588.252 266.333 587.997C266.079 587.729 265.737 587.568 265.308 587.515V586.188C266.045 586.228 266.669 586.509 267.178 587.032C267.674 587.555 267.922 588.238 267.922 589.083ZM293.471 668.111H289.249V666.362H299.361V668.111H295.099V673.198H299.361V674.927H289.249V673.198H293.471V668.111ZM294.054 654.731C294.509 654.731 294.844 654.758 295.059 654.811V662.491C295.97 662.357 296.687 662.009 297.21 661.446C297.733 660.883 297.994 660.186 297.994 659.355C297.994 658.256 297.545 657.425 296.647 656.862V655.073C297.465 655.394 298.162 655.944 298.738 656.721C299.301 657.499 299.582 658.383 299.582 659.375C299.582 660.273 299.355 661.097 298.899 661.848C298.443 662.599 297.813 663.188 297.009 663.617C296.205 664.046 295.3 664.261 294.295 664.261C293.317 664.261 292.425 664.039 291.621 663.597C290.817 663.155 290.187 662.565 289.731 661.828C289.262 661.077 289.028 660.266 289.028 659.395C289.028 658.524 289.249 657.733 289.691 657.023C290.133 656.312 290.736 655.756 291.5 655.354C292.264 654.939 293.115 654.731 294.054 654.731ZM290.616 659.395C290.616 660.173 290.897 660.856 291.46 661.446C292.01 662.022 292.733 662.377 293.631 662.511V656.42C292.747 656.527 292.023 656.855 291.46 657.405C290.897 657.941 290.616 658.604 290.616 659.395ZM293.471 640.938H289.249V639.189H299.361V640.938H295.099V646.025H299.361V647.754H289.249V646.025H293.471V640.938ZM289.028 632.826C289.028 632.062 289.195 631.385 289.53 630.795C289.852 630.205 290.314 629.75 290.917 629.428C291.507 629.093 292.184 628.925 292.948 628.925H299.361V630.232L298.095 630.594V630.694C298.47 630.963 298.812 631.351 299.12 631.861C299.428 632.37 299.582 632.993 299.582 633.73C299.582 634.4 299.448 634.99 299.18 635.499C298.912 636.009 298.55 636.404 298.095 636.686C297.626 636.967 297.11 637.108 296.547 637.108C295.917 637.108 295.36 636.92 294.878 636.545C294.382 636.156 294 635.62 293.732 634.937C293.464 634.24 293.33 633.449 293.33 632.564V630.674H292.868C292.184 630.674 291.641 630.875 291.239 631.277C290.824 631.666 290.616 632.182 290.616 632.826C290.616 633.429 290.77 633.904 291.078 634.253C291.386 634.601 291.782 634.823 292.264 634.916V636.666C291.688 636.599 291.152 636.404 290.656 636.083C290.16 635.747 289.765 635.298 289.47 634.735C289.175 634.173 289.028 633.536 289.028 632.826ZM298.055 633.449C298.055 632.618 297.813 631.948 297.331 631.438C296.835 630.929 296.218 630.674 295.481 630.674H294.717V632.444C294.717 633.382 294.871 634.106 295.18 634.615C295.488 635.124 295.917 635.379 296.466 635.379C296.949 635.379 297.337 635.211 297.632 634.876C297.914 634.541 298.055 634.065 298.055 633.449ZM299.361 624.565V626.294H289.249V617.911H299.361V619.64H290.877V624.565H299.361ZM302.98 615.182H289.249V613.895L290.515 613.513V613.413C290.194 613.171 289.865 612.776 289.53 612.226C289.195 611.663 289.028 611.02 289.028 610.296C289.028 609.452 289.255 608.675 289.711 607.964C290.153 607.254 290.777 606.691 291.581 606.275C292.385 605.846 293.29 605.632 294.295 605.632C295.3 605.632 296.205 605.846 297.009 606.275C297.813 606.691 298.443 607.254 298.899 607.964C299.355 608.675 299.582 609.452 299.582 610.296C299.582 610.993 299.422 611.623 299.1 612.186C298.765 612.749 298.443 613.138 298.135 613.352V613.453H302.98V615.182ZM297.954 610.397C297.954 609.847 297.8 609.345 297.492 608.889C297.183 608.42 296.754 608.051 296.205 607.783C295.642 607.502 295.005 607.361 294.295 607.361C293.585 607.361 292.955 607.502 292.405 607.783C291.856 608.051 291.427 608.42 291.118 608.889C290.81 609.345 290.656 609.847 290.656 610.397C290.656 610.946 290.81 611.456 291.118 611.925C291.427 612.394 291.856 612.769 292.405 613.051C292.955 613.319 293.585 613.453 294.295 613.453C295.005 613.453 295.642 613.319 296.205 613.051C296.754 612.769 297.183 612.394 297.492 611.925C297.8 611.456 297.954 610.946 297.954 610.397ZM289.249 596.302H299.361V598.031H295.742V600.162L299.361 602.374V604.384L295.481 601.891C295.24 602.534 294.851 603.05 294.315 603.439C293.779 603.814 293.169 604.002 292.486 604.002C291.882 604.002 291.333 603.855 290.837 603.56C290.341 603.251 289.952 602.836 289.671 602.313C289.389 601.777 289.249 601.174 289.249 600.504V596.302ZM290.777 600.383C290.777 600.933 290.937 601.388 291.259 601.75C291.581 602.099 291.99 602.273 292.486 602.273C293.008 602.273 293.424 602.105 293.732 601.77C294.04 601.422 294.194 600.959 294.194 600.383V598.011H290.777V600.383ZM299.361 591.836V593.565H289.249V586.911H290.877V591.836H299.361ZM289.028 582.093C289.028 581.329 289.195 580.652 289.53 580.062C289.852 579.472 290.314 579.017 290.917 578.695C291.507 578.36 292.184 578.192 292.948 578.192H299.361V579.499L298.095 579.861V579.961C298.47 580.23 298.812 580.618 299.12 581.128C299.428 581.637 299.582 582.26 299.582 582.997C299.582 583.667 299.448 584.257 299.18 584.766C298.912 585.276 298.55 585.671 298.095 585.953C297.626 586.234 297.11 586.375 296.547 586.375C295.917 586.375 295.36 586.187 294.878 585.812C294.382 585.423 294 584.887 293.732 584.204C293.464 583.507 293.33 582.716 293.33 581.831V579.941H292.868C292.184 579.941 291.641 580.142 291.239 580.544C290.824 580.933 290.616 581.449 290.616 582.093C290.616 582.696 290.77 583.172 291.078 583.52C291.386 583.868 291.782 584.09 292.264 584.183V585.933C291.688 585.866 291.152 585.671 290.656 585.35C290.16 585.014 289.765 584.565 289.47 584.003C289.175 583.44 289.028 582.803 289.028 582.093ZM298.055 582.716C298.055 581.885 297.813 581.215 297.331 580.705C296.835 580.196 296.218 579.941 295.481 579.941H294.717V581.711C294.717 582.649 294.871 583.373 295.18 583.882C295.488 584.391 295.917 584.646 296.466 584.646C296.949 584.646 297.337 584.478 297.632 584.143C297.914 583.808 298.055 583.332 298.055 582.716ZM289.249 568.344H299.361V570.073H295.742V572.204L299.361 574.415V576.426L295.481 573.933C295.24 574.576 294.851 575.092 294.315 575.481C293.779 575.856 293.169 576.044 292.486 576.044C291.882 576.044 291.333 575.896 290.837 575.602C290.341 575.293 289.952 574.878 289.671 574.355C289.389 573.819 289.249 573.216 289.249 572.546V568.344ZM290.777 572.425C290.777 572.975 290.937 573.43 291.259 573.792C291.581 574.141 291.99 574.315 292.486 574.315C293.008 574.315 293.424 574.147 293.732 573.812C294.04 573.464 294.194 573.001 294.194 572.425V570.053H290.777V572.425ZM299.582 561.345C299.582 562.23 299.355 563.047 298.899 563.798C298.43 564.535 297.793 565.125 296.989 565.567C296.171 566.009 295.273 566.23 294.295 566.23C293.317 566.23 292.425 566.009 291.621 565.567C290.817 565.125 290.187 564.535 289.731 563.798C289.262 563.047 289.028 562.23 289.028 561.345C289.028 560.568 289.208 559.864 289.57 559.234C289.932 558.591 290.408 558.061 290.998 557.646C291.588 557.23 292.224 556.955 292.908 556.821V558.55C292.251 558.738 291.715 559.073 291.299 559.556C290.87 560.025 290.656 560.621 290.656 561.345C290.656 561.908 290.81 562.431 291.118 562.913C291.427 563.396 291.856 563.784 292.405 564.079C292.955 564.361 293.585 564.501 294.295 564.501C295.005 564.501 295.642 564.361 296.205 564.079C296.754 563.784 297.183 563.402 297.492 562.933C297.8 562.451 297.954 561.921 297.954 561.345C297.954 560.621 297.746 560.025 297.331 559.556C296.902 559.073 296.359 558.738 295.702 558.55V556.821C296.386 556.955 297.022 557.23 297.612 557.646C298.202 558.061 298.678 558.591 299.04 559.234C299.402 559.864 299.582 560.568 299.582 561.345ZM292.767 550.667C292.767 549.622 293.075 548.777 293.692 548.134C294.295 547.491 295.086 547.169 296.064 547.169C297.043 547.169 297.84 547.491 298.457 548.134C299.06 548.777 299.361 549.622 299.361 550.667V554.809H289.249V553.08H292.767V550.667ZM297.813 550.828C297.813 550.225 297.659 549.756 297.351 549.421C297.043 549.072 296.614 548.898 296.064 548.898C295.515 548.898 295.086 549.072 294.777 549.421C294.456 549.756 294.295 550.225 294.295 550.828V553.08H297.813V550.828Z" fill="url(#paint1_linear_235_533)"/>
<path d="M172.761 255.428H174.329V259.59H172.62V257.016H165.201V259.59H163.492V255.428H164.317C164.973 254.945 165.335 254.222 165.402 253.257L165.945 246.904H172.761V255.428ZM171.052 255.428V248.492H167.533L167.111 253.257C167.017 254.262 166.743 254.986 166.287 255.428H171.052ZM184.993 251.709C184.993 252.164 184.966 252.499 184.912 252.714H177.232C177.366 253.625 177.715 254.342 178.278 254.865C178.841 255.388 179.538 255.649 180.369 255.649C181.468 255.649 182.299 255.2 182.862 254.302H184.651C184.329 255.12 183.78 255.817 183.003 256.393C182.225 256.956 181.341 257.237 180.349 257.237C179.451 257.237 178.626 257.009 177.876 256.554C177.125 256.098 176.535 255.468 176.107 254.664C175.678 253.86 175.463 252.955 175.463 251.95C175.463 250.971 175.684 250.08 176.127 249.276C176.569 248.472 177.159 247.842 177.896 247.386C178.646 246.917 179.457 246.682 180.329 246.682C181.2 246.682 181.991 246.904 182.701 247.346C183.411 247.788 183.968 248.391 184.37 249.155C184.785 249.919 184.993 250.77 184.993 251.709ZM180.329 248.271C179.551 248.271 178.868 248.552 178.278 249.115C177.702 249.665 177.346 250.388 177.212 251.286H183.304C183.197 250.402 182.868 249.678 182.319 249.115C181.783 248.552 181.119 248.271 180.329 248.271ZM190.74 251.749L195.344 257.016H193.132L188.83 251.99V257.016H187.101V246.904H188.83V251.668L192.831 246.904H194.902L190.74 251.749ZM199.968 246.682C200.732 246.682 201.408 246.85 201.998 247.185C202.588 247.507 203.044 247.969 203.365 248.572C203.7 249.162 203.868 249.839 203.868 250.603V257.016H202.561L202.199 255.75H202.099C201.831 256.125 201.442 256.467 200.933 256.775C200.423 257.083 199.8 257.237 199.063 257.237C198.393 257.237 197.803 257.103 197.294 256.835C196.784 256.567 196.389 256.205 196.107 255.75C195.826 255.28 195.685 254.764 195.685 254.202C195.685 253.572 195.873 253.015 196.248 252.533C196.637 252.037 197.173 251.655 197.857 251.387C198.554 251.119 199.344 250.985 200.229 250.985H202.119V250.522C202.119 249.839 201.918 249.296 201.516 248.894C201.127 248.478 200.611 248.271 199.968 248.271C199.364 248.271 198.889 248.425 198.54 248.733C198.192 249.041 197.971 249.437 197.877 249.919H196.128C196.195 249.343 196.389 248.807 196.711 248.311C197.046 247.815 197.495 247.42 198.058 247.125C198.621 246.83 199.257 246.682 199.968 246.682ZM199.344 255.709C200.175 255.709 200.845 255.468 201.355 254.986C201.864 254.49 202.119 253.873 202.119 253.136V252.372H200.35C199.411 252.372 198.688 252.526 198.178 252.834C197.669 253.143 197.414 253.572 197.414 254.121C197.414 254.604 197.582 254.992 197.917 255.287C198.252 255.569 198.728 255.709 199.344 255.709ZM210.922 257.237C210.01 257.237 209.186 257.016 208.449 256.574C207.725 256.118 207.149 255.428 206.72 254.503C206.291 253.578 206.077 252.439 206.077 251.085C206.077 248.78 206.512 246.957 207.383 245.617C208.255 244.276 209.628 243.466 211.505 243.184C212.872 242.983 213.931 242.816 214.681 242.682V244.31L212.711 244.652L211.726 244.813C210.399 245.014 209.447 245.483 208.871 246.22C208.295 246.944 207.94 247.835 207.806 248.894H207.906C208.161 248.478 208.57 248.096 209.133 247.748C209.695 247.399 210.372 247.225 211.163 247.225C211.967 247.225 212.711 247.44 213.395 247.869C214.078 248.284 214.621 248.874 215.023 249.638C215.439 250.402 215.646 251.266 215.646 252.231C215.646 253.21 215.432 254.081 215.003 254.845C214.588 255.595 214.018 256.185 213.294 256.614C212.584 257.03 211.793 257.237 210.922 257.237ZM210.922 255.609C211.471 255.609 211.974 255.475 212.43 255.207C212.885 254.925 213.247 254.53 213.515 254.021C213.783 253.511 213.917 252.915 213.917 252.231C213.917 251.548 213.783 250.951 213.515 250.442C213.247 249.919 212.885 249.524 212.43 249.256C211.974 248.974 211.471 248.834 210.922 248.834C210.372 248.834 209.863 248.974 209.394 249.256C208.938 249.524 208.576 249.919 208.308 250.442C208.04 250.951 207.906 251.548 207.906 252.231C207.906 252.915 208.04 253.511 208.308 254.021C208.576 254.53 208.938 254.925 209.394 255.207C209.863 255.475 210.372 255.609 210.922 255.609ZM217.749 260.635V246.904H219.035L219.417 248.17H219.518C219.759 247.848 220.155 247.52 220.704 247.185C221.267 246.85 221.91 246.682 222.634 246.682C223.479 246.682 224.256 246.91 224.966 247.366C225.677 247.808 226.24 248.431 226.655 249.236C227.084 250.04 227.299 250.945 227.299 251.95C227.299 252.955 227.084 253.86 226.655 254.664C226.24 255.468 225.677 256.098 224.966 256.554C224.256 257.009 223.479 257.237 222.634 257.237C221.937 257.237 221.307 257.076 220.744 256.755C220.181 256.42 219.793 256.098 219.578 255.79H219.478V260.635H217.749ZM222.534 255.609C223.083 255.609 223.586 255.455 224.042 255.146C224.511 254.838 224.879 254.409 225.147 253.86C225.429 253.297 225.57 252.66 225.57 251.95C225.57 251.239 225.429 250.609 225.147 250.06C224.879 249.51 224.511 249.082 224.042 248.773C223.586 248.465 223.083 248.311 222.534 248.311C221.984 248.311 221.475 248.465 221.006 248.773C220.537 249.082 220.161 249.51 219.88 250.06C219.612 250.609 219.478 251.239 219.478 251.95C219.478 252.66 219.612 253.297 219.88 253.86C220.161 254.409 220.537 254.838 221.006 255.146C221.475 255.455 221.984 255.609 222.534 255.609ZM233.553 250.422C234.598 250.422 235.443 250.73 236.086 251.347C236.729 251.95 237.051 252.741 237.051 253.719C237.051 254.697 236.729 255.495 236.086 256.111C235.443 256.715 234.598 257.016 233.553 257.016H229.411V246.904H231.14V250.422H233.553ZM233.392 255.468C233.995 255.468 234.464 255.314 234.799 255.006C235.148 254.697 235.322 254.269 235.322 253.719C235.322 253.169 235.148 252.741 234.799 252.432C234.464 252.111 233.995 251.95 233.392 251.95H231.14V255.468H233.392ZM163.774 266.396L167.232 263.943H168.599V278.016H166.749V266.275L164.638 267.783L163.774 266.396ZM176.354 278.237C175.389 278.237 174.504 277.963 173.7 277.413C172.909 276.85 172.279 276.026 171.81 274.94C171.341 273.841 171.106 272.521 171.106 270.98C171.106 269.438 171.341 268.125 171.81 267.039C172.279 265.94 172.909 265.116 173.7 264.566C174.504 264.003 175.389 263.722 176.354 263.722C177.319 263.722 178.197 264.003 178.988 264.566C179.792 265.116 180.428 265.94 180.897 267.039C181.38 268.125 181.621 269.438 181.621 270.98C181.621 272.521 181.38 273.841 180.897 274.94C180.428 276.026 179.792 276.85 178.988 277.413C178.197 277.963 177.319 278.237 176.354 278.237ZM176.354 276.488C176.984 276.488 177.553 276.294 178.063 275.905C178.585 275.516 179.001 274.907 179.309 274.076C179.617 273.245 179.772 272.213 179.772 270.98C179.772 269.746 179.617 268.714 179.309 267.883C179.001 267.052 178.585 266.443 178.063 266.054C177.553 265.665 176.984 265.471 176.354 265.471C175.724 265.471 175.154 265.672 174.645 266.074C174.136 266.463 173.727 267.073 173.419 267.904C173.11 268.721 172.956 269.746 172.956 270.98C172.956 272.213 173.11 273.245 173.419 274.076C173.727 274.893 174.136 275.503 174.645 275.905C175.154 276.294 175.724 276.488 176.354 276.488ZM202.403 273.432H188.128V271.864H202.403V273.432ZM215.616 270.738C216.313 271.02 216.896 271.442 217.365 272.005C217.848 272.568 218.089 273.305 218.089 274.216C218.089 274.927 217.888 275.59 217.486 276.207C217.097 276.823 216.541 277.319 215.817 277.694C215.107 278.056 214.302 278.237 213.404 278.237C212.48 278.237 211.669 278.056 210.972 277.694C210.275 277.333 209.725 276.85 209.323 276.247C208.921 275.644 208.673 274.994 208.579 274.297H210.429C210.483 274.659 210.637 275.014 210.891 275.362C211.146 275.697 211.488 275.979 211.917 276.207C212.346 276.421 212.842 276.528 213.404 276.528C214.262 276.528 214.946 276.307 215.455 275.865C215.978 275.409 216.239 274.826 216.239 274.116C216.239 273.392 215.978 272.802 215.455 272.347C214.932 271.891 214.222 271.663 213.324 271.663H212.439V270.055H213.223C214.041 270.055 214.691 269.847 215.174 269.431C215.67 269.016 215.918 268.473 215.918 267.803C215.918 267.106 215.676 266.536 215.194 266.094C214.725 265.652 214.101 265.431 213.324 265.431C212.6 265.431 211.99 265.652 211.494 266.094C211.012 266.523 210.744 267.026 210.69 267.602H208.841C208.894 266.918 209.115 266.282 209.504 265.692C209.906 265.089 210.436 264.613 211.092 264.265C211.749 263.903 212.486 263.722 213.304 263.722C214.162 263.722 214.932 263.903 215.616 264.265C216.3 264.626 216.829 265.116 217.204 265.732C217.58 266.335 217.767 266.992 217.767 267.702C217.767 268.413 217.559 269.023 217.144 269.532C216.728 270.028 216.219 270.43 215.616 270.738ZM224.986 278.237C224.021 278.237 223.136 277.963 222.332 277.413C221.541 276.85 220.911 276.026 220.442 274.94C219.973 273.841 219.739 272.521 219.739 270.98C219.739 269.438 219.973 268.125 220.442 267.039C220.911 265.94 221.541 265.116 222.332 264.566C223.136 264.003 224.021 263.722 224.986 263.722C225.951 263.722 226.829 264.003 227.62 264.566C228.424 265.116 229.061 265.94 229.53 267.039C230.012 268.125 230.253 269.438 230.253 270.98C230.253 272.521 230.012 273.841 229.53 274.94C229.061 276.026 228.424 276.85 227.62 277.413C226.829 277.963 225.951 278.237 224.986 278.237ZM224.986 276.488C225.616 276.488 226.186 276.294 226.695 275.905C227.218 275.516 227.633 274.907 227.941 274.076C228.25 273.245 228.404 272.213 228.404 270.98C228.404 269.746 228.25 268.714 227.941 267.883C227.633 267.052 227.218 266.443 226.695 266.054C226.186 265.665 225.616 265.471 224.986 265.471C224.356 265.471 223.786 265.672 223.277 266.074C222.768 266.463 222.359 267.073 222.051 267.904C221.742 268.721 221.588 269.746 221.588 270.98C221.588 272.213 221.742 273.245 222.051 274.076C222.359 274.893 222.768 275.503 223.277 275.905C223.786 276.294 224.356 276.488 224.986 276.488ZM166.769 297.267H173.143V299.016H164.116V297.549L169.303 292.261C169.986 291.564 170.489 290.968 170.81 290.472C171.132 289.976 171.293 289.42 171.293 288.803C171.293 288.106 171.045 287.536 170.549 287.094C170.067 286.652 169.416 286.431 168.599 286.431C167.768 286.431 167.091 286.679 166.568 287.174C166.059 287.657 165.791 288.287 165.764 289.064H163.955C163.968 288.26 164.176 287.53 164.578 286.873C164.98 286.203 165.53 285.68 166.227 285.305C166.923 284.916 167.714 284.722 168.599 284.722C169.497 284.722 170.288 284.903 170.971 285.265C171.668 285.613 172.204 286.096 172.58 286.712C172.955 287.329 173.143 288.012 173.143 288.763C173.143 289.58 172.921 290.344 172.479 291.055C172.05 291.765 171.427 292.536 170.609 293.367L166.769 297.267ZM181.951 294.352H183.499V296.061H181.951V299.016H180.142V296.061H173.708V294.493L179.76 284.943H181.951V294.352ZM180.142 294.352V287.456L175.779 294.352H180.142ZM185.91 303.037H184.242L190.032 284.943H191.7L185.91 303.037ZM192.185 286.692V284.943H201.071V286.35L195.703 299.016H193.713L198.96 286.692H192.185Z" fill="white"/>
<path d="M219.268 210.669C219.268 210.91 219.228 211.164 219.147 211.433H217.599V211.071C217.599 210.548 217.438 210.146 217.117 209.864C216.782 209.569 216.239 209.395 215.488 209.342L208.934 208.799V201.863H219.047V203.612H210.563V207.231L215.73 207.653C216.909 207.747 217.794 208.062 218.383 208.598C218.973 209.12 219.268 209.811 219.268 210.669ZM216.353 197.419L208.934 192.011V190.483H219.047V192.192H211.628L219.047 197.6V199.128H208.934V197.419H216.353ZM217.459 179.699V178.131H221.62V179.84H219.047V187.258H221.62V188.967H217.459V188.143C216.976 187.486 216.252 187.124 215.287 187.057L208.934 186.514V179.699H217.459ZM217.459 181.408H210.522V184.926L215.287 185.348C216.293 185.442 217.016 185.717 217.459 186.173L217.459 181.408ZM213.739 167.466C214.195 167.466 214.53 167.493 214.744 167.547V175.227C215.656 175.093 216.373 174.744 216.896 174.181C217.418 173.619 217.68 172.922 217.68 172.091C217.68 170.992 217.231 170.161 216.333 169.598V167.808C217.15 168.13 217.847 168.679 218.424 169.457C218.987 170.234 219.268 171.119 219.268 172.111C219.268 173.009 219.04 173.833 218.584 174.584C218.129 175.334 217.499 175.924 216.695 176.353C215.89 176.782 214.986 176.996 213.98 176.996C213.002 176.996 212.111 176.775 211.307 176.333C210.502 175.89 209.872 175.301 209.417 174.563C208.948 173.813 208.713 173.002 208.713 172.131C208.713 171.26 208.934 170.469 209.377 169.758C209.819 169.048 210.422 168.492 211.186 168.09C211.95 167.674 212.801 167.466 213.739 167.466ZM210.301 172.131C210.301 172.908 210.583 173.592 211.146 174.181C211.695 174.758 212.419 175.113 213.317 175.247V169.155C212.432 169.263 211.709 169.591 211.146 170.14C210.583 170.677 210.301 171.34 210.301 172.131ZM222.666 165.358H208.934V164.072L210.201 163.69V163.589C209.879 163.348 209.551 162.953 209.216 162.403C208.881 161.84 208.713 161.197 208.713 160.473C208.713 159.629 208.941 158.851 209.397 158.141C209.839 157.431 210.462 156.868 211.266 156.452C212.071 156.023 212.975 155.809 213.98 155.809C214.986 155.809 215.89 156.023 216.695 156.452C217.499 156.868 218.129 157.431 218.584 158.141C219.04 158.851 219.268 159.629 219.268 160.473C219.268 161.17 219.107 161.8 218.786 162.363C218.45 162.926 218.129 163.314 217.82 163.529V163.629H222.666V165.358ZM217.64 160.574C217.64 160.024 217.485 159.521 217.177 159.066C216.869 158.597 216.44 158.228 215.89 157.96C215.328 157.678 214.691 157.538 213.98 157.538C213.27 157.538 212.64 157.678 212.091 157.96C211.541 158.228 211.112 158.597 210.804 159.066C210.496 159.521 210.342 160.024 210.342 160.574C210.342 161.123 210.496 161.632 210.804 162.102C211.112 162.571 211.541 162.946 212.091 163.227C212.64 163.495 213.27 163.629 213.98 163.629C214.691 163.629 215.328 163.495 215.89 163.227C216.44 162.946 216.869 162.571 217.177 162.102C217.485 161.632 217.64 161.123 217.64 160.574ZM213.719 142.715C213.893 142.246 214.188 141.851 214.604 141.529C215.019 141.194 215.549 141.026 216.192 141.026C217.023 141.026 217.707 141.315 218.243 141.891C218.779 142.467 219.047 143.204 219.047 144.102V148.827H208.934V144.484C208.934 143.895 209.055 143.372 209.296 142.916C209.537 142.447 209.866 142.085 210.281 141.831C210.683 141.563 211.132 141.429 211.628 141.429C212.124 141.429 212.553 141.556 212.915 141.811C213.277 142.065 213.545 142.367 213.719 142.715ZM210.402 147.118H213.176V144.726C213.176 144.23 213.049 143.841 212.794 143.56C212.54 143.265 212.198 143.117 211.769 143.117C211.353 143.117 211.025 143.265 210.784 143.56C210.529 143.841 210.402 144.23 210.402 144.726V147.118ZM217.579 144.324C217.579 143.854 217.438 143.473 217.157 143.178C216.862 142.869 216.494 142.715 216.051 142.715C215.622 142.715 215.267 142.869 214.986 143.178C214.691 143.486 214.543 143.868 214.543 144.324V147.118H217.579V144.324ZM219.268 134.65C219.268 135.535 219.04 136.352 218.584 137.103C218.115 137.84 217.479 138.43 216.675 138.872C215.857 139.314 214.959 139.535 213.98 139.535C213.002 139.535 212.111 139.314 211.307 138.872C210.502 138.43 209.872 137.84 209.417 137.103C208.948 136.352 208.713 135.535 208.713 134.65C208.713 133.873 208.894 133.169 209.256 132.539C209.618 131.896 210.094 131.366 210.683 130.951C211.273 130.535 211.91 130.26 212.593 130.126V131.855C211.937 132.043 211.4 132.378 210.985 132.861C210.556 133.33 210.342 133.926 210.342 134.65C210.342 135.213 210.496 135.736 210.804 136.218C211.112 136.701 211.541 137.089 212.091 137.384C212.64 137.666 213.27 137.806 213.98 137.806C214.691 137.806 215.328 137.666 215.89 137.384C216.44 137.089 216.869 136.707 217.177 136.238C217.485 135.756 217.64 135.226 217.64 134.65C217.64 133.926 217.432 133.33 217.016 132.861C216.587 132.378 216.045 132.043 215.388 131.855V130.126C216.071 130.26 216.708 130.535 217.298 130.951C217.888 131.366 218.363 131.896 218.725 132.539C219.087 133.169 219.268 133.873 219.268 134.65ZM213.739 119.207C214.195 119.207 214.53 119.234 214.744 119.288V126.968C215.656 126.834 216.373 126.485 216.896 125.922C217.418 125.359 217.68 124.662 217.68 123.831C217.68 122.732 217.231 121.901 216.333 121.338V119.549C217.15 119.871 217.847 120.42 218.424 121.198C218.987 121.975 219.268 122.86 219.268 123.852C219.268 124.75 219.04 125.574 218.584 126.324C218.129 127.075 217.499 127.665 216.695 128.094C215.89 128.523 214.986 128.737 213.98 128.737C213.002 128.737 212.111 128.516 211.307 128.074C210.502 127.631 209.872 127.041 209.417 126.304C208.948 125.554 208.713 124.743 208.713 123.872C208.713 123 208.934 122.21 209.377 121.499C209.819 120.789 210.422 120.233 211.186 119.831C211.95 119.415 212.801 119.207 213.739 119.207ZM210.301 123.872C210.301 124.649 210.583 125.333 211.146 125.922C211.695 126.499 212.419 126.854 213.317 126.988V120.896C212.432 121.003 211.709 121.332 211.146 121.881C210.583 122.417 210.301 123.081 210.301 123.872ZM219.047 115.37V117.099H208.934V110.445H210.563V115.37H219.047ZM217.459 101.44V99.8715H221.62V101.58H219.047V108.999H221.62V110.708H217.459V109.884C216.976 109.227 216.252 108.865 215.287 108.798L208.934 108.255V101.44H217.459ZM217.459 103.149H210.522V106.667L215.287 107.089C216.293 107.183 217.016 107.458 217.459 107.913V103.149ZM208.713 94.6711C208.713 93.9071 208.881 93.2303 209.216 92.6405C209.537 92.0508 210 91.5951 210.603 91.2734C211.193 90.9383 211.869 90.7708 212.633 90.7708H219.047V92.0776L217.78 92.4395V92.54C218.156 92.8081 218.497 93.1968 218.806 93.7061C219.114 94.2154 219.268 94.8386 219.268 95.5758C219.268 96.246 219.134 96.8357 218.866 97.345C218.598 97.8543 218.236 98.2497 217.78 98.5312C217.311 98.8127 216.795 98.9534 216.232 98.9534C215.602 98.9534 215.046 98.7658 214.564 98.3905C214.068 98.0018 213.686 97.4657 213.418 96.7821C213.149 96.0851 213.015 95.2943 213.015 94.4097V92.5199H212.553C211.869 92.5199 211.327 92.7209 210.925 93.123C210.509 93.5117 210.301 94.0277 210.301 94.6711C210.301 95.2742 210.455 95.75 210.764 96.0985C211.072 96.447 211.467 96.6682 211.95 96.762V98.5111C211.374 98.4441 210.837 98.2497 210.342 97.9281C209.846 97.593 209.45 97.144 209.155 96.581C208.86 96.0181 208.713 95.3815 208.713 94.6711ZM217.74 95.2943C217.74 94.4633 217.499 93.7932 217.016 93.2839C216.52 92.7746 215.904 92.5199 215.167 92.5199H214.403V94.2891C214.403 95.2273 214.557 95.9511 214.865 96.4604C215.173 96.9697 215.602 97.2244 216.152 97.2244C216.634 97.2244 217.023 97.0569 217.318 96.7218C217.599 96.3867 217.74 95.9109 217.74 95.2943ZM239.268 205.743C239.268 206.627 239.04 207.445 238.584 208.196C238.115 208.933 237.479 209.523 236.675 209.965C235.857 210.407 234.959 210.628 233.98 210.628C233.002 210.628 232.111 210.407 231.307 209.965C230.502 209.523 229.872 208.933 229.417 208.196C228.948 207.445 228.713 206.627 228.713 205.743C228.713 204.872 228.948 204.061 229.417 203.31C229.872 202.56 230.502 201.963 231.307 201.521C232.111 201.079 233.002 200.857 233.98 200.857C234.959 200.857 235.857 201.079 236.675 201.521C237.479 201.963 238.115 202.56 238.584 203.31C239.04 204.061 239.268 204.872 239.268 205.743ZM237.64 205.743C237.64 205.18 237.485 204.657 237.177 204.175C236.869 203.692 236.44 203.31 235.89 203.029C235.328 202.747 234.691 202.607 233.98 202.607C233.27 202.607 232.64 202.747 232.091 203.029C231.541 203.31 231.112 203.692 230.804 204.175C230.496 204.657 230.342 205.18 230.342 205.743C230.342 206.306 230.496 206.829 230.804 207.311C231.112 207.794 231.541 208.182 232.091 208.477C232.64 208.759 233.27 208.899 233.98 208.899C234.691 208.899 235.328 208.759 235.89 208.477C236.44 208.182 236.869 207.8 237.177 207.331C237.485 206.849 237.64 206.319 237.64 205.743ZM237.459 191.125V189.557H241.62V191.266H239.047V198.685H241.62V200.394H237.459V199.569C236.976 198.913 236.252 198.551 235.287 198.484L228.934 197.941V191.125H237.459ZM237.459 192.834H230.522V196.353L235.287 196.775C236.293 196.869 237.016 197.144 237.459 197.599V192.834ZM236.353 186.091L228.934 180.683V179.155H239.047V180.863H231.628L239.047 186.272V187.8H228.934V186.091H236.353ZM233.156 169.597H228.934V167.848H239.047V169.597H234.785V174.683H239.047V176.412H228.934V174.683H233.156V169.597Z" fill="url(#paint2_linear_235_533)"/>
<path d="M101.153 308.78C101.153 309.664 100.925 310.482 100.469 311.232C100 311.969 99.3635 312.559 98.5593 313.002C97.7417 313.444 96.8437 313.665 95.8653 313.665C94.8868 313.665 93.9955 313.444 93.1913 313.002C92.3871 312.559 91.7572 311.969 91.3015 311.232C90.8324 310.482 90.5978 309.664 90.5978 308.78C90.5978 308.002 90.7788 307.298 91.1406 306.669C91.5025 306.025 91.9783 305.496 92.5681 305.08C93.1578 304.665 93.7945 304.39 94.478 304.256V305.985C93.8213 306.173 93.2851 306.508 92.8697 306.99C92.4408 307.459 92.2263 308.056 92.2263 308.78C92.2263 309.342 92.3804 309.865 92.6887 310.348C92.997 310.83 93.4259 311.219 93.9754 311.514C94.5249 311.795 95.1549 311.936 95.8653 311.936C96.5756 311.936 97.2123 311.795 97.7752 311.514C98.3247 311.219 98.7536 310.837 99.0619 310.368C99.3702 309.885 99.5243 309.356 99.5243 308.78C99.5243 308.056 99.3166 307.459 98.9011 306.99C98.4722 306.508 97.9293 306.173 97.2726 305.985V304.256C97.9561 304.39 98.5928 304.665 99.1825 305.08C99.7723 305.496 100.248 306.025 100.61 306.669C100.972 307.298 101.153 308.002 101.153 308.78ZM100.932 298.816V300.565H92.4475V303.722H90.819V295.66H92.4475V298.816H100.932ZM90.5978 290.771C90.5978 290.007 90.7654 289.33 91.1004 288.74C91.4221 288.15 91.8845 287.695 92.4877 287.373C93.0774 287.038 93.7543 286.87 94.5182 286.87H100.932V288.177L99.665 288.539V288.639C100.04 288.908 100.382 289.296 100.69 289.806C100.999 290.315 101.153 290.938 101.153 291.675C101.153 292.345 101.019 292.935 100.751 293.444C100.483 293.954 100.121 294.349 99.665 294.631C99.1959 294.912 98.6799 295.053 98.117 295.053C97.487 295.053 96.9308 294.865 96.4483 294.49C95.9524 294.101 95.5704 293.565 95.3023 292.882C95.0343 292.185 94.9002 291.394 94.9002 290.509V288.619H94.4378C93.7543 288.619 93.2114 288.82 92.8093 289.223C92.3938 289.611 92.1861 290.127 92.1861 290.771C92.1861 291.374 92.3402 291.85 92.6485 292.198C92.9568 292.546 93.3522 292.768 93.8347 292.861V294.611C93.2583 294.544 92.7222 294.349 92.2263 294.028C91.7304 293.692 91.335 293.243 91.0401 292.681C90.7453 292.118 90.5978 291.481 90.5978 290.771ZM99.6248 291.394C99.6248 290.563 99.3836 289.893 98.9011 289.383C98.4051 288.874 97.7886 288.619 97.0514 288.619H96.2875V290.389C96.2875 291.327 96.4416 292.051 96.7499 292.56C97.0581 293.069 97.487 293.324 98.0366 293.324C98.5191 293.324 98.9078 293.156 99.2026 292.821C99.4841 292.486 99.6248 292.01 99.6248 291.394ZM95.041 277.424H90.819V275.675H100.932V277.424H96.6694V282.51H100.932V284.239H90.819V282.51H95.041V277.424ZM94.3373 268.809C94.3373 267.763 94.6456 266.919 95.2621 266.275C95.8653 265.632 96.656 265.31 97.6345 265.31C98.6129 265.31 99.4104 265.632 100.027 266.275C100.63 266.919 100.932 267.763 100.932 268.809V272.95H90.819V271.221H94.3373V268.809ZM99.3836 268.969C99.3836 268.366 99.2294 267.897 98.9212 267.562C98.6129 267.214 98.184 267.039 97.6345 267.039C97.0849 267.039 96.656 267.214 96.3478 267.562C96.0261 267.897 95.8653 268.366 95.8653 268.969V271.221H99.3836V268.969ZM95.6039 253.075C95.7781 252.606 96.073 252.211 96.4885 251.889C96.904 251.554 97.4334 251.386 98.0768 251.386C98.9078 251.386 99.5913 251.675 100.127 252.251C100.664 252.827 100.932 253.564 100.932 254.462L100.932 259.187H90.819V254.844C90.819 254.255 90.9396 253.732 91.1809 253.276C91.4221 252.807 91.7505 252.445 92.166 252.191C92.5681 251.923 93.0171 251.788 93.513 251.788C94.0089 251.788 94.4378 251.916 94.7997 252.17C95.1616 252.425 95.4297 252.727 95.6039 253.075ZM92.2866 257.478H95.0611V255.086C95.0611 254.59 94.9337 254.201 94.6791 253.92C94.4244 253.625 94.0826 253.477 93.6537 253.477C93.2382 253.477 92.9099 253.625 92.6686 253.92C92.4139 254.201 92.2866 254.59 92.2866 255.086V257.478ZM99.464 254.684C99.464 254.214 99.3233 253.832 99.0418 253.538C98.7469 253.229 98.3783 253.075 97.936 253.075C97.5071 253.075 97.152 253.229 96.8705 253.538C96.5756 253.846 96.4282 254.228 96.4282 254.684V257.478H99.464V254.684ZM101.153 250.132C101.153 250.373 101.113 250.628 101.032 250.896H99.4841V250.534C99.4841 250.011 99.3233 249.609 99.0016 249.328C98.6665 249.033 98.1237 248.859 97.3731 248.805L90.819 248.262V241.326H100.932V243.075H92.4475V246.694L97.6144 247.116C98.7938 247.21 99.6784 247.525 100.268 248.061C100.858 248.584 101.153 249.274 101.153 250.132ZM90.5978 234.953C90.5978 234.189 90.7654 233.512 91.1004 232.922C91.4221 232.332 91.8845 231.876 92.4877 231.555C93.0774 231.22 93.7543 231.052 94.5182 231.052H100.932V232.359L99.665 232.721V232.821C100.04 233.089 100.382 233.478 100.69 233.987C100.999 234.497 101.153 235.12 101.153 235.857C101.153 236.527 101.019 237.117 100.751 237.626C100.483 238.136 100.121 238.531 99.665 238.813C99.1959 239.094 98.6799 239.235 98.117 239.235C97.487 239.235 96.9308 239.047 96.4483 238.672C95.9524 238.283 95.5704 237.747 95.3023 237.064C95.0343 236.367 94.9002 235.576 94.9002 234.691V232.801H94.4378C93.7543 232.801 93.2114 233.002 92.8093 233.404C92.3938 233.793 92.1861 234.309 92.1861 234.953C92.1861 235.556 92.3402 236.031 92.6485 236.38C92.9568 236.728 93.3522 236.95 93.8347 237.043V238.793C93.2583 238.725 92.7222 238.531 92.2263 238.209C91.7304 237.874 91.335 237.425 91.0401 236.862C90.7453 236.3 90.5978 235.663 90.5978 234.953ZM99.6248 235.576C99.6248 234.745 99.3836 234.075 98.9011 233.565C98.4051 233.056 97.7886 232.801 97.0514 232.801H96.2875V234.571C96.2875 235.509 96.4416 236.233 96.7499 236.742C97.0581 237.251 97.487 237.506 98.0366 237.506C98.5191 237.506 98.9078 237.338 99.2026 237.003C99.4841 236.668 99.6248 236.192 99.6248 235.576ZM99.3434 220.576V219.008H103.505V220.716H100.932V228.135H103.505V229.844H99.3434V229.02C98.8609 228.363 98.1371 228.001 97.1721 227.934L90.819 227.391V220.576H99.3434ZM99.3434 222.285H92.4072V225.803L97.1721 226.225C98.1773 226.319 98.9011 226.594 99.3434 227.049V222.285ZM95.624 208.343C96.0797 208.343 96.4148 208.37 96.6292 208.424V216.104C97.5406 215.97 98.2577 215.621 98.7804 215.058C99.3032 214.496 99.5645 213.799 99.5645 212.968C99.5645 211.868 99.1155 211.037 98.2175 210.475V208.685C99.0351 209.007 99.7321 209.556 100.308 210.334C100.871 211.111 101.153 211.996 101.153 212.988C101.153 213.886 100.925 214.71 100.469 215.461C100.014 216.211 99.3836 216.801 98.5794 217.23C97.7752 217.659 96.8705 217.873 95.8653 217.873C94.8868 217.873 93.9955 217.652 93.1913 217.21C92.3871 216.767 91.7572 216.178 91.3015 215.44C90.8324 214.69 90.5978 213.879 90.5978 213.008C90.5978 212.137 90.819 211.346 91.2613 210.635C91.7036 209.925 92.3067 209.369 93.0707 208.967C93.8347 208.551 94.6858 208.343 95.624 208.343ZM92.1861 213.008C92.1861 213.785 92.4676 214.469 93.0305 215.058C93.58 215.635 94.3038 215.99 95.2018 216.124V210.032C94.3172 210.139 93.5934 210.468 93.0305 211.017C92.4676 211.554 92.1861 212.217 92.1861 213.008ZM101.153 207.292C101.153 207.533 101.113 207.787 101.032 208.056H99.4841V207.694C99.4841 207.171 99.3233 206.769 99.0016 206.487C98.6665 206.193 98.1237 206.018 97.3731 205.965L90.819 205.422V198.486H100.932V200.235H92.4475V203.854L97.6144 204.276C98.7938 204.37 99.6784 204.685 100.268 205.221C100.858 205.744 101.153 206.434 101.153 207.292ZM94.3373 191.61C94.3373 190.564 94.6456 189.72 95.2621 189.076C95.8653 188.433 96.656 188.111 97.6345 188.111C98.6129 188.111 99.4104 188.433 100.027 189.076C100.63 189.72 100.932 190.564 100.932 191.61V195.751H90.819V194.022H94.3373V191.61ZM99.3836 191.77C99.3836 191.167 99.2294 190.698 98.9212 190.363C98.6129 190.015 98.184 189.84 97.6345 189.84C97.0849 189.84 96.656 190.015 96.3478 190.363C96.0261 190.698 95.8653 191.167 95.8653 191.77V194.022H99.3836V191.77ZM103.505 176.458V178.166H100.932V186.249H90.819V184.52H99.3032V179.775H90.819V178.026H99.3032V176.458H103.505ZM95.624 165.817C96.0797 165.817 96.4148 165.844 96.6292 165.898V173.578C97.5406 173.444 98.2577 173.095 98.7804 172.532C99.3032 171.969 99.5645 171.272 99.5645 170.441C99.5645 169.342 99.1155 168.511 98.2175 167.948V166.159C99.0351 166.481 99.7321 167.03 100.308 167.808C100.871 168.585 101.153 169.47 101.153 170.461C101.153 171.359 100.925 172.184 100.469 172.934C100.014 173.685 99.3836 174.275 98.5794 174.704C97.7752 175.132 96.8705 175.347 95.8653 175.347C94.8868 175.347 93.9955 175.126 93.1913 174.683C92.3871 174.241 91.7572 173.651 91.3015 172.914C90.8324 172.164 90.5978 171.353 90.5978 170.482C90.5978 169.61 90.819 168.82 91.2613 168.109C91.7036 167.399 92.3067 166.843 93.0707 166.441C93.8347 166.025 94.6858 165.817 95.624 165.817ZM92.1861 170.482C92.1861 171.259 92.4676 171.943 93.0305 172.532C93.58 173.109 94.3038 173.464 95.2018 173.598V167.506C94.3172 167.613 93.5934 167.942 93.0305 168.491C92.4676 169.027 92.1861 169.691 92.1861 170.482ZM98.6397 158.361L90.819 154.823V153.094H100.932V154.803H94.3172L100.932 157.899V158.904L94.3172 162H100.932V163.709H90.819V161.92L98.6397 158.361ZM118.64 307.694L110.819 304.155V302.426H120.932V304.135H114.317L120.932 307.231V308.237L114.317 311.333H120.932V313.042H110.819V311.252L118.64 307.694ZM118.238 297.982L110.819 292.574V291.046H120.932V292.755H113.513L120.932 298.163V299.691H110.819V297.982H118.238ZM121.153 288.967C121.153 289.208 121.113 289.463 121.032 289.731H119.484V289.369C119.484 288.846 119.323 288.444 119.002 288.163C118.667 287.868 118.124 287.694 117.373 287.64L110.819 287.097V280.161H120.932V281.91H112.447V285.529L117.614 285.951C118.794 286.045 119.678 286.36 120.268 286.896C120.858 287.419 121.153 288.109 121.153 288.967ZM121.153 278.09C121.153 278.331 121.113 278.586 121.032 278.854H119.484V278.492C119.484 277.969 119.323 277.567 119.002 277.286C118.667 276.991 118.124 276.817 117.373 276.763L110.819 276.22V269.284H120.932V271.033H112.447V274.652L117.614 275.074C118.794 275.168 119.678 275.483 120.268 276.019C120.858 276.542 121.153 277.232 121.153 278.09ZM118.238 264.841L110.819 259.433V257.905H120.932V259.613H113.513L120.932 265.022V266.55H110.819V264.841H118.238ZM110.598 251.523C110.598 250.759 110.765 250.082 111.1 249.493C111.422 248.903 111.885 248.447 112.488 248.125C113.077 247.79 113.754 247.623 114.518 247.623H120.932V248.93L119.665 249.292V249.392C120.04 249.66 120.382 250.049 120.69 250.558C120.999 251.067 121.153 251.691 121.153 252.428C121.153 253.098 121.019 253.688 120.751 254.197C120.483 254.706 120.121 255.102 119.665 255.383C119.196 255.665 118.68 255.805 118.117 255.805C117.487 255.805 116.931 255.618 116.448 255.243C115.952 254.854 115.57 254.318 115.302 253.634C115.034 252.937 114.9 252.146 114.9 251.262V249.372H114.438C113.754 249.372 113.211 249.573 112.809 249.975C112.394 250.364 112.186 250.88 112.186 251.523C112.186 252.126 112.34 252.602 112.648 252.951C112.957 253.299 113.352 253.52 113.835 253.614V255.363C113.258 255.296 112.722 255.102 112.226 254.78C111.73 254.445 111.335 253.996 111.04 253.433C110.745 252.87 110.598 252.234 110.598 251.523ZM119.625 252.146C119.625 251.315 119.384 250.645 118.901 250.136C118.405 249.627 117.789 249.372 117.051 249.372H116.287V251.141C116.287 252.079 116.442 252.803 116.75 253.313C117.058 253.822 117.487 254.076 118.037 254.076C118.519 254.076 118.908 253.909 119.203 253.574C119.484 253.239 119.625 252.763 119.625 252.146ZM124.55 244.992H110.819V243.705L112.086 243.323V243.223C111.764 242.982 111.436 242.586 111.1 242.037C110.765 241.474 110.598 240.83 110.598 240.107C110.598 239.262 110.826 238.485 111.281 237.774C111.724 237.064 112.347 236.501 113.151 236.086C113.955 235.657 114.86 235.442 115.865 235.442C116.87 235.442 117.775 235.657 118.579 236.086C119.384 236.501 120.014 237.064 120.469 237.774C120.925 238.485 121.153 239.262 121.153 240.107C121.153 240.804 120.992 241.433 120.67 241.996C120.335 242.559 120.014 242.948 119.705 243.162V243.263H124.55L124.55 244.992ZM119.524 240.207C119.524 239.658 119.37 239.155 119.062 238.699C118.754 238.23 118.325 237.862 117.775 237.593C117.212 237.312 116.576 237.171 115.865 237.171C115.155 237.171 114.525 237.312 113.975 237.593C113.426 237.862 112.997 238.23 112.689 238.699C112.38 239.155 112.226 239.658 112.226 240.207C112.226 240.757 112.38 241.266 112.689 241.735C112.997 242.204 113.426 242.579 113.975 242.861C114.525 243.129 115.155 243.263 115.865 243.263C116.576 243.263 117.212 243.129 117.775 242.861C118.325 242.579 118.754 242.204 119.062 241.735C119.37 241.266 119.524 240.757 119.524 240.207ZM119.343 225.68V224.112H123.505V225.821H120.932V233.24H123.505V234.949H119.343V234.124C118.861 233.468 118.137 233.106 117.172 233.039L110.819 232.496V225.68H119.343ZM119.343 227.389H112.407V230.908L117.172 231.33C118.177 231.424 118.901 231.698 119.343 232.154V227.389ZM115.041 215.539H110.819V213.79H120.932V215.539H116.669V220.626H120.932V222.355H110.819V220.626H115.041V215.539ZM121.153 206.803C121.153 207.688 120.925 208.505 120.469 209.256C120 209.993 119.363 210.583 118.559 211.025C117.742 211.467 116.844 211.689 115.865 211.689C114.887 211.689 113.996 211.467 113.191 211.025C112.387 210.583 111.757 209.993 111.301 209.256C110.832 208.505 110.598 207.688 110.598 206.803C110.598 205.932 110.832 205.121 111.301 204.37C111.757 203.62 112.387 203.023 113.191 202.581C113.996 202.139 114.887 201.918 115.865 201.918C116.844 201.918 117.742 202.139 118.559 202.581C119.363 203.023 120 203.62 120.469 204.37C120.925 205.121 121.153 205.932 121.153 206.803ZM119.524 206.803C119.524 206.24 119.37 205.717 119.062 205.235C118.754 204.752 118.325 204.37 117.775 204.089C117.212 203.807 116.576 203.667 115.865 203.667C115.155 203.667 114.525 203.807 113.975 204.089C113.426 204.37 112.997 204.752 112.689 205.235C112.38 205.717 112.226 206.24 112.226 206.803C112.226 207.366 112.38 207.889 112.689 208.371C112.997 208.854 113.426 209.242 113.975 209.537C114.525 209.819 115.155 209.96 115.865 209.96C116.576 209.96 117.212 209.819 117.775 209.537C118.325 209.242 118.754 208.86 119.062 208.391C119.37 207.909 119.524 207.379 119.524 206.803ZM120.932 198.106V199.835H110.819V193.18H112.447V198.106H120.932ZM121.153 187.739C121.153 188.624 120.925 189.441 120.469 190.192C120 190.929 119.363 191.519 118.559 191.961C117.742 192.403 116.844 192.624 115.865 192.624C114.887 192.624 113.996 192.403 113.191 191.961C112.387 191.519 111.757 190.929 111.301 190.192C110.832 189.441 110.598 188.624 110.598 187.739C110.598 186.868 110.832 186.057 111.301 185.306C111.757 184.556 112.387 183.959 113.191 183.517C113.996 183.075 114.887 182.854 115.865 182.854C116.844 182.854 117.742 183.075 118.559 183.517C119.363 183.959 120 184.556 120.469 185.306C120.925 186.057 121.153 186.868 121.153 187.739ZM119.524 187.739C119.524 187.176 119.37 186.653 119.062 186.171C118.754 185.688 118.325 185.306 117.775 185.025C117.212 184.743 116.576 184.603 115.865 184.603C115.155 184.603 114.525 184.743 113.975 185.025C113.426 185.306 112.997 185.688 112.689 186.171C112.38 186.653 112.226 187.176 112.226 187.739C112.226 188.302 112.38 188.825 112.689 189.307C112.997 189.79 113.426 190.178 113.975 190.473C114.525 190.755 115.155 190.895 115.865 190.895C116.576 190.895 117.212 190.755 117.775 190.473C118.325 190.178 118.754 189.796 119.062 189.327C119.37 188.845 119.524 188.315 119.524 187.739ZM121.153 171.639C121.153 172.524 120.925 173.342 120.469 174.092C120 174.829 119.363 175.419 118.559 175.861C117.742 176.304 116.844 176.525 115.865 176.525C114.887 176.525 113.996 176.304 113.191 175.861C112.387 175.419 111.757 174.829 111.301 174.092C110.832 173.342 110.598 172.524 110.598 171.639C110.598 170.862 110.779 170.158 111.141 169.528C111.503 168.885 111.978 168.356 112.568 167.94C113.158 167.525 113.794 167.25 114.478 167.116V168.845C113.821 169.033 113.285 169.368 112.87 169.85C112.441 170.319 112.226 170.916 112.226 171.639C112.226 172.202 112.38 172.725 112.689 173.208C112.997 173.69 113.426 174.079 113.975 174.374C114.525 174.655 115.155 174.796 115.865 174.796C116.576 174.796 117.212 174.655 117.775 174.374C118.325 174.079 118.754 173.697 119.062 173.228C119.37 172.745 119.524 172.216 119.524 171.639C119.524 170.916 119.317 170.319 118.901 169.85C118.472 169.368 117.929 169.033 117.273 168.845V167.116C117.956 167.25 118.593 167.525 119.183 167.94C119.772 168.356 120.248 168.885 120.61 169.528C120.972 170.158 121.153 170.862 121.153 171.639ZM121.153 160.841C121.153 161.726 120.925 162.543 120.469 163.294C120 164.031 119.363 164.621 118.559 165.063C117.742 165.505 116.844 165.726 115.865 165.726C114.887 165.726 113.996 165.505 113.191 165.063C112.387 164.621 111.757 164.031 111.301 163.294C110.832 162.543 110.598 161.726 110.598 160.841C110.598 159.97 110.832 159.159 111.301 158.408C111.757 157.658 112.387 157.061 113.191 156.619C113.996 156.177 114.887 155.956 115.865 155.956C116.844 155.956 117.742 156.177 118.559 156.619C119.363 157.061 120 157.658 120.469 158.408C120.925 159.159 121.153 159.97 121.153 160.841ZM119.524 160.841C119.524 160.278 119.37 159.755 119.062 159.273C118.754 158.79 118.325 158.408 117.775 158.127C117.212 157.845 116.576 157.705 115.865 157.705C115.155 157.705 114.525 157.845 113.975 158.127C113.426 158.408 112.997 158.79 112.689 159.273C112.38 159.755 112.226 160.278 112.226 160.841C112.226 161.404 112.38 161.927 112.689 162.409C112.997 162.892 113.426 163.28 113.975 163.575C114.525 163.857 115.155 163.997 115.865 163.997C116.576 163.997 117.212 163.857 117.775 163.575C118.325 163.28 118.754 162.898 119.062 162.429C119.37 161.947 119.524 161.417 119.524 160.841ZM121.153 149.611C121.153 150.495 120.925 151.313 120.469 152.063C120 152.801 119.363 153.39 118.559 153.833C117.742 154.275 116.844 154.496 115.865 154.496C114.887 154.496 113.996 154.275 113.191 153.833C112.387 153.39 111.757 152.801 111.301 152.063C110.832 151.313 110.598 150.495 110.598 149.611C110.598 148.833 110.779 148.13 111.141 147.5C111.503 146.856 111.978 146.327 112.568 145.911C113.158 145.496 113.794 145.221 114.478 145.087V146.816C113.821 147.004 113.285 147.339 112.87 147.821C112.441 148.29 112.226 148.887 112.226 149.611C112.226 150.174 112.38 150.696 112.689 151.179C112.997 151.661 113.426 152.05 113.975 152.345C114.525 152.626 115.155 152.767 115.865 152.767C116.576 152.767 117.212 152.626 117.775 152.345C118.325 152.05 118.754 151.668 119.062 151.199C119.37 150.716 119.524 150.187 119.524 149.611C119.524 148.887 119.317 148.29 118.901 147.821C118.472 147.339 117.929 147.004 117.273 146.816V145.087C117.956 145.221 118.593 145.496 119.183 145.911C119.772 146.327 120.248 146.856 120.61 147.5C120.972 148.13 121.153 148.833 121.153 149.611ZM120.932 139.647V141.396H112.447V144.553H110.819V136.491H112.447V139.647H120.932ZM121.153 130.978C121.153 131.863 120.925 132.681 120.469 133.431C120 134.168 119.363 134.758 118.559 135.2C117.742 135.643 116.844 135.864 115.865 135.864C114.887 135.864 113.996 135.643 113.191 135.2C112.387 134.758 111.757 134.168 111.301 133.431C110.832 132.681 110.598 131.863 110.598 130.978C110.598 130.107 110.832 129.296 111.301 128.546C111.757 127.795 112.387 127.199 113.191 126.756C113.996 126.314 114.887 126.093 115.865 126.093C116.844 126.093 117.742 126.314 118.559 126.756C119.363 127.199 120 127.795 120.469 128.546C120.925 129.296 121.153 130.107 121.153 130.978ZM119.524 130.978C119.524 130.416 119.37 129.893 119.062 129.41C118.754 128.928 118.325 128.546 117.775 128.264C117.212 127.983 116.576 127.842 115.865 127.842C115.155 127.842 114.525 127.983 113.975 128.264C113.426 128.546 112.997 128.928 112.689 129.41C112.38 129.893 112.226 130.416 112.226 130.978C112.226 131.541 112.38 132.064 112.689 132.547C112.997 133.029 113.426 133.418 113.975 133.713C114.525 133.994 115.155 134.135 115.865 134.135C116.576 134.135 117.212 133.994 117.775 133.713C118.325 133.418 118.754 133.036 119.062 132.567C119.37 132.084 119.524 131.555 119.524 130.978ZM110.819 116.793H120.932V118.522H117.313V120.653L120.932 122.864V124.875L117.051 122.382C116.81 123.025 116.421 123.541 115.885 123.93C115.349 124.305 114.739 124.493 114.056 124.493C113.453 124.493 112.903 124.345 112.407 124.051C111.911 123.742 111.523 123.327 111.241 122.804C110.96 122.268 110.819 121.665 110.819 120.995V116.793ZM112.347 120.874C112.347 121.424 112.508 121.879 112.829 122.241C113.151 122.59 113.56 122.764 114.056 122.764C114.579 122.764 114.994 122.596 115.302 122.261C115.611 121.913 115.765 121.45 115.765 120.874V118.502H112.347V120.874ZM115.041 107.241H110.819V105.492H120.932V107.241H116.669V112.327H120.932V114.056H110.819V112.327H115.041V107.241ZM118.238 101.058L110.819 95.6498V94.1218H120.932V95.8307H113.513L120.932 101.239V102.767H110.819V101.058H118.238ZM110.819 84.1618H120.932V85.8908H117.313V88.0219L120.932 90.2335V92.2439L117.051 89.7509C116.81 90.3943 116.421 90.9103 115.885 91.299C115.349 91.6743 114.739 91.8619 114.056 91.8619C113.453 91.8619 112.903 91.7145 112.407 91.4196C111.911 91.1114 111.523 90.6959 111.241 90.1731C110.96 89.637 110.819 89.0339 110.819 88.3637V84.1618ZM112.347 88.2431C112.347 88.7926 112.508 89.2483 112.829 89.6102C113.151 89.9587 113.56 90.1329 114.056 90.1329C114.579 90.1329 114.994 89.9654 115.302 89.6303C115.611 89.2818 115.765 88.8194 115.765 88.2431V85.8707H112.347V88.2431Z" fill="url(#paint3_linear_235_533)"/>
<defs>
<linearGradient id="paint0_linear_235_533" x1="17.8428" y1="28.4839" x2="40.7453" y2="79.6903" gradientUnits="userSpaceOnUse">
<stop stop-color="#855702"/>
<stop offset="1" stop-color="#3D1401"/>
</linearGradient>
<linearGradient id="paint1_linear_235_533" x1="292.361" y1="681.536" x2="292.361" y2="450.89" gradientUnits="userSpaceOnUse">
<stop stop-color="white"/>
<stop offset="1" stop-color="white" stop-opacity="0"/>
</linearGradient>
<linearGradient id="paint2_linear_235_533" x1="216.047" y1="89.3722" x2="216.047" y2="351.251" gradientUnits="userSpaceOnUse">
<stop stop-color="white"/>
<stop offset="1" stop-color="white" stop-opacity="0"/>
</linearGradient>
<linearGradient id="paint3_linear_235_533" x1="117.932" y1="82.4088" x2="117.932" y2="416.574" gradientUnits="userSpaceOnUse">
<stop stop-color="white"/>
<stop offset="1" stop-color="white" stop-opacity="0"/>
</linearGradient>
<clipPath id="clip0_235_533">
<rect width="50.2987" height="42.7723" fill="white" transform="translate(22.6328 26.0929)"/>
</clipPath>
</defs>
</svg>
