<svg width="480" height="719" viewBox="0 0 480 719" fill="none" xmlns="http://www.w3.org/2000/svg">
<g clip-path="url(#clip0_235_517)">
<rect width="480" height="720" fill="url(#paint0_linear_235_517)"/>
<path d="M247.823 497.073V490.291H265.822V497.682H254.692V529.766H265.822V537.157H247.823V533.592C245.736 530.752 242.606 529.187 238.433 528.897L210.956 526.549V497.073H247.823ZM247.823 504.464H217.825V519.68L238.433 521.506C242.78 521.912 245.91 523.1 247.823 525.071V504.464Z" fill="white"/>
<path d="M231.737 435.476C233.708 435.476 235.157 435.592 236.085 435.823V469.038C240.027 468.459 243.128 466.951 245.388 464.517C247.649 462.082 248.78 459.068 248.78 455.474C248.78 450.721 246.838 447.127 242.954 444.692V436.954C246.49 438.345 249.504 440.722 251.997 444.084C254.431 447.446 255.649 451.272 255.649 455.561C255.649 459.445 254.663 463.01 252.692 466.256C250.721 469.502 247.997 472.052 244.519 473.907C241.041 475.762 237.128 476.69 232.781 476.69C228.549 476.69 224.694 475.733 221.217 473.82C217.739 471.908 215.014 469.357 213.043 466.169C211.014 462.923 210 459.416 210 455.648C210 451.88 210.956 448.46 212.869 445.388C214.782 442.316 217.391 439.91 220.695 438.171C223.999 436.374 227.68 435.476 231.737 435.476ZM216.869 455.648C216.869 459.01 218.086 461.966 220.521 464.517C222.898 467.009 226.028 468.546 229.911 469.125V442.779C226.086 443.243 222.955 444.663 220.521 447.04C218.086 449.359 216.869 452.228 216.869 455.648Z" fill="white"/>
<path d="M229.216 388.188H210.956V380.623H254.692V388.188H236.259V410.186H254.692V417.664H210.956V410.186H229.216V388.188Z" fill="white"/>
<path d="M226.173 342.233C226.173 337.712 227.506 334.06 230.172 331.277C232.781 328.495 236.201 327.104 240.432 327.104C244.664 327.104 248.113 328.495 250.779 331.277C253.388 334.06 254.692 337.712 254.692 342.233V360.145H210.956V352.667H226.173V342.233ZM247.997 342.929C247.997 340.32 247.33 338.291 245.997 336.842C244.664 335.335 242.809 334.581 240.432 334.581C238.056 334.581 236.201 335.335 234.868 336.842C233.476 338.291 232.781 340.32 232.781 342.929V352.667H247.997V342.929Z" fill="white"/>
<path d="M254.692 302.875V310.352H210.956L210.956 281.572H217.999L217.999 302.875H254.692Z" fill="white"/>
<path d="M243.041 258.689L210.956 235.299V228.691H254.692V236.082H222.608L254.692 259.471V266.079H210.956V258.689H243.041Z" fill="white"/>
<path d="M259.65 162.036L188.482 110.155V95.4974H285.494V111.891H214.326L285.494 163.772V178.429H188.482V162.036H259.65Z" fill="white"/>
<path d="M267.022 575.329V560.419H306.592V576.668H282.124V647.207H306.592V663.456H267.022V655.618C262.434 649.373 255.552 645.932 246.376 645.295L185.969 640.134V575.329H267.022ZM267.022 591.578H201.071V625.032L246.376 629.046C255.934 629.938 262.816 632.551 267.022 636.884V591.578Z" fill="white"/>
<path fill-rule="evenodd" clip-rule="evenodd" d="M269.597 515.527C271.008 512.028 271.713 508.169 271.713 503.947C271.713 499.688 271.008 495.85 269.598 492.433L269.598 469.17C272.968 471.812 276.044 475.01 278.827 478.762C284.21 486.196 286.901 494.655 286.901 504.139C286.901 512.727 284.722 520.609 280.365 527.786C277.497 532.509 273.909 536.566 269.598 539.957L269.597 515.527ZM203.271 539.525C199.047 536.14 195.522 532.163 192.698 527.594C188.212 520.417 185.969 512.663 185.969 504.332C185.969 496.001 188.084 488.439 192.313 481.646C195.233 476.956 198.886 472.97 203.271 469.685V493.679C201.862 496.911 201.157 500.462 201.157 504.332C201.157 508.136 201.862 511.705 203.271 515.04V539.525Z" fill="white"/>
<path fill-rule="evenodd" clip-rule="evenodd" d="M188.084 380.303H203.271V363.577H188.084V380.303ZM203.271 428.943H188.084V445.477H203.271V428.943ZM269.598 445.477H284.786V428.943H269.598V445.477ZM269.598 380.303H284.786V363.577H269.598V380.303Z" fill="white"/>
<path fill-rule="evenodd" clip-rule="evenodd" d="M203.271 326.895H188.084V343.429H203.271V326.895ZM269.598 343.429H284.786V303.825C284.786 293.827 281.903 285.753 276.135 279.601C274.152 277.531 271.973 275.81 269.598 274.437V300.595C269.855 302.072 269.983 303.662 269.983 305.363V326.895H269.598V343.429Z" fill="white"/>
<path fill-rule="evenodd" clip-rule="evenodd" d="M284.786 258.465V241.931H269.598V258.465H284.786ZM203.656 241.931V194.83H188.084V258.465H203.656V241.931Z" fill="white"/>
<path fill-rule="evenodd" clip-rule="evenodd" d="M318.081 621.408C321.243 613.588 322.823 604.96 322.823 595.523C322.823 586.002 321.243 577.422 318.083 569.783L318.084 517.78C325.636 523.686 332.529 530.834 338.763 539.223C350.826 555.841 356.858 574.751 356.858 595.953C356.858 615.149 351.975 632.77 342.21 648.815C335.785 659.372 327.743 668.441 318.084 676.021L318.081 621.408ZM169.453 675.055C159.986 667.489 152.088 658.599 145.758 648.385C135.706 632.34 130.68 615.006 130.68 596.382C130.68 577.759 135.419 560.855 144.897 545.669C151.44 535.186 159.625 526.274 169.453 518.931V572.568C166.294 579.793 164.714 587.731 164.714 596.382C164.714 604.887 166.294 612.866 169.453 620.32V675.055Z" fill="white"/>
<path fill-rule="evenodd" clip-rule="evenodd" d="M135.419 319.122H169.453V281.732H135.419V319.122ZM169.453 427.855H135.419L135.419 464.815H169.453V427.855ZM318.084 464.815H352.119V427.855H318.084V464.815ZM318.084 319.122H352.119V281.732H318.084V319.122Z" fill="white"/>
<path fill-rule="evenodd" clip-rule="evenodd" d="M169.453 199.729H135.419V236.69H169.453V199.729ZM318.946 236.69H352.119V148.157C352.119 125.808 345.656 107.758 332.732 94.0054C328.288 89.3795 324.267 85.4109 318.946 82.341V140.733C318.946 144.503 318.946 147.793 318.946 151.595V199.729V236.69Z" fill="white"/>
<path fill-rule="evenodd" clip-rule="evenodd" d="M352.119 46.7572V9.79675H318.084V46.7572H352.119ZM170.315 9.79675V-95.4974H135.419L135.419 46.7572H170.315L170.315 9.79675Z" fill="white"/>
<path fill-rule="evenodd" clip-rule="evenodd" d="M377.532 773.668C383.222 759.582 386.067 744.04 386.067 727.04C386.067 709.89 383.223 694.435 377.535 680.675L377.537 587.002C391.13 597.641 403.538 610.516 414.76 625.627C436.473 655.561 447.329 689.623 447.329 727.815C447.329 762.393 438.541 794.134 420.964 823.035C409.398 842.052 394.922 858.388 377.537 872.042L377.532 773.668ZM110.001 870.302C92.9605 856.674 78.7436 840.66 67.3503 822.261C49.2561 793.359 40.209 762.135 40.209 728.589C40.209 695.042 48.7391 664.592 65.7994 637.239C77.5768 618.356 92.3107 602.302 110.001 589.075V685.691C104.314 698.706 101.471 713.006 101.471 728.589C101.471 743.908 104.314 758.281 110.001 771.708V870.302Z" fill="white"/>
<path fill-rule="evenodd" clip-rule="evenodd" d="M48.7391 229.159H110.001V161.808H48.7391V229.159ZM110.001 425.019H48.7391L48.7391 491.596H110.001V425.019ZM377.537 491.596H438.799V425.019H377.537V491.596ZM377.537 229.159H438.799V161.808H377.537V229.159Z" fill="white"/>
<path fill-rule="evenodd" clip-rule="evenodd" d="M110.001 14.0963H48.7391L48.7391 80.6732H110.001L110.001 14.0963ZM379.088 80.6732H438.799V-78.8018C438.799 -119.058 427.167 -151.572 403.903 -176.344C395.904 -184.677 387.116 -191.608 377.537 -197.138V-91.8079C378.571 -85.8567 379.088 -79.4572 379.088 -72.6085V14.0963V80.6732Z" fill="white"/>
<path fill-rule="evenodd" clip-rule="evenodd" d="M438.799 -261.453V-328.03H377.537V-261.453H438.799ZM111.552 -328.03L111.552 -517.696H48.7391L48.7391 -261.453H111.552V-328.03Z" fill="white"/>
<path d="M387.184 397.088L392.451 392.484V394.696L387.425 398.998H392.451V400.727H382.339V398.998H387.103L382.339 394.997V392.926L387.184 397.088ZM392.672 387.434C392.672 388.318 392.444 389.136 391.989 389.886C391.52 390.623 390.883 391.213 390.079 391.655C389.261 392.098 388.363 392.319 387.385 392.319C386.406 392.319 385.515 392.098 384.711 391.655C383.907 391.213 383.277 390.623 382.821 389.886C382.352 389.136 382.117 388.318 382.117 387.434C382.117 386.562 382.352 385.751 382.821 385.001C383.277 384.25 383.907 383.654 384.711 383.212C385.515 382.769 386.406 382.548 387.385 382.548C388.363 382.548 389.261 382.769 390.079 383.212C390.883 383.654 391.52 384.25 391.989 385.001C392.444 385.751 392.672 386.562 392.672 387.434ZM391.044 387.434C391.044 386.871 390.89 386.348 390.581 385.865C390.273 385.383 389.844 385.001 389.295 384.719C388.732 384.438 388.095 384.297 387.385 384.297C386.674 384.297 386.044 384.438 385.495 384.719C384.945 385.001 384.517 385.383 384.208 385.865C383.9 386.348 383.746 386.871 383.746 387.434C383.746 387.996 383.9 388.519 384.208 389.002C384.517 389.484 384.945 389.873 385.495 390.168C386.044 390.449 386.674 390.59 387.385 390.59C388.095 390.59 388.732 390.449 389.295 390.168C389.844 389.873 390.273 389.491 390.581 389.022C390.89 388.539 391.044 388.01 391.044 387.434ZM386.56 373.65H382.339V371.901H392.451V373.65H388.189V378.736H392.451V380.465H382.339V378.736H386.56V373.65ZM387.184 365.537L392.451 360.933V363.145L387.425 367.447H392.451V369.176H382.339V367.447H387.103L382.339 363.446V361.375L387.184 365.537ZM382.339 353.414V351.625L393.235 355.968C394.348 356.41 395.112 356.859 395.527 357.315C395.956 357.77 396.171 358.3 396.171 358.903C396.171 359.171 396.11 359.486 395.99 359.848H394.421C394.502 359.62 394.542 359.399 394.542 359.184C394.542 358.822 394.442 358.521 394.24 358.28C394.039 358.025 393.704 357.804 393.235 357.616L392.21 357.214L382.339 361.215V359.345L390.059 356.35L382.339 353.414ZM396.07 350.151H382.339V348.865L383.605 348.483V348.382C383.283 348.141 382.955 347.745 382.62 347.196C382.285 346.633 382.117 345.99 382.117 345.266C382.117 344.421 382.345 343.644 382.801 342.934C383.243 342.223 383.866 341.66 384.671 341.245C385.475 340.816 386.38 340.601 387.385 340.601C388.39 340.601 389.295 340.816 390.099 341.245C390.903 341.66 391.533 342.223 391.989 342.934C392.444 343.644 392.672 344.421 392.672 345.266C392.672 345.963 392.511 346.593 392.19 347.156C391.855 347.719 391.533 348.107 391.225 348.322V348.422H396.07V350.151ZM391.044 345.366C391.044 344.817 390.89 344.314 390.581 343.858C390.273 343.389 389.844 343.021 389.295 342.753C388.732 342.471 388.095 342.33 387.385 342.33C386.674 342.33 386.044 342.471 385.495 342.753C384.945 343.021 384.517 343.389 384.208 343.858C383.9 344.314 383.746 344.817 383.746 345.366C383.746 345.916 383.9 346.425 384.208 346.894C384.517 347.363 384.945 347.739 385.495 348.02C386.044 348.288 386.674 348.422 387.385 348.422C388.095 348.422 388.732 348.288 389.295 348.02C389.844 347.739 390.273 347.363 390.581 346.894C390.89 346.425 391.044 345.916 391.044 345.366ZM392.672 334.227C392.672 335.111 392.444 335.929 391.989 336.679C391.52 337.417 390.883 338.006 390.079 338.449C389.261 338.891 388.363 339.112 387.385 339.112C386.406 339.112 385.515 338.891 384.711 338.449C383.907 338.006 383.277 337.417 382.821 336.679C382.352 335.929 382.117 335.111 382.117 334.227C382.117 333.449 382.298 332.746 382.66 332.116C383.022 331.472 383.498 330.943 384.088 330.527C384.677 330.112 385.314 329.837 385.998 329.703V331.432C385.341 331.62 384.805 331.955 384.389 332.437C383.96 332.906 383.746 333.503 383.746 334.227C383.746 334.79 383.9 335.312 384.208 335.795C384.517 336.277 384.945 336.666 385.495 336.961C386.044 337.242 386.674 337.383 387.385 337.383C388.095 337.383 388.732 337.242 389.295 336.961C389.844 336.666 390.273 336.284 390.581 335.815C390.89 335.332 391.044 334.803 391.044 334.227C391.044 333.503 390.836 332.906 390.421 332.437C389.992 331.955 389.449 331.62 388.792 331.432V329.703C389.476 329.837 390.112 330.112 390.702 330.527C391.292 330.943 391.768 331.472 392.129 332.116C392.491 332.746 392.672 333.449 392.672 334.227ZM412.451 398.998V400.727H402.339V392.343H412.451V394.072H403.967V398.998H412.451ZM412.672 385.352C412.672 386.237 412.444 387.055 411.989 387.805C411.52 388.542 410.883 389.132 410.079 389.574C409.261 390.017 408.363 390.238 407.385 390.238C406.406 390.238 405.515 390.017 404.711 389.574C403.907 389.132 403.277 388.542 402.821 387.805C402.352 387.055 402.117 386.237 402.117 385.352C402.117 384.481 402.352 383.67 402.821 382.92C403.277 382.169 403.907 381.573 404.711 381.13C405.515 380.688 406.406 380.467 407.385 380.467C408.363 380.467 409.261 380.688 410.079 381.13C410.883 381.573 411.52 382.169 411.989 382.92C412.444 383.67 412.672 384.481 412.672 385.352ZM411.044 385.352C411.044 384.789 410.89 384.267 410.581 383.784C410.273 383.302 409.844 382.92 409.295 382.638C408.732 382.357 408.095 382.216 407.385 382.216C406.674 382.216 406.044 382.357 405.495 382.638C404.945 382.92 404.517 383.302 404.208 383.784C403.9 384.267 403.746 384.789 403.746 385.352C403.746 385.915 403.9 386.438 404.208 386.921C404.517 387.403 404.945 387.792 405.495 388.087C406.044 388.368 406.674 388.509 407.385 388.509C408.095 388.509 408.732 388.368 409.295 388.087C409.844 387.792 410.273 387.41 410.581 386.941C410.89 386.458 411.044 385.929 411.044 385.352ZM412.672 369.253C412.672 370.137 412.444 370.955 411.989 371.706C411.52 372.443 410.883 373.033 410.079 373.475C409.261 373.917 408.363 374.138 407.385 374.138C406.406 374.138 405.515 373.917 404.711 373.475C403.907 373.033 403.277 372.443 402.821 371.706C402.352 370.955 402.117 370.137 402.117 369.253C402.117 368.475 402.298 367.772 402.66 367.142C403.022 366.499 403.498 365.969 404.088 365.554C404.677 365.138 405.314 364.863 405.998 364.729V366.458C405.341 366.646 404.805 366.981 404.389 367.464C403.96 367.933 403.746 368.529 403.746 369.253C403.746 369.816 403.9 370.339 404.208 370.821C404.517 371.304 404.945 371.692 405.495 371.987C406.044 372.269 406.674 372.409 407.385 372.409C408.095 372.409 408.732 372.269 409.295 371.987C409.844 371.692 410.273 371.31 410.581 370.841C410.89 370.359 411.044 369.829 411.044 369.253C411.044 368.529 410.836 367.933 410.421 367.464C409.992 366.981 409.449 366.646 408.792 366.458V364.729C409.476 364.863 410.112 365.138 410.702 365.554C411.292 365.969 411.768 366.499 412.129 367.142C412.491 367.772 412.672 368.475 412.672 369.253ZM407.184 359.078L412.451 354.474V356.685L407.425 360.988H412.451V362.717H402.339V360.988H407.103L402.339 356.987V354.916L407.184 359.078ZM412.672 349.423C412.672 350.308 412.444 351.125 411.989 351.876C411.52 352.613 410.883 353.203 410.079 353.645C409.261 354.087 408.363 354.308 407.385 354.308C406.406 354.308 405.515 354.087 404.711 353.645C403.907 353.203 403.277 352.613 402.821 351.876C402.352 351.125 402.117 350.308 402.117 349.423C402.117 348.552 402.352 347.741 402.821 346.99C403.277 346.24 403.907 345.643 404.711 345.201C405.515 344.759 406.406 344.538 407.385 344.538C408.363 344.538 409.261 344.759 410.079 345.201C410.883 345.643 411.52 346.24 411.989 346.99C412.444 347.741 412.672 348.552 412.672 349.423ZM411.044 349.423C411.044 348.86 410.89 348.337 410.581 347.855C410.273 347.372 409.844 346.99 409.295 346.709C408.732 346.427 408.095 346.287 407.385 346.287C406.674 346.287 406.044 346.427 405.495 346.709C404.945 346.99 404.517 347.372 404.208 347.855C403.9 348.337 403.746 348.86 403.746 349.423C403.746 349.986 403.9 350.509 404.208 350.991C404.517 351.474 404.945 351.862 405.495 352.157C406.044 352.439 406.674 352.579 407.385 352.579C408.095 352.579 408.732 352.439 409.295 352.157C409.844 351.862 410.273 351.48 410.581 351.011C410.89 350.529 411.044 349.999 411.044 349.423ZM416.07 342.455H402.339V341.168L403.605 340.786V340.686C403.283 340.444 402.955 340.049 402.62 339.499C402.285 338.937 402.117 338.293 402.117 337.569C402.117 336.725 402.345 335.948 402.801 335.237C403.243 334.527 403.866 333.964 404.671 333.548C405.475 333.12 406.38 332.905 407.385 332.905C408.39 332.905 409.295 333.12 410.099 333.548C410.903 333.964 411.533 334.527 411.989 335.237C412.444 335.948 412.672 336.725 412.672 337.569C412.672 338.266 412.511 338.896 412.19 339.459C411.855 340.022 411.533 340.411 411.225 340.625V340.726H416.07V342.455ZM411.044 337.67C411.044 337.12 410.89 336.618 410.581 336.162C410.273 335.693 409.844 335.324 409.295 335.056C408.732 334.775 408.095 334.634 407.385 334.634C406.674 334.634 406.044 334.775 405.495 335.056C404.945 335.324 404.517 335.693 404.208 336.162C403.9 336.618 403.746 337.12 403.746 337.67C403.746 338.219 403.9 338.729 404.208 339.198C404.517 339.667 404.945 340.042 405.495 340.324C406.044 340.592 406.674 340.726 407.385 340.726C408.095 340.726 408.732 340.592 409.295 340.324C409.844 340.042 410.273 339.667 410.581 339.198C410.89 338.729 411.044 338.219 411.044 337.67ZM412.672 326.53C412.672 327.415 412.444 328.233 411.989 328.983C411.52 329.72 410.883 330.31 410.079 330.752C409.261 331.195 408.363 331.416 407.385 331.416C406.406 331.416 405.515 331.195 404.711 330.752C403.907 330.31 403.277 329.72 402.821 328.983C402.352 328.233 402.117 327.415 402.117 326.53C402.117 325.659 402.352 324.848 402.821 324.098C403.277 323.347 403.907 322.751 404.711 322.308C405.515 321.866 406.406 321.645 407.385 321.645C408.363 321.645 409.261 321.866 410.079 322.308C410.883 322.751 411.52 323.347 411.989 324.098C412.444 324.848 412.672 325.659 412.672 326.53ZM411.044 326.53C411.044 325.967 410.89 325.445 410.581 324.962C410.273 324.48 409.844 324.098 409.295 323.816C408.732 323.535 408.095 323.394 407.385 323.394C406.674 323.394 406.044 323.535 405.495 323.816C404.945 324.098 404.517 324.48 404.208 324.962C403.9 325.445 403.746 325.967 403.746 326.53C403.746 327.093 403.9 327.616 404.208 328.099C404.517 328.581 404.945 328.97 405.495 329.265C406.044 329.546 406.674 329.687 407.385 329.687C408.095 329.687 408.732 329.546 409.295 329.265C409.844 328.97 410.273 328.588 410.581 328.119C410.89 327.636 411.044 327.107 411.044 326.53ZM412.672 315.3C412.672 316.185 412.444 317.002 411.989 317.753C411.52 318.49 410.883 319.08 410.079 319.522C409.261 319.964 408.363 320.185 407.385 320.185C406.406 320.185 405.515 319.964 404.711 319.522C403.907 319.08 403.277 318.49 402.821 317.753C402.352 317.002 402.117 316.185 402.117 315.3C402.117 314.523 402.298 313.819 402.66 313.189C403.022 312.546 403.498 312.016 404.088 311.601C404.677 311.185 405.314 310.91 405.998 310.776V312.505C405.341 312.693 404.805 313.028 404.389 313.511C403.96 313.98 403.746 314.576 403.746 315.3C403.746 315.863 403.9 316.386 404.208 316.868C404.517 317.351 404.945 317.739 405.495 318.034C406.044 318.316 406.674 318.456 407.385 318.456C408.095 318.456 408.732 318.316 409.295 318.034C409.844 317.739 410.273 317.357 410.581 316.888C410.89 316.406 411.044 315.876 411.044 315.3C411.044 314.576 410.836 313.98 410.421 313.511C409.992 313.028 409.449 312.693 408.792 312.505V310.776C409.476 310.91 410.112 311.185 410.702 311.601C411.292 312.016 411.768 312.546 412.129 313.189C412.491 313.819 412.672 314.523 412.672 315.3ZM412.451 305.337V307.086H403.967V310.242H402.339V302.18H403.967V305.337H412.451ZM406.56 293.722H402.339V291.973H412.451V293.722H408.189V298.808H412.451V300.537H402.339V298.808H406.56V293.722ZM412.672 284.986C412.672 285.87 412.444 286.688 411.989 287.439C411.52 288.176 410.883 288.766 410.079 289.208C409.261 289.65 408.363 289.871 407.385 289.871C406.406 289.871 405.515 289.65 404.711 289.208C403.907 288.766 403.277 288.176 402.821 287.439C402.352 286.688 402.117 285.87 402.117 284.986C402.117 284.115 402.352 283.304 402.821 282.553C403.277 281.803 403.907 281.206 404.711 280.764C405.515 280.322 406.406 280.1 407.385 280.1C408.363 280.1 409.261 280.322 410.079 280.764C410.883 281.206 411.52 281.803 411.989 282.553C412.444 283.304 412.672 284.115 412.672 284.986ZM411.044 284.986C411.044 284.423 410.89 283.9 410.581 283.418C410.273 282.935 409.844 282.553 409.295 282.272C408.732 281.99 408.095 281.85 407.385 281.85C406.674 281.85 406.044 281.99 405.495 282.272C404.945 282.553 404.517 282.935 404.208 283.418C403.9 283.9 403.746 284.423 403.746 284.986C403.746 285.549 403.9 286.072 404.208 286.554C404.517 287.037 404.945 287.425 405.495 287.72C406.044 288.002 406.674 288.142 407.385 288.142C408.095 288.142 408.732 288.002 409.295 287.72C409.844 287.425 410.273 287.043 410.581 286.574C410.89 286.092 411.044 285.562 411.044 284.986ZM410.159 272.67L402.339 269.131V267.402H412.451V269.111H405.837L412.451 272.207V273.213L405.837 276.309H412.451V278.018H402.339V276.228L410.159 272.67ZM402.339 258.133V256.344L413.235 260.686C414.348 261.128 415.112 261.577 415.527 262.033C415.956 262.489 416.171 263.018 416.171 263.621C416.171 263.89 416.11 264.204 415.99 264.566H414.421C414.502 264.339 414.542 264.117 414.542 263.903C414.542 263.541 414.442 263.239 414.24 262.998C414.039 262.744 413.704 262.522 413.235 262.335L412.21 261.933L402.339 265.934V264.064L410.059 261.068L402.339 258.133ZM427.224 395.52C427.398 395.091 427.693 394.723 428.109 394.414C428.524 394.093 429.04 393.932 429.657 393.932C430.193 393.932 430.695 394.079 431.164 394.374C431.62 394.669 431.989 395.104 432.27 395.681C432.538 396.244 432.672 396.914 432.672 397.691C432.672 398.884 432.364 399.829 431.748 400.526C431.118 401.21 430.327 401.598 429.375 401.692V399.983C429.898 399.943 430.32 399.735 430.642 399.36C430.963 398.985 431.124 398.442 431.124 397.732C431.124 397.048 430.99 396.532 430.722 396.183C430.441 395.822 430.059 395.641 429.576 395.641C429.094 395.641 428.705 395.815 428.41 396.163C428.115 396.512 427.968 397.008 427.968 397.651V398.797H426.56V397.711C426.56 397.122 426.433 396.673 426.179 396.364C425.924 396.043 425.595 395.882 425.193 395.882C424.764 395.882 424.403 396.056 424.108 396.405C423.813 396.74 423.665 397.195 423.665 397.772C423.665 398.375 423.82 398.851 424.128 399.199C424.423 399.534 424.811 399.735 425.294 399.802V401.491C424.382 401.411 423.625 401.042 423.022 400.385C422.419 399.715 422.117 398.81 422.117 397.671C422.117 396.974 422.258 396.364 422.54 395.842C422.808 395.306 423.176 394.897 423.645 394.615C424.101 394.32 424.597 394.173 425.133 394.173C425.669 394.173 426.105 394.307 426.44 394.575C426.775 394.843 427.036 395.158 427.224 395.52ZM422.117 388.175C422.117 387.411 422.285 386.734 422.62 386.144C422.942 385.554 423.404 385.099 424.007 384.777C424.597 384.442 425.274 384.274 426.038 384.274H432.451V385.581L431.185 385.943V386.043C431.56 386.312 431.902 386.7 432.21 387.21C432.518 387.719 432.672 388.342 432.672 389.079C432.672 389.749 432.538 390.339 432.27 390.848C432.002 391.358 431.64 391.753 431.185 392.035C430.715 392.316 430.199 392.457 429.637 392.457C429.007 392.457 428.45 392.269 427.968 391.894C427.472 391.505 427.09 390.969 426.822 390.286C426.554 389.589 426.42 388.798 426.42 387.913V386.023H425.957C425.274 386.023 424.731 386.224 424.329 386.626C423.913 387.015 423.706 387.531 423.706 388.175C423.706 388.778 423.86 389.254 424.168 389.602C424.476 389.95 424.872 390.172 425.354 390.265V392.015C424.778 391.948 424.242 391.753 423.746 391.432C423.25 391.096 422.855 390.647 422.56 390.085C422.265 389.522 422.117 388.885 422.117 388.175ZM431.144 388.798C431.144 387.967 430.903 387.297 430.421 386.787C429.925 386.278 429.308 386.023 428.571 386.023H427.807V387.793C427.807 388.731 427.961 389.455 428.269 389.964C428.578 390.473 429.007 390.728 429.556 390.728C430.039 390.728 430.427 390.56 430.722 390.225C431.004 389.89 431.144 389.414 431.144 388.798ZM436.07 381.643H422.339V380.357L423.605 379.975V379.874C423.283 379.633 422.955 379.237 422.62 378.688C422.285 378.125 422.117 377.482 422.117 376.758C422.117 375.914 422.345 375.136 422.801 374.426C423.243 373.715 423.866 373.152 424.671 372.737C425.475 372.308 426.38 372.094 427.385 372.094C428.39 372.094 429.295 372.308 430.099 372.737C430.903 373.152 431.533 373.715 431.989 374.426C432.444 375.136 432.672 375.914 432.672 376.758C432.672 377.455 432.511 378.085 432.19 378.648C431.855 379.211 431.533 379.599 431.225 379.814V379.914H436.07V381.643ZM431.044 376.858C431.044 376.309 430.89 375.806 430.581 375.351C430.273 374.881 429.844 374.513 429.295 374.245C428.732 373.963 428.095 373.823 427.385 373.823C426.674 373.823 426.044 373.963 425.495 374.245C424.945 374.513 424.517 374.881 424.208 375.351C423.9 375.806 423.746 376.309 423.746 376.858C423.746 377.408 423.9 377.917 424.208 378.386C424.517 378.855 424.945 379.231 425.495 379.512C426.044 379.78 426.674 379.914 427.385 379.914C428.095 379.914 428.732 379.78 429.295 379.512C429.844 379.231 430.273 378.855 430.581 378.386C430.89 377.917 431.044 377.408 431.044 376.858ZM422.117 366.342C422.117 365.578 422.285 364.901 422.62 364.312C422.942 363.722 423.404 363.266 424.007 362.944C424.597 362.609 425.274 362.442 426.038 362.442H432.451V363.749L431.185 364.11V364.211C431.56 364.479 431.902 364.868 432.21 365.377C432.518 365.886 432.672 366.51 432.672 367.247C432.672 367.917 432.538 368.507 432.27 369.016C432.002 369.525 431.64 369.921 431.185 370.202C430.715 370.484 430.199 370.624 429.637 370.624C429.007 370.624 428.45 370.437 427.968 370.061C427.472 369.673 427.09 369.137 426.822 368.453C426.554 367.756 426.42 366.965 426.42 366.081V364.191H425.957C425.274 364.191 424.731 364.392 424.329 364.794C423.913 365.183 423.706 365.699 423.706 366.342C423.706 366.945 423.86 367.421 424.168 367.77C424.476 368.118 424.872 368.339 425.354 368.433V370.182C424.778 370.115 424.242 369.921 423.746 369.599C423.25 369.264 422.855 368.815 422.56 368.252C422.265 367.689 422.117 367.052 422.117 366.342ZM431.144 366.965C431.144 366.134 430.903 365.464 430.421 364.955C429.925 364.446 429.308 364.191 428.571 364.191H427.807V365.96C427.807 366.898 427.961 367.622 428.269 368.131C428.578 368.641 429.007 368.895 429.556 368.895C430.039 368.895 430.427 368.728 430.722 368.393C431.004 368.058 431.144 367.582 431.144 366.965ZM432.672 355.388C432.672 356.299 432.451 357.124 432.009 357.861C431.553 358.585 430.863 359.161 429.938 359.59C429.013 360.019 427.874 360.233 426.52 360.233C424.215 360.233 422.392 359.797 421.052 358.926C419.711 358.055 418.901 356.681 418.619 354.805C418.418 353.438 418.251 352.379 418.117 351.628H419.745L420.087 353.599L420.248 354.584C420.449 355.911 420.918 356.862 421.655 357.439C422.379 358.015 423.27 358.37 424.329 358.504V358.404C423.913 358.149 423.531 357.74 423.183 357.177C422.834 356.614 422.66 355.937 422.66 355.147C422.66 354.342 422.875 353.599 423.304 352.915C423.719 352.231 424.309 351.689 425.073 351.286C425.837 350.871 426.701 350.663 427.666 350.663C428.645 350.663 429.516 350.878 430.28 351.307C431.03 351.722 431.62 352.292 432.049 353.015C432.465 353.726 432.672 354.517 432.672 355.388ZM431.044 355.388C431.044 354.838 430.91 354.336 430.642 353.88C430.36 353.424 429.965 353.062 429.456 352.794C428.946 352.526 428.35 352.392 427.666 352.392C426.983 352.392 426.386 352.526 425.877 352.794C425.354 353.062 424.959 353.424 424.691 353.88C424.409 354.336 424.269 354.838 424.269 355.388C424.269 355.937 424.409 356.447 424.691 356.916C424.959 357.372 425.354 357.733 425.877 358.001C426.386 358.27 426.983 358.404 427.666 358.404C428.35 358.404 428.946 358.27 429.456 358.001C429.965 357.733 430.36 357.372 430.642 356.916C430.91 356.447 431.044 355.937 431.044 355.388ZM432.672 344.299C432.672 345.183 432.444 346.001 431.989 346.751C431.52 347.489 430.883 348.078 430.079 348.521C429.261 348.963 428.363 349.184 427.385 349.184C426.406 349.184 425.515 348.963 424.711 348.521C423.907 348.078 423.277 347.489 422.821 346.751C422.352 346.001 422.117 345.183 422.117 344.299C422.117 343.427 422.352 342.617 422.821 341.866C423.277 341.115 423.907 340.519 424.711 340.077C425.515 339.634 426.406 339.413 427.385 339.413C428.363 339.413 429.261 339.634 430.079 340.077C430.883 340.519 431.52 341.115 431.989 341.866C432.444 342.617 432.672 343.427 432.672 344.299ZM431.044 344.299C431.044 343.736 430.89 343.213 430.581 342.731C430.273 342.248 429.844 341.866 429.295 341.585C428.732 341.303 428.095 341.162 427.385 341.162C426.674 341.162 426.044 341.303 425.495 341.585C424.945 341.866 424.517 342.248 424.208 342.731C423.9 343.213 423.746 343.736 423.746 344.299C423.746 344.862 423.9 345.384 424.208 345.867C424.517 346.349 424.945 346.738 425.495 347.033C426.044 347.314 426.674 347.455 427.385 347.455C428.095 347.455 428.732 347.314 429.295 347.033C429.844 346.738 430.273 346.356 430.581 345.887C430.89 345.404 431.044 344.875 431.044 344.299ZM432.451 333.903V335.652H423.967V338.809H422.339V330.747H423.967V333.903H432.451ZM427.184 325.465L432.451 320.861V323.073L427.425 327.375H432.451V329.104H422.339V327.375H427.103L422.339 323.374V321.303L427.184 325.465ZM422.339 313.342V311.553L433.235 315.896C434.348 316.338 435.112 316.787 435.527 317.243C435.956 317.698 436.171 318.228 436.171 318.831C436.171 319.099 436.11 319.414 435.99 319.776H434.421C434.502 319.548 434.542 319.327 434.542 319.112C434.542 318.75 434.442 318.449 434.24 318.208C434.039 317.953 433.704 317.732 433.235 317.544L432.21 317.142L422.339 321.143V319.273L430.059 316.278L422.339 313.342Z" fill="white"/>
<path d="M57.7525 106.72H59.001V110.033H57.6405V107.984H51.7343V110.033H50.3738V106.72H51.03C51.5529 106.336 51.841 105.759 51.8943 104.991L52.3265 99.9333H57.7525V106.72ZM56.392 106.72V101.198H53.591L53.2548 104.991C53.1801 105.791 52.9614 106.368 52.5986 106.72H56.392ZM67.491 103.759C67.491 104.122 67.4697 104.388 67.427 104.559H61.3127C61.4194 105.285 61.6968 105.856 62.145 106.272C62.5932 106.688 63.1481 106.896 63.8096 106.896C64.6846 106.896 65.3462 106.538 65.7944 105.824H67.2189C66.9628 106.474 66.5253 107.029 65.9064 107.488C65.2875 107.936 64.5833 108.16 63.7936 108.16C63.0787 108.16 62.4224 107.979 61.8249 107.616C61.2273 107.253 60.7578 106.752 60.4164 106.112C60.0749 105.471 59.9042 104.751 59.9042 103.951C59.9042 103.172 60.0802 102.462 60.4324 101.822C60.7845 101.182 61.254 100.68 61.8409 100.317C62.4385 99.944 63.084 99.7573 63.7776 99.7573C64.4712 99.7573 65.1008 99.9333 65.6663 100.285C66.2319 100.638 66.6747 101.118 66.9948 101.726C67.3256 102.334 67.491 103.012 67.491 103.759ZM63.7776 101.022C63.1587 101.022 62.6145 101.246 62.145 101.694C61.6862 102.131 61.4034 102.708 61.2967 103.423H66.1465C66.0611 102.718 65.7997 102.142 65.3622 101.694C64.9354 101.246 64.4072 101.022 63.7776 101.022ZM72.0663 103.791L75.7317 107.984H73.971L70.5458 103.983V107.984H69.1692V99.9333H70.5458V103.727L73.7309 99.9333H75.3796L72.0663 103.791ZM79.4128 99.7573C80.021 99.7573 80.5599 99.8906 81.0294 100.157C81.4989 100.413 81.8617 100.782 82.1178 101.262C82.3846 101.731 82.518 102.27 82.518 102.878V107.984H81.4776L81.1895 106.976H81.1094C80.896 107.275 80.5866 107.547 80.1811 107.792C79.7756 108.038 79.2794 108.16 78.6925 108.16C78.159 108.16 77.6895 108.054 77.284 107.84C76.8785 107.627 76.5638 107.339 76.3397 106.976C76.1156 106.602 76.0035 106.192 76.0035 105.743C76.0035 105.242 76.1529 104.799 76.4517 104.415C76.7612 104.02 77.188 103.716 77.7322 103.503C78.2871 103.289 78.9166 103.183 79.6209 103.183H81.1254V102.814C81.1254 102.27 80.9654 101.838 80.6453 101.518C80.3358 101.187 79.925 101.022 79.4128 101.022C78.9326 101.022 78.5538 101.144 78.2764 101.39C77.999 101.635 77.8229 101.95 77.7482 102.334H76.3557C76.409 101.875 76.5638 101.449 76.8198 101.054C77.0866 100.659 77.4441 100.344 77.8922 100.109C78.3404 99.8746 78.8473 99.7573 79.4128 99.7573ZM78.9166 106.944C79.5782 106.944 80.1117 106.752 80.5172 106.368C80.9227 105.973 81.1254 105.482 81.1254 104.895V104.287H79.7169C78.97 104.287 78.3938 104.41 77.9883 104.655C77.5828 104.901 77.3801 105.242 77.3801 105.679C77.3801 106.064 77.5134 106.373 77.7802 106.608C78.047 106.832 78.4258 106.944 78.9166 106.944ZM88.1338 108.16C87.4082 108.16 86.752 107.984 86.1651 107.632C85.5889 107.269 85.13 106.72 84.7886 105.984C84.4471 105.247 84.2764 104.34 84.2764 103.263C84.2764 101.427 84.6232 99.976 85.3168 98.9089C86.0103 97.8419 87.1041 97.1963 88.598 96.9722C89.6864 96.8122 90.5294 96.6788 91.1269 96.5721V97.8686L89.5583 98.1407L88.774 98.2687C87.7176 98.4288 86.96 98.8022 86.5012 99.3891C86.0424 99.9653 85.7596 100.675 85.6529 101.518H85.7329C85.9357 101.187 86.2611 100.883 86.7093 100.606C87.1574 100.328 87.6963 100.189 88.3259 100.189C88.9661 100.189 89.5583 100.36 90.1025 100.702C90.6467 101.032 91.0789 101.502 91.399 102.11C91.7298 102.718 91.8952 103.407 91.8952 104.175C91.8952 104.954 91.7245 105.647 91.383 106.256C91.0522 106.853 90.5987 107.323 90.0225 107.664C89.457 107.995 88.8274 108.16 88.1338 108.16ZM88.1338 106.864C88.5713 106.864 88.9714 106.757 89.3343 106.544C89.6971 106.32 89.9852 106.005 90.1986 105.599C90.412 105.194 90.5187 104.719 90.5187 104.175C90.5187 103.631 90.412 103.156 90.1986 102.75C89.9852 102.334 89.6971 102.019 89.3343 101.806C88.9714 101.582 88.5713 101.47 88.1338 101.47C87.6963 101.47 87.2908 101.582 86.9174 101.806C86.5546 102.019 86.2664 102.334 86.053 102.75C85.8396 103.156 85.7329 103.631 85.7329 104.175C85.7329 104.719 85.8396 105.194 86.053 105.599C86.2664 106.005 86.5546 106.32 86.9174 106.544C87.2908 106.757 87.6963 106.864 88.1338 106.864ZM93.5689 110.865V99.9333H94.5933L94.8974 100.942H94.9775C95.1695 100.686 95.4843 100.424 95.9218 100.157C96.37 99.8906 96.8822 99.7573 97.4584 99.7573C98.1306 99.7573 98.7495 99.9387 99.3151 100.301C99.8806 100.654 100.329 101.15 100.66 101.79C101.001 102.43 101.172 103.151 101.172 103.951C101.172 104.751 101.001 105.471 100.66 106.112C100.329 106.752 99.8806 107.253 99.3151 107.616C98.7495 107.979 98.1306 108.16 97.4584 108.16C96.9035 108.16 96.402 108.032 95.9538 107.776C95.5057 107.509 95.1962 107.253 95.0255 107.008H94.9455V110.865H93.5689ZM97.3784 106.864C97.8159 106.864 98.216 106.741 98.5788 106.496C98.9523 106.25 99.2457 105.909 99.4591 105.471C99.6832 105.023 99.7953 104.516 99.7953 103.951C99.7953 103.385 99.6832 102.884 99.4591 102.446C99.2457 102.009 98.9523 101.667 98.5788 101.422C98.216 101.176 97.8159 101.054 97.3784 101.054C96.9409 101.054 96.5354 101.176 96.1619 101.422C95.7884 101.667 95.4897 102.009 95.2656 102.446C95.0522 102.884 94.9455 103.385 94.9455 103.951C94.9455 104.516 95.0522 105.023 95.2656 105.471C95.4897 105.909 95.7884 106.25 96.1619 106.496C96.5354 106.741 96.9409 106.864 97.3784 106.864ZM106.151 102.734C106.983 102.734 107.655 102.98 108.168 103.471C108.68 103.951 108.936 104.58 108.936 105.359C108.936 106.138 108.68 106.773 108.168 107.264C107.655 107.744 106.983 107.984 106.151 107.984H102.854V99.9333H104.23V102.734H106.151ZM106.023 106.752C106.503 106.752 106.876 106.629 107.143 106.384C107.421 106.138 107.559 105.797 107.559 105.359C107.559 104.922 107.421 104.58 107.143 104.335C106.876 104.079 106.503 103.951 106.023 103.951H104.23V106.752H106.023ZM50.5978 115.733L53.3509 113.78H54.4393V124.984H52.9667V115.637L51.2861 116.837L50.5978 115.733ZM60.6132 125.16C59.8449 125.16 59.1406 124.942 58.5004 124.504C57.8708 124.056 57.3693 123.4 56.9958 122.535C56.6224 121.66 56.4356 120.609 56.4356 119.382C56.4356 118.155 56.6224 117.109 56.9958 116.245C57.3693 115.37 57.8708 114.714 58.5004 114.276C59.1406 113.828 59.8449 113.604 60.6132 113.604C61.3815 113.604 62.0804 113.828 62.71 114.276C63.3502 114.714 63.8571 115.37 64.2305 116.245C64.6147 117.109 64.8068 118.155 64.8068 119.382C64.8068 120.609 64.6147 121.66 64.2305 122.535C63.8571 123.4 63.3502 124.056 62.71 124.504C62.0804 124.942 61.3815 125.16 60.6132 125.16ZM60.6132 123.768C61.1147 123.768 61.5682 123.613 61.9737 123.304C62.3899 122.994 62.7206 122.509 62.9661 121.847C63.2115 121.186 63.3342 120.364 63.3342 119.382C63.3342 118.401 63.2115 117.579 62.9661 116.917C62.7206 116.256 62.3899 115.77 61.9737 115.461C61.5682 115.151 61.1147 114.997 60.6132 114.997C60.1117 114.997 59.6582 115.157 59.2527 115.477C58.8472 115.786 58.5217 116.272 58.2763 116.933C58.0309 117.584 57.9082 118.401 57.9082 119.382C57.9082 120.364 58.0309 121.186 58.2763 121.847C58.5217 122.498 58.8472 122.984 59.2527 123.304C59.6582 123.613 60.1117 123.768 60.6132 123.768ZM81.3514 121.335H69.9872V120.086H81.3514V121.335ZM91.8709 119.19C92.4258 119.414 92.89 119.75 93.2635 120.199C93.6476 120.647 93.8397 121.234 93.8397 121.959C93.8397 122.525 93.6796 123.053 93.3595 123.544C93.05 124.035 92.6072 124.429 92.031 124.728C91.4655 125.016 90.8252 125.16 90.1103 125.16C89.374 125.16 88.7284 125.016 88.1736 124.728C87.6187 124.44 87.1812 124.056 86.8611 123.576C86.541 123.096 86.3436 122.578 86.2689 122.023H87.7414C87.7841 122.311 87.9068 122.594 88.1095 122.872C88.3123 123.138 88.5844 123.362 88.9258 123.544C89.2673 123.715 89.6621 123.8 90.1103 123.8C90.7932 123.8 91.3374 123.624 91.7429 123.272C92.159 122.909 92.3671 122.445 92.3671 121.879C92.3671 121.303 92.159 120.833 91.7429 120.471C91.3267 120.108 90.7612 119.926 90.0463 119.926H89.342V118.646H89.9662C90.6171 118.646 91.1347 118.481 91.5188 118.15C91.9136 117.819 92.111 117.387 92.111 116.853C92.111 116.298 91.919 115.845 91.5348 115.493C91.1613 115.141 90.6652 114.965 90.0463 114.965C89.47 114.965 88.9845 115.141 88.5897 115.493C88.2056 115.834 87.9922 116.234 87.9495 116.693H86.4769C86.5196 116.149 86.6957 115.642 87.0051 115.173C87.3253 114.692 87.7467 114.314 88.2696 114.036C88.7925 113.748 89.3793 113.604 90.0303 113.604C90.7132 113.604 91.3267 113.748 91.8709 114.036C92.4151 114.324 92.8366 114.714 93.1354 115.205C93.4342 115.685 93.5836 116.208 93.5836 116.773C93.5836 117.339 93.4182 117.824 93.0874 118.23C92.7566 118.625 92.3511 118.945 91.8709 119.19ZM99.3307 125.16C98.5624 125.16 97.8582 124.942 97.2179 124.504C96.5884 124.056 96.0868 123.4 95.7134 122.535C95.3399 121.66 95.1532 120.609 95.1532 119.382C95.1532 118.155 95.3399 117.109 95.7134 116.245C96.0868 115.37 96.5884 114.714 97.2179 114.276C97.8582 113.828 98.5624 113.604 99.3307 113.604C100.099 113.604 100.798 113.828 101.427 114.276C102.068 114.714 102.575 115.37 102.948 116.245C103.332 117.109 103.524 118.155 103.524 119.382C103.524 120.609 103.332 121.66 102.948 122.535C102.575 123.4 102.068 124.056 101.427 124.504C100.798 124.942 100.099 125.16 99.3307 125.16ZM99.3307 123.768C99.8322 123.768 100.286 123.613 100.691 123.304C101.107 122.994 101.438 122.509 101.684 121.847C101.929 121.186 102.052 120.364 102.052 119.382C102.052 118.401 101.929 117.579 101.684 116.917C101.438 116.256 101.107 115.77 100.691 115.461C100.286 115.151 99.8322 114.997 99.3307 114.997C98.8292 114.997 98.3757 115.157 97.9702 115.477C97.5647 115.786 97.2393 116.272 96.9939 116.933C96.7484 117.584 96.6257 118.401 96.6257 119.382C96.6257 120.364 96.7484 121.186 96.9939 121.847C97.2393 122.498 97.5647 122.984 97.9702 123.304C98.3757 123.613 98.8292 123.768 99.3307 123.768ZM52.9827 140.592H58.0566V141.984H50.8699V140.816L54.9995 136.606C55.5437 136.051 55.9438 135.577 56.1999 135.182C56.456 134.787 56.5841 134.344 56.5841 133.853C56.5841 133.298 56.3867 132.845 55.9919 132.493C55.6077 132.141 55.0902 131.965 54.4393 131.965C53.7777 131.965 53.2388 132.162 52.8227 132.557C52.4172 132.941 52.2038 133.442 52.1824 134.061H50.7419C50.7526 133.421 50.918 132.84 51.2381 132.317C51.5582 131.783 51.9957 131.367 52.5506 131.068C53.1054 130.759 53.735 130.604 54.4393 130.604C55.1542 130.604 55.7838 130.748 56.328 131.036C56.8828 131.314 57.3097 131.698 57.6085 132.189C57.9072 132.68 58.0566 133.224 58.0566 133.821C58.0566 134.472 57.8806 135.08 57.5284 135.646C57.187 136.211 56.6908 136.825 56.0399 137.487L52.9827 140.592ZM65.0695 138.271H66.3019V139.631H65.0695V141.984H63.6289V139.631H58.507V138.383L63.3248 130.78H65.0695V138.271ZM63.6289 138.271V132.781L60.1556 138.271H63.6289ZM68.2214 145.186H66.8929L71.5026 130.78H72.8311L68.2214 145.186ZM73.2168 132.173V130.78H80.2914V131.901L76.0178 141.984H74.4332L78.6108 132.173H73.2168Z" fill="white"/>
<path d="M423.934 121.872L407.252 141.511H414.747L423.934 130.533V141.372H429.403V102.232H423.934V113.257L414.747 102.232H407.252L423.934 121.872Z" fill="url(#paint1_linear_235_517)"/>
<path d="M390.914 121.872L407.596 141.511H400.101L390.914 130.533V141.372H385.445V102.232H390.914V113.257L400.101 102.232H407.596L390.914 121.872Z" fill="url(#paint2_linear_235_517)"/>
<path d="M70.5736 377.928C70.7478 377.499 71.0427 377.131 71.4582 376.823C71.8737 376.501 72.3897 376.34 73.0062 376.34C73.5424 376.34 74.045 376.488 74.5141 376.782C74.9698 377.077 75.3384 377.513 75.6198 378.089C75.8879 378.652 76.0219 379.322 76.0219 380.1C76.0219 381.293 75.7137 382.237 75.0971 382.934C74.4672 383.618 73.6764 384.007 72.7248 384.101V382.392C73.2475 382.351 73.6697 382.144 73.9914 381.768C74.313 381.393 74.4739 380.85 74.4739 380.14C74.4739 379.456 74.3398 378.94 74.0718 378.592C73.7903 378.23 73.4083 378.049 72.9258 378.049C72.4433 378.049 72.0546 378.223 71.7597 378.572C71.4649 378.92 71.3174 379.416 71.3174 380.059V381.205H69.9101V380.12C69.9101 379.53 69.7828 379.081 69.5281 378.773C69.2735 378.451 68.9451 378.29 68.543 378.29C68.1141 378.29 67.7522 378.465 67.4573 378.813C67.1625 379.148 67.015 379.604 67.015 380.18C67.015 380.783 67.1692 381.259 67.4774 381.608C67.7723 381.943 68.161 382.144 68.6435 382.211V383.899C67.7321 383.819 66.9748 383.45 66.3717 382.794C65.7685 382.124 65.467 381.219 65.467 380.08C65.467 379.383 65.6077 378.773 65.8892 378.25C66.1572 377.714 66.5258 377.305 66.9949 377.024C67.4506 376.729 67.9465 376.581 68.4827 376.581C69.0188 376.581 69.4544 376.715 69.7895 376.983C70.1246 377.252 70.3859 377.566 70.5736 377.928ZM65.467 370.583C65.467 369.819 65.6345 369.142 65.9696 368.552C66.2913 367.963 66.7537 367.507 67.3568 367.185C67.9465 366.85 68.6234 366.683 69.3874 366.683H75.8008V367.989L74.5342 368.351V368.452C74.9095 368.72 75.2513 369.109 75.5595 369.618C75.8678 370.127 76.0219 370.75 76.0219 371.488C76.0219 372.158 75.8879 372.748 75.6198 373.257C75.3518 373.766 74.9899 374.162 74.5342 374.443C74.0651 374.725 73.5491 374.865 72.9861 374.865C72.3562 374.865 71.7999 374.678 71.3174 374.302C70.8215 373.914 70.4395 373.377 70.1715 372.694C69.9034 371.997 69.7694 371.206 69.7694 370.322V368.432H69.307C68.6234 368.432 68.0806 368.633 67.6785 369.035C67.263 369.424 67.0552 369.94 67.0552 370.583C67.0552 371.186 67.2094 371.662 67.5176 372.01C67.8259 372.359 68.2213 372.58 68.7038 372.674V374.423C68.1275 374.356 67.5914 374.162 67.0954 373.84C66.5995 373.505 66.2041 373.056 65.9093 372.493C65.6144 371.93 65.467 371.293 65.467 370.583ZM74.494 371.206C74.494 370.375 74.2527 369.705 73.7702 369.196C73.2743 368.686 72.6577 368.432 71.9206 368.432H71.1566V370.201C71.1566 371.139 71.3107 371.863 71.619 372.372C71.9273 372.882 72.3562 373.136 72.9057 373.136C73.3882 373.136 73.7769 372.969 74.0718 372.634C74.3532 372.299 74.494 371.823 74.494 371.206ZM79.4196 364.052H65.6881V362.765L66.9547 362.383V362.283C66.633 362.041 66.3047 361.646 65.9696 361.096C65.6345 360.533 65.467 359.89 65.467 359.166C65.467 358.322 65.6948 357.545 66.1505 356.834C66.5928 356.124 67.2161 355.561 68.0203 355.145C68.8244 354.716 69.7292 354.502 70.7344 354.502C71.7396 354.502 72.6443 354.716 73.4485 355.145C74.2527 355.561 74.8827 356.124 75.3384 356.834C75.7941 357.545 76.0219 358.322 76.0219 359.166C76.0219 359.863 75.8611 360.493 75.5394 361.056C75.2043 361.619 74.8827 362.008 74.5744 362.222V362.323H79.4196V364.052ZM74.3935 359.267C74.3935 358.717 74.2393 358.215 73.931 357.759C73.6228 357.29 73.1939 356.921 72.6443 356.653C72.0814 356.372 71.4448 356.231 70.7344 356.231C70.024 356.231 69.3941 356.372 68.8446 356.653C68.295 356.921 67.8661 357.29 67.5578 357.759C67.2496 358.215 67.0954 358.717 67.0954 359.267C67.0954 359.816 67.2496 360.326 67.5578 360.795C67.8661 361.264 68.295 361.639 68.8446 361.921C69.3941 362.189 70.024 362.323 70.7344 362.323C71.4448 362.323 72.0814 362.189 72.6443 361.921C73.1939 361.639 73.6228 361.264 73.931 360.795C74.2393 360.326 74.3935 359.816 74.3935 359.267ZM65.467 348.75C65.467 347.987 65.6345 347.31 65.9696 346.72C66.2913 346.13 66.7537 345.674 67.3568 345.353C67.9465 345.018 68.6234 344.85 69.3874 344.85H75.8008V346.157L74.5342 346.519V346.619C74.9095 346.887 75.2513 347.276 75.5595 347.785C75.8678 348.295 76.0219 348.918 76.0219 349.655C76.0219 350.325 75.8879 350.915 75.6198 351.424C75.3518 351.934 74.9899 352.329 74.5342 352.611C74.0651 352.892 73.5491 353.033 72.9861 353.033C72.3562 353.033 71.7999 352.845 71.3174 352.47C70.8215 352.081 70.4395 351.545 70.1715 350.861C69.9034 350.165 69.7694 349.374 69.7694 348.489V346.599H69.307C68.6234 346.599 68.0806 346.8 67.6785 347.202C67.263 347.591 67.0552 348.107 67.0552 348.75C67.0552 349.354 67.2094 349.829 67.5176 350.178C67.8259 350.526 68.2213 350.748 68.7038 350.841V352.59C68.1275 352.523 67.5914 352.329 67.0954 352.007C66.5995 351.672 66.2041 351.223 65.9093 350.66C65.6144 350.097 65.467 349.461 65.467 348.75ZM74.494 349.374C74.494 348.543 74.2527 347.873 73.7702 347.363C73.2743 346.854 72.6577 346.599 71.9206 346.599H71.1566V348.368C71.1566 349.307 71.3107 350.03 71.619 350.54C71.9273 351.049 72.3562 351.304 72.9057 351.304C73.3882 351.304 73.7769 351.136 74.0718 350.801C74.3532 350.466 74.494 349.99 74.494 349.374ZM76.0219 337.796C76.0219 338.708 75.8008 339.532 75.3585 340.269C74.9028 340.993 74.2125 341.569 73.2877 341.998C72.3629 342.427 71.2236 342.641 69.8699 342.641C67.5646 342.641 65.7417 342.206 64.4014 341.335C63.0611 340.463 62.2502 339.09 61.9687 337.213C61.7677 335.846 61.6002 334.787 61.4661 334.037H63.0946L63.4364 336.007L63.5972 336.992C63.7983 338.319 64.2674 339.271 65.0046 339.847C65.7283 340.423 66.6196 340.778 67.6785 340.912V340.812C67.263 340.557 66.881 340.148 66.5325 339.586C66.184 339.023 66.0098 338.346 66.0098 337.555C66.0098 336.751 66.2242 336.007 66.6531 335.323C67.0686 334.64 67.6584 334.097 68.4224 333.695C69.1863 333.279 70.0508 333.072 71.0159 333.072C71.9943 333.072 72.8655 333.286 73.6295 333.715C74.38 334.13 74.9698 334.7 75.3987 335.424C75.8142 336.134 76.0219 336.925 76.0219 337.796ZM74.3935 337.796C74.3935 337.247 74.2594 336.744 73.9914 336.288C73.7099 335.833 73.3145 335.471 72.8052 335.203C72.2959 334.935 71.6994 334.801 71.0159 334.801C70.3323 334.801 69.7359 334.935 69.2265 335.203C68.7038 335.471 68.3084 335.833 68.0404 336.288C67.7589 336.744 67.6182 337.247 67.6182 337.796C67.6182 338.346 67.7589 338.855 68.0404 339.324C68.3084 339.78 68.7038 340.142 69.2265 340.41C69.7359 340.678 70.3323 340.812 71.0159 340.812C71.6994 340.812 72.2959 340.678 72.8052 340.41C73.3145 340.142 73.7099 339.78 73.9914 339.324C74.2594 338.855 74.3935 338.346 74.3935 337.796ZM76.0219 326.707C76.0219 327.592 75.7941 328.409 75.3384 329.16C74.8693 329.897 74.2326 330.487 73.4284 330.929C72.6108 331.371 71.7128 331.593 70.7344 331.593C69.756 331.593 68.8647 331.371 68.0605 330.929C67.2563 330.487 66.6263 329.897 66.1706 329.16C65.7015 328.409 65.467 327.592 65.467 326.707C65.467 325.836 65.7015 325.025 66.1706 324.274C66.6263 323.524 67.2563 322.927 68.0605 322.485C68.8647 322.043 69.756 321.822 70.7344 321.822C71.7128 321.822 72.6108 322.043 73.4284 322.485C74.2326 322.927 74.8693 323.524 75.3384 324.274C75.7941 325.025 76.0219 325.836 76.0219 326.707ZM74.3935 326.707C74.3935 326.144 74.2393 325.621 73.931 325.139C73.6228 324.656 73.1939 324.274 72.6443 323.993C72.0814 323.711 71.4448 323.571 70.7344 323.571C70.024 323.571 69.3941 323.711 68.8446 323.993C68.295 324.274 67.8661 324.656 67.5578 325.139C67.2496 325.621 67.0954 326.144 67.0954 326.707C67.0954 327.27 67.2496 327.793 67.5578 328.275C67.8661 328.758 68.295 329.146 68.8446 329.441C69.3941 329.723 70.024 329.864 70.7344 329.864C71.4448 329.864 72.0814 329.723 72.6443 329.441C73.1939 329.146 73.6228 328.764 73.931 328.295C74.2393 327.813 74.3935 327.283 74.3935 326.707ZM75.8008 316.312V318.061H67.3166V321.217H65.6881V313.155H67.3166V316.312H75.8008ZM65.467 308.266C65.467 307.502 65.6345 306.825 65.9696 306.236C66.2913 305.646 66.7537 305.19 67.3568 304.868C67.9465 304.533 68.6234 304.366 69.3874 304.366H75.8008V305.673L74.5342 306.035V306.135C74.9095 306.403 75.2513 306.792 75.5595 307.301C75.8678 307.81 76.0219 308.434 76.0219 309.171C76.0219 309.841 75.8879 310.431 75.6198 310.94C75.3518 311.449 74.9899 311.845 74.5342 312.126C74.0651 312.408 73.5491 312.548 72.9861 312.548C72.3562 312.548 71.7999 312.361 71.3174 311.986C70.8215 311.597 70.4395 311.061 70.1715 310.377C69.9034 309.68 69.7694 308.889 69.7694 308.005V306.115H69.307C68.6234 306.115 68.0806 306.316 67.6785 306.718C67.263 307.107 67.0552 307.623 67.0552 308.266C67.0552 308.869 67.2094 309.345 67.5176 309.694C67.8259 310.042 68.2213 310.263 68.7038 310.357V312.106C68.1275 312.039 67.5914 311.845 67.0954 311.523C66.5995 311.188 66.2041 310.739 65.9093 310.176C65.6144 309.613 65.467 308.977 65.467 308.266ZM74.494 308.889C74.494 308.058 74.2527 307.388 73.7702 306.879C73.2743 306.37 72.6577 306.115 71.9206 306.115H71.1566V307.884C71.1566 308.822 71.3107 309.546 71.619 310.056C71.9273 310.565 72.3562 310.819 72.9057 310.819C73.3882 310.819 73.7769 310.652 74.0718 310.317C74.3532 309.982 74.494 309.506 74.494 308.889ZM73.1067 300.026L65.6881 294.618V293.09H75.8008V294.799H68.3821L75.8008 300.207V301.735H65.6881V300.026H73.1067ZM64.3612 297.292C64.3612 298.15 64.1132 298.84 63.6173 299.363C63.1214 299.872 62.4982 300.153 61.7476 300.207V298.86C62.1765 298.82 62.5183 298.672 62.7729 298.418C63.0142 298.15 63.1348 297.774 63.1348 297.292C63.1348 296.823 63.0142 296.461 62.7729 296.206C62.5183 295.938 62.1765 295.777 61.7476 295.724V294.397C62.4848 294.437 63.108 294.718 63.6173 295.241C64.1132 295.764 64.3612 296.447 64.3612 297.292ZM89.9101 376.32H85.6881V374.571H95.8008V376.32H91.5386V381.406H95.8008V383.136H85.6881V381.406H89.9101V376.32ZM90.4931 362.94C90.9488 362.94 91.2839 362.967 91.4984 363.02V370.7C92.4098 370.566 93.1269 370.218 93.6496 369.655C94.1723 369.092 94.4337 368.395 94.4337 367.564C94.4337 366.465 93.9847 365.634 93.0866 365.071V363.282C93.9042 363.603 94.6012 364.153 95.1775 364.93C95.7405 365.708 96.0219 366.592 96.0219 367.584C96.0219 368.482 95.7941 369.306 95.3384 370.057C94.8827 370.807 94.2527 371.397 93.4485 371.826C92.6443 372.255 91.7396 372.469 90.7344 372.469C89.756 372.469 88.8647 372.248 88.0605 371.806C87.2563 371.364 86.6263 370.774 86.1706 370.037C85.7015 369.286 85.467 368.475 85.467 367.604C85.467 366.733 85.6881 365.942 86.1304 365.232C86.5727 364.521 87.1759 363.965 87.9398 363.563C88.7038 363.148 89.5549 362.94 90.4931 362.94ZM87.0552 367.604C87.0552 368.382 87.3367 369.065 87.8996 369.655C88.4492 370.231 89.1729 370.586 90.0709 370.72V364.629C89.1863 364.736 88.4626 365.064 87.8996 365.614C87.3367 366.15 87.0552 366.813 87.0552 367.604ZM89.9101 349.147H85.6881V347.398H95.8008V349.147H91.5386V354.234H95.8008V355.963H85.6881V354.234H89.9101V349.147ZM85.467 341.035C85.467 340.271 85.6345 339.594 85.9696 339.004C86.2913 338.414 86.7537 337.958 87.3568 337.637C87.9465 337.302 88.6234 337.134 89.3874 337.134H95.8008V338.441L94.5342 338.803V338.903C94.9095 339.171 95.2513 339.56 95.5595 340.069C95.8678 340.579 96.0219 341.202 96.0219 341.939C96.0219 342.609 95.8879 343.199 95.6198 343.708C95.3518 344.218 94.9899 344.613 94.5342 344.895C94.0651 345.176 93.5491 345.317 92.9861 345.317C92.3562 345.317 91.7999 345.129 91.3174 344.754C90.8215 344.365 90.4395 343.829 90.1715 343.146C89.9034 342.449 89.7694 341.658 89.7694 340.773V338.883H89.307C88.6234 338.883 88.0806 339.084 87.6785 339.486C87.263 339.875 87.0552 340.391 87.0552 341.035C87.0552 341.638 87.2094 342.113 87.5176 342.462C87.8259 342.81 88.2213 343.032 88.7038 343.125V344.875C88.1275 344.807 87.5914 344.613 87.0954 344.291C86.5995 343.956 86.2041 343.507 85.9093 342.944C85.6144 342.382 85.467 341.745 85.467 341.035ZM94.494 341.658C94.494 340.827 94.2527 340.157 93.7702 339.647C93.2743 339.138 92.6577 338.883 91.9206 338.883H91.1566V340.653C91.1566 341.591 91.3107 342.315 91.619 342.824C91.9273 343.333 92.3562 343.588 92.9057 343.588C93.3882 343.588 93.7769 343.42 94.0718 343.085C94.3532 342.75 94.494 342.274 94.494 341.658ZM95.8008 332.774V334.503H85.6881V326.12H95.8008V327.849H87.3166V332.774H95.8008ZM99.4196 323.391H85.6881V322.104L86.9547 321.722V321.622C86.633 321.38 86.3047 320.985 85.9696 320.435C85.6345 319.872 85.467 319.229 85.467 318.505C85.467 317.661 85.6948 316.884 86.1505 316.173C86.5928 315.463 87.2161 314.9 88.0203 314.484C88.8244 314.055 89.7292 313.841 90.7344 313.841C91.7396 313.841 92.6443 314.055 93.4485 314.484C94.2527 314.9 94.8827 315.463 95.3384 316.173C95.7941 316.884 96.0219 317.661 96.0219 318.505C96.0219 319.202 95.8611 319.832 95.5394 320.395C95.2043 320.958 94.8827 321.347 94.5744 321.561V321.662H99.4196V323.391ZM94.3935 318.606C94.3935 318.056 94.2393 317.554 93.931 317.098C93.6228 316.629 93.1939 316.26 92.6443 315.992C92.0814 315.711 91.4448 315.57 90.7344 315.57C90.024 315.57 89.3941 315.711 88.8446 315.992C88.295 316.26 87.8661 316.629 87.5578 317.098C87.2496 317.554 87.0954 318.056 87.0954 318.606C87.0954 319.155 87.2496 319.665 87.5578 320.134C87.8661 320.603 88.295 320.978 88.8446 321.26C89.3941 321.528 90.024 321.662 90.7344 321.662C91.4448 321.662 92.0814 321.528 92.6443 321.26C93.1939 320.978 93.6228 320.603 93.931 320.134C94.2393 319.665 94.3935 319.155 94.3935 318.606ZM85.6881 304.511H95.8008V306.24H92.1819V308.371L95.8008 310.582V312.593L91.9206 310.1C91.6793 310.743 91.2906 311.259 90.7545 311.648C90.2184 312.023 89.6085 312.211 88.925 312.211C88.3218 312.211 87.7723 312.064 87.2764 311.769C86.7805 311.46 86.3918 311.045 86.1103 310.522C85.8288 309.986 85.6881 309.383 85.6881 308.713V304.511ZM87.2161 308.592C87.2161 309.142 87.3769 309.597 87.6986 309.959C88.0203 310.308 88.4291 310.482 88.925 310.482C89.4477 310.482 89.8632 310.314 90.1715 309.979C90.4797 309.631 90.6339 309.168 90.6339 308.592V306.22H87.2161V308.592ZM95.8008 300.045V301.774H85.6881V295.12H87.3166V300.045H95.8008ZM85.467 290.302C85.467 289.538 85.6345 288.861 85.9696 288.271C86.2913 287.681 86.7537 287.226 87.3568 286.904C87.9465 286.569 88.6234 286.401 89.3874 286.401H95.8008V287.708L94.5342 288.07V288.17C94.9095 288.438 95.2513 288.827 95.5595 289.337C95.8678 289.846 96.0219 290.469 96.0219 291.206C96.0219 291.876 95.8879 292.466 95.6198 292.975C95.3518 293.485 94.9899 293.88 94.5342 294.162C94.0651 294.443 93.5491 294.584 92.9861 294.584C92.3562 294.584 91.7999 294.396 91.3174 294.021C90.8215 293.632 90.4395 293.096 90.1715 292.413C89.9034 291.716 89.7694 290.925 89.7694 290.04V288.15H89.307C88.6234 288.15 88.0806 288.351 87.6785 288.753C87.263 289.142 87.0552 289.658 87.0552 290.302C87.0552 290.905 87.2094 291.38 87.5176 291.729C87.8259 292.077 88.2213 292.299 88.7038 292.392V294.142C88.1275 294.075 87.5914 293.88 87.0954 293.558C86.5995 293.223 86.2041 292.774 85.9093 292.211C85.6144 291.649 85.467 291.012 85.467 290.302ZM94.494 290.925C94.494 290.094 94.2527 289.424 93.7702 288.914C93.2743 288.405 92.6577 288.15 91.9206 288.15H91.1566V289.92C91.1566 290.858 91.3107 291.582 91.619 292.091C91.9273 292.6 92.3562 292.855 92.9057 292.855C93.3882 292.855 93.7769 292.687 94.0718 292.352C94.3532 292.017 94.494 291.541 94.494 290.925ZM85.6881 276.553H95.8008V278.282H92.1819V280.413L95.8008 282.624V284.635L91.9206 282.142C91.6793 282.785 91.2906 283.301 90.7545 283.69C90.2184 284.065 89.6085 284.253 88.925 284.253C88.3218 284.253 87.7723 284.105 87.2764 283.811C86.7805 283.502 86.3918 283.087 86.1103 282.564C85.8288 282.028 85.6881 281.425 85.6881 280.755V276.553ZM87.2161 280.634C87.2161 281.184 87.3769 281.639 87.6986 282.001C88.0203 282.35 88.4291 282.524 88.925 282.524C89.4477 282.524 89.8632 282.356 90.1715 282.021C90.4797 281.673 90.6339 281.21 90.6339 280.634V278.262H87.2161V280.634ZM96.0219 269.554C96.0219 270.439 95.7941 271.256 95.3384 272.007C94.8693 272.744 94.2326 273.334 93.4284 273.776C92.6108 274.218 91.7128 274.439 90.7344 274.439C89.756 274.439 88.8647 274.218 88.0605 273.776C87.2563 273.334 86.6263 272.744 86.1706 272.007C85.7015 271.256 85.467 270.439 85.467 269.554C85.467 268.777 85.6479 268.073 86.0098 267.443C86.3717 266.8 86.8475 266.27 87.4372 265.855C88.027 265.439 88.6636 265.164 89.3472 265.03V266.759C88.6904 266.947 88.1543 267.282 87.7388 267.765C87.3099 268.234 87.0954 268.83 87.0954 269.554C87.0954 270.117 87.2496 270.64 87.5578 271.122C87.8661 271.605 88.295 271.993 88.8446 272.288C89.3941 272.57 90.024 272.71 90.7344 272.71C91.4448 272.71 92.0814 272.57 92.6443 272.288C93.1939 271.993 93.6228 271.611 93.931 271.142C94.2393 270.66 94.3935 270.13 94.3935 269.554C94.3935 268.83 94.1857 268.234 93.7702 267.765C93.3413 267.282 92.7985 266.947 92.1417 266.759V265.03C92.8253 265.164 93.4619 265.439 94.0517 265.855C94.6414 266.27 95.1172 266.8 95.4791 267.443C95.841 268.073 96.0219 268.777 96.0219 269.554ZM89.2064 258.876C89.2064 257.831 89.5147 256.986 90.1313 256.343C90.7344 255.7 91.5252 255.378 92.5036 255.378C93.482 255.378 94.2795 255.7 94.8961 256.343C95.4992 256.986 95.8008 257.831 95.8008 258.876V263.018H85.6881V261.289H89.2064V258.876ZM94.2527 259.037C94.2527 258.434 94.0986 257.965 93.7903 257.63C93.482 257.281 93.0531 257.107 92.5036 257.107C91.9541 257.107 91.5252 257.281 91.2169 257.63C90.8952 257.965 90.7344 258.434 90.7344 259.037V261.289H94.2527V259.037Z" fill="#C8AE1B"/>
</g>
<defs>
<linearGradient id="paint0_linear_235_517" x1="0" y1="0" x2="480" y2="732" gradientUnits="userSpaceOnUse">
<stop stop-color="#1D1D1D"/>
<stop offset="0.838542"/>
</linearGradient>
<linearGradient id="paint1_linear_235_517" x1="380.641" y1="121.872" x2="554.966" y2="121.872" gradientUnits="userSpaceOnUse">
<stop stop-color="#E9D01F"/>
<stop offset="1" stop-color="#6B4E0E"/>
</linearGradient>
<linearGradient id="paint2_linear_235_517" x1="434.205" y1="121.872" x2="259.883" y2="121.872" gradientUnits="userSpaceOnUse">
<stop stop-color="#E9D01F"/>
<stop offset="1" stop-color="#6B4E0E"/>
</linearGradient>
<clipPath id="clip0_235_517">
<rect width="480" height="718.743" fill="white"/>
</clipPath>
</defs>
</svg>
