<svg width="480" height="720" viewBox="0 0 480 720" fill="none" xmlns="http://www.w3.org/2000/svg">
<rect width="480" height="718.743" fill="url(#paint0_linear_235_499)"/>
<path d="M450.29 49.8619L429.168 74.4395H438.657L450.29 60.7012V74.2657H457.213V25.2825H450.29V39.0799L438.657 25.2825H429.168L450.29 49.8619Z" fill="url(#paint1_linear_235_499)"/>
<path d="M408.478 49.8619L429.6 74.4395H420.11L408.478 60.7012V74.2657H401.555V25.2825H408.478V39.0799L420.11 25.2825H429.6L408.478 49.8619Z" fill="url(#paint2_linear_235_499)"/>
<path fill-rule="evenodd" clip-rule="evenodd" d="M167.136 425.009C167.148 424.546 167.153 424.058 167.153 423.544C167.153 417.848 165.892 412.681 163.369 408.043C160.928 403.404 157.551 399.743 153.239 397.057C148.926 394.372 144.125 393.029 138.836 393.029C133.546 393.029 128.623 394.453 124.067 397.301C119.591 400.068 116.011 403.893 113.325 408.775C110.64 413.657 109.297 419.069 109.297 425.009H167.136ZM126.386 407.799C129.966 404.381 134.116 402.672 138.836 402.672C143.637 402.672 147.665 404.381 150.919 407.799C154.256 411.216 156.249 415.61 156.9 420.981H119.917C120.73 415.529 122.887 411.135 126.386 407.799Z" fill="white"/>
<path fill-rule="evenodd" clip-rule="evenodd" d="M80.6832 425.009V394.372H39.3052L36.6875 425.009H47.0876L48.9479 404.015H70.3082V425.009H80.6832Z" fill="white"/>
<path fill-rule="evenodd" clip-rule="evenodd" d="M233.535 394.372V420.004H202.654V394.372H192.157V425.07H244.154V394.372H233.535Z" fill="white"/>
<path fill-rule="evenodd" clip-rule="evenodd" d="M313.426 421.347C309.52 417.604 304.393 415.732 298.046 415.732H283.399V394.372H272.902V425.07H283.399V425.009H297.07H316.45C315.623 423.683 314.615 422.462 313.426 421.347Z" fill="white"/>
<path fill-rule="evenodd" clip-rule="evenodd" d="M342.8 394.372V424.765H353.297V404.259H383.201V394.372H342.8Z" fill="white"/>
<path fill-rule="evenodd" clip-rule="evenodd" d="M415.325 394.372V424.765H404.95V394.372H415.325ZM426.002 424.765L448.158 394.372H457.435V424.765H447.06V410.728L436.827 424.765H426.002Z" fill="white"/>
<path fill-rule="evenodd" clip-rule="evenodd" d="M167.136 464.068C167.148 463.605 167.153 463.117 167.153 462.603C167.153 456.907 165.892 451.74 163.369 447.102C160.928 442.463 157.551 438.802 153.239 436.116C148.926 433.431 144.125 432.088 138.836 432.088C133.546 432.088 128.623 433.512 124.067 436.36C119.591 439.127 116.011 442.952 113.325 447.834C110.64 452.716 109.297 458.128 109.297 464.068H167.136ZM126.386 446.857C129.966 443.44 134.116 441.731 138.836 441.731C143.637 441.731 147.665 443.44 150.919 446.857C154.256 450.275 156.249 454.669 156.9 460.04H119.917C120.73 454.588 122.887 450.194 126.386 446.857Z" fill="white"/>
<path fill-rule="evenodd" clip-rule="evenodd" d="M80.6832 464.068V433.431H39.3052L36.6875 464.068H47.0876L48.9479 443.074H70.3082V464.068H80.6832Z" fill="white"/>
<path fill-rule="evenodd" clip-rule="evenodd" d="M233.535 433.431V459.063H202.654V433.431H192.157V464.129H244.154V433.431H233.535Z" fill="white"/>
<path fill-rule="evenodd" clip-rule="evenodd" d="M313.426 460.406C309.52 456.663 304.393 454.791 298.046 454.791H283.399V433.431H272.902V464.129H283.399V464.068H297.07H316.45C315.623 462.742 314.615 461.521 313.426 460.406Z" fill="white"/>
<path fill-rule="evenodd" clip-rule="evenodd" d="M342.8 433.431V463.824H353.297V443.318H383.201V433.431H342.8Z" fill="white"/>
<path fill-rule="evenodd" clip-rule="evenodd" d="M415.325 433.431V463.824H404.95V433.431H415.325ZM426.002 463.824L448.158 433.431H457.435V463.824H447.06V449.787L436.827 463.824H426.002Z" fill="white"/>
<path fill-rule="evenodd" clip-rule="evenodd" d="M167.136 503.127C167.148 502.664 167.153 502.175 167.153 501.662C167.153 495.966 165.892 490.799 163.369 486.16C160.928 481.522 157.551 477.86 153.239 475.175C148.926 472.49 144.125 471.147 138.836 471.147C133.546 471.147 128.623 472.571 124.067 475.419C119.591 478.186 116.011 482.01 113.325 486.893C110.64 491.775 109.297 497.186 109.297 503.127H167.136ZM126.386 485.916C129.966 482.499 134.116 480.79 138.836 480.79C143.637 480.79 147.665 482.499 150.919 485.916C154.256 489.334 156.249 493.728 156.9 499.099H119.917C120.73 493.647 122.887 489.253 126.386 485.916Z" fill="white"/>
<path fill-rule="evenodd" clip-rule="evenodd" d="M80.6832 503.127V472.49H39.3052L36.6875 503.127H47.0876L48.9479 482.132H70.3082V503.127H80.6832Z" fill="white"/>
<path fill-rule="evenodd" clip-rule="evenodd" d="M233.535 472.49V498.122H202.654V472.49H192.157V503.188H244.154V472.49H233.535Z" fill="white"/>
<path fill-rule="evenodd" clip-rule="evenodd" d="M313.426 499.465C309.52 495.722 304.393 493.85 298.046 493.85H283.399V472.49H272.902V503.188H283.399V503.127H297.07H316.45C315.623 501.8 314.615 500.58 313.426 499.465Z" fill="white"/>
<path fill-rule="evenodd" clip-rule="evenodd" d="M342.8 472.49V502.882H353.297V482.377H383.201V472.49H342.8Z" fill="white"/>
<path fill-rule="evenodd" clip-rule="evenodd" d="M415.325 472.49V502.882H404.95V472.49H415.325ZM426.002 502.882L448.158 472.49H457.435V502.882H447.06V488.846L436.827 502.882H426.002Z" fill="white"/>
<path fill-rule="evenodd" clip-rule="evenodd" d="M166.665 600.529C166.991 599.227 167.153 597.193 167.153 594.426C167.153 588.73 165.892 583.563 163.369 578.925C160.928 574.287 157.551 570.625 153.239 567.94C148.926 565.254 144.125 563.912 138.836 563.912C133.546 563.912 128.623 565.336 124.067 568.184C119.591 570.95 116.011 574.775 113.325 579.657C110.64 584.54 109.297 589.951 109.297 595.891C109.297 601.144 110.262 605.945 112.191 610.294H123.58C121.78 607.6 120.6 604.345 120.039 600.529H166.665ZM126.386 578.681C129.966 575.263 134.116 573.554 138.836 573.554C143.637 573.554 147.665 575.263 150.919 578.681C154.256 582.099 156.249 586.493 156.9 591.863H119.917C120.73 586.411 122.887 582.017 126.386 578.681Z" fill="white"/>
<path fill-rule="evenodd" clip-rule="evenodd" d="M80.6832 610.294V565.254H39.3052L36.0097 603.825C35.8428 606.228 35.3749 608.384 34.6058 610.294H45.1843C45.758 608.408 46.1582 606.251 46.3847 603.825L48.9479 574.897H70.3082V610.294H80.6832Z" fill="white"/>
<path fill-rule="evenodd" clip-rule="evenodd" d="M233.535 590.887V565.254H244.154V610.294H233.535V600.774H202.654V610.294L192.157 610.172V565.254H202.654V590.887H233.535Z" fill="white"/>
<path fill-rule="evenodd" clip-rule="evenodd" d="M313.426 592.229C309.52 588.486 304.393 586.615 298.046 586.615H283.399V565.254H272.902V610.294H283.399V595.891H297.07C300.731 595.891 303.579 596.868 305.614 598.821C307.729 600.692 308.787 603.296 308.787 606.632C308.787 607.971 308.617 609.191 308.277 610.294H319.016C319.195 609.124 319.284 607.903 319.284 606.632C319.284 600.692 317.331 595.891 313.426 592.229Z" fill="white"/>
<path fill-rule="evenodd" clip-rule="evenodd" d="M342.8 565.254V610.294H353.297V575.141H383.201V565.254H342.8Z" fill="white"/>
<path fill-rule="evenodd" clip-rule="evenodd" d="M415.325 610.294L448.158 565.254H457.435V610.294H447.06V581.61L426.149 610.294H415.325ZM415.325 565.254V610.294H404.95V565.254H415.325Z" fill="white"/>
<path fill-rule="evenodd" clip-rule="evenodd" d="M166.665 546.823C166.991 545.522 167.153 543.487 167.153 540.721C167.153 535.024 165.892 529.857 163.369 525.219C160.928 520.581 157.551 516.919 153.239 514.234C148.926 511.548 144.125 510.206 138.836 510.206C133.546 510.206 128.623 511.63 124.067 514.478C119.591 517.245 116.011 521.069 113.325 525.951C110.64 530.834 109.297 536.245 109.297 542.185C109.297 547.438 110.262 552.239 112.191 556.588H123.58C121.78 553.894 120.6 550.64 120.039 546.823H166.665ZM126.386 524.975C129.966 521.557 134.116 519.848 138.836 519.848C143.637 519.848 147.665 521.557 150.919 524.975C154.256 528.393 156.249 532.787 156.9 538.157H119.917C120.73 532.705 122.887 528.311 126.386 524.975Z" fill="white"/>
<path fill-rule="evenodd" clip-rule="evenodd" d="M80.6832 556.588V511.548H39.3052L36.0097 550.119C35.8428 552.522 35.3749 554.678 34.6058 556.588H45.1843C45.758 554.702 46.1582 552.546 46.3847 550.119L48.9479 521.191H70.3082V556.588H80.6832Z" fill="white"/>
<path fill-rule="evenodd" clip-rule="evenodd" d="M233.535 537.181V511.548H244.154V556.588H233.535V547.068H202.654V556.588L192.157 556.466V511.548H202.654V537.181H233.535Z" fill="white"/>
<path fill-rule="evenodd" clip-rule="evenodd" d="M313.426 538.523C309.52 534.78 304.393 532.909 298.046 532.909H283.399V511.548H272.902V556.588H283.399V542.185H297.07C300.731 542.185 303.579 543.162 305.614 545.115C307.729 546.986 308.787 549.59 308.787 552.926C308.787 554.265 308.617 555.485 308.277 556.588H319.016C319.195 555.418 319.284 554.197 319.284 552.926C319.284 546.986 317.331 542.185 313.426 538.523Z" fill="white"/>
<path fill-rule="evenodd" clip-rule="evenodd" d="M342.8 511.548V556.588H353.297V521.435H383.201V511.548H342.8Z" fill="white"/>
<path fill-rule="evenodd" clip-rule="evenodd" d="M415.325 556.588L448.158 511.548H457.435V556.588H447.06V527.904L426.149 556.588H415.325ZM415.325 511.548V556.588H404.95V511.548H415.325Z" fill="white"/>
<path d="M80.6832 670.713H90.2038V695.979H79.8288V680.356H34.7891V695.979H24.4141V670.713H29.4185C33.4057 667.784 35.6028 663.39 36.0097 657.531L39.3052 618.96H80.6832V670.713ZM70.3082 670.713V628.603H48.9479L46.3847 657.531C45.815 663.634 44.1469 668.028 41.3802 670.713H70.3082Z" fill="white"/>
<path d="M167.153 648.132C167.153 650.899 166.991 652.933 166.665 654.235H120.039C120.852 659.769 122.968 664.122 126.386 667.296C129.803 670.469 134.035 672.056 139.08 672.056C145.752 672.056 150.797 669.33 154.215 663.878H165.078C163.125 668.842 159.789 673.073 155.069 676.572C150.35 679.99 144.979 681.699 138.958 681.699C133.506 681.699 128.501 680.315 123.944 677.549C119.388 674.782 115.807 670.957 113.203 666.075C110.599 661.193 109.297 655.7 109.297 649.597C109.297 643.657 110.64 638.246 113.325 633.363C116.011 628.481 119.591 624.656 124.067 621.89C128.623 619.042 133.546 617.618 138.836 617.618C144.125 617.618 148.926 618.96 153.239 621.646C157.551 624.331 160.928 627.993 163.369 632.631C165.892 637.269 167.153 642.436 167.153 648.132ZM138.836 627.26C134.116 627.26 129.966 628.969 126.386 632.387C122.887 635.723 120.73 640.117 119.917 645.569H156.9C156.249 640.199 154.256 635.804 150.919 632.387C147.665 628.969 143.637 627.26 138.836 627.26Z" fill="white"/>
<path d="M233.535 644.593V618.96H244.154V680.356H233.535V654.479H202.654V680.356H192.157V618.96H202.654V644.593H233.535Z" fill="white"/>
<path d="M298.046 640.321C304.393 640.321 309.52 642.192 313.426 645.935C317.331 649.597 319.284 654.398 319.284 660.338C319.284 666.278 317.331 671.12 313.426 674.863C309.52 678.525 304.393 680.356 298.046 680.356H272.902V618.96H283.399V640.321H298.046ZM297.07 670.957C300.731 670.957 303.579 670.022 305.614 668.15C307.729 666.278 308.787 663.675 308.787 660.338C308.787 657.002 307.729 654.398 305.614 652.526C303.579 650.574 300.731 649.597 297.07 649.597H283.399V670.957H297.07Z" fill="white"/>
<path d="M353.297 680.356H342.8V618.96H383.201V628.847H353.297V680.356Z" fill="white"/>
<path d="M415.325 664L448.158 618.96H457.435V680.356H447.06V635.316L414.226 680.356H404.95V618.96H415.325V664Z" fill="white"/>
<path fill-rule="evenodd" clip-rule="evenodd" d="M80.6832 388.147V374.843H39.3052L38.1685 388.147H48.6234L48.9479 384.485H70.3082V388.147H80.6832Z" fill="white"/>
<path fill-rule="evenodd" clip-rule="evenodd" d="M124.067 377.772C119.894 380.351 116.499 383.85 113.883 388.269H126.386C129.966 384.851 134.116 383.143 138.836 383.143C143.637 383.143 147.665 384.851 150.919 388.269H163.24C160.809 383.746 157.475 380.166 153.239 377.528C148.926 374.843 144.125 373.5 138.836 373.5C133.546 373.5 128.623 374.924 124.067 377.772Z" fill="white"/>
<path fill-rule="evenodd" clip-rule="evenodd" d="M233.535 374.843V388.147H244.154V374.843H233.535ZM202.654 388.269V374.843H192.157V388.269H202.654Z" fill="white"/>
<path fill-rule="evenodd" clip-rule="evenodd" d="M283.399 388.147V374.843H272.902V388.147H283.399Z" fill="white"/>
<path fill-rule="evenodd" clip-rule="evenodd" d="M342.8 374.843V388.147H353.297V384.729H383.201V374.843H342.8Z" fill="white"/>
<path fill-rule="evenodd" clip-rule="evenodd" d="M415.325 388.147V374.843H404.95V388.147H415.325ZM448.158 374.843L438.46 388.147H457.435V374.843H448.158Z" fill="white"/>
<path fill-rule="evenodd" clip-rule="evenodd" d="M80.6832 366.176V352.872H39.3052L38.1685 366.176H48.6234L48.9479 362.515H70.3082V366.176H80.6832Z" fill="white"/>
<path fill-rule="evenodd" clip-rule="evenodd" d="M124.067 355.801C119.894 358.381 116.499 361.88 113.883 366.298H126.386C129.966 362.881 134.116 361.172 138.836 361.172C143.637 361.172 147.665 362.881 150.919 366.298H163.24C160.809 361.776 157.475 358.195 153.239 355.557C148.926 352.872 144.125 351.529 138.836 351.529C133.546 351.529 128.623 352.953 124.067 355.801Z" fill="white"/>
<path fill-rule="evenodd" clip-rule="evenodd" d="M233.535 352.872V366.176H244.154V352.872H233.535ZM202.654 366.298V352.872H192.157V366.298H202.654Z" fill="white"/>
<path fill-rule="evenodd" clip-rule="evenodd" d="M283.399 366.176V352.872H272.902V366.176H283.399Z" fill="white"/>
<path fill-rule="evenodd" clip-rule="evenodd" d="M342.8 352.872V366.176H353.297V362.759H383.201V352.872H342.8Z" fill="white"/>
<path fill-rule="evenodd" clip-rule="evenodd" d="M415.325 366.176V352.872H404.95V366.176H415.325ZM448.158 352.872L438.46 366.176H457.435V352.872H448.158Z" fill="white"/>
<path fill-rule="evenodd" clip-rule="evenodd" d="M80.6832 344.206V330.901H39.3052L38.1685 344.206H48.6234L48.9479 340.544H70.3082V344.206H80.6832Z" fill="white"/>
<path fill-rule="evenodd" clip-rule="evenodd" d="M124.067 333.831C119.894 336.41 116.499 339.909 113.883 344.328H126.386C129.966 340.91 134.116 339.201 138.836 339.201C143.637 339.201 147.665 340.91 150.919 344.328H163.24C160.809 339.805 157.475 336.225 153.239 333.587C148.926 330.901 144.125 329.559 138.836 329.559C133.546 329.559 128.623 330.983 124.067 333.831Z" fill="white"/>
<path fill-rule="evenodd" clip-rule="evenodd" d="M233.535 330.901V344.206H244.154V330.901H233.535ZM202.654 344.328V330.901H192.157V344.328H202.654Z" fill="white"/>
<path fill-rule="evenodd" clip-rule="evenodd" d="M283.399 344.206V330.901H272.902V344.206H283.399Z" fill="white"/>
<path fill-rule="evenodd" clip-rule="evenodd" d="M342.8 330.901V344.206H353.297V340.788H383.201V330.901H342.8Z" fill="white"/>
<path fill-rule="evenodd" clip-rule="evenodd" d="M415.325 344.206V330.901H404.95V344.206H415.325ZM448.158 330.901L438.46 344.206H457.435V330.901H448.158Z" fill="white"/>
<path fill-rule="evenodd" clip-rule="evenodd" d="M80.6832 324.676V311.372H39.3052L38.1685 324.676H48.6234L48.9479 321.015H70.3082V324.676H80.6832Z" fill="white"/>
<path fill-rule="evenodd" clip-rule="evenodd" d="M124.067 314.301C119.894 316.881 116.499 320.38 113.883 324.798H126.386C129.966 321.381 134.116 319.672 138.836 319.672C143.637 319.672 147.665 321.381 150.919 324.798H163.24C160.809 320.276 157.475 316.695 153.239 314.057C148.926 311.372 144.125 310.029 138.836 310.029C133.546 310.029 128.623 311.453 124.067 314.301Z" fill="white"/>
<path fill-rule="evenodd" clip-rule="evenodd" d="M233.535 311.372V324.676H244.154V311.372H233.535ZM202.654 324.798V311.372H192.157V324.798H202.654Z" fill="white"/>
<path fill-rule="evenodd" clip-rule="evenodd" d="M283.399 324.676V311.372H272.902V324.676H283.399Z" fill="white"/>
<path fill-rule="evenodd" clip-rule="evenodd" d="M342.8 311.372V324.676H353.297V321.259H383.201V311.372H342.8Z" fill="white"/>
<path fill-rule="evenodd" clip-rule="evenodd" d="M415.325 324.676V311.372H404.95V324.676H415.325ZM448.158 311.372L438.46 324.676H457.435V311.372H448.158Z" fill="white"/>
<path d="M46.9946 36.4057C47.6716 36.6807 48.2535 37.1462 48.7401 37.802C49.2478 38.4579 49.5017 39.2724 49.5017 40.2457C49.5017 41.0919 49.269 41.8853 48.8035 42.6258C48.3381 43.3451 47.6505 43.9269 46.7407 44.3712C45.8522 44.7944 44.7943 45.0059 43.5672 45.0059C41.6843 45.0059 40.1927 44.5193 39.0925 43.5461C38.0135 42.5518 37.4 41.3035 37.2519 39.8014H39.9494C40.0129 40.6265 40.3408 41.2929 40.9332 41.8007C41.5256 42.3084 42.3824 42.5623 43.5037 42.5623C44.5827 42.5623 45.3973 42.3508 45.9474 41.9276C46.5186 41.4833 46.8042 40.8804 46.8042 40.1187C46.8042 39.3571 46.5292 38.7435 45.9791 38.2781C45.429 37.8126 44.6462 37.5799 43.6307 37.5799H41.8218V35.3584H43.5355C44.4664 35.3584 45.1751 35.1574 45.6617 34.7554C46.1695 34.3535 46.4234 33.8351 46.4234 33.2004C46.4234 32.5234 46.1484 31.9522 45.5983 31.4867C45.0694 31.0213 44.35 30.7885 43.4403 30.7885C42.4882 30.7885 41.7371 31.0318 41.1871 31.5184C40.6581 31.9839 40.3408 32.5974 40.235 33.3591H37.5692C37.6962 31.9204 38.278 30.7251 39.3147 29.773C40.3725 28.8209 41.8006 28.3449 43.599 28.3449C44.6991 28.3449 45.6617 28.5671 46.4869 29.0114C47.3331 29.4345 47.9784 30.0163 48.4227 30.7568C48.8882 31.4761 49.1209 32.2589 49.1209 33.1052C49.1209 33.9515 48.9093 34.6391 48.4862 35.168C48.063 35.6969 47.5659 36.1095 46.9946 36.4057ZM58.5894 28.3449C59.7954 28.3449 60.8638 28.6094 61.7947 29.1383C62.7256 29.6461 63.4449 30.376 63.9527 31.328C64.4816 32.2589 64.7461 33.3274 64.7461 34.5333V44.6569H62.6833L62.112 42.6575H61.9534C61.5302 43.2499 60.9167 43.7894 60.1127 44.276C59.3087 44.7626 58.325 45.0059 57.1613 45.0059C56.1035 45.0059 55.1726 44.7944 54.3686 44.3712C53.5647 43.9481 52.9405 43.3769 52.4962 42.6575C52.0519 41.917 51.8298 41.1025 51.8298 40.2139C51.8298 39.2195 52.126 38.3415 52.7184 37.5799C53.3319 36.7971 54.1782 36.1941 55.2572 35.771C56.3574 35.3478 57.6056 35.1363 59.002 35.1363H61.9851V34.4064C61.9851 33.3274 61.6677 32.4705 61.033 31.8358C60.4195 31.1799 59.6049 30.852 58.5894 30.852C57.6374 30.852 56.8863 31.0953 56.3362 31.5819C55.7861 32.0685 55.437 32.6927 55.2889 33.4543H52.528C52.6338 32.5446 52.9405 31.6983 53.4483 30.9155C53.9772 30.1327 54.686 29.5085 55.5746 29.0431C56.4632 28.5776 57.4681 28.3449 58.5894 28.3449ZM57.6056 42.5941C58.9173 42.5941 59.9752 42.2132 60.7792 41.4516C61.5831 40.6688 61.9851 39.6956 61.9851 38.5319V37.326H59.1924C57.7114 37.326 56.5689 37.5693 55.765 38.0559C54.961 38.5425 54.559 39.2195 54.559 40.087C54.559 40.8486 54.8235 41.4622 55.3524 41.9276C55.8813 42.3719 56.6324 42.5941 57.6056 42.5941ZM68.8989 50.3692V28.694H70.93L71.533 30.6933H71.6916C72.0725 30.1856 72.6966 29.6672 73.564 29.1383C74.4526 28.6094 75.4681 28.3449 76.6106 28.3449C77.9435 28.3449 79.1706 28.7046 80.2919 29.4239C81.4132 30.1221 82.3018 31.1059 82.9577 32.3753C83.6347 33.6447 83.9732 35.0728 83.9732 36.6596C83.9732 38.2463 83.6347 39.6744 82.9577 40.9438C82.3018 42.2132 81.4132 43.2076 80.2919 43.9269C79.1706 44.6463 77.9435 45.0059 76.6106 45.0059C75.5104 45.0059 74.5161 44.7521 73.6275 44.2443C72.7389 43.7154 72.1253 43.2076 71.7868 42.721H71.6282V50.3692H68.8989ZM76.4519 42.4354C77.3194 42.4354 78.1127 42.1921 78.8321 41.7055C79.5726 41.2189 80.1544 40.5419 80.5775 39.6744C81.0218 38.7858 81.244 37.7809 81.244 36.6596C81.244 35.5383 81.0218 34.5439 80.5775 33.6764C80.1544 32.809 79.5726 32.132 78.8321 31.6454C78.1127 31.1588 77.3194 30.9155 76.4519 30.9155C75.5845 30.9155 74.7805 31.1588 74.04 31.6454C73.2995 32.132 72.7072 32.809 72.2629 33.6764C71.8397 34.5439 71.6282 35.5383 71.6282 36.6596C71.6282 37.7809 71.8397 38.7858 72.2629 39.6744C72.7072 40.5419 73.2995 41.2189 74.04 41.7055C74.7805 42.1921 75.5845 42.4354 76.4519 42.4354ZM93.052 28.3449C94.2579 28.3449 95.3263 28.6094 96.2572 29.1383C97.1881 29.6461 97.9075 30.376 98.4152 31.328C98.9441 32.2589 99.2086 33.3274 99.2086 34.5333V44.6569H97.1458L96.5746 42.6575H96.4159C95.9928 43.2499 95.3792 43.7894 94.5753 44.276C93.7713 44.7626 92.7875 45.0059 91.6239 45.0059C90.566 45.0059 89.6351 44.7944 88.8312 44.3712C88.0272 43.9481 87.4031 43.3769 86.9588 42.6575C86.5145 41.917 86.2923 41.1025 86.2923 40.2139C86.2923 39.2195 86.5885 38.3415 87.1809 37.5799C87.7945 36.7971 88.6408 36.1941 89.7198 35.771C90.8199 35.3478 92.0682 35.1363 93.4645 35.1363H96.4476V34.4064C96.4476 33.3274 96.1303 32.4705 95.4956 31.8358C94.882 31.1799 94.0675 30.852 93.052 30.852C92.0999 30.852 91.3488 31.0953 90.7988 31.5819C90.2487 32.0685 89.8996 32.6927 89.7515 33.4543H86.9905C87.0963 32.5446 87.4031 31.6983 87.9108 30.9155C88.4398 30.1327 89.1485 29.5085 90.0371 29.0431C90.9257 28.5776 91.9306 28.3449 93.052 28.3449ZM92.0682 42.5941C93.3799 42.5941 94.4377 42.2132 95.2417 41.4516C96.0457 40.6688 96.4476 39.6956 96.4476 38.5319V37.326H93.6549C92.174 37.326 91.0315 37.5693 90.2275 38.0559C89.4236 38.5425 89.0216 39.2195 89.0216 40.087C89.0216 40.8486 89.286 41.4622 89.815 41.9276C90.3439 42.3719 91.095 42.5941 92.0682 42.5941ZM110.343 45.0059C108.905 45.0059 107.603 44.6569 106.44 43.9587C105.297 43.2394 104.388 42.1498 103.711 40.6899C103.034 39.2301 102.695 37.4318 102.695 35.2949C102.695 31.656 103.383 28.7786 104.758 26.6629C106.133 24.5473 108.302 23.2673 111.264 22.823C113.422 22.5056 115.093 22.2412 116.278 22.0296V24.6002L113.168 25.1397L111.613 25.3935C109.518 25.7109 108.016 26.4514 107.106 27.615C106.196 28.7575 105.636 30.1644 105.424 31.8358H105.583C105.985 31.1799 106.63 30.577 107.519 30.0269C108.407 29.4768 109.476 29.2018 110.724 29.2018C111.993 29.2018 113.168 29.5403 114.247 30.2173C115.326 30.8732 116.183 31.8041 116.817 33.01C117.473 34.2159 117.801 35.5806 117.801 37.1039C117.801 38.6483 117.463 40.0235 116.785 41.2294C116.13 42.4142 115.23 43.3451 114.088 44.0222C112.967 44.678 111.718 45.0059 110.343 45.0059ZM110.343 42.4354C111.211 42.4354 112.004 42.2238 112.723 41.8007C113.443 41.3564 114.014 40.7323 114.437 39.9283C114.86 39.1243 115.072 38.1829 115.072 37.1039C115.072 36.0249 114.86 35.0834 114.437 34.2794C114.014 33.4543 113.443 32.8302 112.723 32.407C112.004 31.9627 111.211 31.7406 110.343 31.7406C109.476 31.7406 108.672 31.9627 107.931 32.407C107.212 32.8302 106.641 33.4543 106.218 34.2794C105.795 35.0834 105.583 36.0249 105.583 37.1039C105.583 38.1829 105.795 39.1243 106.218 39.9283C106.641 40.7323 107.212 41.3564 107.931 41.8007C108.672 42.2238 109.476 42.4354 110.343 42.4354ZM127.847 45.0059C126.451 45.0059 125.161 44.6463 123.976 43.9269C122.812 43.1865 121.881 42.1815 121.183 40.9121C120.485 39.6215 120.136 38.204 120.136 36.6596C120.136 35.1151 120.485 33.7082 121.183 32.4388C121.881 31.1694 122.812 30.175 123.976 29.4557C125.161 28.7152 126.451 28.3449 127.847 28.3449C129.223 28.3449 130.503 28.7152 131.687 29.4557C132.872 30.175 133.814 31.1694 134.512 32.4388C135.21 33.7082 135.559 35.1151 135.559 36.6596C135.559 38.204 135.21 39.6215 134.512 40.9121C133.814 42.1815 132.872 43.1865 131.687 43.9269C130.503 44.6463 129.223 45.0059 127.847 45.0059ZM127.847 42.4354C128.736 42.4354 129.561 42.1921 130.323 41.7055C131.084 41.2189 131.687 40.5419 132.132 39.6744C132.576 38.7858 132.798 37.7809 132.798 36.6596C132.798 35.5383 132.576 34.5439 132.132 33.6764C131.687 32.809 131.084 32.132 130.323 31.6454C129.561 31.1588 128.736 30.9155 127.847 30.9155C126.959 30.9155 126.134 31.1588 125.372 31.6454C124.61 32.132 123.997 32.809 123.531 33.6764C123.087 34.5439 122.865 35.5383 122.865 36.6596C122.865 37.7809 123.087 38.7858 123.531 39.6744C123.997 40.5419 124.6 41.2189 125.34 41.7055C126.102 42.1921 126.938 42.4354 127.847 42.4354ZM144.257 44.6569H141.496V31.2646H136.513V28.694H149.239V31.2646H144.257V44.6569ZM156.956 28.3449C158.162 28.3449 159.231 28.6094 160.162 29.1383C161.093 29.6461 161.812 30.376 162.32 31.328C162.849 32.2589 163.113 33.3274 163.113 34.5333V44.6569H161.05L160.479 42.6575H160.32C159.897 43.2499 159.284 43.7894 158.48 44.276C157.676 44.7626 156.692 45.0059 155.528 45.0059C154.47 45.0059 153.54 44.7944 152.736 44.3712C151.932 43.9481 151.308 43.3769 150.863 42.6575C150.419 41.917 150.197 41.1025 150.197 40.2139C150.197 39.2195 150.493 38.3415 151.085 37.5799C151.699 36.7971 152.545 36.1941 153.624 35.771C154.724 35.3478 155.973 35.1363 157.369 35.1363H160.352V34.4064C160.352 33.3274 160.035 32.4705 159.4 31.8358C158.786 31.1799 157.972 30.852 156.956 30.852C156.004 30.852 155.253 31.0953 154.703 31.5819C154.153 32.0685 153.804 32.6927 153.656 33.4543H150.895C151.001 32.5446 151.308 31.6983 151.815 30.9155C152.344 30.1327 153.053 29.5085 153.942 29.0431C154.83 28.5776 155.835 28.3449 156.956 28.3449ZM155.973 42.5941C157.284 42.5941 158.342 42.2132 159.146 41.4516C159.95 40.6688 160.352 39.6956 160.352 38.5319V37.326H157.559C156.078 37.326 154.936 37.5693 154.132 38.0559C153.328 38.5425 152.926 39.2195 152.926 40.087C152.926 40.8486 153.191 41.4622 153.719 41.9276C154.248 42.3719 154.999 42.5941 155.973 42.5941ZM169.963 40.4043L178.5 28.694H180.912V44.6569H178.215V32.9465L169.678 44.6569H167.266V28.694H169.963V40.4043ZM174.279 26.5995C172.925 26.5995 171.836 26.2081 171.011 25.4253C170.207 24.6425 169.762 23.6587 169.678 22.4739H171.804C171.868 23.1509 172.1 23.6904 172.502 24.0924C172.925 24.4732 173.518 24.6636 174.279 24.6636C175.02 24.6636 175.591 24.4732 175.993 24.0924C176.416 23.6904 176.67 23.1509 176.755 22.4739H178.849C178.786 23.6375 178.342 24.6213 177.516 25.4253C176.691 26.2081 175.612 26.5995 174.279 26.5995ZM49.5335 67.3584V60.694H52.2944V76.6569H49.5335V69.929H41.5044V76.6569H38.7752V60.694H41.5044V67.3584H49.5335ZM70.654 68.2787C70.654 68.9981 70.6117 69.527 70.5271 69.8655H58.4042C58.6158 71.3042 59.1659 72.4361 60.0544 73.2612C60.943 74.0863 62.0432 74.4989 63.3549 74.4989C65.0898 74.4989 66.4015 73.7901 67.2901 72.3726H70.1145C69.6068 73.6632 68.7393 74.7633 67.5122 75.6731C66.2851 76.5617 64.8888 77.0059 63.3232 77.0059C61.9057 77.0059 60.6045 76.6463 59.4197 75.9269C58.235 75.2076 57.3041 74.2132 56.627 72.9438C55.95 71.6744 55.6115 70.2463 55.6115 68.6596C55.6115 67.1151 55.9606 65.7082 56.6588 64.4388C57.3569 63.1694 58.2878 62.175 59.4515 61.4557C60.6363 60.7152 61.9162 60.3449 63.2914 60.3449C64.6666 60.3449 65.9149 60.694 67.0362 61.3922C68.1575 62.0904 69.0355 63.0424 69.6702 64.2484C70.3261 65.4543 70.654 66.7978 70.654 68.2787ZM63.2914 62.852C62.0643 62.852 60.9853 63.2963 60.0544 64.1849C59.1447 65.0523 58.584 66.1948 58.3725 67.6123H67.9883C67.819 66.2159 67.3007 65.0735 66.4332 64.1849C65.587 63.2963 64.5397 62.852 63.2914 62.852ZM92.4257 67.3584V60.694H95.1867V76.6569H92.4257V69.929H84.3967V76.6569H81.6674V60.694H84.3967V67.3584H92.4257ZM105.232 60.3449C106.438 60.3449 107.506 60.6094 108.437 61.1383C109.368 61.6461 110.087 62.376 110.595 63.328C111.124 64.2589 111.388 65.3274 111.388 66.5333V76.6569H109.325L108.754 74.6575H108.596C108.172 75.2499 107.559 75.7894 106.755 76.276C105.951 76.7626 104.967 77.0059 103.804 77.0059C102.746 77.0059 101.815 76.7944 101.011 76.3712C100.207 75.9481 99.5827 75.3769 99.1384 74.6575C98.6941 73.917 98.472 73.1025 98.472 72.2139C98.472 71.2195 98.7682 70.3415 99.3606 69.5799C99.9741 68.7971 100.82 68.1941 101.899 67.771C103 67.3478 104.248 67.1363 105.644 67.1363H108.627V66.4064C108.627 65.3274 108.31 64.4705 107.675 63.8358C107.062 63.1799 106.247 62.852 105.232 62.852C104.28 62.852 103.528 63.0953 102.978 63.5819C102.428 64.0685 102.079 64.6927 101.931 65.4543H99.1702C99.276 64.5446 99.5827 63.6983 100.09 62.9155C100.619 62.1327 101.328 61.5085 102.217 61.0431C103.105 60.5776 104.11 60.3449 105.232 60.3449ZM104.248 74.5941C105.56 74.5941 106.617 74.2132 107.421 73.4516C108.225 72.6688 108.627 71.6956 108.627 70.5319V69.326H105.835C104.354 69.326 103.211 69.5693 102.407 70.0559C101.603 70.5425 101.201 71.2195 101.201 72.087C101.201 72.8486 101.466 73.4622 101.995 73.9276C102.524 74.3719 103.275 74.5941 104.248 74.5941ZM118.27 76.6569H115.541V60.694H128.775V76.6569H126.046V63.2646H118.27V76.6569ZM133.082 82.3692V60.694H135.113L135.716 62.6933H135.875C136.256 62.1856 136.88 61.6672 137.747 61.1383C138.636 60.6094 139.652 60.3449 140.794 60.3449C142.127 60.3449 143.354 60.7046 144.475 61.4239C145.597 62.1221 146.485 63.1059 147.141 64.3753C147.818 65.6447 148.157 67.0728 148.157 68.6596C148.157 70.2463 147.818 71.6744 147.141 72.9438C146.485 74.2132 145.597 75.2076 144.475 75.9269C143.354 76.6463 142.127 77.0059 140.794 77.0059C139.694 77.0059 138.699 76.7521 137.811 76.2443C136.922 75.7154 136.309 75.2076 135.97 74.721H135.812V82.3692H133.082ZM140.635 74.4354C141.503 74.4354 142.296 74.1921 143.015 73.7055C143.756 73.2189 144.338 72.5419 144.761 71.6744C145.205 70.7858 145.427 69.7809 145.427 68.6596C145.427 67.5383 145.205 66.5439 144.761 65.6764C144.338 64.809 143.756 64.132 143.015 63.6454C142.296 63.1588 141.503 62.9155 140.635 62.9155C139.768 62.9155 138.964 63.1588 138.223 63.6454C137.483 64.132 136.891 64.809 136.446 65.6764C136.023 66.5439 135.812 67.5383 135.812 68.6596C135.812 69.7809 136.023 70.7858 136.446 71.6744C136.891 72.5419 137.483 73.2189 138.223 73.7055C138.964 74.1921 139.768 74.4354 140.635 74.4354ZM162.884 60.694V76.6569H160.155V70.9445H156.791L153.3 76.6569H150.127L154.062 70.5319C153.046 70.1511 152.232 69.5376 151.618 68.6913C151.026 67.845 150.73 66.8824 150.73 65.8034C150.73 64.8513 150.962 63.9839 151.428 63.2011C151.914 62.4183 152.57 61.8047 153.395 61.3604C154.242 60.9162 155.194 60.694 156.252 60.694H162.884ZM156.442 63.1059C155.575 63.1059 154.855 63.3598 154.284 63.8675C153.734 64.3753 153.459 65.0206 153.459 65.8034C153.459 66.6285 153.723 67.2844 154.252 67.771C154.802 68.2576 155.532 68.5009 156.442 68.5009H160.187V63.1059H156.442ZM169.933 76.6569H167.204V60.694H177.708V63.2646H169.933V76.6569ZM185.314 60.3449C186.52 60.3449 187.588 60.6094 188.519 61.1383C189.45 61.6461 190.169 62.376 190.677 63.328C191.206 64.2589 191.47 65.3274 191.47 66.5333V76.6569H189.408L188.836 74.6575H188.678C188.254 75.2499 187.641 75.7894 186.837 76.276C186.033 76.7626 185.049 77.0059 183.886 77.0059C182.828 77.0059 181.897 76.7944 181.093 76.3712C180.289 75.9481 179.665 75.3769 179.22 74.6575C178.776 73.917 178.554 73.1025 178.554 72.2139C178.554 71.2195 178.85 70.3415 179.443 69.5799C180.056 68.7971 180.902 68.1941 181.981 67.771C183.082 67.3478 184.33 67.1363 185.726 67.1363H188.709V66.4064C188.709 65.3274 188.392 64.4705 187.757 63.8358C187.144 63.1799 186.329 62.852 185.314 62.852C184.362 62.852 183.611 63.0953 183.06 63.5819C182.51 64.0685 182.161 64.6927 182.013 65.4543H179.252C179.358 64.5446 179.665 63.6983 180.173 62.9155C180.701 62.1327 181.41 61.5085 182.299 61.0431C183.187 60.5776 184.192 60.3449 185.314 60.3449ZM184.33 74.5941C185.642 74.5941 186.699 74.2132 187.503 73.4516C188.307 72.6688 188.709 71.6956 188.709 70.5319V69.326H185.917C184.436 69.326 183.293 69.5693 182.489 70.0559C181.685 70.5425 181.283 71.2195 181.283 72.087C181.283 72.8486 181.548 73.4622 182.077 73.9276C182.606 74.3719 183.357 74.5941 184.33 74.5941ZM207.016 60.694V76.6569H204.287V70.9445H200.923L197.432 76.6569H194.259L198.194 70.5319C197.178 70.1511 196.364 69.5376 195.75 68.6913C195.158 67.845 194.862 66.8824 194.862 65.8034C194.862 64.8513 195.094 63.9839 195.56 63.2011C196.046 62.4183 196.702 61.8047 197.527 61.3604C198.374 60.9162 199.326 60.694 200.383 60.694H207.016ZM200.574 63.1059C199.706 63.1059 198.987 63.3598 198.416 63.8675C197.866 64.3753 197.591 65.0206 197.591 65.8034C197.591 66.6285 197.855 67.2844 198.384 67.771C198.934 68.2576 199.664 68.5009 200.574 68.5009H204.319V63.1059H200.574ZM218.064 77.0059C216.667 77.0059 215.377 76.6463 214.192 75.9269C213.028 75.1865 212.097 74.1815 211.399 72.9121C210.701 71.6215 210.352 70.204 210.352 68.6596C210.352 67.1151 210.701 65.7082 211.399 64.4388C212.097 63.1694 213.028 62.175 214.192 61.4557C215.377 60.7152 216.667 60.3449 218.064 60.3449C219.291 60.3449 220.402 60.6305 221.396 61.2018C222.411 61.773 223.247 62.5241 223.903 63.455C224.559 64.3859 224.993 65.3908 225.204 66.4698H222.475C222.179 65.4331 221.65 64.5869 220.888 63.931C220.148 63.254 219.206 62.9155 218.064 62.9155C217.175 62.9155 216.35 63.1588 215.588 63.6454C214.827 64.132 214.213 64.809 213.748 65.6764C213.303 66.5439 213.081 67.5383 213.081 68.6596C213.081 69.7809 213.303 70.7858 213.748 71.6744C214.213 72.5419 214.816 73.2189 215.557 73.7055C216.318 74.1921 217.154 74.4354 218.064 74.4354C219.206 74.4354 220.148 74.1075 220.888 73.4516C221.65 72.7746 222.179 71.9177 222.475 70.881H225.204C224.993 71.96 224.559 72.965 223.903 73.8959C223.247 74.8268 222.411 75.5779 221.396 76.1491C220.402 76.7203 219.291 77.0059 218.064 77.0059ZM234.919 66.2477C236.569 66.2477 237.902 66.7343 238.917 67.7075C239.933 68.6596 240.441 69.9078 240.441 71.4523C240.441 72.9967 239.933 74.2556 238.917 75.2288C237.902 76.1808 236.569 76.6569 234.919 76.6569H228.381V60.694H231.11V66.2477H234.919ZM234.665 74.2132C235.617 74.2132 236.357 73.9699 236.886 73.4833C237.436 72.9967 237.711 72.3197 237.711 71.4523C237.711 70.5848 237.436 69.9078 236.886 69.4212C236.357 68.9134 235.617 68.6596 234.665 68.6596H231.11V74.2132H234.665Z" fill="#C8AE1B"/>
<path d="M45.1881 151.955H46.4365V155.269H45.076V153.22H39.1698V155.269H37.8093V151.955H38.4656C38.9884 151.571 39.2765 150.995 39.3299 150.227L39.762 145.169H45.1881V151.955ZM43.8275 151.955V146.433H41.0265L40.6904 150.227C40.6157 151.027 40.3969 151.603 40.0341 151.955H43.8275ZM54.9265 148.994C54.9265 149.357 54.9052 149.624 54.8625 149.795H48.7483C48.855 150.52 49.1324 151.091 49.5806 151.507C50.0287 151.923 50.5836 152.132 51.2452 152.132C52.1202 152.132 52.7818 151.774 53.2299 151.059H54.6544C54.3984 151.71 53.9609 152.265 53.342 152.724C52.7231 153.172 52.0188 153.396 51.2292 153.396C50.5142 153.396 49.858 153.215 49.2604 152.852C48.6629 152.489 48.1934 151.987 47.8519 151.347C47.5105 150.707 47.3397 149.987 47.3397 149.186C47.3397 148.407 47.5158 147.698 47.8679 147.058C48.2201 146.417 48.6896 145.916 49.2764 145.553C49.874 145.18 50.5196 144.993 51.2132 144.993C51.9068 144.993 52.5363 145.169 53.1019 145.521C53.6674 145.873 54.1102 146.353 54.4304 146.962C54.7612 147.57 54.9265 148.247 54.9265 148.994ZM51.2132 146.257C50.5943 146.257 50.0501 146.481 49.5806 146.93C49.1217 147.367 48.839 147.943 48.7322 148.658H53.582C53.4967 147.954 53.2353 147.378 52.7978 146.93C52.3709 146.481 51.8427 146.257 51.2132 146.257ZM59.5019 149.026L63.1672 153.22H61.4066L57.9813 149.218V153.22H56.6048V145.169H57.9813V148.962L61.1665 145.169H62.8151L59.5019 149.026ZM66.8484 144.993C67.4566 144.993 67.9955 145.126 68.465 145.393C68.9345 145.649 69.2973 146.017 69.5534 146.497C69.8201 146.967 69.9535 147.506 69.9535 148.114V153.22H68.9131L68.625 152.212H68.545C68.3316 152.51 68.0221 152.782 67.6166 153.028C67.2112 153.273 66.715 153.396 66.1281 153.396C65.5946 153.396 65.125 153.289 64.7196 153.076C64.3141 152.862 63.9993 152.574 63.7752 152.212C63.5511 151.838 63.4391 151.427 63.4391 150.979C63.4391 150.478 63.5885 150.035 63.8873 149.651C64.1967 149.256 64.6235 148.952 65.1677 148.738C65.7226 148.525 66.3522 148.418 67.0564 148.418H68.561V148.05C68.561 147.506 68.4009 147.074 68.0808 146.754C67.7714 146.423 67.3605 146.257 66.8484 146.257C66.3682 146.257 65.9894 146.38 65.7119 146.625C65.4345 146.871 65.2584 147.186 65.1837 147.57H63.7912C63.8446 147.111 63.9993 146.684 64.2554 146.289C64.5222 145.895 64.8796 145.58 65.3278 145.345C65.776 145.11 66.2828 144.993 66.8484 144.993ZM66.3522 152.18C67.0138 152.18 67.5473 151.987 67.9528 151.603C68.3583 151.208 68.561 150.718 68.561 150.131V149.523H67.1525C66.4055 149.523 65.8293 149.645 65.4238 149.891C65.0183 150.136 64.8156 150.478 64.8156 150.915C64.8156 151.299 64.949 151.609 65.2158 151.843C65.4825 152.067 65.8613 152.18 66.3522 152.18ZM75.5694 153.396C74.8437 153.396 74.1875 153.22 73.6006 152.868C73.0244 152.505 72.5656 151.955 72.2241 151.219C71.8826 150.483 71.7119 149.576 71.7119 148.498C71.7119 146.663 72.0587 145.212 72.7523 144.145C73.4459 143.077 74.5396 142.432 76.0335 142.208C77.1219 142.048 77.9649 141.914 78.5625 141.808V143.104L76.9939 143.376L76.2096 143.504C75.1532 143.664 74.3956 144.038 73.9367 144.625C73.4779 145.201 73.1951 145.911 73.0884 146.754H73.1685C73.3712 146.423 73.6967 146.119 74.1448 145.841C74.593 145.564 75.1319 145.425 75.7614 145.425C76.4017 145.425 76.9939 145.596 77.5381 145.937C78.0823 146.268 78.5144 146.737 78.8346 147.346C79.1654 147.954 79.3308 148.642 79.3308 149.41C79.3308 150.189 79.16 150.883 78.8186 151.491C78.4878 152.089 78.0343 152.558 77.4581 152.9C76.8925 153.231 76.2629 153.396 75.5694 153.396ZM75.5694 152.099C76.0068 152.099 76.407 151.993 76.7698 151.779C77.1326 151.555 77.4207 151.241 77.6341 150.835C77.8475 150.43 77.9542 149.955 77.9542 149.41C77.9542 148.866 77.8475 148.391 77.6341 147.986C77.4207 147.57 77.1326 147.255 76.7698 147.042C76.407 146.818 76.0068 146.705 75.5694 146.705C75.1319 146.705 74.7264 146.818 74.3529 147.042C73.9901 147.255 73.702 147.57 73.4886 147.986C73.2752 148.391 73.1685 148.866 73.1685 149.41C73.1685 149.955 73.2752 150.43 73.4886 150.835C73.702 151.241 73.9901 151.555 74.3529 151.779C74.7264 151.993 75.1319 152.099 75.5694 152.099ZM81.0045 156.101V145.169H82.0289L82.333 146.177H82.413C82.6051 145.921 82.9199 145.66 83.3574 145.393C83.8055 145.126 84.3177 144.993 84.8939 144.993C85.5662 144.993 86.1851 145.174 86.7506 145.537C87.3162 145.889 87.7643 146.385 88.0951 147.026C88.4366 147.666 88.6073 148.386 88.6073 149.186C88.6073 149.987 88.4366 150.707 88.0951 151.347C87.7643 151.987 87.3162 152.489 86.7506 152.852C86.1851 153.215 85.5662 153.396 84.8939 153.396C84.3391 153.396 83.8376 153.268 83.3894 153.012C82.9412 152.745 82.6318 152.489 82.461 152.244H82.381V156.101H81.0045ZM84.8139 152.099C85.2514 152.099 85.6516 151.977 86.0144 151.731C86.3878 151.486 86.6813 151.144 86.8947 150.707C87.1188 150.259 87.2308 149.752 87.2308 149.186C87.2308 148.621 87.1188 148.119 86.8947 147.682C86.6813 147.244 86.3878 146.903 86.0144 146.657C85.6516 146.412 85.2514 146.289 84.8139 146.289C84.3764 146.289 83.9709 146.412 83.5975 146.657C83.224 146.903 82.9252 147.244 82.7011 147.682C82.4877 148.119 82.381 148.621 82.381 149.186C82.381 149.752 82.4877 150.259 82.7011 150.707C82.9252 151.144 83.224 151.486 83.5975 151.731C83.9709 151.977 84.3764 152.099 84.8139 152.099ZM93.5864 147.97C94.4187 147.97 95.091 148.215 95.6032 148.706C96.1154 149.186 96.3715 149.816 96.3715 150.595C96.3715 151.374 96.1154 152.009 95.6032 152.5C95.091 152.98 94.4187 153.22 93.5864 153.22H90.2892V145.169H91.6657V147.97H93.5864ZM93.4584 151.987C93.9386 151.987 94.312 151.865 94.5788 151.619C94.8562 151.374 94.995 151.032 94.995 150.595C94.995 150.157 94.8562 149.816 94.5788 149.571C94.312 149.314 93.9386 149.186 93.4584 149.186H91.6657V151.987H93.4584ZM38.0334 160.968L40.7864 159.016H41.8748V170.22H40.4023V160.872L38.7216 162.073L38.0334 160.968ZM48.0487 170.396C47.2805 170.396 46.5762 170.177 45.936 169.74C45.3064 169.292 44.8049 168.635 44.4314 167.771C44.0579 166.896 43.8712 165.845 43.8712 164.618C43.8712 163.391 44.0579 162.345 44.4314 161.481C44.8049 160.606 45.3064 159.949 45.936 159.512C46.5762 159.064 47.2805 158.84 48.0487 158.84C48.817 158.84 49.516 159.064 50.1455 159.512C50.7858 159.949 51.2926 160.606 51.6661 161.481C52.0502 162.345 52.2423 163.391 52.2423 164.618C52.2423 165.845 52.0502 166.896 51.6661 167.771C51.2926 168.635 50.7858 169.292 50.1455 169.74C49.516 170.177 48.817 170.396 48.0487 170.396ZM48.0487 169.003C48.5503 169.003 49.0038 168.849 49.4092 168.539C49.8254 168.23 50.1562 167.744 50.4016 167.083C50.647 166.421 50.7698 165.6 50.7698 164.618C50.7698 163.636 50.647 162.814 50.4016 162.153C50.1562 161.491 49.8254 161.006 49.4092 160.696C49.0038 160.387 48.5503 160.232 48.0487 160.232C47.5472 160.232 47.0937 160.392 46.6882 160.712C46.2828 161.022 45.9573 161.507 45.7119 162.169C45.4664 162.82 45.3437 163.636 45.3437 164.618C45.3437 165.6 45.4664 166.421 45.7119 167.083C45.9573 167.734 46.2828 168.219 46.6882 168.539C47.0937 168.849 47.5472 169.003 48.0487 169.003ZM68.787 166.571H57.4227V165.322H68.787V166.571ZM79.3065 164.426C79.8614 164.65 80.3255 164.986 80.699 165.434C81.0831 165.882 81.2752 166.469 81.2752 167.195C81.2752 167.76 81.1152 168.289 80.795 168.779C80.4856 169.27 80.0428 169.665 79.4665 169.964C78.901 170.252 78.2608 170.396 77.5458 170.396C76.8096 170.396 76.164 170.252 75.6091 169.964C75.0542 169.676 74.6167 169.292 74.2966 168.811C73.9765 168.331 73.7791 167.814 73.7044 167.259H75.177C75.2196 167.547 75.3423 167.83 75.5451 168.107C75.7478 168.374 76.0199 168.598 76.3614 168.779C76.7029 168.95 77.0977 169.035 77.5458 169.035C78.2288 169.035 78.773 168.859 79.1784 168.507C79.5946 168.144 79.8027 167.68 79.8027 167.115C79.8027 166.539 79.5946 166.069 79.1784 165.706C78.7623 165.343 78.1967 165.162 77.4818 165.162H76.7775V163.882H77.4018C78.0527 163.882 78.5702 163.716 78.9544 163.385C79.3492 163.055 79.5466 162.622 79.5466 162.089C79.5466 161.534 79.3545 161.081 78.9704 160.728C78.5969 160.376 78.1007 160.2 77.4818 160.2C76.9056 160.2 76.4201 160.376 76.0253 160.728C75.6411 161.07 75.4277 161.47 75.385 161.929H73.9125C73.9552 161.385 74.1312 160.878 74.4407 160.408C74.7608 159.928 75.1823 159.549 75.7051 159.272C76.228 158.984 76.8149 158.84 77.4658 158.84C78.1487 158.84 78.7623 158.984 79.3065 159.272C79.8507 159.56 80.2722 159.949 80.571 160.44C80.8697 160.92 81.0191 161.443 81.0191 162.009C81.0191 162.574 80.8537 163.06 80.5229 163.465C80.1922 163.86 79.7867 164.18 79.3065 164.426ZM86.7663 170.396C85.998 170.396 85.2937 170.177 84.6535 169.74C84.0239 169.292 83.5224 168.635 83.1489 167.771C82.7754 166.896 82.5887 165.845 82.5887 164.618C82.5887 163.391 82.7754 162.345 83.1489 161.481C83.5224 160.606 84.0239 159.949 84.6535 159.512C85.2937 159.064 85.998 158.84 86.7663 158.84C87.5346 158.84 88.2335 159.064 88.863 159.512C89.5033 159.949 90.0101 160.606 90.3836 161.481C90.7678 162.345 90.9598 163.391 90.9598 164.618C90.9598 165.845 90.7678 166.896 90.3836 167.771C90.0101 168.635 89.5033 169.292 88.863 169.74C88.2335 170.177 87.5346 170.396 86.7663 170.396ZM86.7663 169.003C87.2678 169.003 87.7213 168.849 88.1268 168.539C88.5429 168.23 88.8737 167.744 89.1191 167.083C89.3646 166.421 89.4873 165.6 89.4873 164.618C89.4873 163.636 89.3646 162.814 89.1191 162.153C88.8737 161.491 88.5429 161.006 88.1268 160.696C87.7213 160.387 87.2678 160.232 86.7663 160.232C86.2647 160.232 85.8112 160.392 85.4058 160.712C85.0003 161.022 84.6748 161.507 84.4294 162.169C84.184 162.82 84.0613 163.636 84.0613 164.618C84.0613 165.6 84.184 166.421 84.4294 167.083C84.6748 167.734 85.0003 168.219 85.4058 168.539C85.8112 168.849 86.2647 169.003 86.7663 169.003ZM40.4183 185.827H45.4922V187.22H38.3055V186.051L42.435 181.842C42.9792 181.287 43.3794 180.812 43.6355 180.417C43.8916 180.023 44.0196 179.58 44.0196 179.089C44.0196 178.534 43.8222 178.081 43.4274 177.728C43.0433 177.376 42.5257 177.2 41.8748 177.2C41.2132 177.2 40.6744 177.398 40.2582 177.792C39.8527 178.177 39.6393 178.678 39.618 179.297H38.1774C38.1881 178.657 38.3535 178.075 38.6736 177.552C38.9937 177.019 39.4312 176.603 39.9861 176.304C40.541 175.994 41.1706 175.84 41.8748 175.84C42.5898 175.84 43.2193 175.984 43.7635 176.272C44.3184 176.549 44.7452 176.933 45.044 177.424C45.3428 177.915 45.4922 178.459 45.4922 179.057C45.4922 179.708 45.3161 180.316 44.964 180.882C44.6225 181.447 44.1263 182.061 43.4754 182.722L40.4183 185.827ZM52.505 183.507H53.7375V184.867H52.505V187.22H51.0645V184.867H45.9426V183.619L50.7604 176.016H52.505V183.507ZM51.0645 183.507V178.016L47.5912 183.507H51.0645ZM55.6569 190.421H54.3285L58.9382 176.016H60.2667L55.6569 190.421ZM60.6523 177.408V176.016H67.7269V177.136L63.4533 187.22H61.8688L66.0463 177.408H60.6523Z" fill="white"/>
<path d="M41.6827 96.2514L45.3481 100.445H43.5875L40.1622 96.4435V100.445H38.7857V92.394H40.1622V96.1874L43.3474 92.394H44.996L41.6827 96.2514ZM49.3691 100.621C48.6648 100.621 48.0139 100.44 47.4164 100.077C46.8295 99.7034 46.36 99.1965 46.0079 98.5563C45.6557 97.9054 45.4797 97.1905 45.4797 96.4115C45.4797 95.6326 45.6557 94.923 46.0079 94.2827C46.36 93.6425 46.8295 93.141 47.4164 92.7782C48.0139 92.4047 48.6648 92.2179 49.3691 92.2179C50.0627 92.2179 50.7083 92.4047 51.3058 92.7782C51.9034 93.141 52.3782 93.6425 52.7304 94.2827C53.0825 94.923 53.2586 95.6326 53.2586 96.4115C53.2586 97.1905 53.0825 97.9054 52.7304 98.5563C52.3782 99.1965 51.9034 99.7034 51.3058 100.077C50.7083 100.44 50.0627 100.621 49.3691 100.621ZM49.3691 99.3246C49.8173 99.3246 50.2334 99.2019 50.6176 98.9565C51.0017 98.711 51.3058 98.3696 51.5299 97.9321C51.754 97.4839 51.866 96.9771 51.866 96.4115C51.866 95.846 51.754 95.3444 51.5299 94.9069C51.3058 94.4695 51.0017 94.128 50.6176 93.8826C50.2334 93.6371 49.8173 93.5144 49.3691 93.5144C48.9209 93.5144 48.5048 93.6371 48.1206 93.8826C47.7365 94.128 47.4271 94.4695 47.1923 94.9069C46.9682 95.3444 46.8562 95.846 46.8562 96.4115C46.8562 96.9771 46.9682 97.4839 47.1923 97.9321C47.4271 98.3696 47.7312 98.711 48.1046 98.9565C48.4888 99.2019 48.9103 99.3246 49.3691 99.3246ZM60.3427 95.7553V92.394H61.7352V100.445H60.3427V97.0517H56.2932V100.445H54.9167V92.394H56.2932V95.7553H60.3427ZM66.8015 96.2514L70.4668 100.445H68.7062L65.2809 96.4435V100.445H63.9044V92.394H65.2809V96.1874L68.4661 92.394H70.1147L66.8015 96.2514ZM76.4528 92.394H77.8773L74.42 101.069C74.0679 101.955 73.7105 102.563 73.3476 102.894C72.9848 103.235 72.5634 103.406 72.0832 103.406C71.8698 103.406 71.619 103.358 71.3309 103.262V102.014C71.5123 102.078 71.6884 102.11 71.8591 102.11C72.1472 102.11 72.3873 102.03 72.5794 101.87C72.7821 101.709 72.9582 101.443 73.1076 101.069L73.4277 100.253L70.2425 92.394H71.731L74.1159 98.5403L76.4528 92.394ZM79.0506 103.326V92.394H80.075L80.3791 93.4024H80.4592C80.6512 93.1463 80.966 92.8849 81.4035 92.6181C81.8517 92.3513 82.3639 92.2179 82.9401 92.2179C83.6123 92.2179 84.2312 92.3993 84.7968 92.7621C85.3623 93.1143 85.8105 93.6105 86.1413 94.2507C86.4827 94.8909 86.6535 95.6112 86.6535 96.4115C86.6535 97.2118 86.4827 97.9321 86.1413 98.5723C85.8105 99.2125 85.3623 99.7141 84.7968 100.077C84.2312 100.44 83.6123 100.621 82.9401 100.621C82.3852 100.621 81.8837 100.493 81.4355 100.237C80.9874 99.9702 80.6779 99.7141 80.5072 99.4686H80.4272V103.326H79.0506ZM82.8601 99.3246C83.2976 99.3246 83.6977 99.2019 84.0605 98.9565C84.434 98.711 84.7274 98.3696 84.9408 97.9321C85.1649 97.4839 85.277 96.9771 85.277 96.4115C85.277 95.846 85.1649 95.3444 84.9408 94.9069C84.7274 94.4695 84.434 94.128 84.0605 93.8826C83.6977 93.6371 83.2976 93.5144 82.8601 93.5144C82.4226 93.5144 82.0171 93.6371 81.6436 93.8826C81.2701 94.128 80.9714 94.4695 80.7473 94.9069C80.5339 95.3444 80.4272 95.846 80.4272 96.4115C80.4272 96.9771 80.5339 97.4839 80.7473 97.9321C80.9714 98.3696 81.2701 98.711 81.6436 98.9565C82.0171 99.2019 82.4226 99.3246 82.8601 99.3246ZM91.7286 100.621C91.0243 100.621 90.3734 100.44 89.7759 100.077C89.189 99.7034 88.7195 99.1965 88.3674 98.5563C88.0152 97.9054 87.8392 97.1905 87.8392 96.4115C87.8392 95.6326 88.0152 94.923 88.3674 94.2827C88.7195 93.6425 89.189 93.141 89.7759 92.7782C90.3734 92.4047 91.0243 92.2179 91.7286 92.2179C92.3475 92.2179 92.9077 92.362 93.4092 92.6501C93.9214 92.9382 94.3429 93.317 94.6737 93.7865C95.0045 94.256 95.2232 94.7629 95.33 95.3071H93.9534C93.8041 94.7842 93.5373 94.3574 93.1531 94.0266C92.7797 93.6852 92.3048 93.5144 91.7286 93.5144C91.2804 93.5144 90.8643 93.6371 90.4801 93.8826C90.096 94.128 89.7866 94.4695 89.5518 94.9069C89.3277 95.3444 89.2157 95.846 89.2157 96.4115C89.2157 96.9771 89.3277 97.4839 89.5518 97.9321C89.7866 98.3696 90.0907 98.711 90.4641 98.9565C90.8483 99.2019 91.2698 99.3246 91.7286 99.3246C92.3048 99.3246 92.7797 99.1592 93.1531 98.8284C93.5373 98.4869 93.8041 98.0548 93.9534 97.5319H95.33C95.2232 98.0761 95.0045 98.583 94.6737 99.0525C94.3429 99.522 93.9214 99.9008 93.4092 100.189C92.9077 100.477 92.3475 100.621 91.7286 100.621ZM40.1622 117.445H38.7857V109.394H45.4602V117.445H44.0836V110.69H40.1622V117.445ZM51.026 117.621C50.3217 117.621 49.6708 117.44 49.0732 117.077C48.4864 116.703 48.0169 116.197 47.6647 115.556C47.3126 114.905 47.1365 114.19 47.1365 113.412C47.1365 112.633 47.3126 111.923 47.6647 111.283C48.0169 110.642 48.4864 110.141 49.0732 109.778C49.6708 109.405 50.3217 109.218 51.026 109.218C51.7196 109.218 52.3651 109.405 52.9627 109.778C53.5602 110.141 54.0351 110.642 54.3872 111.283C54.7394 111.923 54.9154 112.633 54.9154 113.412C54.9154 114.19 54.7394 114.905 54.3872 115.556C54.0351 116.197 53.5602 116.703 52.9627 117.077C52.3651 117.44 51.7196 117.621 51.026 117.621ZM51.026 116.325C51.4741 116.325 51.8903 116.202 52.2744 115.956C52.6586 115.711 52.9627 115.37 53.1868 114.932C53.4109 114.484 53.5229 113.977 53.5229 113.412C53.5229 112.846 53.4109 112.344 53.1868 111.907C52.9627 111.469 52.6586 111.128 52.2744 110.883C51.8903 110.637 51.4741 110.514 51.026 110.514C50.5778 110.514 50.1617 110.637 49.7775 110.883C49.3934 111.128 49.0839 111.469 48.8492 111.907C48.6251 112.344 48.513 112.846 48.513 113.412C48.513 113.977 48.6251 114.484 48.8492 114.932C49.0839 115.37 49.388 115.711 49.7615 115.956C50.1456 116.202 50.5671 116.325 51.026 116.325ZM63.8432 117.621C63.139 117.621 62.4881 117.44 61.8905 117.077C61.3036 116.703 60.8341 116.197 60.482 115.556C60.1299 114.905 59.9538 114.19 59.9538 113.412C59.9538 112.633 60.1299 111.923 60.482 111.283C60.8341 110.642 61.3036 110.141 61.8905 109.778C62.4881 109.405 63.139 109.218 63.8432 109.218C64.4621 109.218 65.0223 109.362 65.5239 109.65C66.0361 109.938 66.4575 110.317 66.7883 110.787C67.1191 111.256 67.3379 111.763 67.4446 112.307H66.0681C65.9187 111.784 65.6519 111.357 65.2678 111.027C64.8943 110.685 64.4195 110.514 63.8432 110.514C63.3951 110.514 62.9789 110.637 62.5948 110.883C62.2106 111.128 61.9012 111.469 61.6664 111.907C61.4423 112.344 61.3303 112.846 61.3303 113.412C61.3303 113.977 61.4423 114.484 61.6664 114.932C61.9012 115.37 62.2053 115.711 62.5788 115.956C62.9629 116.202 63.3844 116.325 63.8432 116.325C64.4195 116.325 64.8943 116.159 65.2678 115.828C65.6519 115.487 65.9187 115.055 66.0681 114.532H67.4446C67.3379 115.076 67.1191 115.583 66.7883 116.052C66.4575 116.522 66.0361 116.901 65.5239 117.189C65.0223 117.477 64.4621 117.621 63.8432 117.621ZM71.944 113.251L75.6094 117.445H73.8487L70.4234 113.444V117.445H69.0469V109.394H70.4234V113.187L73.6086 109.394H75.2572L71.944 113.251ZM79.6304 117.621C78.9261 117.621 78.2752 117.44 77.6776 117.077C77.0907 116.703 76.6212 116.197 76.2691 115.556C75.917 114.905 75.7409 114.19 75.7409 113.412C75.7409 112.633 75.917 111.923 76.2691 111.283C76.6212 110.642 77.0907 110.141 77.6776 109.778C78.2752 109.405 78.9261 109.218 79.6304 109.218C80.324 109.218 80.9695 109.405 81.5671 109.778C82.1646 110.141 82.6395 110.642 82.9916 111.283C83.3437 111.923 83.5198 112.633 83.5198 113.412C83.5198 114.19 83.3437 114.905 82.9916 115.556C82.6395 116.197 82.1646 116.703 81.5671 117.077C80.9695 117.44 80.324 117.621 79.6304 117.621ZM79.6304 116.325C80.0785 116.325 80.4947 116.202 80.8788 115.956C81.263 115.711 81.5671 115.37 81.7912 114.932C82.0152 114.484 82.1273 113.977 82.1273 113.412C82.1273 112.846 82.0152 112.344 81.7912 111.907C81.5671 111.469 81.263 111.128 80.8788 110.883C80.4947 110.637 80.0785 110.514 79.6304 110.514C79.1822 110.514 78.766 110.637 78.3819 110.883C77.9978 111.128 77.6883 111.469 77.4536 111.907C77.2295 112.344 77.1174 112.846 77.1174 113.412C77.1174 113.977 77.2295 114.484 77.4536 114.932C77.6883 115.37 77.9924 115.711 78.3659 115.956C78.75 116.202 79.1715 116.325 79.6304 116.325ZM85.1779 120.326V109.394H86.2023L86.5064 110.402H86.5864C86.7785 110.146 87.0933 109.885 87.5308 109.618C87.979 109.351 88.4912 109.218 89.0674 109.218C89.7396 109.218 90.3585 109.399 90.9241 109.762C91.4896 110.114 91.9378 110.61 92.2686 111.251C92.61 111.891 92.7808 112.611 92.7808 113.412C92.7808 114.212 92.61 114.932 92.2686 115.572C91.9378 116.213 91.4896 116.714 90.9241 117.077C90.3585 117.44 89.7396 117.621 89.0674 117.621C88.5125 117.621 88.011 117.493 87.5628 117.237C87.1146 116.97 86.8052 116.714 86.6345 116.469H86.5544V120.326H85.1779ZM88.9873 116.325C89.4248 116.325 89.825 116.202 90.1878 115.956C90.5613 115.711 90.8547 115.37 91.0681 114.932C91.2922 114.484 91.4042 113.977 91.4042 113.412C91.4042 112.846 91.2922 112.344 91.0681 111.907C90.8547 111.469 90.5613 111.128 90.1878 110.883C89.825 110.637 89.4248 110.514 88.9873 110.514C88.5498 110.514 88.1444 110.637 87.7709 110.883C87.3974 111.128 87.0986 111.469 86.8746 111.907C86.6611 112.344 86.5544 112.846 86.5544 113.412C86.5544 113.977 86.6611 114.484 86.8746 114.932C87.0986 115.37 87.3974 115.711 87.7709 115.956C88.1444 116.202 88.5498 116.325 88.9873 116.325ZM97.8559 117.621C97.1516 117.621 96.5007 117.44 95.9032 117.077C95.3163 116.703 94.8468 116.197 94.4946 115.556C94.1425 114.905 93.9664 114.19 93.9664 113.412C93.9664 112.633 94.1425 111.923 94.4946 111.283C94.8468 110.642 95.3163 110.141 95.9032 109.778C96.5007 109.405 97.1516 109.218 97.8559 109.218C98.5495 109.218 99.1951 109.405 99.7926 109.778C100.39 110.141 100.865 110.642 101.217 111.283C101.569 111.923 101.745 112.633 101.745 113.412C101.745 114.19 101.569 114.905 101.217 115.556C100.865 116.197 100.39 116.703 99.7926 117.077C99.1951 117.44 98.5495 117.621 97.8559 117.621ZM97.8559 116.325C98.3041 116.325 98.7202 116.202 99.1044 115.956C99.4885 115.711 99.7926 115.37 100.017 114.932C100.241 114.484 100.353 113.977 100.353 113.412C100.353 112.846 100.241 112.344 100.017 111.907C99.7926 111.469 99.4885 111.128 99.1044 110.883C98.7202 110.637 98.3041 110.514 97.8559 110.514C97.4077 110.514 96.9916 110.637 96.6074 110.883C96.2233 111.128 95.9138 111.469 95.6791 111.907C95.455 112.344 95.343 112.846 95.343 113.412C95.343 113.977 95.455 114.484 95.6791 114.932C95.9138 115.37 96.2179 115.711 96.5914 115.956C96.9756 116.202 97.3971 116.325 97.8559 116.325ZM106.797 117.621C106.092 117.621 105.442 117.44 104.844 117.077C104.257 116.703 103.788 116.197 103.435 115.556C103.083 114.905 102.907 114.19 102.907 113.412C102.907 112.633 103.083 111.923 103.435 111.283C103.788 110.642 104.257 110.141 104.844 109.778C105.442 109.405 106.092 109.218 106.797 109.218C107.416 109.218 107.976 109.362 108.477 109.65C108.99 109.938 109.411 110.317 109.742 110.787C110.073 111.256 110.291 111.763 110.398 112.307H109.022C108.872 111.784 108.605 111.357 108.221 111.027C107.848 110.685 107.373 110.514 106.797 110.514C106.349 110.514 105.932 110.637 105.548 110.883C105.164 111.128 104.855 111.469 104.62 111.907C104.396 112.344 104.284 112.846 104.284 113.412C104.284 113.977 104.396 114.484 104.62 114.932C104.855 115.37 105.159 115.711 105.532 115.956C105.916 116.202 106.338 116.325 106.797 116.325C107.373 116.325 107.848 116.159 108.221 115.828C108.605 115.487 108.872 115.055 109.022 114.532H110.398C110.291 115.076 110.073 115.583 109.742 116.052C109.411 116.522 108.99 116.901 108.477 117.189C107.976 117.477 107.416 117.621 106.797 117.621ZM114.729 117.445H113.336V110.69H110.823V109.394H117.242V110.69H114.729V117.445ZM123.976 112.755V109.394H125.368V117.445H123.976V114.052H119.926V117.445H118.55V109.394H119.926V112.755H123.976ZM130.931 117.621C130.226 117.621 129.576 117.44 128.978 117.077C128.391 116.703 127.922 116.197 127.569 115.556C127.217 114.905 127.041 114.19 127.041 113.412C127.041 112.633 127.217 111.923 127.569 111.283C127.922 110.642 128.391 110.141 128.978 109.778C129.576 109.405 130.226 109.218 130.931 109.218C131.624 109.218 132.27 109.405 132.867 109.778C133.465 110.141 133.94 110.642 134.292 111.283C134.644 111.923 134.82 112.633 134.82 113.412C134.82 114.19 134.644 114.905 134.292 115.556C133.94 116.197 133.465 116.703 132.867 117.077C132.27 117.44 131.624 117.621 130.931 117.621ZM130.931 116.325C131.379 116.325 131.795 116.202 132.179 115.956C132.563 115.711 132.867 115.37 133.091 114.932C133.316 114.484 133.428 113.977 133.428 113.412C133.428 112.846 133.316 112.344 133.091 111.907C132.867 111.469 132.563 111.128 132.179 110.883C131.795 110.637 131.379 110.514 130.931 110.514C130.483 110.514 130.066 110.637 129.682 110.883C129.298 111.128 128.989 111.469 128.754 111.907C128.53 112.344 128.418 112.846 128.418 113.412C128.418 113.977 128.53 114.484 128.754 114.932C128.989 115.37 129.293 115.711 129.666 115.956C130.05 116.202 130.472 116.325 130.931 116.325ZM140.736 115.62L143.553 109.394H144.929V117.445H143.569V112.179L141.104 117.445H140.304L137.839 112.179V117.445H136.478V109.394H137.903L140.736 115.62ZM152.309 109.394H153.734L150.276 118.069C149.924 118.955 149.567 119.563 149.204 119.894C148.841 120.235 148.42 120.406 147.94 120.406C147.726 120.406 147.475 120.358 147.187 120.262V119.014C147.369 119.078 147.545 119.11 147.715 119.11C148.004 119.11 148.244 119.03 148.436 118.87C148.638 118.709 148.815 118.443 148.964 118.069L149.284 117.253L146.099 109.394H147.587L149.972 115.54L152.309 109.394ZM42.9312 130.283C43.2727 130.422 43.5661 130.657 43.8115 130.988C44.0676 131.319 44.1957 131.729 44.1957 132.22C44.1957 132.647 44.0783 133.047 43.8436 133.421C43.6088 133.783 43.262 134.077 42.8032 134.301C42.355 134.514 41.8215 134.621 41.2026 134.621C40.2529 134.621 39.5006 134.376 38.9457 133.885C38.4015 133.383 38.0921 132.754 38.0174 131.996H39.3779C39.4099 132.412 39.5753 132.748 39.8741 133.004C40.1729 133.261 40.605 133.389 41.1706 133.389C41.7148 133.389 42.1256 133.282 42.403 133.068C42.6911 132.844 42.8352 132.54 42.8352 132.156C42.8352 131.772 42.6965 131.463 42.419 131.228C42.1416 130.993 41.7468 130.876 41.2346 130.876H40.3222V129.755H41.1866C41.6561 129.755 42.0135 129.654 42.259 129.451C42.5151 129.248 42.6431 128.987 42.6431 128.667C42.6431 128.325 42.5044 128.037 42.227 127.803C41.9602 127.568 41.5974 127.45 41.1385 127.45C40.6584 127.45 40.2796 127.573 40.0021 127.819C39.7354 128.053 39.5753 128.363 39.5219 128.747H38.1774C38.2415 128.021 38.5349 127.418 39.0578 126.938C39.5913 126.458 40.3116 126.218 41.2186 126.218C41.7734 126.218 42.259 126.33 42.6751 126.554C43.1019 126.767 43.4274 127.061 43.6515 127.434C43.8862 127.797 44.0036 128.192 44.0036 128.619C44.0036 129.046 43.8969 129.392 43.6835 129.659C43.4701 129.926 43.2193 130.134 42.9312 130.283ZM48.7791 126.218C49.3874 126.218 49.9262 126.351 50.3957 126.618C50.8652 126.874 51.228 127.242 51.4841 127.723C51.7509 128.192 51.8843 128.731 51.8843 129.339V134.445H50.8439L50.5558 133.437H50.4758C50.2624 133.735 49.9529 134.008 49.5474 134.253C49.1419 134.498 48.6458 134.621 48.0589 134.621C47.5253 134.621 47.0558 134.514 46.6503 134.301C46.2449 134.088 45.9301 133.799 45.706 133.437C45.4819 133.063 45.3699 132.652 45.3699 132.204C45.3699 131.703 45.5193 131.26 45.818 130.876C46.1275 130.481 46.5543 130.177 47.0985 129.963C47.6534 129.75 48.283 129.643 48.9872 129.643H50.4918V129.275C50.4918 128.731 50.3317 128.299 50.0116 127.979C49.7021 127.648 49.2913 127.482 48.7791 127.482C48.299 127.482 47.9202 127.605 47.6427 127.851C47.3653 128.096 47.1892 128.411 47.1145 128.795H45.722C45.7754 128.336 45.9301 127.909 46.1862 127.514C46.4529 127.12 46.8104 126.805 47.2586 126.57C47.7067 126.335 48.2136 126.218 48.7791 126.218ZM48.283 133.405C48.9445 133.405 49.4781 133.213 49.8835 132.828C50.289 132.434 50.4918 131.943 50.4918 131.356V130.748H49.0833C48.3363 130.748 47.7601 130.87 47.3546 131.116C46.9491 131.361 46.7464 131.703 46.7464 132.14C46.7464 132.524 46.8798 132.834 47.1465 133.068C47.4133 133.293 47.7921 133.405 48.283 133.405ZM53.9788 137.326V126.394H55.0032L55.3073 127.402H55.3873C55.5794 127.146 55.8942 126.885 56.3317 126.618C56.7799 126.351 57.2921 126.218 57.8683 126.218C58.5405 126.218 59.1594 126.399 59.725 126.762C60.2905 127.114 60.7387 127.61 61.0695 128.251C61.4109 128.891 61.5817 129.611 61.5817 130.412C61.5817 131.212 61.4109 131.932 61.0695 132.572C60.7387 133.213 60.2905 133.714 59.725 134.077C59.1594 134.44 58.5405 134.621 57.8683 134.621C57.3134 134.621 56.8119 134.493 56.3637 134.237C55.9155 133.97 55.6061 133.714 55.4354 133.469H55.3553V137.326H53.9788ZM57.7882 133.325C58.2257 133.325 58.6259 133.202 58.9887 132.956C59.3622 132.711 59.6556 132.37 59.869 131.932C60.0931 131.484 60.2051 130.977 60.2051 130.412C60.2051 129.846 60.0931 129.344 59.869 128.907C59.6556 128.469 59.3622 128.128 58.9887 127.883C58.6259 127.637 58.2257 127.514 57.7882 127.514C57.3507 127.514 56.9453 127.637 56.5718 127.883C56.1983 128.128 55.8995 128.469 55.6755 128.907C55.462 129.344 55.3553 129.846 55.3553 130.412C55.3553 130.977 55.462 131.484 55.6755 131.932C55.8995 132.37 56.1983 132.711 56.5718 132.956C56.9453 133.202 57.3507 133.325 57.7882 133.325ZM66.1606 126.218C66.7688 126.218 67.3077 126.351 67.7772 126.618C68.2467 126.874 68.6095 127.242 68.8656 127.723C69.1324 128.192 69.2658 128.731 69.2658 129.339V134.445H68.2254L67.9373 133.437H67.8572C67.6438 133.735 67.3344 134.008 66.9289 134.253C66.5234 134.498 66.0272 134.621 65.4403 134.621C64.9068 134.621 64.4373 134.514 64.0318 134.301C63.6263 134.088 63.3115 133.799 63.0875 133.437C62.8634 133.063 62.7513 132.652 62.7513 132.204C62.7513 131.703 62.9007 131.26 63.1995 130.876C63.5089 130.481 63.9358 130.177 64.48 129.963C65.0348 129.75 65.6644 129.643 66.3687 129.643H67.8732V129.275C67.8732 128.731 67.7132 128.299 67.3931 127.979C67.0836 127.648 66.6728 127.482 66.1606 127.482C65.6804 127.482 65.3016 127.605 65.0242 127.851C64.7467 128.096 64.5707 128.411 64.496 128.795H63.1035C63.1568 128.336 63.3115 127.909 63.5676 127.514C63.8344 127.12 64.1919 126.805 64.64 126.57C65.0882 126.335 65.5951 126.218 66.1606 126.218ZM65.6644 133.405C66.326 133.405 66.8595 133.213 67.265 132.828C67.6705 132.434 67.8732 131.943 67.8732 131.356V130.748H66.4647C65.7178 130.748 65.1416 130.87 64.7361 131.116C64.3306 131.361 64.1278 131.703 64.1278 132.14C64.1278 132.524 64.2612 132.834 64.528 133.068C64.7948 133.293 65.1736 133.405 65.6644 133.405ZM74.8816 134.621C74.156 134.621 73.4997 134.445 72.9129 134.093C72.3366 133.73 71.8778 133.181 71.5364 132.444C71.1949 131.708 71.0242 130.801 71.0242 129.723C71.0242 127.888 71.371 126.437 72.0645 125.37C72.7581 124.303 73.8519 123.657 75.3458 123.433C76.4342 123.273 77.2772 123.139 77.8747 123.033V124.329L76.3061 124.601L75.5218 124.729C74.4654 124.889 73.7078 125.263 73.249 125.85C72.7902 126.426 72.5074 127.136 72.4007 127.979H72.4807C72.6834 127.648 73.0089 127.344 73.4571 127.066C73.9052 126.789 74.4441 126.65 75.0737 126.65C75.7139 126.65 76.3061 126.821 76.8503 127.162C77.3945 127.493 77.8267 127.963 78.1468 128.571C78.4776 129.179 78.643 129.867 78.643 130.636C78.643 131.415 78.4723 132.108 78.1308 132.716C77.8 133.314 77.3465 133.783 76.7703 134.125C76.2048 134.456 75.5752 134.621 74.8816 134.621ZM74.8816 133.325C75.3191 133.325 75.7192 133.218 76.082 133.004C76.4448 132.78 76.733 132.466 76.9464 132.06C77.1598 131.655 77.2665 131.18 77.2665 130.636C77.2665 130.091 77.1598 129.617 76.9464 129.211C76.733 128.795 76.4448 128.48 76.082 128.267C75.7192 128.043 75.3191 127.931 74.8816 127.931C74.4441 127.931 74.0386 128.043 73.6651 128.267C73.3023 128.48 73.0142 128.795 72.8008 129.211C72.5874 129.617 72.4807 130.091 72.4807 130.636C72.4807 131.18 72.5874 131.655 72.8008 132.06C73.0142 132.466 73.3023 132.78 73.6651 133.004C74.0386 133.218 74.4441 133.325 74.8816 133.325ZM83.71 134.621C83.0057 134.621 82.3548 134.44 81.7573 134.077C81.1704 133.703 80.7009 133.197 80.3488 132.556C79.9966 131.905 79.8206 131.19 79.8206 130.412C79.8206 129.633 79.9966 128.923 80.3488 128.283C80.7009 127.642 81.1704 127.141 81.7573 126.778C82.3548 126.405 83.0057 126.218 83.71 126.218C84.4036 126.218 85.0492 126.405 85.6467 126.778C86.2443 127.141 86.7191 127.642 87.0713 128.283C87.4234 128.923 87.5994 129.633 87.5994 130.412C87.5994 131.19 87.4234 131.905 87.0713 132.556C86.7191 133.197 86.2443 133.703 85.6467 134.077C85.0492 134.44 84.4036 134.621 83.71 134.621ZM83.71 133.325C84.1582 133.325 84.5743 133.202 84.9585 132.956C85.3426 132.711 85.6467 132.37 85.8708 131.932C86.0949 131.484 86.2069 130.977 86.2069 130.412C86.2069 129.846 86.0949 129.344 85.8708 128.907C85.6467 128.469 85.3426 128.128 84.9585 127.883C84.5743 127.637 84.1582 127.514 83.71 127.514C83.2618 127.514 82.8457 127.637 82.4615 127.883C82.0774 128.128 81.7679 128.469 81.5332 128.907C81.3091 129.344 81.1971 129.846 81.1971 130.412C81.1971 130.977 81.3091 131.484 81.5332 131.932C81.7679 132.37 82.0721 132.711 82.4455 132.956C82.8297 133.202 83.2512 133.325 83.71 133.325ZM91.9861 134.445H90.5936V127.69H88.0806V126.394H94.499V127.69H91.9861V134.445ZM98.704 130.251L102.369 134.445H100.609L97.1834 130.444V134.445H95.8069V126.394H97.1834V130.187L100.369 126.394H102.017L98.704 130.251ZM108.355 126.394H109.78L106.323 135.069C105.97 135.955 105.613 136.563 105.25 136.894C104.887 137.235 104.466 137.406 103.986 137.406C103.772 137.406 103.521 137.358 103.233 137.262V136.014C103.415 136.078 103.591 136.11 103.762 136.11C104.05 136.11 104.29 136.03 104.482 135.87C104.685 135.709 104.861 135.443 105.01 135.069L105.33 134.253L102.145 126.394H103.634L106.018 132.54L108.355 126.394Z" fill="white"/>
<defs>
<linearGradient id="paint0_linear_235_499" x1="0" y1="0" x2="478.828" y2="731.49" gradientUnits="userSpaceOnUse">
<stop stop-color="#1D1D1D"/>
<stop offset="0.838542"/>
</linearGradient>
<linearGradient id="paint1_linear_235_499" x1="395.476" y1="49.8619" x2="616.188" y2="49.8619" gradientUnits="userSpaceOnUse">
<stop stop-color="#E9D01F"/>
<stop offset="1" stop-color="#6B4E0E"/>
</linearGradient>
<linearGradient id="paint2_linear_235_499" x1="463.29" y1="49.8619" x2="242.58" y2="49.8619" gradientUnits="userSpaceOnUse">
<stop stop-color="#E9D01F"/>
<stop offset="1" stop-color="#6B4E0E"/>
</linearGradient>
</defs>
</svg>
