<svg width="480" height="721" viewBox="0 0 480 721" fill="none" xmlns="http://www.w3.org/2000/svg">
<g clip-path="url(#clip0_102_23530)">
<path d="M535.071 -81.8599C244.306 -61.0104 -112.331 -208.316 -52.9997 799.256L535.071 -81.8599Z" fill="#F7BB0B"/>
<path d="M-53.5792 799.257C237.453 778.407 587.417 882.655 535.031 -81.8594L-53.5792 799.257Z" fill="#F7BB0B"/>
<path d="M116.837 718.14C95.6275 87.8143 257.116 95.256 480 105.675L505.302 238.512L481.86 718.14H116.837Z" fill="#E11619"/>
<path d="M116.837 715.907C158.883 235.907 284.651 172.279 480 200.187L524.279 455.442L482.976 739.721L116.837 715.907Z" fill="#E10D7B"/>
<path d="M116.838 716.279L480 313.303C279.928 297.011 109.963 457.933 115.303 658.596L116.838 716.279Z" fill="#8D054D"/>
<path fill-rule="evenodd" clip-rule="evenodd" d="M0 720.372L0.192584 720.083C0.127784 718.982 0.0635894 717.883 0 716.785V720.372ZM0.220338 720.357C25.2353 718.572 50.7793 717.909 76.4177 717.243C256.445 712.571 441.127 707.778 480 313.383V720.372H0.210425L0.220338 720.357ZM0.208756 720.358C0.143426 720.363 0.0780993 720.367 0.0127764 720.372H0.209582C0.209306 720.367 0.209031 720.363 0.208756 720.358ZM0 0H318.001C166.146 6.30494 28.0063 54.3097 0 408.562V0Z" fill="#0E0E0E"/>
<path d="M83.5192 90.919L146.99 168.722H106.919L51.6376 98.8162V168.722H19.4636V20.721H51.6376V86.2391L103.409 20.721H140.555L83.5192 90.919Z" fill="white"/>
<path d="M393.58 630.199L330.11 552.396H370.181L425.462 622.301V552.396H457.636V700.397H425.462V634.879L373.691 700.397H336.545L393.58 630.199Z" fill="white"/>
<path fill-rule="evenodd" clip-rule="evenodd" d="M259.007 564.897L238.12 588.047L272.944 630.734L215.909 700.932H253.055L304.826 635.414V700.162H337V552.154H304.826V622.837L259.007 564.897Z" fill="white"/>
<path fill-rule="evenodd" clip-rule="evenodd" d="M256.229 561.384L235.292 584.579L238.12 588.047L259.007 564.897L256.229 561.384Z" fill="white"/>
<path fill-rule="evenodd" clip-rule="evenodd" d="M216.742 154.795C221.841 150.288 234.453 140.272 241.292 136.329L203.932 90.5285L260.788 20.5449H223.759L172.151 85.8629V20.9535H140.078V168.96H172.151V98.4016L216.742 154.795Z" fill="white"/>
<path fill-rule="evenodd" clip-rule="evenodd" d="M219.557 158.355C228.889 149.175 239.275 142.127 243.59 139.147L241.292 136.329C234.453 140.272 221.841 150.288 216.742 154.795L219.557 158.355Z" fill="white"/>
<path d="M19.79 177.492H25.1433C27.8427 177.492 29.7031 179.289 29.7031 181.997C29.7031 184.697 27.7789 186.502 25.0065 186.502H22.5442V190.652H19.79V177.492ZM22.5442 179.672V184.35H24.4046C25.9823 184.35 26.9034 183.511 26.9034 182.006C26.9034 180.511 25.9914 179.672 24.4137 179.672H22.5442ZM35.4941 182.636C34.3268 182.636 33.4878 183.52 33.3966 184.742H37.546C37.4913 183.493 36.6796 182.636 35.4941 182.636ZM37.5825 187.661H40.0265C39.7347 189.576 37.9837 190.862 35.567 190.862C32.5576 190.862 30.7519 188.937 30.7519 185.809C30.7519 182.69 32.5758 180.666 35.4667 180.666C38.3121 180.666 40.1086 182.59 40.1086 185.563V186.375H33.3692V186.539C33.3692 187.934 34.2538 188.892 35.6126 188.892C36.5884 188.892 37.3363 188.408 37.5825 187.661ZM41.6498 190.652V180.876H44.3037V188.636H47.0304V180.876H49.6843V188.636H52.411V180.876H55.0649V190.652H41.6498ZM59.5791 190.652H56.9709V180.876H59.5791V186.986H59.652L63.537 180.876H66.1452V190.652H63.537V184.469H63.464L59.5791 190.652ZM78.174 190.652V186.648H74.4167V190.652H71.7629V180.876H74.4167V184.633H78.174V180.876H80.8279V190.652H78.174ZM86.5185 188.883C87.6767 188.883 88.6343 188.126 88.6343 187.068V186.357L86.5732 186.484C85.5792 186.557 85.0138 187.004 85.0138 187.697C85.0138 188.427 85.6157 188.883 86.5185 188.883ZM85.643 190.807C83.7826 190.807 82.3691 189.603 82.3691 187.843C82.3691 186.065 83.737 185.034 86.172 184.888L88.6343 184.742V184.095C88.6343 183.183 87.9959 182.654 86.9927 182.654C85.9987 182.654 85.3694 183.146 85.2418 183.867H82.8068C82.9071 181.97 84.5213 180.666 87.1113 180.666C89.6192 180.666 91.2516 181.961 91.2516 183.931V190.652H88.6799V189.156H88.6252C88.078 190.196 86.8651 190.807 85.643 190.807ZM105.506 190.652H102.852V186.584H102.751C102.213 187.168 101.365 187.56 100.244 187.56C98.0093 187.56 96.6596 186.165 96.6596 183.949V180.876H99.3134V183.566C99.3134 184.688 99.9426 185.353 101.019 185.353C101.912 185.353 102.524 185.007 102.852 184.578V180.876H105.506V190.652ZM111.543 185.663H110.075V188.664H111.543C112.51 188.664 113.13 188.053 113.13 187.159C113.13 186.265 112.5 185.663 111.543 185.663ZM107.421 190.652V180.876H110.075V183.703H111.981C114.288 183.703 115.765 185.052 115.765 187.177C115.765 189.302 114.288 190.652 111.981 190.652H107.421ZM121.638 182.636C120.471 182.636 119.632 183.52 119.541 184.742H123.69C123.635 183.493 122.824 182.636 121.638 182.636ZM123.727 187.661H126.171C125.879 189.576 124.128 190.862 121.711 190.862C118.702 190.862 116.896 188.937 116.896 185.809C116.896 182.69 118.72 180.666 121.611 180.666C124.456 180.666 126.253 182.59 126.253 185.563V186.375H119.513V186.539C119.513 187.934 120.398 188.892 121.757 188.892C122.733 188.892 123.48 188.408 123.727 187.661ZM130.402 190.652H127.794V180.876H130.402V186.986H130.475L134.36 180.876H136.968V190.652H134.36V184.469H134.287L130.402 190.652ZM129.253 176.453H130.876C130.895 177.428 131.506 178.131 132.463 178.131C133.412 178.131 134.023 177.428 134.041 176.453H135.673C135.673 178.249 134.378 179.453 132.463 179.453C130.539 179.453 129.253 178.249 129.253 176.453ZM151.387 184.213H148.897C148.678 183.365 148.04 182.754 147.027 182.754C145.714 182.754 144.903 183.885 144.903 185.755C144.903 187.661 145.714 188.773 147.037 188.773C148.031 188.773 148.687 188.235 148.915 187.314H151.396C151.159 189.475 149.49 190.862 147.009 190.862C144.073 190.862 142.221 188.928 142.221 185.755C142.221 182.636 144.073 180.666 146.991 180.666C149.508 180.666 151.131 182.161 151.387 184.213ZM160.561 180.876V182.882H157.652V190.652H154.998V182.882H152.08V180.876H160.561ZM166.224 190.862C163.269 190.862 161.382 188.965 161.382 185.755C161.382 182.59 163.297 180.666 166.224 180.666C169.152 180.666 171.067 182.581 171.067 185.755C171.067 188.974 169.179 190.862 166.224 190.862ZM166.224 188.828C167.528 188.828 168.358 187.724 168.358 185.764C168.358 183.821 167.519 182.7 166.224 182.7C164.929 182.7 164.081 183.821 164.081 185.764C164.081 187.724 164.911 188.828 166.224 188.828ZM178.317 180.721C180.797 180.721 182.32 182.608 182.32 185.764C182.32 188.91 180.807 190.807 178.363 190.807C176.94 190.807 175.845 190.114 175.326 189.01H175.271V193.844H172.608V180.876H175.234V182.581H175.289C175.818 181.432 176.903 180.721 178.317 180.721ZM177.423 188.664C178.755 188.664 179.594 187.542 179.594 185.764C179.594 183.995 178.755 182.855 177.423 182.855C176.119 182.855 175.262 184.013 175.262 185.764C175.262 187.533 176.119 188.664 177.423 188.664ZM188.385 190.862C185.43 190.862 183.542 188.965 183.542 185.755C183.542 182.59 185.458 180.666 188.385 180.666C191.312 180.666 193.228 182.581 193.228 185.755C193.228 188.974 191.34 190.862 188.385 190.862ZM188.385 188.828C189.689 188.828 190.519 187.724 190.519 185.764C190.519 183.821 189.68 182.7 188.385 182.7C187.09 182.7 186.242 183.821 186.242 185.764C186.242 187.724 187.072 188.828 188.385 188.828ZM201.18 190.652V186.648H197.423V190.652H194.769V180.876H197.423V184.633H201.18V180.876H203.834V190.652H201.18ZM210.135 182.636C208.968 182.636 208.129 183.52 208.038 184.742H212.187C212.133 183.493 211.321 182.636 210.135 182.636ZM212.224 187.661H214.668C214.376 189.576 212.625 190.862 210.208 190.862C207.199 190.862 205.393 188.937 205.393 185.809C205.393 182.69 207.217 180.666 210.108 180.666C212.953 180.666 214.75 182.59 214.75 185.563V186.375H208.01V186.539C208.01 187.934 208.895 188.892 210.254 188.892C211.23 188.892 211.978 188.408 212.224 187.661ZM227.919 180.876V182.882H225.01V190.652H222.356V182.882H219.437V180.876H227.919ZM238.58 190.652V180.876H241.233V190.652H238.58ZM233.4 185.663H231.931V188.664H233.4C234.366 188.664 234.986 188.053 234.986 187.159C234.986 186.265 234.357 185.663 233.4 185.663ZM229.278 190.652V180.876H231.931V183.703H233.837C236.145 183.703 237.622 185.052 237.622 187.177C237.622 189.302 236.145 190.652 233.837 190.652H229.278ZM242.674 181.186C242.72 178.942 244.307 177.374 247.106 177.374C249.715 177.374 251.438 178.824 251.438 180.903C251.438 182.28 250.773 183.238 249.487 183.995C248.274 184.697 247.936 185.144 247.936 186.037V186.521H245.52L245.501 185.992C245.383 184.56 245.884 183.739 247.143 183C248.319 182.298 248.675 181.851 248.675 180.985C248.675 180.119 247.982 179.489 246.942 179.489C245.894 179.489 245.2 180.155 245.146 181.186H242.674ZM246.76 190.88C245.939 190.88 245.273 190.251 245.273 189.448C245.273 188.646 245.939 188.016 246.76 188.016C247.59 188.016 248.255 188.646 248.255 189.448C248.255 190.251 247.59 190.88 246.76 190.88Z" fill="white"/>
<path d="M457.008 543.711H451.655C448.955 543.711 447.095 541.915 447.095 539.206C447.095 536.507 449.019 534.701 451.791 534.701H454.254V530.552H457.008V543.711ZM454.254 541.532V536.853H452.393C450.816 536.853 449.894 537.692 449.894 539.197C449.894 540.693 450.806 541.532 452.384 541.532H454.254ZM441.304 538.568C442.471 538.568 443.31 537.683 443.401 536.461H439.252C439.307 537.711 440.118 538.568 441.304 538.568ZM439.215 533.543H436.771C437.063 531.628 438.814 530.342 441.231 530.342C444.24 530.342 446.046 532.266 446.046 535.394C446.046 538.513 444.222 540.538 441.331 540.538C438.486 540.538 436.689 538.614 436.689 535.641V534.829H443.429V534.665C443.429 533.269 442.544 532.312 441.185 532.312C440.209 532.312 439.462 532.795 439.215 533.543ZM435.148 530.552V540.328H432.494V532.567H429.767V540.328H427.114V532.567H424.387V540.328H421.733V530.552H435.148ZM417.219 530.552H419.827V540.328H417.219V534.218H417.146L413.261 540.328H410.653V530.552H413.261V536.735H413.334L417.219 530.552ZM398.624 530.552V534.555H402.381V530.552H405.035V540.328H402.381V536.571H398.624V540.328H395.97V530.552H398.624ZM390.279 532.321C389.121 532.321 388.164 533.078 388.164 534.136V534.847L390.225 534.719C391.219 534.646 391.784 534.2 391.784 533.507C391.784 532.777 391.182 532.321 390.279 532.321ZM391.155 530.397C393.015 530.397 394.429 531.601 394.429 533.361C394.429 535.139 393.061 536.169 390.626 536.315L388.164 536.461V537.109C388.164 538.021 388.802 538.55 389.805 538.55C390.799 538.55 391.428 538.057 391.556 537.337H393.991C393.891 539.234 392.277 540.538 389.687 540.538C387.179 540.538 385.546 539.243 385.546 537.273V530.552H388.118V532.047H388.173C388.72 531.008 389.933 530.397 391.155 530.397ZM371.292 530.552H373.946V534.619H374.046C374.584 534.035 375.433 533.643 376.554 533.643C378.789 533.643 380.138 535.039 380.138 537.255V540.328H377.484V537.638C377.484 536.516 376.855 535.85 375.779 535.85C374.885 535.85 374.274 536.197 373.946 536.625V540.328H371.292V530.552ZM365.255 535.54H366.723V532.54H365.255C364.288 532.54 363.668 533.151 363.668 534.045C363.668 534.938 364.297 535.54 365.255 535.54ZM369.377 530.552V540.328H366.723V537.501H364.817C362.51 537.501 361.033 536.151 361.033 534.026C361.033 531.901 362.51 530.552 364.817 530.552H369.377ZM355.16 538.568C356.327 538.568 357.166 537.683 357.257 536.461H353.108C353.162 537.711 353.974 538.568 355.16 538.568ZM353.071 533.543H350.627C350.919 531.628 352.67 530.342 355.087 530.342C358.096 530.342 359.902 532.266 359.902 535.394C359.902 538.513 358.078 540.538 355.187 540.538C352.342 540.538 350.545 538.614 350.545 535.641V534.829H357.284V534.665C357.284 533.269 356.4 532.312 355.041 532.312C354.065 532.312 353.317 532.795 353.071 533.543ZM346.396 530.552H349.004V540.328H346.396V534.218H346.323L342.438 540.328H339.829V530.552H342.438V536.735H342.511L346.396 530.552ZM347.545 544.751H345.921C345.903 543.775 345.292 543.073 344.335 543.073C343.386 543.073 342.775 543.775 342.757 544.751H341.124C341.124 542.954 342.419 541.751 344.335 541.751C346.259 541.751 347.545 542.954 347.545 544.751ZM325.411 536.99H327.901C328.12 537.838 328.758 538.449 329.77 538.449C331.084 538.449 331.895 537.319 331.895 535.449C331.895 533.543 331.084 532.43 329.761 532.43C328.767 532.43 328.111 532.968 327.883 533.89H325.402C325.639 531.728 327.308 530.342 329.789 530.342C332.725 530.342 334.577 532.275 334.577 535.449C334.577 538.568 332.725 540.538 329.807 540.538C327.29 540.538 325.667 539.042 325.411 536.99ZM316.237 540.328V538.322H319.146V530.552H321.8V538.322H324.718V540.328H316.237ZM310.574 530.342C313.528 530.342 315.416 532.239 315.416 535.449C315.416 538.614 313.501 540.538 310.574 540.538C307.646 540.538 305.731 538.623 305.731 535.449C305.731 532.23 307.619 530.342 310.574 530.342ZM310.574 532.376C309.269 532.376 308.44 533.479 308.44 535.44C308.44 537.382 309.279 538.504 310.574 538.504C311.869 538.504 312.717 537.382 312.717 535.44C312.717 533.479 311.887 532.376 310.574 532.376ZM298.481 540.483C296 540.483 294.477 538.595 294.477 535.44C294.477 532.294 295.991 530.397 298.435 530.397C299.858 530.397 300.952 531.09 301.472 532.193H301.527V527.36H304.19V540.328H301.563V538.623H301.509C300.98 539.772 299.894 540.483 298.481 540.483ZM299.375 532.54C298.043 532.54 297.204 533.662 297.204 535.44C297.204 537.209 298.043 538.349 299.375 538.349C300.679 538.349 301.536 537.191 301.536 535.44C301.536 533.671 300.679 532.54 299.375 532.54ZM288.413 530.342C291.368 530.342 293.255 532.239 293.255 535.449C293.255 538.614 291.34 540.538 288.413 540.538C285.485 540.538 283.57 538.623 283.57 535.449C283.57 532.23 285.458 530.342 288.413 530.342ZM288.413 532.376C287.109 532.376 286.279 533.479 286.279 535.44C286.279 537.382 287.118 538.504 288.413 538.504C289.708 538.504 290.556 537.382 290.556 535.44C290.556 533.479 289.726 532.376 288.413 532.376ZM275.618 530.552V534.555H279.375V530.552H282.029V540.328H279.375V536.571H275.618V540.328H272.964V530.552H275.618ZM266.662 538.568C267.83 538.568 268.669 537.683 268.76 536.461H264.611C264.665 537.711 265.477 538.568 266.662 538.568ZM264.574 533.543H262.13C262.422 531.628 264.173 530.342 266.59 530.342C269.599 530.342 271.405 532.266 271.405 535.394C271.405 538.513 269.581 540.538 266.69 540.538C263.845 540.538 262.048 538.614 262.048 535.641V534.829H268.787V534.665C268.787 533.269 267.903 532.312 266.544 532.312C265.568 532.312 264.82 532.795 264.574 533.543ZM248.879 540.328V538.322H251.788V530.552H254.442V538.322H257.36V540.328H248.879ZM238.218 530.552V540.328H235.564V530.552H238.218ZM243.398 535.54H244.867V532.54H243.398C242.432 532.54 241.811 533.151 241.811 534.045C241.811 534.938 242.441 535.54 243.398 535.54ZM247.52 530.552V540.328H244.867V537.501H242.961C240.653 537.501 239.176 536.151 239.176 534.026C239.176 531.901 240.653 530.552 242.961 530.552H247.52ZM234.124 540.018C234.078 542.261 232.491 543.83 229.691 543.83C227.083 543.83 225.36 542.38 225.36 540.301C225.36 538.924 226.025 537.966 227.311 537.209C228.524 536.507 228.862 536.06 228.862 535.166V534.683H231.278L231.296 535.212C231.415 536.644 230.913 537.464 229.655 538.203C228.479 538.905 228.123 539.352 228.123 540.219C228.123 541.085 228.816 541.714 229.856 541.714C230.904 541.714 231.597 541.048 231.652 540.018H234.124ZM230.038 530.324C230.859 530.324 231.524 530.953 231.524 531.756C231.524 532.558 230.859 533.187 230.038 533.187C229.208 533.187 228.542 532.558 228.542 531.756C228.542 530.953 229.208 530.324 230.038 530.324Z" fill="white"/>
<path d="M23.6203 196.117H21.6049V198.634H23.4288C24.5414 198.634 25.0977 198.206 25.0977 197.357C25.0977 196.564 24.5779 196.117 23.6203 196.117ZM23.5565 200.011H21.6049V202.848H23.7753C24.8879 202.848 25.4898 202.355 25.4898 201.434C25.4898 200.486 24.8515 200.011 23.5565 200.011ZM19.6624 204.279V194.685H24.0216C25.8911 194.685 27.0219 195.616 27.0219 197.129C27.0219 198.124 26.3106 199.026 25.3895 199.2V199.273C26.6298 199.437 27.4506 200.312 27.4506 201.516C27.4506 203.203 26.1556 204.279 24.0763 204.279H19.6624ZM37.7466 204.279V194.685H39.6982V204.279H37.7466ZM32.822 199.191H31.1622V202.729H32.822C33.9529 202.729 34.6824 202.018 34.6824 200.96C34.6824 199.893 33.9437 199.191 32.822 199.191ZM29.2015 204.279V194.685H31.1622V197.649H32.9953C35.2114 197.649 36.6432 198.935 36.6432 200.96C36.6432 202.993 35.2114 204.279 32.9953 204.279H29.2015ZM46.1002 204.462C43.0999 204.462 41.4766 202.501 41.4766 198.707C41.4766 193.381 43.0269 191.22 46.6748 191.092L47.532 191.065C48.5625 191.019 49.6022 190.828 50.0399 190.591V192.223C49.7937 192.451 48.8179 192.688 47.6415 192.734L46.8024 192.761C44.2398 192.852 43.4282 194.001 43.0725 196.71H43.1455C43.7565 195.579 44.9147 194.959 46.4194 194.959C49.0094 194.959 50.6692 196.765 50.6692 199.592C50.6692 202.61 48.9273 204.462 46.1002 204.462ZM46.082 202.811C47.7053 202.811 48.6537 201.662 48.6537 199.619C48.6537 197.677 47.7053 196.564 46.082 196.564C44.4496 196.564 43.492 197.677 43.492 199.619C43.492 201.662 44.4405 202.811 46.082 202.811ZM56.3872 196.099C55.0101 196.099 54.0435 197.148 53.9431 198.598H58.7401C58.6945 197.129 57.7643 196.099 56.3872 196.099ZM58.731 201.461H60.6005C60.3269 203.212 58.6671 204.462 56.4693 204.462C53.6513 204.462 51.9459 202.556 51.9459 199.528C51.9459 196.518 53.6787 194.512 56.3872 194.512C59.0501 194.512 60.7099 196.391 60.7099 199.3V199.975H53.934V200.093C53.934 201.762 54.9372 202.866 56.5149 202.866C57.6366 202.866 58.4665 202.3 58.731 201.461ZM67.4037 194.53C69.8387 194.53 71.4437 196.446 71.4437 199.482C71.4437 202.519 69.8478 204.443 67.4402 204.443C66.0631 204.443 64.9688 203.769 64.4216 202.702H64.376V207.453H62.4062V194.685H64.3122V196.336H64.3487C64.9141 195.233 66.0175 194.53 67.4037 194.53ZM66.8839 202.775C68.4434 202.775 69.4192 201.498 69.4192 199.482C69.4192 197.476 68.4434 196.19 66.8839 196.19C65.3792 196.19 64.3669 197.503 64.3669 199.482C64.3669 201.48 65.3701 202.775 66.8839 202.775ZM75.0825 204.279H73.14V194.685H75.0825V201.407H75.1554L79.5876 194.685H81.5301V204.279H79.5876V197.54H79.5146L75.0825 204.279ZM95.6291 197.759H93.7322C93.4768 196.874 92.7472 196.154 91.5252 196.154C90.0022 196.154 89.0082 197.458 89.0082 199.482C89.0082 201.562 90.0113 202.811 91.5435 202.811C92.7108 202.811 93.4768 202.227 93.7504 201.224H95.6473C95.3646 203.148 93.7869 204.462 91.5252 204.462C88.7802 204.462 87.011 202.556 87.011 199.482C87.011 196.473 88.7802 194.512 91.507 194.512C93.8781 194.512 95.3555 195.99 95.6291 197.759ZM101.192 196.117H99.1766V198.634H101.001C102.113 198.634 102.669 198.206 102.669 197.357C102.669 196.564 102.15 196.117 101.192 196.117ZM101.128 200.011H99.1766V202.848H101.347C102.46 202.848 103.062 202.355 103.062 201.434C103.062 200.486 102.423 200.011 101.128 200.011ZM97.2341 204.279V194.685H101.593C103.463 194.685 104.594 195.616 104.594 197.129C104.594 198.124 103.882 199.026 102.961 199.2V199.273C104.202 199.437 105.022 200.312 105.022 201.516C105.022 203.203 103.727 204.279 101.648 204.279H97.2341ZM110.904 204.462C108.159 204.462 106.354 202.574 106.354 199.482C106.354 196.4 108.169 194.512 110.904 194.512C113.64 194.512 115.455 196.4 115.455 199.482C115.455 202.574 113.649 204.462 110.904 204.462ZM110.904 202.838C112.455 202.838 113.449 201.616 113.449 199.482C113.449 197.357 112.446 196.135 110.904 196.135C109.363 196.135 108.36 197.357 108.36 199.482C108.36 201.616 109.363 202.838 110.904 202.838ZM119.094 204.279H117.151V194.685H119.094V201.407H119.167L123.599 194.685H125.542V204.279H123.599V197.54H123.526L119.094 204.279ZM118.456 190.472H119.787C119.796 191.503 120.453 192.287 121.483 192.287C122.523 192.287 123.18 191.503 123.189 190.472H124.52C124.52 192.196 123.298 193.363 121.483 193.363C119.678 193.363 118.456 192.196 118.456 190.472ZM137.835 202.72V196.245H134.497L134.233 199.911C134.16 201.042 133.922 202.027 133.485 202.647V202.72H137.835ZM132.381 206.796H130.566V202.72H131.342C132.044 202.282 132.363 201.124 132.454 199.829L132.801 194.685H139.796V202.72H141.282V206.796H139.458V204.279H132.381V206.796ZM144.556 204.279H142.613V194.685H144.556V201.407H144.629L149.061 194.685H151.004V204.279H149.061V197.54H148.988L144.556 204.279ZM156.567 204.462C154.323 204.462 152.764 203.358 152.59 201.589H154.533C154.734 202.419 155.463 202.875 156.567 202.875C157.825 202.875 158.527 202.291 158.527 201.443C158.527 200.486 157.88 200.048 156.576 200.048H155.171V198.598H156.548C157.652 198.598 158.226 198.178 158.226 197.339C158.226 196.601 157.697 196.081 156.576 196.081C155.518 196.081 154.806 196.537 154.679 197.285H152.791C152.992 195.579 154.423 194.512 156.567 194.512C158.892 194.512 160.151 195.552 160.151 197.148C160.151 198.124 159.549 198.953 158.618 199.191V199.263C159.841 199.546 160.488 200.34 160.488 201.434C160.488 203.258 158.947 204.462 156.567 204.462ZM165.586 202.884C166.963 202.884 168.039 201.936 168.039 200.686V199.929L165.677 200.075C164.501 200.157 163.835 200.677 163.835 201.498C163.835 202.337 164.528 202.884 165.586 202.884ZM165.039 204.443C163.16 204.443 161.847 203.276 161.847 201.553C161.847 199.875 163.133 198.844 165.413 198.716L168.039 198.561V197.823C168.039 196.756 167.319 196.117 166.115 196.117C164.975 196.117 164.264 196.664 164.09 197.522H162.23C162.339 195.789 163.817 194.512 166.188 194.512C168.513 194.512 170 195.743 170 197.668V204.279H168.112V202.702H168.066C167.51 203.769 166.297 204.443 165.039 204.443ZM174.012 204.279H172.07V194.685H174.012V201.407H174.085L178.518 194.685H180.46V204.279H178.518V197.54H178.445L174.012 204.279ZM173.374 190.472H174.706C174.715 191.503 175.371 192.287 176.402 192.287C177.441 192.287 178.098 191.503 178.107 190.472H179.439C179.439 192.196 178.217 193.363 176.402 193.363C174.596 193.363 173.374 192.196 173.374 190.472ZM188.877 204.279V200.102H184.537V204.279H182.576V194.685H184.537V198.552H188.877V194.685H190.838V204.279H188.877ZM21.5593 223.279H19.6624V213.685H22.1338L25.2071 220.717H25.2801L28.3716 213.685H30.7883V223.279H28.8732V216.622H28.8094L25.9367 222.905H24.4958L21.6231 216.622H21.5593V223.279ZM36.2693 221.884C37.6463 221.884 38.7224 220.936 38.7224 219.686V218.929L36.3604 219.075C35.184 219.157 34.5183 219.677 34.5183 220.498C34.5183 221.337 35.2114 221.884 36.2693 221.884ZM35.7221 223.443C33.8434 223.443 32.5302 222.276 32.5302 220.553C32.5302 218.875 33.8161 217.844 36.096 217.716L38.7224 217.561V216.823C38.7224 215.756 38.002 215.117 36.7982 215.117C35.6582 215.117 34.9469 215.664 34.7736 216.522H32.9132C33.0227 214.789 34.5 213.512 36.8711 213.512C39.1967 213.512 40.6832 214.743 40.6832 216.668V223.279H38.7954V221.702H38.7498C38.1935 222.769 36.9806 223.443 35.7221 223.443ZM42.7533 223.279V213.685H44.714V221.72H47.9333V213.685H49.894V221.72H53.1132V213.685H55.074V223.279H42.7533ZM59.1413 223.279H57.1988V213.685H59.1413V220.407H59.2143L63.6464 213.685H65.5889V223.279H63.6464V216.54H63.5735L59.1413 223.279ZM74.0064 223.279V219.102H69.6654V223.279H67.7047V213.685H69.6654V217.552H74.0064V213.685H75.9671V223.279H74.0064ZM86.6462 223.279V213.685H88.5978V223.279H86.6462ZM81.7216 218.191H80.0618V221.729H81.7216C82.8524 221.729 83.582 221.018 83.582 219.96C83.582 218.893 82.8433 218.191 81.7216 218.191ZM78.1011 223.279V213.685H80.0618V216.649H81.8949C84.1109 216.649 85.5427 217.935 85.5427 219.96C85.5427 221.993 84.1109 223.279 81.8949 223.279H78.1011Z" fill="white"/>
<path d="M453.119 525.034H455.134V522.517H453.31C452.198 522.517 451.642 522.946 451.642 523.794C451.642 524.587 452.161 525.034 453.119 525.034ZM453.183 521.14H455.134V518.304H452.964C451.851 518.304 451.249 518.796 451.249 519.717C451.249 520.666 451.888 521.14 453.183 521.14ZM457.077 516.872V526.466H452.718C450.848 526.466 449.717 525.536 449.717 524.022C449.717 523.028 450.429 522.125 451.35 521.952V521.879C450.109 521.715 449.289 520.839 449.289 519.635C449.289 517.948 450.584 516.872 452.663 516.872H457.077ZM438.993 516.872V526.466H437.041V516.872H438.993ZM443.917 521.961H445.577V518.422H443.917C442.786 518.422 442.057 519.134 442.057 520.192C442.057 521.259 442.796 521.961 443.917 521.961ZM447.538 516.872V526.466H445.577V523.502H443.744C441.528 523.502 440.096 522.216 440.096 520.192C440.096 518.158 441.528 516.872 443.744 516.872H447.538ZM430.639 516.69C433.639 516.69 435.263 518.65 435.263 522.444C435.263 527.77 433.712 529.931 430.064 530.059L429.207 530.086C428.177 530.132 427.137 530.324 426.699 530.561V528.928C426.946 528.7 427.921 528.463 429.098 528.418L429.937 528.39C432.499 528.299 433.311 527.15 433.667 524.441H433.594C432.983 525.572 431.825 526.192 430.32 526.192C427.73 526.192 426.07 524.387 426.07 521.56C426.07 518.541 427.812 516.69 430.639 516.69ZM430.657 518.34C429.034 518.34 428.086 519.489 428.086 521.532C428.086 523.475 429.034 524.587 430.657 524.587C432.29 524.587 433.247 523.475 433.247 521.532C433.247 519.489 432.299 518.34 430.657 518.34ZM420.352 525.052C421.729 525.052 422.696 524.004 422.796 522.554H417.999C418.045 524.022 418.975 525.052 420.352 525.052ZM418.008 519.69H416.139C416.412 517.939 418.072 516.69 420.27 516.69C423.088 516.69 424.793 518.596 424.793 521.623C424.793 524.633 423.061 526.639 420.352 526.639C417.689 526.639 416.029 524.761 416.029 521.851V521.177H422.805V521.058C422.805 519.389 421.802 518.286 420.224 518.286C419.103 518.286 418.273 518.851 418.008 519.69ZM409.336 526.621C406.901 526.621 405.296 524.706 405.296 521.669C405.296 518.632 406.891 516.708 409.299 516.708C410.676 516.708 411.77 517.383 412.318 518.45H412.363V513.698H414.333V526.466H412.427V524.815H412.391C411.825 525.919 410.722 526.621 409.336 526.621ZM409.855 518.377C408.296 518.377 407.32 519.654 407.32 521.669C407.32 523.675 408.296 524.961 409.855 524.961C411.36 524.961 412.372 523.648 412.372 521.669C412.372 519.672 411.369 518.377 409.855 518.377ZM401.657 516.872H403.599V526.466H401.657V519.745H401.584L397.152 526.466H395.209V516.872H397.152V523.611H397.225L401.657 516.872ZM381.11 523.393H383.007C383.262 524.277 383.992 524.998 385.214 524.998C386.737 524.998 387.731 523.694 387.731 521.669C387.731 519.59 386.728 518.34 385.196 518.34C384.028 518.34 383.262 518.924 382.989 519.927H381.092C381.375 518.003 382.952 516.69 385.214 516.69C387.959 516.69 389.728 518.596 389.728 521.669C389.728 524.678 387.959 526.639 385.232 526.639C382.861 526.639 381.384 525.162 381.11 523.393ZM375.547 525.034H377.563V522.517H375.739C374.626 522.517 374.07 522.946 374.07 523.794C374.07 524.587 374.59 525.034 375.547 525.034ZM375.611 521.14H377.563V518.304H375.392C374.28 518.304 373.678 518.796 373.678 519.717C373.678 520.666 374.316 521.14 375.611 521.14ZM379.505 516.872V526.466H375.146C373.276 526.466 372.146 525.536 372.146 524.022C372.146 523.028 372.857 522.125 373.778 521.952V521.879C372.538 521.715 371.717 520.839 371.717 519.635C371.717 517.948 373.012 516.872 375.091 516.872H379.505ZM365.835 516.69C368.58 516.69 370.385 518.577 370.385 521.669C370.385 524.751 368.571 526.639 365.835 526.639C363.099 526.639 361.284 524.751 361.284 521.669C361.284 518.577 363.09 516.69 365.835 516.69ZM365.835 518.313C364.284 518.313 363.29 519.535 363.29 521.669C363.29 523.794 364.294 525.016 365.835 525.016C367.376 525.016 368.379 523.794 368.379 521.669C368.379 519.535 367.376 518.313 365.835 518.313ZM357.645 516.872H359.588V526.466H357.645V519.745H357.572L353.14 526.466H351.198V516.872H353.14V523.611H353.213L357.645 516.872ZM358.284 530.679H356.952C356.943 529.649 356.287 528.864 355.256 528.864C354.216 528.864 353.56 529.649 353.551 530.679H352.219C352.219 528.956 353.441 527.788 355.256 527.788C357.062 527.788 358.284 528.956 358.284 530.679ZM338.904 518.432V524.906H342.242L342.507 521.24C342.58 520.11 342.817 519.125 343.255 518.504V518.432H338.904ZM344.358 514.355H346.173V518.432H345.398C344.695 518.869 344.376 520.027 344.285 521.322L343.939 526.466H336.944V518.432H335.457V514.355H337.281V516.872H344.358V514.355ZM332.183 516.872H334.126V526.466H332.183V519.745H332.11L327.678 526.466H325.736V516.872H327.678V523.611H327.751L332.183 516.872ZM320.173 516.69C322.416 516.69 323.976 517.793 324.149 519.562H322.206C322.006 518.732 321.276 518.276 320.173 518.276C318.914 518.276 318.212 518.86 318.212 519.708C318.212 520.666 318.859 521.104 320.164 521.104H321.568V522.554H320.191C319.087 522.554 318.513 522.973 318.513 523.812C318.513 524.551 319.042 525.071 320.164 525.071C321.221 525.071 321.933 524.615 322.06 523.867H323.948C323.748 525.572 322.316 526.639 320.173 526.639C317.847 526.639 316.589 525.6 316.589 524.004C316.589 523.028 317.191 522.198 318.121 521.961V521.888C316.899 521.605 316.251 520.812 316.251 519.717C316.251 517.893 317.792 516.69 320.173 516.69ZM311.153 518.267C309.776 518.267 308.7 519.216 308.7 520.465V521.222L311.062 521.076C312.239 520.994 312.904 520.474 312.904 519.654C312.904 518.815 312.211 518.267 311.153 518.267ZM311.701 516.708C313.579 516.708 314.892 517.875 314.892 519.599C314.892 521.277 313.607 522.307 311.327 522.435L308.7 522.59V523.329C308.7 524.396 309.421 525.034 310.624 525.034C311.764 525.034 312.476 524.487 312.649 523.63H314.509C314.4 525.362 312.923 526.639 310.551 526.639C308.226 526.639 306.739 525.408 306.739 523.484V516.872H308.627V518.45H308.673C309.229 517.383 310.442 516.708 311.701 516.708ZM302.727 516.872H304.669V526.466H302.727V519.745H302.654L298.222 526.466H296.279V516.872H298.222V523.611H298.295L302.727 516.872ZM303.365 530.679H302.034C302.025 529.649 301.368 528.864 300.337 528.864C299.298 528.864 298.641 529.649 298.632 530.679H297.301C297.301 528.956 298.523 527.788 300.337 527.788C302.143 527.788 303.365 528.956 303.365 530.679ZM287.862 516.872V521.049H292.203V516.872H294.163V526.466H292.203V522.599H287.862V526.466H285.901V516.872H287.862ZM455.18 497.872H457.077V507.466H454.605L451.532 500.435H451.459L448.368 507.466H445.951V497.872H447.866V504.529H447.93L450.803 498.246H452.243L455.116 504.529H455.18V497.872ZM440.47 499.267C439.093 499.267 438.017 500.216 438.017 501.465V502.222L440.379 502.076C441.555 501.994 442.221 501.474 442.221 500.654C442.221 499.815 441.528 499.267 440.47 499.267ZM441.017 497.708C442.896 497.708 444.209 498.875 444.209 500.599C444.209 502.277 442.923 503.307 440.643 503.435L438.017 503.59V504.329C438.017 505.396 438.737 506.034 439.941 506.034C441.081 506.034 441.792 505.487 441.966 504.63H443.826C443.717 506.362 442.239 507.639 439.868 507.639C437.543 507.639 436.056 506.408 436.056 504.484V497.872H437.944V499.45H437.989C438.546 498.383 439.759 497.708 441.017 497.708ZM433.986 497.872V507.466H432.025V499.432H428.806V507.466H426.845V499.432H423.626V507.466H421.665V497.872H433.986ZM417.598 497.872H419.54V507.466H417.598V500.745H417.525L413.093 507.466H411.15V497.872H413.093V504.611H413.166L417.598 497.872ZM402.733 497.872V502.049H407.074V497.872H409.035V507.466H407.074V503.599H402.733V507.466H400.772V497.872H402.733ZM390.093 497.872V507.466H388.141V497.872H390.093ZM395.018 502.961H396.677V499.422H395.018C393.887 499.422 393.157 500.134 393.157 501.192C393.157 502.259 393.896 502.961 395.018 502.961ZM398.638 497.872V507.466H396.677V504.502H394.844C392.628 504.502 391.197 503.216 391.197 501.192C391.197 499.158 392.628 497.872 394.844 497.872H398.638Z" fill="white"/>
</g>
<defs>
<clipPath id="clip0_102_23530">
<rect width="480" height="720.372" fill="white"/>
</clipPath>
</defs>
</svg>
