<svg width="480" height="720" viewBox="0 0 480 720" fill="none" xmlns="http://www.w3.org/2000/svg">
<g clip-path="url(#clip0_235_8932)">
<rect width="480" height="719.066" fill="#0E0E0E"/>
<path fill-rule="evenodd" clip-rule="evenodd" d="M510.144 511.99C512.888 501.928 514.26 489.58 514.26 474.946C514.26 442.475 506.943 412.977 492.308 386.451C477.673 359.925 457.779 339.117 432.625 324.025C407.472 308.475 379.574 300.7 348.933 300.7C318.291 300.7 289.708 308.932 263.182 325.397C237.114 341.403 216.305 363.356 200.756 391.253C185.206 418.693 177.432 449.106 177.432 482.492C177.432 516.335 184.978 547.205 200.07 575.102C215.619 602.542 236.428 624.266 262.496 640.273C289.022 656.279 318.063 664.283 349.619 664.283C373.858 664.283 396.267 659.252 416.847 649.191C437.885 639.129 455.492 626.095 469.67 610.089C484.304 594.082 495.052 577.389 501.912 560.01H468.13V565.255H419.725C412.947 573.452 404.442 580.394 394.209 586.078C381.861 592.938 366.769 596.368 348.933 596.368C324.237 596.368 303.199 588.822 285.82 573.73C268.442 558.638 257.466 538.058 252.892 511.99H510.144ZM286.506 392.625C304.343 376.618 325.151 368.615 348.933 368.615C372.257 368.615 392.38 376.618 409.301 392.625C426.223 408.632 436.741 429.441 440.857 455.051H252.892C257.466 428.983 268.67 408.174 286.506 392.625Z" fill="#C8AE1B"/>
<path d="M-84.5463 596.515V-58.7796H-6.21654L12.8883 -5.28616H17.6645C28.4905 -19.2964 46.6401 -33.625 72.1132 -48.272C98.2231 -62.919 128.154 -70.2425 161.906 -70.2425C201.389 -70.2425 238.007 -59.098 271.758 -36.8091C306.147 -15.157 333.531 15.0923 353.909 53.9388C374.288 92.1484 384.477 135.134 384.477 182.896C384.477 230.658 374.288 273.962 353.909 312.809C333.531 351.019 306.147 381.268 271.758 403.557C238.007 425.209 201.389 436.035 161.906 436.035C139.617 436.035 118.602 432.214 98.8599 424.572C79.7551 417.567 63.8344 409.288 51.0979 399.736C38.3613 389.547 29.7642 380.949 25.3064 373.944H20.5302V596.515H-84.5463ZM150.443 338.6C174.005 338.6 195.658 332.232 215.399 319.496C235.141 306.122 250.743 287.654 262.206 264.092C274.306 239.892 280.356 212.827 280.356 182.896C280.356 152.965 274.306 126.219 262.206 102.656C250.743 78.4566 235.141 59.9886 215.399 47.2521C195.658 33.8787 174.005 27.192 150.443 27.192C126.88 27.192 105.228 33.8787 85.4865 47.2521C65.7449 59.9886 49.8242 78.4566 37.7245 102.656C26.2616 126.219 20.5302 152.965 20.5302 182.896C20.5302 212.827 26.2616 239.892 37.7245 264.092C49.8242 287.654 65.7449 306.122 85.4865 319.496C105.228 332.232 126.88 338.6 150.443 338.6Z" fill="#C8AE1B"/>
<path d="M479.131 119.598C492.466 124.697 503.84 133.326 513.254 145.485C523.059 157.643 527.962 172.94 527.962 191.374C527.962 207.063 524.04 221.379 516.195 234.322C508.351 247.265 497.369 257.463 483.249 264.915C469.129 272.367 453.244 276.093 435.594 276.093H287.924V-21.6001H424.416C441.674 -21.6001 457.363 -17.8741 471.482 -10.4219C485.602 -3.362 496.584 6.24734 504.429 18.4061C512.273 30.5649 516.195 43.7042 516.195 57.824C516.195 72.3361 512.469 85.0831 505.017 96.0652C497.565 107.047 488.936 114.892 479.131 119.598ZM350.287 28.996V100.772H412.65C425.201 100.772 435.202 97.6341 442.654 91.3586C450.107 84.6909 453.833 75.6699 453.833 64.2956C453.833 53.7057 450.107 45.273 442.654 38.9975C435.202 32.3298 425.201 28.996 412.65 28.996H350.287ZM424.416 225.497C436.183 225.497 445.988 221.967 453.833 214.907C461.677 207.455 465.599 197.846 465.599 186.079C465.599 175.097 461.677 165.88 453.833 158.428C445.988 150.976 436.183 147.25 424.416 147.25H350.287V225.497H424.416Z" fill="#C8AE1B"/>
<path d="M513.491 474.19V774.167H448.278V672.199H397.294L336.231 774.167H262.126L333.267 662.12C315.087 654.216 300.661 642.359 289.99 626.55C279.714 610.741 274.576 592.758 274.576 572.601C274.576 553.631 278.923 536.833 287.618 522.21C296.709 507.191 309.356 495.532 325.56 487.232C341.765 478.537 360.34 474.19 381.287 474.19H513.491ZM387.809 529.324C373.185 529.324 361.328 533.276 352.238 541.181C343.543 549.085 339.196 559.559 339.196 572.601C339.196 586.434 343.543 597.303 352.238 605.208C360.933 613.112 372.79 617.064 387.809 617.064H450.65V529.324H387.809Z" fill="#C8AE1B"/>
<path d="M145.566 742.536L271.988 457.695H360.172V852.57H276.67V616.113L167.416 852.57H122.934L12.9 613.772V852.57H-69.8209V457.695H19.1431L145.566 742.536Z" fill="#C8AE1B"/>
<path d="M322.996 641.829L414.887 511.836H451.121V700.848H411.152V571.603L319.634 700.848H283.401V511.836H322.996V641.829Z" fill="white"/>
<path d="M165.736 368.77V293.315H206.826V482.327H165.736V406.872H81.6895V482.327H40.6V293.315H81.6895V368.77H165.736Z" fill="white"/>
<path d="M385.378 354.949C398.078 354.949 409.409 357.689 419.37 363.167C429.58 368.646 437.425 376.241 442.903 385.953C448.631 395.416 451.495 406.249 451.495 418.451C451.495 437.377 445.269 452.817 432.818 464.77C420.615 476.475 404.802 482.327 385.378 482.327H302.078V293.315H343.168V354.949H385.378ZM379.401 447.214C389.114 447.214 396.709 444.724 402.187 439.743C407.915 434.514 410.779 427.416 410.779 418.451C410.779 409.735 407.915 402.887 402.187 397.907C396.709 392.677 389.114 390.062 379.401 390.062H343.168V447.214H379.401Z" fill="white"/>
<path d="M83.5567 700.848H42.4672V511.836H170.592V549.938H83.5567V700.848Z" fill="white"/>
<path d="M197.86 178.265H227.37V263.058H187.775V215.245H60.3971V263.058H20.4283V178.265H36.4905C47.4477 169.549 53.6734 157.222 55.1676 141.284L64.5061 26.2334H197.86V178.265ZM158.265 178.265V63.214H101.113L94.7629 141.284C93.0197 158.716 88.2882 171.043 80.5683 178.265H158.265Z" fill="white"/>
<path d="M450.373 116.63C450.373 124.599 449.626 131.323 448.132 136.802H308.054C310.544 150.996 316.521 162.202 325.984 170.42C335.447 178.638 346.902 182.747 360.35 182.747C370.062 182.747 378.28 180.879 385.003 177.144C391.727 173.409 397.081 168.677 401.066 162.949H443.649C439.914 172.412 434.062 181.502 426.093 190.218C418.373 198.934 408.786 206.031 397.33 211.51C386.124 216.988 373.922 219.728 360.723 219.728C343.54 219.728 327.727 215.37 313.284 206.654C299.089 197.938 287.758 186.109 279.291 171.167C271.074 155.977 266.965 139.167 266.965 120.739C266.965 102.56 271.198 86 279.665 71.0583C288.132 55.8677 299.463 43.9144 313.657 35.1984C328.101 26.2334 343.665 21.7509 360.35 21.7509C377.035 21.7509 392.225 25.9844 405.922 34.4513C419.618 42.6692 430.451 54 438.42 68.4436C446.389 82.8871 450.373 98.9494 450.373 116.63ZM360.35 58.7315C347.4 58.7315 336.07 63.0895 326.358 71.8054C316.645 80.2723 310.544 91.6031 308.054 105.798H410.404C408.163 91.8521 402.435 80.5214 393.221 71.8054C384.007 63.0895 373.05 58.7315 360.35 58.7315Z" fill="white"/>
<path d="M225.199 163.349V164.956H215.805V157.167H225.199V158.773H217.318V163.349H225.199ZM225.405 148.805C225.405 149.627 225.193 150.386 224.77 151.083C224.334 151.768 223.742 152.316 222.995 152.727C222.236 153.138 221.402 153.343 220.493 153.343C219.584 153.343 218.756 153.138 218.009 152.727C217.261 152.316 216.676 151.768 216.253 151.083C215.817 150.386 215.599 149.627 215.599 148.805C215.599 147.996 215.817 147.242 216.253 146.545C216.676 145.848 217.261 145.294 218.009 144.883C218.756 144.472 219.584 144.266 220.493 144.266C221.402 144.266 222.236 144.472 222.995 144.883C223.742 145.294 224.334 145.848 224.77 146.545C225.193 147.242 225.405 147.996 225.405 148.805ZM223.892 148.805C223.892 148.282 223.749 147.796 223.462 147.348C223.176 146.9 222.777 146.545 222.267 146.283C221.744 146.022 221.153 145.891 220.493 145.891C219.833 145.891 219.247 146.022 218.737 146.283C218.226 146.545 217.828 146.9 217.542 147.348C217.255 147.796 217.112 148.282 217.112 148.805C217.112 149.328 217.255 149.813 217.542 150.262C217.828 150.71 218.226 151.071 218.737 151.345C219.247 151.606 219.833 151.737 220.493 151.737C221.153 151.737 221.744 151.606 222.267 151.345C222.777 151.071 223.176 150.716 223.462 150.28C223.749 149.832 223.892 149.34 223.892 148.805ZM220.25 134.786C220.412 134.35 220.686 133.983 221.072 133.684C221.458 133.373 221.949 133.217 222.547 133.217C223.319 133.217 223.954 133.485 224.452 134.02C224.95 134.556 225.199 135.24 225.199 136.075V140.464H215.805V136.43C215.805 135.882 215.917 135.396 216.141 134.973C216.365 134.537 216.67 134.201 217.056 133.964C217.43 133.715 217.847 133.591 218.307 133.591C218.768 133.591 219.167 133.709 219.503 133.946C219.839 134.182 220.088 134.462 220.25 134.786ZM217.168 138.876H219.746V136.654C219.746 136.193 219.627 135.832 219.391 135.57C219.154 135.297 218.837 135.16 218.438 135.16C218.052 135.16 217.747 135.297 217.523 135.57C217.286 135.832 217.168 136.193 217.168 136.654V138.876ZM223.836 136.28C223.836 135.844 223.705 135.489 223.444 135.216C223.17 134.929 222.827 134.786 222.416 134.786C222.018 134.786 221.688 134.929 221.426 135.216C221.153 135.502 221.016 135.857 221.016 136.28V138.876H223.836V136.28ZM220.268 121.111C220.692 121.111 221.003 121.136 221.202 121.186V128.321C222.049 128.196 222.715 127.872 223.201 127.349C223.686 126.827 223.929 126.179 223.929 125.407C223.929 124.386 223.512 123.614 222.678 123.091V121.429C223.437 121.728 224.085 122.238 224.62 122.96C225.143 123.683 225.405 124.504 225.405 125.426C225.405 126.26 225.193 127.026 224.77 127.723C224.346 128.42 223.761 128.968 223.014 129.367C222.267 129.765 221.426 129.964 220.493 129.964C219.584 129.964 218.756 129.759 218.009 129.348C217.261 128.937 216.676 128.389 216.253 127.704C215.817 127.007 215.599 126.254 215.599 125.444C215.599 124.635 215.805 123.9 216.216 123.241C216.626 122.581 217.187 122.064 217.896 121.69C218.606 121.304 219.397 121.111 220.268 121.111ZM217.075 125.444C217.075 126.167 217.336 126.802 217.859 127.349C218.37 127.885 219.042 128.215 219.876 128.339V122.68C219.054 122.78 218.382 123.085 217.859 123.595C217.336 124.093 217.075 124.71 217.075 125.444ZM228.561 117.285H215.805V116.09L216.981 115.735V115.642C216.682 115.418 216.377 115.05 216.066 114.54C215.755 114.017 215.599 113.419 215.599 112.747C215.599 111.962 215.811 111.24 216.234 110.58C216.645 109.92 217.224 109.397 217.971 109.011C218.718 108.613 219.559 108.414 220.493 108.414C221.426 108.414 222.267 108.613 223.014 109.011C223.761 109.397 224.346 109.92 224.77 110.58C225.193 111.24 225.405 111.962 225.405 112.747C225.405 113.394 225.255 113.979 224.956 114.502C224.645 115.025 224.346 115.386 224.06 115.586V115.679H228.561V117.285ZM223.892 112.84C223.892 112.33 223.749 111.863 223.462 111.439C223.176 111.004 222.777 110.661 222.267 110.412C221.744 110.151 221.153 110.02 220.493 110.02C219.833 110.02 219.247 110.151 218.737 110.412C218.226 110.661 217.828 111.004 217.542 111.439C217.255 111.863 217.112 112.33 217.112 112.84C217.112 113.351 217.255 113.824 217.542 114.26C217.828 114.695 218.226 115.044 218.737 115.306C219.247 115.555 219.833 115.679 220.493 115.679C221.153 115.679 221.744 115.555 222.267 115.306C222.777 115.044 223.176 114.695 223.462 114.26C223.749 113.824 223.892 113.351 223.892 112.84ZM219.073 100.736C219.073 99.7648 219.36 98.9804 219.932 98.3827C220.493 97.785 221.227 97.4862 222.136 97.4862C223.045 97.4862 223.786 97.785 224.359 98.3827C224.919 98.9804 225.199 99.7648 225.199 100.736V104.583H215.805V102.977H219.073V100.736ZM223.761 100.885C223.761 100.325 223.618 99.8893 223.332 99.578C223.045 99.2543 222.647 99.0924 222.136 99.0924C221.626 99.0924 221.227 99.2543 220.941 99.578C220.642 99.8893 220.493 100.325 220.493 100.885V102.977H223.761V100.885ZM220.25 82.3845C220.412 81.9487 220.686 81.5814 221.072 81.2825C221.458 80.9713 221.949 80.8156 222.547 80.8156C223.319 80.8156 223.954 81.0833 224.452 81.6187C224.95 82.1541 225.199 82.839 225.199 83.6732V88.0623H215.805V84.0281C215.805 83.4802 215.917 82.9946 216.141 82.5713C216.365 82.1355 216.67 81.7993 217.056 81.5627C217.43 81.3137 217.847 81.1892 218.307 81.1892C218.768 81.1892 219.167 81.3074 219.503 81.544C219.839 81.7806 220.088 82.0608 220.25 82.3845ZM217.168 86.4748H219.746V84.2522C219.746 83.7915 219.627 83.4304 219.391 83.1689C219.154 82.895 218.837 82.758 218.438 82.758C218.052 82.758 217.747 82.895 217.523 83.1689C217.286 83.4304 217.168 83.7915 217.168 84.2522V86.4748ZM223.836 83.8787C223.836 83.4429 223.705 83.088 223.444 82.8141C223.17 82.5277 222.827 82.3845 222.416 82.3845C222.018 82.3845 221.688 82.5277 221.426 82.8141C221.153 83.1004 221.016 83.4553 221.016 83.8787V86.4748H223.836V83.8787ZM225.405 66.6332C225.405 67.455 225.193 68.2145 224.77 68.9118C224.334 69.5966 223.742 70.1445 222.995 70.5554C222.236 70.9662 221.402 71.1717 220.493 71.1717C219.584 71.1717 218.756 70.9662 218.009 70.5554C217.261 70.1445 216.676 69.5966 216.253 68.9118C215.817 68.2145 215.599 67.455 215.599 66.6332C215.599 65.911 215.767 65.2573 216.103 64.6721C216.44 64.0744 216.882 63.5826 217.43 63.1966C217.977 62.8106 218.569 62.5554 219.204 62.4308V64.0371C218.594 64.2114 218.096 64.5227 217.71 64.9709C217.311 65.4067 217.112 65.9608 217.112 66.6332C217.112 67.1561 217.255 67.6417 217.542 68.09C217.828 68.5382 218.226 68.8993 218.737 69.1733C219.247 69.4347 219.833 69.5655 220.493 69.5655C221.153 69.5655 221.744 69.4347 222.267 69.1733C222.777 68.8993 223.176 68.5445 223.462 68.1087C223.749 67.6604 223.892 67.1686 223.892 66.6332C223.892 65.9608 223.699 65.4067 223.313 64.9709C222.914 64.5227 222.41 64.2114 221.8 64.0371V62.4308C222.435 62.5554 223.026 62.8106 223.574 63.1966C224.122 63.5826 224.564 64.0744 224.9 64.6721C225.237 65.2573 225.405 65.911 225.405 66.6332ZM220.268 50.4195C220.692 50.4195 221.003 50.4444 221.202 50.4942V57.6288C222.049 57.5043 222.715 57.1806 223.201 56.6576C223.686 56.1346 223.929 55.4872 223.929 54.7152C223.929 53.6942 223.512 52.9222 222.678 52.3992V50.737C223.437 51.0358 224.085 51.5463 224.62 52.2685C225.143 52.9907 225.405 53.8125 225.405 54.7339C225.405 55.5681 225.193 56.3339 224.77 57.0311C224.346 57.7284 223.761 58.2763 223.014 58.6747C222.267 59.0732 221.426 59.2724 220.493 59.2724C219.584 59.2724 218.756 59.0669 218.009 58.656C217.261 58.2451 216.676 57.6973 216.253 57.0125C215.817 56.3152 215.599 55.5619 215.599 54.7525C215.599 53.9432 215.805 53.2086 216.216 52.5486C216.626 51.8887 217.187 51.372 217.896 50.9985C218.606 50.6125 219.397 50.4195 220.268 50.4195ZM217.075 54.7525C217.075 55.4747 217.336 56.1097 217.859 56.6576C218.37 57.193 219.042 57.523 219.876 57.6475V51.9883C219.054 52.0879 218.382 52.393 217.859 52.9035C217.336 53.4016 217.075 54.0179 217.075 54.7525ZM225.405 42.4845C225.405 43.3312 225.199 44.0969 224.788 44.7818C224.365 45.4541 223.724 45.9895 222.865 46.388C222.005 46.7864 220.947 46.9857 219.689 46.9857C217.548 46.9857 215.854 46.581 214.609 45.7717C213.364 44.9623 212.611 43.686 212.349 41.9429C212.163 40.6728 212.007 39.6892 211.882 38.9919H213.395L213.713 40.8222L213.862 41.7374C214.049 42.9701 214.485 43.8541 215.17 44.3895C215.842 44.925 216.67 45.2549 217.654 45.3794V45.286C217.268 45.0495 216.913 44.6697 216.589 44.1467C216.265 43.6238 216.103 42.995 216.103 42.2604C216.103 41.5133 216.303 40.8222 216.701 40.1872C217.087 39.5522 217.635 39.0479 218.345 38.6744C219.054 38.2884 219.858 38.0954 220.754 38.0954C221.663 38.0954 222.472 38.2946 223.182 38.6931C223.879 39.079 224.427 39.6082 224.826 40.2806C225.212 40.9405 225.405 41.6752 225.405 42.4845ZM223.892 42.4845C223.892 41.974 223.767 41.5071 223.518 41.0837C223.257 40.6604 222.889 40.3242 222.416 40.0752C221.943 39.8261 221.389 39.7016 220.754 39.7016C220.119 39.7016 219.565 39.8261 219.092 40.0752C218.606 40.3242 218.239 40.6604 217.99 41.0837C217.728 41.5071 217.598 41.974 217.598 42.4845C217.598 42.995 217.728 43.4681 217.99 43.9039C218.239 44.3273 218.606 44.6635 219.092 44.9125C219.565 45.1615 220.119 45.286 220.754 45.286C221.389 45.286 221.943 45.1615 222.416 44.9125C222.889 44.6635 223.257 44.3273 223.518 43.9039C223.767 43.4681 223.892 42.995 223.892 42.4845ZM215.805 27.5696H225.199V29.1758H221.837V31.1556L225.199 33.21V35.0777L221.595 32.7618C221.37 33.3594 221.009 33.8388 220.511 34.1999C220.013 34.5486 219.447 34.7229 218.812 34.7229C218.251 34.7229 217.741 34.5859 217.28 34.312C216.819 34.0256 216.458 33.6396 216.197 33.154C215.935 32.6559 215.805 32.0956 215.805 31.4731V27.5696ZM217.224 31.361C217.224 31.8715 217.374 32.2949 217.672 32.631C217.971 32.9548 218.351 33.1166 218.812 33.1166C219.297 33.1166 219.683 32.961 219.97 32.6497C220.256 32.326 220.399 31.8964 220.399 31.361V29.1571H217.224V31.361Z" fill="white"/>
<path d="M201.336 683.973L197.746 682.394L198.4 680.907L206.999 684.69L206.345 686.177L202.721 684.582L200.818 688.908L204.442 690.502L203.795 691.972L195.196 688.189L195.843 686.719L199.433 688.299L201.336 683.973ZM201.345 673.703C201.631 673.053 202.026 672.54 202.532 672.164C203.026 671.783 203.59 671.569 204.223 671.521C204.85 671.456 205.488 671.567 206.138 671.853L211.591 674.252L211.102 675.363L209.89 675.197L209.852 675.283C210.071 675.651 210.216 676.11 210.288 676.658C210.36 677.206 210.258 677.794 209.982 678.421C209.731 678.991 209.396 679.442 208.978 679.775C208.56 680.108 208.104 680.309 207.611 680.377C207.107 680.441 206.615 680.368 206.137 680.157C205.601 679.922 205.198 679.554 204.928 679.054C204.652 678.538 204.528 677.94 204.556 677.258C204.588 676.565 204.77 675.842 205.101 675.09L205.808 673.483L205.415 673.31C204.834 673.055 204.297 673.022 203.805 673.214C203.306 673.389 202.936 673.75 202.695 674.297C202.47 674.81 202.423 675.272 202.555 675.684C202.686 676.096 202.94 676.432 203.315 676.692L202.661 678.179C202.196 677.907 201.813 677.541 201.511 677.082C201.215 676.611 201.047 676.082 201.007 675.493C200.966 674.904 201.079 674.307 201.345 673.703ZM208.788 677.61C209.099 676.903 209.144 676.243 208.924 675.63C208.693 675.011 208.264 674.564 207.637 674.288L206.988 674.002L206.326 675.507C205.975 676.304 205.835 676.978 205.907 677.526C205.978 678.074 206.248 678.451 206.715 678.657C207.125 678.837 207.519 678.84 207.895 678.666C208.259 678.486 208.557 678.134 208.788 677.61ZM213.657 657.265C213.981 656.932 214.379 656.706 214.853 656.588C215.332 656.458 215.845 656.514 216.392 656.754C217.098 657.065 217.572 657.566 217.812 658.257C218.052 658.947 218.005 659.674 217.669 660.438L215.901 664.456L207.302 660.672L208.927 656.98C209.147 656.478 209.445 656.079 209.821 655.782C210.202 655.473 210.616 655.288 211.065 655.227C211.507 655.15 211.939 655.204 212.361 655.389C212.782 655.575 213.099 655.843 213.312 656.195C213.524 656.547 213.639 656.904 213.657 657.265ZM209.189 659.768L211.548 660.806L212.443 658.772C212.629 658.35 212.666 657.972 212.555 657.637C212.449 657.291 212.213 657.038 211.848 656.878C211.495 656.722 211.161 656.725 210.845 656.885C210.523 657.029 210.27 657.312 210.084 657.734L209.189 659.768ZM216.338 660.077C216.513 659.678 216.537 659.301 216.408 658.945C216.272 658.572 216.016 658.303 215.64 658.138C215.276 657.977 214.916 657.976 214.561 658.132C214.195 658.284 213.927 658.554 213.756 658.941L212.711 661.318L215.292 662.453L216.338 660.077ZM219.181 644.756C219.568 644.926 219.843 645.075 220.006 645.2L217.133 651.731C217.958 651.958 218.698 651.93 219.353 651.647C220.008 651.364 220.491 650.869 220.802 650.162C221.213 649.228 221.142 648.353 220.589 647.538L221.258 646.017C221.833 646.596 222.22 647.324 222.42 648.201C222.608 649.072 222.516 649.93 222.145 650.773C221.809 651.537 221.307 652.153 220.639 652.62C219.97 653.088 219.214 653.354 218.37 653.418C217.525 653.482 216.676 653.326 215.821 652.95C214.989 652.584 214.314 652.062 213.796 651.385C213.277 650.708 212.962 649.971 212.85 649.174C212.732 648.36 212.836 647.583 213.162 646.842C213.488 646.101 213.972 645.511 214.614 645.073C215.256 644.634 215.977 644.387 216.777 644.331C217.582 644.263 218.383 644.405 219.181 644.756ZM214.513 647.436C214.222 648.097 214.205 648.784 214.464 649.496C214.715 650.191 215.198 650.764 215.911 651.214L218.19 646.034C217.398 645.794 216.66 645.803 215.975 646.059C215.296 646.305 214.808 646.764 214.513 647.436ZM228.312 644.593L216.636 639.456L217.117 638.362L218.337 638.511L218.375 638.426C218.191 638.1 218.06 637.641 217.981 637.049C217.906 636.445 218.005 635.835 218.275 635.219C218.591 634.501 219.076 633.926 219.729 633.492C220.371 633.053 221.111 632.808 221.951 632.755C222.795 632.691 223.644 632.848 224.499 633.224C225.354 633.6 226.043 634.12 226.567 634.786C227.095 635.44 227.42 636.155 227.542 636.929C227.664 637.704 227.566 638.45 227.251 639.168C226.99 639.761 226.617 640.236 226.133 640.594C225.638 640.948 225.219 641.158 224.876 641.225L224.839 641.31L228.959 643.123L228.312 644.593ZM225.828 638.644C226.034 638.177 226.091 637.692 225.999 637.189C225.912 636.675 225.686 636.201 225.319 635.767C224.945 635.317 224.457 634.96 223.852 634.694C223.248 634.428 222.66 634.312 222.088 634.346C221.52 634.368 221.017 634.521 220.58 634.805C220.147 635.077 219.828 635.447 219.622 635.914C219.417 636.381 219.357 636.872 219.444 637.386C219.531 637.901 219.755 638.38 220.117 638.825C220.484 639.259 220.97 639.608 221.574 639.874C222.178 640.14 222.769 640.264 223.348 640.246C223.921 640.213 224.426 640.054 224.863 639.77C225.301 639.487 225.623 639.111 225.828 638.644ZM232.966 621.909L225.752 618.735L226.399 617.265L234.998 621.048L230.35 631.613L221.751 627.83L222.397 626.36L229.612 629.534L230.966 626.456L223.751 623.282L224.398 621.812L231.612 624.986L232.966 621.909ZM235.128 614.537L230.843 607.163L231.414 605.864L240.013 609.647L239.374 611.1L233.066 608.325L237.351 615.699L236.779 616.998L228.18 613.215L228.82 611.762L235.128 614.537ZM239.332 597.606L235.742 596.027L236.396 594.539L244.995 598.323L244.341 599.81L240.717 598.215L238.814 602.541L242.438 604.135L241.792 605.605L233.192 601.822L233.839 600.352L237.429 601.931L239.332 597.606ZM245.585 584.737C245.973 584.908 246.248 585.056 246.41 585.182L243.537 591.712C244.362 591.939 245.102 591.911 245.757 591.628C246.412 591.345 246.895 590.85 247.206 590.143C247.617 589.209 247.547 588.334 246.994 587.519L247.663 585.998C248.238 586.577 248.625 587.305 248.824 588.182C249.012 589.054 248.92 589.911 248.549 590.755C248.213 591.518 247.711 592.134 247.043 592.602C246.375 593.069 245.618 593.335 244.774 593.399C243.93 593.463 243.08 593.307 242.226 592.931C241.394 592.565 240.718 592.043 240.2 591.366C239.682 590.689 239.367 589.952 239.255 589.155C239.137 588.341 239.241 587.564 239.567 586.823C239.892 586.082 240.376 585.493 241.018 585.054C241.66 584.615 242.381 584.368 243.181 584.312C243.986 584.244 244.788 584.386 245.585 584.737ZM240.917 587.417C240.626 588.078 240.61 588.765 240.868 589.477C241.12 590.173 241.602 590.745 242.316 591.195L244.595 586.015C243.802 585.775 243.064 585.784 242.38 586.041C241.701 586.286 241.213 586.745 240.917 587.417ZM213.201 689.479L213.871 687.957L221.512 695.727C222.293 696.519 222.774 697.186 222.957 697.729C223.151 698.277 223.136 698.808 222.91 699.321C222.81 699.549 222.641 699.794 222.403 700.056L221.069 699.47C221.223 699.306 221.34 699.133 221.42 698.951C221.555 698.643 221.583 698.349 221.502 698.069C221.426 697.777 221.224 697.463 220.895 697.128L220.174 696.403L210.283 696.112L210.983 694.522L218.668 694.863L213.201 689.479ZM225.482 685.403C225.151 686.155 224.652 686.765 223.984 687.233C223.309 687.684 222.547 687.948 221.698 688.023C220.837 688.093 219.991 687.945 219.159 687.579C218.327 687.213 217.651 686.692 217.133 686.015C216.615 685.338 216.3 684.601 216.188 683.803C216.07 682.99 216.176 682.207 216.507 681.455C216.798 680.794 217.215 680.263 217.758 679.863C218.307 679.451 218.909 679.179 219.566 679.046C220.223 678.913 220.867 678.918 221.499 679.06L220.852 680.53C220.223 680.444 219.642 680.528 219.108 680.783C218.568 681.021 218.163 681.448 217.892 682.064C217.681 682.542 217.617 683.045 217.698 683.57C217.78 684.096 217.999 684.587 218.356 685.043C218.718 685.488 219.201 685.843 219.805 686.109C220.409 686.375 221.003 686.493 221.587 686.465C222.165 686.419 222.673 686.255 223.11 685.971C223.553 685.676 223.882 685.284 224.098 684.794C224.368 684.178 224.415 683.594 224.237 683.039C224.053 682.468 223.717 681.98 223.228 681.575L223.875 680.105C224.406 680.475 224.845 680.946 225.191 681.52C225.537 682.094 225.744 682.723 225.811 683.405C225.883 684.076 225.773 684.742 225.482 685.403ZM229.138 676.583L228.492 678.053L219.892 674.27L223.029 667.141L231.628 670.924L230.981 672.394L223.767 669.22L221.924 673.409L229.138 676.583ZM232.219 657.335C232.607 657.505 232.882 657.653 233.044 657.779L230.171 664.31C230.996 664.537 231.736 664.509 232.391 664.226C233.047 663.942 233.529 663.448 233.84 662.741C234.252 661.806 234.181 660.932 233.628 660.117L234.297 658.596C234.872 659.175 235.259 659.903 235.458 660.78C235.646 661.651 235.554 662.509 235.183 663.352C234.847 664.116 234.345 664.732 233.677 665.199C233.009 665.667 232.252 665.933 231.408 665.997C230.564 666.061 229.714 665.905 228.86 665.528C228.028 665.162 227.352 664.641 226.834 663.964C226.316 663.287 226.001 662.55 225.889 661.753C225.771 660.939 225.875 660.162 226.201 659.421C226.527 658.68 227.01 658.09 227.652 657.652C228.294 657.213 229.015 656.966 229.815 656.91C230.62 656.842 231.422 656.984 232.219 657.335ZM227.551 660.015C227.26 660.676 227.244 661.363 227.502 662.075C227.754 662.77 228.236 663.343 228.95 663.793L231.229 658.613C230.436 658.373 229.698 658.382 229.014 658.638C228.335 658.884 227.847 659.342 227.551 660.015ZM235.395 650.441L241.097 649.399L240.338 651.126L236.017 651.857L238.397 655.537L237.675 657.178L234.583 652.287L229.159 653.207L229.896 651.531L233.995 650.886L231.693 647.445L232.408 645.821L235.395 650.441ZM234.912 639.619C235.198 638.969 235.594 638.457 236.099 638.08C236.593 637.699 237.157 637.485 237.79 637.437C238.417 637.373 239.055 637.483 239.705 637.769L245.158 640.168L244.67 641.28L243.457 641.113L243.42 641.199C243.638 641.567 243.784 642.026 243.855 642.574C243.927 643.122 243.825 643.71 243.549 644.337C243.298 644.907 242.964 645.358 242.545 645.691C242.127 646.024 241.671 646.225 241.178 646.293C240.674 646.357 240.183 646.284 239.704 646.073C239.168 645.838 238.765 645.47 238.496 644.97C238.219 644.454 238.095 643.856 238.123 643.174C238.156 642.481 238.337 641.759 238.668 641.006L239.375 639.399L238.982 639.226C238.401 638.971 237.864 638.938 237.372 639.13C236.873 639.305 236.503 639.666 236.263 640.213C236.037 640.726 235.99 641.188 236.122 641.6C236.254 642.012 236.507 642.348 236.882 642.608L236.228 644.095C235.763 643.823 235.38 643.457 235.078 642.998C234.782 642.527 234.614 641.998 234.574 641.409C234.534 640.82 234.646 640.223 234.912 639.619ZM242.355 643.526C242.666 642.819 242.711 642.159 242.492 641.546C242.26 640.927 241.831 640.48 241.205 640.204L240.555 639.918L239.893 641.423C239.542 642.22 239.402 642.894 239.474 643.442C239.546 643.99 239.815 644.367 240.282 644.573C240.693 644.753 241.086 644.756 241.462 644.582C241.827 644.402 242.124 644.05 242.355 643.526Z" fill="white"/>
<path d="M227.198 474.266H223.275V472.641H232.67V474.266H228.71V478.991H232.67V480.598H223.275V478.991H227.198V474.266ZM227.739 459.968C228.163 459.968 228.474 459.993 228.673 460.043V467.178C229.52 467.053 230.186 466.729 230.671 466.207C231.157 465.684 231.4 465.036 231.4 464.264C231.4 463.243 230.983 462.471 230.149 461.948V460.286C230.908 460.585 231.556 461.095 232.091 461.817C232.614 462.54 232.875 463.361 232.875 464.283C232.875 465.117 232.664 465.883 232.24 466.58C231.817 467.277 231.232 467.825 230.485 468.224C229.738 468.622 228.897 468.821 227.963 468.821C227.054 468.821 226.226 468.616 225.479 468.205C224.732 467.794 224.147 467.246 223.724 466.561C223.288 465.864 223.07 465.111 223.07 464.301C223.07 463.492 223.275 462.758 223.686 462.098C224.097 461.438 224.657 460.921 225.367 460.547C226.077 460.161 226.868 459.968 227.739 459.968ZM224.545 464.301C224.545 465.024 224.807 465.659 225.33 466.207C225.84 466.742 226.513 467.072 227.347 467.196V461.537C226.525 461.637 225.853 461.942 225.33 462.452C224.807 462.951 224.545 463.567 224.545 464.301ZM232.67 452.959V454.583H224.788V457.516H223.275V450.026H224.788V452.959H232.67ZM227.198 434.475H223.275V432.85H232.67V434.475H228.71V439.201H232.67V440.807H223.275V439.201H227.198V434.475ZM230.167 426.864L223.275 421.84V420.42H232.67V422.008H225.778L232.67 427.032V428.451H223.275V426.864H230.167ZM223.275 410.439V408.814H232.67V410.439H229.215C229.389 410.738 229.545 411.105 229.682 411.541C229.819 411.965 229.887 412.425 229.887 412.923C229.887 413.571 229.75 414.156 229.476 414.679C229.19 415.189 228.785 415.594 228.262 415.893C227.739 416.192 227.142 416.341 226.469 416.341H223.275V414.735H226.376C227.011 414.735 227.509 414.548 227.87 414.175C228.219 413.789 228.393 413.266 228.393 412.606C228.393 412.17 228.324 411.772 228.187 411.41C228.038 411.037 227.864 410.713 227.664 410.439H223.275ZM227.739 396.124C228.163 396.124 228.474 396.148 228.673 396.198V403.333C229.52 403.208 230.186 402.885 230.671 402.362C231.157 401.839 231.4 401.191 231.4 400.419C231.4 399.398 230.983 398.626 230.149 398.103V396.441C230.908 396.74 231.556 397.25 232.091 397.973C232.614 398.695 232.875 399.517 232.875 400.438C232.875 401.272 232.664 402.038 232.24 402.735C231.817 403.433 231.232 403.98 230.485 404.379C229.738 404.777 228.897 404.976 227.963 404.976C227.054 404.976 226.226 404.771 225.479 404.36C224.732 403.949 224.147 403.401 223.724 402.717C223.288 402.019 223.07 401.266 223.07 400.457C223.07 399.647 223.275 398.913 223.686 398.253C224.097 397.593 224.657 397.076 225.367 396.703C226.077 396.317 226.868 396.124 227.739 396.124ZM224.545 400.457C224.545 401.179 224.807 401.814 225.33 402.362C225.84 402.897 226.513 403.227 227.347 403.352V397.692C226.525 397.792 225.853 398.097 225.33 398.608C224.807 399.106 224.545 399.722 224.545 400.457ZM232.67 390.691V392.298H223.275V386.115H224.788V390.691H232.67ZM232.875 379.193C232.875 380.015 232.664 380.774 232.24 381.471C231.805 382.156 231.213 382.704 230.466 383.115C229.706 383.526 228.872 383.731 227.963 383.731C227.054 383.731 226.226 383.526 225.479 383.115C224.732 382.704 224.147 382.156 223.724 381.471C223.288 380.774 223.07 380.015 223.07 379.193C223.07 378.383 223.288 377.63 223.724 376.933C224.147 376.236 224.732 375.682 225.479 375.271C226.226 374.86 227.054 374.654 227.963 374.654C228.872 374.654 229.706 374.86 230.466 375.271C231.213 375.682 231.805 376.236 232.24 376.933C232.664 377.63 232.875 378.383 232.875 379.193ZM231.363 379.193C231.363 378.67 231.219 378.184 230.933 377.736C230.647 377.288 230.248 376.933 229.738 376.671C229.215 376.41 228.623 376.279 227.963 376.279C227.303 376.279 226.718 376.41 226.208 376.671C225.697 376.933 225.299 377.288 225.012 377.736C224.726 378.184 224.583 378.67 224.583 379.193C224.583 379.716 224.726 380.201 225.012 380.65C225.299 381.098 225.697 381.459 226.208 381.733C226.718 381.994 227.303 382.125 227.963 382.125C228.623 382.125 229.215 381.994 229.738 381.733C230.248 381.459 230.647 381.104 230.933 380.668C231.219 380.22 231.363 379.728 231.363 379.193ZM248.198 474.266H244.275V472.641H253.67V474.266H249.71V478.991H253.67V480.598H244.275V478.991H248.198V474.266ZM248.739 459.968C249.163 459.968 249.474 459.993 249.673 460.043V467.178C250.52 467.053 251.186 466.729 251.671 466.207C252.157 465.684 252.4 465.036 252.4 464.264C252.4 463.243 251.983 462.471 251.149 461.948V460.286C251.908 460.585 252.556 461.095 253.091 461.817C253.614 462.54 253.875 463.361 253.875 464.283C253.875 465.117 253.664 465.883 253.24 466.58C252.817 467.277 252.232 467.825 251.485 468.224C250.738 468.622 249.897 468.821 248.963 468.821C248.054 468.821 247.226 468.616 246.479 468.205C245.732 467.794 245.147 467.246 244.724 466.561C244.288 465.864 244.07 465.111 244.07 464.301C244.07 463.492 244.275 462.758 244.686 462.098C245.097 461.438 245.657 460.921 246.367 460.547C247.077 460.161 247.868 459.968 248.739 459.968ZM245.545 464.301C245.545 465.024 245.807 465.659 246.33 466.207C246.84 466.742 247.513 467.072 248.347 467.196V461.537C247.525 461.637 246.853 461.942 246.33 462.452C245.807 462.951 245.545 463.567 245.545 464.301ZM248.721 450.465C248.882 450.029 249.156 449.661 249.542 449.363C249.928 449.051 250.42 448.896 251.018 448.896C251.79 448.896 252.425 449.163 252.923 449.699C253.421 450.234 253.67 450.919 253.67 451.753V456.142H244.275V452.108C244.275 451.56 244.387 451.075 244.612 450.651C244.836 450.216 245.141 449.879 245.527 449.643C245.9 449.394 246.317 449.269 246.778 449.269C247.239 449.269 247.637 449.388 247.973 449.624C248.31 449.861 248.559 450.141 248.721 450.465ZM245.639 454.555H248.216V452.332C248.216 451.872 248.098 451.51 247.861 451.249C247.625 450.975 247.307 450.838 246.909 450.838C246.523 450.838 246.218 450.975 245.994 451.249C245.757 451.51 245.639 451.872 245.639 452.332V454.555ZM252.306 451.959C252.306 451.523 252.176 451.168 251.914 450.894C251.64 450.608 251.298 450.465 250.887 450.465C250.489 450.465 250.159 450.608 249.897 450.894C249.623 451.181 249.486 451.535 249.486 451.959V454.555H252.306V451.959ZM253.875 441.104C253.875 441.926 253.664 442.686 253.24 443.383C252.805 444.068 252.213 444.616 251.466 445.026C250.706 445.437 249.872 445.643 248.963 445.643C248.054 445.643 247.226 445.437 246.479 445.026C245.732 444.616 245.147 444.068 244.724 443.383C244.288 442.686 244.07 441.926 244.07 441.104C244.07 440.295 244.288 439.542 244.724 438.844C245.147 438.147 245.732 437.593 246.479 437.182C247.226 436.771 248.054 436.566 248.963 436.566C249.872 436.566 250.706 436.771 251.466 437.182C252.213 437.593 252.805 438.147 253.24 438.844C253.664 439.542 253.875 440.295 253.875 441.104ZM252.363 441.104C252.363 440.581 252.219 440.096 251.933 439.647C251.647 439.199 251.248 438.844 250.738 438.583C250.215 438.321 249.623 438.191 248.963 438.191C248.303 438.191 247.718 438.321 247.208 438.583C246.697 438.844 246.299 439.199 246.012 439.647C245.726 440.096 245.583 440.581 245.583 441.104C245.583 441.627 245.726 442.113 246.012 442.561C246.299 443.009 246.697 443.37 247.208 443.644C247.718 443.906 248.303 444.037 248.963 444.037C249.623 444.037 250.215 443.906 250.738 443.644C251.248 443.37 251.647 443.016 251.933 442.58C252.219 442.132 252.363 441.64 252.363 441.104ZM248.814 427.926C248.976 427.527 249.25 427.185 249.636 426.899C250.022 426.6 250.501 426.45 251.074 426.45C251.572 426.45 252.039 426.587 252.475 426.861C252.898 427.135 253.24 427.54 253.502 428.075C253.751 428.598 253.875 429.221 253.875 429.943C253.875 431.051 253.589 431.929 253.016 432.576C252.431 433.212 251.696 433.573 250.812 433.66V432.072C251.298 432.035 251.69 431.842 251.989 431.493C252.288 431.145 252.437 430.64 252.437 429.98C252.437 429.345 252.313 428.866 252.064 428.542C251.802 428.206 251.447 428.038 250.999 428.038C250.551 428.038 250.19 428.2 249.916 428.524C249.642 428.847 249.505 429.308 249.505 429.906V430.97H248.198V429.962C248.198 429.414 248.079 428.997 247.843 428.71C247.606 428.412 247.301 428.262 246.928 428.262C246.529 428.262 246.193 428.424 245.919 428.748C245.645 429.059 245.508 429.482 245.508 430.018C245.508 430.578 245.651 431.02 245.938 431.344C246.212 431.655 246.573 431.842 247.021 431.904V433.473C246.174 433.398 245.471 433.056 244.91 432.446C244.35 431.823 244.07 430.983 244.07 429.924C244.07 429.277 244.201 428.71 244.462 428.225C244.711 427.727 245.054 427.347 245.489 427.085C245.913 426.812 246.373 426.675 246.871 426.675C247.37 426.675 247.774 426.799 248.085 427.048C248.397 427.297 248.64 427.59 248.814 427.926ZM251.541 417.647L244.275 414.36V412.753H253.67V414.341H247.525L253.67 417.217V418.151L247.525 421.027H253.67V422.615H244.275V420.953L251.541 417.647ZM253.875 404.385C253.875 405.207 253.664 405.966 253.24 406.664C252.805 407.348 252.213 407.896 251.466 408.307C250.706 408.718 249.872 408.923 248.963 408.923C248.054 408.923 247.226 408.718 246.479 408.307C245.732 407.896 245.147 407.348 244.724 406.664C244.288 405.966 244.07 405.207 244.07 404.385C244.07 403.576 244.288 402.822 244.724 402.125C245.147 401.428 245.732 400.874 246.479 400.463C247.226 400.052 248.054 399.846 248.963 399.846C249.872 399.846 250.706 400.052 251.466 400.463C252.213 400.874 252.805 401.428 253.24 402.125C253.664 402.822 253.875 403.576 253.875 404.385ZM252.363 404.385C252.363 403.862 252.219 403.376 251.933 402.928C251.647 402.48 251.248 402.125 250.738 401.864C250.215 401.602 249.623 401.471 248.963 401.471C248.303 401.471 247.718 401.602 247.208 401.864C246.697 402.125 246.299 402.48 246.012 402.928C245.726 403.376 245.583 403.862 245.583 404.385C245.583 404.908 245.726 405.394 246.012 405.842C246.299 406.29 246.697 406.651 247.208 406.925C247.718 407.187 248.303 407.317 248.963 407.317C249.623 407.317 250.215 407.187 250.738 406.925C251.248 406.651 251.647 406.296 251.933 405.86C252.219 405.412 252.363 404.92 252.363 404.385ZM248.702 389.05L253.67 385.202V387.164L248.926 390.731H253.67V392.318H248.926L253.67 395.904V397.847L248.702 394.018L244.275 397.473V395.624L248.627 392.318H244.275V390.731H248.627L244.275 387.444V385.595L248.702 389.05ZM248.198 375.898H244.275V374.273H253.67V375.898H249.71V380.623H253.67V382.229H244.275V380.623H248.198V375.898ZM253.875 365.915C253.875 366.736 253.664 367.496 253.24 368.193C252.805 368.878 252.213 369.426 251.466 369.837C250.706 370.248 249.872 370.453 248.963 370.453C248.054 370.453 247.226 370.248 246.479 369.837C245.732 369.426 245.147 368.878 244.724 368.193C244.288 367.496 244.07 366.736 244.07 365.915C244.07 365.105 244.288 364.352 244.724 363.655C245.147 362.957 245.732 362.403 246.479 361.992C247.226 361.582 248.054 361.376 248.963 361.376C249.872 361.376 250.706 361.582 251.466 361.992C252.213 362.403 252.805 362.957 253.24 363.655C253.664 364.352 253.875 365.105 253.875 365.915ZM252.363 365.915C252.363 365.392 252.219 364.906 251.933 364.458C251.647 364.01 251.248 363.655 250.738 363.393C250.215 363.132 249.623 363.001 248.963 363.001C248.303 363.001 247.718 363.132 247.208 363.393C246.697 363.655 246.299 364.01 246.012 364.458C245.726 364.906 245.583 365.392 245.583 365.915C245.583 366.438 245.726 366.923 246.012 367.371C246.299 367.82 246.697 368.181 247.208 368.455C247.718 368.716 248.303 368.847 248.963 368.847C249.623 368.847 250.215 368.716 250.738 368.455C251.248 368.181 251.647 367.826 251.933 367.39C252.219 366.942 252.363 366.45 252.363 365.915ZM253.67 355.967V357.574H244.275V351.391H245.788V355.967H253.67ZM253.875 344.469C253.875 345.291 253.664 346.05 253.24 346.747C252.805 347.432 252.213 347.98 251.466 348.391C250.706 348.802 249.872 349.007 248.963 349.007C248.054 349.007 247.226 348.802 246.479 348.391C245.732 347.98 245.147 347.432 244.724 346.747C244.288 346.05 244.07 345.291 244.07 344.469C244.07 343.66 244.288 342.906 244.724 342.209C245.147 341.512 245.732 340.958 246.479 340.547C247.226 340.136 248.054 339.93 248.963 339.93C249.872 339.93 250.706 340.136 251.466 340.547C252.213 340.958 252.805 341.512 253.24 342.209C253.664 342.906 253.875 343.66 253.875 344.469ZM252.363 344.469C252.363 343.946 252.219 343.46 251.933 343.012C251.647 342.564 251.248 342.209 250.738 341.947C250.215 341.686 249.623 341.555 248.963 341.555C248.303 341.555 247.718 341.686 247.208 341.947C246.697 342.209 246.299 342.564 246.012 343.012C245.726 343.46 245.583 343.946 245.583 344.469C245.583 344.992 245.726 345.477 246.012 345.926C246.299 346.374 246.697 346.735 247.208 347.009C247.718 347.27 248.303 347.401 248.963 347.401C249.623 347.401 250.215 347.27 250.738 347.009C251.248 346.735 251.647 346.38 251.933 345.944C252.219 345.496 252.363 345.004 252.363 344.469Z" fill="white"/>
</g>
<defs>
<clipPath id="clip0_235_8932">
<rect width="480" height="719.066" fill="white"/>
</clipPath>
</defs>
</svg>
