<svg width="480" height="720" viewBox="0 0 480 720" fill="none" xmlns="http://www.w3.org/2000/svg">
<g clip-path="url(#clip0_235_8900)">
<rect x="0.398438" width="480" height="719.066" fill="#0E0E0E"/>
<rect x="216.654" y="199.844" width="26.1479" height="22.4125" fill="#C8AE1B"/>
<rect x="250.271" y="-7.4707" width="250.272" height="18.677" fill="#C8AE1B"/>
<path d="M565.884 605.44H641.545V822.848H540.025V700.257H213.435V822.848H110.957V605.44H152.14C180.233 583.093 196.196 551.488 200.027 510.624L223.97 215.64H565.884V605.44ZM464.363 605.44V310.456H317.829L301.547 510.624C297.078 555.319 284.946 586.924 265.153 605.44H464.363Z" fill="#C8AE1B"/>
<path d="M361.381 283.634C330.365 283.634 302.58 276.311 278.025 261.665C253.902 246.587 234.732 223.972 220.516 193.817C206.301 163.232 199.193 125.754 199.193 81.3838C199.193 -69.3887 258.64 -153.391 377.535 -170.622L486.738 -186.776V-121.513C464.768 -117.205 432.244 -111.82 389.166 -105.359C350.396 -99.7586 321.749 -86.8353 303.226 -66.5887C285.133 -46.7729 273.718 -21.7877 268.979 8.36681H272.21C280.395 -3.69499 293.103 -14.6798 310.334 -24.5878C327.996 -34.4957 348.888 -39.4496 373.012 -39.4496C398.859 -39.4496 422.982 -32.5572 445.383 -18.7722C467.783 -4.98732 485.661 14.1823 499.015 38.7367C512.369 63.2911 519.046 91.0763 519.046 122.092C519.046 153.539 512.153 181.54 498.369 206.094C484.584 230.649 465.629 249.818 441.506 263.603C417.813 276.957 391.105 283.634 361.381 283.634ZM360.735 217.725C385.72 217.725 406.397 209.11 422.767 191.879C439.567 174.217 447.967 150.955 447.967 122.092C447.967 93.2302 439.567 69.9682 422.767 52.3062C406.397 34.6443 385.72 25.8134 360.735 25.8134C335.75 25.8134 314.857 34.6443 298.057 52.3062C281.256 69.9682 272.856 93.2302 272.856 122.092C272.856 150.955 281.256 174.217 298.057 191.879C314.857 209.11 335.75 217.725 360.735 217.725Z" fill="#C8AE1B"/>
<path d="M64.5234 407.989C120.693 407.989 165.568 425.389 199.148 460.19C232.728 494.381 249.518 539.866 249.518 596.647V882.381H174.421L156.105 830.18H151.526C138.704 846.665 120.999 861.318 98.4085 874.139C76.429 886.96 48.9545 893.371 15.9851 893.371C-13.3209 893.371 -39.8796 887.266 -63.6908 875.055C-87.502 862.233 -106.124 845.443 -119.556 824.685C-132.987 803.316 -139.703 780.115 -139.703 755.083C-139.703 724.556 -130.851 697.997 -113.145 675.407C-94.8285 652.206 -69.491 634.501 -37.1321 622.29C-4.16279 610.079 33.3856 603.973 75.5131 603.973H149.694V588.405C149.694 560.93 141.757 539.256 125.883 523.382C110.619 506.897 89.8609 498.655 63.6076 498.655C40.4069 498.655 21.7853 504.76 7.7428 516.971C-6.29969 528.571 -14.8473 542.919 -17.9 560.014H-118.64C-115.587 533.15 -106.734 508.118 -92.0811 484.917C-76.8175 461.717 -55.7537 443.095 -28.8898 429.053C-2.02589 415.01 29.1118 407.989 64.5234 407.989ZM37.0489 808.2C70.6288 808.2 97.798 798.126 118.556 777.978C139.315 757.83 149.694 733.714 149.694 705.629V676.323H76.429C37.9647 676.323 8.9639 682.734 -10.5735 695.555C-29.5004 707.766 -38.9638 724.861 -38.9638 746.841C-38.9638 765.157 -32.5531 780.115 -19.7317 791.716C-6.29969 802.705 12.6272 808.2 37.0489 808.2Z" fill="#C8AE1B"/>
<path d="M255.109 375.777C255.109 397.94 253.031 416.641 248.875 431.878H-140.718C-133.792 471.357 -117.17 502.524 -90.8505 525.381C-64.5313 548.237 -32.6712 559.665 4.72983 559.665C31.7416 559.665 54.5978 554.47 73.2983 544.081C91.9988 533.692 106.89 520.532 117.972 504.602H236.408C226.019 530.921 209.743 556.202 187.579 580.443C166.108 604.685 139.443 624.424 107.583 639.661C76.415 654.899 42.4771 662.518 5.76874 662.518C-42.0214 662.518 -86.0022 650.397 -126.174 626.155C-165.652 601.914 -197.166 569.015 -220.715 527.458C-243.571 485.209 -254.999 438.458 -254.999 387.205C-254.999 336.644 -243.225 290.586 -219.676 249.029C-196.127 206.78 -164.614 173.534 -125.135 149.293C-84.9633 124.359 -41.6751 111.892 4.72983 111.892C51.1348 111.892 93.384 123.666 131.478 147.215C169.571 170.071 199.7 201.585 221.863 241.756C244.027 281.928 255.109 326.601 255.109 375.777ZM4.72983 214.745C-31.2859 214.745 -62.7997 226.865 -89.8116 251.107C-116.823 274.655 -133.792 306.169 -140.718 345.648H143.945C137.711 306.862 121.781 275.348 96.1545 251.107C70.5279 226.865 40.053 214.745 4.72983 214.745Z" fill="#C8AE1B"/>
<path d="M164.383 368.77V293.315H205.472V482.327H164.383V406.872H80.336V482.327H39.2465V293.315H80.336V368.77H164.383Z" fill="white"/>
<path d="M321.64 641.37L413.531 511.378H449.765V700.389H409.796V571.144L318.278 700.389H282.045V511.378H321.64V641.37Z" fill="white"/>
<path d="M384.025 354.949C396.725 354.949 408.056 357.689 418.017 363.167C428.227 368.646 436.071 376.241 441.55 385.953C447.278 395.416 450.141 406.249 450.141 418.451C450.141 437.377 443.916 452.817 431.464 464.77C419.262 476.475 403.449 482.327 384.025 482.327H300.725V293.315H341.814V354.949H384.025ZM378.048 447.214C387.76 447.214 395.355 444.724 400.834 439.743C406.562 434.514 409.425 427.416 409.425 418.451C409.425 409.735 406.562 402.887 400.834 397.907C395.355 392.677 387.76 390.062 378.048 390.062H341.814V447.214H378.048Z" fill="white"/>
<path d="M82.2031 700.848H41.1136V511.837H169.238V549.938H82.2031V700.848Z" fill="white"/>
<path d="M196.507 180.132H226.016V264.926H186.421V217.113H59.0436V264.926H19.0747V180.132H35.137C46.0942 171.416 52.3199 159.089 53.814 143.152L63.1526 28.1011H196.507V180.132ZM156.911 180.132V65.0817H99.7596L93.4094 143.152C91.6662 160.584 86.9347 172.91 79.2148 180.132H156.911Z" fill="white"/>
<path d="M449.02 118.039C449.02 126.008 448.273 132.731 446.779 138.21H306.701C309.191 152.404 315.168 163.611 324.631 171.829C334.094 180.046 345.549 184.155 358.997 184.155C368.709 184.155 376.927 182.288 383.65 178.552C390.374 174.817 395.728 170.085 399.713 164.358H442.296C438.561 173.821 432.709 182.91 424.74 191.626C417.02 200.342 407.432 207.439 395.977 212.918C384.771 218.397 372.569 221.136 359.37 221.136C342.187 221.136 326.374 216.778 311.93 208.062C297.736 199.346 286.405 187.517 277.938 172.576C269.72 157.385 265.611 140.576 265.611 122.148C265.611 103.969 269.845 87.4083 278.312 72.4667C286.779 57.276 298.109 45.3227 312.304 36.6068C326.748 27.6418 342.312 23.1593 358.997 23.1593C375.681 23.1593 390.872 27.3928 404.569 35.8597C418.265 44.0776 429.098 55.4083 437.067 69.8519C445.035 84.2955 449.02 100.358 449.02 118.039ZM358.997 60.1398C346.047 60.1398 334.716 64.4978 325.004 73.2138C315.292 81.6807 309.191 93.0114 306.701 107.206H409.051C406.81 93.2605 401.082 81.9297 391.868 73.2138C382.654 64.4978 371.697 60.1398 358.997 60.1398Z" fill="white"/>
<path d="M201.241 700.613C201.241 701.46 201.035 702.226 200.624 702.91C200.201 703.583 199.56 704.118 198.701 704.517C197.841 704.915 196.783 705.114 195.525 705.114C193.384 705.114 191.69 704.71 190.445 703.9C189.2 703.091 188.447 701.815 188.185 700.072C187.999 698.802 187.843 697.818 187.718 697.121H189.231L189.549 698.951L189.698 699.866C189.885 701.099 190.321 701.983 191.006 702.518C191.678 703.054 192.506 703.384 193.49 703.508V703.415C193.104 703.178 192.749 702.798 192.425 702.275C192.101 701.752 191.939 701.124 191.939 700.389C191.939 699.642 192.139 698.951 192.537 698.316C192.923 697.681 193.471 697.177 194.181 696.803C194.89 696.417 195.694 696.224 196.59 696.224C197.499 696.224 198.308 696.423 199.018 696.822C199.715 697.208 200.263 697.737 200.662 698.409C201.048 699.069 201.241 699.804 201.241 700.613ZM199.728 700.613C199.728 700.103 199.603 699.636 199.354 699.212C199.093 698.789 198.725 698.453 198.252 698.204C197.779 697.955 197.225 697.83 196.59 697.83C195.955 697.83 195.401 697.955 194.928 698.204C194.442 698.453 194.075 698.789 193.826 699.212C193.564 699.636 193.434 700.103 193.434 700.613C193.434 701.124 193.564 701.597 193.826 702.033C194.075 702.456 194.442 702.792 194.928 703.041C195.401 703.29 195.955 703.415 196.59 703.415C197.225 703.415 197.779 703.29 198.252 703.041C198.725 702.792 199.093 702.456 199.354 702.033C199.603 701.597 199.728 701.124 199.728 700.613ZM191.641 686.516V684.853L201.764 688.888C202.797 689.299 203.507 689.716 203.893 690.139C204.291 690.562 204.49 691.054 204.49 691.615C204.49 691.864 204.434 692.156 204.322 692.492H202.866C202.94 692.281 202.978 692.075 202.978 691.876C202.978 691.54 202.884 691.26 202.697 691.036C202.511 690.799 202.199 690.594 201.764 690.419L200.811 690.046L191.641 693.762V692.025L198.813 689.243L191.641 686.516ZM199.56 674.894V673.437H203.426V675.024H201.035V681.916H203.426V683.504H199.56V682.738C199.111 682.128 198.439 681.792 197.543 681.729L191.641 681.225V674.894H199.56ZM199.56 676.481H193.116V679.75L197.543 680.142C198.476 680.229 199.149 680.484 199.56 680.908V676.481ZM194.909 666.089C194.909 665.117 195.195 664.333 195.768 663.735C196.329 663.138 197.063 662.839 197.972 662.839C198.881 662.839 199.622 663.138 200.195 663.735C200.755 664.333 201.035 665.117 201.035 666.089V669.936H191.641V668.33H194.909V666.089ZM199.597 666.238C199.597 665.678 199.454 665.242 199.167 664.931C198.881 664.607 198.483 664.445 197.972 664.445C197.462 664.445 197.063 664.607 196.777 664.931C196.478 665.242 196.329 665.678 196.329 666.238V668.33H199.597V666.238ZM195.563 647.083H191.641V645.459H201.035V647.083H197.076V651.809H201.035V653.415H191.641V651.809H195.563V647.083ZM191.435 637.679C191.435 636.969 191.591 636.341 191.902 635.793C192.201 635.245 192.63 634.822 193.191 634.523C193.739 634.211 194.367 634.056 195.077 634.056H201.035V635.27L199.859 635.606V635.699C200.207 635.948 200.525 636.31 200.811 636.783C201.097 637.256 201.241 637.835 201.241 638.52C201.241 639.142 201.116 639.69 200.867 640.163C200.618 640.636 200.282 641.004 199.859 641.265C199.423 641.527 198.943 641.657 198.42 641.657C197.835 641.657 197.318 641.483 196.87 641.134C196.409 640.773 196.055 640.275 195.806 639.64C195.557 638.993 195.432 638.258 195.432 637.436V635.681H195.002C194.367 635.681 193.863 635.867 193.49 636.241C193.104 636.602 192.911 637.081 192.911 637.679C192.911 638.239 193.054 638.681 193.34 639.005C193.627 639.329 193.994 639.534 194.442 639.622V641.246C193.907 641.184 193.409 641.004 192.948 640.705C192.487 640.394 192.12 639.976 191.846 639.453C191.572 638.931 191.435 638.339 191.435 637.679ZM199.821 638.258C199.821 637.486 199.597 636.864 199.149 636.39C198.688 635.917 198.115 635.681 197.43 635.681H196.721V637.324C196.721 638.196 196.864 638.868 197.15 639.341C197.437 639.815 197.835 640.051 198.346 640.051C198.794 640.051 199.155 639.895 199.429 639.584C199.69 639.273 199.821 638.831 199.821 638.258ZM196.086 617.675C196.248 617.239 196.522 616.872 196.908 616.573C197.294 616.262 197.785 616.106 198.383 616.106C199.155 616.106 199.79 616.374 200.288 616.909C200.786 617.445 201.035 618.13 201.035 618.964V623.353H191.641V619.319C191.641 618.771 191.753 618.285 191.977 617.862C192.201 617.426 192.506 617.09 192.892 616.853C193.266 616.604 193.683 616.48 194.143 616.48C194.604 616.48 195.002 616.598 195.339 616.835C195.675 617.071 195.924 617.351 196.086 617.675ZM193.004 621.765H195.581V619.543C195.581 619.082 195.463 618.721 195.227 618.46C194.99 618.186 194.673 618.049 194.274 618.049C193.888 618.049 193.583 618.186 193.359 618.46C193.122 618.721 193.004 619.082 193.004 619.543V621.765ZM199.672 619.169C199.672 618.734 199.541 618.379 199.28 618.105C199.006 617.818 198.663 617.675 198.252 617.675C197.854 617.675 197.524 617.818 197.262 618.105C196.988 618.391 196.851 618.746 196.851 619.169V621.765H199.672V619.169ZM201.241 608.315C201.241 609.137 201.029 609.896 200.606 610.594C200.17 611.278 199.578 611.826 198.831 612.237C198.072 612.648 197.237 612.853 196.329 612.853C195.42 612.853 194.592 612.648 193.844 612.237C193.097 611.826 192.512 611.278 192.089 610.594C191.653 609.896 191.435 609.137 191.435 608.315C191.435 607.506 191.653 606.752 192.089 606.055C192.512 605.358 193.097 604.804 193.844 604.393C194.592 603.982 195.42 603.776 196.329 603.776C197.237 603.776 198.072 603.982 198.831 604.393C199.578 604.804 200.17 605.358 200.606 606.055C201.029 606.752 201.241 607.506 201.241 608.315ZM199.728 608.315C199.728 607.792 199.585 607.306 199.298 606.858C199.012 606.41 198.613 606.055 198.103 605.794C197.58 605.532 196.988 605.401 196.329 605.401C195.669 605.401 195.083 605.532 194.573 605.794C194.062 606.055 193.664 606.41 193.378 606.858C193.091 607.306 192.948 607.792 192.948 608.315C192.948 608.838 193.091 609.323 193.378 609.772C193.664 610.22 194.062 610.581 194.573 610.855C195.083 611.116 195.669 611.247 196.329 611.247C196.988 611.247 197.58 611.116 198.103 610.855C198.613 610.581 199.012 610.226 199.298 609.79C199.585 609.342 199.728 608.85 199.728 608.315ZM201.241 600.955C201.241 601.179 201.203 601.416 201.129 601.665H199.69V601.329C199.69 600.843 199.541 600.469 199.242 600.208C198.931 599.934 198.427 599.772 197.729 599.722L191.641 599.218V592.774H201.035V594.399H193.153V597.761L197.953 598.153C199.049 598.241 199.871 598.533 200.419 599.031C200.967 599.517 201.241 600.158 201.241 600.955ZM195.563 582.035H191.641V580.41H201.035V582.035H197.076V586.76H201.035V588.366H191.641V586.76H195.563V582.035ZM196.104 567.737C196.528 567.737 196.839 567.762 197.038 567.812V574.946C197.885 574.822 198.551 574.498 199.037 573.975C199.522 573.452 199.765 572.805 199.765 572.033C199.765 571.012 199.348 570.24 198.514 569.717V568.055C199.273 568.353 199.921 568.864 200.456 569.586C200.979 570.308 201.241 571.13 201.241 572.052C201.241 572.886 201.029 573.652 200.606 574.349C200.182 575.046 199.597 575.594 198.85 575.992C198.103 576.391 197.262 576.59 196.329 576.59C195.42 576.59 194.592 576.385 193.844 575.974C193.097 575.563 192.512 575.015 192.089 574.33C191.653 573.633 191.435 572.88 191.435 572.07C191.435 571.261 191.641 570.526 192.051 569.866C192.462 569.206 193.023 568.69 193.732 568.316C194.442 567.93 195.233 567.737 196.104 567.737ZM192.911 572.07C192.911 572.792 193.172 573.427 193.695 573.975C194.206 574.511 194.878 574.841 195.712 574.965V569.306C194.89 569.406 194.218 569.711 193.695 570.221C193.172 570.719 192.911 571.336 192.911 572.07ZM222.035 703.116V704.722H212.641V696.934H222.035V698.54L214.153 698.54V703.116H222.035ZM225.397 692.531H212.641V691.336L213.817 690.981V690.887C213.518 690.663 213.213 690.296 212.902 689.785C212.591 689.263 212.435 688.665 212.435 687.992C212.435 687.208 212.647 686.486 213.07 685.826C213.481 685.166 214.06 684.643 214.807 684.257C215.554 683.859 216.395 683.659 217.329 683.659C218.262 683.659 219.103 683.859 219.85 684.257C220.597 684.643 221.182 685.166 221.606 685.826C222.029 686.486 222.241 687.208 222.241 687.992C222.241 688.64 222.091 689.225 221.792 689.748C221.481 690.271 221.182 690.632 220.896 690.831V690.925H225.397V692.531ZM220.728 688.086C220.728 687.575 220.585 687.108 220.298 686.685C220.012 686.249 219.613 685.907 219.103 685.658C218.58 685.396 217.988 685.266 217.329 685.266C216.669 685.266 216.083 685.396 215.573 685.658C215.062 685.907 214.664 686.249 214.378 686.685C214.091 687.108 213.948 687.575 213.948 688.086C213.948 688.596 214.091 689.07 214.378 689.505C214.664 689.941 215.062 690.29 215.573 690.551C216.083 690.8 216.669 690.925 217.329 690.925C217.988 690.925 218.58 690.8 219.103 690.551C219.613 690.29 220.012 689.941 220.298 689.505C220.585 689.07 220.728 688.596 220.728 688.086ZM219.532 678.242L212.641 673.217V671.798H222.035V673.386H215.143L222.035 678.41V679.829H212.641V678.242H219.532ZM222.241 663.274C222.241 664.12 222.035 664.886 221.624 665.571C221.201 666.243 220.56 666.779 219.701 667.177C218.841 667.576 217.783 667.775 216.525 667.775C214.384 667.775 212.69 667.37 211.445 666.561C210.2 665.752 209.447 664.475 209.185 662.732C208.999 661.462 208.843 660.478 208.718 659.781H210.231L210.549 661.611L210.698 662.527C210.885 663.759 211.321 664.643 212.006 665.179C212.678 665.714 213.506 666.044 214.49 666.169V666.075C214.104 665.839 213.749 665.459 213.425 664.936C213.101 664.413 212.939 663.784 212.939 663.05C212.939 662.303 213.139 661.611 213.537 660.976C213.923 660.341 214.471 659.837 215.181 659.464C215.89 659.078 216.694 658.885 217.59 658.885C218.499 658.885 219.308 659.084 220.018 659.482C220.715 659.868 221.263 660.397 221.662 661.07C222.048 661.73 222.241 662.464 222.241 663.274ZM220.728 663.274C220.728 662.763 220.603 662.296 220.354 661.873C220.093 661.45 219.725 661.113 219.252 660.864C218.779 660.615 218.225 660.491 217.59 660.491C216.955 660.491 216.401 660.615 215.928 660.864C215.442 661.113 215.075 661.45 214.826 661.873C214.564 662.296 214.434 662.763 214.434 663.274C214.434 663.784 214.564 664.257 214.826 664.693C215.075 665.117 215.442 665.453 215.928 665.702C216.401 665.951 216.955 666.075 217.59 666.075C218.225 666.075 218.779 665.951 219.252 665.702C219.725 665.453 220.093 665.117 220.354 664.693C220.603 664.257 220.728 663.784 220.728 663.274ZM215.909 651.347C215.909 650.376 216.195 649.591 216.768 648.994C217.329 648.384 218.063 648.079 218.972 648.079C219.881 648.079 220.622 648.384 221.195 648.994C221.755 649.591 222.035 650.376 222.035 651.347V655.064H212.641V653.458H215.909V651.347ZM222.035 646.771H212.641V645.165H222.035V646.771ZM220.597 651.478C220.597 650.918 220.454 650.482 220.167 650.17C219.881 649.847 219.483 649.685 218.972 649.685C218.462 649.685 218.063 649.847 217.777 650.17C217.478 650.482 217.329 650.918 217.329 651.478V653.458H220.597V651.478ZM222.241 641.355C222.241 641.579 222.203 641.816 222.129 642.065H220.69V641.729C220.69 641.243 220.541 640.869 220.242 640.608C219.931 640.334 219.427 640.172 218.729 640.122L212.641 639.618V633.174H222.035V634.799H214.153V638.161L218.953 638.553C220.049 638.641 220.871 638.933 221.419 639.431C221.967 639.917 222.241 640.558 222.241 641.355ZM219.532 627.179L212.641 622.155V620.735H222.035V622.323H215.143L222.035 627.347V628.766H212.641V627.179H219.532Z" fill="white"/>
<path d="M259.139 476.638C259.139 477.46 258.927 478.219 258.504 478.917C258.068 479.602 257.477 480.149 256.73 480.56C255.97 480.971 255.136 481.177 254.227 481.177C253.318 481.177 252.49 480.971 251.743 480.56C250.996 480.149 250.411 479.602 249.987 478.917C249.551 478.219 249.334 477.46 249.334 476.638C249.334 475.829 249.551 475.075 249.987 474.378C250.411 473.681 250.996 473.127 251.743 472.716C252.49 472.305 253.318 472.1 254.227 472.1C255.136 472.1 255.97 472.305 256.73 472.716C257.477 473.127 258.068 473.681 258.504 474.378C258.927 475.075 259.139 475.829 259.139 476.638ZM257.626 476.638C257.626 476.115 257.483 475.63 257.197 475.181C256.91 474.733 256.512 474.378 256.001 474.117C255.478 473.855 254.887 473.724 254.227 473.724C253.567 473.724 252.982 473.855 252.471 474.117C251.961 474.378 251.562 474.733 251.276 475.181C250.99 475.63 250.846 476.115 250.846 476.638C250.846 477.161 250.99 477.647 251.276 478.095C251.562 478.543 251.961 478.904 252.471 479.178C252.982 479.44 253.567 479.57 254.227 479.57C254.887 479.57 255.478 479.44 256.001 479.178C256.512 478.904 256.91 478.549 257.197 478.114C257.483 477.665 257.626 477.174 257.626 476.638ZM258.934 465.113V466.738H251.052V469.67H249.539V462.181H251.052V465.113H258.934ZM257.458 451.882V450.425H261.324V452.012H258.934V458.904H261.324V460.492H257.458V459.726C257.01 459.116 256.337 458.78 255.441 458.717L249.539 458.213V451.882H257.458ZM257.458 453.469H251.015V456.738L255.441 457.13C256.375 457.217 257.047 457.472 257.458 457.896V453.469ZM259.139 442.965C259.139 443.787 258.927 444.546 258.504 445.243C258.068 445.928 257.477 446.476 256.73 446.887C255.97 447.298 255.136 447.503 254.227 447.503C253.318 447.503 252.49 447.298 251.743 446.887C250.996 446.476 250.411 445.928 249.987 445.243C249.551 444.546 249.334 443.787 249.334 442.965C249.334 442.155 249.551 441.402 249.987 440.705C250.411 440.008 250.996 439.453 251.743 439.043C252.49 438.632 253.318 438.426 254.227 438.426C255.136 438.426 255.97 438.632 256.73 439.043C257.477 439.453 258.068 440.008 258.504 440.705C258.927 441.402 259.139 442.155 259.139 442.965ZM257.626 442.965C257.626 442.442 257.483 441.956 257.197 441.508C256.91 441.06 256.512 440.705 256.001 440.443C255.478 440.182 254.887 440.051 254.227 440.051C253.567 440.051 252.982 440.182 252.471 440.443C251.961 440.705 251.562 441.06 251.276 441.508C250.99 441.956 250.846 442.442 250.846 442.965C250.846 443.488 250.99 443.973 251.276 444.422C251.562 444.87 251.961 445.231 252.471 445.505C252.982 445.766 253.567 445.897 254.227 445.897C254.887 445.897 255.478 445.766 256.001 445.505C256.512 445.231 256.91 444.876 257.197 444.44C257.483 443.992 257.626 443.5 257.626 442.965ZM254.134 430.861L258.934 427.611V429.497L255.273 431.907L258.934 434.316V436.109L254.134 432.878L249.539 435.904V434.073L253.032 431.832L249.539 429.609V427.835L254.134 430.861ZM253.461 418.016H249.539V416.391H258.934V418.016H254.974V422.741H258.934V424.348L249.539 424.348V422.741H253.461V418.016ZM256.431 410.405L249.539 405.381V403.961H258.934V405.549H252.042L258.934 410.573V411.992H249.539V410.405H256.431ZM259.139 389.195C259.139 390.017 258.927 390.777 258.504 391.474C258.068 392.159 257.477 392.707 256.73 393.117C255.97 393.528 255.136 393.734 254.227 393.734C253.318 393.734 252.49 393.528 251.743 393.117C250.996 392.707 250.411 392.159 249.987 391.474C249.551 390.777 249.334 390.017 249.334 389.195C249.334 388.473 249.502 387.819 249.838 387.234C250.174 386.637 250.616 386.145 251.164 385.759C251.712 385.373 252.303 385.117 252.938 384.993V386.599C252.328 386.773 251.83 387.085 251.444 387.533C251.046 387.969 250.846 388.523 250.846 389.195C250.846 389.718 250.99 390.204 251.276 390.652C251.562 391.1 251.961 391.461 252.471 391.735C252.982 391.997 253.567 392.128 254.227 392.128C254.887 392.128 255.478 391.997 256.001 391.735C256.512 391.461 256.91 391.107 257.197 390.671C257.483 390.222 257.626 389.731 257.626 389.195C257.626 388.523 257.433 387.969 257.047 387.533C256.649 387.085 256.144 386.773 255.534 386.599V384.993C256.169 385.117 256.761 385.373 257.309 385.759C257.857 386.145 258.299 386.637 258.635 387.234C258.971 387.819 259.139 388.473 259.139 389.195ZM258.934 373.258V374.864H249.539V367.076H258.934V368.682H251.052V373.258H258.934ZM259.139 358.714C259.139 359.536 258.927 360.295 258.504 360.992C258.068 361.677 257.477 362.225 256.73 362.636C255.97 363.047 255.136 363.252 254.227 363.252C253.318 363.252 252.49 363.047 251.743 362.636C250.996 362.225 250.411 361.677 249.987 360.992C249.551 360.295 249.334 359.536 249.334 358.714C249.334 357.904 249.551 357.151 249.987 356.454C250.411 355.757 250.996 355.202 251.743 354.792C252.49 354.381 253.318 354.175 254.227 354.175C255.136 354.175 255.97 354.381 256.73 354.792C257.477 355.202 258.068 355.757 258.504 356.454C258.927 357.151 259.139 357.904 259.139 358.714ZM257.626 358.714C257.626 358.191 257.483 357.705 257.197 357.257C256.91 356.809 256.512 356.454 256.001 356.192C255.478 355.931 254.887 355.8 254.227 355.8C253.567 355.8 252.982 355.931 252.471 356.192C251.961 356.454 251.562 356.809 251.276 357.257C250.99 357.705 250.846 358.191 250.846 358.714C250.846 359.237 250.99 359.722 251.276 360.171C251.562 360.619 251.961 360.98 252.471 361.254C252.982 361.515 253.567 361.646 254.227 361.646C254.887 361.646 255.478 361.515 256.001 361.254C256.512 360.98 256.91 360.625 257.197 360.189C257.483 359.741 257.626 359.249 257.626 358.714ZM259.139 351.354C259.139 351.578 259.102 351.815 259.027 352.064H257.589V351.727C257.589 351.242 257.439 350.868 257.141 350.607C256.829 350.333 256.325 350.171 255.628 350.121L249.539 349.617V343.173H258.934V344.798H251.052V348.16L255.852 348.552C256.948 348.639 257.769 348.932 258.317 349.43C258.865 349.916 259.139 350.557 259.139 351.354ZM252.808 334.918C252.808 333.947 253.094 333.162 253.667 332.564C254.227 331.967 254.962 331.668 255.871 331.668C256.78 331.668 257.52 331.967 258.093 332.564C258.653 333.162 258.934 333.947 258.934 334.918V338.765H249.539V337.159H252.808V334.918ZM257.495 335.067C257.495 334.507 257.352 334.071 257.066 333.76C256.78 333.436 256.381 333.274 255.871 333.274C255.36 333.274 254.962 333.436 254.675 333.76C254.376 334.071 254.227 334.507 254.227 335.067V337.159H257.495V335.067ZM254.078 323.232C254.239 322.834 254.513 322.491 254.899 322.205C255.285 321.906 255.765 321.757 256.337 321.757C256.836 321.757 257.302 321.894 257.738 322.168C258.162 322.442 258.504 322.846 258.766 323.382C259.015 323.905 259.139 324.527 259.139 325.249C259.139 326.358 258.853 327.235 258.28 327.883C257.695 328.518 256.96 328.879 256.076 328.966V327.379C256.562 327.341 256.954 327.148 257.253 326.8C257.551 326.451 257.701 325.947 257.701 325.287C257.701 324.652 257.576 324.172 257.327 323.849C257.066 323.512 256.711 323.344 256.263 323.344C255.815 323.344 255.453 323.506 255.18 323.83C254.906 324.154 254.769 324.614 254.769 325.212V326.277H253.461V325.268C253.461 324.72 253.343 324.303 253.106 324.017C252.87 323.718 252.565 323.569 252.191 323.569C251.793 323.569 251.457 323.73 251.183 324.054C250.909 324.365 250.772 324.789 250.772 325.324C250.772 325.884 250.915 326.326 251.201 326.65C251.475 326.962 251.836 327.148 252.285 327.211V328.779C251.438 328.705 250.734 328.362 250.174 327.752C249.614 327.13 249.334 326.289 249.334 325.231C249.334 324.583 249.464 324.017 249.726 323.531C249.975 323.033 250.317 322.653 250.753 322.392C251.176 322.118 251.637 321.981 252.135 321.981C252.633 321.981 253.038 322.105 253.349 322.355C253.66 322.604 253.903 322.896 254.078 323.232ZM259.139 313.962C259.139 314.784 258.927 315.543 258.504 316.24C258.068 316.925 257.477 317.473 256.73 317.884C255.97 318.295 255.136 318.5 254.227 318.5C253.318 318.5 252.49 318.295 251.743 317.884C250.996 317.473 250.411 316.925 249.987 316.24C249.551 315.543 249.334 314.784 249.334 313.962C249.334 313.152 249.551 312.399 249.987 311.702C250.411 311.005 250.996 310.451 251.743 310.04C252.49 309.629 253.318 309.423 254.227 309.423C255.136 309.423 255.97 309.629 256.73 310.04C257.477 310.451 258.068 311.005 258.504 311.702C258.927 312.399 259.139 313.152 259.139 313.962ZM257.626 313.962C257.626 313.439 257.483 312.953 257.197 312.505C256.91 312.057 256.512 311.702 256.001 311.44C255.478 311.179 254.887 311.048 254.227 311.048C253.567 311.048 252.982 311.179 252.471 311.44C251.961 311.702 251.562 312.057 251.276 312.505C250.99 312.953 250.846 313.439 250.846 313.962C250.846 314.485 250.99 314.97 251.276 315.419C251.562 315.867 251.961 316.228 252.471 316.502C252.982 316.763 253.567 316.894 254.227 316.894C254.887 316.894 255.478 316.763 256.001 316.502C256.512 316.228 256.91 315.873 257.197 315.437C257.483 314.989 257.626 314.497 257.626 313.962ZM256.431 304.033L249.539 299.009V297.59H258.934V299.177H252.042L258.934 304.201V305.621H249.539V304.033H256.431ZM248.306 301.493C248.306 302.29 248.076 302.931 247.615 303.417C247.155 303.89 246.576 304.151 245.878 304.201V302.95C246.277 302.913 246.594 302.776 246.831 302.539C247.055 302.29 247.167 301.941 247.167 301.493C247.167 301.057 247.055 300.721 246.831 300.485C246.594 300.236 246.277 300.086 245.878 300.036V298.804C246.563 298.841 247.142 299.102 247.615 299.588C248.076 300.074 248.306 300.709 248.306 301.493ZM278.458 473.127V471.67H282.324V473.258H279.934V480.149H282.324V481.737H278.458V480.971C278.01 480.361 277.337 480.025 276.441 479.963L270.539 479.458V473.127H278.458ZM278.458 474.714H272.015V477.983L276.441 478.375C277.375 478.462 278.047 478.717 278.458 479.141V474.714ZM280.139 468.421C280.139 468.645 280.102 468.882 280.027 469.131H278.589V468.794C278.589 468.309 278.439 467.935 278.141 467.674C277.829 467.4 277.325 467.238 276.628 467.188L270.539 466.684V460.24H279.934V461.865H272.052V465.227L276.852 465.619C277.948 465.707 278.769 465.999 279.317 466.497C279.865 466.983 280.139 467.624 280.139 468.421ZM270.539 449.127H279.934V450.733H276.572V452.713L279.934 454.768V456.635L276.329 454.319C276.105 454.917 275.744 455.397 275.246 455.758C274.748 456.106 274.181 456.281 273.546 456.281C272.986 456.281 272.475 456.144 272.015 455.87C271.554 455.583 271.193 455.197 270.931 454.712C270.67 454.214 270.539 453.653 270.539 453.031V449.127ZM271.958 452.919C271.958 453.429 272.108 453.853 272.407 454.189C272.706 454.512 273.085 454.674 273.546 454.674C274.032 454.674 274.418 454.519 274.704 454.207C274.99 453.884 275.134 453.454 275.134 452.919V450.715H271.958V452.919ZM280.139 434.367C280.139 435.188 279.927 435.948 279.504 436.645C279.068 437.33 278.477 437.878 277.73 438.289C276.97 438.7 276.136 438.905 275.227 438.905C274.318 438.905 273.49 438.7 272.743 438.289C271.996 437.878 271.411 437.33 270.987 436.645C270.551 435.948 270.334 435.188 270.334 434.367C270.334 433.645 270.502 432.991 270.838 432.406C271.174 431.808 271.616 431.316 272.164 430.93C272.712 430.544 273.303 430.289 273.938 430.164V431.771C273.328 431.945 272.83 432.256 272.444 432.704C272.046 433.14 271.846 433.694 271.846 434.367C271.846 434.89 271.99 435.375 272.276 435.824C272.562 436.272 272.961 436.633 273.471 436.907C273.982 437.168 274.567 437.299 275.227 437.299C275.887 437.299 276.478 437.168 277.001 436.907C277.512 436.633 277.91 436.278 278.197 435.842C278.483 435.394 278.626 434.902 278.626 434.367C278.626 433.694 278.433 433.14 278.047 432.704C277.649 432.256 277.144 431.945 276.534 431.771V430.164C277.169 430.289 277.761 430.544 278.309 430.93C278.857 431.316 279.299 431.808 279.635 432.406C279.971 432.991 280.139 433.645 280.139 434.367ZM275.003 418.153C275.426 418.153 275.737 418.178 275.937 418.228V425.362C276.783 425.238 277.45 424.914 277.935 424.391C278.421 423.868 278.664 423.221 278.664 422.449C278.664 421.428 278.246 420.656 277.412 420.133V418.471C278.172 418.769 278.819 419.28 279.355 420.002C279.878 420.724 280.139 421.546 280.139 422.467C280.139 423.302 279.927 424.067 279.504 424.765C279.081 425.462 278.495 426.01 277.748 426.408C277.001 426.807 276.161 427.006 275.227 427.006C274.318 427.006 273.49 426.8 272.743 426.39C271.996 425.979 271.411 425.431 270.987 424.746C270.551 424.049 270.334 423.295 270.334 422.486C270.334 421.677 270.539 420.942 270.95 420.282C271.361 419.622 271.921 419.106 272.631 418.732C273.341 418.346 274.131 418.153 275.003 418.153ZM271.809 422.486C271.809 423.208 272.071 423.843 272.594 424.391C273.104 424.927 273.776 425.256 274.611 425.381V419.722C273.789 419.821 273.116 420.127 272.594 420.637C272.071 421.135 271.809 421.751 271.809 422.486ZM280.139 410.218C280.139 411.065 279.934 411.83 279.523 412.515C279.099 413.188 278.458 413.723 277.599 414.122C276.74 414.52 275.681 414.719 274.424 414.719C272.282 414.719 270.589 414.315 269.344 413.505C268.099 412.696 267.345 411.42 267.084 409.676C266.897 408.406 266.741 407.423 266.617 406.725H268.13L268.447 408.556L268.597 409.471C268.783 410.704 269.219 411.588 269.904 412.123C270.576 412.658 271.404 412.988 272.388 413.113V413.02C272.002 412.783 271.647 412.403 271.323 411.88C271 411.357 270.838 410.729 270.838 409.994C270.838 409.247 271.037 408.556 271.436 407.921C271.822 407.286 272.369 406.781 273.079 406.408C273.789 406.022 274.592 405.829 275.488 405.829C276.397 405.829 277.207 406.028 277.916 406.427C278.614 406.813 279.162 407.342 279.56 408.014C279.946 408.674 280.139 409.409 280.139 410.218ZM278.626 410.218C278.626 409.708 278.502 409.241 278.253 408.817C277.991 408.394 277.624 408.058 277.151 407.809C276.678 407.56 276.123 407.435 275.488 407.435C274.853 407.435 274.299 407.56 273.826 407.809C273.341 408.058 272.973 408.394 272.724 408.817C272.463 409.241 272.332 409.708 272.332 410.218C272.332 410.729 272.463 411.202 272.724 411.637C272.973 412.061 273.341 412.397 273.826 412.646C274.299 412.895 274.853 413.02 275.488 413.02C276.123 413.02 276.678 412.895 277.151 412.646C277.624 412.397 277.991 412.061 278.253 411.637C278.502 411.202 278.626 410.729 278.626 410.218ZM270.539 395.303H279.934V396.909H276.572V398.889L279.934 400.944V402.811L276.329 400.495C276.105 401.093 275.744 401.572 275.246 401.933C274.748 402.282 274.181 402.456 273.546 402.456C272.986 402.456 272.475 402.319 272.015 402.045C271.554 401.759 271.193 401.373 270.931 400.888C270.67 400.389 270.539 399.829 270.539 399.207V395.303ZM271.958 399.095C271.958 399.605 272.108 400.028 272.407 400.365C272.706 400.688 273.085 400.85 273.546 400.85C274.032 400.85 274.418 400.695 274.704 400.383C274.99 400.06 275.134 399.63 275.134 399.095V396.891H271.958V399.095Z" fill="white"/>
</g>
<defs>
<clipPath id="clip0_235_8900">
<rect width="480" height="719.066" fill="white"/>
</clipPath>
</defs>
</svg>
