<svg width="481" height="720" viewBox="0 0 481 720" fill="none" xmlns="http://www.w3.org/2000/svg">
<g clip-path="url(#clip0_235_9079)">
<rect x="0.5" y="0.639893" width="480" height="719.066" fill="#C8AE1B"/>
<path d="M-53.5153 299.801C38.9743 299.801 112.865 328.452 168.158 385.756C223.451 442.054 251.097 516.95 251.097 610.445V1080.94H127.443L97.2829 994.981H89.743C68.6313 1022.12 39.4769 1046.25 2.28004 1067.36C-33.9115 1088.48 -79.151 1099.03 -133.438 1099.03C-181.694 1099.03 -225.425 1088.98 -264.633 1068.87C-303.84 1047.76 -334.503 1020.11 -356.62 985.933C-378.737 950.747 -389.796 912.544 -389.796 871.326C-389.796 821.06 -375.218 777.329 -346.064 740.132C-315.904 701.929 -274.183 672.775 -220.901 652.669C-166.614 632.562 -104.787 622.509 -35.4195 622.509H86.7271V596.873C86.7271 551.634 73.6579 515.945 47.5195 489.807C22.3865 462.663 -11.7945 449.091 -55.0233 449.091C-93.2255 449.091 -123.888 459.144 -147.01 479.251C-170.133 498.352 -184.207 521.977 -189.234 550.126H-355.112C-350.085 505.892 -335.508 464.673 -311.38 426.471C-286.247 388.269 -251.564 357.607 -207.33 334.484C-163.095 311.362 -111.824 299.801 -53.5153 299.801ZM-98.7548 958.789C-43.4621 958.789 1.27473 942.201 35.4557 909.026C69.6366 875.85 86.7271 836.14 86.7271 789.895V741.64H-33.9115C-97.2468 741.64 -145 752.196 -177.17 773.307C-208.335 793.414 -223.917 821.563 -223.917 857.754C-223.917 887.914 -213.362 912.544 -192.25 931.645C-170.133 949.741 -138.968 958.789 -98.7548 958.789Z" fill="#0E0E0E"/>
<path d="M425.286 629.207L590.694 876.828H469.523L357.969 702.15L246.416 876.828H129.092L294.499 629.207L139.67 391.184H259.879L361.816 554.345L472.889 374.354L579.154 391.184L425.286 629.207Z" fill="#0E0E0E"/>
<path d="M367.963 553.955C312.973 553.955 262.027 539.803 215.125 511.5C169.031 482.388 132.236 443.168 104.742 393.839C77.2472 344.51 63.4999 290.734 63.4999 232.51C63.4999 173.478 77.2472 119.701 104.742 71.1814C132.236 21.8528 169.031 -16.9632 215.125 -45.2665C262.027 -74.3784 312.973 -88.9344 367.963 -88.9344C416.483 -88.9344 460.959 -77.6131 501.392 -54.9704C541.826 -32.3278 574.981 -2.40715 600.858 34.7915C626.736 71.1814 643.718 109.997 651.804 151.239H518.374C509.479 121.319 492.093 94.6327 466.215 71.1814C440.338 46.9215 407.587 34.7915 367.963 34.7915C336.425 34.7915 307.313 43.2825 280.627 60.2644C254.749 77.2464 234.128 100.698 218.764 130.618C203.399 160.539 195.717 194.503 195.717 232.51C195.717 270.518 203.399 304.482 218.764 334.402C234.128 364.323 254.749 387.774 280.627 404.756C307.313 421.738 336.425 430.229 367.963 430.229C407.587 430.229 440.338 418.503 466.215 395.052C492.093 370.792 509.479 343.702 518.374 313.781H651.804C643.718 355.023 626.736 394.243 600.858 431.442C574.981 467.832 541.826 497.348 501.392 519.991C460.959 542.634 416.483 553.955 367.963 553.955Z" fill="#0E0E0E"/>
<path d="M161.291 611.963H92.7374V357.872H-4.11875V293.721H258.148V357.872H161.291V611.963Z" fill="#0E0E0E"/>
<path d="M226.492 481.93V93.3517H269.542L280.871 125.072H283.703C290.123 116.765 300.885 108.268 315.99 99.5826C331.473 90.8971 349.221 86.5544 369.235 86.5544C392.648 86.5544 414.362 93.1629 434.376 106.38C454.768 119.219 471.006 137.156 483.09 160.192C495.174 182.849 501.216 208.339 501.216 236.661C501.216 264.983 495.174 290.662 483.09 313.697C471.006 336.355 454.768 354.292 434.376 367.509C414.362 380.348 392.648 386.768 369.235 386.768C356.018 386.768 343.557 384.502 331.85 379.971C320.521 375.817 311.081 370.908 303.528 365.243C295.976 359.201 290.878 354.103 288.234 349.949H285.402V481.93H226.492ZM362.438 328.991C376.41 328.991 389.25 325.215 400.956 317.662C412.663 309.732 421.914 298.781 428.712 284.809C435.887 270.459 439.474 254.41 439.474 236.661C439.474 218.913 435.887 203.052 428.712 189.08C421.914 174.73 412.663 163.779 400.956 156.227C389.25 148.296 376.41 144.331 362.438 144.331C348.466 144.331 335.627 148.296 323.92 156.227C312.214 163.779 302.773 174.73 295.598 189.08C288.801 203.052 285.402 218.913 285.402 236.661C285.402 254.41 288.801 270.459 295.598 284.809C302.773 298.781 312.214 309.732 323.92 317.662C335.627 325.215 348.466 328.991 362.438 328.991Z" fill="#0E0E0E"/>
<path d="M169.293 369.41V293.955H210.382V482.967H169.293V407.512H85.2461V482.967H44.1566V293.955H85.2461V369.41H169.293Z" fill="white"/>
<path d="M326.555 642.469L418.446 512.477H454.679V701.488H414.71V572.243L323.193 701.488H286.959V512.477H326.555V642.469Z" fill="white"/>
<path d="M388.935 355.589C401.635 355.589 412.966 358.329 422.927 363.807C433.137 369.286 440.981 376.881 446.46 386.593C452.188 396.056 455.051 406.889 455.051 419.091C455.051 438.017 448.826 453.457 436.374 465.41C424.172 477.115 408.359 482.967 388.935 482.967H305.635V293.955H346.725V355.589H388.935ZM382.958 447.854C392.67 447.854 400.265 445.364 405.744 440.383C411.472 435.154 414.336 428.056 414.336 419.091C414.336 410.375 411.472 403.527 405.744 398.547C400.265 393.317 392.67 390.702 382.958 390.702H346.725V447.854H382.958Z" fill="white"/>
<path d="M87.1133 701.488H46.0238V512.477H174.148V550.578H87.1133V701.488Z" fill="white"/>
<path d="M201.417 180.772H230.927V265.566H191.331V217.753H63.9538V265.566H23.9849V180.772H40.0471C51.0043 172.056 57.23 159.73 58.7242 143.792L68.0627 28.7412H201.417V180.772ZM161.821 180.772V65.7218H104.67L98.3195 143.792C96.5763 161.224 91.8448 173.551 84.125 180.772H161.821Z" fill="white"/>
<path d="M453.932 119.138C453.932 127.107 453.185 133.831 451.69 139.309H311.613C314.103 153.504 320.08 164.71 329.543 172.928C339.006 181.146 350.461 185.255 363.908 185.255C373.62 185.255 381.838 183.387 388.562 179.652C395.286 175.916 400.64 171.185 404.624 165.457H447.208C443.473 174.92 437.62 184.01 429.652 192.726C421.932 201.442 412.344 208.539 400.889 214.018C389.683 219.496 377.48 222.235 364.282 222.235C347.099 222.235 331.286 217.877 316.842 209.161C302.648 200.446 291.317 188.617 282.85 173.675C274.632 158.484 270.523 141.675 270.523 123.247C270.523 105.068 274.757 88.5078 283.224 73.5662C291.69 58.3755 303.021 46.4222 317.216 37.7062C331.659 28.7412 347.224 24.2588 363.908 24.2588C380.593 24.2588 395.784 28.4922 409.48 36.9591C423.177 45.177 434.01 56.5078 441.978 70.9514C449.947 85.3949 453.932 101.457 453.932 119.138ZM363.908 61.2393C350.959 61.2393 339.628 65.5973 329.916 74.3132C320.204 82.7802 314.103 94.1109 311.613 108.305H413.963C411.722 94.3599 405.994 83.0292 396.78 74.3132C387.566 65.5973 376.609 61.2393 363.908 61.2393Z" fill="white"/>
<path d="M118.67 594.64C119.068 594.802 119.411 595.076 119.697 595.462C119.996 595.848 120.145 596.327 120.145 596.9C120.145 597.398 120.008 597.865 119.734 598.301C119.461 598.724 119.056 599.067 118.52 599.328C117.998 599.577 117.375 599.702 116.653 599.702C115.545 599.702 114.667 599.415 114.019 598.842C113.384 598.257 113.023 597.523 112.936 596.639H114.524C114.561 597.124 114.754 597.516 115.103 597.815C115.451 598.114 115.955 598.263 116.615 598.263C117.25 598.263 117.73 598.139 118.054 597.89C118.39 597.628 118.558 597.274 118.558 596.825C118.558 596.377 118.396 596.016 118.072 595.742C117.748 595.468 117.288 595.331 116.69 595.331H115.626V594.024H116.634C117.182 594.024 117.599 593.905 117.885 593.669C118.184 593.432 118.334 593.127 118.334 592.754C118.334 592.355 118.172 592.019 117.848 591.745C117.537 591.471 117.113 591.334 116.578 591.334C116.018 591.334 115.576 591.477 115.252 591.764C114.941 592.038 114.754 592.399 114.692 592.847H113.123C113.198 592 113.54 591.297 114.15 590.737C114.773 590.176 115.613 589.896 116.671 589.896C117.319 589.896 117.885 590.027 118.371 590.288C118.869 590.537 119.249 590.88 119.51 591.316C119.784 591.739 119.921 592.2 119.921 592.698C119.921 593.196 119.797 593.6 119.548 593.912C119.299 594.223 119.006 594.466 118.67 594.64ZM127.361 589.896C128.071 589.896 128.7 590.052 129.248 590.363C129.796 590.662 130.219 591.091 130.518 591.652C130.829 592.2 130.985 592.828 130.985 593.538V599.496H129.771L129.435 598.319H129.341C129.092 598.668 128.731 598.986 128.258 599.272C127.785 599.558 127.206 599.702 126.521 599.702C125.898 599.702 125.351 599.577 124.877 599.328C124.404 599.079 124.037 598.743 123.775 598.319C123.514 597.884 123.383 597.404 123.383 596.881C123.383 596.296 123.558 595.779 123.906 595.331C124.267 594.87 124.765 594.516 125.4 594.267C126.048 594.017 126.782 593.893 127.604 593.893H129.36V593.463C129.36 592.828 129.173 592.324 128.8 591.951C128.438 591.565 127.959 591.372 127.361 591.372C126.801 591.372 126.359 591.515 126.035 591.801C125.712 592.088 125.506 592.455 125.419 592.903H123.794C123.856 592.368 124.037 591.87 124.336 591.409C124.647 590.948 125.064 590.581 125.587 590.307C126.11 590.033 126.702 589.896 127.361 589.896ZM126.782 598.282C127.554 598.282 128.177 598.058 128.65 597.61C129.123 597.149 129.36 596.576 129.36 595.891V595.182H127.716C126.845 595.182 126.172 595.325 125.699 595.611C125.226 595.898 124.989 596.296 124.989 596.807C124.989 597.255 125.145 597.616 125.456 597.89C125.768 598.151 126.21 598.282 126.782 598.282ZM135.297 602.858V590.102H136.492L136.847 591.278H136.94C137.164 590.979 137.532 590.674 138.042 590.363C138.565 590.052 139.163 589.896 139.835 589.896C140.62 589.896 141.342 590.108 142.002 590.531C142.662 590.942 143.184 591.521 143.57 592.268C143.969 593.015 144.168 593.856 144.168 594.789C144.168 595.723 143.969 596.564 143.57 597.311C143.184 598.058 142.662 598.643 142.002 599.067C141.342 599.49 140.62 599.702 139.835 599.702C139.188 599.702 138.602 599.552 138.079 599.253C137.556 598.942 137.195 598.643 136.996 598.357H136.903V602.858H135.297ZM139.742 598.189C140.252 598.189 140.719 598.046 141.142 597.759C141.578 597.473 141.921 597.074 142.17 596.564C142.431 596.041 142.562 595.449 142.562 594.789C142.562 594.13 142.431 593.544 142.17 593.034C141.921 592.523 141.578 592.125 141.142 591.839C140.719 591.552 140.252 591.409 139.742 591.409C139.231 591.409 138.758 591.552 138.322 591.839C137.886 592.125 137.538 592.523 137.276 593.034C137.027 593.544 136.903 594.13 136.903 594.789C136.903 595.449 137.027 596.041 137.276 596.564C137.538 597.074 137.886 597.473 138.322 597.759C138.758 598.046 139.231 598.189 139.742 598.189ZM151.379 589.896C152.089 589.896 152.717 590.052 153.265 590.363C153.813 590.662 154.237 591.091 154.535 591.652C154.847 592.2 155.002 592.828 155.002 593.538V599.496H153.788L153.452 598.319H153.359C153.11 598.668 152.749 598.986 152.275 599.272C151.802 599.558 151.223 599.702 150.538 599.702C149.916 599.702 149.368 599.577 148.895 599.328C148.422 599.079 148.054 598.743 147.793 598.319C147.531 597.884 147.401 597.404 147.401 596.881C147.401 596.296 147.575 595.779 147.924 595.331C148.285 594.87 148.783 594.516 149.418 594.267C150.065 594.017 150.8 593.893 151.622 593.893H153.377V593.463C153.377 592.828 153.191 592.324 152.817 591.951C152.456 591.565 151.977 591.372 151.379 591.372C150.819 591.372 150.377 591.515 150.053 591.801C149.729 592.088 149.524 592.455 149.437 592.903H147.812C147.874 592.368 148.054 591.87 148.353 591.409C148.665 590.948 149.082 590.581 149.605 590.307C150.128 590.033 150.719 589.896 151.379 589.896ZM150.8 598.282C151.572 598.282 152.195 598.058 152.668 597.61C153.141 597.149 153.377 596.576 153.377 595.891V595.182H151.734C150.862 595.182 150.19 595.325 149.717 595.611C149.244 595.898 149.007 596.296 149.007 596.807C149.007 597.255 149.163 597.616 149.474 597.89C149.785 598.151 150.227 598.282 150.8 598.282ZM163.423 599.702C162.576 599.702 161.811 599.496 161.126 599.085C160.453 598.662 159.918 598.021 159.52 597.161C159.121 596.302 158.922 595.244 158.922 593.986C158.922 591.845 159.327 590.151 160.136 588.906C160.945 587.661 162.221 586.908 163.965 586.646C165.235 586.46 166.218 586.304 166.916 586.179V587.692L165.085 588.01L164.17 588.159C162.937 588.346 162.053 588.782 161.518 589.467C160.983 590.139 160.653 590.967 160.528 591.951H160.621C160.858 591.565 161.238 591.21 161.761 590.886C162.284 590.562 162.913 590.4 163.647 590.4C164.394 590.4 165.085 590.6 165.72 590.998C166.355 591.384 166.86 591.932 167.233 592.642C167.619 593.351 167.812 594.154 167.812 595.051C167.812 595.96 167.613 596.769 167.214 597.479C166.828 598.176 166.299 598.724 165.627 599.123C164.967 599.509 164.232 599.702 163.423 599.702ZM163.423 598.189C163.934 598.189 164.4 598.064 164.824 597.815C165.247 597.554 165.583 597.186 165.832 596.713C166.081 596.24 166.206 595.686 166.206 595.051C166.206 594.416 166.081 593.862 165.832 593.389C165.583 592.903 165.247 592.536 164.824 592.287C164.4 592.025 163.934 591.895 163.423 591.895C162.913 591.895 162.439 592.025 162.004 592.287C161.58 592.536 161.244 592.903 160.995 593.389C160.746 593.862 160.621 594.416 160.621 595.051C160.621 595.686 160.746 596.24 160.995 596.713C161.244 597.186 161.58 597.554 162.004 597.815C162.439 598.064 162.913 598.189 163.423 598.189ZM175.592 599.702C174.771 599.702 174.011 599.49 173.314 599.067C172.629 598.631 172.081 598.039 171.67 597.292C171.259 596.533 171.054 595.698 171.054 594.789C171.054 593.881 171.259 593.053 171.67 592.305C172.081 591.558 172.629 590.973 173.314 590.55C174.011 590.114 174.771 589.896 175.592 589.896C176.402 589.896 177.155 590.114 177.852 590.55C178.55 590.973 179.104 591.558 179.515 592.305C179.925 593.053 180.131 593.881 180.131 594.789C180.131 595.698 179.925 596.533 179.515 597.292C179.104 598.039 178.55 598.631 177.852 599.067C177.155 599.49 176.402 599.702 175.592 599.702ZM175.592 598.189C176.115 598.189 176.601 598.046 177.049 597.759C177.497 597.473 177.852 597.074 178.114 596.564C178.375 596.041 178.506 595.449 178.506 594.789C178.506 594.13 178.375 593.544 178.114 593.034C177.852 592.523 177.497 592.125 177.049 591.839C176.601 591.552 176.115 591.409 175.592 591.409C175.069 591.409 174.584 591.552 174.136 591.839C173.687 592.125 173.326 592.523 173.052 593.034C172.791 593.544 172.66 594.13 172.66 594.789C172.66 595.449 172.791 596.041 173.052 596.564C173.326 597.074 173.681 597.473 174.117 597.759C174.565 598.046 175.057 598.189 175.592 598.189ZM187.117 599.496H185.492V591.614H182.56V590.102H190.05V591.614H187.117V599.496ZM196.459 589.896C197.169 589.896 197.798 590.052 198.346 590.363C198.893 590.662 199.317 591.091 199.616 591.652C199.927 592.2 200.083 592.828 200.083 593.538V599.496H198.869L198.532 598.319H198.439C198.19 598.668 197.829 598.986 197.356 599.272C196.883 599.558 196.304 599.702 195.619 599.702C194.996 599.702 194.448 599.577 193.975 599.328C193.502 599.079 193.135 598.743 192.873 598.319C192.612 597.884 192.481 597.404 192.481 596.881C192.481 596.296 192.655 595.779 193.004 595.331C193.365 594.87 193.863 594.516 194.498 594.267C195.146 594.017 195.88 593.893 196.702 593.893H198.458V593.463C198.458 592.828 198.271 592.324 197.897 591.951C197.536 591.565 197.057 591.372 196.459 591.372C195.899 591.372 195.457 591.515 195.133 591.801C194.809 592.088 194.604 592.455 194.517 592.903H192.892C192.954 592.368 193.135 591.87 193.434 591.409C193.745 590.948 194.162 590.581 194.685 590.307C195.208 590.033 195.799 589.896 196.459 589.896ZM195.88 598.282C196.652 598.282 197.275 598.058 197.748 597.61C198.221 597.149 198.458 596.576 198.458 595.891V595.182H196.814C195.942 595.182 195.27 595.325 194.797 595.611C194.324 595.898 194.087 596.296 194.087 596.807C194.087 597.255 194.243 597.616 194.554 597.89C194.865 598.151 195.307 598.282 195.88 598.282ZM205.982 596.993L211.006 590.102H212.425V599.496H210.838V592.604L205.814 599.496H204.394V590.102H205.982V596.993ZM208.522 588.869C207.725 588.869 207.084 588.639 206.598 588.178C206.125 587.717 205.864 587.138 205.814 586.441H207.065C207.102 586.839 207.239 587.157 207.476 587.393C207.725 587.617 208.074 587.73 208.522 587.73C208.958 587.73 209.294 587.617 209.531 587.393C209.78 587.157 209.929 586.839 209.979 586.441H211.211C211.174 587.126 210.913 587.705 210.427 588.178C209.941 588.639 209.306 588.869 208.522 588.869ZM217.401 597.442C217.725 597.442 217.993 597.56 218.204 597.796C218.428 598.033 218.54 598.344 218.54 598.73C218.54 599.428 218.354 600.069 217.98 600.654C217.619 601.252 217.233 601.737 216.822 602.111L216.467 601.625C216.953 600.99 217.233 600.349 217.308 599.702C217.009 599.677 216.76 599.558 216.561 599.347C216.374 599.123 216.281 598.861 216.281 598.562C216.281 598.251 216.386 597.989 216.598 597.778C216.822 597.554 217.09 597.442 217.401 597.442ZM120.164 615.024V611.102H121.789V620.496H120.164V616.537H115.439V620.496H113.833V611.102H115.439V615.024H120.164ZM134.462 615.565C134.462 615.989 134.437 616.3 134.387 616.499H127.252C127.377 617.346 127.701 618.012 128.224 618.498C128.747 618.983 129.394 619.226 130.166 619.226C131.187 619.226 131.959 618.809 132.482 617.975H134.144C133.845 618.734 133.335 619.382 132.613 619.917C131.891 620.44 131.069 620.702 130.147 620.702C129.313 620.702 128.547 620.49 127.85 620.067C127.153 619.643 126.605 619.058 126.207 618.311C125.808 617.564 125.609 616.723 125.609 615.789C125.609 614.881 125.814 614.053 126.225 613.305C126.636 612.558 127.184 611.973 127.869 611.55C128.566 611.114 129.319 610.896 130.129 610.896C130.938 610.896 131.673 611.102 132.333 611.512C132.993 611.923 133.509 612.484 133.883 613.193C134.269 613.903 134.462 614.694 134.462 615.565ZM130.129 612.372C129.407 612.372 128.771 612.633 128.224 613.156C127.688 613.667 127.358 614.339 127.234 615.173H132.893C132.793 614.351 132.488 613.679 131.978 613.156C131.48 612.633 130.863 612.372 130.129 612.372ZM148.638 620.702C147.817 620.702 147.057 620.49 146.36 620.067C145.675 619.631 145.127 619.039 144.716 618.292C144.305 617.533 144.1 616.698 144.1 615.789C144.1 614.881 144.305 614.053 144.716 613.305C145.127 612.558 145.675 611.973 146.36 611.55C147.057 611.114 147.817 610.896 148.638 610.896C149.361 610.896 150.014 611.064 150.599 611.4C151.197 611.737 151.689 612.179 152.075 612.726C152.461 613.274 152.716 613.866 152.841 614.501H151.234C151.06 613.891 150.749 613.393 150.301 613.007C149.865 612.608 149.311 612.409 148.638 612.409C148.115 612.409 147.63 612.552 147.182 612.839C146.733 613.125 146.372 613.523 146.098 614.034C145.837 614.544 145.706 615.13 145.706 615.789C145.706 616.449 145.837 617.041 146.098 617.564C146.372 618.074 146.727 618.473 147.163 618.759C147.611 619.046 148.103 619.189 148.638 619.189C149.311 619.189 149.865 618.996 150.301 618.61C150.749 618.211 151.06 617.707 151.234 617.097H152.841C152.716 617.732 152.461 618.323 152.075 618.871C151.689 619.419 151.197 619.861 150.599 620.197C150.014 620.533 149.361 620.702 148.638 620.702ZM159.762 620.496H158.137V612.614H155.205V611.102H162.694V612.614H159.762V620.496ZM166.088 623.858V611.102H167.283L167.638 612.278H167.732C167.956 611.979 168.323 611.674 168.834 611.363C169.357 611.052 169.954 610.896 170.627 610.896C171.411 610.896 172.133 611.108 172.793 611.531C173.453 611.942 173.976 612.521 174.362 613.268C174.761 614.015 174.96 614.856 174.96 615.789C174.96 616.723 174.761 617.564 174.362 618.311C173.976 619.058 173.453 619.643 172.793 620.067C172.133 620.49 171.411 620.702 170.627 620.702C169.979 620.702 169.394 620.552 168.871 620.253C168.348 619.942 167.987 619.643 167.788 619.357H167.694V623.858H166.088ZM170.533 619.189C171.044 619.189 171.511 619.046 171.934 618.759C172.37 618.473 172.712 618.074 172.961 617.564C173.223 617.041 173.354 616.449 173.354 615.789C173.354 615.13 173.223 614.544 172.961 614.034C172.712 613.523 172.37 613.125 171.934 612.839C171.511 612.552 171.044 612.409 170.533 612.409C170.023 612.409 169.55 612.552 169.114 612.839C168.678 613.125 168.329 613.523 168.068 614.034C167.819 614.544 167.694 615.13 167.694 615.789C167.694 616.449 167.819 617.041 168.068 617.564C168.329 618.074 168.678 618.473 169.114 618.759C169.55 619.046 170.023 619.189 170.533 619.189ZM188.726 618.983V611.102H190.332V620.496H178.79V611.102H180.396V618.983H183.758V611.102H185.364V618.983H188.726ZM198.137 610.896C198.847 610.896 199.476 611.052 200.024 611.363C200.571 611.662 200.995 612.091 201.294 612.652C201.605 613.2 201.761 613.828 201.761 614.538V620.496H200.547L200.21 619.319H200.117C199.868 619.668 199.507 619.986 199.034 620.272C198.561 620.558 197.982 620.702 197.297 620.702C196.674 620.702 196.126 620.577 195.653 620.328C195.18 620.079 194.813 619.743 194.551 619.319C194.29 618.884 194.159 618.404 194.159 617.881C194.159 617.296 194.333 616.779 194.682 616.331C195.043 615.87 195.541 615.516 196.176 615.267C196.824 615.017 197.558 614.893 198.38 614.893H200.136V614.463C200.136 613.828 199.949 613.324 199.575 612.951C199.214 612.565 198.735 612.372 198.137 612.372C197.577 612.372 197.135 612.515 196.811 612.801C196.487 613.088 196.282 613.455 196.195 613.903H194.57C194.632 613.368 194.813 612.87 195.112 612.409C195.423 611.948 195.84 611.581 196.363 611.307C196.886 611.033 197.477 610.896 198.137 610.896ZM197.558 619.282C198.33 619.282 198.953 619.058 199.426 618.61C199.899 618.149 200.136 617.576 200.136 616.891V616.182H198.492C197.62 616.182 196.948 616.325 196.475 616.611C196.002 616.898 195.765 617.296 195.765 617.807C195.765 618.255 195.921 618.616 196.232 618.89C196.543 619.151 196.985 619.282 197.558 619.282ZM210.032 620.702C209.21 620.702 208.451 620.49 207.753 620.067C207.068 619.631 206.521 619.039 206.11 618.292C205.699 617.533 205.493 616.698 205.493 615.789C205.493 614.881 205.699 614.053 206.11 613.305C206.521 612.558 207.068 611.973 207.753 611.55C208.451 611.114 209.21 610.896 210.032 610.896C210.754 610.896 211.408 611.064 211.993 611.4C212.591 611.737 213.082 612.179 213.468 612.726C213.854 613.274 214.11 613.866 214.234 614.501H212.628C212.454 613.891 212.142 613.393 211.694 613.007C211.258 612.608 210.704 612.409 210.032 612.409C209.509 612.409 209.023 612.552 208.575 612.839C208.127 613.125 207.766 613.523 207.492 614.034C207.23 614.544 207.1 615.13 207.1 615.789C207.1 616.449 207.23 617.041 207.492 617.564C207.766 618.074 208.121 618.473 208.556 618.759C209.005 619.046 209.496 619.189 210.032 619.189C210.704 619.189 211.258 618.996 211.694 618.61C212.142 618.211 212.454 617.707 212.628 617.097H214.234C214.11 617.732 213.854 618.323 213.468 618.871C213.082 619.419 212.591 619.861 211.993 620.197C211.408 620.533 210.754 620.702 210.032 620.702ZM221.819 614.37C222.79 614.37 223.575 614.656 224.172 615.229C224.77 615.789 225.069 616.524 225.069 617.433C225.069 618.342 224.77 619.083 224.172 619.656C223.575 620.216 222.79 620.496 221.819 620.496H217.972V611.102H219.578V614.37H221.819ZM221.67 619.058C222.23 619.058 222.666 618.915 222.977 618.628C223.301 618.342 223.463 617.944 223.463 617.433C223.463 616.923 223.301 616.524 222.977 616.238C222.666 615.939 222.23 615.789 221.67 615.789H219.578V619.058H221.67ZM115.439 641.496H113.833V632.102H121.621V641.496H120.015V633.614H115.439V641.496ZM129.983 641.702C129.161 641.702 128.402 641.49 127.705 641.067C127.02 640.631 126.472 640.039 126.061 639.292C125.65 638.533 125.445 637.698 125.445 636.789C125.445 635.881 125.65 635.053 126.061 634.305C126.472 633.558 127.02 632.973 127.705 632.55C128.402 632.114 129.161 631.896 129.983 631.896C130.793 631.896 131.546 632.114 132.243 632.55C132.94 632.973 133.495 633.558 133.905 634.305C134.316 635.053 134.522 635.881 134.522 636.789C134.522 637.698 134.316 638.533 133.905 639.292C133.495 640.039 132.94 640.631 132.243 641.067C131.546 641.49 130.793 641.702 129.983 641.702ZM129.983 640.189C130.506 640.189 130.992 640.046 131.44 639.759C131.888 639.473 132.243 639.074 132.505 638.564C132.766 638.041 132.897 637.449 132.897 636.789C132.897 636.13 132.766 635.544 132.505 635.034C132.243 634.523 131.888 634.125 131.44 633.839C130.992 633.552 130.506 633.409 129.983 633.409C129.46 633.409 128.975 633.552 128.526 633.839C128.078 634.125 127.717 634.523 127.443 635.034C127.182 635.544 127.051 636.13 127.051 636.789C127.051 637.449 127.182 638.041 127.443 638.564C127.717 639.074 128.072 639.473 128.508 639.759C128.956 640.046 129.448 640.189 129.983 640.189ZM141.508 641.496H139.883V633.614H136.951V632.102H144.44V633.614H141.508V641.496ZM155.743 636.565C155.743 636.989 155.718 637.3 155.669 637.499H148.534C148.659 638.346 148.982 639.012 149.505 639.498C150.028 639.983 150.676 640.226 151.448 640.226C152.469 640.226 153.241 639.809 153.764 638.975H155.426C155.127 639.734 154.617 640.382 153.894 640.917C153.172 641.44 152.35 641.702 151.429 641.702C150.595 641.702 149.829 641.49 149.132 641.067C148.434 640.643 147.887 640.058 147.488 639.311C147.09 638.564 146.89 637.723 146.89 636.789C146.89 635.881 147.096 635.053 147.507 634.305C147.918 633.558 148.466 632.973 149.15 632.55C149.848 632.114 150.601 631.896 151.41 631.896C152.22 631.896 152.954 632.102 153.614 632.512C154.274 632.923 154.791 633.484 155.164 634.193C155.55 634.903 155.743 635.694 155.743 636.565ZM151.41 633.372C150.688 633.372 150.053 633.633 149.505 634.156C148.97 634.667 148.64 635.339 148.515 636.173H154.175C154.075 635.351 153.77 634.679 153.259 634.156C152.761 633.633 152.145 633.372 151.41 633.372ZM159.569 644.858V632.102H160.765L161.12 633.278H161.213C161.437 632.979 161.804 632.674 162.315 632.363C162.838 632.052 163.436 631.896 164.108 631.896C164.892 631.896 165.615 632.108 166.274 632.531C166.934 632.942 167.457 633.521 167.843 634.268C168.242 635.015 168.441 635.856 168.441 636.789C168.441 637.723 168.242 638.564 167.843 639.311C167.457 640.058 166.934 640.643 166.274 641.067C165.615 641.49 164.892 641.702 164.108 641.702C163.46 641.702 162.875 641.552 162.352 641.253C161.829 640.942 161.468 640.643 161.269 640.357H161.176V644.858H159.569ZM164.015 640.189C164.525 640.189 164.992 640.046 165.415 639.759C165.851 639.473 166.194 639.074 166.443 638.564C166.704 638.041 166.835 637.449 166.835 636.789C166.835 636.13 166.704 635.544 166.443 635.034C166.194 634.523 165.851 634.125 165.415 633.839C164.992 633.552 164.525 633.409 164.015 633.409C163.504 633.409 163.031 633.552 162.595 633.839C162.159 634.125 161.811 634.523 161.549 635.034C161.3 635.544 161.176 636.13 161.176 636.789C161.176 637.449 161.3 638.041 161.549 638.564C161.811 639.074 162.159 639.473 162.595 639.759C163.031 640.046 163.504 640.189 164.015 640.189ZM176.119 635.37C177.09 635.37 177.874 635.656 178.472 636.229C179.07 636.789 179.369 637.524 179.369 638.433C179.369 639.342 179.07 640.083 178.472 640.656C177.874 641.216 177.09 641.496 176.119 641.496H172.271V632.102H173.877V635.37H176.119ZM175.969 640.058C176.53 640.058 176.965 639.915 177.277 639.628C177.6 639.342 177.762 638.944 177.762 638.433C177.762 637.923 177.6 637.524 177.277 637.238C176.965 636.939 176.53 636.789 175.969 636.789H173.877V640.058H175.969Z" fill="white"/>
<path d="M238.841 453.988C239.003 453.589 239.277 453.247 239.663 452.961C240.049 452.662 240.528 452.512 241.101 452.512C241.599 452.512 242.066 452.649 242.502 452.923C242.925 453.197 243.268 453.602 243.529 454.137C243.778 454.66 243.903 455.283 243.903 456.005C243.903 457.113 243.616 457.991 243.044 458.638C242.458 459.273 241.724 459.635 240.84 459.722V458.134C241.325 458.097 241.717 457.904 242.016 457.555C242.315 457.206 242.465 456.702 242.465 456.042C242.465 455.407 242.34 454.928 242.091 454.604C241.83 454.268 241.475 454.1 241.026 454.1C240.578 454.1 240.217 454.262 239.943 454.585C239.669 454.909 239.532 455.37 239.532 455.968V457.032H238.225V456.024C238.225 455.476 238.107 455.059 237.87 454.772C237.633 454.473 237.328 454.324 236.955 454.324C236.556 454.324 236.22 454.486 235.946 454.81C235.672 455.121 235.535 455.544 235.535 456.08C235.535 456.64 235.679 457.082 235.965 457.406C236.239 457.717 236.6 457.904 237.048 457.966V459.535C236.202 459.46 235.498 459.118 234.938 458.508C234.377 457.885 234.097 457.045 234.097 455.986C234.097 455.339 234.228 454.772 234.489 454.287C234.739 453.789 235.081 453.409 235.517 453.147C235.94 452.873 236.401 452.736 236.899 452.736C237.397 452.736 237.802 452.861 238.113 453.11C238.424 453.359 238.667 453.652 238.841 453.988ZM242.222 441.388V439.932H246.088V441.519H243.697V448.411H246.088V449.999H242.222V449.233C241.774 448.623 241.101 448.286 240.205 448.224L234.303 447.72V441.388H242.222ZM242.222 442.976H235.778V446.244L240.205 446.637C241.139 446.724 241.811 446.979 242.222 447.402V442.976ZM238.767 428.157C239.19 428.157 239.501 428.182 239.7 428.232V435.366C240.547 435.242 241.213 434.918 241.699 434.395C242.184 433.872 242.427 433.225 242.427 432.453C242.427 431.432 242.01 430.66 241.176 430.137V428.475C241.935 428.773 242.583 429.284 243.118 430.006C243.641 430.728 243.903 431.55 243.903 432.471C243.903 433.306 243.691 434.071 243.268 434.769C242.844 435.466 242.259 436.014 241.512 436.412C240.765 436.811 239.925 437.01 238.991 437.01C238.082 437.01 237.254 436.805 236.507 436.394C235.76 435.983 235.174 435.435 234.751 434.75C234.315 434.053 234.097 433.299 234.097 432.49C234.097 431.681 234.303 430.946 234.714 430.286C235.125 429.626 235.685 429.11 236.395 428.736C237.104 428.35 237.895 428.157 238.767 428.157ZM235.573 432.49C235.573 433.212 235.834 433.847 236.357 434.395C236.868 434.931 237.54 435.261 238.374 435.385V429.726C237.553 429.826 236.88 430.131 236.357 430.641C235.834 431.139 235.573 431.755 235.573 432.49ZM243.903 420.371C243.903 421.193 243.691 421.953 243.268 422.65C242.832 423.335 242.24 423.883 241.493 424.294C240.734 424.705 239.9 424.91 238.991 424.91C238.082 424.91 237.254 424.705 236.507 424.294C235.76 423.883 235.174 423.335 234.751 422.65C234.315 421.953 234.097 421.193 234.097 420.371C234.097 419.649 234.265 418.996 234.602 418.41C234.938 417.813 235.38 417.321 235.928 416.935C236.475 416.549 237.067 416.294 237.702 416.169V417.775C237.092 417.95 236.594 418.261 236.208 418.709C235.809 419.145 235.61 419.699 235.61 420.371C235.61 420.894 235.753 421.38 236.04 421.828C236.326 422.277 236.725 422.638 237.235 422.912C237.746 423.173 238.331 423.304 238.991 423.304C239.651 423.304 240.242 423.173 240.765 422.912C241.275 422.638 241.674 422.283 241.96 421.847C242.247 421.399 242.39 420.907 242.39 420.371C242.39 419.699 242.197 419.145 241.811 418.709C241.412 418.261 240.908 417.95 240.298 417.775V416.169C240.933 416.294 241.525 416.549 242.072 416.935C242.62 417.321 243.062 417.813 243.398 418.41C243.735 418.996 243.903 419.649 243.903 420.371ZM237.571 408.584C237.571 407.613 237.858 406.829 238.43 406.231C238.991 405.633 239.725 405.334 240.634 405.334C241.543 405.334 242.284 405.633 242.857 406.231C243.417 406.829 243.697 407.613 243.697 408.584V412.432H234.303V410.825H237.571V408.584ZM242.259 408.734C242.259 408.173 242.116 407.738 241.83 407.426C241.543 407.103 241.145 406.941 240.634 406.941C240.124 406.941 239.725 407.103 239.439 407.426C239.14 407.738 238.991 408.173 238.991 408.734V410.825H242.259V408.734ZM243.903 391.951C243.903 392.773 243.691 393.532 243.268 394.23C242.832 394.914 242.24 395.462 241.493 395.873C240.734 396.284 239.9 396.49 238.991 396.49C238.082 396.49 237.254 396.284 236.507 395.873C235.76 395.462 235.174 394.914 234.751 394.23C234.315 393.532 234.097 392.773 234.097 391.951C234.097 391.142 234.315 390.388 234.751 389.691C235.174 388.994 235.76 388.44 236.507 388.029C237.254 387.618 238.082 387.412 238.991 387.412C239.9 387.412 240.734 387.618 241.493 388.029C242.24 388.44 242.832 388.994 243.268 389.691C243.691 390.388 243.903 391.142 243.903 391.951ZM242.39 391.951C242.39 391.428 242.247 390.942 241.96 390.494C241.674 390.046 241.275 389.691 240.765 389.43C240.242 389.168 239.651 389.037 238.991 389.037C238.331 389.037 237.746 389.168 237.235 389.43C236.725 389.691 236.326 390.046 236.04 390.494C235.753 390.942 235.61 391.428 235.61 391.951C235.61 392.474 235.753 392.96 236.04 393.408C236.326 393.856 236.725 394.217 237.235 394.491C237.746 394.753 238.331 394.883 238.991 394.883C239.651 394.883 240.242 394.753 240.765 394.491C241.275 394.217 241.674 393.862 241.96 393.426C242.247 392.978 242.39 392.486 242.39 391.951ZM243.903 379.501C243.903 380.348 243.697 381.113 243.286 381.798C242.863 382.471 242.222 383.006 241.363 383.405C240.503 383.803 239.445 384.002 238.188 384.002C236.046 384.002 234.353 383.597 233.107 382.788C231.862 381.979 231.109 380.703 230.847 378.959C230.661 377.689 230.505 376.706 230.381 376.008H231.893L232.211 377.839L232.36 378.754C232.547 379.987 232.983 380.871 233.668 381.406C234.34 381.941 235.168 382.271 236.152 382.396V382.303C235.766 382.066 235.411 381.686 235.087 381.163C234.763 380.64 234.602 380.012 234.602 379.277C234.602 378.53 234.801 377.839 235.199 377.204C235.585 376.569 236.133 376.064 236.843 375.691C237.553 375.305 238.356 375.112 239.252 375.112C240.161 375.112 240.97 375.311 241.68 375.71C242.377 376.096 242.925 376.625 243.324 377.297C243.71 377.957 243.903 378.692 243.903 379.501ZM242.39 379.501C242.39 378.99 242.265 378.524 242.016 378.1C241.755 377.677 241.388 377.341 240.914 377.092C240.441 376.843 239.887 376.718 239.252 376.718C238.617 376.718 238.063 376.843 237.59 377.092C237.104 377.341 236.737 377.677 236.488 378.1C236.226 378.524 236.096 378.99 236.096 379.501C236.096 380.012 236.226 380.485 236.488 380.92C236.737 381.344 237.104 381.68 237.59 381.929C238.063 382.178 238.617 382.303 239.252 382.303C239.887 382.303 240.441 382.178 240.914 381.929C241.388 381.68 241.755 381.344 242.016 380.92C242.265 380.485 242.39 380.012 242.39 379.501ZM241.195 369.704L234.303 364.679V363.26H243.697V364.848H236.805L243.697 369.872V371.291H234.303V369.704H241.195ZM243.697 355.296V356.921H235.816V359.853H234.303V352.364H235.816V355.296H243.697ZM234.097 345.954C234.097 345.244 234.253 344.616 234.564 344.068C234.863 343.52 235.293 343.097 235.853 342.798C236.401 342.486 237.03 342.331 237.739 342.331H243.697V343.545L242.521 343.881V343.974C242.869 344.223 243.187 344.584 243.473 345.058C243.76 345.531 243.903 346.11 243.903 346.795C243.903 347.417 243.778 347.965 243.529 348.438C243.28 348.911 242.944 349.279 242.521 349.54C242.085 349.802 241.605 349.932 241.082 349.932C240.497 349.932 239.981 349.758 239.532 349.409C239.072 349.048 238.717 348.55 238.468 347.915C238.219 347.268 238.094 346.533 238.094 345.711V343.956H237.665C237.03 343.956 236.525 344.142 236.152 344.516C235.766 344.877 235.573 345.356 235.573 345.954C235.573 346.514 235.716 346.956 236.002 347.28C236.289 347.604 236.656 347.809 237.104 347.897V349.521C236.569 349.459 236.071 349.279 235.61 348.98C235.149 348.669 234.782 348.251 234.508 347.728C234.234 347.205 234.097 346.614 234.097 345.954ZM242.483 346.533C242.483 345.761 242.259 345.139 241.811 344.665C241.35 344.192 240.777 343.956 240.093 343.956H239.383V345.599C239.383 346.471 239.526 347.143 239.812 347.616C240.099 348.09 240.497 348.326 241.008 348.326C241.456 348.326 241.817 348.17 242.091 347.859C242.353 347.548 242.483 347.106 242.483 346.533ZM234.097 330.791C234.097 330.007 234.303 329.284 234.714 328.624C235.125 327.965 235.703 327.448 236.451 327.074C237.185 326.688 238.032 326.495 238.991 326.495C239.949 326.495 240.802 326.688 241.549 327.074C242.296 327.448 242.875 327.965 243.286 328.624C243.697 329.284 243.903 330.007 243.903 330.791C243.903 331.501 243.728 332.167 243.38 332.789C243.031 333.4 242.539 333.904 241.904 334.302C241.269 334.701 240.541 334.95 239.719 335.049V336.413H243.697V338.019H234.303V336.413H238.281V335.049C237.447 334.962 236.718 334.719 236.096 334.321C235.461 333.922 234.969 333.418 234.62 332.808C234.272 332.186 234.097 331.513 234.097 330.791ZM242.409 330.791C242.409 330.305 242.272 329.857 241.998 329.446C241.724 329.023 241.332 328.693 240.821 328.456C240.298 328.207 239.688 328.083 238.991 328.083C238.306 328.083 237.708 328.207 237.198 328.456C236.675 328.693 236.276 329.023 236.002 329.446C235.728 329.857 235.591 330.305 235.591 330.791C235.591 331.277 235.735 331.725 236.021 332.136C236.295 332.547 236.687 332.877 237.198 333.126C237.708 333.362 238.306 333.48 238.991 333.48C239.688 333.48 240.298 333.362 240.821 333.126C241.332 332.877 241.724 332.547 241.998 332.136C242.272 331.725 242.409 331.277 242.409 330.791ZM243.697 319.489V321.113H235.816V324.046H234.303V316.556H235.816V319.489H243.697ZM263.222 451.354V449.898H267.088V451.485H264.697V458.377H267.088V459.964H263.222V459.199C262.774 458.589 262.101 458.252 261.205 458.19L255.303 457.686V451.354H263.222ZM263.222 452.942H256.778V456.21L261.205 456.603C262.139 456.69 262.811 456.945 263.222 457.368V452.942ZM259.767 438.123C260.19 438.123 260.501 438.148 260.7 438.198V445.332C261.547 445.208 262.213 444.884 262.699 444.361C263.184 443.838 263.427 443.191 263.427 442.419C263.427 441.398 263.01 440.626 262.176 440.103V438.44C262.935 438.739 263.583 439.25 264.118 439.972C264.641 440.694 264.903 441.516 264.903 442.437C264.903 443.272 264.691 444.037 264.268 444.735C263.844 445.432 263.259 445.98 262.512 446.378C261.765 446.777 260.925 446.976 259.991 446.976C259.082 446.976 258.254 446.77 257.507 446.36C256.76 445.949 256.174 445.401 255.751 444.716C255.315 444.019 255.097 443.265 255.097 442.456C255.097 441.647 255.303 440.912 255.714 440.252C256.125 439.592 256.685 439.076 257.395 438.702C258.104 438.316 258.895 438.123 259.767 438.123ZM256.573 442.456C256.573 443.178 256.834 443.813 257.357 444.361C257.868 444.897 258.54 445.226 259.374 445.351V439.692C258.553 439.791 257.88 440.097 257.357 440.607C256.834 441.105 256.573 441.721 256.573 442.456ZM259.225 427.965H255.303V426.341H264.697V427.965H260.738V432.691H264.697V434.297H255.303V432.691H259.225V427.965ZM258.571 418.094C258.571 417.123 258.858 416.339 259.43 415.741C259.991 415.143 260.725 414.844 261.634 414.844C262.543 414.844 263.284 415.143 263.857 415.741C264.417 416.339 264.697 417.123 264.697 418.094V421.942H255.303V420.335H258.571V418.094ZM263.259 418.244C263.259 417.683 263.116 417.247 262.83 416.936C262.543 416.612 262.145 416.451 261.634 416.451C261.124 416.451 260.725 416.612 260.439 416.936C260.14 417.247 259.991 417.683 259.991 418.244V420.335H263.259V418.244ZM264.697 409.64V411.246H255.303V405.064H256.816V409.64H264.697ZM262.195 400.149L255.303 395.124V393.705H264.697V395.293H257.805L264.697 400.317V401.736H255.303V400.149H262.195Z" fill="white"/>
<path d="M88.4873 235.966C88.4873 236.389 88.4624 236.701 88.4126 236.9H81.278C81.4025 237.747 81.7262 238.413 82.2492 238.898C82.7722 239.384 83.4196 239.627 84.1916 239.627C85.2126 239.627 85.9846 239.21 86.5076 238.375H88.1698C87.871 239.135 87.3605 239.782 86.6383 240.318C85.9161 240.841 85.0943 241.102 84.1729 241.102C83.3387 241.102 82.5729 240.891 81.8757 240.467C81.1784 240.044 80.6305 239.459 80.2321 238.712C79.8336 237.965 79.6344 237.124 79.6344 236.19C79.6344 235.281 79.8399 234.453 80.2508 233.706C80.6616 232.959 81.2095 232.374 81.8943 231.951C82.5916 231.515 83.3449 231.297 84.1543 231.297C84.9636 231.297 85.6982 231.502 86.3581 231.913C87.0181 232.324 87.5348 232.884 87.9083 233.594C88.2943 234.304 88.4873 235.095 88.4873 235.966ZM84.1543 232.772C83.4321 232.772 82.7971 233.034 82.2492 233.557C81.7138 234.067 81.3838 234.74 81.2593 235.574H86.9185C86.8188 234.752 86.5138 234.08 86.0033 233.557C85.5052 233.034 84.8889 232.772 84.1543 232.772ZM96.2729 241.102C95.4511 241.102 94.6916 240.891 93.9943 240.467C93.3095 240.031 92.7616 239.44 92.3507 238.693C91.9398 237.933 91.7344 237.099 91.7344 236.19C91.7344 235.281 91.9398 234.453 92.3507 233.706C92.7616 232.959 93.3095 232.374 93.9943 231.951C94.6916 231.515 95.4511 231.297 96.2729 231.297C96.9951 231.297 97.6488 231.465 98.234 231.801C98.8316 232.137 99.3235 232.579 99.7095 233.127C100.095 233.675 100.351 234.266 100.475 234.902H98.869C98.6947 234.291 98.3834 233.793 97.9351 233.407C97.4993 233.009 96.9453 232.81 96.2729 232.81C95.7499 232.81 95.2643 232.953 94.8161 233.239C94.3678 233.526 94.0067 233.924 93.7328 234.435C93.4713 234.945 93.3406 235.53 93.3406 236.19C93.3406 236.85 93.4713 237.442 93.7328 237.965C94.0067 238.475 94.3616 238.874 94.7974 239.16C95.2456 239.446 95.7375 239.589 96.2729 239.589C96.9453 239.589 97.4993 239.396 97.9351 239.01C98.3834 238.612 98.6947 238.108 98.869 237.498H100.475C100.351 238.133 100.095 238.724 99.7095 239.272C99.3235 239.82 98.8316 240.262 98.234 240.598C97.6488 240.934 96.9951 241.102 96.2729 241.102ZM107.397 240.897H105.772V233.015H102.839V231.502H110.329V233.015H107.397V240.897ZM117.57 234.771C118.541 234.771 119.326 235.057 119.923 235.63C120.521 236.19 120.82 236.925 120.82 237.834C120.82 238.743 120.521 239.484 119.923 240.056C119.326 240.617 118.541 240.897 117.57 240.897H113.723V231.502H115.329V234.771H117.57ZM117.421 239.459C117.981 239.459 118.417 239.316 118.728 239.029C119.052 238.743 119.214 238.344 119.214 237.834C119.214 237.323 119.052 236.925 118.728 236.638C118.417 236.34 117.981 236.19 117.421 236.19H115.329V239.459H117.421ZM84.1729 262.102C83.3511 262.102 82.5916 261.891 81.8943 261.467C81.2095 261.031 80.6616 260.44 80.2508 259.693C79.8399 258.933 79.6344 258.099 79.6344 257.19C79.6344 256.281 79.8399 255.453 80.2508 254.706C80.6616 253.959 81.2095 253.374 81.8943 252.951C82.5916 252.515 83.3511 252.297 84.1729 252.297C84.8951 252.297 85.5488 252.465 86.134 252.801C86.7317 253.137 87.2235 253.579 87.6095 254.127C87.9955 254.675 88.2508 255.266 88.3753 255.902H86.769C86.5947 255.291 86.2834 254.793 85.8352 254.407C85.3994 254.009 84.8453 253.81 84.1729 253.81C83.65 253.81 83.1644 253.953 82.7161 254.239C82.2679 254.526 81.9068 254.924 81.6329 255.435C81.3714 255.945 81.2406 256.53 81.2406 257.19C81.2406 257.85 81.3714 258.442 81.6329 258.965C81.9068 259.475 82.2616 259.874 82.6974 260.16C83.1457 260.446 83.6375 260.589 84.1729 260.589C84.8453 260.589 85.3994 260.396 85.8352 260.01C86.2834 259.612 86.5947 259.108 86.769 258.498H88.3753C88.2508 259.133 87.9955 259.724 87.6095 260.272C87.2235 260.82 86.7317 261.262 86.134 261.598C85.5488 261.934 84.8951 262.102 84.1729 262.102ZM93.7189 261.897H92.1127V252.502H99.901V261.897H98.2948V254.015H93.7189V261.897ZM108.263 262.102C107.442 262.102 106.682 261.891 105.985 261.467C105.3 261.031 104.752 260.44 104.341 259.693C103.93 258.933 103.725 258.099 103.725 257.19C103.725 256.281 103.93 255.453 104.341 254.706C104.752 253.959 105.3 253.374 105.985 252.951C106.682 252.515 107.442 252.297 108.263 252.297C109.073 252.297 109.826 252.515 110.523 252.951C111.221 253.374 111.775 253.959 112.186 254.706C112.596 255.453 112.802 256.281 112.802 257.19C112.802 258.099 112.596 258.933 112.186 259.693C111.775 260.44 111.221 261.031 110.523 261.467C109.826 261.891 109.073 262.102 108.263 262.102ZM108.263 260.589C108.786 260.589 109.272 260.446 109.72 260.16C110.168 259.874 110.523 259.475 110.785 258.965C111.046 258.442 111.177 257.85 111.177 257.19C111.177 256.53 111.046 255.945 110.785 255.435C110.523 254.924 110.168 254.526 109.72 254.239C109.272 253.953 108.786 253.81 108.263 253.81C107.74 253.81 107.255 253.953 106.807 254.239C106.358 254.526 105.997 254.924 105.723 255.435C105.462 255.945 105.331 256.53 105.331 257.19C105.331 257.85 105.462 258.442 105.723 258.965C105.997 259.475 106.352 259.874 106.788 260.16C107.236 260.446 107.728 260.589 108.263 260.589ZM120.564 262.102C119.742 262.102 118.983 261.891 118.285 261.467C117.601 261.031 117.053 260.44 116.642 259.693C116.231 258.933 116.025 258.099 116.025 257.19C116.025 256.281 116.231 255.453 116.642 254.706C117.053 253.959 117.601 253.374 118.285 252.951C118.983 252.515 119.742 252.297 120.564 252.297C121.286 252.297 121.94 252.465 122.525 252.801C123.123 253.137 123.615 253.579 124.001 254.127C124.387 254.675 124.642 255.266 124.766 255.902H123.16C122.986 255.291 122.674 254.793 122.226 254.407C121.79 254.009 121.236 253.81 120.564 253.81C120.041 253.81 119.555 253.953 119.107 254.239C118.659 254.526 118.298 254.924 118.024 255.435C117.762 255.945 117.632 256.53 117.632 257.19C117.632 257.85 117.762 258.442 118.024 258.965C118.298 259.475 118.653 259.874 119.088 260.16C119.537 260.446 120.029 260.589 120.564 260.589C121.236 260.589 121.79 260.396 122.226 260.01C122.674 259.612 122.986 259.108 123.16 258.498H124.766C124.642 259.133 124.387 259.724 124.001 260.272C123.615 260.82 123.123 261.262 122.525 261.598C121.94 261.934 121.286 262.102 120.564 262.102ZM132.463 262.102C131.642 262.102 130.882 261.891 130.185 261.467C129.5 261.031 128.952 260.44 128.541 259.693C128.13 258.933 127.925 258.099 127.925 257.19C127.925 256.281 128.13 255.453 128.541 254.706C128.952 253.959 129.5 253.374 130.185 252.951C130.882 252.515 131.642 252.297 132.463 252.297C133.273 252.297 134.026 252.515 134.723 252.951C135.421 253.374 135.975 253.959 136.385 254.706C136.796 255.453 137.002 256.281 137.002 257.19C137.002 258.099 136.796 258.933 136.385 259.693C135.975 260.44 135.421 261.031 134.723 261.467C134.026 261.891 133.273 262.102 132.463 262.102ZM132.463 260.589C132.986 260.589 133.472 260.446 133.92 260.16C134.368 259.874 134.723 259.475 134.985 258.965C135.246 258.442 135.377 257.85 135.377 257.19C135.377 256.53 135.246 255.945 134.985 255.435C134.723 254.924 134.368 254.526 133.92 254.239C133.472 253.953 132.986 253.81 132.463 253.81C131.94 253.81 131.455 253.953 131.006 254.239C130.558 254.526 130.197 254.924 129.923 255.435C129.662 255.945 129.531 256.53 129.531 257.19C129.531 257.85 129.662 258.442 129.923 258.965C130.197 259.475 130.552 259.874 130.988 260.16C131.436 260.446 131.928 260.589 132.463 260.589ZM144.913 262.102C144.067 262.102 143.301 261.897 142.616 261.486C141.944 261.063 141.408 260.421 141.01 259.562C140.611 258.703 140.412 257.645 140.412 256.387C140.412 254.245 140.817 252.552 141.626 251.307C142.435 250.062 143.712 249.309 145.455 249.047C146.725 248.86 147.709 248.705 148.406 248.58V250.093L146.576 250.41L145.66 250.56C144.428 250.747 143.544 251.182 143.008 251.867C142.473 252.54 142.143 253.368 142.018 254.351H142.112C142.348 253.965 142.728 253.61 143.251 253.287C143.774 252.963 144.403 252.801 145.137 252.801C145.885 252.801 146.576 253 147.211 253.399C147.846 253.785 148.35 254.333 148.723 255.042C149.109 255.752 149.302 256.555 149.302 257.452C149.302 258.361 149.103 259.17 148.705 259.88C148.319 260.577 147.79 261.125 147.117 261.523C146.457 261.909 145.723 262.102 144.913 262.102ZM144.913 260.589C145.424 260.589 145.891 260.465 146.314 260.216C146.737 259.954 147.074 259.587 147.323 259.114C147.572 258.641 147.696 258.087 147.696 257.452C147.696 256.817 147.572 256.263 147.323 255.789C147.074 255.304 146.737 254.937 146.314 254.688C145.891 254.426 145.424 254.295 144.913 254.295C144.403 254.295 143.93 254.426 143.494 254.688C143.071 254.937 142.734 255.304 142.485 255.789C142.236 256.263 142.112 256.817 142.112 257.452C142.112 258.087 142.236 258.641 142.485 259.114C142.734 259.587 143.071 259.954 143.494 260.216C143.93 260.465 144.403 260.589 144.913 260.589ZM85.0508 278.041C85.4492 278.203 85.7916 278.477 86.078 278.863C86.3768 279.249 86.5262 279.728 86.5262 280.301C86.5262 280.799 86.3893 281.266 86.1153 281.702C85.8414 282.125 85.4367 282.467 84.9013 282.729C84.3784 282.978 83.7558 283.102 83.0336 283.102C81.9255 283.102 81.0476 282.816 80.4002 282.243C79.7651 281.658 79.4041 280.923 79.3169 280.039H80.9044C80.9418 280.525 81.1348 280.917 81.4834 281.216C81.8321 281.515 82.3364 281.664 82.9963 281.664C83.6313 281.664 84.1107 281.54 84.4344 281.291C84.7706 281.029 84.9387 280.674 84.9387 280.226C84.9387 279.778 84.7768 279.417 84.4531 279.143C84.1294 278.869 83.6687 278.732 83.071 278.732H82.0064V277.424H83.015C83.5628 277.424 83.9799 277.306 84.2663 277.07C84.5651 276.833 84.7146 276.528 84.7146 276.154C84.7146 275.756 84.5527 275.42 84.229 275.146C83.9177 274.872 83.4943 274.735 82.9589 274.735C82.3986 274.735 81.9566 274.878 81.6329 275.165C81.3216 275.438 81.1348 275.8 81.0725 276.248H79.5037C79.5784 275.401 79.9208 274.698 80.5309 274.137C81.1535 273.577 81.9939 273.297 83.0523 273.297C83.6998 273.297 84.2663 273.428 84.7519 273.689C85.25 273.938 85.6297 274.281 85.8912 274.716C86.1652 275.14 86.3021 275.6 86.3021 276.098C86.3021 276.596 86.1776 277.001 85.9286 277.312C85.6795 277.624 85.3869 277.866 85.0508 278.041ZM93.7423 273.297C94.452 273.297 95.0808 273.452 95.6287 273.764C96.1765 274.063 96.5999 274.492 96.8987 275.052C97.21 275.6 97.3656 276.229 97.3656 276.939V282.897H96.1516L95.8154 281.72H95.7221C95.473 282.069 95.1119 282.386 94.6388 282.673C94.1656 282.959 93.5866 283.102 92.9018 283.102C92.2793 283.102 91.7314 282.978 91.2582 282.729C90.7851 282.48 90.4178 282.144 90.1563 281.72C89.8948 281.284 89.7641 280.805 89.7641 280.282C89.7641 279.697 89.9384 279.18 90.287 278.732C90.6481 278.271 91.1462 277.916 91.7812 277.667C92.4287 277.418 93.1633 277.294 93.9851 277.294H95.7407V276.864C95.7407 276.229 95.554 275.725 95.1804 275.351C94.8193 274.965 94.34 274.772 93.7423 274.772C93.182 274.772 92.74 274.916 92.4162 275.202C92.0925 275.488 91.887 275.856 91.7999 276.304H90.175C90.2372 275.768 90.4178 275.27 90.7166 274.81C91.0279 274.349 91.445 273.982 91.968 273.708C92.4909 273.434 93.0824 273.297 93.7423 273.297ZM93.1633 281.683C93.9353 281.683 94.5579 281.459 95.031 281.01C95.5042 280.55 95.7407 279.977 95.7407 279.292V278.582H94.0972C93.2256 278.582 92.5532 278.726 92.08 279.012C91.6069 279.298 91.3703 279.697 91.3703 280.207C91.3703 280.656 91.5259 281.017 91.8372 281.291C92.1485 281.552 92.5905 281.683 93.1633 281.683ZM101.677 286.259V273.502H102.873L103.228 274.679H103.321C103.545 274.38 103.912 274.075 104.423 273.764C104.946 273.452 105.544 273.297 106.216 273.297C107 273.297 107.723 273.509 108.382 273.932C109.042 274.343 109.565 274.922 109.951 275.669C110.35 276.416 110.549 277.256 110.549 278.19C110.549 279.124 110.35 279.965 109.951 280.712C109.565 281.459 109.042 282.044 108.382 282.467C107.723 282.891 107 283.102 106.216 283.102C105.568 283.102 104.983 282.953 104.46 282.654C103.937 282.343 103.576 282.044 103.377 281.758H103.284V286.259H101.677ZM106.123 281.589C106.633 281.589 107.1 281.446 107.523 281.16C107.959 280.874 108.302 280.475 108.551 279.965C108.812 279.442 108.943 278.85 108.943 278.19C108.943 277.53 108.812 276.945 108.551 276.435C108.302 275.924 107.959 275.526 107.523 275.239C107.1 274.953 106.633 274.81 106.123 274.81C105.612 274.81 105.139 274.953 104.703 275.239C104.267 275.526 103.919 275.924 103.657 276.435C103.408 276.945 103.284 277.53 103.284 278.19C103.284 278.85 103.408 279.442 103.657 279.965C103.919 280.475 104.267 280.874 104.703 281.16C105.139 281.446 105.612 281.589 106.123 281.589ZM117.76 273.297C118.47 273.297 119.098 273.452 119.646 273.764C120.194 274.063 120.617 274.492 120.916 275.052C121.228 275.6 121.383 276.229 121.383 276.939V282.897H120.169L119.833 281.72H119.74C119.491 282.069 119.129 282.386 118.656 282.673C118.183 282.959 117.604 283.102 116.919 283.102C116.297 283.102 115.749 282.978 115.276 282.729C114.803 282.48 114.435 282.144 114.174 281.72C113.912 281.284 113.782 280.805 113.782 280.282C113.782 279.697 113.956 279.18 114.305 278.732C114.666 278.271 115.164 277.916 115.799 277.667C116.446 277.418 117.181 277.294 118.003 277.294H119.758V276.864C119.758 276.229 119.571 275.725 119.198 275.351C118.837 274.965 118.357 274.772 117.76 274.772C117.199 274.772 116.757 274.916 116.434 275.202C116.11 275.488 115.905 275.856 115.817 276.304H114.192C114.255 275.768 114.435 275.27 114.734 274.81C115.045 274.349 115.463 273.982 115.985 273.708C116.508 273.434 117.1 273.297 117.76 273.297ZM117.181 281.683C117.953 281.683 118.575 281.459 119.049 281.01C119.522 280.55 119.758 279.977 119.758 279.292V278.582H118.115C117.243 278.582 116.571 278.726 116.098 279.012C115.624 279.298 115.388 279.697 115.388 280.207C115.388 280.656 115.543 281.017 115.855 281.291C116.166 281.552 116.608 281.683 117.181 281.683ZM129.804 283.102C128.957 283.102 128.191 282.897 127.507 282.486C126.834 282.063 126.299 281.421 125.9 280.562C125.502 279.703 125.303 278.645 125.303 277.387C125.303 275.245 125.707 273.552 126.517 272.307C127.326 271.062 128.602 270.309 130.346 270.047C131.616 269.86 132.599 269.705 133.296 269.58V271.093L131.466 271.41L130.551 271.56C129.318 271.747 128.434 272.182 127.899 272.867C127.363 273.54 127.033 274.368 126.909 275.351H127.002C127.239 274.965 127.619 274.61 128.142 274.287C128.665 273.963 129.293 273.801 130.028 273.801C130.775 273.801 131.466 274 132.101 274.399C132.736 274.785 133.24 275.333 133.614 276.042C134 276.752 134.193 277.555 134.193 278.452C134.193 279.361 133.994 280.17 133.595 280.88C133.209 281.577 132.68 282.125 132.008 282.523C131.348 282.909 130.613 283.102 129.804 283.102ZM129.804 281.589C130.314 281.589 130.781 281.465 131.205 281.216C131.628 280.954 131.964 280.587 132.213 280.114C132.462 279.641 132.587 279.087 132.587 278.452C132.587 277.817 132.462 277.263 132.213 276.789C131.964 276.304 131.628 275.937 131.205 275.688C130.781 275.426 130.314 275.295 129.804 275.295C129.293 275.295 128.82 275.426 128.384 275.688C127.961 275.937 127.625 276.304 127.376 276.789C127.127 277.263 127.002 277.817 127.002 278.452C127.002 279.087 127.127 279.641 127.376 280.114C127.625 280.587 127.961 280.954 128.384 281.216C128.82 281.465 129.293 281.589 129.804 281.589ZM141.973 283.102C141.151 283.102 140.392 282.891 139.695 282.467C139.01 282.031 138.462 281.44 138.051 280.693C137.64 279.933 137.435 279.099 137.435 278.19C137.435 277.281 137.64 276.453 138.051 275.706C138.462 274.959 139.01 274.374 139.695 273.951C140.392 273.515 141.151 273.297 141.973 273.297C142.783 273.297 143.536 273.515 144.233 273.951C144.93 274.374 145.485 274.959 145.895 275.706C146.306 276.453 146.512 277.281 146.512 278.19C146.512 279.099 146.306 279.933 145.895 280.693C145.485 281.44 144.93 282.031 144.233 282.467C143.536 282.891 142.783 283.102 141.973 283.102ZM141.973 281.589C142.496 281.589 142.982 281.446 143.43 281.16C143.878 280.874 144.233 280.475 144.495 279.965C144.756 279.442 144.887 278.85 144.887 278.19C144.887 277.53 144.756 276.945 144.495 276.435C144.233 275.924 143.878 275.526 143.43 275.239C142.982 274.953 142.496 274.81 141.973 274.81C141.45 274.81 140.965 274.953 140.516 275.239C140.068 275.526 139.707 275.924 139.433 276.435C139.172 276.945 139.041 277.53 139.041 278.19C139.041 278.85 139.172 279.442 139.433 279.965C139.707 280.475 140.062 280.874 140.498 281.16C140.946 281.446 141.438 281.589 141.973 281.589ZM153.498 282.897H151.873V275.015H148.941V273.502H156.43V275.015H153.498V282.897ZM162.84 273.297C163.55 273.297 164.179 273.452 164.726 273.764C165.274 274.063 165.698 274.492 165.996 275.052C166.308 275.6 166.463 276.229 166.463 276.939V282.897H165.249L164.913 281.72H164.82C164.571 282.069 164.21 282.386 163.737 282.673C163.263 282.959 162.684 283.102 162 283.102C161.377 283.102 160.829 282.978 160.356 282.729C159.883 282.48 159.516 282.144 159.254 281.72C158.993 281.284 158.862 280.805 158.862 280.282C158.862 279.697 159.036 279.18 159.385 278.732C159.746 278.271 160.244 277.916 160.879 277.667C161.526 277.418 162.261 277.294 163.083 277.294H164.839V276.864C164.839 276.229 164.652 275.725 164.278 275.351C163.917 274.965 163.438 274.772 162.84 274.772C162.28 274.772 161.838 274.916 161.514 275.202C161.19 275.488 160.985 275.856 160.898 276.304H159.273C159.335 275.768 159.516 275.27 159.814 274.81C160.126 274.349 160.543 273.982 161.066 273.708C161.589 273.434 162.18 273.297 162.84 273.297ZM162.261 281.683C163.033 281.683 163.656 281.459 164.129 281.01C164.602 280.55 164.839 279.977 164.839 279.292V278.582H163.195C162.323 278.582 161.651 278.726 161.178 279.012C160.705 279.298 160.468 279.697 160.468 280.207C160.468 280.656 160.624 281.017 160.935 281.291C161.246 281.552 161.688 281.683 162.261 281.683ZM174.141 282.897H172.517V275.015H169.584V273.502H177.074V275.015H174.141V282.897ZM184.315 276.771C185.286 276.771 186.071 277.057 186.668 277.63C187.266 278.19 187.565 278.925 187.565 279.834C187.565 280.743 187.266 281.484 186.668 282.056C186.071 282.617 185.286 282.897 184.315 282.897H180.468V273.502H182.074V276.771H184.315ZM184.166 281.459C184.726 281.459 185.162 281.316 185.473 281.029C185.797 280.743 185.959 280.344 185.959 279.834C185.959 279.323 185.797 278.925 185.473 278.638C185.162 278.34 184.726 278.19 184.166 278.19H182.074V281.459H184.166Z" fill="white"/>
</g>
<defs>
<clipPath id="clip0_235_9079">
<rect width="480" height="719.066" fill="white" transform="translate(0.5 0.640137)"/>
</clipPath>
</defs>
</svg>
