<svg width="2614" height="1706" viewBox="0 0 2614 1706" fill="none" xmlns="http://www.w3.org/2000/svg">
<circle cx="1144.84" cy="874.016" r="135.075" fill="#1729CE"/>
<circle cx="1342.49" cy="1165.02" r="135.075" fill="#1729CE"/>
<circle cx="992.88" cy="1303.08" r="135.075" fill="#1729CE"/>
<circle cx="1358.08" cy="1325.08" r="135.075" fill="#1729CE"/>
<circle cx="1361.36" cy="609.825" r="135.075" fill="#1729CE"/>
<circle cx="1002.81" cy="497.593" r="135.075" fill="#1729CE"/>
<path fill-rule="evenodd" clip-rule="evenodd" d="M990.43 948.771L990.429 948.772L1042.71 1046.62L977.639 1081.39C997.046 1046.02 994.441 1000.22 984.766 960.233L982.925 963.959C943.57 1043.61 822.923 1004.22 838.142 916.695L863.299 772.024L872.678 718.083L922.04 741.77L1054.45 805.307C1134.55 843.747 1096.54 964.855 1008.83 950.622L1002.28 949.557C1030.25 980.194 1067.21 1008.35 1107.82 1011.92L1042.75 1046.69L990.43 948.771Z" fill="#D40606"/>
<path fill-rule="evenodd" clip-rule="evenodd" d="M1295.94 796.388L1292.43 794.136C1217.69 746.109 1270.34 630.631 1355.62 655.557L1496.56 696.756L1549.11 712.118L1520.04 758.516L1442.08 882.973C1394.91 958.269 1278.82 906.933 1302.79 821.374L1304.58 814.987C1271 839.349 1238.88 872.926 1230.79 912.878L1203.53 844.322L1203.6 844.294L1176.34 775.738C1209.31 798.985 1255.12 801.523 1295.94 796.388Z" fill="#1729CE"/>
<path fill-rule="evenodd" clip-rule="evenodd" d="M1409.13 1248.62L1409.13 1248.62L1471.38 1365.97L1393.34 1407.37C1416.71 1365.09 1413.75 1310.24 1402.3 1262.33L1400.09 1266.78C1352.68 1362.01 1208.37 1314.43 1226.9 1209.68L1257.53 1036.55L1268.95 972L1327.97 1000.54L1486.28 1077.08C1582.05 1123.39 1536.11 1268.26 1431.15 1250.91L1423.31 1249.61C1456.69 1286.39 1500.85 1320.24 1549.46 1324.65L1471.42 1366.05L1409.13 1248.62Z" fill="#D40606"/>
<path fill-rule="evenodd" clip-rule="evenodd" d="M1404.17 973.912L1404.17 973.913L1534.17 1051.08L1482.85 1137.53C1480.51 1082.6 1445.15 1031.05 1405.65 991.266L1406.14 996.92C1416.47 1117.54 1248.04 1156.76 1204.02 1043.99L1131.25 857.603L1104.12 788.107L1178.37 780.885L1377.55 761.515C1498.05 749.795 1539.2 917.792 1426.93 963.091L1418.54 966.474C1472.76 982.448 1535.72 989.189 1585.57 964.689L1534.25 1051.14L1404.17 973.912Z" fill="#E8038D"/>
<path d="M1177.03 448.24L1176.77 202.664L1409.12 282.179L1409.38 527.754L1177.03 448.24Z" fill="#D45106"/>
<path fill-rule="evenodd" clip-rule="evenodd" d="M1115.76 805.423L1113.34 808.804C1061.53 880.974 948.911 822.45 978.193 738.574L1026.59 599.938L1044.64 548.247L1089.48 579.662L1209.76 663.93C1282.53 714.911 1225.28 828.205 1141.07 799.867L1134.78 797.75C1157.38 832.535 1189.26 866.343 1228.75 876.478L1158.88 900.176L1158.85 900.106L1088.99 923.803C1113.9 892.066 1118.79 846.454 1115.76 805.423Z" fill="#D40606"/>
<path fill-rule="evenodd" clip-rule="evenodd" d="M1358.91 574.588L1361.77 574.475C1422.67 572.085 1438.48 657.711 1380.74 677.23L1285.3 709.493L1249.72 721.523L1247.81 684.007L1242.7 583.378C1239.61 522.497 1325.06 505.708 1345.24 563.233L1346.74 567.52C1356.03 540.623 1360.88 509.118 1349.72 483.479L1392.01 511.301L1391.98 511.344L1434.27 539.165C1406.58 539.063 1379.84 555.647 1358.91 574.588Z" fill="#D40606"/>
<path d="M991.542 338.172L1157.46 274.372L1163.91 452.018L997.993 515.818L991.542 338.172Z" fill="#D45106"/>
<path d="M1096.59 501.037L1241.54 456.232L1236.84 607.878L1091.88 652.684L1096.59 501.037Z" fill="#D45106"/>
<path fill-rule="evenodd" clip-rule="evenodd" d="M1219.89 584.926C1181.14 569.175 1155.92 525.082 1142.07 487.967L1202.48 515.106C1241.25 532.524 1283.54 498.991 1275.42 457.273C1267.3 415.554 1215.52 400.331 1186.11 431.017L1140.71 478.394L1165.69 380.199C1175.18 342.916 1142.62 308.452 1104.86 315.802C1067.1 323.151 1049.84 367.31 1072.62 398.314L1132.52 479.869L1072.85 453.059C1034.08 435.641 991.791 469.174 999.91 510.892C1008.03 552.61 1059.81 567.834 1089.22 537.148L1134.9 489.475C1135.96 529.047 1129.1 579.275 1099.12 608.368L1159.5 596.617L1138.31 487.748L1138.31 487.754L1159.51 596.677L1219.89 584.926Z" fill="#E8038D"/>
<path fill-rule="evenodd" clip-rule="evenodd" d="M1002.6 1269.31C991.49 1198.25 1034.13 1122.05 1076.56 1068.78L1090.06 1181.82C1098.72 1254.37 1185.58 1286.99 1239.86 1238.09C1294.14 1189.18 1270.72 1099.4 1199.47 1083.25L1089.45 1058.3L1256.26 1008.16C1319.59 989.117 1341.55 910.627 1297.28 861.495C1253.01 812.363 1172.67 826.04 1147.15 887.052L1080.03 1047.54L1066.69 935.878C1058.03 863.331 971.171 830.708 916.89 879.613C862.61 928.518 886.031 1018.3 957.285 1034.45L1067.99 1059.55C1010.62 1096.16 930.529 1130.52 861.118 1112.12L931.897 1190.67L1073.54 1063.06L1073.54 1063.06L931.819 1190.75L1002.6 1269.31Z" fill="#E8038D"/>
<path d="M901.251 575.953L1100.58 593.627L1019.12 776.404L819.796 758.73L901.251 575.953Z" fill="#D45106"/>
<path d="M875.286 1121.67L811.535 931.989L1011.64 933.302L1075.39 1122.98L875.286 1121.67Z" fill="#D45106"/>
<path d="M1108.74 1555.99L1044.98 1366.31L1245.09 1367.62L1308.84 1557.3L1108.74 1555.99Z" fill="#D45106"/>
<path d="M1017.88 960.187L1302.89 954.566L1215.64 1225.95L930.627 1231.57L1017.88 960.187Z" fill="#D45106"/>
<path fill-rule="evenodd" clip-rule="evenodd" d="M1328.68 1129.83C1327.59 1081.89 1362.49 1035.27 1395.23 1003.79L1394.2 1079.71C1393.54 1128.43 1448.08 1157.64 1488.27 1130.1C1528.46 1102.55 1520.88 1041.14 1475.2 1024.18L1404.67 998.003L1519.36 979.545C1562.9 972.537 1584.33 922.585 1559.39 886.208C1534.46 849.831 1480.14 851.796 1457.9 889.88L1399.39 990.062L1400.41 915.067C1401.07 866.347 1346.53 837.132 1306.34 864.679C1266.15 892.227 1273.73 953.638 1319.41 970.593L1390.38 996.936C1349.23 1016.08 1293.26 1031.74 1249 1013.46L1288.87 1071.63L1393.74 999.741L1393.74 999.745L1288.81 1071.67L1328.68 1129.83Z" fill="#D45106"/>
<path fill-rule="evenodd" clip-rule="evenodd" d="M1283.8 1440.28C1282.71 1392.34 1317.61 1345.72 1350.35 1314.24L1349.32 1390.16C1348.65 1438.88 1403.2 1468.09 1443.39 1440.54C1483.58 1413 1476 1351.59 1430.32 1334.63L1359.79 1308.45L1474.48 1289.99C1518.02 1282.99 1539.45 1233.03 1514.51 1196.66C1489.58 1160.28 1435.26 1162.24 1413.02 1200.33L1354.51 1300.51L1355.53 1225.51C1356.19 1176.8 1301.65 1147.58 1261.46 1175.13C1221.27 1202.68 1228.85 1264.09 1274.52 1281.04L1345.5 1307.38C1304.35 1326.53 1248.38 1342.19 1204.12 1323.91L1243.99 1382.07L1348.86 1310.19L1348.86 1310.19L1243.93 1382.12L1283.8 1440.28Z" fill="#E8038D"/>
<path fill-rule="evenodd" clip-rule="evenodd" d="M1245.37 1157.71C1254.98 1223.39 1214.95 1293.34 1175.31 1342.12L1163.87 1237.67C1156.52 1170.63 1076.65 1139.75 1026.11 1184.4C975.577 1229.05 996.388 1312.11 1062.01 1327.66L1163.32 1351.67L1008.91 1396.46C950.292 1413.46 929.329 1485.71 969.743 1531.45C1010.16 1577.19 1084.43 1565.29 1108.53 1509.21L1171.92 1361.68L1183.23 1464.87C1190.57 1531.9 1270.45 1562.79 1320.98 1518.14C1371.52 1473.49 1350.7 1390.42 1285.09 1374.87L1183.14 1350.72C1236.41 1317.45 1310.64 1286.45 1374.53 1304.06L1309.91 1230.92L1178.04 1347.44L1178.04 1347.43L1309.99 1230.85L1245.37 1157.71Z" fill="#E8038D"/>
<path fill-rule="evenodd" clip-rule="evenodd" d="M1005.84 1095.16L1005.84 1095.16L1081.62 1020.3L1131.4 1070.7C1093.54 1062.5 1052.1 1077.41 1017.94 1097.24L1021.87 1097.92C1105.93 1112.38 1102.65 1234.18 1017.93 1244.09L877.902 1260.46L825.692 1266.57L834.007 1214.67L856.31 1075.44C869.803 991.208 991.656 993.105 1002.52 1077.72L1003.33 1084.04C1023.89 1049.93 1039.71 1008.21 1031.89 969.86L1081.67 1020.25L1005.84 1095.16Z" fill="#D40606"/>
<path fill-rule="evenodd" clip-rule="evenodd" d="M1067.96 1345.65L1071.13 1346.19C1139 1357.87 1136.35 1456.22 1067.95 1464.22L954.885 1477.44L912.73 1482.37L919.443 1440.46L937.451 1328.04C948.345 1260.03 1046.73 1261.57 1055.5 1329.88L1056.16 1334.99C1072.76 1307.45 1085.53 1273.76 1079.22 1242.8L1119.42 1283.48L1119.37 1283.53L1159.57 1324.21C1129 1317.59 1095.54 1329.64 1067.96 1345.65Z" fill="#D40606"/>
<path d="M1108.61 1161.82L1353.85 1168.13L1268.24 1398.03L1022.99 1391.72L1108.61 1161.82Z" fill="#D45106"/>
<path fill-rule="evenodd" clip-rule="evenodd" d="M1134.41 576.707C1089.48 563.74 1056.27 517.673 1036.52 478.031L1106.87 501.122C1152.01 515.941 1195.1 473.7 1181.18 428.269C1167.26 382.838 1107.91 371.985 1078.81 409.551L1033.88 467.559L1050.14 355.446C1056.31 312.882 1016.08 278.383 974.954 290.982C933.832 303.581 919.826 354.701 948.782 386.501L1024.95 470.149L955.468 447.341C910.323 432.522 867.234 474.763 881.153 520.194C895.073 565.625 954.43 576.478 983.525 538.912L1028.73 480.547C1034.55 524.42 1032.81 581.071 1002.89 616.933L1068.64 596.788L1068.66 596.853L1134.41 576.707Z" fill="#E8038D"/>
<path fill-rule="evenodd" clip-rule="evenodd" d="M963.53 573.746C993.208 609.892 994.471 666.667 988.279 710.52L943.401 651.637C914.599 613.846 855.159 624.238 840.887 669.559C826.615 714.88 869.375 757.455 914.634 742.987L984.518 720.647L907.6 803.811C878.397 835.385 892.006 886.612 933.028 899.53C974.051 912.449 1014.56 878.263 1008.72 835.653L993.349 723.569L1037.68 781.735C1066.48 819.526 1125.92 809.134 1140.19 763.813C1154.47 718.491 1111.71 675.916 1066.45 690.384L996.128 712.863C1016.19 673.415 1049.73 627.723 1094.7 615.123L1029.1 594.467L991.862 712.725L991.862 712.724L1029.12 594.401L963.53 573.746Z" fill="#E8038D"/>
<path fill-rule="evenodd" clip-rule="evenodd" d="M1244.16 798.585C1234.19 774.686 1242.58 744.382 1252.86 722.119L1267.26 760.497C1276.5 785.13 1309.68 789.103 1324.47 767.35C1339.27 745.597 1323.39 716.2 1297.09 716.651L1256.47 717.346L1310.52 685.523C1331.04 673.441 1332 644.108 1312.31 630.714C1292.62 617.319 1265.69 628.982 1261.99 652.507L1252.25 714.388L1238.03 676.474C1228.79 651.841 1195.61 647.868 1180.81 669.621C1166.02 691.374 1181.9 720.771 1208.2 720.321L1249.07 719.621C1232.14 737.336 1207.07 756.213 1181.21 755.719L1212.7 777.136L1251.31 720.372L1251.31 720.376L1212.68 777.168L1244.16 798.585Z" fill="#E8038D"/>
<path fill-rule="evenodd" clip-rule="evenodd" d="M992.188 486.097C929.705 483.692 913.559 571.552 972.815 591.518L1070.76 624.52L1107.27 636.824L1109.19 598.34L1114.33 495.127C1117.44 432.681 1029.78 415.539 1009.14 474.555L1004.93 486.588L992.188 486.097Z" fill="#E80356"/>
<path fill-rule="evenodd" clip-rule="evenodd" d="M1024.59 557.52C985.414 505.653 904.084 550.467 927.003 611.291L964.886 711.828L979.009 749.309L1011.24 725.531L1097.69 661.758C1149.98 623.174 1106.11 541.352 1045.03 563.567L1032.58 568.097L1024.59 557.52Z" fill="#5D00D2"/>
<path fill-rule="evenodd" clip-rule="evenodd" d="M1175.99 348.662C1114.87 311.908 1050.43 390.828 1098.67 443.357L1178.4 530.182L1208.13 562.55L1231.2 525.148L1293.08 424.833C1330.51 364.143 1252.34 298.821 1199.27 346.446L1188.45 356.156L1175.99 348.662Z" fill="#E80356"/>
<path fill-rule="evenodd" clip-rule="evenodd" d="M1177.51 249.008C1110.29 245.404 1091.49 339.71 1154.94 362.163L1259.83 399.277L1298.93 413.113L1301.62 371.722L1308.83 260.712C1313.19 193.549 1219.12 173.673 1195.94 236.86L1191.22 249.743L1177.51 249.008Z" fill="#E80356"/>
<path d="M1094.13 700.497L1160.47 508.147L1320.84 633.365L1254.5 825.715L1094.13 700.497Z" fill="#D45106"/>
<path fill-rule="evenodd" clip-rule="evenodd" d="M1119.82 429.154C1174.61 415.858 1236.91 444.218 1281.29 473.904L1193.85 491.797C1137.74 503.281 1117.9 573.261 1159.63 612.489C1201.37 651.718 1269.98 627.585 1277.98 570.867L1290.31 483.294L1340.33 610.357C1359.32 658.599 1422.07 670.648 1457.58 632.871C1493.09 595.094 1477.18 533.212 1427.85 517.242L1298.11 475.234L1384.48 457.557C1440.6 446.073 1460.44 376.094 1418.7 336.865C1376.97 297.637 1308.35 321.77 1300.36 378.487L1287.94 466.612C1255.62 424.171 1223.56 363.831 1233.43 308.406L1176.66 368.809L1285.56 471.171L1285.56 471.171L1176.59 368.752L1119.82 429.154Z" fill="#E8038D"/>
<path fill-rule="evenodd" clip-rule="evenodd" d="M1341.62 482.702L1341.62 482.701L1288.61 429.828L1323.77 394.578C1318.21 421.23 1328.9 450.28 1343.02 474.189L1343.47 471.422C1353.2 412.264 1438.83 413.943 1446.23 473.438L1458.47 571.774L1463.03 608.439L1426.5 602.863L1328.53 587.908C1269.26 578.86 1269.96 493.204 1329.37 485.131L1333.82 484.527C1309.73 470.255 1280.33 459.35 1253.41 465.041L1288.57 429.792L1341.62 482.702Z" fill="#D40606"/>
<path fill-rule="evenodd" clip-rule="evenodd" d="M1202.47 1237.28L1202.47 1237.27L1127.06 1162.05L1177.09 1111.9C1169.17 1149.82 1184.38 1191.15 1204.47 1225.16L1205.11 1221.22C1218.95 1137.06 1340.78 1139.45 1351.31 1224.09L1368.72 1364L1375.21 1416.16L1323.24 1408.23L1183.85 1386.95C1099.53 1374.08 1100.53 1252.21 1185.06 1240.73L1191.37 1239.87C1157.11 1219.56 1115.28 1204.05 1076.98 1212.15L1127.01 1162L1202.47 1237.28Z" fill="#5D00D2"/>
<path fill-rule="evenodd" clip-rule="evenodd" d="M1082.37 859.536C1107.97 892.859 1107.45 943.877 1100.61 983.072L1062.02 928.888C1037.27 894.115 983.592 901.712 969.455 941.99C955.318 982.268 992.47 1021.74 1033.53 1010.07L1096.93 992.052L1025.44 1064.48C998.297 1091.98 1009.02 1138.37 1045.48 1151.17C1081.94 1163.97 1119.31 1134.45 1115.3 1096.02L1104.77 994.933L1142.88 1048.45C1167.64 1083.23 1221.32 1075.63 1235.45 1035.35C1249.59 995.074 1212.44 955.599 1171.38 967.269L1107.59 985.401C1126.75 950.566 1158.19 910.517 1198.94 900.515L1140.65 880.055L1140.67 879.997L1082.37 859.536Z" fill="#5D00D2"/>
<path fill-rule="evenodd" clip-rule="evenodd" d="M1583.09 1083.5L1583.09 1083.51L1866.61 1191.43L1794.84 1379.98C1771.35 1272.19 1683.75 1182.42 1591.99 1117.32L1594.88 1128.3C1656.74 1363.24 1337.19 1498.65 1211.41 1290.81L1003.52 947.264L926.001 819.172L1070.34 779.389L1457.5 672.675C1691.74 608.113 1830.81 926.145 1624.37 1054.28L1608.94 1063.85C1721.63 1076.81 1848.44 1068.52 1938.58 1002.95L1866.81 1191.5L1583.09 1083.5Z" fill="#161616"/>
<circle cx="2014.69" cy="1327.6" r="141.755" fill="#1729CE"/>
<circle cx="2116.84" cy="1036.26" r="119.328" fill="#1729CE"/>
<circle cx="2088.2" cy="865.859" r="118.824" fill="#1729CE"/>
<circle cx="2099.33" cy="631.461" r="85.2346" fill="#1729CE"/>
<path fill-rule="evenodd" clip-rule="evenodd" d="M1784.99 726.744L1787.73 729.065C1846.18 778.644 1788.02 871.411 1717.93 840.39L1602.08 789.116L1558.88 769.998L1589.02 733.625L1669.86 636.06C1718.77 577.034 1812.21 634.149 1781.98 704.592L1779.72 709.854C1811.2 692.839 1842.49 667.78 1853.96 634.534L1869.47 696.266L1869.41 696.283L1884.92 758.014C1859.36 734.383 1820.49 726.998 1784.99 726.744Z" fill="#D40606"/>
<path fill-rule="evenodd" clip-rule="evenodd" d="M2175.58 887.544L2173.64 891.458C2132.34 975.045 2005.73 933.712 2021.7 841.856L2048.1 690.031L2057.95 633.422L2109.75 658.281L2248.7 724.96C2332.77 765.301 2292.87 892.397 2200.83 877.461L2193.95 876.344C2223.3 908.495 2262.1 938.048 2304.71 941.788L2236.42 978.276L2236.39 978.208L2168.1 1014.69C2188.47 977.574 2185.73 929.511 2175.58 887.544Z" fill="#D40606"/>
<path d="M1947.8 1220.31L2031.83 976.669L2234.97 1135.27L2150.94 1378.91L1947.8 1220.31Z" fill="#D45106"/>
<path fill-rule="evenodd" clip-rule="evenodd" d="M1919 1239.15C1952.47 1231.03 1990.54 1248.35 2017.64 1266.49L1964.23 1277.42C1929.95 1284.43 1917.83 1327.18 1943.32 1351.15C1968.82 1375.11 2010.74 1360.37 2015.62 1325.72L2023.16 1272.22L2053.71 1349.85C2065.32 1379.32 2103.65 1386.68 2125.34 1363.6C2147.03 1340.52 2137.31 1302.72 2107.18 1292.96L2027.92 1267.3L2080.68 1256.5C2114.97 1249.49 2127.09 1206.74 2101.59 1182.77C2076.09 1158.81 2034.18 1173.55 2029.29 1208.2L2021.71 1262.03C2001.96 1236.11 1982.38 1199.24 1988.41 1165.39L1953.72 1202.29L2020.25 1264.82L2020.25 1264.82L1953.69 1202.25L1919 1239.15Z" fill="#E8038D"/>
<path fill-rule="evenodd" clip-rule="evenodd" d="M2003.08 1153.89L2003.07 1153.89L1959.91 1262.02L1888 1233.32C1929.51 1224.97 1964.5 1191.9 1990.05 1157.09L1985.8 1158.14C1895.27 1180.42 1845.28 1056.97 1925.82 1009.99L2058.93 932.335L2108.56 903.382L2122.93 959.013L2161.49 1108.24C2184.82 1198.52 2061.92 1249.91 2014.03 1169.91L2010.45 1163.94C2004.78 1207.1 2007.19 1255.8 2031.79 1290.8L1959.88 1262.1L2003.08 1153.89Z" fill="#D40606"/>
<path fill-rule="evenodd" clip-rule="evenodd" d="M2138.41 1331.59L2141.28 1330.89C2202.37 1315.86 2236.1 1399.17 2181.75 1430.87L2091.91 1483.26L2058.42 1502.79L2048.72 1465.25L2022.72 1364.55C2006.98 1303.62 2089.92 1268.95 2122.23 1322.94L2124.65 1326.98C2128.48 1297.85 2126.86 1264.98 2110.26 1241.36L2158.79 1260.73L2158.77 1260.78L2207.29 1280.16C2179.27 1285.79 2155.66 1308.1 2138.41 1331.59Z" fill="#D40606"/>
<path fill-rule="evenodd" clip-rule="evenodd" d="M2066 665.596L2066 665.596L2109.9 598.863L2154.28 628.061C2125.23 627.954 2097.16 645.359 2075.2 665.235L2078.19 665.118C2142.11 662.609 2158.7 752.469 2098.11 772.954L1997.95 806.813L1960.6 819.437L1958.6 780.066L1953.24 674.46C1949.99 610.569 2039.67 592.95 2060.84 653.319L2062.42 657.824C2072.18 629.595 2077.27 596.53 2065.56 569.621L2109.93 598.819L2066 665.596Z" fill="#D40606"/>
<path d="M1710.6 367.797L1906.61 292.425L1914.24 502.289L1718.23 577.66L1710.6 367.797Z" fill="#D45106"/>
<path d="M1746.5 709.862L1955.68 728.41L1870.2 920.226L1661.02 901.678L1746.5 709.862Z" fill="#5D00D2"/>
<path d="M2059.6 512.057L2230.84 459.126L2225.28 638.275L2054.04 691.206L2059.6 512.057Z" fill="#D45106"/>
<path fill-rule="evenodd" clip-rule="evenodd" d="M2205.27 611.161C2159.49 592.553 2129.69 540.464 2113.34 496.617L2184.7 528.678C2230.49 549.255 2280.46 509.641 2270.86 460.356C2261.27 411.072 2200.1 393.088 2165.36 429.339L2111.73 485.309L2141.24 369.305C2152.44 325.261 2113.98 284.547 2069.37 293.229C2024.76 301.911 2004.38 354.078 2031.28 390.705L2102.05 487.049L2031.56 455.379C1985.76 434.802 1935.8 474.416 1945.39 523.7C1954.98 572.984 2016.16 590.969 2050.9 554.717L2104.87 498.397C2106.12 545.146 2098.01 604.484 2062.6 638.854L2133.93 624.972L2108.9 496.366L2108.9 496.368L2133.94 625.043L2205.27 611.161Z" fill="#E8038D"/>
<path fill-rule="evenodd" clip-rule="evenodd" d="M1830.71 687.013C1783.56 673.404 1748.7 625.059 1727.98 583.457L1801.81 607.69C1849.18 623.242 1894.4 578.912 1879.8 531.234C1865.19 483.557 1802.9 472.167 1772.36 511.59L1725.21 572.466L1742.28 454.81C1748.75 410.142 1706.52 373.936 1663.37 387.158C1620.21 400.381 1605.51 454.028 1635.9 487.401L1715.84 575.186L1642.92 551.249C1595.54 535.697 1550.32 580.028 1564.93 627.705C1579.54 675.383 1641.83 686.773 1672.36 647.349L1719.8 586.098C1725.91 632.14 1724.08 691.592 1692.69 729.228L1761.69 708.086L1761.71 708.155L1830.71 687.013Z" fill="#E8038D"/>
<path fill-rule="evenodd" clip-rule="evenodd" d="M2039.67 837.376C2070.82 875.31 2072.14 934.894 2065.64 980.915L2018.55 919.119C1988.32 879.46 1925.94 890.365 1910.96 937.928C1895.99 985.49 1940.86 1030.17 1988.36 1014.99L2061.7 991.542L1980.98 1078.82C1950.33 1111.95 1964.61 1165.71 2007.66 1179.27C2050.71 1192.83 2093.22 1156.95 2087.09 1112.24L2070.97 994.611L2117.49 1055.65C2147.71 1095.31 2210.09 1084.4 2225.07 1036.84C2240.05 989.28 2195.17 944.599 2147.68 959.783L2073.88 983.373C2094.94 941.974 2130.13 894.022 2177.32 880.799L2108.49 859.122L2069.4 983.228L2069.4 983.226L2108.51 859.053L2039.67 837.376Z" fill="#E8038D"/>
<path fill-rule="evenodd" clip-rule="evenodd" d="M1954.78 900.31C1944.32 875.228 1953.12 843.425 1963.91 820.061L1979.02 860.338C1988.72 886.189 2023.53 890.359 2039.06 867.53C2054.59 844.701 2037.93 813.851 2010.32 814.324L1967.7 815.053L2024.42 781.657C2045.96 768.978 2046.97 738.194 2026.3 724.137C2005.64 710.08 1977.37 722.32 1973.49 747.008L1963.27 811.951L1948.34 772.16C1938.65 746.309 1903.83 742.139 1888.3 764.968C1872.77 787.797 1889.43 818.648 1917.04 818.175L1959.93 817.441C1942.16 836.032 1915.85 855.842 1888.72 855.323L1921.76 877.8L1962.29 818.229L1962.29 818.23L1921.74 877.834L1954.78 900.31Z" fill="#E8038D"/>
<path fill-rule="evenodd" clip-rule="evenodd" d="M1725.2 573.869C1659.62 571.346 1642.68 663.55 1704.87 684.503L1807.66 719.138L1845.98 732.05L1847.99 691.663L1853.38 583.345C1856.64 517.812 1764.65 499.822 1742.99 561.756L1738.57 574.384L1725.2 573.869Z" fill="#E80356"/>
<path fill-rule="evenodd" clip-rule="evenodd" d="M1919.57 758.851C1878.46 704.42 1793.11 751.448 1817.16 815.281L1856.92 920.79L1871.74 960.124L1905.57 935.17L1996.29 868.243C2051.17 827.752 2005.12 741.883 1941.03 765.197L1927.96 769.951L1919.57 758.851Z" fill="#E80356"/>
<path fill-rule="evenodd" clip-rule="evenodd" d="M2119.84 629.304C2055.7 590.733 1988.08 673.556 2038.7 728.682L2122.37 819.801L2153.57 853.77L2177.78 814.518L2242.72 709.243C2282.01 645.55 2199.97 577 2144.27 626.979L2132.92 637.169L2119.84 629.304Z" fill="#E80356"/>
<path fill-rule="evenodd" clip-rule="evenodd" d="M2109.29 370.459C2038.75 366.677 2019.01 465.646 2085.61 489.21L2195.68 528.159L2236.71 542.679L2239.54 499.242L2247.1 382.742C2251.68 312.258 2152.96 291.399 2128.63 357.71L2123.67 371.231L2109.29 370.459Z" fill="#E80356"/>
<path d="M1997.45 929.745L2067.07 727.884L2235.37 859.294L2165.75 1061.16L1997.45 929.745Z" fill="#1729CE"/>
<path fill-rule="evenodd" clip-rule="evenodd" d="M2050.78 1350.97C2077.64 1385.94 2077.09 1439.49 2069.92 1480.62L2029.43 1423.76C2003.44 1387.26 1947.11 1395.24 1932.28 1437.51C1917.44 1479.78 1956.43 1521.2 1999.52 1508.96L2066.06 1490.04L1991.03 1566.05C1962.55 1594.91 1973.8 1643.6 2012.06 1657.03C2050.32 1670.46 2089.54 1639.49 2085.34 1599.15L2074.29 1493.07L2114.28 1549.23C2140.27 1585.73 2196.6 1577.75 2211.43 1535.48C2226.27 1493.21 2187.28 1451.79 2144.19 1464.03L2077.24 1483.06C2097.35 1446.51 2130.35 1404.48 2173.11 1393.98L2111.94 1372.51L2111.96 1372.45L2050.78 1350.97Z" fill="#E8038D"/>
<circle cx="508.692" cy="1327.6" r="141.755" fill="#1729CE"/>
<circle cx="610.842" cy="1036.26" r="119.328" fill="#1729CE"/>
<circle cx="582.195" cy="865.859" r="118.824" fill="#1729CE"/>
<circle cx="593.326" cy="631.461" r="85.2346" fill="#1729CE"/>
<path fill-rule="evenodd" clip-rule="evenodd" d="M278.994 726.744L281.731 729.065C340.184 778.644 282.016 871.411 211.927 840.39L96.0782 789.116L52.8836 769.998L83.0214 733.626L163.862 636.06C212.771 577.034 306.209 634.149 275.977 704.592L273.719 709.854C305.204 692.84 336.494 667.78 347.958 634.534L363.471 696.267L363.405 696.283L378.918 758.015C353.364 734.383 314.487 726.999 278.994 726.744Z" fill="#D40606"/>
<path fill-rule="evenodd" clip-rule="evenodd" d="M669.579 887.544L667.645 891.458C626.344 975.045 499.73 933.713 515.702 841.856L542.103 690.031L551.946 633.423L603.748 658.281L742.702 724.961C826.769 765.302 786.874 892.398 694.834 877.461L687.952 876.344C717.305 908.495 756.097 938.048 798.712 941.789L730.423 978.276L730.387 978.209L662.1 1014.69C682.467 977.574 679.732 929.511 669.579 887.544Z" fill="#5D00D2"/>
<path d="M441.801 1220.31L525.83 976.669L728.965 1135.27L644.937 1378.91L441.801 1220.31Z" fill="#D45106"/>
<path fill-rule="evenodd" clip-rule="evenodd" d="M413.002 1239.15C446.472 1231.03 484.535 1248.35 511.642 1266.49L458.229 1277.42C423.948 1284.43 411.827 1327.18 437.323 1351.15C462.819 1375.11 504.738 1360.37 509.619 1325.72L517.157 1272.22L547.714 1349.85C559.315 1379.32 597.648 1386.68 619.34 1363.6C641.031 1340.52 631.313 1302.72 601.181 1292.96L521.919 1267.3L574.685 1256.5C608.965 1249.49 621.087 1206.74 595.591 1182.77C570.095 1158.81 528.176 1173.55 523.294 1208.2L515.71 1262.03C495.961 1236.11 476.38 1199.24 482.408 1165.39L447.724 1202.29L514.253 1264.82L514.252 1264.82L447.686 1202.25L413.002 1239.15Z" fill="#E8038D"/>
<path fill-rule="evenodd" clip-rule="evenodd" d="M465.14 1093.5L465.139 1093.5L421.972 1201.64L350.064 1172.94C391.576 1164.59 426.567 1131.52 452.114 1096.71L447.869 1097.76C357.338 1120.04 307.349 996.586 387.882 949.605L520.99 871.953L570.621 843L584.995 898.631L623.553 1047.85C646.88 1138.13 523.985 1189.53 476.093 1109.53L472.518 1103.55C466.849 1146.72 469.25 1195.42 493.852 1230.42L421.944 1201.71L465.14 1093.5Z" fill="#5D00D2"/>
<path fill-rule="evenodd" clip-rule="evenodd" d="M632.414 1331.59L635.278 1330.89C696.374 1315.86 730.097 1399.17 675.747 1430.87L585.914 1483.26L552.419 1502.79L542.723 1465.25L516.715 1364.55C500.981 1303.62 583.919 1268.95 616.232 1322.94L618.648 1326.98C622.479 1297.85 620.864 1264.98 604.263 1241.36L652.787 1260.73L652.767 1260.78L701.288 1280.16C673.273 1285.79 649.657 1308.1 632.414 1331.59Z" fill="#D40606"/>
<path fill-rule="evenodd" clip-rule="evenodd" d="M559.998 665.597L559.999 665.596L603.905 598.863L648.282 628.061C619.232 627.954 591.161 645.359 569.195 665.236L572.192 665.118C636.109 662.609 652.704 752.47 592.106 772.954L491.946 806.813L454.601 819.437L452.601 780.067L447.239 674.461C443.995 610.569 533.674 592.95 554.843 653.319L556.423 657.824C566.177 629.595 571.27 596.53 559.556 569.622L603.933 598.819L559.998 665.597Z" fill="#D40606"/>
<path d="M204.605 367.797L400.615 292.426L408.236 502.289L212.226 577.66L204.605 367.797Z" fill="#1729CE"/>
<path d="M240.504 709.862L449.685 728.41L364.201 920.226L155.02 901.678L240.504 709.862Z" fill="#D45106"/>
<path d="M553.601 512.057L724.842 459.126L719.285 638.276L548.044 691.207L553.601 512.057Z" fill="#D45106"/>
<path fill-rule="evenodd" clip-rule="evenodd" d="M699.268 611.161C653.486 592.553 623.693 540.464 607.337 496.618L678.695 528.678C724.494 549.255 774.457 509.641 764.865 460.357C755.273 411.073 694.1 393.088 659.362 429.34L605.728 485.309L635.238 369.305C646.442 325.261 607.98 284.547 563.37 293.229C518.761 301.911 498.376 354.079 525.281 390.706L596.051 487.049L525.562 455.379C479.763 434.802 429.8 474.416 439.392 523.7C448.984 572.985 510.157 590.969 544.895 554.717L598.865 498.398C600.118 545.146 592.008 604.485 556.597 638.854L627.925 624.972L602.895 496.366L602.897 496.368L627.94 625.043L699.268 611.161Z" fill="#E8038D"/>
<path fill-rule="evenodd" clip-rule="evenodd" d="M324.714 687.014C277.557 673.405 242.704 625.06 221.982 583.457L295.806 607.69C343.184 623.242 388.404 578.912 373.796 531.234C359.188 483.557 296.896 472.167 266.362 511.59L219.213 572.466L236.276 454.81C242.753 410.142 200.524 373.936 157.369 387.158C114.213 400.381 99.5145 454.029 129.903 487.401L209.839 575.186L136.919 551.25C89.5414 535.697 44.3213 580.028 58.9292 627.705C73.537 675.383 135.829 686.773 166.363 647.349L213.803 586.098C219.911 632.14 218.082 691.593 186.688 729.228L255.69 708.086L255.711 708.155L324.714 687.014Z" fill="#E8038D"/>
<path fill-rule="evenodd" clip-rule="evenodd" d="M533.671 837.376C564.817 875.31 566.142 934.894 559.645 980.915L512.546 919.119C482.32 879.46 419.941 890.366 404.963 937.928C389.985 985.491 434.86 1030.17 482.357 1014.99L555.698 991.543L474.976 1078.82C444.329 1111.95 458.61 1165.71 501.662 1179.27C544.713 1192.83 587.222 1156.95 581.092 1112.24L564.965 994.611L611.488 1055.65C641.714 1095.31 704.093 1084.41 719.071 1036.84C734.049 989.28 689.174 944.6 641.677 959.783L567.882 983.373C588.938 941.975 624.13 894.023 671.323 880.8L602.487 859.123L563.405 983.228L563.405 983.226L602.508 859.054L533.671 837.376Z" fill="#D40606"/>
<path fill-rule="evenodd" clip-rule="evenodd" d="M448.779 900.31C438.317 875.229 447.121 843.426 457.908 820.061L473.02 860.339C482.719 886.19 517.534 890.36 533.064 867.531C548.594 844.702 531.929 813.851 504.323 814.324L461.699 815.054L518.424 781.657C539.961 768.978 540.965 738.194 520.302 724.137C499.638 710.08 471.375 722.32 467.491 747.008L457.274 811.952L442.344 772.161C432.645 746.31 397.83 742.14 382.3 764.969C366.77 787.798 383.435 818.648 411.042 818.175L453.933 817.441C436.164 836.032 409.854 855.842 382.721 855.324L415.761 877.8L456.286 818.229L456.286 818.231L415.739 877.834L448.779 900.31Z" fill="#E8038D"/>
<path fill-rule="evenodd" clip-rule="evenodd" d="M219.198 573.87C153.624 571.346 136.682 663.55 198.868 684.504L301.656 719.138L339.976 732.05L341.987 691.663L347.38 583.346C350.643 517.813 258.652 499.822 236.987 561.756L232.569 574.384L219.198 573.87Z" fill="#5D00D2"/>
<path fill-rule="evenodd" clip-rule="evenodd" d="M413.574 758.852C372.462 704.42 287.11 751.448 311.163 815.281L350.919 920.79L365.74 960.124L399.566 935.17L490.285 868.244C545.172 827.752 499.124 741.884 435.027 765.197L421.958 769.951L413.574 758.852Z" fill="#E80356"/>
<path fill-rule="evenodd" clip-rule="evenodd" d="M613.838 629.304C549.699 590.733 482.077 673.556 532.7 728.683L616.374 819.801L647.568 853.77L671.781 814.518L736.719 709.243C776.008 645.55 693.972 577 638.273 626.979L626.917 637.169L613.838 629.304Z" fill="#E80356"/>
<path fill-rule="evenodd" clip-rule="evenodd" d="M603.286 370.46C532.747 366.678 513.012 465.646 579.606 489.21L689.679 528.159L730.715 542.68L733.535 499.242L741.101 382.742C745.678 312.259 646.956 291.399 622.63 357.711L617.67 371.231L603.286 370.46Z" fill="#E80356"/>
<path d="M491.448 929.746L561.068 727.884L729.373 859.294L659.753 1061.16L491.448 929.746Z" fill="#D45106"/>
<path fill-rule="evenodd" clip-rule="evenodd" d="M544.782 1350.97C571.643 1385.95 571.093 1439.49 563.916 1480.62L523.427 1423.76C497.443 1387.26 441.115 1395.24 426.279 1437.51C411.443 1479.78 450.432 1521.2 493.523 1508.96L560.059 1490.04L485.032 1566.05C456.548 1594.91 467.803 1643.6 506.063 1657.03C544.324 1670.46 583.539 1639.49 579.339 1599.15L568.29 1493.07L608.283 1549.23C634.267 1585.73 690.595 1577.75 705.431 1535.48C720.267 1493.21 681.278 1451.79 638.187 1464.03L571.239 1483.06C591.352 1446.51 624.351 1404.48 667.111 1393.98L605.937 1372.51L605.958 1372.45L544.782 1350.97Z" fill="#E8038D"/>
</svg>
