<svg width="684" height="918" viewBox="0 0 684 918" fill="none" xmlns="http://www.w3.org/2000/svg">
<circle cx="176.798" cy="384.354" r="46.464" fill="#1729CE"/>
<circle cx="210.279" cy="288.858" r="39.1131" fill="#1729CE"/>
<circle cx="200.889" cy="233.004" r="38.9477" fill="#1729CE"/>
<circle cx="204.538" cy="156.173" r="27.9379" fill="#1729CE"/>
<path fill-rule="evenodd" clip-rule="evenodd" d="M101.507 187.407L102.406 188.17C121.566 204.42 102.5 234.827 79.5259 224.659L41.5534 207.853L27.3953 201.587L37.2737 189.664L63.7714 157.685C79.8024 138.337 110.429 157.058 100.52 180.148L99.7809 181.87C110.1 176.294 120.354 168.08 124.111 157.184L129.196 177.419L129.177 177.424L134.261 197.657C125.885 189.911 113.141 187.49 101.507 187.407Z" fill="#D40606"/>
<path fill-rule="evenodd" clip-rule="evenodd" d="M231.482 236.175L231.482 236.175L249.465 269.831L227.081 281.791C233.756 269.625 232.861 253.873 229.534 240.118L228.902 241.396C215.365 268.794 173.864 255.246 179.099 225.138L187.753 175.373L190.979 156.818L207.959 164.966L253.504 186.822C281.059 200.045 267.983 241.704 237.814 236.808L235.555 236.441C245.176 246.98 257.892 256.667 271.86 257.893L249.477 269.853L231.482 236.175Z" fill="#5D00D2"/>
<path d="M154.874 349.185L182.416 269.327L248.999 321.314L221.457 401.172L154.874 349.185Z" fill="#D45106"/>
<path fill-rule="evenodd" clip-rule="evenodd" d="M145.429 355.363C156.4 352.7 168.875 358.379 177.76 364.323L160.255 367.905C149.019 370.205 145.045 384.217 153.403 392.072C161.76 399.927 175.5 395.095 177.1 383.738L179.57 366.202L189.586 391.646C193.389 401.306 205.953 403.719 213.063 396.154C220.173 388.59 216.988 376.199 207.111 373.001L181.13 364.589L198.428 361.049C209.664 358.749 213.637 344.737 205.28 336.882C196.923 329.026 183.183 333.859 181.583 345.216L179.097 362.865C172.623 354.367 166.203 342.283 168.179 331.184L156.811 343.279L178.617 363.775L178.615 363.775L156.798 343.268L145.429 355.363Z" fill="#E8038D"/>
<path fill-rule="evenodd" clip-rule="evenodd" d="M158.253 308.674L156.864 309.016C127.19 316.32 110.805 275.855 137.202 260.455L180.832 235.003L197.099 225.513L201.811 243.747L214.449 292.659C222.095 322.25 181.813 339.098 166.115 312.874L164.941 310.911C163.082 325.06 163.869 341.027 171.933 352.499L148.363 343.09L148.373 343.065L124.804 333.657C138.41 330.921 149.879 320.083 158.253 308.674Z" fill="#5D00D2"/>
<path fill-rule="evenodd" clip-rule="evenodd" d="M217.349 385.663L218.285 385.433C238.311 380.506 249.365 407.815 231.55 418.205L202.105 435.378L191.126 441.781L187.948 429.475L179.423 396.466C174.266 376.496 201.451 365.13 212.042 382.829L212.838 384.157C214.095 374.607 213.566 363.829 208.123 356.084L224.028 362.435L224.022 362.452L239.926 368.803C230.743 370.648 223.001 377.963 217.349 385.663Z" fill="#D40606"/>
<path fill-rule="evenodd" clip-rule="evenodd" d="M193.614 167.366L193.614 167.366L208.007 145.49L222.553 155.061C213.03 155.026 203.828 160.732 196.628 167.248L197.617 167.209C218.567 166.386 224.006 195.841 204.144 202.555L171.314 213.653L159.073 217.791L158.418 204.886L156.66 170.271C155.597 149.329 184.991 143.554 191.93 163.341L192.446 164.811C195.642 155.56 197.31 144.724 193.471 135.905L208.017 145.476L193.614 167.366Z" fill="#D40606"/>
<path d="M77.1234 69.7525L141.371 45.0476L143.869 113.836L79.6215 138.541L77.1234 69.7525Z" fill="#1729CE"/>
<path d="M88.8896 181.872L157.454 187.952L129.435 250.825L60.8701 244.745L88.8896 181.872Z" fill="#D45106"/>
<path d="M191.515 117.035L247.644 99.6852L245.822 158.406L189.693 175.756L191.515 117.035Z" fill="#D45106"/>
<path fill-rule="evenodd" clip-rule="evenodd" d="M239.258 149.518C224.252 143.419 214.487 126.345 209.125 111.973L232.515 122.482C247.527 129.226 263.904 116.242 260.76 100.088C257.616 83.9334 237.565 78.0386 226.178 89.9209L208.597 108.267L218.27 70.2427C221.943 55.8061 209.336 42.4609 194.714 45.3067C180.092 48.1525 173.41 65.2518 182.229 77.2573L205.426 108.836L182.322 98.4558C167.31 91.7112 150.933 104.696 154.078 120.85C157.222 137.004 177.273 142.899 188.659 131.017L206.349 112.556C206.76 127.879 204.102 147.329 192.495 158.595L215.874 154.045L215.879 154.068L239.258 149.518Z" fill="#E8038D"/>
<path fill-rule="evenodd" clip-rule="evenodd" d="M116.493 174.384C101.036 169.923 89.6127 154.077 82.8204 140.441L107.015 148.383C122.545 153.481 137.367 138.95 132.579 123.323C127.79 107.695 107.372 103.962 97.3641 116.884L81.9116 136.835L87.504 98.2725C89.6273 83.6313 75.7856 71.7639 61.6403 76.0979C47.4949 80.4319 42.6769 98.0164 52.6377 108.955L78.8383 137.728L54.9377 129.883C39.4083 124.785 24.5862 139.316 29.3743 154.943C34.1624 170.571 54.5804 174.304 64.5887 161.382L80.1384 141.305C82.1403 156.397 81.5411 175.884 71.2508 188.22L93.8684 181.291L81.3748 140.514L81.3751 140.514L93.8755 181.313L116.493 174.384Z" fill="#E8038D"/>
<path fill-rule="evenodd" clip-rule="evenodd" d="M184.986 223.668C195.196 236.102 195.63 255.632 193.5 270.717L178.062 250.461C168.154 237.462 147.708 241.036 142.798 256.626C137.889 272.216 152.598 286.861 168.166 281.885L192.206 274.2L165.747 302.807C155.702 313.668 160.383 331.289 174.494 335.733C188.606 340.177 202.539 328.417 200.53 313.76L195.244 275.208L210.491 295.214C220.399 308.213 240.845 304.639 245.755 289.049C250.664 273.459 235.955 258.813 220.387 263.79L196.2 271.522C203.102 257.953 214.637 242.235 230.106 237.901L207.543 230.796L194.732 271.475L194.732 271.474L207.549 230.773L184.986 223.668Z" fill="#D40606"/>
<path fill-rule="evenodd" clip-rule="evenodd" d="M157.158 244.298C153.729 236.076 156.614 225.652 160.15 217.993L165.104 231.195C168.283 239.668 179.694 241.035 184.785 233.552C189.875 226.069 184.413 215.957 175.364 216.112L161.394 216.351L179.986 205.405C187.045 201.249 187.374 191.159 180.601 186.552C173.828 181.944 164.564 185.956 163.291 194.048L159.943 215.333L155.05 202.294C151.871 193.82 140.46 192.453 135.369 199.936C130.279 207.419 135.741 217.531 144.79 217.376L158.846 217.135C153.022 223.229 144.398 229.722 135.506 229.552L146.335 236.919L159.618 217.393L159.618 217.394L146.328 236.93L157.158 244.298Z" fill="#E8038D"/>
<path fill-rule="evenodd" clip-rule="evenodd" d="M81.8975 137.3C60.4042 136.473 54.8504 166.696 75.2337 173.564L108.925 184.916L121.486 189.148L122.145 175.91L123.913 140.406C124.982 118.926 94.8295 113.029 87.7282 133.33L86.2802 137.469L81.8975 137.3Z" fill="#5D00D2"/>
<path fill-rule="evenodd" clip-rule="evenodd" d="M145.625 197.932C132.149 180.091 104.173 195.506 112.057 216.429L125.088 251.012L129.946 263.905L141.033 255.726L170.769 233.789C188.759 220.517 173.666 192.371 152.656 200.012L148.373 201.571L145.625 197.932Z" fill="#E80356"/>
<path fill-rule="evenodd" clip-rule="evenodd" d="M211.262 155.466C190.239 142.823 168.074 169.971 184.667 188.04L212.093 217.907L222.318 229.041L230.254 216.175L251.54 181.668C264.417 160.792 237.528 138.322 219.271 154.704L215.549 158.044L211.262 155.466Z" fill="#E80356"/>
<path fill-rule="evenodd" clip-rule="evenodd" d="M207.803 70.6226C184.682 69.3829 178.213 101.823 200.041 109.546L236.12 122.313L249.571 127.072L250.496 112.834L252.975 74.6485C254.476 51.5458 222.117 44.7083 214.143 66.4437L212.517 70.8753L207.803 70.6226Z" fill="#E80356"/>
<path d="M171.142 253.945L193.962 187.779L249.128 230.852L226.308 297.018L171.142 253.945Z" fill="#D45106"/>
<path fill-rule="evenodd" clip-rule="evenodd" d="M188.632 392.014C197.436 403.476 197.256 421.026 194.904 434.508L181.632 415.869C173.115 403.908 154.652 406.521 149.789 420.376C144.926 434.231 157.706 447.81 171.83 443.795L193.639 437.596L169.046 462.512C159.709 471.971 163.399 487.93 175.94 492.332C188.48 496.734 201.334 486.581 199.958 473.362L196.336 438.587L209.445 456.998C217.962 468.959 236.425 466.346 241.288 452.491C246.151 438.636 233.371 425.057 219.247 429.071L197.307 435.307C203.9 423.325 214.715 409.551 228.73 406.11L208.678 399.072L195.986 435.231L195.986 435.23L208.684 399.052L188.632 392.014Z" fill="#E8038D"/>
<circle cx="372.762" cy="371.142" r="44.5378" fill="#1729CE"/>
<circle cx="437.932" cy="467.095" r="44.5378" fill="#1729CE"/>
<circle cx="322.659" cy="512.616" r="44.5378" fill="#1729CE"/>
<circle cx="443.073" cy="519.869" r="44.5378" fill="#1729CE"/>
<circle cx="444.153" cy="284.032" r="44.5378" fill="#1729CE"/>
<circle cx="325.932" cy="247.026" r="44.5378" fill="#1729CE"/>
<path fill-rule="evenodd" clip-rule="evenodd" d="M321.853 395.795L321.853 395.796L339.089 428.055L317.633 439.519C324.031 427.858 323.173 412.761 319.984 399.577L319.379 400.801C306.403 427.064 266.622 414.077 271.641 385.217L279.935 337.515L283.028 319.73L299.304 327.54L342.961 348.49C369.374 361.164 356.84 401.097 327.922 396.404L325.76 396.053C334.982 406.153 347.169 415.436 360.557 416.611L339.101 428.075L321.853 395.795Z" fill="#D40606"/>
<path fill-rule="evenodd" clip-rule="evenodd" d="M426.133 347.826L426.133 347.826L392.138 361.344L383.149 338.74C394.023 346.405 409.127 347.242 422.588 345.548L421.432 344.805C396.788 328.969 414.148 290.893 442.264 299.112L488.737 312.696L506.064 317.762L496.481 333.06L470.773 374.097C455.221 398.924 416.943 381.997 424.845 353.786L425.435 351.679C414.364 359.712 403.772 370.784 401.104 383.958L392.115 361.354L426.133 347.826Z" fill="#1729CE"/>
<path fill-rule="evenodd" clip-rule="evenodd" d="M459.908 494.662L459.907 494.664L480.433 533.355L454.703 547.005C462.406 533.064 461.43 514.98 457.658 499.182L456.926 500.651C441.297 532.049 393.712 516.36 399.823 481.823L409.923 424.738L413.689 403.453L433.148 412.862L485.347 438.1C516.927 453.369 501.778 501.137 467.17 495.416L464.585 494.989C475.592 507.115 490.151 518.274 506.177 519.729L480.447 533.379L459.908 494.662Z" fill="#D40606"/>
<path fill-rule="evenodd" clip-rule="evenodd" d="M458.268 404.081L458.268 404.081L501.132 429.526L484.211 458.03C483.44 439.918 471.781 422.922 458.758 409.803L458.918 411.669C462.324 451.439 406.789 464.374 392.273 427.191L368.28 365.733L359.334 342.818L383.818 340.437L449.492 334.05C489.225 330.186 502.792 385.579 465.772 400.515L463.01 401.629C480.888 406.896 501.646 409.118 518.082 401.04L501.162 429.544L458.268 404.081Z" fill="#E8038D"/>
<path fill-rule="evenodd" clip-rule="evenodd" d="M363.178 348.523L362.377 349.64C345.294 373.436 308.161 354.14 317.816 326.484L333.775 280.772L339.725 263.728L354.51 274.086L394.169 301.871C418.163 318.681 399.288 356.037 371.522 346.693L369.448 345.995C376.9 357.465 387.412 368.613 400.431 371.955L377.394 379.769L377.386 379.745L354.349 387.559C362.565 377.094 364.177 362.053 363.178 348.523Z" fill="#D40606"/>
<path fill-rule="evenodd" clip-rule="evenodd" d="M440.459 272.525L440.459 272.525L454.253 251.56L468.196 260.733C459.069 260.7 450.25 266.167 443.349 272.411L444.292 272.374C464.374 271.586 469.587 299.819 450.548 306.255L419.079 316.893L407.346 320.86L406.718 308.49L405.033 275.31C404.013 255.236 432.189 249.7 438.841 268.667L439.336 270.08C442.4 261.212 443.999 250.826 440.319 242.373L454.261 251.546L440.459 272.525Z" fill="#D40606"/>
<path d="M322.218 194.462L376.925 173.425L379.053 232L324.345 253.036L322.218 194.462Z" fill="#D45106"/>
<path d="M356.856 248.164L404.651 233.391L403.1 283.392L355.305 298.166L356.856 248.164Z" fill="#D45106"/>
<path fill-rule="evenodd" clip-rule="evenodd" d="M397.513 275.823C384.734 270.629 376.419 256.09 371.854 243.852L391.771 252.801C404.554 258.544 418.499 247.487 415.822 233.732C413.145 219.976 396.071 214.957 386.375 225.075L371.406 240.696L379.642 208.319C382.769 196.026 372.034 184.662 359.583 187.086C347.132 189.509 341.443 204.069 348.952 214.292L368.705 241.182L349.03 232.342C336.247 226.599 322.302 237.656 324.979 251.411C327.656 265.167 344.73 270.186 354.426 260.068L369.488 244.35C369.838 257.398 367.574 273.96 357.691 283.553L377.599 279.678L370.612 243.779L370.615 243.782L377.605 279.698L397.513 275.823Z" fill="#E8038D"/>
<path fill-rule="evenodd" clip-rule="evenodd" d="M325.865 501.48C322.202 478.053 336.261 452.927 350.251 435.363L354.702 472.634C357.559 496.554 386.199 507.311 404.097 491.186C421.994 475.06 414.272 445.458 390.777 440.131L354.501 431.906L409.502 415.371C430.384 409.094 437.622 383.214 423.027 367.013C408.431 350.813 381.938 355.323 373.525 375.44L351.395 428.353L346.999 391.539C344.142 367.619 315.502 356.862 297.604 372.987C279.707 389.113 287.429 418.715 310.924 424.042L347.426 432.318C328.509 444.387 302.102 455.718 279.215 449.649L302.553 475.553L349.252 433.478L349.251 433.481L302.527 475.577L325.865 501.48Z" fill="#E8038D"/>
<path d="M292.446 272.862L358.169 278.689L331.311 338.956L265.588 333.128L292.446 272.862Z" fill="#D45106"/>
<path d="M283.878 452.803L262.858 390.261L328.837 390.694L349.857 453.236L283.878 452.803Z" fill="#D45106"/>
<path d="M360.863 596.006L339.842 533.464L405.821 533.897L426.842 596.439L360.863 596.006Z" fill="#D45106"/>
<path d="M330.904 399.555L424.88 397.701L396.11 487.184L302.134 489.038L330.904 399.555Z" fill="#D45106"/>
<path fill-rule="evenodd" clip-rule="evenodd" d="M433.385 455.491C433.027 439.682 444.534 424.31 455.328 413.932L454.988 438.963C454.77 455.027 472.755 464.66 486.006 455.577C499.257 446.494 496.76 426.245 481.698 420.654L458.444 412.023L496.259 405.937C510.616 403.627 517.68 387.156 509.458 375.162C501.236 363.167 483.327 363.815 475.993 376.372L456.7 409.409L457.036 384.676C457.254 368.612 439.269 358.978 426.018 368.062C412.767 377.145 415.265 397.394 430.326 402.984L453.728 411.67C440.161 417.983 421.706 423.147 407.112 417.12L420.258 436.298L454.84 412.593L454.839 412.596L420.239 436.312L433.385 455.491Z" fill="#D45106"/>
<path fill-rule="evenodd" clip-rule="evenodd" d="M418.586 557.855C418.228 542.046 429.735 526.675 440.529 516.297L440.189 541.327C439.971 557.391 457.956 567.024 471.207 557.941C484.459 548.858 481.961 528.609 466.899 523.019L443.645 514.387L481.46 508.301C495.817 505.991 502.881 489.52 494.659 477.526C486.438 465.531 468.528 466.179 461.194 478.737L441.901 511.773L442.237 487.04C442.455 470.976 424.471 461.343 411.219 470.426C397.968 479.509 400.466 499.758 415.527 505.348L438.929 514.035C425.362 520.347 406.907 525.511 392.313 519.484L405.459 538.662L440.041 514.958L440.04 514.96L405.44 538.676L418.586 557.855Z" fill="#E8038D"/>
<path fill-rule="evenodd" clip-rule="evenodd" d="M405.912 464.684C409.083 486.339 395.881 509.403 382.812 525.488L379.037 491.048C376.615 468.945 350.279 458.761 333.617 473.483C316.954 488.205 323.816 515.595 345.452 520.722L378.857 528.638L327.946 543.405C308.617 549.011 301.705 572.832 315.031 587.914C328.356 602.997 352.847 599.072 360.792 580.581L381.693 531.939L385.422 565.961C387.844 588.064 414.18 598.248 430.842 583.526C447.505 568.804 440.643 541.414 419.007 536.287L385.393 528.322C402.959 517.353 427.432 507.133 448.5 512.939L427.193 488.823L383.712 527.239L383.713 527.238L427.219 488.799L405.912 464.684Z" fill="#E8038D"/>
<path fill-rule="evenodd" clip-rule="evenodd" d="M330.924 444.744L332.216 444.966C359.934 449.734 358.85 489.896 330.916 493.163L284.745 498.562L267.53 500.575L270.271 483.461L277.625 437.554C282.074 409.781 322.253 410.407 325.834 438.305L326.103 440.397C332.882 429.148 338.1 415.391 335.523 402.744L351.937 419.36L351.92 419.377L368.334 435.992C355.851 433.289 342.188 438.206 330.924 444.744Z" fill="#D40606"/>
<path fill-rule="evenodd" clip-rule="evenodd" d="M344.189 526.099L344.191 526.1L364.366 506.17L377.619 519.586C367.539 517.403 356.506 521.374 347.411 526.653L348.454 526.833C370.833 530.682 369.958 563.11 347.404 565.748L310.124 570.107L296.225 571.732L298.438 557.914L304.376 520.848C307.968 498.424 340.409 498.929 343.301 521.455L343.518 523.145C348.993 514.062 353.208 502.952 351.127 492.739L364.379 506.155L344.189 526.099Z" fill="#D40606"/>
<path d="M360.815 466.04L441.678 468.118L413.449 543.922L332.586 541.844L360.815 466.04Z" fill="#D45106"/>
<path fill-rule="evenodd" clip-rule="evenodd" d="M369.328 273.112C354.511 268.836 343.561 253.646 337.05 240.575L360.246 248.189C375.131 253.075 389.339 239.147 384.749 224.167C380.16 209.188 360.588 205.609 350.995 217.996L336.183 237.119L341.543 200.156C343.579 186.122 330.311 174.747 316.752 178.901C303.193 183.055 298.575 199.911 308.123 210.396L333.236 237.976L310.326 230.455C295.44 225.569 281.232 239.497 285.822 254.477C290.412 269.456 309.983 273.035 319.577 260.649L334.481 241.404C336.4 255.87 335.826 274.55 325.962 286.374L347.641 279.732L347.648 279.754L369.328 273.112Z" fill="#E8038D"/>
<path fill-rule="evenodd" clip-rule="evenodd" d="M312.981 272.136C322.767 284.054 323.183 302.774 321.142 317.233L306.344 297.818C296.847 285.357 277.249 288.784 272.543 303.727C267.837 318.671 281.936 332.709 296.859 327.939L319.903 320.572L294.54 347.994C284.911 358.405 289.398 375.296 302.925 379.555C316.451 383.815 329.807 372.543 327.881 358.493L322.814 321.535L337.432 340.715C346.929 353.175 366.528 349.749 371.233 334.805C375.939 319.862 361.84 305.824 346.917 310.594L323.731 318.006C330.347 304.999 341.404 289.934 356.231 285.779L334.603 278.968L322.324 317.962L322.323 317.958L334.609 278.946L312.981 272.136Z" fill="#E8038D"/>
<path fill-rule="evenodd" clip-rule="evenodd" d="M405.508 346.271C402.221 338.39 404.987 328.397 408.377 321.056L413.125 333.712C416.173 341.834 427.111 343.144 431.99 335.971C436.87 328.799 431.634 319.106 422.96 319.254L409.571 319.484L427.392 308.991C434.159 305.008 434.475 295.336 427.982 290.919C421.49 286.503 412.61 290.348 411.39 298.105L408.179 318.511L403.488 306.007C400.441 297.885 389.503 296.575 384.623 303.748C379.744 310.92 384.98 320.613 393.653 320.465L407.126 320.234C401.544 326.075 393.277 332.3 384.752 332.137L395.133 339.199L407.87 320.475L407.87 320.477L395.127 339.209L405.508 346.271Z" fill="#E8038D"/>
<path fill-rule="evenodd" clip-rule="evenodd" d="M322.43 243.235C301.828 242.442 296.504 271.411 316.043 277.995L348.337 288.876L360.377 292.933L361.009 280.244L362.703 246.212C363.729 225.622 334.826 219.97 328.019 239.429L326.631 243.396L322.43 243.235Z" fill="#E80356"/>
<path fill-rule="evenodd" clip-rule="evenodd" d="M333.113 266.787C320.196 249.685 293.379 264.461 300.937 284.517L313.428 317.666L318.084 330.024L328.712 322.184L357.215 301.157C374.459 288.435 359.992 261.456 339.853 268.781L335.747 270.274L333.113 266.787Z" fill="#5D00D2"/>
<path fill-rule="evenodd" clip-rule="evenodd" d="M383.026 197.921C362.874 185.802 341.628 211.824 357.533 229.145L383.823 257.773L393.624 268.446L401.231 256.113L421.634 223.037C433.978 203.025 408.203 181.487 390.703 197.19L387.135 200.392L383.026 197.921Z" fill="#E80356"/>
<path fill-rule="evenodd" clip-rule="evenodd" d="M383.533 165.065C361.37 163.877 355.169 194.972 376.093 202.375L410.676 214.613L423.569 219.175L424.455 205.527L426.832 168.924C428.271 146.779 397.253 140.226 389.61 161.06L388.052 165.308L383.533 165.065Z" fill="#E80356"/>
<path d="M356.044 313.928L377.918 250.506L430.797 291.793L408.923 355.216L356.044 313.928Z" fill="#D45106"/>
<path fill-rule="evenodd" clip-rule="evenodd" d="M364.511 224.459C382.576 220.075 403.12 229.426 417.751 239.214L388.923 245.114C370.42 248.901 363.878 271.975 377.639 284.909C391.4 297.844 414.025 289.887 416.66 271.186L420.728 242.314L437.219 284.207C443.481 300.113 464.17 304.086 475.878 291.63C487.586 279.174 482.341 258.77 466.077 253.505L423.296 239.653L451.777 233.824C470.28 230.038 476.822 206.964 463.061 194.029C449.3 181.094 426.675 189.052 424.04 207.753L419.946 236.811C409.287 222.817 398.719 202.922 401.972 184.647L383.252 204.563L383.231 204.543L364.511 224.459Z" fill="#E8038D"/>
<path fill-rule="evenodd" clip-rule="evenodd" d="M437.644 242.116L437.644 242.116L420.165 224.681L431.759 213.058C429.923 221.847 433.451 231.426 438.105 239.31L438.255 238.397C441.463 218.891 469.697 219.445 472.138 239.062L476.172 271.486L477.676 283.575L465.632 281.737L433.328 276.806C413.784 273.822 414.016 245.579 433.607 242.917L435.074 242.718C427.132 238.011 417.435 234.415 408.559 236.291L420.153 224.669L437.644 242.116Z" fill="#D40606"/>
<path fill-rule="evenodd" clip-rule="evenodd" d="M392.429 486.937L392.644 485.629C397.208 457.877 437.377 458.665 440.849 486.574L446.588 532.704L448.727 549.904L431.594 547.288L385.634 540.273C357.829 536.028 358.159 495.847 386.03 492.059L388.111 491.777C376.813 485.081 363.017 479.964 350.39 482.634L366.884 466.098L366.9 466.114L383.394 449.579C380.782 462.086 385.804 475.719 392.429 486.937Z" fill="#5D00D2"/>
<path fill-rule="evenodd" clip-rule="evenodd" d="M352.167 366.369C360.606 377.355 360.434 394.175 358.18 407.098L345.461 389.236C337.297 377.771 319.6 380.276 314.938 393.556C310.277 406.837 322.527 419.853 336.066 416.005L356.97 410.063L333.398 433.945C324.448 443.012 327.985 458.309 340.006 462.528C352.027 466.747 364.348 457.016 363.028 444.344L359.557 411.013L372.121 428.659C380.285 440.125 397.983 437.62 402.644 424.339C407.306 411.058 395.055 398.042 381.517 401.89L360.483 407.869C366.803 396.383 377.17 383.178 390.605 379.88L371.384 373.134L359.221 407.788L359.22 407.783L359.22 407.784L371.388 373.115L352.167 366.369Z" fill="#5D00D2"/>
<path fill-rule="evenodd" clip-rule="evenodd" d="M488.199 593.364L488.199 593.366L609.297 639.462L578.64 719.998C568.608 673.958 531.191 635.615 492.002 607.809L493.236 612.496C519.656 712.844 383.167 770.683 329.443 681.905L240.644 535.167L207.535 480.455L269.186 463.462L434.557 417.881C534.605 390.305 594.006 526.146 505.829 580.875L499.235 584.969C547.37 590.504 601.531 586.961 640.036 558.955L609.38 639.492L488.199 593.364Z" fill="#161616"/>
<circle cx="45.1642" cy="45.1642" r="45.1642" transform="matrix(4.37114e-08 1 1 -4.37114e-08 328.43 682.104)" fill="#1729CE"/>
<circle cx="38.0189" cy="38.0189" r="38.0189" transform="matrix(4.37114e-08 1 1 -4.37114e-08 242.752 721.795)" fill="#1729CE"/>
<circle cx="37.8582" cy="37.8582" r="37.8582" transform="matrix(4.37114e-08 1 1 -4.37114e-08 188.621 712.828)" fill="#1729CE"/>
<circle cx="27.1564" cy="27.1564" r="27.1564" transform="matrix(4.37114e-08 1 1 -4.37114e-08 124.643 727.077)" fill="#1729CE"/>
<path fill-rule="evenodd" clip-rule="evenodd" d="M182.158 654.081L182.898 654.955C198.694 673.579 228.251 655.046 218.367 632.715L202.031 595.805L195.94 582.043L184.351 591.645L153.266 617.401C134.46 632.984 152.658 662.754 175.101 653.122L176.777 652.402C171.356 662.434 163.372 672.404 152.779 676.057L172.447 681L172.452 680.979L192.121 685.921C184.591 677.779 182.238 665.391 182.158 654.081Z" fill="#D40606"/>
<path fill-rule="evenodd" clip-rule="evenodd" d="M233.393 778.528L234.638 777.913C261.27 764.754 248.1 724.414 218.835 729.503L170.462 737.915L152.426 741.051L160.346 757.555L181.591 801.827C194.444 828.611 234.937 815.901 230.178 786.576L229.823 784.383C240.066 793.735 249.481 806.094 250.672 819.671L262.298 797.914L262.276 797.902L273.901 776.145C262.075 782.633 246.763 781.763 233.393 778.528Z" fill="#D40606"/>
<path d="M339.407 705.955L261.782 732.727L312.315 797.447L389.939 770.675L339.407 705.955Z" fill="#D45106"/>
<path fill-rule="evenodd" clip-rule="evenodd" d="M345.413 696.782C342.825 707.445 348.345 719.572 354.123 728.208L357.605 711.19C359.841 700.268 373.461 696.406 381.097 704.529C388.732 712.653 384.035 726.008 372.995 727.564L355.949 729.965L380.683 739.702C390.073 743.398 392.418 755.611 385.065 762.522C377.712 769.433 365.668 766.337 362.559 756.737L354.383 731.482L350.942 748.294C348.707 759.216 335.086 763.078 327.451 754.955C319.815 746.831 324.513 733.476 335.552 731.921L352.704 729.504C344.443 723.212 332.699 716.973 321.911 718.894L333.668 707.844L333.657 707.832L345.413 696.782Z" fill="#E8038D"/>
<path fill-rule="evenodd" clip-rule="evenodd" d="M319.265 719.418L319.599 718.063C326.698 689.219 287.365 673.293 272.397 698.951L247.656 741.36L238.431 757.173L256.156 761.752L303.699 774.037C332.463 781.469 348.839 742.314 323.349 727.056L321.447 725.918C335.199 724.112 350.716 724.877 361.865 732.715L352.72 709.805L352.697 709.814L343.551 686.904C340.891 700.13 330.356 711.278 319.265 719.418Z" fill="#D40606"/>
<path fill-rule="evenodd" clip-rule="evenodd" d="M374.868 766.685L374.643 767.603C369.854 787.068 396.399 797.813 406.498 780.497L423.19 751.875L429.414 741.203L417.453 738.114L385.367 729.828C365.956 724.815 354.908 751.239 372.111 761.535L373.393 762.302C364.113 763.522 353.641 763.007 346.116 757.718L352.289 773.178L352.306 773.172L358.479 788.631C360.273 779.704 367.384 772.179 374.868 766.685Z" fill="#D40606"/>
<path fill-rule="evenodd" clip-rule="evenodd" d="M162.565 746.536L162.527 747.495C161.728 767.859 190.358 773.146 196.885 753.839L207.672 721.928L211.695 710.029L199.151 709.392L165.504 707.684C145.148 706.65 139.534 735.223 158.768 741.967L160.205 742.471C151.209 745.581 140.671 747.205 132.096 743.472L141.398 757.611L141.414 757.6L150.717 771.739C150.683 762.481 156.23 753.535 162.565 746.536Z" fill="#D40606"/>
<path d="M67.7924 630.384L43.7786 692.834L110.643 695.262L134.656 632.812L67.7924 630.384Z" fill="#D45106"/>
<path d="M176.778 641.824L182.687 708.47L243.801 681.234L237.892 614.588L176.778 641.824Z" fill="#5D00D2"/>
<path d="M113.751 741.576L96.8863 796.134L153.965 794.364L170.829 739.805L113.751 741.576Z" fill="#D45106"/>
<path fill-rule="evenodd" clip-rule="evenodd" d="M145.325 787.986C139.397 773.4 122.801 763.908 108.831 758.696L119.046 781.432C125.602 796.024 112.98 811.943 97.278 808.887C81.5757 805.831 75.8458 786.34 87.3958 775.273L105.23 758.183L68.2698 767.585C54.2371 771.155 41.2652 758.901 44.0314 744.688C46.7976 730.475 63.4185 723.98 75.0882 732.552L105.784 755.1L95.6944 732.643C89.1385 718.051 101.76 702.133 117.462 705.189C133.164 708.245 138.894 727.735 127.344 738.803L109.401 755.997C124.295 756.396 143.199 753.812 154.149 742.53L149.726 765.256L108.754 757.282L108.755 757.283L149.748 765.261L145.325 787.986Z" fill="#E8038D"/>
<path fill-rule="evenodd" clip-rule="evenodd" d="M169.497 668.651C165.161 653.626 149.757 642.522 136.502 635.92L144.223 659.439C149.178 674.534 135.054 688.942 119.864 684.288C104.673 679.633 101.044 659.787 113.605 650.058L132.999 635.038L95.5146 640.474C81.283 642.538 69.7476 629.083 73.9603 615.333C78.173 601.584 95.2657 596.901 105.898 606.583L133.867 632.051L126.241 608.818C121.286 593.723 135.41 579.316 150.6 583.97C165.791 588.624 169.42 608.471 156.859 618.199L137.345 633.313C152.014 635.259 170.955 634.676 182.946 624.674L176.21 646.659L136.573 634.515L136.573 634.515L176.233 646.666L169.497 668.651Z" fill="#E8038D"/>
<path fill-rule="evenodd" clip-rule="evenodd" d="M217.405 735.228C229.492 745.152 248.477 745.573 263.14 743.503L243.45 728.496C230.815 718.866 234.289 698.991 249.443 694.219C264.597 689.447 278.832 703.744 273.995 718.877L266.524 742.246L294.333 716.526C304.89 706.762 322.018 711.312 326.338 725.029C330.657 738.745 319.227 752.289 304.98 750.335L267.502 745.197L286.95 760.02C299.586 769.65 296.111 789.525 280.957 794.297C265.804 799.069 251.568 784.771 256.406 769.638L263.922 746.125C250.732 752.833 235.452 764.046 231.239 779.083L224.333 757.153L224.312 757.159L217.405 735.228Z" fill="#E8038D"/>
<path fill-rule="evenodd" clip-rule="evenodd" d="M237.455 708.181C229.464 704.847 219.331 707.652 211.886 711.089L224.718 715.904C232.954 718.994 234.283 730.086 227.009 735.034C219.736 739.982 209.907 734.673 210.057 725.877L210.29 712.298L199.65 730.37C195.61 737.232 185.802 737.552 181.324 730.968C176.845 724.384 180.745 715.38 188.611 714.142L209.302 710.887L196.626 706.131C188.389 703.041 187.061 691.948 194.334 687C201.608 682.052 211.437 687.362 211.286 696.158L211.052 709.82C216.975 704.159 223.286 695.777 223.121 687.133L230.282 697.66L211.3 710.573L211.305 710.572L230.294 697.654L237.455 708.181Z" fill="#E8038D"/>
<path fill-rule="evenodd" clip-rule="evenodd" d="M133.453 635.033C132.648 614.141 162.025 608.743 168.701 628.556L179.736 661.305L183.85 673.514L170.982 674.154L136.472 675.873C115.592 676.912 109.861 647.603 129.593 640.701L133.617 639.293L133.453 635.033Z" fill="#E80356"/>
<path fill-rule="evenodd" clip-rule="evenodd" d="M192.385 696.961C175.042 683.862 190.027 656.669 210.364 664.332L243.98 676.999L256.512 681.721L248.561 692.498L227.238 721.402C214.337 738.889 186.979 724.218 194.407 703.796L195.921 699.632L192.385 696.961Z" fill="#E80356"/>
<path fill-rule="evenodd" clip-rule="evenodd" d="M151.113 760.764C138.824 740.329 165.212 718.784 182.776 734.913L211.807 761.572L222.629 771.511L210.123 779.225L176.582 799.915C156.289 812.433 134.448 786.295 150.372 768.549L153.619 764.931L151.113 760.764Z" fill="#E80356"/>
<path fill-rule="evenodd" clip-rule="evenodd" d="M68.6471 757.403C67.4421 734.929 98.9742 728.641 106.482 749.858L118.891 784.929L123.518 798.003L109.678 798.902L72.5604 801.312C50.1039 802.77 43.4578 771.317 64.5851 763.566L68.8928 761.986L68.6471 757.403Z" fill="#E80356"/>
<path d="M246.834 721.775L182.519 743.957L224.387 797.58L288.702 775.399L246.834 721.775Z" fill="#1729CE"/>
<path fill-rule="evenodd" clip-rule="evenodd" d="M381.043 738.768C392.185 747.327 409.244 747.151 422.349 744.864L404.231 731.963C392.604 723.685 395.144 705.738 408.612 701.011C422.079 696.284 435.278 708.707 431.376 722.436L425.351 743.635L449.569 719.73C458.764 710.654 474.276 714.24 478.555 726.431C482.833 738.621 472.965 751.115 460.115 749.777L426.313 746.256L444.21 758.999C455.836 767.278 453.296 785.224 439.829 789.951C426.361 794.678 413.162 782.256 417.064 768.527L423.127 747.197C411.48 753.606 398.09 764.119 394.746 777.742L387.905 758.252L387.884 758.259L381.043 738.768Z" fill="#E8038D"/>
</svg>
