<svg width="1620" height="2007" viewBox="0 0 1620 2007" fill="none" xmlns="http://www.w3.org/2000/svg">
<circle cx="392.513" cy="874.834" r="105.758" fill="#1729CE"/>
<circle cx="468.723" cy="657.474" r="89.0261" fill="#1729CE"/>
<circle cx="447.351" cy="530.345" r="88.6498" fill="#1729CE"/>
<circle cx="455.655" cy="355.47" r="63.5901" fill="#1729CE"/>
<path fill-rule="evenodd" clip-rule="evenodd" d="M221.148 426.556L223.189 428.288C266.798 465.276 223.402 534.486 171.111 511.343L84.681 473.089L52.4553 458.826L74.9398 431.69L135.252 358.9C171.741 314.863 241.451 357.475 218.896 410.029L217.212 413.954C240.7 401.261 264.043 382.565 272.596 357.763L284.17 403.819L284.121 403.831L295.695 449.886C276.631 432.256 247.627 426.747 221.148 426.556Z" fill="#D40606"/>
<path fill-rule="evenodd" clip-rule="evenodd" d="M512.545 546.525L511.103 549.443C480.29 611.804 385.828 580.967 397.745 512.437L417.441 399.167L424.785 356.933L463.433 375.479L567.1 425.226C629.819 455.323 600.055 550.144 531.388 539.001L526.254 538.167C548.153 562.154 577.094 584.201 608.887 586.992L557.939 614.214L557.912 614.163L506.965 641.385C522.16 613.691 520.12 577.834 512.545 546.525Z" fill="#5D00D2"/>
<path d="M342.608 794.783L405.298 613.016L556.849 731.345L494.159 913.112L342.608 794.783Z" fill="#D45106"/>
<path fill-rule="evenodd" clip-rule="evenodd" d="M321.121 808.843C346.092 802.782 374.489 815.708 394.713 829.238L354.864 837.393C329.288 842.627 320.245 874.522 339.267 892.401C358.288 910.28 389.562 899.281 393.204 873.431L398.827 833.516L421.625 891.429C430.28 913.416 458.879 918.908 475.062 901.69C491.245 884.473 483.995 856.269 461.515 848.991L402.38 829.844L441.748 821.788C467.323 816.554 476.367 784.659 457.345 766.78C438.324 748.901 407.05 759.9 403.408 785.75L397.749 825.916C383.016 806.572 368.406 779.071 372.904 753.81L347.027 781.34L396.662 827.993L396.66 827.992L346.997 781.313L321.121 808.843Z" fill="#E8038D"/>
<path fill-rule="evenodd" clip-rule="evenodd" d="M350.305 702.573L347.135 703.354C279.593 719.979 242.299 627.875 302.381 592.825L401.688 534.892L438.715 513.291L449.439 554.795L478.206 666.124C495.609 733.479 403.922 771.824 368.192 712.135L365.526 707.681C361.297 739.882 363.088 776.219 381.442 802.328L327.795 780.912L327.816 780.858L274.169 759.442C305.14 753.214 331.245 728.544 350.305 702.573Z" fill="#5D00D2"/>
<path fill-rule="evenodd" clip-rule="evenodd" d="M484.816 877.808L486.955 877.282C532.536 866.068 557.696 928.226 517.148 951.875L450.127 990.962L425.138 1005.54L417.904 977.527L398.501 902.395C386.762 856.941 448.638 831.071 472.746 871.354L474.548 874.366C477.405 852.634 476.2 828.11 463.815 810.488L500.017 824.944L500.002 824.982L536.2 839.438C515.299 843.638 497.681 860.284 484.816 877.808Z" fill="#D40606"/>
<path fill-rule="evenodd" clip-rule="evenodd" d="M437.651 380.669L439.891 380.581C487.578 378.709 499.957 445.751 454.748 461.033L380.023 486.294L352.161 495.712L350.67 466.34L346.669 387.551C344.248 339.885 411.154 326.739 426.948 371.779L428.125 375.135C435.401 354.076 439.2 329.409 430.461 309.335L463.569 331.118L463.547 331.151L496.655 352.934C474.982 352.854 454.039 365.84 437.651 380.669Z" fill="#D40606"/>
<path d="M165.64 158.761L311.875 102.53L317.561 259.101L171.326 315.332L165.64 158.761Z" fill="#1729CE"/>
<path d="M192.425 413.962L348.487 427.8L284.711 570.906L128.649 557.068L192.425 413.962Z" fill="#D45106"/>
<path d="M426.016 266.388L553.772 226.898L549.626 360.554L421.87 400.044L426.016 266.388Z" fill="#D45106"/>
<path fill-rule="evenodd" clip-rule="evenodd" d="M534.693 340.324C500.536 326.441 478.309 287.579 466.106 254.867L519.346 278.787C553.515 294.138 590.79 264.584 583.634 227.815C576.477 191.046 530.839 177.629 504.922 204.674L464.906 246.433L486.923 159.885C495.282 127.025 466.587 96.6498 433.305 103.127C400.024 109.605 384.815 148.525 404.888 175.851L457.686 247.727L405.1 224.101C370.931 208.749 333.656 238.304 340.812 275.073C347.968 311.841 393.607 325.259 419.524 298.213L459.787 256.197C460.722 291.074 454.671 335.343 428.253 360.985L481.468 350.628L481.478 350.681L534.693 340.324Z" fill="#E8038D"/>
<path fill-rule="evenodd" clip-rule="evenodd" d="M255.255 396.915C220.073 386.762 194.072 350.694 178.612 319.657L233.685 337.735C269.032 349.338 302.769 316.265 291.871 280.695C280.972 245.124 234.499 236.627 211.718 266.039L176.544 311.454L189.274 223.677C194.107 190.352 162.601 163.341 130.405 173.205C98.2081 183.07 87.2417 223.094 109.914 247.992L169.549 313.484L115.149 295.626C79.8027 284.024 46.0657 317.097 56.9641 352.667C67.8624 388.237 114.336 396.735 137.116 367.323L172.508 321.627C177.065 355.977 175.7 400.331 152.279 428.409L203.759 412.636L203.775 412.688L255.255 396.915Z" fill="#E8038D"/>
<path fill-rule="evenodd" clip-rule="evenodd" d="M411.149 509.096C434.386 537.396 435.374 581.849 430.527 616.183L395.39 570.08C372.839 540.492 326.3 548.628 315.126 584.113C303.951 619.597 337.43 652.932 372.866 641.604L427.582 624.113L367.359 689.226C344.494 713.947 355.149 754.055 387.268 764.17C419.387 774.284 451.102 747.518 446.528 714.156L434.497 626.403L469.205 671.942C491.756 701.53 538.294 693.394 549.468 657.909C560.643 622.425 527.164 589.09 491.728 600.418L436.673 618.018C452.382 587.132 478.638 551.357 513.846 541.492L462.49 525.319L433.332 617.91L433.332 617.908L462.505 525.268L411.149 509.096Z" fill="#D40606"/>
<path fill-rule="evenodd" clip-rule="evenodd" d="M347.815 556.048C340.01 537.335 346.578 513.608 354.626 496.176L365.901 526.226C373.137 545.512 399.111 548.624 410.697 531.592C422.284 514.56 409.851 491.544 389.255 491.896L357.456 492.441L399.776 467.525C415.844 458.065 416.593 435.099 401.177 424.612C385.761 414.124 364.674 423.256 361.777 441.675L354.154 490.128L343.016 460.441C335.779 441.154 309.806 438.043 298.219 455.075C286.633 472.107 299.066 495.123 319.662 494.77L351.659 494.223C338.402 508.093 318.773 522.872 298.531 522.485L323.181 539.254L353.418 494.806L353.418 494.808L323.165 539.279L347.815 556.048Z" fill="#E8038D"/>
<path fill-rule="evenodd" clip-rule="evenodd" d="M176.526 312.505C127.605 310.622 114.964 379.412 161.359 395.045L238.045 420.884L266.634 430.517L268.134 400.386L272.158 319.575C274.592 270.683 205.961 257.261 189.798 303.468L186.502 312.889L176.526 312.505Z" fill="#5D00D2"/>
<path fill-rule="evenodd" clip-rule="evenodd" d="M321.548 450.511C290.876 409.901 227.199 444.988 245.143 492.611L274.804 571.326L285.861 600.672L311.097 582.055L378.779 532.123C419.727 501.915 385.374 437.851 337.553 455.245L327.803 458.791L321.548 450.511Z" fill="#E80356"/>
<path fill-rule="evenodd" clip-rule="evenodd" d="M470.96 353.86C423.108 325.084 372.659 386.875 410.427 428.003L472.852 495.982L496.125 521.325L514.189 492.041L562.637 413.499C591.949 365.981 530.745 314.838 489.191 352.126L480.718 359.728L470.96 353.86Z" fill="#E80356"/>
<path fill-rule="evenodd" clip-rule="evenodd" d="M463.09 160.746C410.464 157.924 395.739 231.761 445.422 249.341L527.544 278.399L558.159 289.232L560.263 256.825L565.908 169.909C569.322 117.324 495.669 101.763 477.521 151.234L473.821 161.321L463.09 160.746Z" fill="#E80356"/>
<path d="M379.644 578.008L431.585 427.407L557.151 525.447L505.21 676.048L379.644 578.008Z" fill="#D45106"/>
<path fill-rule="evenodd" clip-rule="evenodd" d="M419.441 892.27C439.481 918.36 439.071 958.304 433.716 988.992L403.508 946.568C384.123 919.343 342.099 925.291 331.03 956.826C319.962 988.362 349.05 1019.27 381.198 1010.13L430.839 996.022L374.864 1052.73C353.612 1074.26 362.01 1110.59 390.554 1120.61C419.099 1130.62 448.356 1107.52 445.222 1077.43L436.979 998.279L466.816 1040.18C486.201 1067.41 528.226 1061.46 539.294 1029.92C550.363 998.389 521.274 967.481 489.126 976.619L439.18 990.815C454.186 963.541 478.805 932.185 510.706 924.354L465.066 908.335L465.082 908.289L419.441 892.27Z" fill="#E8038D"/>
<circle cx="926.446" cy="884.068" r="100.774" fill="#1729CE"/>
<circle cx="1073.91" cy="1101.18" r="100.774" fill="#1729CE"/>
<circle cx="813.077" cy="1204.17" r="100.774" fill="#1729CE"/>
<circle cx="1085.54" cy="1220.58" r="100.774" fill="#1729CE"/>
<circle cx="1087.98" cy="686.965" r="100.774" fill="#1729CE"/>
<circle cx="820.487" cy="603.234" r="100.774" fill="#1729CE"/>
<path fill-rule="evenodd" clip-rule="evenodd" d="M811.248 939.839L811.247 939.842L850.251 1012.84L801.704 1038.78C816.182 1012.39 814.238 978.227 807.021 948.394L805.649 951.17C776.289 1010.59 686.278 981.21 697.633 915.908L716.401 807.975L723.398 767.732L760.225 785.404L859.007 832.807C918.77 861.485 890.41 951.839 824.978 941.22L820.086 940.426C840.953 963.283 868.531 984.293 898.827 986.952L850.28 1012.89L811.248 939.839Z" fill="#D40606"/>
<path fill-rule="evenodd" clip-rule="evenodd" d="M1039.18 826.151L1036.56 824.471C980.803 788.641 1020.08 702.487 1083.7 721.083L1188.85 751.82L1228.06 763.281L1206.37 797.897L1148.21 890.749C1113.02 946.924 1026.41 908.625 1044.29 844.793L1045.62 840.026C1020.57 858.202 996.607 883.253 990.572 913.06L970.233 861.914L970.287 861.892L949.948 810.745C974.55 828.089 1008.72 829.983 1039.18 826.151Z" fill="#1729CE"/>
<path fill-rule="evenodd" clip-rule="evenodd" d="M1123.62 1163.55L1123.62 1163.55L1170.07 1251.09L1111.85 1281.98C1129.28 1250.43 1127.07 1209.52 1118.53 1173.77L1116.88 1177.1C1081.51 1248.14 973.842 1212.64 987.668 1134.49L1010.52 1005.33L1019.04 957.17L1063.07 978.459L1181.18 1035.57C1252.64 1070.11 1218.36 1178.2 1140.05 1165.25L1134.2 1164.28C1159.11 1191.72 1192.05 1216.98 1228.32 1220.27L1170.1 1251.15L1123.62 1163.55Z" fill="#D40606"/>
<path fill-rule="evenodd" clip-rule="evenodd" d="M1119.92 958.596L1119.92 958.596L1216.91 1016.17L1178.62 1080.67C1176.88 1039.69 1150.5 1001.23 1121.03 971.542L1121.39 975.764C1129.1 1065.75 1003.44 1095.02 970.592 1010.88L916.305 871.825L896.064 819.977L951.462 814.589L1100.06 800.137C1189.96 791.394 1220.66 916.729 1136.9 950.525L1130.64 953.048C1171.1 964.966 1218.07 969.995 1255.26 951.716L1216.97 1016.21L1119.92 958.596Z" fill="#E8038D"/>
<path d="M950.463 566.415L950.268 383.201L1123.61 442.523L1123.81 625.737L950.463 566.415Z" fill="#D45106"/>
<path fill-rule="evenodd" clip-rule="evenodd" d="M904.754 832.895L902.945 835.415C864.292 889.258 780.274 845.597 802.12 783.02L838.228 679.589L851.691 641.024L885.145 664.462L974.881 727.331C1029.17 765.366 986.464 849.889 923.637 828.748L918.938 827.167C935.801 853.119 959.586 878.344 989.044 885.905L936.918 903.585L936.9 903.532L884.776 921.212C903.362 897.535 907.013 863.507 904.754 832.895Z" fill="#D40606"/>
<path fill-rule="evenodd" clip-rule="evenodd" d="M1079.62 660.932L1079.62 660.932L1110.83 613.493L1142.38 634.249C1121.73 634.173 1101.77 646.545 1086.16 660.675L1088.29 660.591C1133.73 658.808 1145.53 722.69 1102.45 737.253L1031.25 761.323L1004.7 770.297L1003.28 742.309L999.465 667.233C997.158 621.812 1060.91 609.287 1075.96 652.204L1077.08 655.396C1084.01 635.33 1087.63 611.83 1079.3 592.704L1110.85 613.461L1079.62 660.932Z" fill="#D40606"/>
<path d="M812.076 484.298L935.862 436.699L940.675 569.233L816.89 616.832L812.076 484.298Z" fill="#D45106"/>
<path d="M890.449 605.804L998.592 572.377L995.083 685.515L886.939 718.942L890.449 605.804Z" fill="#D45106"/>
<path fill-rule="evenodd" clip-rule="evenodd" d="M982.442 668.391C953.529 656.639 934.714 623.744 924.384 596.054L969.449 616.301C998.372 629.296 1029.93 604.278 1023.87 573.154C1017.81 542.03 979.178 530.672 957.239 553.566L923.37 588.911L942.006 515.653C949.081 487.838 924.792 462.125 896.619 467.608C868.447 473.092 855.574 506.037 872.565 529.168L917.259 590.012L872.741 570.011C843.817 557.016 812.265 582.033 818.322 613.157C824.38 644.282 863.012 655.639 884.95 632.745L919.034 597.178C919.825 626.701 914.703 664.174 892.34 685.88L937.386 677.113L921.579 595.893L921.58 595.894L937.396 677.158L982.442 668.391Z" fill="#E8038D"/>
<path fill-rule="evenodd" clip-rule="evenodd" d="M820.329 1178.98C812.041 1125.97 843.854 1069.11 875.509 1029.37L885.582 1113.71C892.046 1167.83 956.848 1192.17 997.344 1155.69C1037.84 1119.2 1020.37 1052.22 967.207 1040.17L885.126 1021.56L1009.57 984.144C1056.82 969.939 1073.2 911.381 1040.18 874.726C1007.15 838.07 947.208 848.274 928.171 893.793L878.098 1013.52L868.149 930.219C861.685 876.095 796.883 851.756 756.386 888.242C715.889 924.728 733.364 991.709 786.523 1003.76L869.114 1022.49C826.313 1049.8 766.56 1075.43 714.774 1061.7L767.58 1120.31L873.253 1025.11L873.251 1025.11L767.523 1120.37L820.329 1178.98Z" fill="#E8038D"/>
<path d="M744.718 661.694L893.426 674.88L832.655 811.242L683.947 798.057L744.718 661.694Z" fill="#D45106"/>
<path d="M725.343 1068.83L677.781 927.32L827.069 928.299L874.631 1069.81L725.343 1068.83Z" fill="#D45106"/>
<path d="M899.515 1392.86L851.953 1251.35L1001.24 1252.33L1048.8 1393.84L899.515 1392.86Z" fill="#D45106"/>
<path d="M831.729 948.356L1044.37 944.163L979.268 1146.63L766.632 1150.83L831.729 948.356Z" fill="#D45106"/>
<path fill-rule="evenodd" clip-rule="evenodd" d="M1063.61 1074.92C1062.8 1039.15 1088.83 1004.37 1113.25 980.89L1112.48 1037.53C1111.99 1073.87 1152.68 1095.67 1182.67 1075.12C1212.65 1054.57 1207 1008.75 1172.92 996.1L1120.3 976.568L1205.86 962.797C1238.35 957.569 1254.33 920.302 1235.73 893.162C1217.13 866.023 1176.6 867.489 1160.01 895.902L1116.36 970.644L1117.12 914.692C1117.61 878.344 1076.92 856.548 1046.94 877.1C1016.95 897.653 1022.61 943.469 1056.69 956.118L1109.63 975.771C1078.94 990.054 1037.18 1001.74 1004.16 988.101L1033.9 1031.5L1112.14 977.863L1112.14 977.869L1033.86 1031.53L1063.61 1074.92Z" fill="#D45106"/>
<path fill-rule="evenodd" clip-rule="evenodd" d="M1030.12 1306.54C1029.31 1270.77 1055.34 1235.99 1079.77 1212.5L1079 1269.14C1078.5 1305.49 1119.2 1327.28 1149.18 1306.73C1179.16 1286.18 1173.51 1240.36 1139.43 1227.71L1086.81 1208.18L1172.38 1194.41C1204.86 1189.18 1220.84 1151.92 1202.24 1124.78C1183.64 1097.64 1143.11 1099.1 1126.52 1127.52L1082.87 1202.26L1083.63 1146.31C1084.13 1109.96 1043.43 1088.16 1013.45 1108.71C983.466 1129.27 989.118 1175.08 1023.2 1187.73L1076.14 1207.39C1045.45 1221.67 1003.69 1233.35 970.668 1219.71L1000.41 1263.11L1078.66 1209.48L1078.65 1209.48L1000.37 1263.14L1030.12 1306.54Z" fill="#E8038D"/>
<path fill-rule="evenodd" clip-rule="evenodd" d="M1001.45 1095.72C1008.62 1144.72 978.753 1196.91 949.183 1233.3L940.643 1155.37C935.162 1105.36 875.573 1082.32 837.87 1115.63C800.168 1148.94 815.695 1210.91 864.649 1222.52L940.238 1240.43L825.04 1273.84C781.304 1286.53 765.664 1340.43 795.816 1374.55C825.967 1408.68 881.381 1399.8 899.359 1357.96L946.651 1247.9L955.087 1324.88C960.568 1374.89 1020.16 1397.93 1057.86 1364.62C1095.56 1331.31 1080.04 1269.34 1031.08 1257.74L955.022 1239.71C994.768 1214.89 1050.14 1191.77 1097.81 1204.91L1049.6 1150.34L951.22 1237.26L951.221 1237.26L1049.66 1150.29L1001.45 1095.72Z" fill="#E8038D"/>
<path fill-rule="evenodd" clip-rule="evenodd" d="M822.745 1049.05L822.747 1049.05L879.281 993.207L916.42 1030.8C888.175 1024.69 857.258 1035.81 831.771 1050.61L834.705 1051.11C897.42 1061.9 894.968 1152.77 831.763 1160.16L727.294 1172.38L688.342 1176.94L694.545 1138.21L711.184 1034.34C721.251 971.5 812.161 972.915 820.266 1036.04L820.871 1040.76C836.207 1015.31 848.009 984.184 842.179 955.573L879.318 993.169L822.745 1049.05Z" fill="#D40606"/>
<path fill-rule="evenodd" clip-rule="evenodd" d="M861.8 1234.68L861.801 1234.68L907.448 1189.59L937.434 1219.94C914.629 1215 889.666 1223.99 869.087 1235.93L871.455 1236.34C922.092 1245.05 920.112 1318.42 869.08 1324.39L784.729 1334.26L753.278 1337.93L758.287 1306.67L771.722 1222.8C779.85 1172.06 853.252 1173.2 859.796 1224.17L860.286 1227.98C872.669 1207.43 882.201 1182.3 877.493 1159.2L907.48 1189.56L861.8 1234.68Z" fill="#D40606"/>
<path d="M899.412 1098.79L1082.38 1103.49L1018.51 1275.01L835.539 1270.31L899.412 1098.79Z" fill="#D45106"/>
<path fill-rule="evenodd" clip-rule="evenodd" d="M918.673 662.257C885.148 652.582 860.372 618.213 845.64 588.638L898.122 605.866C931.803 616.922 963.95 585.407 953.565 551.513C943.181 517.619 898.897 509.522 877.19 537.548L843.67 580.827L855.8 497.183C860.406 465.428 830.385 439.689 799.705 449.089C769.026 458.489 758.576 496.627 780.18 520.352L837.006 582.758L785.168 565.742C751.487 554.686 719.34 586.2 729.725 620.094C740.11 653.989 784.393 662.086 806.1 634.059L839.824 590.517C844.166 623.249 842.866 665.513 820.548 692.268L869.603 677.238L842.505 588.797L842.506 588.798L869.618 677.286L918.673 662.257Z" fill="#E8038D"/>
<path fill-rule="evenodd" clip-rule="evenodd" d="M791.182 660.047C813.324 687.014 814.266 729.372 809.647 762.088L776.165 718.158C754.677 689.964 710.331 697.717 699.684 731.529C689.036 765.342 720.937 797.105 754.703 786.311L806.843 769.644L749.457 831.689C727.67 855.245 737.822 893.464 768.428 903.102C799.033 912.74 829.253 887.235 824.895 855.445L813.431 771.825L846.504 815.219C867.992 843.413 912.337 835.66 922.985 801.848C933.633 768.035 901.732 736.272 867.966 747.066L815.503 763.837C830.472 734.406 855.49 700.317 889.04 690.917L840.104 675.506L812.321 763.731L812.321 763.729L840.118 675.458L791.182 660.047Z" fill="#E8038D"/>
<path fill-rule="evenodd" clip-rule="evenodd" d="M1000.55 827.791C993.108 809.961 999.366 787.353 1007.03 770.743L1017.78 799.376C1024.67 817.753 1049.42 820.718 1060.46 804.488C1071.5 788.259 1059.66 766.328 1040.03 766.664L1009.73 767.182L1050.06 743.441C1065.37 734.427 1066.08 712.543 1051.39 702.549C1036.7 692.556 1016.61 701.258 1013.85 718.809L1006.58 764.977L995.971 736.69C989.075 718.312 964.325 715.348 953.285 731.577C942.245 747.806 954.092 769.738 973.717 769.402L1004.21 768.88C991.575 782.096 972.87 796.179 953.582 795.811L977.07 811.789L1005.88 769.437L1005.88 769.442L977.057 811.813L1000.55 827.791Z" fill="#E8038D"/>
<path fill-rule="evenodd" clip-rule="evenodd" d="M812.557 594.657C765.941 592.863 753.895 658.411 798.104 673.307L871.177 697.929L898.418 707.108L899.848 678.397L903.682 601.394C906.002 554.806 840.605 542.016 825.203 586.046L822.063 595.023L812.557 594.657Z" fill="#E80356"/>
<path fill-rule="evenodd" clip-rule="evenodd" d="M836.733 647.943C807.506 609.247 746.829 642.681 763.928 688.06L792.191 763.066L802.728 791.029L826.774 773.289L891.267 725.71C930.285 696.925 897.551 635.88 851.983 652.454L842.693 655.834L836.733 647.943Z" fill="#5D00D2"/>
<path fill-rule="evenodd" clip-rule="evenodd" d="M949.683 492.123C904.087 464.702 856.013 523.581 892.001 562.771L951.486 627.547L973.662 651.696L990.875 623.792L1037.04 548.951C1064.97 503.672 1006.65 454.939 967.054 490.469L958.981 497.714L949.683 492.123Z" fill="#E80356"/>
<path fill-rule="evenodd" clip-rule="evenodd" d="M950.818 417.776C900.672 415.087 886.642 485.444 933.984 502.196L1012.24 529.885L1041.41 540.208L1043.41 509.328L1048.79 426.508C1052.05 376.401 981.863 361.571 964.57 408.712L961.044 418.324L950.818 417.776Z" fill="#E80356"/>
<path d="M888.611 754.612L938.104 611.108L1057.75 704.528L1008.26 848.032L888.611 754.612Z" fill="#D45106"/>
<path fill-rule="evenodd" clip-rule="evenodd" d="M907.777 552.175C948.652 542.255 995.137 563.414 1028.24 585.561L963.011 598.91C921.147 607.478 906.343 659.687 937.48 688.954C968.617 718.221 1019.81 700.216 1025.77 657.901L1034.98 592.563L1072.3 687.363C1086.46 723.354 1133.28 732.343 1159.77 704.159C1186.26 675.975 1174.39 629.808 1137.59 617.893L1040.79 586.553L1105.23 573.365C1147.1 564.797 1161.9 512.588 1130.76 483.321C1099.63 454.054 1048.43 472.059 1042.47 514.374L1033.21 580.122C1009.09 548.459 985.176 503.441 992.538 462.09L950.18 507.154L1031.43 583.52L1031.43 583.52L950.134 507.111L907.777 552.175Z" fill="#E8038D"/>
<path fill-rule="evenodd" clip-rule="evenodd" d="M1073.26 592.125L1073.26 592.124L1033.71 552.677L1059.94 526.379C1055.79 546.263 1063.77 567.936 1074.3 585.774L1074.64 583.709C1081.9 539.573 1145.78 540.826 1151.31 585.212L1160.43 658.577L1163.84 685.931L1136.59 681.772L1063.49 670.614C1019.27 663.864 1019.8 599.959 1064.12 593.936L1067.44 593.486C1049.47 582.838 1027.53 574.702 1007.45 578.948L1033.68 552.65L1073.26 592.125Z" fill="#D40606"/>
<path fill-rule="evenodd" clip-rule="evenodd" d="M969.443 1155.08L969.444 1155.08L913.182 1098.96L950.503 1061.54C944.595 1089.83 955.948 1120.67 970.93 1146.04L971.412 1143.11C981.738 1080.32 1072.63 1082.1 1080.48 1145.25L1093.47 1249.62L1098.31 1288.54L1059.54 1282.62L955.552 1266.75C892.638 1257.15 893.383 1166.23 956.447 1157.66L961.166 1157.02C935.602 1141.87 904.391 1130.29 875.822 1136.33L913.144 1098.92L969.443 1155.08Z" fill="#5D00D2"/>
<path fill-rule="evenodd" clip-rule="evenodd" d="M879.845 873.265C898.939 898.125 898.549 936.186 893.447 965.427L864.665 925.005C846.193 899.063 806.149 904.73 795.602 934.78C785.055 964.829 812.773 994.281 843.406 985.574L890.706 972.129L837.369 1026.17C817.119 1046.68 825.121 1081.29 852.32 1090.84C879.52 1100.39 907.398 1078.37 904.412 1049.7L896.558 974.278L924.99 1014.21C943.462 1040.15 983.506 1034.48 994.053 1004.43C1004.6 974.385 976.882 944.933 946.249 953.64L898.654 967.168C912.953 941.179 936.412 911.3 966.811 903.838L923.32 888.573L895.798 966.986L895.798 966.985L923.335 888.53L879.845 873.265Z" fill="#5D00D2"/>
<path fill-rule="evenodd" clip-rule="evenodd" d="M1200.59 1194.1L1200.59 1194.1L1459.75 1292.75L1394.14 1465.1C1372.67 1366.57 1292.6 1284.51 1208.73 1225L1211.37 1235.04C1267.91 1449.79 975.822 1573.57 860.851 1383.58L670.821 1069.56L599.967 952.476L731.901 916.112L1085.8 818.568C1299.9 759.553 1427.01 1050.26 1238.32 1167.38L1224.21 1176.13C1327.22 1187.98 1443.13 1180.4 1525.53 1120.46L1459.92 1292.81L1200.59 1194.1Z" fill="#161616"/>
<circle cx="105.758" cy="105.758" r="105.758" transform="matrix(4.37114e-08 1 1 -4.37114e-08 769.072 1454.49)" fill="#1729CE"/>
<circle cx="89.0261" cy="89.0261" r="89.0261" transform="matrix(4.37114e-08 1 1 -4.37114e-08 568.445 1547.43)" fill="#1729CE"/>
<circle cx="88.6498" cy="88.6498" r="88.6498" transform="matrix(4.37114e-08 1 1 -4.37114e-08 441.691 1526.43)" fill="#1729CE"/>
<circle cx="63.5901" cy="63.5901" r="63.5901" transform="matrix(4.37114e-08 1 1 -4.37114e-08 291.877 1559.79)" fill="#1729CE"/>
<path fill-rule="evenodd" clip-rule="evenodd" d="M426.554 1388.87L428.286 1390.91C465.275 1434.52 534.485 1391.13 511.341 1338.84L473.088 1252.41L458.825 1220.18L431.689 1242.67L358.899 1302.98C314.861 1339.47 357.474 1409.18 410.028 1386.62L413.954 1384.94C401.26 1408.43 382.563 1431.77 357.759 1440.33L403.815 1451.9L403.827 1451.85L449.884 1463.43C432.252 1444.36 426.743 1415.35 426.554 1388.87Z" fill="#D40606"/>
<path fill-rule="evenodd" clip-rule="evenodd" d="M546.522 1680.28L549.438 1678.84C611.799 1648.02 580.961 1553.56 512.432 1565.48L399.161 1585.17L356.928 1592.52L375.474 1631.17L425.22 1734.83C455.317 1797.55 550.138 1767.79 538.995 1699.12L538.161 1693.98C562.148 1715.88 584.198 1744.82 586.989 1776.62L614.211 1725.67L614.161 1725.64L641.381 1674.7C613.688 1689.89 577.831 1687.85 546.522 1680.28Z" fill="#D40606"/>
<path d="M794.78 1510.34L613.013 1573.03L731.342 1724.58L913.109 1661.89L794.78 1510.34Z" fill="#D45106"/>
<path fill-rule="evenodd" clip-rule="evenodd" d="M808.839 1488.85C802.779 1513.83 815.705 1542.22 829.235 1562.45L837.39 1522.6C842.624 1497.02 874.519 1487.98 892.398 1507C910.277 1526.02 899.278 1557.29 873.428 1560.94L833.509 1566.56L891.425 1589.36C913.412 1598.01 918.904 1626.61 901.686 1642.8C884.469 1658.98 856.265 1651.73 848.986 1629.25L829.841 1570.12L821.784 1609.48C816.55 1635.06 784.656 1644.1 766.777 1625.08C748.898 1606.06 759.897 1574.78 785.747 1571.14L825.913 1565.48C806.57 1550.75 779.069 1536.14 753.807 1540.63L781.336 1514.76L781.31 1514.73L808.839 1488.85Z" fill="#E8038D"/>
<path fill-rule="evenodd" clip-rule="evenodd" d="M747.618 1541.86L748.398 1538.69C765.023 1471.15 672.919 1433.86 637.869 1493.94L579.935 1593.25L558.335 1630.27L599.839 1641L711.168 1669.76C778.522 1687.17 816.868 1595.48 757.179 1559.75L752.722 1557.08C784.924 1552.85 821.263 1554.64 847.372 1573L825.957 1519.35L825.903 1519.37L804.487 1465.72C798.259 1496.7 773.588 1522.8 747.618 1541.86Z" fill="#D40606"/>
<path fill-rule="evenodd" clip-rule="evenodd" d="M877.804 1652.55L877.278 1654.69C866.064 1700.27 928.223 1725.43 951.871 1684.88L990.959 1617.86L1005.53 1592.87L977.523 1585.64L902.392 1566.23C856.938 1554.49 831.067 1616.37 871.351 1640.48L874.364 1642.28C852.631 1645.14 828.106 1643.93 810.484 1631.55L824.94 1667.75L824.978 1667.73L839.434 1703.93C843.634 1683.03 860.28 1665.41 877.804 1652.55Z" fill="#D40606"/>
<path fill-rule="evenodd" clip-rule="evenodd" d="M380.666 1605.38L380.578 1607.61C378.707 1655.3 445.748 1667.68 461.031 1622.47L486.291 1547.75L495.709 1519.88L466.337 1518.39L387.548 1514.39C339.882 1511.97 326.736 1578.88 371.776 1594.67L375.141 1595.85C354.08 1603.13 329.408 1606.93 309.331 1598.19L331.114 1631.3L331.147 1631.28L352.93 1664.38C352.85 1642.71 365.836 1621.77 380.666 1605.38Z" fill="#D40606"/>
<path d="M158.757 1333.38L102.525 1479.61L259.096 1485.3L315.327 1339.06L158.757 1333.38Z" fill="#D45106"/>
<path d="M413.958 1360.16L427.796 1516.22L570.902 1452.45L557.064 1296.39L413.958 1360.16Z" fill="#5D00D2"/>
<path d="M266.385 1593.75L226.896 1721.5L360.552 1717.36L400.041 1589.6L266.385 1593.75Z" fill="#D45106"/>
<path fill-rule="evenodd" clip-rule="evenodd" d="M340.322 1702.42C326.44 1668.27 287.578 1646.04 254.866 1633.84L278.785 1687.07C294.137 1721.24 264.582 1758.52 227.813 1751.36C191.044 1744.21 177.627 1698.57 204.673 1672.65L246.431 1632.63L159.883 1654.65C127.023 1663.01 96.648 1634.32 103.125 1601.03C109.603 1567.75 148.523 1552.54 175.849 1572.62L247.726 1625.42L224.1 1572.83C208.748 1538.66 238.303 1501.39 275.072 1508.54C311.84 1515.7 325.258 1561.34 298.212 1587.25L256.195 1627.52C291.072 1628.45 335.341 1622.4 360.983 1595.98L350.626 1649.2L350.679 1649.21L340.322 1702.42Z" fill="#E8038D"/>
<path fill-rule="evenodd" clip-rule="evenodd" d="M396.912 1422.99C386.758 1387.8 350.69 1361.8 319.653 1346.34L337.731 1401.42C349.334 1436.76 316.261 1470.5 280.691 1459.6C245.12 1448.7 236.623 1402.23 266.035 1379.45L311.448 1344.28L223.673 1357.01C190.348 1361.84 163.336 1330.33 173.201 1298.14C183.066 1265.94 223.09 1254.97 247.988 1277.65L313.481 1337.28L295.623 1282.88C284.02 1247.53 317.094 1213.8 352.664 1224.69C388.234 1235.59 396.732 1282.07 367.319 1304.85L321.624 1340.24C355.974 1344.8 400.328 1343.43 428.406 1320.01L412.633 1371.49L412.685 1371.51L396.912 1422.99Z" fill="#E8038D"/>
<path fill-rule="evenodd" clip-rule="evenodd" d="M509.092 1578.88C537.394 1602.12 581.848 1603.1 616.183 1598.26L570.078 1563.12C540.49 1540.57 548.626 1494.03 584.11 1482.85C619.595 1471.68 652.929 1505.16 641.601 1540.59L624.11 1595.31L689.223 1535.09C713.944 1512.22 754.052 1522.88 764.167 1555C774.281 1587.12 747.515 1618.83 714.154 1614.26L626.398 1602.23L671.938 1636.93C701.527 1659.49 693.391 1706.02 657.906 1717.2C622.422 1728.37 589.087 1694.89 600.415 1659.46L618.015 1604.4C587.129 1620.11 551.354 1646.37 541.489 1681.58L525.317 1630.22L525.265 1630.24L509.092 1578.88Z" fill="#E8038D"/>
<path fill-rule="evenodd" clip-rule="evenodd" d="M556.044 1515.54C537.331 1507.74 513.603 1514.31 496.171 1522.36L526.221 1533.63C545.508 1540.87 548.619 1566.84 531.587 1578.43C514.555 1590.01 491.539 1577.58 491.892 1556.98L492.436 1525.19L467.521 1567.5C458.061 1583.57 435.095 1584.32 424.607 1568.91C414.12 1553.49 423.252 1532.4 441.671 1529.51L490.121 1521.88L460.436 1510.75C441.15 1503.51 438.039 1477.54 455.071 1465.95C472.102 1454.36 495.118 1466.8 494.766 1487.39L494.218 1519.39C508.088 1506.13 522.867 1486.5 522.481 1466.26L539.249 1490.91L539.275 1490.89L556.044 1515.54Z" fill="#E8038D"/>
<path fill-rule="evenodd" clip-rule="evenodd" d="M312.502 1344.26C310.619 1295.34 379.409 1282.7 395.041 1329.1L420.881 1405.78L430.514 1434.37L400.383 1435.87L319.571 1439.9C270.68 1442.33 257.258 1373.7 303.465 1357.54L312.886 1354.24L312.502 1344.26Z" fill="#E80356"/>
<path fill-rule="evenodd" clip-rule="evenodd" d="M450.507 1489.28C409.897 1458.61 444.985 1394.93 492.607 1412.87L571.323 1442.53L600.668 1453.59L582.051 1478.83L532.12 1546.51C501.911 1587.46 437.848 1553.1 455.241 1505.28L458.788 1495.53L450.507 1489.28Z" fill="#E80356"/>
<path fill-rule="evenodd" clip-rule="evenodd" d="M353.858 1638.69C325.081 1590.84 386.873 1540.39 428 1578.15L495.979 1640.58L521.323 1663.85L492.038 1681.92L413.497 1730.36C365.978 1759.68 314.835 1698.47 352.123 1656.92L359.725 1648.45L353.858 1638.69Z" fill="#E80356"/>
<path fill-rule="evenodd" clip-rule="evenodd" d="M160.746 1630.81C157.925 1578.18 231.761 1563.46 249.341 1613.14L278.4 1695.26L289.233 1725.88L256.826 1727.98L169.91 1733.63C117.324 1737.04 101.763 1663.39 151.235 1645.24L161.322 1641.54L160.746 1630.81Z" fill="#E80356"/>
<path d="M578.006 1547.38L427.405 1599.32L525.445 1724.89L676.045 1672.95L578.006 1547.38Z" fill="#1729CE"/>
<path fill-rule="evenodd" clip-rule="evenodd" d="M892.268 1587.17C918.358 1607.21 958.304 1606.8 988.992 1601.45L946.567 1571.24C919.342 1551.85 925.29 1509.83 956.825 1498.76C988.361 1487.69 1019.27 1516.78 1010.13 1548.93L996.022 1598.57L1052.73 1542.59C1074.26 1521.34 1110.59 1529.74 1120.6 1558.28C1130.62 1586.83 1107.51 1616.08 1077.43 1612.95L998.276 1604.71L1040.18 1634.55C1067.41 1653.93 1061.46 1695.96 1029.92 1707.02C998.388 1718.09 967.48 1689 976.618 1656.86L990.815 1606.91C963.54 1621.91 932.184 1646.53 924.353 1678.44L908.334 1632.8L908.287 1632.81L892.268 1587.17Z" fill="#E8038D"/>
</svg>
