<svg width="697" height="906" viewBox="0 0 697 906" fill="none" xmlns="http://www.w3.org/2000/svg">
<circle cx="161.912" cy="373.231" r="45.1192" fill="#1729CE"/>
<circle cx="194.424" cy="280.5" r="37.9811" fill="#1729CE"/>
<circle cx="185.307" cy="226.262" r="37.8205" fill="#1729CE"/>
<circle cx="188.848" cy="151.656" r="27.1294" fill="#1729CE"/>
<path fill-rule="evenodd" clip-rule="evenodd" d="M88.8088 181.983L89.6811 182.723C108.286 198.503 89.772 228.03 67.4632 218.157L30.5897 201.837L16.8413 195.752L26.4338 184.174L52.1647 153.12C67.732 134.333 97.4722 152.512 87.8498 174.933L87.1348 176.599C97.1511 171.184 107.103 163.21 110.75 152.634L115.687 172.283L115.667 172.288L120.605 191.936C112.473 184.417 100.103 182.065 88.8088 181.983Z" fill="#D40606"/>
<path fill-rule="evenodd" clip-rule="evenodd" d="M213.118 233.166L212.503 234.41C199.358 261.015 159.058 247.86 164.141 218.623L172.544 170.298L175.677 152.28L192.166 160.192L236.393 181.416C263.151 194.256 250.453 234.71 221.157 229.955L218.965 229.6C228.308 239.833 240.655 249.239 254.219 250.43L232.483 262.043L232.472 262.022L210.737 273.635C217.22 261.82 216.35 246.523 213.118 233.166Z" fill="#5D00D2"/>
<path d="M140.615 339.081L167.361 261.534L232.017 312.016L205.271 389.563L140.615 339.081Z" fill="#D45106"/>
<path fill-rule="evenodd" clip-rule="evenodd" d="M131.453 345.078C142.106 342.492 154.221 348.006 162.849 353.778L145.846 357.258C134.935 359.491 131.076 373.098 139.192 380.726C147.307 388.354 160.649 383.661 162.203 372.633L164.603 355.6L174.33 380.312C178.023 389.692 190.224 392.035 197.128 384.689C204.032 377.344 200.939 365.311 191.348 362.206L166.119 354.038L182.914 350.601C193.825 348.368 197.683 334.761 189.568 327.133C181.453 319.505 168.11 324.198 166.556 335.226L164.142 352.361C157.857 344.109 151.625 332.376 153.543 321.6L142.504 333.344L142.493 333.333L131.453 345.078Z" fill="#E8038D"/>
<path fill-rule="evenodd" clip-rule="evenodd" d="M143.903 299.739L142.548 300.073C113.733 307.165 97.8225 267.871 123.455 252.918L165.822 228.202L181.619 218.986L186.194 236.693L198.467 284.189C205.892 312.924 166.776 329.284 151.532 303.819L150.396 301.921C148.592 315.659 149.357 331.16 157.187 342.298L134.299 333.161L134.308 333.138L111.421 324.001C124.634 321.344 135.771 310.819 143.903 299.739Z" fill="#5D00D2"/>
<path fill-rule="evenodd" clip-rule="evenodd" d="M201.29 374.502L202.207 374.276C221.653 369.492 232.387 396.01 215.088 406.099L186.495 422.775L175.834 428.993L172.748 417.043L164.47 384.99C159.462 365.598 185.86 354.561 196.145 371.747L196.911 373.027C198.129 363.757 197.615 353.296 192.332 345.779L207.776 351.947L207.769 351.964L223.212 358.131C214.295 359.923 206.778 367.025 201.29 374.502Z" fill="#D40606"/>
<path fill-rule="evenodd" clip-rule="evenodd" d="M181.168 162.404L182.123 162.367C202.467 161.568 207.749 190.17 188.461 196.69L156.581 207.467L144.694 211.485L144.058 198.954L142.351 165.341C141.319 145.005 169.862 139.396 176.601 158.612L177.103 160.045C180.207 151.061 181.828 140.537 178.1 131.973L192.224 141.267L192.215 141.281L206.338 150.574C197.093 150.54 188.159 156.079 181.168 162.404Z" fill="#D40606"/>
<path d="M65.1224 67.7351L127.511 43.7451L129.936 110.543L67.5483 134.533L65.1224 67.7351Z" fill="#1729CE"/>
<path d="M76.547 176.611L143.127 182.515L115.919 243.568L49.3384 237.664L76.547 176.611Z" fill="#D45106"/>
<path d="M176.201 113.649L230.706 96.8019L228.937 153.823L174.432 170.671L176.201 113.649Z" fill="#D45106"/>
<path fill-rule="evenodd" clip-rule="evenodd" d="M222.56 145.192C207.988 139.269 198.505 122.689 193.299 108.733L216.014 118.939C230.591 125.488 246.494 112.879 243.441 97.1928C240.388 81.5061 220.917 75.7819 209.86 87.3204L192.788 105.136L202.181 68.2119C205.747 54.1931 193.505 41.2341 179.306 43.9976C165.108 46.761 158.619 63.3654 167.183 75.0235L189.707 105.687L167.275 95.6087C152.698 89.0593 136.795 101.668 139.848 117.355C142.901 133.041 162.372 138.766 173.429 127.227L190.605 109.303C191.004 124.182 188.422 143.068 177.152 154.007L199.853 149.589L199.857 149.61L222.56 145.192Z" fill="#E8038D"/>
<path fill-rule="evenodd" clip-rule="evenodd" d="M103.352 169.338C88.3429 165.006 77.2499 149.619 70.6542 136.377L94.1507 144.09C109.231 149.04 123.624 134.93 118.974 119.755C114.325 104.58 94.4976 100.955 84.779 113.503L69.7726 132.878L75.2034 95.4296C77.2653 81.2121 63.8241 69.6882 50.0882 73.8967C36.3523 78.1053 31.6737 95.1809 41.3462 105.803L66.7889 133.744L43.5797 126.125C28.4997 121.175 14.1066 135.285 18.7562 150.461C23.4057 165.636 43.2328 169.261 52.9514 156.713L68.0502 137.219C69.994 151.873 69.4118 170.796 59.4196 182.774L81.3826 176.045L69.2502 136.447L69.2504 136.447L81.3895 176.067L103.352 169.338Z" fill="#E8038D"/>
<path fill-rule="evenodd" clip-rule="evenodd" d="M169.854 217.197C179.767 229.27 180.189 248.234 178.121 262.882L163.132 243.214C153.511 230.591 133.656 234.062 128.889 249.201C124.122 264.339 138.405 278.561 153.523 273.728L176.864 266.267L151.171 294.045C141.416 304.592 145.962 321.704 159.665 326.019C173.368 330.334 186.898 318.915 184.947 304.682L179.814 267.244L194.621 286.672C204.242 299.295 224.096 295.824 228.864 280.685C233.631 265.546 219.348 251.325 204.23 256.158L180.743 263.666C187.444 250.489 198.646 235.226 213.667 231.017L191.757 224.118L191.764 224.096L169.854 217.197Z" fill="#D40606"/>
<path fill-rule="evenodd" clip-rule="evenodd" d="M142.843 237.228C139.513 229.245 142.315 219.123 145.748 211.686L150.558 224.506C153.645 232.734 164.726 234.061 169.669 226.795C174.612 219.529 169.308 209.709 160.521 209.86L146.952 210.092L165.008 199.461C171.863 195.425 172.183 185.627 165.606 181.153C159.029 176.679 150.033 180.575 148.797 188.433L145.545 209.1L140.795 196.439C137.708 188.211 126.627 186.884 121.684 194.15C116.74 201.416 122.045 211.236 130.832 211.085L144.483 210.851C138.827 216.769 130.453 223.074 121.817 222.909L132.333 230.063L145.23 211.105L145.23 211.106L145.231 211.105L132.326 230.074L142.843 237.228Z" fill="#E8038D"/>
<path fill-rule="evenodd" clip-rule="evenodd" d="M69.7566 133.323C48.8854 132.52 43.4923 161.868 63.2857 168.537L96.0021 179.561L108.199 183.67L108.839 170.816L110.556 136.339C111.594 115.481 82.3144 109.755 75.4185 129.468L74.0125 133.487L69.7566 133.323Z" fill="#5D00D2"/>
<path fill-rule="evenodd" clip-rule="evenodd" d="M131.631 192.202C118.545 174.877 91.3786 189.846 99.0343 210.163L111.688 243.746L116.406 256.265L127.172 248.323L156.047 227.02C173.517 214.133 158.861 186.801 138.459 194.222L134.299 195.735L131.631 192.202Z" fill="#E80356"/>
<path fill-rule="evenodd" clip-rule="evenodd" d="M195.382 150.969C174.967 138.692 153.444 165.054 169.556 182.6L196.189 211.602L206.118 222.415L213.824 209.921L234.494 176.413C246.999 156.14 220.888 134.321 203.159 150.229L199.545 153.473L195.382 150.969Z" fill="#E80356"/>
<path fill-rule="evenodd" clip-rule="evenodd" d="M192.025 68.5788C169.573 67.375 163.292 98.8759 184.488 106.376L219.523 118.773L232.584 123.395L233.482 109.569L235.89 72.4882C237.347 50.0539 205.925 43.4146 198.182 64.5208L196.603 68.8242L192.025 68.5788Z" fill="#E80356"/>
<path d="M156.424 246.597L178.583 182.346L232.153 224.173L209.994 288.423L156.424 246.597Z" fill="#D45106"/>
<path fill-rule="evenodd" clip-rule="evenodd" d="M173.4 380.67C181.949 391.801 181.775 408.841 179.491 421.934L166.604 403.835C158.333 392.22 140.405 394.758 135.683 408.212C130.96 421.666 143.37 434.852 157.086 430.953L178.261 424.935L154.381 449.128C145.315 458.314 148.897 473.811 161.075 478.085C173.253 482.359 185.735 472.501 184.398 459.664L180.881 425.894L193.612 443.774C201.882 455.389 219.811 452.852 224.533 439.398C229.255 425.944 216.845 412.758 203.13 416.656L181.821 422.713C188.223 411.077 198.726 397.699 212.337 394.358L192.865 387.524L192.872 387.505L173.4 380.67Z" fill="#E8038D"/>
<circle cx="368.384" cy="336.736" r="42.9932" fill="#1729CE"/>
<circle cx="431.294" cy="429.362" r="42.9932" fill="#1729CE"/>
<circle cx="320.021" cy="473.304" r="42.9932" fill="#1729CE"/>
<circle cx="436.257" cy="480.305" r="42.9932" fill="#1729CE"/>
<circle cx="437.3" cy="252.647" r="42.9932" fill="#1729CE"/>
<circle cx="323.181" cy="216.925" r="42.9932" fill="#1729CE"/>
<path fill-rule="evenodd" clip-rule="evenodd" d="M319.241 360.534L319.241 360.534L335.88 391.676L315.168 402.742C321.344 391.485 320.516 376.911 317.438 364.184L316.855 365.364C304.328 390.715 265.927 378.179 270.772 350.32L278.779 304.273L281.764 287.104L297.475 294.643L339.619 314.866C365.116 327.101 353.016 365.649 325.101 361.119L323.008 360.779C331.911 370.531 343.677 379.495 356.603 380.63L335.891 391.696L319.241 360.534Z" fill="#D40606"/>
<path fill-rule="evenodd" clip-rule="evenodd" d="M419.896 314.23L419.896 314.23L387.085 327.277L378.408 305.456C388.903 312.855 403.48 313.664 416.472 312.029L415.355 311.312C391.566 296.026 408.323 259.27 435.465 267.204L480.326 280.317L497.053 285.206L487.801 299.974L462.986 339.588C447.972 363.554 411.022 347.214 418.65 319.982L419.218 317.954C408.534 325.708 398.314 336.393 395.739 349.107L387.062 327.286L419.896 314.23Z" fill="#1729CE"/>
<path fill-rule="evenodd" clip-rule="evenodd" d="M450.334 460.327L449.626 461.75C434.538 492.06 388.604 476.914 394.502 443.575L404.252 388.469L407.887 367.923L426.672 377.006L477.06 401.369C507.545 416.108 492.922 462.219 459.514 456.696L457.019 456.284C467.644 467.991 481.699 478.766 497.172 480.17L472.334 493.346L472.321 493.322L447.484 506.498C454.921 493.038 453.978 475.579 450.334 460.327Z" fill="#D40606"/>
<path fill-rule="evenodd" clip-rule="evenodd" d="M450.922 368.532L450.922 368.533L492.301 393.096L475.967 420.612C475.222 403.128 463.968 386.72 451.395 374.056L451.55 375.856C454.838 414.246 401.228 426.732 387.216 390.839L364.055 331.512L355.42 309.392L379.054 307.094L442.451 300.928C480.805 297.198 493.903 350.67 458.166 365.088L455.497 366.165C472.756 371.25 492.797 373.397 508.665 365.598L492.331 393.113L450.922 368.532Z" fill="#E8038D"/>
<path d="M378.634 201.216L378.55 123.052L452.504 148.361L452.587 226.525L378.634 201.216Z" fill="#D45106"/>
<path fill-rule="evenodd" clip-rule="evenodd" d="M359.13 314.894L358.349 315.981C341.859 338.952 306.014 320.325 315.334 293.628L330.739 249.501L336.483 233.048L350.755 243.047L389.039 269.869C412.201 286.096 393.981 322.156 367.177 313.136L365.186 312.466C372.38 323.537 382.526 334.295 395.091 337.52L372.853 345.063L372.845 345.041L350.607 352.583C358.539 342.479 360.095 327.956 359.13 314.894Z" fill="#D40606"/>
<path fill-rule="evenodd" clip-rule="evenodd" d="M433.731 241.542L433.732 241.542L447.049 221.302L460.508 230.157C451.697 230.125 443.183 235.404 436.521 241.433L437.432 241.397C456.818 240.636 461.851 267.89 443.472 274.103L413.094 284.372L401.768 288.201L401.161 276.26L399.535 244.23C398.551 224.853 425.75 219.509 432.171 237.819L432.648 239.181C435.606 230.62 437.15 220.593 433.597 212.433L447.056 221.288L433.731 241.542Z" fill="#D40606"/>
<path d="M319.596 166.183L372.407 145.876L374.46 202.419L321.65 222.726L319.596 166.183Z" fill="#D45106"/>
<path d="M353.028 218.023L399.166 203.762L397.668 252.029L351.531 266.29L353.028 218.023Z" fill="#D45106"/>
<path fill-rule="evenodd" clip-rule="evenodd" d="M392.28 244.723C379.945 239.709 371.918 225.676 367.511 213.863L386.735 222.5C399.075 228.044 412.536 217.371 409.952 204.092C407.367 190.814 390.886 185.968 381.526 195.735L367.078 210.812L375.028 179.561C378.047 167.694 367.684 156.724 355.665 159.063C343.646 161.403 338.154 175.458 345.403 185.326L364.472 211.285L345.476 202.751C333.137 197.207 319.675 207.88 322.26 221.159C324.844 234.437 341.326 239.283 350.685 229.516L365.229 214.339C365.566 226.935 363.382 242.924 353.84 252.185L373.058 248.444L366.314 213.794L366.315 213.794L373.062 248.463L392.28 244.723Z" fill="#E8038D"/>
<path fill-rule="evenodd" clip-rule="evenodd" d="M323.114 462.554C319.578 439.94 333.149 415.685 346.653 398.731L350.95 434.709C353.708 457.8 381.354 468.184 398.631 452.618C415.909 437.051 408.454 408.476 385.774 403.334L350.757 395.394L403.852 379.433C424.01 373.373 430.997 348.39 416.907 332.752C402.818 317.113 377.244 321.467 369.123 340.886L347.76 391.965L343.516 356.427C340.758 333.336 313.111 322.952 295.834 338.518C278.557 354.084 286.012 382.66 308.692 387.802L343.926 395.791C325.666 407.442 300.174 418.379 278.081 412.521L300.609 437.526L345.693 396.906L345.692 396.91L300.585 437.549L323.114 462.554Z" fill="#E8038D"/>
<path d="M290.856 241.865L354.299 247.491L328.373 305.667L264.93 300.041L290.856 241.865Z" fill="#D45106"/>
<path d="M282.591 415.562L262.299 355.189L325.99 355.607L346.281 415.98L282.591 415.562Z" fill="#D45106"/>
<path d="M356.893 553.801L336.602 493.428L400.293 493.846L420.584 554.219L356.893 553.801Z" fill="#D45106"/>
<path d="M327.976 364.164L418.693 362.375L390.92 448.754L300.204 450.543L327.976 364.164Z" fill="#D45106"/>
<path fill-rule="evenodd" clip-rule="evenodd" d="M426.902 418.16C426.557 402.9 437.662 388.063 448.082 378.045L447.754 402.205C447.543 417.712 464.904 427.011 477.696 418.243C490.488 409.475 488.076 389.929 473.537 384.532L451.088 376.199L487.594 370.324C501.453 368.094 508.272 352.194 500.336 340.616C492.399 329.037 475.11 329.663 468.031 341.784L449.408 373.675L449.732 349.8C449.943 334.293 432.582 324.994 419.79 333.763C406.998 342.531 409.409 362.077 423.948 367.474L446.539 375.859C433.442 381.952 415.627 386.937 401.539 381.119L414.229 399.633L447.611 376.751L447.609 376.754L414.212 399.646L426.902 418.16Z" fill="#D45106"/>
<path fill-rule="evenodd" clip-rule="evenodd" d="M412.613 516.974C412.267 501.713 423.374 486.875 433.794 476.857L433.466 501.019C433.255 516.526 450.616 525.825 463.408 517.057C476.2 508.288 473.789 488.742 459.25 483.345L436.8 475.013L473.307 469.137C487.166 466.907 493.985 451.008 486.048 439.429C478.112 427.851 460.823 428.476 453.744 440.598L435.12 472.488L435.444 448.615C435.655 433.108 418.294 423.809 405.502 432.577C392.71 441.345 395.122 460.892 409.661 466.288L432.251 474.673C419.154 480.766 401.34 485.751 387.251 479.933L399.942 498.447L433.323 475.565L433.323 475.566L399.923 498.46L412.613 516.974Z" fill="#E8038D"/>
<path fill-rule="evenodd" clip-rule="evenodd" d="M400.382 427.034C403.442 447.937 390.7 470.2 378.085 485.726L374.442 452.483C372.104 431.147 346.682 421.316 330.597 435.527C314.512 449.738 321.136 476.178 342.021 481.128L374.271 488.77L325.124 503.025C306.465 508.437 299.793 531.432 312.656 545.991C325.52 560.55 349.161 556.762 356.831 538.912L377.004 491.963L380.603 524.799C382.941 546.135 408.364 555.966 424.448 541.755C440.533 527.543 433.909 501.103 413.024 496.154L380.576 488.465C397.533 477.876 421.158 468.011 441.495 473.615L420.927 450.336L378.958 487.417L378.959 487.414L420.95 450.314L400.382 427.034Z" fill="#E8038D"/>
<path fill-rule="evenodd" clip-rule="evenodd" d="M327.992 407.788L329.24 408.003C355.996 412.606 354.95 451.375 327.985 454.528L283.415 459.74L266.797 461.683L269.444 445.163L276.543 400.848C280.837 374.038 319.622 374.643 323.08 401.573L323.34 403.595C329.885 392.735 334.924 379.453 332.436 367.243L348.281 383.282L348.264 383.299L364.108 399.338C352.057 396.728 338.866 401.476 327.992 407.788Z" fill="#D40606"/>
<path fill-rule="evenodd" clip-rule="evenodd" d="M340.806 486.319L340.809 486.319L360.283 467.081L373.076 480.032C363.347 477.925 352.697 481.757 343.917 486.854L344.923 487.027C366.526 490.743 365.682 522.046 343.91 524.592L307.923 528.8L294.506 530.369L296.642 517.03L302.374 481.25C305.842 459.603 337.157 460.09 339.949 481.835L340.158 483.466C345.442 474.698 349.51 463.974 347.501 454.117L360.294 467.068L340.806 486.319Z" fill="#D40606"/>
<path d="M356.849 428.343L434.908 430.349L407.658 503.524L329.599 501.518L356.849 428.343Z" fill="#D45106"/>
<path fill-rule="evenodd" clip-rule="evenodd" d="M365.069 242.106C350.766 237.978 340.195 223.315 333.91 210.697L356.302 218.048C370.672 222.765 384.387 209.319 379.956 194.859C375.526 180.399 356.633 176.945 347.372 188.901L333.072 207.364L338.247 171.681C340.212 158.133 327.404 147.152 314.316 151.162C301.227 155.173 296.769 171.444 305.986 181.565L330.23 208.19L308.111 200.929C293.742 196.213 280.027 209.658 284.458 224.118C288.888 238.578 307.781 242.033 317.041 230.076L331.428 211.5C333.281 225.464 332.726 243.495 323.205 254.909L344.133 248.497L332.571 210.761L332.573 210.763L344.141 248.518L365.069 242.106Z" fill="#E8038D"/>
<path fill-rule="evenodd" clip-rule="evenodd" d="M310.677 241.164C320.123 252.668 320.525 270.738 318.555 284.696L304.271 265.955C295.103 253.927 276.184 257.234 271.642 271.659C267.099 286.085 280.709 299.636 295.115 295.031L317.358 287.92L292.875 314.391C283.58 324.441 287.912 340.746 300.969 344.858C314.026 348.97 326.919 338.089 325.059 324.526L320.168 288.848L334.28 307.364C343.448 319.393 362.367 316.085 366.909 301.66C371.452 287.235 357.842 273.683 343.436 278.288L321.051 285.444C327.437 272.888 338.111 258.343 352.425 254.333L331.548 247.759L331.554 247.739L310.677 241.164Z" fill="#E8038D"/>
<path fill-rule="evenodd" clip-rule="evenodd" d="M400.001 312.727C396.828 305.121 399.497 295.477 402.768 288.39L407.351 300.604C410.293 308.444 420.852 309.709 425.562 302.785C430.272 295.861 425.218 286.504 416.845 286.648L403.916 286.869L421.12 276.74C427.652 272.894 427.957 263.558 421.69 259.295C415.423 255.031 406.851 258.744 405.673 266.231L402.574 285.927L398.047 273.86C395.105 266.02 384.546 264.755 379.836 271.679C375.126 278.603 380.18 287.96 388.553 287.816L401.561 287.594C396.172 293.232 388.192 299.24 379.964 299.083L389.984 305.9L402.274 287.834L402.274 287.836L402.277 287.834L389.98 305.91L400.001 312.727Z" fill="#E8038D"/>
<path fill-rule="evenodd" clip-rule="evenodd" d="M319.801 213.265C299.913 212.5 294.774 240.464 313.635 246.819L344.809 257.324L356.432 261.24L357.041 248.991L358.677 216.139C359.667 196.263 331.767 190.807 325.196 209.591L323.856 213.421L319.801 213.265Z" fill="#E80356"/>
<path fill-rule="evenodd" clip-rule="evenodd" d="M330.1 236.001C317.631 219.493 291.744 233.756 299.039 253.116L311.097 285.116L315.592 297.046L325.851 289.477L353.366 269.179C370.012 256.898 356.047 230.855 336.606 237.926L332.643 239.368L330.1 236.001Z" fill="#5D00D2"/>
<path fill-rule="evenodd" clip-rule="evenodd" d="M378.296 169.521C358.843 157.823 338.335 182.943 353.688 199.662L379.066 227.297L388.527 237.6L395.87 225.695L415.565 193.766C427.481 174.449 402.601 153.658 385.707 168.816L382.263 171.907L378.296 169.521Z" fill="#E80356"/>
<path fill-rule="evenodd" clip-rule="evenodd" d="M378.781 137.805C357.387 136.658 351.401 166.674 371.599 173.821L404.983 185.634L417.429 190.038L418.285 176.864L420.579 141.53C421.967 120.153 392.026 113.827 384.648 133.938L383.143 138.039L378.781 137.805Z" fill="#E80356"/>
<path d="M352.248 281.508L373.364 220.285L424.409 260.141L403.294 321.364L352.248 281.508Z" fill="#D45106"/>
<path fill-rule="evenodd" clip-rule="evenodd" d="M360.42 195.143C377.859 190.911 397.691 199.938 411.814 209.387L383.986 215.082C366.126 218.737 359.81 241.011 373.094 253.497C386.378 265.983 408.219 258.302 410.762 240.249L414.689 212.375L430.609 252.818C436.654 268.173 456.626 272.008 467.928 259.984C479.23 247.96 474.166 228.264 458.467 223.181L417.169 209.809L444.661 204.183C462.522 200.528 468.838 178.254 455.554 165.768C442.27 153.282 420.429 160.963 417.886 179.016L413.934 207.069C403.644 193.56 393.44 174.353 396.581 156.711L378.511 175.936L378.491 175.917L360.42 195.143Z" fill="#E8038D"/>
<path fill-rule="evenodd" clip-rule="evenodd" d="M431.466 209.478L431.611 208.594C434.708 189.764 461.963 190.299 464.319 209.235L468.213 240.535L469.665 252.205L458.039 250.43L426.855 245.67C407.989 242.79 408.213 215.526 427.124 212.957L428.536 212.765C420.871 208.223 411.512 204.753 402.946 206.564L414.137 195.344L414.148 195.355L425.34 184.136C423.568 192.62 426.973 201.867 431.466 209.478Z" fill="#D40606"/>
<path fill-rule="evenodd" clip-rule="evenodd" d="M386.728 452.357L386.728 452.356L362.727 428.414L378.649 412.452C376.129 424.52 380.971 437.674 387.362 448.5L387.567 447.25C391.973 420.461 430.749 421.221 434.101 448.162L439.64 492.692L441.706 509.296L425.166 506.771L380.801 499.999C353.96 495.901 354.279 457.113 381.183 453.457L383.196 453.184C372.29 446.721 358.974 441.783 346.786 444.36L362.708 428.398L386.728 452.357Z" fill="#5D00D2"/>
<path fill-rule="evenodd" clip-rule="evenodd" d="M348.505 332.128C356.651 342.734 356.484 358.972 354.308 371.448L342.028 354.202C334.148 343.134 317.064 345.552 312.564 358.372C308.064 371.192 319.89 383.757 332.959 380.042L353.14 374.306L330.384 397.361C321.745 406.113 325.159 420.88 336.763 424.953C348.367 429.026 360.261 419.632 358.987 407.4L355.636 375.225L367.765 392.26C375.646 403.327 392.73 400.909 397.229 388.089C401.729 375.269 389.904 362.705 376.835 366.419L356.531 372.19C362.631 361.103 372.639 348.355 385.608 345.172L367.054 338.66L355.312 372.114L355.311 372.111L367.059 338.641L348.505 332.128Z" fill="#5D00D2"/>
<path fill-rule="evenodd" clip-rule="evenodd" d="M514.938 600.333L516.108 604.776C541.126 699.797 411.883 754.564 361.011 670.5L276.927 531.553L245.576 479.746L303.954 463.656L460.544 420.495C555.282 394.382 611.526 523.012 528.033 574.835L521.792 578.708C567.371 583.949 618.653 580.592 655.113 554.075L626.084 630.336L626.006 630.307L596.977 706.567C587.478 662.97 552.047 626.663 514.938 600.333Z" fill="#161616"/>
<circle cx="45.1192" cy="45.1192" r="45.1192" transform="matrix(4.37114e-08 1 1 -4.37114e-08 341.58 669.563)" fill="#1729CE"/>
<circle cx="37.9811" cy="37.9811" r="37.9811" transform="matrix(4.37114e-08 1 1 -4.37114e-08 255.988 709.214)" fill="#1729CE"/>
<circle cx="37.8205" cy="37.8205" r="37.8205" transform="matrix(4.37114e-08 1 1 -4.37114e-08 201.91 700.257)" fill="#1729CE"/>
<circle cx="27.1294" cy="27.1294" r="27.1294" transform="matrix(4.37114e-08 1 1 -4.37114e-08 137.996 714.49)" fill="#1729CE"/>
<path fill-rule="evenodd" clip-rule="evenodd" d="M195.454 641.58L196.184 642.44C211.964 661.045 241.491 642.531 231.617 620.222L215.297 583.349L209.212 569.6L197.635 579.193L166.581 604.924C147.793 620.491 165.973 650.231 188.394 640.609L190.084 639.884C184.668 649.908 176.69 659.873 166.105 663.523L185.754 668.461L185.759 668.44L205.407 673.377C197.887 665.246 195.536 652.875 195.454 641.58Z" fill="#D40606"/>
<path fill-rule="evenodd" clip-rule="evenodd" d="M246.636 765.891L247.881 765.276C274.486 752.13 261.33 711.83 232.093 716.914L183.769 725.317L165.751 728.45L173.663 744.938L194.887 789.166C207.727 815.923 248.18 803.226 243.426 773.93L243.07 771.739C253.304 781.082 262.71 793.429 263.9 806.993L275.514 785.257L275.494 785.246L287.107 763.511C275.291 769.994 259.993 769.123 246.636 765.891Z" fill="#D40606"/>
<path d="M352.55 693.391L275.003 720.137L325.485 784.793L403.032 758.047L352.55 693.391Z" fill="#D45106"/>
<path fill-rule="evenodd" clip-rule="evenodd" d="M358.545 684.226C355.959 694.88 361.474 706.996 367.247 715.624L370.727 698.621C372.96 687.709 386.567 683.851 394.194 691.966C401.822 700.082 397.13 713.424 386.101 714.978L369.07 717.377L393.78 727.105C403.161 730.797 405.503 742.998 398.158 749.902C390.812 756.807 378.78 753.713 375.675 744.123L367.507 718.894L364.07 735.688C361.837 746.599 348.23 750.458 340.602 742.342C332.974 734.227 337.667 720.885 348.695 719.331L365.829 716.917C357.577 710.631 345.844 704.398 335.067 706.317L346.811 695.278L346.8 695.265L358.545 684.226Z" fill="#E8038D"/>
<path fill-rule="evenodd" clip-rule="evenodd" d="M331.402 710.986L331.402 710.986L365.824 697.245L356.688 674.357C354.03 687.571 343.503 698.71 332.422 706.841L332.755 705.488C339.848 676.673 300.554 660.762 285.601 686.395L260.884 728.762L251.669 744.559L269.376 749.134L316.872 761.407C345.607 768.832 361.967 729.715 336.502 714.472L334.6 713.333C348.339 711.529 363.844 712.292 374.984 720.123L365.847 697.236L331.402 710.986Z" fill="#D40606"/>
<path fill-rule="evenodd" clip-rule="evenodd" d="M387.974 754.058L387.749 754.973C382.965 774.419 409.483 785.153 419.573 767.854L436.248 739.261L442.466 728.6L430.517 725.514L398.463 717.236C379.071 712.228 368.034 738.626 385.22 748.911L386.506 749.68C377.233 750.9 366.768 750.386 359.249 745.102L365.416 760.547L365.433 760.54L371.6 775.983C373.392 767.065 380.497 759.547 387.974 754.058Z" fill="#D40606"/>
<path fill-rule="evenodd" clip-rule="evenodd" d="M175.872 733.941L175.835 734.893C175.036 755.237 203.638 760.519 210.158 741.231L220.935 709.351L224.953 697.465L212.422 696.828L178.808 695.122C158.472 694.089 152.864 722.633 172.079 729.371L173.514 729.874C164.529 732.978 154.005 734.599 145.441 730.871L154.734 744.996L154.75 744.986L164.043 759.11C164.009 749.865 169.547 740.932 175.872 733.941Z" fill="#D40606"/>
<path d="M81.2023 617.894L57.2124 680.282L124.01 682.708L148 620.32L81.2023 617.894Z" fill="#D45106"/>
<path d="M190.083 629.322L195.986 695.902L257.039 668.694L251.136 602.113L190.083 629.322Z" fill="#5D00D2"/>
<path d="M127.118 728.977L110.271 783.481L167.292 781.712L184.14 727.208L127.118 728.977Z" fill="#D45106"/>
<path fill-rule="evenodd" clip-rule="evenodd" d="M158.659 775.34C152.737 760.768 136.157 751.285 122.201 746.079L132.405 768.792C138.955 783.37 126.346 799.272 110.659 796.219C94.9727 793.166 89.2485 773.696 100.787 762.639L118.602 745.567L81.6789 754.96C67.6602 758.526 54.7011 746.284 57.4646 732.085C60.2281 717.887 76.8325 711.398 88.4905 719.962L119.155 742.487L109.075 720.052C102.526 705.475 115.135 689.572 130.821 692.625C146.508 695.678 152.232 715.149 140.694 726.206L122.768 743.384C137.648 743.782 156.534 741.201 167.474 729.93L163.055 752.633L163.078 752.637L158.659 775.34Z" fill="#E8038D"/>
<path fill-rule="evenodd" clip-rule="evenodd" d="M182.808 656.125C178.477 641.115 163.089 630.022 149.847 623.426L157.56 646.922C162.51 662.002 148.4 676.395 133.225 671.745C118.049 667.096 114.424 647.269 126.972 637.55L146.346 622.544L108.897 627.976C94.6791 630.037 83.1552 616.596 87.3637 602.86C91.5723 589.124 108.648 584.446 119.27 594.118L147.216 619.565L139.595 596.351C134.645 581.271 148.755 566.878 163.931 571.528C179.106 576.177 182.731 596.004 170.183 605.723L150.688 620.822C165.343 622.766 184.267 622.184 196.246 612.192L189.516 634.155L149.912 622.02L149.912 622.021L189.537 634.162L182.808 656.125Z" fill="#E8038D"/>
<path fill-rule="evenodd" clip-rule="evenodd" d="M230.666 722.633C242.74 732.546 261.704 732.968 276.352 730.9L256.683 715.909C244.059 706.288 247.531 686.433 262.669 681.666C277.808 676.899 292.029 691.182 287.197 706.3L279.733 729.647L307.515 703.951C318.062 694.196 335.174 698.742 339.489 712.445C343.804 726.148 332.385 739.678 318.152 737.727L280.714 732.594L300.141 747.401C312.765 757.022 309.294 776.876 294.155 781.644C279.016 786.411 264.795 772.128 269.628 757.01L277.136 733.521C263.959 740.223 248.696 751.425 244.487 766.446L237.587 744.536L237.566 744.543L230.666 722.633Z" fill="#E8038D"/>
<path fill-rule="evenodd" clip-rule="evenodd" d="M250.695 695.613C242.712 692.283 232.588 695.085 225.151 698.519L237.972 703.33C246.201 706.417 247.528 717.498 240.262 722.441C232.995 727.384 223.176 722.08 223.326 713.293L223.559 699.729L212.93 717.781C208.895 724.636 199.097 724.956 194.622 718.379C190.148 711.802 194.044 702.806 201.902 701.569L222.571 698.318L209.906 693.566C201.678 690.479 200.351 679.398 207.617 674.455C214.883 669.512 224.703 674.816 224.552 683.603L224.319 697.255C230.236 691.599 236.542 683.225 236.377 674.588L243.531 685.104L243.541 685.097L250.695 695.613Z" fill="#E8038D"/>
<path fill-rule="evenodd" clip-rule="evenodd" d="M146.798 622.542C145.995 601.671 175.342 596.277 182.012 616.071L193.035 648.787L197.145 660.984L184.29 661.624L149.814 663.341C128.955 664.379 123.229 635.1 142.942 628.204L146.962 626.798L146.798 622.542Z" fill="#E80356"/>
<path fill-rule="evenodd" clip-rule="evenodd" d="M205.669 684.406C188.344 671.32 203.313 644.154 223.63 651.809L257.212 664.463L269.732 669.181L261.789 679.947L240.487 708.822C227.599 726.292 200.268 711.636 207.689 691.234L209.202 687.074L205.669 684.406Z" fill="#E80356"/>
<path fill-rule="evenodd" clip-rule="evenodd" d="M164.428 748.149C152.151 727.734 178.513 706.211 196.059 722.323L225.061 748.956L235.873 758.885L223.379 766.591L189.871 787.261C169.599 799.766 147.779 773.655 163.687 755.926L166.931 752.312L164.428 748.149Z" fill="#E80356"/>
<path fill-rule="evenodd" clip-rule="evenodd" d="M82.0583 744.789C80.8545 722.337 112.355 716.056 119.856 737.252L132.253 772.287L136.874 785.348L123.049 786.246L85.9677 788.654C63.5334 790.111 56.8941 758.688 78.0003 750.946L82.3037 749.367L82.0583 744.789Z" fill="#E80356"/>
<path d="M260.064 709.196L195.813 731.355L237.64 784.925L301.891 762.766L260.064 709.196Z" fill="#1729CE"/>
<path fill-rule="evenodd" clip-rule="evenodd" d="M394.137 726.171C405.269 734.721 422.312 734.545 435.405 732.261L417.304 719.372C405.689 711.102 408.226 693.173 421.68 688.451C435.134 683.729 448.32 696.139 444.422 709.854L438.402 731.034L462.598 707.152C471.783 698.085 487.28 701.668 491.554 713.846C495.829 726.024 485.97 738.506 473.133 737.169L439.364 733.652L457.243 746.382C468.858 754.653 466.321 772.581 452.867 777.304C439.413 782.026 426.227 769.616 430.125 755.9L436.182 734.59C424.546 740.992 411.167 751.495 407.826 765.106L400.993 745.635L400.972 745.643L394.137 726.171Z" fill="#E8038D"/>
</svg>
