<svg width="494" height="503" viewBox="0 0 494 503" fill="none" xmlns="http://www.w3.org/2000/svg">
<path fill-rule="evenodd" clip-rule="evenodd" d="M139.417 0.199219C200.962 40.3689 229.653 124.872 241.072 193.523L146.013 126.448C85.0044 83.3998 0.816895 127.032 0.816895 201.699C0.816895 276.367 85.0044 319.999 146.013 276.95L240.21 210.484L164.174 371.439C135.305 432.549 179.883 502.909 247.468 502.909C315.054 502.909 359.632 432.549 330.763 371.439L254.824 210.688L348.73 276.949C409.739 319.998 493.926 276.366 493.926 201.699C493.926 127.031 409.739 83.3991 348.73 126.448L253.942 193.331C265.395 124.734 294.092 40.4198 355.547 0.309057L247.482 0.309057V0.199219L139.417 0.199219Z" fill="#E8038D"/>
</svg>
