<svg width="941" height="967" viewBox="0 0 941 967" fill="none" xmlns="http://www.w3.org/2000/svg">
<path d="M465.93 571.51L444.855 224.064C437.551 103.646 558.095 16.6168 670.095 61.4479L-nan -nanL-nan -nanL670.095 61.4479C782.096 106.279 809.297 252.446 720.922 334.567L465.93 571.51Z" fill="#161616"/>
<path d="M461.694 557.159L688.34 503.197C817.997 472.326 928.568 600.475 879.039 724.212L-nan -nanL-nan -nanL879.039 724.212C829.511 847.949 661.055 864.411 588.509 752.604L461.694 557.159Z" fill="#161616"/>
<path d="M479.22 564.174L252.574 618.137C122.917 649.007 12.346 520.858 61.8747 397.121L-nan -nanL-nan -nanL61.8747 397.121C111.403 273.384 279.859 256.922 352.405 368.73L479.22 564.174Z" fill="#161616"/>
<path d="M515.696 966.195C410.033 815.588 469.282 563.354 512.115 456.062L336.614 894.513L515.696 966.195Z" fill="#161616"/>
<path d="M157.603 822.651C338.001 786.548 469.157 563.096 512.186 455.882L336.685 894.333L157.603 822.651Z" fill="#161616"/>
</svg>
