<svg width="494" height="503" viewBox="0 0 494 503" fill="none" xmlns="http://www.w3.org/2000/svg">
<path fill-rule="evenodd" clip-rule="evenodd" d="M139.357 0.117188C200.902 40.2869 229.593 124.79 241.012 193.441L145.953 126.367C84.9446 83.3184 0.75708 126.95 0.75708 201.618C0.75708 276.285 84.9445 319.917 145.953 276.869L240.15 210.402L164.114 371.358C135.246 432.467 179.824 502.827 247.409 502.827C314.995 502.827 359.572 432.467 330.704 371.358L254.766 210.609L348.67 276.869C409.678 319.918 493.866 276.286 493.866 201.618C493.866 126.951 409.678 83.3188 348.67 126.367L253.883 193.25C265.335 124.653 294.032 40.3377 355.488 0.226577L247.422 0.226577V195.065L247.422 195.063V0.117188L139.357 0.117188Z" fill="#E80356"/>
</svg>
