<svg width="1200" height="1320" viewBox="0 0 1200 1320" fill="none" xmlns="http://www.w3.org/2000/svg">
<mask id="mask0_547_53353" style="mask-type:alpha" maskUnits="userSpaceOnUse" x="315" y="262" width="569" height="795">
<path d="M315.9 472.232L861.891 262.283L883.121 846.863L337.13 1056.81L315.9 472.232Z" fill="#D45106"/>
</mask>
<g mask="url(#mask0_547_53353)">
<rect x="271" y="577.851" width="741.999" height="1132.71" fill="#1D1A1C"/>
<rect x="271" y="384.668" width="741.999" height="193.229" fill="url(#paint0_linear_547_53353)"/>
<circle cx="601.422" cy="481.282" r="57.9687" fill="#1D1A1C"/>
<circle cx="601.422" cy="481.283" r="48.3073" fill="url(#paint1_radial_547_53353)"/>
<circle cx="385.005" cy="481.282" r="57.9687" fill="#1D1A1C"/>
<circle cx="385.005" cy="481.283" r="48.3073" fill="url(#paint2_radial_547_53353)"/>
<circle cx="493.21" cy="481.284" r="79.2239" fill="#1D1A1C"/>
<circle cx="493.21" cy="481.286" r="68.7895" fill="url(#paint3_radial_547_53353)"/>
<circle cx="493.21" cy="481.281" r="12.7531" fill="#1D1A1C"/>
<circle cx="601.418" cy="481.281" r="5.79687" fill="#1D1A1C"/>
<circle cx="385.005" cy="481.281" r="5.79687" fill="#1D1A1C"/>
<rect x="768.758" y="418.289" width="244.242" height="125.985" fill="#1D1A1C"/>
<rect x="782.284" y="431.814" width="230.715" height="98.9333" fill="url(#paint4_diamond_547_53353)" fill-opacity="0.8"/>
<rect x="731.127" y="757.066" width="75.3593" height="152.892" rx="37.6797" fill="url(#paint5_radial_547_53353)"/>
<path fill-rule="evenodd" clip-rule="evenodd" d="M768.156 757.069H768.807C771.598 757.069 778.537 757.707 783.965 760.26V906.765C778.402 909.237 772.328 909.909 769.435 909.956H768.807H768.145C765.114 909.909 758.89 909.237 753.648 906.765V760.26C758.997 757.788 765.171 757.116 768.156 757.069Z" fill="url(#paint6_linear_547_53353)"/>
<rect x="867.301" y="773.059" width="101.638" height="145.308" fill="#BC4106"/>
<rect x="876.576" y="773.059" width="83.0885" height="145.308" fill="url(#paint7_radial_547_53353)"/>
<ellipse cx="918.314" cy="746.587" rx="70.3354" ry="70.5286" fill="#D86107"/>
<circle cx="918.314" cy="929.575" r="70.3354" fill="#AC2F06"/>
<ellipse cx="918.317" cy="929.382" rx="61.0604" ry="61.2536" fill="url(#paint8_radial_547_53353)"/>
<ellipse cx="918.317" cy="746.587" rx="61.0604" ry="61.2536" fill="url(#paint9_radial_547_53353)"/>
<path d="M436.888 477.747C437.421 477.747 437.913 477.857 438.364 478.079C438.815 478.3 439.171 478.616 439.434 479.026C439.704 479.427 439.84 479.899 439.84 480.44C439.84 480.998 439.708 481.49 439.446 481.916C439.282 482.17 439.077 482.408 438.831 482.629C438.585 482.851 438.237 483.105 437.786 483.392C437.212 483.753 436.785 484.052 436.506 484.29C436.228 484.528 435.998 484.774 435.818 485.028H439.889V486.528H433.567C433.567 485.971 433.661 485.483 433.85 485.065C434.038 484.638 434.325 484.241 434.711 483.872C434.932 483.667 435.182 483.462 435.461 483.257C435.74 483.052 436.215 482.724 436.888 482.273C437.273 482.01 437.568 481.748 437.773 481.486C437.986 481.223 438.093 480.92 438.093 480.575C438.093 480.321 438.04 480.096 437.933 479.899C437.827 479.694 437.675 479.534 437.478 479.419C437.29 479.304 437.064 479.247 436.802 479.247C436.375 479.247 436.043 479.423 435.805 479.776C435.568 480.129 435.445 480.612 435.436 481.227H433.764V481.067C433.764 480.403 433.891 479.821 434.145 479.321C434.399 478.821 434.76 478.435 435.227 478.165C435.703 477.886 436.256 477.747 436.888 477.747Z" fill="#1D1A1C"/>
<path d="M438.261 462.289C438.737 462.289 439.196 462.384 439.639 462.572C440.082 462.761 440.443 463.036 440.721 463.396C441.008 463.757 441.152 464.184 441.152 464.676C441.152 465.11 441.045 465.487 440.832 465.807C440.627 466.119 440.332 466.328 439.946 466.434V466.459C440.258 466.525 440.529 466.652 440.758 466.84C440.988 467.029 441.164 467.258 441.287 467.529C441.41 467.8 441.472 468.095 441.472 468.415C441.472 468.989 441.324 469.493 441.029 469.927C440.742 470.354 440.352 470.682 439.86 470.911C439.377 471.133 438.848 471.243 438.274 471.243C437.626 471.243 437.06 471.12 436.576 470.874C436.101 470.629 435.732 470.276 435.469 469.817C435.207 469.358 435.076 468.82 435.076 468.206V468.107H436.736C436.761 468.648 436.904 469.066 437.167 469.362C437.437 469.657 437.798 469.804 438.249 469.804C438.52 469.804 438.762 469.747 438.975 469.632C439.188 469.517 439.352 469.358 439.467 469.153C439.59 468.948 439.651 468.714 439.651 468.452C439.651 467.976 439.508 467.644 439.221 467.455C438.934 467.267 438.503 467.172 437.929 467.172H437.659V465.942H437.979C438.471 465.942 438.844 465.852 439.098 465.672C439.36 465.483 439.491 465.217 439.491 464.872C439.491 464.635 439.434 464.43 439.319 464.257C439.213 464.085 439.065 463.954 438.876 463.864C438.696 463.774 438.495 463.729 438.274 463.729C437.905 463.729 437.589 463.852 437.327 464.097C437.072 464.343 436.945 464.733 436.945 465.266H435.285C435.301 464.667 435.437 464.147 435.691 463.704C435.945 463.253 436.294 462.904 436.736 462.658C437.179 462.412 437.687 462.289 438.261 462.289Z" fill="#1D1A1C"/>
<path d="M373.022 494.081L373.798 492.917H375.151L373.685 495.004L375.332 497.375H373.936L373.004 495.97L372.073 497.375H370.702L372.306 495.03L370.84 492.917H372.237L373.022 494.081ZM378.713 497.375H377.489V493.46H375.971V492.538H376.058C376.546 492.538 376.931 492.437 377.213 492.236C377.5 492.029 377.676 491.73 377.739 491.339H378.713V497.375ZM382.513 491.219C383.237 491.219 383.789 491.483 384.168 492.012C384.548 492.541 384.737 493.314 384.737 494.331C384.737 495.366 384.548 496.154 384.168 496.694C383.789 497.228 383.237 497.496 382.513 497.496C381.788 497.496 381.24 497.228 380.866 496.694C380.492 496.159 380.305 495.372 380.305 494.331C380.305 493.314 380.492 492.541 380.866 492.012C381.24 491.483 381.788 491.219 382.513 491.219ZM381.53 494.297C381.53 494.676 381.547 495.018 381.582 495.323C381.616 495.622 381.705 495.892 381.849 496.133C381.993 496.369 382.214 496.487 382.513 496.487C382.812 496.487 383.033 496.372 383.177 496.142C383.326 495.906 383.418 495.636 383.453 495.332C383.493 495.027 383.513 494.682 383.513 494.297C383.513 493.929 383.49 493.598 383.444 493.305C383.404 493.006 383.309 492.753 383.159 492.547C383.01 492.334 382.792 492.227 382.504 492.227C382.211 492.227 381.993 492.345 381.849 492.581C381.705 492.817 381.616 493.078 381.582 493.366C381.547 493.653 381.53 493.963 381.53 494.297ZM387.304 491.219C388.028 491.219 388.58 491.483 388.959 492.012C389.339 492.541 389.528 493.314 389.528 494.331C389.528 495.366 389.339 496.154 388.959 496.694C388.58 497.228 388.028 497.496 387.304 497.496C386.58 497.496 386.031 497.228 385.657 496.694C385.283 496.159 385.097 495.372 385.097 494.331C385.097 493.314 385.283 492.541 385.657 492.012C386.031 491.483 386.58 491.219 387.304 491.219ZM386.321 494.297C386.321 494.676 386.338 495.018 386.373 495.323C386.407 495.622 386.496 495.892 386.64 496.133C386.784 496.369 387.005 496.487 387.304 496.487C387.603 496.487 387.824 496.372 387.968 496.142C388.117 495.906 388.209 495.636 388.244 495.332C388.284 495.027 388.304 494.682 388.304 494.297C388.304 493.929 388.281 493.598 388.235 493.305C388.195 493.006 388.1 492.753 387.951 492.547C387.801 492.334 387.583 492.227 387.295 492.227C387.002 492.227 386.784 492.345 386.64 492.581C386.496 492.817 386.407 493.078 386.373 493.366C386.338 493.653 386.321 493.963 386.321 494.297ZM392.095 491.219C392.819 491.219 393.371 491.483 393.75 492.012C394.13 492.541 394.319 493.314 394.319 494.331C394.319 495.366 394.13 496.154 393.75 496.694C393.371 497.228 392.819 497.496 392.095 497.496C391.371 497.496 390.822 497.228 390.448 496.694C390.074 496.159 389.888 495.372 389.888 494.331C389.888 493.314 390.074 492.541 390.448 492.012C390.822 491.483 391.371 491.219 392.095 491.219ZM391.112 494.297C391.112 494.676 391.129 495.018 391.164 495.323C391.198 495.622 391.287 495.892 391.431 496.133C391.575 496.369 391.796 496.487 392.095 496.487C392.394 496.487 392.615 496.372 392.759 496.142C392.908 495.906 393 495.636 393.035 495.332C393.075 495.027 393.095 494.682 393.095 494.297C393.095 493.929 393.072 493.598 393.026 493.305C392.986 493.006 392.891 492.753 392.742 492.547C392.592 492.334 392.374 492.227 392.086 492.227C391.793 492.227 391.575 492.345 391.431 492.581C391.287 492.817 391.198 493.078 391.164 493.366C391.129 493.653 391.112 493.963 391.112 494.297ZM397.145 490.408V491.072C397.737 491.135 398.2 491.325 398.533 491.641C398.872 491.952 399.056 492.374 399.085 492.909H397.86C397.86 492.759 397.826 492.621 397.757 492.495C397.694 492.368 397.607 492.268 397.498 492.193C397.389 492.118 397.271 492.081 397.145 492.081V493.607C397.674 493.728 398.093 493.877 398.404 494.055C398.72 494.228 398.947 494.446 399.085 494.711C399.228 494.969 399.3 495.288 399.3 495.668C399.3 495.926 399.226 496.194 399.076 496.47C398.927 496.74 398.688 496.976 398.36 497.177C398.039 497.378 397.633 497.493 397.145 497.522V498.254H396.636V497.522C395.331 497.424 394.615 496.708 394.489 495.375H395.713V495.4C395.713 495.694 395.797 495.938 395.963 496.133C396.13 496.329 396.354 496.455 396.636 496.513V494.711C396.596 494.699 396.524 494.682 396.42 494.659C396.323 494.63 396.199 494.593 396.05 494.547C395.573 494.397 395.216 494.196 394.981 493.943C394.751 493.685 394.636 493.343 394.636 492.917C394.636 492.567 394.719 492.256 394.886 491.986C395.058 491.716 395.294 491.503 395.593 491.348C395.897 491.193 396.245 491.101 396.636 491.072V490.408H397.145ZM395.86 492.797C395.86 492.986 395.92 493.133 396.041 493.236C396.162 493.334 396.36 493.417 396.636 493.486V492.081C396.492 492.081 396.36 492.11 396.239 492.167C396.124 492.225 396.032 492.308 395.963 492.417C395.894 492.526 395.86 492.653 395.86 492.797ZM397.145 496.513C397.421 496.484 397.645 496.395 397.817 496.245C397.99 496.09 398.076 495.898 398.076 495.668C398.076 495.524 398.047 495.403 397.99 495.306C397.932 495.208 397.834 495.125 397.697 495.056C397.564 494.987 397.38 494.921 397.145 494.857V496.513Z" fill="#1D1A1C"/>
<path d="M445.766 452.954H446.91V454.393H445.766V456.386H444.106V454.393H440.465V452.794L444.204 447.776H445.766V452.954ZM441.843 452.954H444.106V449.965H444.069L441.843 452.954Z" fill="#1D1A1C"/>
<path d="M457.622 437.621H454.068L453.723 439.577L453.748 439.602C453.969 439.38 454.215 439.216 454.486 439.11C454.757 438.995 455.072 438.937 455.433 438.937C455.982 438.937 456.458 439.069 456.86 439.331C457.262 439.593 457.565 439.946 457.77 440.389C457.983 440.832 458.09 441.324 458.09 441.865C458.09 442.43 457.95 442.951 457.672 443.427C457.393 443.894 457.012 444.267 456.528 444.546C456.044 444.825 455.511 444.964 454.929 444.964C454.314 444.964 453.764 444.858 453.281 444.644C452.797 444.423 452.416 444.107 452.137 443.697C451.858 443.287 451.71 442.799 451.694 442.234H453.441C453.482 442.627 453.629 442.943 453.883 443.181C454.146 443.41 454.47 443.525 454.855 443.525C455.142 443.525 455.396 443.451 455.618 443.304C455.847 443.148 456.023 442.943 456.146 442.689C456.278 442.435 456.343 442.16 456.343 441.865C456.343 441.57 456.286 441.299 456.171 441.053C456.056 440.807 455.884 440.614 455.654 440.475C455.433 440.327 455.162 440.253 454.843 440.253C454.539 440.253 454.289 440.311 454.092 440.426C453.896 440.532 453.711 440.704 453.539 440.942H451.965L452.813 436.182H457.622V437.621Z" fill="#1D1A1C"/>
<path d="M467.866 427.122C468.366 427.122 468.813 427.216 469.207 427.404C469.609 427.593 469.933 427.868 470.179 428.228C470.433 428.589 470.593 429.016 470.658 429.508H468.998C468.932 429.188 468.793 428.93 468.58 428.733C468.366 428.536 468.12 428.438 467.842 428.438C467.497 428.438 467.206 428.556 466.968 428.794C466.731 429.032 466.546 429.348 466.415 429.741C466.292 430.135 466.218 430.574 466.193 431.057L466.218 431.082C466.456 430.746 466.731 430.504 467.042 430.356C467.354 430.2 467.723 430.123 468.149 430.123C468.608 430.123 469.039 430.233 469.441 430.455C469.851 430.676 470.179 431 470.425 431.426C470.679 431.845 470.806 432.345 470.806 432.927C470.806 433.517 470.679 434.054 470.425 434.538C470.17 435.014 469.814 435.391 469.354 435.67C468.895 435.94 468.375 436.076 467.792 436.076C467.03 436.076 466.403 435.891 465.911 435.522C465.419 435.145 465.058 434.624 464.828 433.96C464.599 433.296 464.484 432.517 464.484 431.623C464.484 430.885 464.599 430.176 464.828 429.495C465.058 428.807 465.423 428.241 465.923 427.798C466.431 427.347 467.079 427.122 467.866 427.122ZM466.353 433.038C466.353 433.325 466.411 433.591 466.526 433.837C466.64 434.075 466.804 434.267 467.018 434.415C467.231 434.563 467.473 434.636 467.743 434.636C468.006 434.636 468.235 434.563 468.432 434.415C468.637 434.267 468.793 434.075 468.899 433.837C469.006 433.591 469.059 433.333 469.059 433.062C469.059 432.783 469.01 432.521 468.912 432.275C468.813 432.029 468.666 431.828 468.469 431.672C468.272 431.517 468.026 431.439 467.731 431.439C467.452 431.439 467.21 431.508 467.005 431.648C466.8 431.779 466.64 431.967 466.526 432.213C466.411 432.451 466.353 432.726 466.353 433.038Z" fill="#1D1A1C"/>
<path d="M493.167 419.393C493.823 419.393 494.364 419.52 494.79 419.774C495.225 420.02 495.541 420.324 495.737 420.684C495.942 421.037 496.045 421.381 496.045 421.718C496.045 422.144 495.934 422.517 495.713 422.837C495.5 423.148 495.192 423.374 494.79 423.513V423.538C495.315 423.661 495.713 423.907 495.983 424.276C496.262 424.645 496.402 425.1 496.402 425.641C496.402 426.215 496.25 426.707 495.947 427.117C495.651 427.519 495.258 427.826 494.766 428.04C494.274 428.245 493.745 428.347 493.179 428.347C492.605 428.347 492.068 428.249 491.568 428.052C491.076 427.855 490.674 427.556 490.363 427.154C490.059 426.744 489.908 426.244 489.908 425.653C489.908 425.112 490.047 424.657 490.326 424.288C490.613 423.911 491.014 423.661 491.531 423.538V423.513C491.129 423.407 490.818 423.198 490.596 422.886C490.375 422.566 490.264 422.185 490.264 421.742C490.264 421.25 490.404 420.828 490.682 420.475C490.961 420.123 491.322 419.856 491.765 419.676C492.208 419.487 492.675 419.393 493.167 419.393ZM491.851 421.902C491.851 422.14 491.908 422.345 492.023 422.517C492.146 422.689 492.306 422.82 492.503 422.911C492.708 422.993 492.929 423.034 493.167 423.034C493.544 423.034 493.852 422.935 494.089 422.738C494.335 422.533 494.458 422.255 494.458 421.902C494.458 421.59 494.36 421.316 494.163 421.078C493.975 420.832 493.638 420.709 493.155 420.709C492.925 420.709 492.712 420.754 492.515 420.844C492.318 420.935 492.158 421.07 492.035 421.25C491.912 421.431 491.851 421.648 491.851 421.902ZM491.654 425.567C491.654 425.854 491.72 426.108 491.851 426.33C491.99 426.551 492.175 426.723 492.404 426.846C492.634 426.969 492.892 427.031 493.179 427.031C493.458 427.031 493.708 426.969 493.929 426.846C494.159 426.723 494.335 426.551 494.458 426.33C494.59 426.108 494.655 425.858 494.655 425.58C494.655 425.317 494.59 425.084 494.458 424.879C494.335 424.665 494.159 424.501 493.929 424.387C493.708 424.264 493.454 424.202 493.167 424.202C492.88 424.202 492.622 424.259 492.392 424.374C492.162 424.481 491.982 424.637 491.851 424.842C491.72 425.047 491.654 425.289 491.654 425.567Z" fill="#1D1A1C"/>
<path d="M483.341 423.771C482.767 424.279 482.271 424.935 481.853 425.739C481.435 426.542 481.111 427.395 480.881 428.297C480.66 429.199 480.541 430.06 480.525 430.88H478.655C478.754 429.617 479.053 428.387 479.553 427.19C480.053 425.985 480.717 424.886 481.546 423.894H477.462V422.27H483.341V423.771Z" fill="#1D1A1C"/>
<path d="M505.772 421.325C506.518 421.325 507.133 421.509 507.617 421.878C508.109 422.247 508.474 422.764 508.712 423.428C508.95 424.084 509.068 424.863 509.068 425.765C509.068 426.527 508.95 427.253 508.712 427.942C508.482 428.622 508.113 429.184 507.605 429.627C507.096 430.061 506.457 430.279 505.686 430.279C505.186 430.279 504.735 430.184 504.333 429.996C503.94 429.807 503.616 429.537 503.362 429.184C503.116 428.823 502.96 428.393 502.894 427.893H504.555C504.62 428.204 504.76 428.462 504.973 428.667C505.186 428.864 505.432 428.963 505.711 428.963C506.178 428.963 506.555 428.741 506.842 428.298C507.129 427.847 507.301 427.196 507.359 426.343L507.334 426.318C507.105 426.646 506.834 426.888 506.523 427.044C506.211 427.2 505.834 427.278 505.391 427.278C504.981 427.278 504.571 427.179 504.161 426.982C503.759 426.777 503.423 426.466 503.152 426.048C502.882 425.621 502.747 425.096 502.747 424.473C502.747 423.899 502.87 423.375 503.116 422.899C503.362 422.415 503.714 422.034 504.173 421.755C504.632 421.468 505.165 421.325 505.772 421.325ZM504.493 424.338C504.493 424.617 504.542 424.883 504.641 425.137C504.739 425.383 504.887 425.584 505.083 425.74C505.28 425.888 505.522 425.962 505.809 425.962C506.104 425.962 506.354 425.892 506.559 425.752C506.773 425.605 506.932 425.412 507.039 425.174C507.146 424.928 507.199 424.658 507.199 424.363C507.199 424.076 507.142 423.813 507.027 423.575C506.912 423.329 506.748 423.133 506.535 422.985C506.322 422.837 506.08 422.764 505.809 422.764C505.547 422.764 505.313 422.837 505.108 422.985C504.911 423.133 504.76 423.329 504.653 423.575C504.546 423.813 504.493 424.067 504.493 424.338Z" fill="#1D1A1C"/>
<path d="M517.36 435.903H515.614V430.319H513.449V429.003H513.572C514.269 429.003 514.819 428.86 515.22 428.573C515.63 428.278 515.88 427.851 515.971 427.294H517.36V435.903ZM522.78 427.122C523.814 427.122 524.601 427.499 525.142 428.253C525.683 429.007 525.954 430.11 525.954 431.562C525.954 433.038 525.683 434.161 525.142 434.932C524.601 435.694 523.814 436.076 522.78 436.076C521.747 436.076 520.964 435.694 520.431 434.932C519.898 434.169 519.632 433.046 519.632 431.562C519.632 430.11 519.898 429.007 520.431 428.253C520.964 427.499 521.747 427.122 522.78 427.122ZM521.378 431.512C521.378 432.054 521.403 432.541 521.452 432.976C521.501 433.402 521.628 433.788 521.833 434.132C522.038 434.468 522.354 434.636 522.78 434.636C523.207 434.636 523.522 434.472 523.727 434.144C523.941 433.808 524.072 433.423 524.121 432.988C524.178 432.554 524.207 432.062 524.207 431.512C524.207 430.988 524.174 430.516 524.109 430.098C524.051 429.672 523.916 429.311 523.703 429.016C523.49 428.712 523.178 428.561 522.768 428.561C522.35 428.561 522.038 428.729 521.833 429.065C521.628 429.401 521.501 429.774 521.452 430.184C521.403 430.594 521.378 431.037 521.378 431.512Z" fill="#1D1A1C"/>
<path d="M540.504 443.917C541.365 443.917 542.12 444.118 542.767 444.52C543.423 444.914 543.928 445.463 544.28 446.168C544.641 446.865 544.821 447.66 544.821 448.554C544.821 449.186 544.723 449.776 544.526 450.325C544.338 450.866 544.055 451.354 543.677 451.789L544.772 452.785L543.874 453.732L542.632 452.601C542.033 452.945 541.324 453.117 540.504 453.117C539.627 453.117 538.86 452.916 538.204 452.515C537.556 452.105 537.056 451.555 536.704 450.866C536.359 450.17 536.187 449.399 536.187 448.554C536.187 447.677 536.359 446.89 536.704 446.193C537.048 445.488 537.544 444.934 538.192 444.532C538.848 444.122 539.619 443.917 540.504 443.917ZM538.118 448.554C538.118 449.046 538.192 449.514 538.34 449.956C538.495 450.399 538.754 450.768 539.114 451.063C539.475 451.35 539.943 451.494 540.517 451.494C540.738 451.494 540.902 451.486 541.008 451.469C541.123 451.453 541.213 451.42 541.279 451.371L540.455 450.621L541.353 449.661L542.349 450.571C542.53 450.334 542.665 450.042 542.755 449.698C542.845 449.354 542.89 448.972 542.89 448.554C542.89 447.956 542.8 447.431 542.62 446.98C542.439 446.529 542.169 446.176 541.808 445.922C541.447 445.668 541.008 445.541 540.492 445.541C539.984 445.541 539.549 445.672 539.188 445.934C538.836 446.189 538.569 446.541 538.389 446.992C538.208 447.443 538.118 447.964 538.118 448.554Z" fill="#1D1A1C"/>
<path d="M546.233 463.227L549.664 459.586H552.075L548.643 463.055L552.407 468.368H549.984L547.34 464.42L546.233 465.539V468.368H544.302V459.586H546.233V463.227Z" fill="#1D1A1C"/>
<path d="M532.435 441.651C532.435 442.619 532.189 443.357 531.697 443.865C531.213 444.365 530.492 444.615 529.532 444.615C528.942 444.615 528.426 444.505 527.983 444.283C527.548 444.062 527.212 443.75 526.974 443.348C526.736 442.939 526.618 442.463 526.618 441.922V441.135H528.364V441.565C528.364 442.073 528.454 442.438 528.635 442.66C528.823 442.881 529.106 442.992 529.483 442.992C529.778 442.992 530 442.93 530.147 442.807C530.303 442.676 530.402 442.516 530.443 442.328C530.484 442.139 530.504 441.905 530.504 441.627V435.624H532.435V441.651Z" fill="#1D1A1C"/>
<path d="M553.509 479.37H550.877V486.528H548.946V479.37H546.314V477.747H553.509V479.37Z" fill="#1D1A1C"/>
<path d="M516.362 439.822L492.778 470.453L497.082 474.651L516.362 439.822Z" fill="#1D1A1C"/>
<path d="M516.379 439.803L502.498 475.883L496.674 474.393L516.379 439.803Z" fill="#1D1A1C"/>
<path d="M617.551 463.124L600.016 478.103L602.012 481.083L617.551 463.124Z" fill="#1D1A1C"/>
<path d="M617.564 463.113L605.022 482.467L601.805 480.881L617.564 463.113Z" fill="#1D1A1C"/>
<path d="M399.663 459.649L384.231 476.787L386.598 479.481L399.663 459.649Z" fill="#1D1A1C"/>
<path d="M399.669 459.636L389.758 480.46L386.362 479.307L399.669 459.636Z" fill="#1D1A1C"/>
<path d="M634.389 484.98C634.389 484.98 631.798 477.937 623.375 477.512C631.396 474.9 632.056 467.424 632.056 467.424C632.056 467.424 634.648 474.467 643.071 474.892C635.05 477.504 634.389 484.98 634.389 484.98Z" fill="#1D1A1C"/>
<path d="M630.492 454.614C629.999 455.525 629.284 456.221 628.495 456.637L628.243 456.761L628.23 456.765L618.929 461.305L617.646 451.035L617.642 451.022L617.609 450.744C617.526 449.856 617.719 448.877 618.212 447.967C619.343 445.878 621.633 444.93 623.329 445.848C625.024 446.766 625.483 449.202 624.352 451.29C625.483 449.202 627.773 448.254 629.469 449.172C631.166 450.089 631.623 452.528 630.493 454.616L630.492 454.614Z" fill="#1D1A1C"/>
<path d="M582.291 448.036C581.793 448.361 581.396 448.789 581.115 449.274L581.115 449.276C580.965 449.494 580.723 449.836 580.418 450.263C580.233 449.34 580.098 448.597 580.029 448.204C579.979 447.642 579.8 447.084 579.481 446.578C578.413 444.879 576.183 444.392 574.503 445.486C572.821 446.582 572.323 448.847 573.391 450.544C573.709 451.048 574.127 451.447 574.604 451.729L574.606 451.729C574.926 451.958 575.528 452.391 576.273 452.946C575.783 453.047 575.391 453.121 575.142 453.168C575.142 453.168 575.142 453.168 575.14 453.167C574.59 453.224 574.043 453.409 573.543 453.734C571.86 454.83 571.362 457.095 572.431 458.793C573.499 460.492 575.729 460.981 577.409 459.885C577.912 459.558 578.307 459.127 578.589 458.637C578.87 458.234 579.456 457.399 580.196 456.397C581.442 459.916 581.07 462.439 581.07 462.439L583.417 460.91L580.595 456.419L583.417 460.91L587.02 458.563C587.02 458.563 584.638 457.859 582.037 455.266C583.171 455.017 584.096 454.837 584.553 454.752C585.108 454.698 585.659 454.512 586.16 454.185C587.842 453.089 588.338 450.823 587.271 449.126C586.203 447.427 583.974 446.938 582.293 448.034L582.291 448.036ZM584.347 459.583L584.331 459.56L584.347 459.583Z" fill="#1D1A1C"/>
<path d="M607.989 447.008C608.013 449.305 606.522 451.184 604.655 451.204C603.484 451.217 602.441 450.495 601.822 449.384C602.233 450.521 602.929 451.996 604.089 453.785L598.522 453.844C599.655 452.016 600.316 450.517 600.7 449.366C600.108 450.506 599.074 451.263 597.892 451.276C596.025 451.296 594.492 449.449 594.465 447.152C594.454 446.15 594.732 445.227 595.205 444.505L595.36 444.284L595.369 444.276L601.109 436.067L607.028 444.149L607.034 444.157L607.193 444.376C607.682 445.089 607.98 446.006 607.991 447.008H607.989Z" fill="#1D1A1C"/>
<path d="M345.354 484.462H344.037V480.251H342.404V479.259H342.497C343.022 479.259 343.437 479.15 343.74 478.934C344.049 478.711 344.237 478.39 344.305 477.969H345.354V484.462ZM349.441 477.84C350.22 477.84 350.813 478.124 351.222 478.693C351.63 479.262 351.834 480.093 351.834 481.188C351.834 482.301 351.63 483.148 351.222 483.729C350.813 484.304 350.22 484.592 349.441 484.592C348.662 484.592 348.071 484.304 347.669 483.729C347.267 483.154 347.066 482.307 347.066 481.188C347.066 480.093 347.267 479.262 347.669 478.693C348.071 478.124 348.662 477.84 349.441 477.84ZM348.383 481.151C348.383 481.559 348.402 481.927 348.439 482.254C348.476 482.576 348.572 482.867 348.727 483.126C348.881 483.38 349.119 483.507 349.441 483.507C349.762 483.507 350 483.383 350.155 483.136C350.316 482.882 350.415 482.591 350.452 482.264C350.495 481.936 350.517 481.565 350.517 481.151C350.517 480.755 350.492 480.399 350.442 480.084C350.399 479.763 350.297 479.491 350.136 479.268C349.976 479.039 349.741 478.925 349.431 478.925C349.116 478.925 348.881 479.052 348.727 479.305C348.572 479.559 348.476 479.84 348.439 480.149C348.402 480.458 348.383 480.792 348.383 481.151ZM354.595 477.84C355.374 477.84 355.967 478.124 356.375 478.693C356.783 479.262 356.987 480.093 356.987 481.188C356.987 482.301 356.783 483.148 356.375 483.729C355.967 484.304 355.374 484.592 354.595 484.592C353.815 484.592 353.225 484.304 352.823 483.729C352.421 483.154 352.22 482.307 352.22 481.188C352.22 480.093 352.421 479.262 352.823 478.693C353.225 478.124 353.815 477.84 354.595 477.84ZM353.537 481.151C353.537 481.559 353.556 481.927 353.593 482.254C353.63 482.576 353.726 482.867 353.88 483.126C354.035 483.38 354.273 483.507 354.595 483.507C354.916 483.507 355.154 483.383 355.309 483.136C355.469 482.882 355.568 482.591 355.605 482.264C355.649 481.936 355.67 481.565 355.67 481.151C355.67 480.755 355.646 480.399 355.596 480.084C355.553 479.763 355.451 479.491 355.29 479.268C355.129 479.039 354.894 478.925 354.585 478.925C354.27 478.925 354.035 479.052 353.88 479.305C353.726 479.559 353.63 479.84 353.593 480.149C353.556 480.458 353.537 480.792 353.537 481.151Z" fill="#1D1A1C"/>
<path d="M348.672 461.996C349.074 461.996 349.445 462.079 349.785 462.246C350.125 462.413 350.394 462.651 350.592 462.96C350.796 463.263 350.898 463.619 350.898 464.027C350.898 464.448 350.799 464.819 350.601 465.14C350.477 465.332 350.323 465.511 350.137 465.678C349.952 465.845 349.689 466.037 349.349 466.253C348.916 466.525 348.594 466.751 348.384 466.93C348.174 467.109 348.001 467.295 347.865 467.487H350.935V468.618H346.167C346.167 468.198 346.239 467.83 346.381 467.514C346.523 467.193 346.739 466.893 347.03 466.615C347.197 466.46 347.386 466.306 347.596 466.151C347.806 465.996 348.165 465.749 348.672 465.409C348.962 465.211 349.185 465.013 349.339 464.815C349.5 464.618 349.581 464.389 349.581 464.129C349.581 463.937 349.54 463.767 349.46 463.619C349.38 463.464 349.265 463.344 349.117 463.257C348.975 463.171 348.805 463.127 348.607 463.127C348.285 463.127 348.035 463.26 347.855 463.526C347.676 463.792 347.583 464.157 347.577 464.621H346.316V464.5C346.316 463.999 346.412 463.56 346.603 463.183C346.795 462.806 347.067 462.515 347.42 462.311C347.778 462.101 348.196 461.996 348.672 461.996ZM353.696 461.996C354.475 461.996 355.068 462.28 355.476 462.849C355.885 463.418 356.089 464.25 356.089 465.344C356.089 466.457 355.885 467.304 355.476 467.885C355.068 468.46 354.475 468.748 353.696 468.748C352.917 468.748 352.326 468.46 351.924 467.885C351.522 467.31 351.321 466.463 351.321 465.344C351.321 464.25 351.522 463.418 351.924 462.849C352.326 462.28 352.917 461.996 353.696 461.996ZM352.638 465.307C352.638 465.715 352.657 466.083 352.694 466.411C352.731 466.732 352.827 467.023 352.981 467.283C353.136 467.536 353.374 467.663 353.696 467.663C354.017 467.663 354.255 467.539 354.41 467.292C354.571 467.038 354.669 466.748 354.707 466.42C354.75 466.092 354.772 465.721 354.772 465.307C354.772 464.911 354.747 464.556 354.697 464.24C354.654 463.919 354.552 463.647 354.391 463.424C354.23 463.195 353.996 463.081 353.686 463.081C353.371 463.081 353.136 463.208 352.981 463.461C352.827 463.715 352.731 463.996 352.694 464.305C352.657 464.614 352.638 464.948 352.638 465.307ZM358.849 461.996C359.628 461.996 360.222 462.28 360.63 462.849C361.038 463.418 361.242 464.25 361.242 465.344C361.242 466.457 361.038 467.304 360.63 467.885C360.222 468.46 359.628 468.748 358.849 468.748C358.07 468.748 357.48 468.46 357.078 467.885C356.676 467.31 356.475 466.463 356.475 465.344C356.475 464.25 356.676 463.418 357.078 462.849C357.48 462.28 358.07 461.996 358.849 461.996ZM357.792 465.307C357.792 465.715 357.811 466.083 357.848 466.411C357.885 466.732 357.981 467.023 358.135 467.283C358.29 467.536 358.528 467.663 358.849 467.663C359.171 467.663 359.409 467.539 359.564 467.292C359.724 467.038 359.823 466.748 359.86 466.42C359.904 466.092 359.925 465.721 359.925 465.307C359.925 464.911 359.901 464.556 359.851 464.24C359.808 463.919 359.706 463.647 359.545 463.424C359.384 463.195 359.149 463.081 358.84 463.081C358.525 463.081 358.29 463.208 358.135 463.461C357.981 463.715 357.885 463.996 357.848 464.305C357.811 464.614 357.792 464.948 357.792 465.307Z" fill="#1D1A1C"/>
<path d="M358.972 447.696C359.331 447.696 359.677 447.767 360.011 447.909C360.345 448.052 360.617 448.259 360.827 448.531C361.044 448.803 361.152 449.124 361.152 449.495C361.152 449.823 361.072 450.108 360.911 450.349C360.756 450.584 360.534 450.741 360.243 450.822V450.84C360.478 450.89 360.682 450.986 360.855 451.128C361.028 451.27 361.161 451.443 361.254 451.647C361.347 451.851 361.393 452.074 361.393 452.315C361.393 452.748 361.282 453.128 361.059 453.456C360.843 453.777 360.549 454.025 360.178 454.198C359.813 454.365 359.415 454.448 358.982 454.448C358.493 454.448 358.067 454.355 357.702 454.17C357.343 453.984 357.065 453.719 356.867 453.372C356.669 453.026 356.57 452.621 356.57 452.157V452.083H357.822C357.841 452.491 357.949 452.807 358.147 453.029C358.351 453.252 358.623 453.363 358.963 453.363C359.167 453.363 359.35 453.32 359.51 453.233C359.671 453.147 359.795 453.026 359.881 452.871C359.974 452.717 360.021 452.541 360.021 452.343C360.021 451.984 359.912 451.734 359.696 451.592C359.48 451.449 359.155 451.378 358.722 451.378H358.518V450.451H358.759C359.13 450.451 359.412 450.383 359.603 450.247C359.801 450.104 359.9 449.903 359.9 449.644C359.9 449.464 359.857 449.31 359.77 449.18C359.69 449.05 359.578 448.951 359.436 448.883C359.3 448.815 359.149 448.781 358.982 448.781C358.704 448.781 358.465 448.874 358.268 449.059C358.076 449.245 357.98 449.539 357.98 449.941H356.728C356.74 449.489 356.842 449.097 357.034 448.763C357.226 448.423 357.488 448.16 357.822 447.974C358.156 447.789 358.54 447.696 358.972 447.696ZM364.126 447.696C364.905 447.696 365.499 447.98 365.907 448.549C366.315 449.118 366.519 449.95 366.519 451.044C366.519 452.157 366.315 453.004 365.907 453.586C365.499 454.161 364.905 454.448 364.126 454.448C363.347 454.448 362.757 454.161 362.355 453.586C361.953 453.011 361.752 452.163 361.752 451.044C361.752 449.95 361.953 449.118 362.355 448.549C362.757 447.98 363.347 447.696 364.126 447.696ZM363.069 451.007C363.069 451.415 363.087 451.783 363.125 452.111C363.162 452.432 363.258 452.723 363.412 452.983C363.567 453.236 363.805 453.363 364.126 453.363C364.448 453.363 364.686 453.239 364.84 452.992C365.001 452.739 365.1 452.448 365.137 452.12C365.181 451.792 365.202 451.421 365.202 451.007C365.202 450.611 365.177 450.256 365.128 449.941C365.085 449.619 364.983 449.347 364.822 449.124C364.661 448.896 364.426 448.781 364.117 448.781C363.802 448.781 363.567 448.908 363.412 449.161C363.258 449.415 363.162 449.696 363.125 450.005C363.087 450.315 363.069 450.649 363.069 451.007ZM369.28 447.696C370.059 447.696 370.653 447.98 371.061 448.549C371.469 449.118 371.673 449.95 371.673 451.044C371.673 452.157 371.469 453.004 371.061 453.586C370.653 454.161 370.059 454.448 369.28 454.448C368.501 454.448 367.91 454.161 367.509 453.586C367.107 453.011 366.906 452.163 366.906 451.044C366.906 449.95 367.107 449.118 367.509 448.549C367.91 447.98 368.501 447.696 369.28 447.696ZM368.223 451.007C368.223 451.415 368.241 451.783 368.278 452.111C368.315 452.432 368.411 452.723 368.566 452.983C368.72 453.236 368.959 453.363 369.28 453.363C369.602 453.363 369.84 453.239 369.994 452.992C370.155 452.739 370.254 452.448 370.291 452.12C370.334 451.792 370.356 451.421 370.356 451.007C370.356 450.611 370.331 450.256 370.282 449.941C370.238 449.619 370.136 449.347 369.976 449.124C369.815 448.896 369.58 448.781 369.271 448.781C368.955 448.781 368.72 448.908 368.566 449.161C368.411 449.415 368.315 449.696 368.278 450.005C368.241 450.315 368.223 450.649 368.223 451.007Z" fill="#1D1A1C"/>
<path d="M381.035 444.39H381.897V445.475H381.035V446.978H379.782V445.475H377.037V444.269L379.857 440.485H381.035V444.39ZM378.076 444.39H379.782V442.136H379.755L378.076 444.39ZM384.612 440.355C385.391 440.355 385.984 440.64 386.392 441.208C386.801 441.777 387.005 442.609 387.005 443.703C387.005 444.816 386.801 445.664 386.392 446.245C385.984 446.82 385.391 447.107 384.612 447.107C383.833 447.107 383.242 446.82 382.84 446.245C382.438 445.67 382.237 444.823 382.237 443.703C382.237 442.609 382.438 441.777 382.84 441.208C383.242 440.64 383.833 440.355 384.612 440.355ZM383.554 443.666C383.554 444.074 383.573 444.442 383.61 444.77C383.647 445.092 383.743 445.382 383.897 445.642C384.052 445.895 384.29 446.022 384.612 446.022C384.933 446.022 385.171 445.899 385.326 445.651C385.487 445.398 385.586 445.107 385.623 444.779C385.666 444.452 385.688 444.081 385.688 443.666C385.688 443.271 385.663 442.915 385.613 442.6C385.57 442.278 385.468 442.006 385.307 441.784C385.146 441.555 384.912 441.44 384.602 441.44C384.287 441.44 384.052 441.567 383.897 441.821C383.743 442.074 383.647 442.355 383.61 442.665C383.573 442.974 383.554 443.308 383.554 443.666ZM389.765 440.355C390.545 440.355 391.138 440.64 391.546 441.208C391.954 441.777 392.158 442.609 392.158 443.703C392.158 444.816 391.954 445.664 391.546 446.245C391.138 446.82 390.545 447.107 389.765 447.107C388.986 447.107 388.396 446.82 387.994 446.245C387.592 445.67 387.391 444.823 387.391 443.703C387.391 442.609 387.592 441.777 387.994 441.208C388.396 440.64 388.986 440.355 389.765 440.355ZM388.708 443.666C388.708 444.074 388.727 444.442 388.764 444.77C388.801 445.092 388.897 445.382 389.051 445.642C389.206 445.895 389.444 446.022 389.765 446.022C390.087 446.022 390.325 445.899 390.48 445.651C390.64 445.398 390.739 445.107 390.776 444.779C390.82 444.452 390.841 444.081 390.841 443.666C390.841 443.271 390.817 442.915 390.767 442.6C390.724 442.278 390.622 442.006 390.461 441.784C390.3 441.555 390.065 441.44 389.756 441.44C389.441 441.44 389.206 441.567 389.051 441.821C388.897 442.074 388.801 442.355 388.764 442.665C388.727 442.974 388.708 443.308 388.708 443.666Z" fill="#1D1A1C"/>
<path d="M402.006 449.683H399.325L399.065 451.158L399.084 451.177C399.251 451.01 399.436 450.886 399.641 450.806C399.845 450.719 400.083 450.676 400.355 450.676C400.769 450.676 401.128 450.775 401.431 450.973C401.734 451.171 401.962 451.436 402.117 451.77C402.278 452.104 402.358 452.475 402.358 452.883C402.358 453.31 402.253 453.703 402.043 454.061C401.833 454.414 401.545 454.695 401.18 454.905C400.815 455.116 400.413 455.221 399.974 455.221C399.511 455.221 399.096 455.14 398.732 454.98C398.367 454.813 398.079 454.575 397.869 454.265C397.659 453.956 397.547 453.588 397.535 453.162H398.852C398.883 453.458 398.994 453.696 399.186 453.876C399.384 454.049 399.628 454.135 399.919 454.135C400.135 454.135 400.327 454.08 400.494 453.969C400.667 453.851 400.8 453.696 400.893 453.505C400.992 453.313 401.041 453.106 401.041 452.883C401.041 452.661 400.998 452.457 400.911 452.271C400.825 452.086 400.695 451.94 400.522 451.835C400.355 451.724 400.151 451.668 399.91 451.668C399.681 451.668 399.492 451.712 399.344 451.798C399.195 451.879 399.056 452.008 398.926 452.188H397.739L398.379 448.598H402.006V449.683ZM405.091 448.468C405.87 448.468 406.464 448.753 406.872 449.322C407.28 449.891 407.484 450.722 407.484 451.817C407.484 452.93 407.28 453.777 406.872 454.358C406.464 454.933 405.87 455.221 405.091 455.221C404.312 455.221 403.722 454.933 403.32 454.358C402.918 453.783 402.717 452.936 402.717 451.817C402.717 450.722 402.918 449.891 403.32 449.322C403.722 448.753 404.312 448.468 405.091 448.468ZM404.034 451.78C404.034 452.188 404.052 452.556 404.089 452.883C404.127 453.205 404.222 453.496 404.377 453.755C404.532 454.009 404.77 454.135 405.091 454.135C405.413 454.135 405.651 454.012 405.805 453.764C405.966 453.511 406.065 453.22 406.102 452.893C406.145 452.565 406.167 452.194 406.167 451.78C406.167 451.384 406.142 451.028 406.093 450.713C406.05 450.391 405.948 450.119 405.787 449.897C405.626 449.668 405.391 449.554 405.082 449.554C404.766 449.554 404.532 449.68 404.377 449.934C404.222 450.187 404.127 450.469 404.089 450.778C404.052 451.087 404.034 451.421 404.034 451.78ZM410.245 448.468C411.024 448.468 411.618 448.753 412.026 449.322C412.434 449.891 412.638 450.722 412.638 451.817C412.638 452.93 412.434 453.777 412.026 454.358C411.618 454.933 411.024 455.221 410.245 455.221C409.466 455.221 408.875 454.933 408.473 454.358C408.071 453.783 407.871 452.936 407.871 451.817C407.871 450.722 408.071 449.891 408.473 449.322C408.875 448.753 409.466 448.468 410.245 448.468ZM409.188 451.78C409.188 452.188 409.206 452.556 409.243 452.883C409.28 453.205 409.376 453.496 409.531 453.755C409.685 454.009 409.923 454.135 410.245 454.135C410.566 454.135 410.804 454.012 410.959 453.764C411.12 453.511 411.219 453.22 411.256 452.893C411.299 452.565 411.321 452.194 411.321 451.78C411.321 451.384 411.296 451.028 411.247 450.713C411.203 450.391 411.101 450.119 410.941 449.897C410.78 449.668 410.545 449.554 410.236 449.554C409.92 449.554 409.685 449.68 409.531 449.934C409.376 450.187 409.28 450.469 409.243 450.778C409.206 451.087 409.188 451.421 409.188 451.78Z" fill="#1D1A1C"/>
<g clip-path="url(#clip0_547_53353)">
<path d="M918.12 807.832C951.947 807.832 979.369 780.41 979.369 746.583C979.369 712.755 951.947 685.333 918.12 685.333C884.292 685.333 856.87 712.755 856.87 746.583C856.87 780.41 884.292 807.832 918.12 807.832Z" fill="#1D1A1C"/>
<path d="M918.117 789.834C942.004 789.834 961.369 770.469 961.369 746.582C961.369 722.695 942.004 703.33 918.117 703.33C894.23 703.33 874.865 722.695 874.865 746.582C874.865 770.469 894.23 789.834 918.117 789.834Z" fill="#1D1A1C" stroke="url(#paint10_linear_547_53353)" stroke-width="1.93229" stroke-miterlimit="10"/>
<path fill-rule="evenodd" clip-rule="evenodd" d="M907.696 749.569L879.464 765.86C879.464 765.86 880.667 768.381 882.503 771.016L910.1 755.169L894.256 782.597C894.256 782.597 896.563 784.146 899.462 785.546L915.132 758.4V789.665C915.132 789.665 917.899 789.904 921.103 789.665V757.721L937.077 785.391V785.383C937.077 785.383 939.59 784.205 942.25 782.393L926.281 754.734L953.937 770.7L953.935 770.703H953.943L953.937 770.7C954.006 770.601 955.556 768.365 956.925 765.531L929.28 749.569H961.207C961.207 749.569 961.445 746.802 961.207 743.598H930.252L957.179 728.135C955.812 725.219 954.148 722.765 954.148 722.765L926.489 738.725L942.525 710.945C939.88 709.116 937.393 707.922 937.393 707.922L921.103 736.122V703.499C917.907 703.277 915.132 703.499 915.132 703.499V735.424L899.163 707.767C896.264 709.159 893.99 710.757 893.99 710.757L909.956 738.412L882.298 722.443C880.478 725.096 879.308 727.616 879.308 727.616L906.991 743.598H875.032C874.802 746.794 875.032 749.569 875.032 749.569H907.696Z" fill="url(#paint11_linear_547_53353)"/>
<path d="M881.604 746.731C881.604 726.452 897.951 710.018 918.124 710.018C938.296 710.018 954.644 726.452 954.644 746.731C954.644 767.01 938.296 783.445 918.124 783.445C897.951 783.445 881.604 767.01 881.604 746.731Z" fill="#1D1A1C" stroke="url(#paint12_linear_547_53353)" stroke-width="1.93229" stroke-miterlimit="10"/>
<path fill-rule="evenodd" clip-rule="evenodd" d="M926.225 698.777C923.589 698.324 920.879 698.093 918.119 698.093C915.36 698.093 912.65 698.332 910.014 698.777L909.428 685.914C919.494 684.506 926.819 685.914 926.819 685.914L926.225 698.777ZM960.335 722.696C961.694 725.102 962.822 727.573 963.72 730.093L975.095 724.245C975.095 724.245 972.789 717.359 966.619 709.279L955.755 715.975C957.444 718.051 958.976 720.291 960.335 722.696ZM955.358 777.769C957.08 775.727 958.653 773.511 960.053 771.13C961.453 768.75 962.623 766.295 963.57 763.8L974.838 769.845C971.067 779.246 966.237 784.656 966.237 784.656L955.358 777.769ZM909.923 794.316C912.558 794.769 915.268 795 918.028 795C920.787 795 923.497 794.761 926.133 794.316L926.626 807.456C916.56 808.864 909.428 807.263 909.428 807.263L909.923 794.316ZM876.26 722.103C877.66 719.723 879.225 717.499 880.946 715.456L870.173 708.57C870.173 708.57 865.194 714.01 861.314 723.4L872.751 729.434C873.698 726.938 874.868 724.484 876.26 722.095V722.103ZM872.735 763.7C873.682 766.204 874.843 768.659 876.243 771.039C877.644 773.42 879.209 775.644 880.93 777.687L870.01 784.654C863.7 776.681 861.314 769.776 861.314 769.776L872.735 763.7Z" fill="url(#paint13_linear_547_53353)"/>
</g>
<g clip-path="url(#clip1_547_53353)">
<path d="M918.506 990.579C952.334 990.579 979.756 963.157 979.756 929.33C979.756 895.502 952.334 868.08 918.506 868.08C884.679 868.08 857.257 895.502 857.257 929.33C857.257 963.157 884.679 990.579 918.506 990.579Z" fill="#1D1A1C"/>
<path d="M918.507 972.579C942.394 972.579 961.759 953.214 961.759 929.327C961.759 905.44 942.394 886.075 918.507 886.075C894.62 886.075 875.255 905.44 875.255 929.327C875.255 953.214 894.62 972.579 918.507 972.579Z" fill="#1D1A1C" stroke="url(#paint14_linear_547_53353)" stroke-width="1.93229" stroke-miterlimit="10"/>
<path fill-rule="evenodd" clip-rule="evenodd" d="M908.082 932.321L879.851 948.612C879.851 948.612 881.053 951.133 882.89 953.768L910.482 937.924L894.64 965.349C894.64 965.349 896.946 966.898 899.845 968.298L915.519 941.146V972.417C915.519 972.417 918.286 972.656 921.49 972.417V940.473L937.464 968.142V968.134C937.464 968.134 939.976 966.956 942.637 965.144L926.668 937.486L954.324 953.452L954.321 953.455H954.33L954.324 953.452C954.392 953.353 955.942 951.117 957.311 948.283L929.667 932.321H961.593C961.593 932.321 961.832 929.554 961.593 926.35H930.639L957.566 910.887C956.198 907.971 954.534 905.517 954.534 905.517L926.87 921.48L942.908 893.697C940.264 891.868 937.776 890.674 937.776 890.674L921.49 918.867V886.251C918.294 886.029 915.519 886.251 915.519 886.251V918.176L899.55 890.518C896.65 891.91 894.377 893.508 894.377 893.508L910.344 921.165L882.685 905.195C880.865 907.848 879.695 910.368 879.695 910.368L907.378 926.35H875.419C875.188 929.545 875.419 932.321 875.419 932.321H908.082Z" fill="url(#paint15_linear_547_53353)"/>
<path d="M881.986 929.478C881.986 909.199 898.334 892.765 918.507 892.765C938.679 892.765 955.027 909.199 955.027 929.478C955.027 949.757 938.679 966.192 918.507 966.192C898.334 966.192 881.986 949.757 881.986 929.478Z" fill="#1D1A1C" stroke="url(#paint16_linear_547_53353)" stroke-width="1.93229" stroke-miterlimit="10"/>
<path fill-rule="evenodd" clip-rule="evenodd" d="M926.604 881.52C923.969 881.067 921.259 880.837 918.499 880.837C915.74 880.837 913.03 881.075 910.394 881.52L909.808 868.657C919.874 867.249 927.199 868.657 927.199 868.657L926.604 881.52ZM960.715 905.44C962.074 907.846 963.202 910.317 964.1 912.837L975.475 906.989C975.475 906.989 973.169 900.103 967 892.022L956.135 898.719C957.824 900.795 959.356 903.035 960.715 905.44ZM955.738 960.513C957.46 958.47 959.033 956.254 960.433 953.874C961.833 951.493 963.003 949.039 963.95 946.543L975.218 952.589C971.447 961.989 966.617 967.4 966.617 967.4L955.738 960.513ZM910.303 977.059C912.938 977.512 915.648 977.743 918.408 977.743C921.167 977.743 923.877 977.504 926.513 977.059L927.006 990.199C916.94 991.607 909.808 990.006 909.808 990.006L910.303 977.059ZM876.64 904.847C878.04 902.466 879.605 900.242 881.326 898.199L870.553 891.313C870.553 891.313 865.574 896.753 861.694 906.143L873.131 912.177C874.078 909.682 875.248 907.227 876.64 904.838V904.847ZM873.114 946.443C874.062 948.947 875.223 951.402 876.623 953.783C878.024 956.163 879.589 958.387 881.31 960.43L870.39 967.397C864.08 959.424 861.694 952.519 861.694 952.519L873.114 946.443Z" fill="url(#paint17_linear_547_53353)"/>
</g>
<path fill-rule="evenodd" clip-rule="evenodd" d="M493.093 1030.97C602.145 1030.97 690.549 942.564 690.549 833.513C690.549 791.222 677.253 752.036 654.615 719.908C618.876 669.189 559.854 636.057 493.093 636.057C426.332 636.057 367.309 669.189 331.571 719.908C308.932 752.036 295.637 791.222 295.637 833.513C295.637 942.564 384.041 1030.97 493.093 1030.97ZM493.02 991.743C580.421 991.743 651.274 920.89 651.274 833.488C651.274 746.087 580.421 675.234 493.02 675.234C405.618 675.234 334.765 746.087 334.765 833.488C334.765 920.89 405.618 991.743 493.02 991.743Z" fill="url(#paint18_radial_547_53353)"/>
<path fill-rule="evenodd" clip-rule="evenodd" d="M531.518 890.198C540.579 884.054 548.083 875.787 553.317 866.111C585.875 864.278 622.884 860.837 650.173 854.803H650.366C652.839 835.817 650.817 815.958 649.593 808.401H649.4C633.493 810.011 610.198 809.973 594.723 803.99C582.089 799.105 570.52 792.95 559.374 787.021C539.871 776.646 521.666 766.961 501.329 765.978C498.692 765.668 496.009 765.509 493.288 765.509C490.497 765.509 487.745 765.676 485.042 766.002C465.021 767.192 447.033 776.761 427.782 787.003L427.782 787.003L427.782 787.003C416.636 792.932 405.066 799.087 392.432 803.972C376.957 809.955 352.89 810.011 336.983 808.401H336.789C335.345 815.136 333.026 833.879 336.016 854.77H336.21C363.412 860.785 400.535 864.228 433.238 866.071C438.782 876.337 446.882 885.02 456.685 891.268C463.498 907.378 474.336 943.925 471.46 990.397L471.462 990.397C471.663 990.784 482.59 992.019 493.866 992.329L493.87 992.329L493.872 992.329V992.329L493.872 992.329L493.873 992.329L493.873 992.329L493.886 992.327L493.872 992.33C505.155 992.021 516.477 990.591 516.67 990.205L516.64 990.206L516.669 990.204C513.727 942.674 524.78 905.701 531.518 890.198Z" fill="url(#paint19_linear_547_53353)"/>
<circle cx="493.403" cy="833.517" r="60.4807" fill="url(#paint20_radial_547_53353)"/>
<path fill-rule="evenodd" clip-rule="evenodd" d="M467.027 810.782H475.187V824.05L485.387 810.782H493.547H494.567H502.727L512.927 824.05V810.782H521.087V857.728H512.927V844.461L502.727 857.728H494.567H493.547H485.387L475.187 844.461V857.728H467.027V810.782ZM494.057 857.111L512.927 834.255L494.057 811.4L475.187 834.255L494.057 857.111Z" fill="url(#paint21_radial_547_53353)"/>
<path fill-rule="evenodd" clip-rule="evenodd" d="M328.089 724.932C346.959 694.985 401.507 635.86 493.859 636.057C584.472 636.25 639.472 695.242 657.697 724.352L607.704 724.44C578.873 694.129 538.152 675.234 493.017 675.234C447.681 675.234 406.799 694.297 377.947 724.844L328.089 724.932Z" fill="url(#paint22_linear_547_53353)"/>
<path fill-rule="evenodd" clip-rule="evenodd" d="M377.996 942.182L328.089 942.095C346.959 972.042 399.382 1030.2 492.7 1030.97C584.47 1031.73 639.472 971.784 657.697 942.674L607.655 942.586C578.828 972.868 538.126 991.741 493.017 991.741C447.707 991.741 406.845 972.7 377.996 942.182Z" fill="url(#paint23_linear_547_53353)"/>
<path d="M312.22 716.402L295.575 705.684L296.58 704.125L298.413 704.65L298.492 704.529C298.29 703.985 298.201 703.249 298.223 702.322C298.257 701.378 298.556 700.467 299.121 699.59C299.78 698.567 300.663 697.802 301.769 697.297C302.86 696.781 304.055 696.585 305.354 696.709C306.663 696.817 307.927 697.263 309.146 698.048C310.364 698.832 311.293 699.798 311.933 700.946C312.584 702.077 312.908 703.251 312.906 704.468C312.904 705.685 312.573 706.805 311.914 707.828C311.37 708.673 310.684 709.311 309.854 709.742C309.009 710.163 308.316 710.383 307.775 710.403L307.696 710.524L313.569 714.306L312.22 716.402ZM309.862 706.679C310.291 706.013 310.496 705.283 310.478 704.491C310.471 703.681 310.239 702.9 309.782 702.146C309.319 701.365 308.657 700.698 307.796 700.143C306.935 699.589 306.062 699.268 305.176 699.18C304.301 699.076 303.493 699.188 302.753 699.516C302.024 699.828 301.445 700.317 301.016 700.983C300.587 701.649 300.376 702.387 300.384 703.196C300.391 704.005 300.618 704.795 301.065 705.565C301.522 706.319 302.181 706.973 303.042 707.527C303.903 708.082 304.779 708.416 305.671 708.531C306.556 708.618 307.369 708.498 308.109 708.17C308.849 707.842 309.433 707.345 309.862 706.679Z" fill="#CC5407"/>
<path d="M321.526 681.703C322.035 682.118 322.385 682.452 322.576 682.708L315.587 691.295C316.728 691.974 317.847 692.237 318.944 692.083C320.04 691.93 320.967 691.388 321.723 690.459C322.723 689.23 322.978 687.893 322.486 686.446L324.114 684.445C324.736 685.549 325.015 686.798 324.952 688.191C324.874 689.573 324.383 690.818 323.481 691.927C322.663 692.931 321.659 693.645 320.466 694.07C319.273 694.494 318.032 694.581 316.743 694.328C315.453 694.076 314.246 693.492 313.123 692.577C312.029 691.687 311.233 690.628 310.737 689.402C310.24 688.176 310.072 686.943 310.234 685.704C310.392 684.438 310.868 683.318 311.661 682.344C312.454 681.37 313.421 680.687 314.562 680.295C315.703 679.903 316.883 679.83 318.104 680.076C319.336 680.307 320.477 680.849 321.526 681.703ZM313.437 683.789C312.729 684.658 312.422 685.679 312.515 686.85C312.605 687.995 313.091 689.051 313.973 690.018L319.517 683.207C318.43 682.522 317.322 682.23 316.192 682.332C315.075 682.419 314.157 682.905 313.437 683.789Z" fill="#CC5407"/>
<path d="M331.299 682.764C331.052 683.008 330.75 683.225 330.394 683.415L328.824 681.829L329.194 681.462C329.73 680.932 329.979 680.359 329.941 679.744C329.903 679.102 329.531 678.369 328.824 677.546L322.732 670.281L329.838 663.245L340.096 673.605L338.304 675.379L329.698 666.687L325.99 670.358L330.799 676.08C331.899 677.383 332.474 678.609 332.523 679.757C332.586 680.891 332.178 681.894 331.299 682.764Z" fill="#CC5407"/>
<path d="M340.447 653.745C341.306 653.057 342.219 652.635 343.185 652.481C344.138 652.311 345.068 652.421 345.973 652.81C346.882 653.171 347.68 653.782 348.369 654.642L354.149 661.859L352.678 663.036L351.129 661.937L351.016 662.028C351.053 662.692 350.924 663.427 350.628 664.232C350.333 665.038 349.771 665.773 348.941 666.438C348.187 667.042 347.403 667.422 346.588 667.58C345.773 667.737 345.002 667.686 344.275 667.427C343.535 667.153 342.912 666.699 342.404 666.066C341.837 665.357 341.547 664.562 341.534 663.681C341.524 662.772 341.784 661.859 342.311 660.942C342.854 660.012 343.623 659.148 344.618 658.351L346.745 656.648L346.328 656.128C345.712 655.358 344.997 654.929 344.182 654.839C343.37 654.722 342.602 654.953 341.878 655.533C341.199 656.076 340.803 656.678 340.689 657.339C340.574 658 340.682 658.645 341.011 659.272L339.043 660.848C338.599 660.139 338.334 659.361 338.249 658.513C338.18 657.653 338.328 656.804 338.696 655.964C339.064 655.125 339.647 654.386 340.447 653.745ZM347.881 664.465C348.816 663.716 349.353 662.84 349.491 661.838C349.617 660.821 349.348 659.898 348.684 659.069L347.995 658.209L346.004 659.803C344.948 660.649 344.273 661.475 343.978 662.281C343.682 663.086 343.782 663.799 344.278 664.417C344.712 664.96 345.251 665.246 345.894 665.276C346.525 665.291 347.187 665.02 347.881 664.465Z" fill="#CC5407"/>
<path d="M360.591 648.186L370.294 650.938L367.62 652.675L358.471 649.977L362.419 656.054L360.328 657.412L352.386 645.186L354.477 643.828L358.219 649.588L359.314 640.686L361.817 639.06L360.591 648.186Z" fill="#CC5407"/>
<path d="M380.385 645.873C379.251 646.456 378.053 646.703 376.79 646.614C375.535 646.498 374.36 646.071 373.262 645.331C372.156 644.575 371.281 643.569 370.636 642.314C369.991 641.06 369.687 639.771 369.724 638.449C369.761 637.126 370.102 635.93 370.746 634.86C371.4 633.763 372.293 632.924 373.427 632.34C374.424 631.828 375.446 631.596 376.492 631.645C377.555 631.685 378.548 631.946 379.469 632.428C380.391 632.91 381.163 633.545 381.785 634.333L379.568 635.473C378.895 634.755 378.112 634.288 377.219 634.074C376.335 633.833 375.429 633.951 374.501 634.428C373.779 634.799 373.211 635.342 372.795 636.055C372.38 636.768 372.164 637.574 372.148 638.473C372.15 639.363 372.384 640.264 372.853 641.175C373.321 642.086 373.921 642.809 374.653 643.345C375.393 643.855 376.166 644.154 376.97 644.24C377.792 644.317 378.573 644.165 379.312 643.785C380.24 643.308 380.867 642.649 381.195 641.807C381.531 640.939 381.603 640.022 381.41 639.056L383.627 637.916C383.906 638.881 383.973 639.879 383.829 640.909C383.685 641.939 383.32 642.898 382.734 643.786C382.165 644.665 381.382 645.361 380.385 645.873Z" fill="#CC5407"/>
<path d="M601.605 644.002L599.49 642.682L607.209 630.314L617.462 636.712L609.744 649.081L607.629 647.761L614.105 637.385L608.08 633.625L601.605 644.002Z" fill="#CC5407"/>
<path d="M613.113 657.673L625.063 641.891L626.542 643.011L625.879 644.799L625.994 644.886C626.552 644.727 627.292 644.693 628.215 644.786C629.154 644.891 630.039 645.258 630.871 645.888C631.841 646.623 632.537 647.562 632.956 648.704C633.388 649.83 633.493 651.036 633.27 652.322C633.063 653.62 632.523 654.846 631.648 656.002C630.773 657.157 629.739 658.01 628.546 658.561C627.369 659.124 626.174 659.358 624.96 659.264C623.747 659.169 622.656 658.755 621.685 658.02C620.884 657.413 620.3 656.68 619.933 655.821C619.578 654.945 619.411 654.237 619.433 653.697L619.317 653.609L615.1 659.178L613.113 657.673ZM622.987 656.061C623.618 656.539 624.33 656.799 625.122 656.841C625.93 656.895 626.727 656.723 627.513 656.325C628.326 655.923 629.042 655.313 629.66 654.497C630.279 653.681 630.665 652.834 630.82 651.957C630.99 651.093 630.94 650.279 630.669 649.516C630.413 648.765 629.97 648.151 629.338 647.673C628.707 647.194 627.987 646.928 627.18 646.874C626.372 646.82 625.567 646.987 624.766 647.373C623.979 647.772 623.277 648.379 622.659 649.196C622.041 650.012 621.641 650.86 621.459 651.741C621.304 652.617 621.362 653.437 621.633 654.199C621.904 654.962 622.355 655.582 622.987 656.061Z" fill="#CC5407"/>
<path d="M636.976 665.057L649.941 662.394L651.57 663.877L641.758 674.66L639.936 673.002L647.134 665.091L634.169 667.754L632.54 666.272L642.352 655.489L644.174 657.147L636.976 665.057Z" fill="#CC5407"/>
<path d="M651.176 684.855C650.286 683.888 649.716 682.797 649.466 681.584C649.242 680.371 649.412 679.086 649.974 677.728C650.537 676.37 651.536 675.03 652.972 673.709C655.417 671.458 657.776 670.141 660.049 669.756C662.321 669.372 664.522 670.038 666.653 671.754C668.201 673.008 669.412 673.967 670.287 674.633L668.56 676.222L666.274 674.466L665.141 673.578C663.633 672.367 662.206 671.815 660.861 671.923C659.531 672.019 658.239 672.512 656.985 673.403L657.083 673.51C657.772 673.375 658.576 673.435 659.496 673.692C660.415 673.949 661.26 674.497 662.032 675.336C662.818 676.189 663.316 677.188 663.529 678.331C663.755 679.462 663.66 680.614 663.242 681.786C662.837 682.973 662.123 684.037 661.099 684.979C660.061 685.935 658.927 686.558 657.698 686.848C656.496 687.14 655.315 687.112 654.153 686.763C653.019 686.415 652.026 685.779 651.176 684.855ZM652.903 683.265C653.44 683.848 654.073 684.25 654.802 684.472C655.546 684.68 656.318 684.678 657.12 684.465C657.922 684.253 658.686 683.812 659.411 683.145C660.136 682.478 660.638 681.753 660.917 680.972C661.209 680.177 661.275 679.407 661.115 678.662C660.969 677.904 660.627 677.233 660.091 676.65C659.554 676.067 658.908 675.664 658.151 675.442C657.422 675.22 656.649 675.222 655.833 675.448C655.031 675.661 654.267 676.101 653.542 676.768C652.817 677.436 652.315 678.16 652.037 678.942C651.758 679.723 651.692 680.493 651.838 681.251C652.012 682.011 652.367 682.682 652.903 683.265Z" fill="#CC5407"/>
<path d="M671.46 693.661C672.371 694.862 672.753 696.101 672.605 697.377C672.485 698.657 671.863 699.723 670.739 700.575C669.615 701.428 668.413 701.746 667.133 701.528C665.879 701.315 664.797 700.608 663.886 699.407L660.4 694.812L672.016 686.001L673.522 687.987L669.481 691.052L671.46 693.661ZM668.178 705.065L679.793 696.253L681.3 698.239L669.685 707.051L668.178 705.065ZM665.542 697.897C666.067 698.589 666.653 698.994 667.299 699.11C667.957 699.242 668.601 699.068 669.232 698.59C669.864 698.111 670.204 697.537 670.255 696.868C670.332 696.203 670.108 695.524 669.583 694.831L667.726 692.383L663.685 695.449L665.542 697.897Z" fill="#CC5407"/>
<path d="M673.093 712.621C672.91 712.325 672.766 711.983 672.66 711.593L674.556 710.416L674.832 710.859C675.229 711.5 675.732 711.87 676.34 711.97C676.974 712.076 677.772 711.877 678.732 711.372L687.172 707.052L692.447 715.548L680.061 723.238L678.731 721.096L689.122 714.644L686.37 710.212L679.721 713.624C678.205 714.406 676.882 714.692 675.752 714.484C674.632 714.293 673.746 713.671 673.093 712.621Z" fill="#CC5407"/>
<path d="M694.933 730.773C695.622 732.114 695.783 733.4 695.417 734.631C695.068 735.853 694.266 736.787 693.011 737.432C691.757 738.077 690.522 738.19 689.308 737.772C688.11 737.345 687.167 736.461 686.478 735.121L683.748 729.811L696.713 723.144L697.853 725.361L693.342 727.68L694.933 730.773ZM688.357 733.894C688.754 734.667 689.261 735.167 689.877 735.393C690.502 735.637 691.167 735.578 691.872 735.215C692.576 734.853 693.011 734.347 693.177 733.697C693.368 733.055 693.265 732.348 692.867 731.574L691.383 728.687L686.872 731.007L688.357 733.894Z" fill="#CC5407"/>
<rect x="854.549" y="448.436" width="37.4864" height="65.6979" rx="4.6375" fill="#1D1A1C"/>
<g clip-path="url(#clip2_547_53353)">
<path d="M878.512 481.978C878.508 483.743 877.331 485.171 875.883 485.167C874.975 485.165 874.174 484.6 873.707 483.74C874.014 484.617 874.537 485.757 875.418 487.143L871.102 487.134C871.999 485.74 872.528 484.598 872.836 483.718C872.365 484.586 871.557 485.158 870.639 485.156C869.192 485.152 868.023 483.717 868.027 481.953C868.028 481.183 868.253 480.477 868.628 479.928L868.75 479.758L868.757 479.752L873.291 473.508L877.794 479.773L877.8 479.779L877.921 479.949C878.292 480.501 878.514 481.208 878.513 481.977L878.512 481.978Z" fill="url(#paint24_linear_547_53353)"/>
</g>
<g clip-path="url(#clip3_547_53353)">
<path d="M862.182 464.29C862.18 465.107 861.635 465.769 860.965 465.767C860.544 465.766 860.173 465.504 859.957 465.106C860.099 465.512 860.342 466.04 860.749 466.682L858.751 466.678C859.166 466.032 859.411 465.503 859.554 465.095C859.336 465.498 858.961 465.762 858.537 465.761C857.866 465.76 857.325 465.095 857.327 464.278C857.327 463.922 857.431 463.595 857.605 463.34L857.662 463.262L857.665 463.259L859.764 460.368L861.85 463.269L861.852 463.271L861.908 463.35C862.08 463.606 862.183 463.933 862.182 464.29L862.182 464.29Z" fill="url(#paint25_linear_547_53353)"/>
</g>
<path d="M860.426 457.265H858.939L858.696 458.62H859.17V459.164H857.641V458.62H858.02L859.371 451.479H860.205L861.608 458.62H862.062V459.164H860.205V458.62H860.691L860.427 457.265H860.426ZM859.666 453.081L859.055 456.645H860.321L859.668 453.081H859.666Z" fill="url(#paint26_linear_547_53353)"/>
<rect x="805.468" y="448.436" width="37.4864" height="65.6979" rx="4.6375" fill="#1D1A1C"/>
<path d="M811.342 457.265H809.855L809.612 458.62H810.086V459.164H808.557V458.62H808.936L810.287 451.479H811.121L812.524 458.62H812.978V459.164H811.121V458.62H811.607L811.343 457.265H811.342ZM810.582 453.081L809.971 456.645H811.237L810.584 453.081H810.582Z" fill="url(#paint27_linear_547_53353)"/>
<path d="M837.247 505.163H838.734L838.977 503.808H838.503V503.264H840.032V503.808H839.653L838.302 510.948H837.468L836.065 503.808H835.611V503.264H837.468V503.808H836.982L837.246 505.163H837.247ZM838.007 509.347L838.618 505.782H837.352L838.006 509.347H838.007Z" fill="url(#paint28_linear_547_53353)"/>
<g clip-path="url(#clip4_547_53353)">
<path d="M830.446 480.13C830.459 481.027 830.211 481.854 829.787 482.504L829.647 482.704L829.639 482.712L824.481 490.079L819.108 482.867L819.1 482.859L818.955 482.663C818.512 482.027 818.239 481.207 818.227 480.31C818.196 478.253 819.539 476.566 821.228 476.542C822.916 476.517 824.306 478.164 824.337 480.22C824.308 478.163 825.651 476.476 827.337 476.452C829.025 476.427 830.417 478.073 830.446 480.13V480.13Z" fill="url(#paint29_linear_547_53353)"/>
</g>
<path d="M813.483 461.804C813.488 462.193 813.381 462.551 813.197 462.832L813.137 462.919L813.133 462.922L810.899 466.112L808.573 462.99L808.569 462.986L808.507 462.901C808.315 462.626 808.197 462.271 808.191 461.883C808.178 460.992 808.76 460.261 809.491 460.251C810.222 460.24 810.824 460.953 810.837 461.843C810.824 460.953 811.406 460.222 812.136 460.212C812.867 460.201 813.47 460.914 813.483 461.804Z" fill="url(#paint30_linear_547_53353)"/>
<path d="M835.265 500.558C835.269 500.169 835.384 499.813 835.574 499.537L835.637 499.451L835.64 499.448L837.946 496.309L840.201 499.484L840.204 499.488L840.265 499.574C840.451 499.854 840.561 500.211 840.557 500.6C840.55 501.491 839.952 502.208 839.221 502.202C838.49 502.196 837.904 501.469 837.911 500.579C837.904 501.469 837.306 502.187 836.575 502.18C835.844 502.175 835.258 501.448 835.265 500.558V500.558Z" fill="url(#paint31_linear_547_53353)"/>
<rect x="271" y="216.124" width="741.999" height="168.882" fill="#1D1A1C"/>
<path d="M303.111 319C302.077 319 301.199 318.638 300.476 317.915C299.752 317.192 299.391 316.313 299.391 315.28V242.116C299.391 241.083 299.752 240.204 300.476 239.481C301.199 238.758 302.077 238.396 303.111 238.396H315.822C316.855 238.396 317.733 238.758 318.457 239.481C319.18 240.204 319.542 241.083 319.542 242.116V269.862H330.702L349.613 240.876C350.027 240.153 350.543 239.584 351.163 239.171C351.887 238.654 352.817 238.396 353.953 238.396H367.749C368.783 238.396 369.609 238.654 370.229 239.171C370.849 239.688 371.159 240.359 371.159 241.186C371.159 241.496 371.056 241.858 370.849 242.271C370.746 242.581 370.591 242.891 370.384 243.201L348.063 277.148L373.639 314.195C374.156 314.815 374.415 315.486 374.415 316.21C374.415 317.037 374.104 317.708 373.484 318.225C372.864 318.742 372.089 319 371.159 319H355.504C354.47 319 353.592 318.793 352.868 318.38C352.248 317.967 351.68 317.398 351.163 316.675L330.702 286.293H319.542V315.28C319.542 316.313 319.18 317.192 318.457 317.915C317.733 318.638 316.855 319 315.822 319H303.111Z" fill="#D96207"/>
<path d="M556.397 319C555.26 319 554.33 318.638 553.607 317.915C552.883 317.192 552.522 316.262 552.522 315.125V305.514C552.522 303.241 553.71 302.001 556.087 301.794C559.187 301.587 561.667 300.141 563.527 297.454C565.387 294.767 566.731 290.634 567.557 285.053C568.384 279.37 568.798 272.033 568.798 263.042V242.116C568.798 241.083 569.159 240.204 569.883 239.481C570.606 238.758 571.536 238.396 572.673 238.396H627.701C628.734 238.396 629.612 238.758 630.336 239.481C631.059 240.204 631.421 241.083 631.421 242.116V315.28C631.421 316.313 631.059 317.192 630.336 317.915C629.612 318.638 628.734 319 627.701 319H614.835C613.698 319 612.768 318.638 612.045 317.915C611.425 317.192 611.115 316.313 611.115 315.28V254.827H588.329V265.212C588.329 275.133 587.76 283.555 586.623 290.479C585.59 297.299 583.782 302.828 581.198 307.064C578.718 311.198 575.411 314.246 571.278 316.21C567.247 318.07 562.287 319 556.397 319Z" fill="#D96207"/>
<path d="M801.774 322.41C794.334 322.41 787.772 321.015 782.088 318.225C776.508 315.435 772.116 311.405 768.913 306.135C765.812 300.761 764.107 294.302 763.797 286.759C763.694 285.209 763.642 283.193 763.642 280.713C763.642 278.13 763.694 276.011 763.797 274.358C764.107 266.814 765.812 260.407 768.913 255.137C772.116 249.763 776.508 245.682 782.088 242.891C787.772 240.101 794.334 238.706 801.774 238.706C808.388 238.706 814.02 239.636 818.67 241.496C823.32 243.356 827.144 245.682 830.141 248.472C833.138 251.262 835.359 254.207 836.806 257.307C838.356 260.304 839.183 263.042 839.286 265.523C839.39 266.659 839.028 267.589 838.201 268.313C837.478 268.933 836.599 269.243 835.566 269.243H821.925C820.892 269.243 820.065 268.984 819.445 268.468C818.929 267.951 818.412 267.176 817.895 266.143C816.345 262.009 814.278 259.116 811.695 257.462C809.215 255.705 806.011 254.827 802.084 254.827C796.917 254.827 792.784 256.48 789.684 259.787C786.687 262.991 785.085 268.106 784.878 275.133C784.672 279.06 784.672 282.677 784.878 285.984C785.085 293.114 786.687 298.281 789.684 301.484C792.784 304.688 796.917 306.29 802.084 306.29C806.115 306.29 809.37 305.463 811.85 303.809C814.33 302.053 816.345 299.108 817.895 294.974C818.412 293.941 818.929 293.166 819.445 292.649C820.065 292.132 820.892 291.874 821.925 291.874H835.566C836.599 291.874 837.478 292.236 838.201 292.959C839.028 293.579 839.39 294.457 839.286 295.594C839.183 297.454 838.666 299.573 837.736 301.949C836.909 304.223 835.514 306.6 833.551 309.08C831.691 311.457 829.314 313.678 826.421 315.745C823.527 317.709 820.014 319.31 815.88 320.55C811.85 321.79 807.148 322.41 801.774 322.41Z" fill="#D96207"/>
<path d="M699.625 322.41C688.155 322.41 679.061 319.104 672.344 312.49C665.627 305.876 662.01 296.472 661.493 284.278C661.39 283.245 661.338 281.953 661.338 280.403C661.338 278.75 661.39 277.458 661.493 276.528C661.907 268.778 663.663 262.061 666.763 256.377C669.967 250.693 674.359 246.353 679.939 243.356C685.519 240.256 692.081 238.706 699.625 238.706C707.996 238.706 715.023 240.463 720.706 243.976C726.39 247.387 730.678 252.192 733.572 258.392C736.465 264.489 737.912 271.568 737.912 279.628V282.883C737.912 283.917 737.55 284.795 736.827 285.519C736.104 286.242 735.174 286.604 734.037 286.604H682.574C682.574 286.604 682.574 286.759 682.574 287.069C682.574 287.379 682.574 287.637 682.574 287.844C682.678 291.461 683.349 294.819 684.589 297.919C685.933 300.916 687.845 303.344 690.325 305.205C692.908 307.065 695.957 307.995 699.47 307.995C702.364 307.995 704.792 307.581 706.756 306.755C708.719 305.825 710.321 304.791 711.561 303.654C712.801 302.518 713.679 301.588 714.196 300.864C715.126 299.624 715.849 298.901 716.366 298.694C716.986 298.384 717.864 298.229 719.001 298.229H732.332C733.365 298.229 734.192 298.539 734.812 299.159C735.535 299.779 735.845 300.554 735.742 301.484C735.639 303.138 734.76 305.153 733.107 307.53C731.557 309.906 729.283 312.232 726.287 314.505C723.29 316.778 719.518 318.69 714.971 320.24C710.527 321.687 705.412 322.41 699.625 322.41ZM682.574 273.583H716.831V273.118C716.831 269.088 716.159 265.574 714.816 262.577C713.473 259.581 711.509 257.204 708.926 255.447C706.342 253.69 703.242 252.812 699.625 252.812C696.008 252.812 692.908 253.69 690.325 255.447C687.741 257.204 685.778 259.581 684.434 262.577C683.194 265.574 682.574 269.088 682.574 273.118V273.583Z" fill="#D96207"/>
<path fill-rule="evenodd" clip-rule="evenodd" d="M463.239 366.208C498.425 366.208 526.948 337.684 526.948 302.499C526.948 267.314 498.425 238.791 463.239 238.791C428.054 238.791 399.531 267.314 399.531 302.499C399.531 337.684 428.054 366.208 463.239 366.208ZM463.24 342.336C485.241 342.336 503.077 324.5 503.077 302.499C503.077 280.498 485.241 262.662 463.24 262.662C441.238 262.662 423.403 280.498 423.403 302.499C423.403 324.5 441.238 342.336 463.24 342.336Z" fill="#D96207"/>
<path fill-rule="evenodd" clip-rule="evenodd" d="M930.739 366.208C965.925 366.208 994.448 337.684 994.448 302.499C994.448 267.314 965.925 238.791 930.739 238.791C895.554 238.791 867.031 267.314 867.031 302.499C867.031 337.684 895.554 366.208 930.739 366.208ZM930.739 342.336C952.74 342.336 970.576 324.5 970.576 302.499C970.576 280.498 952.74 262.662 930.739 262.662C908.738 262.662 890.902 280.498 890.902 302.499C890.902 324.5 908.738 342.336 930.739 342.336Z" fill="#D96207"/>
<rect x="433.309" y="1049.33" width="416.602" height="40.5781" fill="#CC5407"/>
<rect x="442.97" y="1049.33" width="18.55" height="50.2395" fill="#AC2F06"/>
<rect x="485.484" y="1049.33" width="24.3469" height="50.2395" fill="#AC2F06"/>
<rect x="533.791" y="1049.33" width="24.3469" height="50.2395" fill="#AC2F06"/>
<rect x="582.481" y="1049.33" width="24.3469" height="50.2395" fill="#AC2F06"/>
<rect x="630.792" y="1049.33" width="24.3469" height="50.2395" fill="#AC2F06"/>
<rect x="679.482" y="1049.33" width="23.9604" height="50.2395" fill="#AC2F06"/>
<rect x="726.63" y="1049.33" width="23.9604" height="50.2395" fill="#AC2F06"/>
<rect x="774.938" y="1049.33" width="23.9604" height="50.2395" fill="#AC2F06"/>
<rect x="823.248" y="1049.33" width="17.0042" height="50.2395" fill="#AC2F06"/>
<rect x="461.523" y="1049.33" width="23.9604" height="50.2395" fill="#CC5407"/>
<rect x="509.827" y="1049.33" width="23.9604" height="50.2395" fill="#CC5407"/>
<rect x="558.139" y="1049.33" width="24.3469" height="50.2395" fill="#CC5407"/>
<rect x="606.828" y="1049.33" width="23.9604" height="50.2395" fill="#CC5407"/>
<rect x="654.749" y="1049.33" width="24.7333" height="50.2395" fill="#CC5407"/>
<rect x="703.446" y="1049.33" width="23.1875" height="50.2395" fill="#CC5407"/>
<rect x="750.595" y="1049.33" width="24.3469" height="50.2395" fill="#CC5407"/>
<rect x="798.897" y="1049.33" width="24.3469" height="50.2395" fill="#CC5407"/>
</g>
<path d="M315.901 472.232L861.892 262.283L883.122 846.863L337.131 1056.81L315.901 472.232Z" fill="#D45106"/>
<defs>
<linearGradient id="paint0_linear_547_53353" x1="642" y1="384.668" x2="642" y2="577.897" gradientUnits="userSpaceOnUse">
<stop stop-color="#DB6507"/>
<stop offset="1" stop-color="#A62804"/>
</linearGradient>
<radialGradient id="paint1_radial_547_53353" cx="0" cy="0" r="1" gradientUnits="userSpaceOnUse" gradientTransform="translate(601.422 481.283) rotate(90) scale(48.3073)">
<stop stop-color="#DB6507"/>
<stop offset="1" stop-color="#A72905"/>
</radialGradient>
<radialGradient id="paint2_radial_547_53353" cx="0" cy="0" r="1" gradientUnits="userSpaceOnUse" gradientTransform="translate(385.005 481.283) rotate(90) scale(48.3073)">
<stop stop-color="#DB6507"/>
<stop offset="1" stop-color="#A72905"/>
</radialGradient>
<radialGradient id="paint3_radial_547_53353" cx="0" cy="0" r="1" gradientUnits="userSpaceOnUse" gradientTransform="translate(493.21 481.286) rotate(90) scale(68.7895)">
<stop stop-color="#DB6507"/>
<stop offset="1" stop-color="#A72905"/>
</radialGradient>
<radialGradient id="paint4_diamond_547_53353" cx="0" cy="0" r="1" gradientUnits="userSpaceOnUse" gradientTransform="translate(897.642 481.281) rotate(59.5305) scale(142.136 331.466)">
<stop stop-color="#DFB392"/>
<stop offset="1" stop-color="#69230D"/>
</radialGradient>
<radialGradient id="paint5_radial_547_53353" cx="0" cy="0" r="1" gradientUnits="userSpaceOnUse" gradientTransform="translate(768.807 833.513) rotate(90) scale(76.4462 37.6797)">
<stop stop-color="#E1DEDE"/>
<stop offset="1" stop-color="#565656"/>
</radialGradient>
<linearGradient id="paint6_linear_547_53353" x1="768.807" y1="757.066" x2="768.807" y2="909.959" gradientUnits="userSpaceOnUse">
<stop stop-color="#DB6507"/>
<stop offset="1" stop-color="#A72905"/>
</linearGradient>
<radialGradient id="paint7_radial_547_53353" cx="0" cy="0" r="1" gradientUnits="userSpaceOnUse" gradientTransform="translate(918.12 845.713) rotate(90) scale(72.6541 41.5442)">
<stop stop-color="#A8A6A6"/>
<stop offset="1" stop-color="#565656"/>
</radialGradient>
<radialGradient id="paint8_radial_547_53353" cx="0" cy="0" r="1" gradientUnits="userSpaceOnUse" gradientTransform="translate(918.317 929.382) rotate(90) scale(124.053 123.662)">
<stop/>
<stop offset="1" stop-color="#414040"/>
</radialGradient>
<radialGradient id="paint9_radial_547_53353" cx="0" cy="0" r="1" gradientUnits="userSpaceOnUse" gradientTransform="translate(918.317 746.587) rotate(90) scale(124.053 123.662)">
<stop/>
<stop offset="1" stop-color="#414040"/>
</radialGradient>
<linearGradient id="paint10_linear_547_53353" x1="917.928" y1="789.676" x2="917.928" y2="703.496" gradientUnits="userSpaceOnUse">
<stop stop-color="#A82A06"/>
<stop offset="1" stop-color="#DB6508"/>
</linearGradient>
<linearGradient id="paint11_linear_547_53353" x1="918.321" y1="703.492" x2="918.321" y2="789.672" gradientUnits="userSpaceOnUse">
<stop stop-color="#DC6508"/>
<stop offset="1" stop-color="#A82A06"/>
</linearGradient>
<linearGradient id="paint12_linear_547_53353" x1="917.947" y1="710.104" x2="917.947" y2="783.573" gradientUnits="userSpaceOnUse">
<stop stop-color="#DB6508"/>
<stop offset="1" stop-color="#A82A06"/>
</linearGradient>
<linearGradient id="paint13_linear_547_53353" x1="918.246" y1="821.925" x2="918.246" y2="669.156" gradientUnits="userSpaceOnUse">
<stop stop-color="#A82A06"/>
<stop offset="1" stop-color="#DB6508"/>
</linearGradient>
<linearGradient id="paint14_linear_547_53353" x1="918.318" y1="972.421" x2="918.318" y2="886.241" gradientUnits="userSpaceOnUse">
<stop stop-color="#A82A06"/>
<stop offset="1" stop-color="#DB6508"/>
</linearGradient>
<linearGradient id="paint15_linear_547_53353" x1="918.708" y1="886.244" x2="918.708" y2="972.424" gradientUnits="userSpaceOnUse">
<stop stop-color="#DC6508"/>
<stop offset="1" stop-color="#A82A06"/>
</linearGradient>
<linearGradient id="paint16_linear_547_53353" x1="918.33" y1="892.851" x2="918.33" y2="966.32" gradientUnits="userSpaceOnUse">
<stop stop-color="#DB6508"/>
<stop offset="1" stop-color="#A82A06"/>
</linearGradient>
<linearGradient id="paint17_linear_547_53353" x1="918.626" y1="1004.67" x2="918.626" y2="851.899" gradientUnits="userSpaceOnUse">
<stop stop-color="#A82A06"/>
<stop offset="1" stop-color="#DB6508"/>
</linearGradient>
<radialGradient id="paint18_radial_547_53353" cx="0" cy="0" r="1" gradientUnits="userSpaceOnUse" gradientTransform="translate(493.093 833.513) rotate(90) scale(254.452)">
<stop offset="0.659152" stop-color="#404040"/>
<stop offset="0.933552" stop-color="#9D9D9D"/>
</radialGradient>
<linearGradient id="paint19_linear_547_53353" x1="573.216" y1="765.895" x2="573.216" y2="899.979" gradientUnits="userSpaceOnUse">
<stop offset="0.226242" stop-color="#6B6B6B"/>
<stop offset="0.615937" stop-color="#383838"/>
</linearGradient>
<radialGradient id="paint20_radial_547_53353" cx="0" cy="0" r="1" gradientUnits="userSpaceOnUse" gradientTransform="translate(493.403 833.517) rotate(90) scale(60.4807)">
<stop stop-color="#DB6507"/>
<stop offset="1" stop-color="#A62905"/>
</radialGradient>
<radialGradient id="paint21_radial_547_53353" cx="0" cy="0" r="1" gradientUnits="userSpaceOnUse" gradientTransform="translate(493.402 831.994) scale(29.9508 22.5011)">
<stop stop-color="#FF3D00"/>
<stop offset="1" stop-color="#8B2202"/>
</radialGradient>
<linearGradient id="paint22_linear_547_53353" x1="492.893" y1="636.055" x2="492.893" y2="724.932" gradientUnits="userSpaceOnUse">
<stop stop-color="#DB6507"/>
<stop offset="1" stop-color="#A62905"/>
</linearGradient>
<linearGradient id="paint23_linear_547_53353" x1="491.734" y1="1030.97" x2="491.734" y2="942.095" gradientUnits="userSpaceOnUse">
<stop stop-color="#DB6507"/>
<stop offset="1" stop-color="#A62905"/>
</linearGradient>
<linearGradient id="paint24_linear_547_53353" x1="873.095" y1="472.928" x2="873.095" y2="487.227" gradientUnits="userSpaceOnUse">
<stop stop-color="#DA6407"/>
<stop offset="1" stop-color="#A62805"/>
</linearGradient>
<linearGradient id="paint25_linear_547_53353" x1="859.766" y1="460.368" x2="859.573" y2="466.551" gradientUnits="userSpaceOnUse">
<stop stop-color="#DA6407"/>
<stop offset="1" stop-color="#A62905"/>
</linearGradient>
<linearGradient id="paint26_linear_547_53353" x1="859.851" y1="451.479" x2="859.851" y2="459.164" gradientUnits="userSpaceOnUse">
<stop stop-color="#D96307"/>
<stop offset="1" stop-color="#A62905"/>
</linearGradient>
<linearGradient id="paint27_linear_547_53353" x1="810.767" y1="451.479" x2="810.767" y2="459.164" gradientUnits="userSpaceOnUse">
<stop stop-color="#DA6407"/>
<stop offset="1" stop-color="#A62805"/>
</linearGradient>
<linearGradient id="paint28_linear_547_53353" x1="837.93" y1="510.993" x2="837.93" y2="502.877" gradientUnits="userSpaceOnUse">
<stop stop-color="#DA6407"/>
<stop offset="1" stop-color="#A62805"/>
</linearGradient>
<linearGradient id="paint29_linear_547_53353" x1="824.401" y1="476.019" x2="824.401" y2="490.705" gradientUnits="userSpaceOnUse">
<stop stop-color="#DB6507"/>
<stop offset="1" stop-color="#A72905"/>
</linearGradient>
<linearGradient id="paint30_linear_547_53353" x1="810.88" y1="459.787" x2="810.88" y2="466.164" gradientUnits="userSpaceOnUse">
<stop stop-color="#DA6407"/>
<stop offset="1" stop-color="#A62805"/>
</linearGradient>
<linearGradient id="paint31_linear_547_53353" x1="837.929" y1="496.309" x2="837.929" y2="502.106" gradientUnits="userSpaceOnUse">
<stop stop-color="#A72905"/>
<stop offset="1" stop-color="#DA6307"/>
</linearGradient>
<clipPath id="clip0_547_53353">
<rect width="122.507" height="122.507" fill="white" transform="translate(856.87 685.333)"/>
</clipPath>
<clipPath id="clip1_547_53353">
<rect width="122.507" height="122.507" fill="white" transform="translate(857.257 868.08)"/>
</clipPath>
<clipPath id="clip2_547_53353">
<rect width="11.1178" height="11.2122" fill="white" transform="translate(865.366 481.306) rotate(-44.5389)"/>
</clipPath>
<clipPath id="clip3_547_53353">
<rect width="5.14833" height="5.19203" fill="white" transform="translate(856.095 463.979) rotate(-44.5389)"/>
</clipPath>
<clipPath id="clip4_547_53353">
<rect width="12.5648" height="12.5083" fill="white" transform="translate(824.273 472.348) rotate(44.4585)"/>
</clipPath>
</defs>
</svg>
