<svg width="1920" height="1080" viewBox="0 0 1920 1080" fill="none" xmlns="http://www.w3.org/2000/svg">
<g clip-path="url(#clip0_417_5012)">
<rect y="-0.000854492" width="2125.91" height="1195.23" fill="white"/>
<path d="M425 90.4753L525 -197.025C553 -100.025 631 -39.1913 684 -4.02469C664 -62.8247 677.5 -116.525 702 -147.525C751 -214.025 824.5 -220.525 863 -214.025C944 -200.349 1004.5 -86.0247 1044 -23.5246L1192.5 206.475L837 315.975C766.286 337.072 731.539 340.603 672.368 316.296C664.104 312.902 656.385 308.137 649.763 302.14C528.412 192.233 610.163 68.1372 672 36.9754C615 32.9753 508 27.9753 425 90.4753Z" fill="#161616"/>
</g>
<defs>
<clipPath id="clip0_417_5012">
<rect width="1920" height="1079.46" fill="white"/>
</clipPath>
</defs>
</svg>
