<svg width="1920" height="1080" viewBox="0 0 1920 1080" fill="none" xmlns="http://www.w3.org/2000/svg">
<g clip-path="url(#clip0_417_5012)">
<rect y="-0.000854492" width="2125.91" height="1195.23" fill="white"/>
<path d="M-10.8877 438.589L202.699 -175.471C262.503 31.7074 429.1 161.639 542.301 236.75C499.584 111.161 528.418 -3.53439 580.746 -69.746C685.404 -211.781 842.39 -225.664 924.62 -211.781C1097.63 -182.573 1226.84 61.6095 1311.21 195.101L1628.39 686.349L869.088 920.226C794.221 942.562 738.229 955.679 685.404 956.906C631.661 958.153 581.194 947.094 517.462 920.914C499.811 913.663 483.415 903.567 469.268 890.76C424.086 849.856 392.078 808.032 370.722 766.497C341.15 708.982 332.006 652.022 336.597 598.832C341.467 542.406 361.795 490.222 389.591 446.118C425.276 389.497 473.27 346.192 516.67 324.321C394.926 315.777 166.389 305.098 -10.8877 438.589Z" fill="#161616"/>
</g>
<defs>
<clipPath id="clip0_417_5012">
<rect width="1920" height="1079.46" fill="white"/>
</clipPath>
</defs>
</svg>
