<svg width="1920" height="1080" viewBox="0 0 1920 1080" fill="none" xmlns="http://www.w3.org/2000/svg">
<g clip-path="url(#clip0_369_2758)">
<rect y="-0.000976562" width="2125.91" height="1195.23" fill="white"/>
<path fill-rule="evenodd" clip-rule="evenodd" d="M793.674 1629.43C718.329 1522.04 726.836 1362.97 753.451 1241.63L866.487 1415.84C939.033 1527.65 1107.49 1511.19 1157.02 1387.45C1206.55 1263.71 1095.98 1135.56 966.318 1166.43L766.132 1214.1L998.9 997.804C1087.28 915.683 1060.07 769.516 948.074 724.685C836.073 679.854 715.529 766.882 722.833 887.301L742.047 1204.06L630.383 1031.97C557.837 920.159 389.381 936.621 339.853 1060.36C290.324 1184.09 400.895 1312.24 530.552 1281.37L731.994 1233.41C667.513 1339.49 564.029 1460.18 435.581 1485.89L614.663 1557.57L743.905 1234.69L743.905 1234.69L614.592 1557.75L793.674 1629.43Z" fill="#161616"/>
</g>
<defs>
<clipPath id="clip0_369_2758">
<rect width="1920" height="1080" fill="white"/>
</clipPath>
</defs>
</svg>
