<svg width="1920" height="1080" viewBox="0 0 1920 1080" fill="none" xmlns="http://www.w3.org/2000/svg">
<g clip-path="url(#clip0_369_2758)">
<rect y="-0.000976562" width="2125.91" height="1195.23" fill="white"/>
<path d="M1099.07 1627.41L508.437 1390.16C582.781 1374.96 652.211 1340.38 715.047 1295.35C772.814 1253.96 825.008 1203.72 870.323 1151.6C922.634 1091.42 965.779 1028.72 997.749 974.168C943.601 991.74 889.099 1006.88 836.467 1018.97C771.477 1033.9 709.339 1044.19 654.242 1048.66C574.074 1055.17 508.814 1049.38 471.368 1027.71C433.627 1005.87 405.455 979.942 384.702 952.249C356.459 914.56 341.958 873.61 335.781 835.275C328.863 792.34 332.388 752.686 338.743 724.57C348.297 682.307 366.464 647.539 389.84 619.451C422.105 580.684 464.294 554.64 507.46 539.173C560.425 520.195 614.861 517.141 654.242 526.044C716.784 536.417 771.078 576.281 818.84 628.937C856.761 670.745 890.564 720.618 921.107 770.198C955.966 826.783 986.579 882.988 1014.22 926.39C1008.59 849.037 1001.48 772.722 995.429 700.179C988.372 615.627 982.735 536.2 982.491 466.232C982.161 371.717 991.672 294.46 1020.81 245.144C1044.9 204.378 1076.5 174.448 1112.1 154.025C1144.77 135.279 1180.82 124.544 1217.54 120.793C1260.94 116.36 1305.27 121.688 1346.04 135.082C1391.59 152.317 1428.49 180.871 1456.09 215.811C1482.54 249.288 1500.46 288.627 1509.29 329.489C1520.04 379.269 1517.31 431.31 1500.09 477.765C1484.94 518.619 1449.24 567.92 1403.69 619.451C1359.46 669.494 1305.94 721.641 1252.93 770.198C1175.1 841.498 1098.37 905.06 1053.76 942.865C1099.92 927.911 1141.04 915.303 1178 904.795C1259.38 881.655 1320.54 868.701 1370.76 863.307C1409.54 859.141 1441.79 859.485 1471.78 863.13C1545.3 872.066 1616.72 906.112 1661.54 965.062C1689.52 1001.85 1704.67 1040.05 1711.47 1076.64C1721.1 1128.43 1714.01 1177.01 1702.88 1213.88C1689.25 1259.07 1667.56 1294.73 1640.82 1322.12C1600.1 1363.81 1547.67 1386.33 1494.12 1394.08C1441.77 1401.66 1388.35 1395.14 1343.73 1378.63C1293.98 1364.77 1239.78 1309.68 1189.8 1243.03C1154.84 1196.42 1121.94 1144.16 1094.08 1096.41C1069.43 1054.18 1048.72 1015.48 1033.99 987.348C1015.65 1058.87 1005.93 1127.87 1002.79 1192.79C999.251 1265.81 1004.03 1333.65 1014.22 1394.08C1031.6 1497.1 1064.68 1578.56 1099.07 1627.41Z" fill="#161616"/>
</g>
<defs>
<clipPath id="clip0_369_2758">
<rect width="1920" height="1080" fill="white"/>
</clipPath>
</defs>
</svg>
