<svg width="5401" height="3070" viewBox="0 0 5401 3070" fill="none" xmlns="http://www.w3.org/2000/svg">
<path fill-rule="evenodd" clip-rule="evenodd" d="M5401 0H0V3070H5401V0ZM1898.37 1661.98C2010.6 1808.36 2182.98 1970.31 2376.99 1987.63L2124.18 2122.23L2124.04 2121.98L1871.23 2256.59C1965.04 2086.2 1927.15 1853.2 1868.5 1678.45L1730.06 1952.99C1640.95 2129.7 1389.65 2132.48 1296.64 1957.8C1203.64 1783.12 1346.24 1576.18 1542.59 1600.9L1844.81 1638.95L1466.93 1357.47C1323.28 1250.46 1339.93 1030.33 1498.04 946.146C1656.16 861.962 1848.08 971.043 1856.66 1149.97L1879.26 1621.22L2016.84 1348.4C2105.95 1171.69 2357.26 1168.9 2450.26 1343.59C2543.27 1518.27 2400.66 1725.21 2204.31 1700.49L1898.37 1661.98Z" fill="#5D00D2"/>
</svg>
