<svg width="768" height="334" viewBox="0 0 768 334" fill="none" xmlns="http://www.w3.org/2000/svg">
<path d="M0 90.4753L100 -197.025C128 -100.025 206 -39.1913 259 -4.02469C239 -62.8247 252.5 -116.525 277 -147.525C326 -214.025 399.5 -220.525 438 -214.025C519 -200.349 579.5 -86.0247 619 -23.5246L767.5 206.475L412 315.975C376.948 326.433 350.733 332.574 326 333.148C300.838 333.732 277.21 328.554 247.371 316.297C239.106 312.902 231.43 308.175 224.807 302.179C203.653 283.028 188.666 263.446 178.668 244C164.822 217.072 160.541 190.403 162.69 165.5C164.971 139.082 174.488 114.65 187.502 94C204.21 67.4906 226.68 47.2154 247 36.9754C190 32.9753 83 27.9753 0 90.4753Z" fill="#161616"/>
</svg>
