<svg width="4185" height="2592" viewBox="0 0 4185 2592" fill="none" xmlns="http://www.w3.org/2000/svg">
<path fill-rule="evenodd" clip-rule="evenodd" d="M4185 0H0V2592H4185V0ZM2852.24 1141.17C2701.11 1053.19 2491.62 973.216 2315.22 1027.88L2488.49 818.806L2488.7 818.978L2661.96 609.901C2641.03 793.116 2758.15 983.825 2872.51 1115.97L2895.09 825.338C2909.62 638.281 3129.01 545.357 3273.48 665.075C3417.94 784.793 3367.37 1017.63 3186.27 1066.65L2907.51 1142.09L3340.27 1252.9C3504.79 1295.03 3569.44 1494.09 3461.08 1624.85C3352.72 1755.61 3145.11 1729.04 3073.17 1575.21L2883.67 1170.03L2861.24 1458.85C2846.71 1645.91 2627.31 1738.83 2482.85 1619.11C2338.39 1499.4 2388.95 1266.56 2570.06 1217.54L2852.24 1141.17Z" fill="#E8038D"/>
</svg>
