<svg width="3465" height="2592" viewBox="0 0 3465 2592" fill="none" xmlns="http://www.w3.org/2000/svg">
<path fill-rule="evenodd" clip-rule="evenodd" d="M3465 0H0V2592H3465V0ZM2028.37 1452.54C1945.76 1644.19 1880.98 1903.85 1970.99 2105.02L1698.48 1929.65L1698.65 1929.38L1426.14 1754C1646.21 1752.59 1855.41 1586.53 1995.61 1432.13L1648.03 1446.97C1424.32 1456.52 1282.83 1209.87 1404 1021.57C1525.17 833.28 1808.28 859.873 1892.27 1067.44L2021.55 1386.92L2090.92 858.323C2117.29 657.37 2343.89 552.282 2514.32 661.962C2684.75 771.642 2682.99 1021.42 2511.02 1128.67L2058.07 1411.16L2403.48 1396.42C2627.19 1386.87 2768.68 1633.52 2647.51 1821.81C2526.33 2010.11 2243.23 1983.51 2159.24 1775.95L2028.37 1452.54Z" fill="#1729CE"/>
</svg>
