<svg width="4185" height="2592" viewBox="0 0 4185 2592" fill="none" xmlns="http://www.w3.org/2000/svg">
<path fill-rule="evenodd" clip-rule="evenodd" d="M4185 0H0V2592H4185V0ZM1470.97 1394.72C1557.93 1508.15 1691.49 1633.64 1841.83 1647.06L1645.93 1751.36L1645.83 1751.16L1449.93 1855.46C1522.62 1723.44 1493.27 1542.9 1447.82 1407.49L1340.55 1620.22C1271.5 1757.14 1076.78 1759.3 1004.71 1623.94C932.645 1488.59 1043.15 1328.24 1195.29 1347.4L1429.47 1376.88L1136.66 1158.77C1025.35 1075.86 1038.25 905.287 1160.77 840.057C1283.28 774.826 1432 859.348 1438.65 997.988L1456.16 1363.14L1562.77 1151.74C1631.81 1014.82 1826.54 1012.66 1898.6 1148.02C1970.67 1283.37 1860.17 1443.72 1708.02 1424.57L1470.97 1394.72Z" fill="#D40606"/>
</svg>
